<?xml version="1.0" encoding="UTF-8" standalone="no"?>
<!DOCTYPE svg PUBLIC "-//W3C//DTD SVG 1.1//EN"
 "http://www.w3.org/Graphics/SVG/1.1/DTD/svg11.dtd">
<!-- Generated by graphviz version 2.36.0 (20140111.2315)
 -->
<!-- Title: ColorFeature.changePenColor Pages: 1 -->
<svg width="654pt" height="28pt"
 viewBox="0.00 0.00 654.00 28.00" xmlns="http://www.w3.org/2000/svg" xmlns:xlink="http://www.w3.org/1999/xlink">
<g id="graph0" class="graph" transform="scale(1 1) rotate(0) translate(4 24)">
<title>ColorFeature.changePenColor</title>
<polygon fill="white" stroke="none" points="-4,4 -4,-24 650,-24 650,4 -4,4"/>
<!-- Node1 -->
<g id="node1" class="node"><title>Node1</title>
<polygon fill="#bfbfbf" stroke="black" points="0,-0.5 0,-19.5 158,-19.5 158,-0.5 0,-0.5"/>
<text text-anchor="middle" x="79" y="-7.5" font-family="Helvetica,sans-Serif" font-size="10.00">ColorFeature.changePenColor</text>
</g>
<!-- Node2 -->
<g id="node2" class="node"><title>Node2</title>
<g id="a_node2"><a xlink:href="../../d5/d56/class_workspace.html#a6babd032d9af86fbc23812272d59a2d2" target="_top" xlink:title="Workspace.addFeatureButtons">
<polygon fill="white" stroke="black" points="194,-0.5 194,-19.5 356,-19.5 356,-0.5 194,-0.5"/>
<text text-anchor="middle" x="275" y="-7.5" font-family="Helvetica,sans-Serif" font-size="10.00">Workspace.addFeatureButtons</text>
</a>
</g>
</g>
<!-- Node1&#45;&gt;Node2 -->
<g id="edge1" class="edge"><title>Node1&#45;&gt;Node2</title>
<path fill="none" stroke="midnightblue" d="M168.094,-10C176.685,-10 185.37,-10 193.876,-10"/>
<polygon fill="midnightblue" stroke="midnightblue" points="168.069,-6.5001 158.069,-10 168.069,-13.5001 168.069,-6.5001"/>
</g>
<!-- Node3 -->
<g id="node3" class="node"><title>Node3</title>
<g id="a_node3"><a xlink:href="../../d5/d56/class_workspace.html#a429d535dfd8427637b7715f0b1e1df1b" target="_top" xlink:title="Workspace.createWorkspace">
<polygon fill="white" stroke="black" points="392,-0.5 392,-19.5 544,-19.5 544,-0.5 392,-0.5"/>
<text text-anchor="middle" x="468" y="-7.5" font-family="Helvetica,sans-Serif" font-size="10.00">Workspace.createWorkspace</text>
</a>
</g>
</g>
<!-- Node2&#45;&gt;Node3 -->
<g id="edge2" class="edge"><title>Node2&#45;&gt;Node3</title>
<path fill="none" stroke="midnightblue" d="M366.223,-10C374.822,-10 383.479,-10 391.912,-10"/>
<polygon fill="midnightblue" stroke="midnightblue" points="366.171,-6.5001 356.171,-10 366.171,-13.5001 366.171,-6.5001"/>
</g>
<!-- Node4 -->
<g id="node4" class="node"><title>Node4</title>
<g id="a_node4"><a xlink:href="../../d0/d4b/class_main.html#aaa75b38812324d0f17c89f139bde6ada" target="_top" xlink:title="Main.start">
<polygon fill="white" stroke="black" points="580.5,-0.5 580.5,-19.5 645.5,-19.5 645.5,-0.5 580.5,-0.5"/>
<text text-anchor="middle" x="613" y="-7.5" font-family="Helvetica,sans-Serif" font-size="10.00">Main.start</text>
</a>
</g>
</g>
<!-- Node3&#45;&gt;Node4 -->
<g id="edge3" class="edge"><title>Node3&#45;&gt;Node4</title>
<path fill="none" stroke="midnightblue" d="M554.392,-10C563.632,-10 572.551,-10 580.498,-10"/>
<polygon fill="midnightblue" stroke="midnightblue" points="554.269,-6.5001 544.269,-10 554.269,-13.5001 554.269,-6.5001"/>
</g>
</g>
</svg>
