<?xml version="1.0" encoding="UTF-8" standalone="no"?>
<!DOCTYPE svg PUBLIC "-//W3C//DTD SVG 1.1//EN"
 "http://www.w3.org/Graphics/SVG/1.1/DTD/svg11.dtd">
<!-- Generated by graphviz version 2.36.0 (20140111.2315)
 -->
<!-- Title: parser.Token Pages: 1 -->
<svg width="180pt" height="88pt"
 viewBox="0.00 0.00 180.00 88.00" xmlns="http://www.w3.org/2000/svg" xmlns:xlink="http://www.w3.org/1999/xlink">
<g id="graph0" class="graph" transform="scale(1 1) rotate(0) translate(4 84)">
<title>parser.Token</title>
<polygon fill="white" stroke="none" points="-4,4 -4,-84 176,-84 176,4 -4,4"/>
<!-- Node1 -->
<g id="node1" class="node"><title>Node1</title>
<polygon fill="#bfbfbf" stroke="black" points="16.5,-1.5 16.5,-20.5 93.5,-20.5 93.5,-1.5 16.5,-1.5"/>
<text text-anchor="middle" x="55" y="-8.5" font-family="Helvetica,sans-Serif" font-size="10.00">parser.Token</text>
</g>
<!-- Node1&#45;&gt;Node1 -->
<g id="edge2" class="edge"><title>Node1&#45;&gt;Node1</title>
<path fill="none" stroke="#9a32cd" stroke-dasharray="5,2" d="M103.872,-15.4488C108.251,-14.5182 111,-13.0352 111,-11 111,-7.66016 103.597,-5.80759 93.7352,-5.44229"/>
<polygon fill="#9a32cd" stroke="#9a32cd" points="103.295,-11.9909 93.7352,-16.5577 104.057,-18.9494 103.295,-11.9909"/>
<text text-anchor="middle" x="141.5" y="-14" font-family="Helvetica,sans-Serif" font-size="10.00"> next</text>
<text text-anchor="middle" x="141.5" y="-3" font-family="Helvetica,sans-Serif" font-size="10.00">specialToken</text>
</g>
<!-- Node2 -->
<g id="node2" class="node"><title>Node2</title>
<polygon fill="white" stroke="#bfbfbf" points="-0.5,-60.5 -0.5,-79.5 110.5,-79.5 110.5,-60.5 -0.5,-60.5"/>
<text text-anchor="middle" x="55" y="-67.5" font-family="Helvetica,sans-Serif" font-size="10.00">java::io::Serializable</text>
</g>
<!-- Node2&#45;&gt;Node1 -->
<g id="edge1" class="edge"><title>Node2&#45;&gt;Node1</title>
<path fill="none" stroke="midnightblue" d="M55,-49.9331C55,-40.0243 55,-28.4007 55,-20.6571"/>
<polygon fill="midnightblue" stroke="midnightblue" points="51.5001,-50.0937 55,-60.0938 58.5001,-50.0938 51.5001,-50.0937"/>
</g>
</g>
</svg>
