<?xml version="1.0" encoding="UTF-8" standalone="no"?>
<!DOCTYPE svg PUBLIC "-//W3C//DTD SVG 1.1//EN"
 "http://www.w3.org/Graphics/SVG/1.1/DTD/svg11.dtd">
<!-- Generated by graphviz version 2.36.0 (20140111.2315)
 -->
<!-- Title: MovementAndImageAPI.src.PenHandler Pages: 1 -->
<svg width="178pt" height="176pt"
 viewBox="0.00 0.00 178.00 176.00" xmlns="http://www.w3.org/2000/svg" xmlns:xlink="http://www.w3.org/1999/xlink">
<g id="graph0" class="graph" transform="scale(1 1) rotate(0) translate(4 172)">
<title>MovementAndImageAPI.src.PenHandler</title>
<polygon fill="white" stroke="none" points="-4,4 -4,-172 174,-172 174,4 -4,4"/>
<!-- Node1 -->
<g id="node1" class="node"><title>Node1</title>
<polygon fill="#bfbfbf" stroke="black" points="9,-1 9,-31 161,-31 161,-1 9,-1"/>
<text text-anchor="start" x="17" y="-19" font-family="Helvetica,sans-Serif" font-size="10.00">MovementAndImageAPI.src.</text>
<text text-anchor="middle" x="85" y="-8" font-family="Helvetica,sans-Serif" font-size="10.00">PenHandler</text>
</g>
<!-- Node2 -->
<g id="node2" class="node"><title>Node2</title>
<g id="a_node2"><a xlink:href="../../d2/d78/class_movement_and_image_a_p_i_1_1src_1_1_pen.html" target="_top" xlink:title="MovementAndImageAPI.src.Pen">
<polygon fill="white" stroke="black" points="0,-80.5 0,-99.5 170,-99.5 170,-80.5 0,-80.5"/>
<text text-anchor="middle" x="85" y="-87.5" font-family="Helvetica,sans-Serif" font-size="10.00">MovementAndImageAPI.src.Pen</text>
</a>
</g>
</g>
<!-- Node2&#45;&gt;Node1 -->
<g id="edge1" class="edge"><title>Node2&#45;&gt;Node1</title>
<path fill="none" stroke="#9a32cd" stroke-dasharray="5,2" d="M85,-70.0846C85,-57.9148 85,-42.3538 85,-31.2316"/>
<polygon fill="#9a32cd" stroke="#9a32cd" points="81.5001,-70.4579 85,-80.4579 88.5001,-70.4579 81.5001,-70.4579"/>
<text text-anchor="middle" x="108" y="-53.5" font-family="Helvetica,sans-Serif" font-size="10.00"> mainPen</text>
</g>
<!-- Node3 -->
<g id="node3" class="node"><title>Node3</title>
<polygon fill="white" stroke="#bfbfbf" points="64.5,-148.5 64.5,-167.5 105.5,-167.5 105.5,-148.5 64.5,-148.5"/>
<text text-anchor="middle" x="85" y="-155.5" font-family="Helvetica,sans-Serif" font-size="10.00">Color</text>
</g>
<!-- Node3&#45;&gt;Node2 -->
<g id="edge2" class="edge"><title>Node3&#45;&gt;Node2</title>
<path fill="none" stroke="#9a32cd" stroke-dasharray="5,2" d="M85,-138.041C85,-125.472 85,-109.563 85,-99.8411"/>
<polygon fill="#9a32cd" stroke="#9a32cd" points="81.5001,-138.372 85,-148.372 88.5001,-138.372 81.5001,-138.372"/>
<text text-anchor="middle" x="115.5" y="-121.5" font-family="Helvetica,sans-Serif" font-size="10.00"> myPenColor</text>
</g>
</g>
</svg>
