<?xml version="1.0" encoding="UTF-8" standalone="no"?>
<!DOCTYPE svg PUBLIC "-//W3C//DTD SVG 1.1//EN"
 "http://www.w3.org/Graphics/SVG/1.1/DTD/svg11.dtd">
<!-- Generated by graphviz version 2.36.0 (20140111.2315)
 -->
<!-- Title: HelpPage.HelpPage Pages: 1 -->
<svg width="303pt" height="96pt"
 viewBox="0.00 0.00 303.00 96.00" xmlns="http://www.w3.org/2000/svg" xmlns:xlink="http://www.w3.org/1999/xlink">
<g id="graph0" class="graph" transform="scale(1 1) rotate(0) translate(4 92)">
<title>HelpPage.HelpPage</title>
<polygon fill="white" stroke="none" points="-4,4 -4,-92 299,-92 299,4 -4,4"/>
<!-- Node1 -->
<g id="node1" class="node"><title>Node1</title>
<polygon fill="#bfbfbf" stroke="black" points="93,-0.5 93,-19.5 203,-19.5 203,-0.5 93,-0.5"/>
<text text-anchor="middle" x="148" y="-7.5" font-family="Helvetica,sans-Serif" font-size="10.00">HelpPage.HelpPage</text>
</g>
<!-- Node2 -->
<g id="node2" class="node"><title>Node2</title>
<polygon fill="white" stroke="#bfbfbf" points="-0.5,-68.5 -0.5,-87.5 68.5,-87.5 68.5,-68.5 -0.5,-68.5"/>
<text text-anchor="middle" x="34" y="-75.5" font-family="Helvetica,sans-Serif" font-size="10.00">Application</text>
</g>
<!-- Node2&#45;&gt;Node1 -->
<g id="edge1" class="edge"><title>Node2&#45;&gt;Node1</title>
<path fill="none" stroke="midnightblue" d="M57.5944,-63.3401C80.2846,-50.2036 113.889,-30.7487 133.093,-19.6305"/>
<polygon fill="midnightblue" stroke="midnightblue" points="55.8041,-60.3322 48.9035,-68.3717 59.3114,-66.3902 55.8041,-60.3322"/>
</g>
<!-- Node3 -->
<g id="node3" class="node"><title>Node3</title>
<polygon fill="white" stroke="#bfbfbf" points="86.5,-68.5 86.5,-87.5 133.5,-87.5 133.5,-68.5 86.5,-68.5"/>
<text text-anchor="middle" x="110" y="-75.5" font-family="Helvetica,sans-Serif" font-size="10.00">Scene</text>
</g>
<!-- Node3&#45;&gt;Node1 -->
<g id="edge2" class="edge"><title>Node3&#45;&gt;Node1</title>
<path fill="none" stroke="#9a32cd" stroke-dasharray="5,2" d="M109.599,-58.0962C110.167,-51.4038 111.649,-44.0427 115,-38 119.164,-30.4904 126.33,-24.2427 132.923,-19.6551"/>
<polygon fill="#9a32cd" stroke="#9a32cd" points="106.093,-58.2912 109.338,-68.3768 113.09,-58.4688 106.093,-58.2912"/>
<text text-anchor="middle" x="139.5" y="-41.5" font-family="Helvetica,sans-Serif" font-size="10.00"> myScene</text>
</g>
<!-- Node4 -->
<g id="node4" class="node"><title>Node4</title>
<polygon fill="white" stroke="#bfbfbf" points="152,-68.5 152,-87.5 220,-87.5 220,-68.5 152,-68.5"/>
<text text-anchor="middle" x="186" y="-75.5" font-family="Helvetica,sans-Serif" font-size="10.00">WebEngine</text>
</g>
<!-- Node4&#45;&gt;Node1 -->
<g id="edge3" class="edge"><title>Node4&#45;&gt;Node1</title>
<path fill="none" stroke="#9a32cd" stroke-dasharray="5,2" d="M176.165,-59.3787C172.392,-52.6685 168.026,-44.9631 164,-38 160.509,-31.9624 156.509,-25.2124 153.382,-19.9718"/>
<polygon fill="#9a32cd" stroke="#9a32cd" points="173.219,-61.2815 181.16,-68.2955 179.326,-57.8605 173.219,-61.2815"/>
<text text-anchor="middle" x="198.5" y="-41.5" font-family="Helvetica,sans-Serif" font-size="10.00"> webEngine</text>
</g>
<!-- Node5 -->
<g id="node5" class="node"><title>Node5</title>
<polygon fill="white" stroke="#bfbfbf" points="238,-68.5 238,-87.5 296,-87.5 296,-68.5 238,-68.5"/>
<text text-anchor="middle" x="267" y="-75.5" font-family="Helvetica,sans-Serif" font-size="10.00">WebView</text>
</g>
<!-- Node5&#45;&gt;Node1 -->
<g id="edge4" class="edge"><title>Node5&#45;&gt;Node1</title>
<path fill="none" stroke="#9a32cd" stroke-dasharray="5,2" d="M254.607,-60.5489C248.031,-52.7861 239.378,-43.944 230,-38 216.961,-29.7358 201.14,-23.7509 186.886,-19.549"/>
<polygon fill="#9a32cd" stroke="#9a32cd" points="251.88,-62.7434 260.863,-68.3607 257.344,-58.3674 251.88,-62.7434"/>
<text text-anchor="middle" x="264.5" y="-41.5" font-family="Helvetica,sans-Serif" font-size="10.00"> browser</text>
</g>
</g>
</svg>
