<?xml version="1.0" encoding="UTF-8" standalone="no"?>
<!DOCTYPE svg PUBLIC "-//W3C//DTD SVG 1.1//EN"
 "http://www.w3.org/Graphics/SVG/1.1/DTD/svg11.dtd">
<!-- Generated by graphviz version 2.36.0 (20140111.2315)
 -->
<!-- Title: commands.ActivityCommand.execute Pages: 1 -->
<svg width="434pt" height="136pt"
 viewBox="0.00 0.00 434.00 136.00" xmlns="http://www.w3.org/2000/svg" xmlns:xlink="http://www.w3.org/1999/xlink">
<g id="graph0" class="graph" transform="scale(1 1) rotate(0) translate(4 132)">
<title>commands.ActivityCommand.execute</title>
<polygon fill="white" stroke="none" points="-4,4 -4,-132 430,-132 430,4 -4,4"/>
<!-- Node1 -->
<g id="node1" class="node"><title>Node1</title>
<polygon fill="#bfbfbf" stroke="black" points="0,-54.5 0,-73.5 200,-73.5 200,-54.5 0,-54.5"/>
<text text-anchor="middle" x="100" y="-61.5" font-family="Helvetica,sans-Serif" font-size="10.00">commands.ActivityCommand.execute</text>
</g>
<!-- Node2 -->
<g id="node2" class="node"><title>Node2</title>
<g id="a_node2"><a xlink:href="../../d1/d2a/class_movement_and_image_a_p_i_1_1src_1_1_general_turtle_handler.html#a2c0d684dd6a1066c8eace622967e0893" target="_top" xlink:title="MovementAndImageAPI.src.\lGeneralTurtleHandler.setPenPosition">
<polygon fill="white" stroke="black" points="236,-98 236,-128 426,-128 426,-98 236,-98"/>
<text text-anchor="start" x="244" y="-116" font-family="Helvetica,sans-Serif" font-size="10.00">MovementAndImageAPI.src.</text>
<text text-anchor="middle" x="331" y="-105" font-family="Helvetica,sans-Serif" font-size="10.00">GeneralTurtleHandler.setPenPosition</text>
</a>
</g>
</g>
<!-- Node1&#45;&gt;Node2 -->
<g id="edge1" class="edge"><title>Node1&#45;&gt;Node2</title>
<path fill="none" stroke="midnightblue" d="M145.425,-73.5058C174.902,-79.8131 214.447,-88.2747 249.372,-95.7476"/>
<polygon fill="midnightblue" stroke="midnightblue" points="249.054,-99.2588 259.565,-97.9287 250.519,-92.4137 249.054,-99.2588"/>
</g>
<!-- Node3 -->
<g id="node3" class="node"><title>Node3</title>
<g id="a_node3"><a xlink:href="../../d1/d2a/class_movement_and_image_a_p_i_1_1src_1_1_general_turtle_handler.html#a3d9f1bfbf000393ecb773baa118f2585" target="_top" xlink:title="MovementAndImageAPI.src.\lGeneralTurtleHandler.showTurtle">
<polygon fill="white" stroke="black" points="246.5,-49 246.5,-79 415.5,-79 415.5,-49 246.5,-49"/>
<text text-anchor="start" x="254.5" y="-67" font-family="Helvetica,sans-Serif" font-size="10.00">MovementAndImageAPI.src.</text>
<text text-anchor="middle" x="331" y="-56" font-family="Helvetica,sans-Serif" font-size="10.00">GeneralTurtleHandler.showTurtle</text>
</a>
</g>
</g>
<!-- Node1&#45;&gt;Node3 -->
<g id="edge2" class="edge"><title>Node1&#45;&gt;Node3</title>
<path fill="none" stroke="midnightblue" d="M200.111,-64C211.984,-64 224.083,-64 235.883,-64"/>
<polygon fill="midnightblue" stroke="midnightblue" points="236.162,-67.5001 246.162,-64 236.162,-60.5001 236.162,-67.5001"/>
</g>
<!-- Node4 -->
<g id="node4" class="node"><title>Node4</title>
<g id="a_node4"><a xlink:href="../../d7/d15/classcommands_1_1_commands_turtle.html#aad97dd16144882ea39321c7a2867bd2f" target="_top" xlink:title="commands.CommandsTurtle.turtle\lHandler">
<polygon fill="white" stroke="black" points="239.5,-0 239.5,-30 422.5,-30 422.5,-0 239.5,-0"/>
<text text-anchor="start" x="247.5" y="-18" font-family="Helvetica,sans-Serif" font-size="10.00">commands.CommandsTurtle.turtle</text>
<text text-anchor="middle" x="331" y="-7" font-family="Helvetica,sans-Serif" font-size="10.00">Handler</text>
</a>
</g>
</g>
<!-- Node1&#45;&gt;Node4 -->
<g id="edge3" class="edge"><title>Node1&#45;&gt;Node4</title>
<path fill="none" stroke="midnightblue" d="M145.425,-54.4942C174.902,-48.1869 214.447,-39.7253 249.372,-32.2524"/>
<polygon fill="midnightblue" stroke="midnightblue" points="250.519,-35.5863 259.565,-30.0713 249.054,-28.7412 250.519,-35.5863"/>
</g>
</g>
</svg>
