<?xml version="1.0" encoding="UTF-8" standalone="no"?>
<!DOCTYPE svg PUBLIC "-//W3C//DTD SVG 1.1//EN"
 "http://www.w3.org/Graphics/SVG/1.1/DTD/svg11.dtd">
<!-- Generated by graphviz version 2.36.0 (20140111.2315)
 -->
<!-- Title: Main.addKeyboardControl Pages: 1 -->
<!--zoomable 463 -->
<svg id="main" version="1.1" xmlns="http://www.w3.org/2000/svg" xmlns:xlink="http://www.w3.org/1999/xlink" xml:space="preserve" onload="init(evt)">
<style type="text/css"><![CDATA[
.edge:hover path { stroke: red; }
.edge:hover polygon { stroke: red; fill: red; }
]]></style>
<script type="text/javascript"><![CDATA[
var edges = document.getElementsByTagName('g');
if (edges && edges.length) {
  for (var i=0;i<edges.length;i++) {
    if (edges[i].id.substr(0,4)=='edge') {
      edges[i].setAttribute('class','edge');
    }
  }
}
]]></script>
        <defs>
                <circle id="rim" cx="0" cy="0" r="7"/>
                <circle id="rim2" cx="0" cy="0" r="3.5"/>
                <g id="zoomPlus">
                        <use xlink:href="#rim" fill="#404040">
                                <set attributeName="fill" to="#808080" begin="zoomplus.mouseover" end="zoomplus.mouseout"/>
                        </use>
                        <path d="M-4,0h8M0,-4v8" fill="none" stroke="white" stroke-width="1.5" pointer-events="none"/>
                </g>
                <g id="zoomMin">
                        <use xlink:href="#rim" fill="#404040">
                                <set attributeName="fill" to="#808080" begin="zoomminus.mouseover" end="zoomminus.mouseout"/>
                        </use>
                        <path d="M-4,0h8" fill="none" stroke="white" stroke-width="1.5" pointer-events="none"/>
                </g>
                <g id="dirArrow">
                        <path fill="none" stroke="white" stroke-width="1.5" d="M0,-3.0v7 M-2.5,-0.5L0,-3.0L2.5,-0.5"/>
                </g>
               <g id="resetDef">
                       <use xlink:href="#rim2" fill="#404040">
                               <set attributeName="fill" to="#808080" begin="reset.mouseover" end="reset.mouseout"/>
                       </use>
               </g>
        </defs>

<script type="text/javascript">
var viewWidth = 1188;
var viewHeight = 463;
var sectionId = 'dynsection-2';
</script>
<script xlink:href="../../svgpan.js"/>
<svg id="graph" class="graph">
<g id="viewport">
<title>Main.addKeyboardControl</title>
<polygon fill="white" stroke="none" points="-4,4 -4,-459 1184,-459 1184,4 -4,4"/>
<!-- Node1 -->
<g id="node1" class="node"><title>Node1</title>
<polygon fill="#bfbfbf" stroke="black" points="0.5,-125.5 0.5,-144.5 139.5,-144.5 139.5,-125.5 0.5,-125.5"/>
<text text-anchor="middle" x="70" y="-132.5" font-family="Helvetica,sans-Serif" font-size="10.00">Main.addKeyboardControl</text>
</g>
<!-- Node2 -->
<g id="node2" class="node"><title>Node2</title>
<g id="a_node2"><a xlink:href="../../d4/d0f/class_movement_and_image_a_p_i_1_1src_1_1_turtle_handler.html#a47aab93cef3fa6ddcebacd40db48090b" target="_top" xlink:title="MovementAndImageAPI.src.\lTurtleHandler.updateTurtleLocation">
<polygon fill="white" stroke="black" points="182,-156 182,-186 364,-186 364,-156 182,-156"/>
<text text-anchor="start" x="190" y="-174" font-family="Helvetica,sans-Serif" font-size="10.00">MovementAndImageAPI.src.</text>
<text text-anchor="middle" x="273" y="-163" font-family="Helvetica,sans-Serif" font-size="10.00">TurtleHandler.updateTurtleLocation</text>
</a>
</g>
</g>
<!-- Node1&#45;&gt;Node2 -->
<g id="edge1" class="edge"><title>Node1&#45;&gt;Node2</title>
<path fill="none" stroke="midnightblue" d="M124.073,-144.506C140.735,-147.49 159.653,-150.878 178.261,-154.211"/>
<polygon fill="midnightblue" stroke="midnightblue" points="177.789,-157.682 188.249,-156 179.023,-150.792 177.789,-157.682"/>
</g>
<!-- Node26 -->
<g id="node26" class="node"><title>Node26</title>
<g id="a_node26"><a xlink:href="../../d4/d0f/class_movement_and_image_a_p_i_1_1src_1_1_turtle_handler.html#af8be08b68068574b061f2e3a2f02c524" target="_top" xlink:title="MovementAndImageAPI.src.\lTurtleHandler.updateTurtleOrientation">
<polygon fill="white" stroke="black" points="176,-85 176,-115 370,-115 370,-85 176,-85"/>
<text text-anchor="start" x="184" y="-103" font-family="Helvetica,sans-Serif" font-size="10.00">MovementAndImageAPI.src.</text>
<text text-anchor="middle" x="273" y="-92" font-family="Helvetica,sans-Serif" font-size="10.00">TurtleHandler.updateTurtleOrientation</text>
</a>
</g>
</g>
<!-- Node1&#45;&gt;Node26 -->
<g id="edge29" class="edge"><title>Node1&#45;&gt;Node26</title>
<path fill="none" stroke="midnightblue" d="M125.659,-125.482C141.11,-122.792 158.401,-119.781 175.536,-116.797"/>
<polygon fill="midnightblue" stroke="midnightblue" points="176.34,-120.21 185.591,-115.046 175.139,-113.314 176.34,-120.21"/>
</g>
<!-- Node3 -->
<g id="node3" class="node"><title>Node3</title>
<g id="a_node3"><a xlink:href="../../d7/d43/class_movement_and_image_a_p_i_1_1src_1_1_turtle.html#af438d3cf63dc7584f43e470e56592cbb" target="_top" xlink:title="MovementAndImageAPI.src.\lTurtle.getPoint">
<polygon fill="white" stroke="black" points="406,-129 406,-159 558,-159 558,-129 406,-129"/>
<text text-anchor="start" x="414" y="-147" font-family="Helvetica,sans-Serif" font-size="10.00">MovementAndImageAPI.src.</text>
<text text-anchor="middle" x="482" y="-136" font-family="Helvetica,sans-Serif" font-size="10.00">Turtle.getPoint</text>
</a>
</g>
</g>
<!-- Node2&#45;&gt;Node3 -->
<g id="edge2" class="edge"><title>Node2&#45;&gt;Node3</title>
<path fill="none" stroke="midnightblue" d="M364.191,-159.236C374.759,-157.858 385.516,-156.454 396.009,-155.086"/>
<polygon fill="midnightblue" stroke="midnightblue" points="396.512,-158.55 405.976,-153.786 395.607,-151.609 396.512,-158.55"/>
</g>
<!-- Node4 -->
<g id="node4" class="node"><title>Node4</title>
<g id="a_node4"><a xlink:href="../../d7/d43/class_movement_and_image_a_p_i_1_1src_1_1_turtle.html#acc1b5c3035033c02d79b43b18d158b91" target="_top" xlink:title="MovementAndImageAPI.src.\lTurtle.updateLocation">
<polygon fill="white" stroke="black" points="406,-178 406,-208 558,-208 558,-178 406,-178"/>
<text text-anchor="start" x="414" y="-196" font-family="Helvetica,sans-Serif" font-size="10.00">MovementAndImageAPI.src.</text>
<text text-anchor="middle" x="482" y="-185" font-family="Helvetica,sans-Serif" font-size="10.00">Turtle.updateLocation</text>
</a>
</g>
</g>
<!-- Node2&#45;&gt;Node4 -->
<g id="edge3" class="edge"><title>Node2&#45;&gt;Node4</title>
<path fill="none" stroke="midnightblue" d="M364.191,-180.586C374.759,-181.709 385.516,-182.852 396.009,-183.967"/>
<polygon fill="midnightblue" stroke="midnightblue" points="395.662,-187.45 405.976,-185.026 396.402,-180.489 395.662,-187.45"/>
</g>
<!-- Node5 -->
<g id="node5" class="node"><title>Node5</title>
<g id="a_node5"><a xlink:href="../../d4/d0f/class_movement_and_image_a_p_i_1_1src_1_1_turtle_handler.html#adf01534451c018bc6b767aa8d42689bb" target="_top" xlink:title="MovementAndImageAPI.src.\lTurtleHandler.moveAndDraw">
<polygon fill="white" stroke="black" points="406,-227 406,-257 558,-257 558,-227 406,-227"/>
<text text-anchor="start" x="414" y="-245" font-family="Helvetica,sans-Serif" font-size="10.00">MovementAndImageAPI.src.</text>
<text text-anchor="middle" x="482" y="-234" font-family="Helvetica,sans-Serif" font-size="10.00">TurtleHandler.moveAndDraw</text>
</a>
</g>
</g>
<!-- Node2&#45;&gt;Node5 -->
<g id="edge4" class="edge"><title>Node2&#45;&gt;Node5</title>
<path fill="none" stroke="midnightblue" d="M316.752,-186.063C342.566,-195.117 376.139,-206.82 406,-217 412.372,-219.172 419.055,-221.43 425.696,-223.66"/>
<polygon fill="midnightblue" stroke="midnightblue" points="424.762,-227.038 435.356,-226.895 426.985,-220.4 424.762,-227.038"/>
</g>
<!-- Node6 -->
<g id="node6" class="node"><title>Node6</title>
<g id="a_node6"><a xlink:href="../../da/d31/class_movement_and_image_a_p_i_1_1src_1_1_image_updater.html#adea0730f4ec25ebf5b16940420f9af0b" target="_top" xlink:title="MovementAndImageAPI.src.\lImageUpdater.updateTurtleImage">
<polygon fill="white" stroke="black" points="594.5,-98 594.5,-128 771.5,-128 771.5,-98 594.5,-98"/>
<text text-anchor="start" x="602.5" y="-116" font-family="Helvetica,sans-Serif" font-size="10.00">MovementAndImageAPI.src.</text>
<text text-anchor="middle" x="683" y="-105" font-family="Helvetica,sans-Serif" font-size="10.00">ImageUpdater.updateTurtleImage</text>
</a>
</g>
</g>
<!-- Node5&#45;&gt;Node6 -->
<g id="edge5" class="edge"><title>Node5&#45;&gt;Node6</title>
<path fill="none" stroke="midnightblue" d="M536.52,-226.934C543.929,-224.057 551.291,-220.751 558,-217 597.88,-194.702 637.13,-158.767 660.458,-135.518"/>
<polygon fill="midnightblue" stroke="midnightblue" points="663.194,-137.73 667.737,-128.158 658.216,-132.807 663.194,-137.73"/>
</g>
<!-- Node10 -->
<g id="node10" class="node"><title>Node10</title>
<g id="a_node10"><a xlink:href="../../d7/d43/class_movement_and_image_a_p_i_1_1src_1_1_turtle.html#a75d31c1ce4fcba5a04aec065d2403d39" target="_top" xlink:title="MovementAndImageAPI.src.\lTurtle.getImage">
<polygon fill="white" stroke="black" points="607,-49 607,-79 759,-79 759,-49 607,-49"/>
<text text-anchor="start" x="615" y="-67" font-family="Helvetica,sans-Serif" font-size="10.00">MovementAndImageAPI.src.</text>
<text text-anchor="middle" x="683" y="-56" font-family="Helvetica,sans-Serif" font-size="10.00">Turtle.getImage</text>
</a>
</g>
</g>
<!-- Node5&#45;&gt;Node10 -->
<g id="edge9" class="edge"><title>Node5&#45;&gt;Node10</title>
<path fill="none" stroke="midnightblue" d="M545.354,-226.923C550.004,-224.154 554.31,-220.878 558,-217 599.033,-173.879 551.786,-129.966 594,-88 595.432,-86.5765 596.939,-85.2353 598.512,-83.9717"/>
<polygon fill="midnightblue" stroke="midnightblue" points="600.569,-86.8047 606.859,-78.2786 596.625,-81.0217 600.569,-86.8047"/>
</g>
<!-- Node11 -->
<g id="node11" class="node"><title>Node11</title>
<g id="a_node11"><a xlink:href="../../d7/d43/class_movement_and_image_a_p_i_1_1src_1_1_turtle.html#a6a340f7cbda09ca810d01a1767150ba9" target="_top" xlink:title="MovementAndImageAPI.src.\lTurtle.getPenPosition">
<polygon fill="white" stroke="black" points="607,-371 607,-401 759,-401 759,-371 607,-371"/>
<text text-anchor="start" x="615" y="-389" font-family="Helvetica,sans-Serif" font-size="10.00">MovementAndImageAPI.src.</text>
<text text-anchor="middle" x="683" y="-378" font-family="Helvetica,sans-Serif" font-size="10.00">Turtle.getPenPosition</text>
</a>
</g>
</g>
<!-- Node5&#45;&gt;Node11 -->
<g id="edge10" class="edge"><title>Node5&#45;&gt;Node11</title>
<path fill="none" stroke="midnightblue" d="M503.92,-257.138C539.602,-282.958 612.299,-335.563 652.908,-364.948"/>
<polygon fill="midnightblue" stroke="midnightblue" points="650.908,-367.822 661.061,-370.848 655.012,-362.151 650.908,-367.822"/>
</g>
<!-- Node14 -->
<g id="node14" class="node"><title>Node14</title>
<g id="a_node14"><a xlink:href="../../da/d31/class_movement_and_image_a_p_i_1_1src_1_1_image_updater.html#a194a73bcc0c675e5d7d9182847805455" target="_top" xlink:title="MovementAndImageAPI.src.\lImageUpdater.drawLine">
<polygon fill="white" stroke="black" points="607,-259 607,-289 759,-289 759,-259 607,-259"/>
<text text-anchor="start" x="615" y="-277" font-family="Helvetica,sans-Serif" font-size="10.00">MovementAndImageAPI.src.</text>
<text text-anchor="middle" x="683" y="-266" font-family="Helvetica,sans-Serif" font-size="10.00">ImageUpdater.drawLine</text>
</a>
</g>
</g>
<!-- Node5&#45;&gt;Node14 -->
<g id="edge13" class="edge"><title>Node5&#45;&gt;Node14</title>
<path fill="none" stroke="midnightblue" d="M558.233,-254.098C570.826,-256.123 583.972,-258.237 596.794,-260.298"/>
<polygon fill="midnightblue" stroke="midnightblue" points="596.562,-263.806 606.99,-261.938 597.673,-256.895 596.562,-263.806"/>
</g>
<!-- Node25 -->
<g id="node25" class="node"><title>Node25</title>
<g id="a_node25"><a xlink:href="../../d7/d43/class_movement_and_image_a_p_i_1_1src_1_1_turtle.html#a658cc4788ed8eb613b78ba56b7e2d4e3" target="_top" xlink:title="MovementAndImageAPI.src.\lTurtle.getPenHandler">
<polygon fill="white" stroke="black" points="607,-210 607,-240 759,-240 759,-210 607,-210"/>
<text text-anchor="start" x="615" y="-228" font-family="Helvetica,sans-Serif" font-size="10.00">MovementAndImageAPI.src.</text>
<text text-anchor="middle" x="683" y="-217" font-family="Helvetica,sans-Serif" font-size="10.00">Turtle.getPenHandler</text>
</a>
</g>
</g>
<!-- Node5&#45;&gt;Node25 -->
<g id="edge28" class="edge"><title>Node5&#45;&gt;Node25</title>
<path fill="none" stroke="midnightblue" d="M558.233,-235.573C570.826,-234.497 583.972,-233.374 596.794,-232.279"/>
<polygon fill="midnightblue" stroke="midnightblue" points="597.325,-235.746 606.99,-231.408 596.729,-228.772 597.325,-235.746"/>
</g>
<!-- Node7 -->
<g id="node7" class="node"><title>Node7</title>
<g id="a_node7"><a xlink:href="../../da/d31/class_movement_and_image_a_p_i_1_1src_1_1_image_updater.html#a08e8ba7624dbce157332a73670072c78" target="_top" xlink:title="MovementAndImageAPI.src.\lImageUpdater.ensurePositive">
<polygon fill="white" stroke="black" points="818,-98 818,-128 976,-128 976,-98 818,-98"/>
<text text-anchor="start" x="826" y="-116" font-family="Helvetica,sans-Serif" font-size="10.00">MovementAndImageAPI.src.</text>
<text text-anchor="middle" x="897" y="-105" font-family="Helvetica,sans-Serif" font-size="10.00">ImageUpdater.ensurePositive</text>
</a>
</g>
</g>
<!-- Node6&#45;&gt;Node7 -->
<g id="edge6" class="edge"><title>Node6&#45;&gt;Node7</title>
<path fill="none" stroke="midnightblue" d="M771.759,-113C783.565,-113 795.682,-113 807.5,-113"/>
<polygon fill="midnightblue" stroke="midnightblue" points="807.794,-116.5 817.794,-113 807.794,-109.5 807.794,-116.5"/>
</g>
<!-- Node8 -->
<g id="node8" class="node"><title>Node8</title>
<g id="a_node8"><a xlink:href="../../da/d31/class_movement_and_image_a_p_i_1_1src_1_1_image_updater.html#a581e045297ecf935c75512c1198703b3" target="_top" xlink:title="MovementAndImageAPI.src.\lImageUpdater.drawRotatedImage">
<polygon fill="white" stroke="black" points="808.5,-49 808.5,-79 985.5,-79 985.5,-49 808.5,-49"/>
<text text-anchor="start" x="816.5" y="-67" font-family="Helvetica,sans-Serif" font-size="10.00">MovementAndImageAPI.src.</text>
<text text-anchor="middle" x="897" y="-56" font-family="Helvetica,sans-Serif" font-size="10.00">ImageUpdater.drawRotatedImage</text>
</a>
</g>
</g>
<!-- Node6&#45;&gt;Node8 -->
<g id="edge7" class="edge"><title>Node6&#45;&gt;Node8</title>
<path fill="none" stroke="midnightblue" d="M749.048,-97.9654C771.839,-92.6976 797.615,-86.7399 821.144,-81.3016"/>
<polygon fill="midnightblue" stroke="midnightblue" points="822.12,-84.6683 831.075,-79.0062 820.544,-77.8481 822.12,-84.6683"/>
</g>
<!-- Node9 -->
<g id="node9" class="node"><title>Node9</title>
<g id="a_node9"><a xlink:href="../../da/d31/class_movement_and_image_a_p_i_1_1src_1_1_image_updater.html#a2368721809649636ad6dce3c008a6d62" target="_top" xlink:title="MovementAndImageAPI.src.\lImageUpdater.rotate">
<polygon fill="white" stroke="black" points="1025,-49 1025,-79 1177,-79 1177,-49 1025,-49"/>
<text text-anchor="start" x="1033" y="-67" font-family="Helvetica,sans-Serif" font-size="10.00">MovementAndImageAPI.src.</text>
<text text-anchor="middle" x="1101" y="-56" font-family="Helvetica,sans-Serif" font-size="10.00">ImageUpdater.rotate</text>
</a>
</g>
</g>
<!-- Node8&#45;&gt;Node9 -->
<g id="edge8" class="edge"><title>Node8&#45;&gt;Node9</title>
<path fill="none" stroke="midnightblue" d="M985.719,-64C995.258,-64 1004.96,-64 1014.47,-64"/>
<polygon fill="midnightblue" stroke="midnightblue" points="1014.7,-67.5001 1024.7,-64 1014.7,-60.5001 1014.7,-67.5001"/>
</g>
<!-- Node12 -->
<g id="node12" class="node"><title>Node12</title>
<g id="a_node12"><a xlink:href="../../da/d8f/class_movement_and_image_a_p_i_1_1src_1_1_pen_handler.html#ad3f35e8b9605bde22fcbb5bc3e15cbf5" target="_top" xlink:title="MovementAndImageAPI.src.\lPenHandler.getPenPosition">
<polygon fill="white" stroke="black" points="821,-420 821,-450 973,-450 973,-420 821,-420"/>
<text text-anchor="start" x="829" y="-438" font-family="Helvetica,sans-Serif" font-size="10.00">MovementAndImageAPI.src.</text>
<text text-anchor="middle" x="897" y="-427" font-family="Helvetica,sans-Serif" font-size="10.00">PenHandler.getPenPosition</text>
</a>
</g>
</g>
<!-- Node11&#45;&gt;Node12 -->
<g id="edge11" class="edge"><title>Node11&#45;&gt;Node12</title>
<path fill="none" stroke="midnightblue" d="M749.048,-401.035C771.839,-406.302 797.615,-412.26 821.144,-417.698"/>
<polygon fill="midnightblue" stroke="midnightblue" points="820.544,-421.152 831.075,-419.994 822.12,-414.332 820.544,-421.152"/>
</g>
<!-- Node13 -->
<g id="node13" class="node"><title>Node13</title>
<g id="a_node13"><a xlink:href="../../d2/d78/class_movement_and_image_a_p_i_1_1src_1_1_pen.html#a3f3cdbaef2a7328e6051567cc29975fb" target="_top" xlink:title="MovementAndImageAPI.src.\lPen.getPenPosition">
<polygon fill="white" stroke="black" points="1025,-425 1025,-455 1177,-455 1177,-425 1025,-425"/>
<text text-anchor="start" x="1033" y="-443" font-family="Helvetica,sans-Serif" font-size="10.00">MovementAndImageAPI.src.</text>
<text text-anchor="middle" x="1101" y="-432" font-family="Helvetica,sans-Serif" font-size="10.00">Pen.getPenPosition</text>
</a>
</g>
</g>
<!-- Node12&#45;&gt;Node13 -->
<g id="edge12" class="edge"><title>Node12&#45;&gt;Node13</title>
<path fill="none" stroke="midnightblue" d="M973.217,-436.862C986.625,-437.194 1000.68,-437.542 1014.36,-437.88"/>
<polygon fill="midnightblue" stroke="midnightblue" points="1014.64,-441.388 1024.72,-438.137 1014.81,-434.39 1014.64,-441.388"/>
</g>
<!-- Node14&#45;&gt;Node7 -->
<g id="edge19" class="edge"><title>Node14&#45;&gt;Node7</title>
<path fill="none" stroke="midnightblue" d="M758.578,-258.911C763.453,-256.137 768.003,-252.863 772,-249 809.599,-212.666 770.21,-173.135 808,-137 809.109,-135.94 810.26,-134.925 811.448,-133.955"/>
<polygon fill="midnightblue" stroke="midnightblue" points="813.564,-136.746 819.781,-128.167 809.571,-130.997 813.564,-136.746"/>
</g>
<!-- Node14&#45;&gt;Node12 -->
<g id="edge14" class="edge"><title>Node14&#45;&gt;Node12</title>
<path fill="none" stroke="midnightblue" d="M701.004,-289.301C719.332,-306.13 748.971,-334.335 772,-361 789.663,-381.452 785.804,-394.586 808,-410 810.892,-412.009 813.944,-413.857 817.105,-415.557"/>
<polygon fill="midnightblue" stroke="midnightblue" points="815.736,-418.783 826.264,-419.969 818.774,-412.476 815.736,-418.783"/>
</g>
<!-- Node15 -->
<g id="node15" class="node"><title>Node15</title>
<g id="a_node15"><a xlink:href="../../da/d8f/class_movement_and_image_a_p_i_1_1src_1_1_pen_handler.html#ab73c37fd9bab639a2253b5a5817387a9" target="_top" xlink:title="MovementAndImageAPI.src.\lPenHandler.getLineWidth">
<polygon fill="white" stroke="black" points="821,-371 821,-401 973,-401 973,-371 821,-371"/>
<text text-anchor="start" x="829" y="-389" font-family="Helvetica,sans-Serif" font-size="10.00">MovementAndImageAPI.src.</text>
<text text-anchor="middle" x="897" y="-378" font-family="Helvetica,sans-Serif" font-size="10.00">PenHandler.getLineWidth</text>
</a>
</g>
</g>
<!-- Node14&#45;&gt;Node15 -->
<g id="edge15" class="edge"><title>Node14&#45;&gt;Node15</title>
<path fill="none" stroke="midnightblue" d="M703.664,-289.314C727.348,-307.198 768.847,-336.776 808,-356 816.495,-360.171 825.715,-364.005 834.883,-367.438"/>
<polygon fill="midnightblue" stroke="midnightblue" points="833.79,-370.764 844.384,-370.867 836.166,-364.18 833.79,-370.764"/>
</g>
<!-- Node17 -->
<g id="node17" class="node"><title>Node17</title>
<g id="a_node17"><a xlink:href="../../da/d8f/class_movement_and_image_a_p_i_1_1src_1_1_pen_handler.html#a64a9b8fde73c28f0683640b081d884f1" target="_top" xlink:title="MovementAndImageAPI.src.\lPenHandler.getPenColor">
<polygon fill="white" stroke="black" points="821,-196 821,-226 973,-226 973,-196 821,-196"/>
<text text-anchor="start" x="829" y="-214" font-family="Helvetica,sans-Serif" font-size="10.00">MovementAndImageAPI.src.</text>
<text text-anchor="middle" x="897" y="-203" font-family="Helvetica,sans-Serif" font-size="10.00">PenHandler.getPenColor</text>
</a>
</g>
</g>
<!-- Node14&#45;&gt;Node17 -->
<g id="edge17" class="edge"><title>Node14&#45;&gt;Node17</title>
<path fill="none" stroke="midnightblue" d="M740.106,-258.915C750.753,-255.812 761.761,-252.437 772,-249 788.275,-243.537 791.696,-240.377 808,-235 814.366,-232.901 821.032,-230.839 827.726,-228.861"/>
<polygon fill="midnightblue" stroke="midnightblue" points="828.887,-232.168 837.521,-226.027 826.942,-225.444 828.887,-232.168"/>
</g>
<!-- Node19 -->
<g id="node19" class="node"><title>Node19</title>
<g id="a_node19"><a xlink:href="../../da/d31/class_movement_and_image_a_p_i_1_1src_1_1_image_updater.html#a03f6a2a06e7a7476405345f6fcb3dad5" target="_top" xlink:title="MovementAndImageAPI.src.\lImageUpdater.xOutOfBounds">
<polygon fill="white" stroke="black" points="1022.5,-327 1022.5,-357 1179.5,-357 1179.5,-327 1022.5,-327"/>
<text text-anchor="start" x="1030.5" y="-345" font-family="Helvetica,sans-Serif" font-size="10.00">MovementAndImageAPI.src.</text>
<text text-anchor="middle" x="1101" y="-334" font-family="Helvetica,sans-Serif" font-size="10.00">ImageUpdater.xOutOfBounds</text>
</a>
</g>
</g>
<!-- Node14&#45;&gt;Node19 -->
<g id="edge20" class="edge"><title>Node14&#45;&gt;Node19</title>
<path fill="none" stroke="midnightblue" d="M745.598,-289.007C765.445,-293.547 787.586,-298.304 808,-302 876.159,-314.34 953.884,-324.815 1012,-331.946"/>
<polygon fill="midnightblue" stroke="midnightblue" points="1011.9,-335.459 1022.25,-333.194 1012.75,-328.511 1011.9,-335.459"/>
</g>
<!-- Node20 -->
<g id="node20" class="node"><title>Node20</title>
<g id="a_node20"><a xlink:href="../../da/d31/class_movement_and_image_a_p_i_1_1src_1_1_image_updater.html#af0f2404b46ab5bd003906d97d8460654" target="_top" xlink:title="MovementAndImageAPI.src.\lImageUpdater.yOutOfBounds">
<polygon fill="white" stroke="black" points="1022.5,-278 1022.5,-308 1179.5,-308 1179.5,-278 1022.5,-278"/>
<text text-anchor="start" x="1030.5" y="-296" font-family="Helvetica,sans-Serif" font-size="10.00">MovementAndImageAPI.src.</text>
<text text-anchor="middle" x="1101" y="-285" font-family="Helvetica,sans-Serif" font-size="10.00">ImageUpdater.yOutOfBounds</text>
</a>
</g>
</g>
<!-- Node14&#45;&gt;Node20 -->
<g id="edge21" class="edge"><title>Node14&#45;&gt;Node20</title>
<path fill="none" stroke="midnightblue" d="M759.04,-280.654C775.18,-281.917 792.15,-283.117 808,-284 876.552,-287.818 954.255,-290.115 1012.26,-291.432"/>
<polygon fill="midnightblue" stroke="midnightblue" points="1012.42,-294.936 1022.49,-291.658 1012.57,-287.938 1012.42,-294.936"/>
</g>
<!-- Node21 -->
<g id="node21" class="node"><title>Node21</title>
<g id="a_node21"><a xlink:href="../../da/d31/class_movement_and_image_a_p_i_1_1src_1_1_image_updater.html#a049f8e63bcdbe91f5fad63c778030fb4" target="_top" xlink:title="MovementAndImageAPI.src.\lImageUpdater.findBoundaryPoint">
<polygon fill="white" stroke="black" points="809.5,-245 809.5,-275 984.5,-275 984.5,-245 809.5,-245"/>
<text text-anchor="start" x="817.5" y="-263" font-family="Helvetica,sans-Serif" font-size="10.00">MovementAndImageAPI.src.</text>
<text text-anchor="middle" x="897" y="-252" font-family="Helvetica,sans-Serif" font-size="10.00">ImageUpdater.findBoundaryPoint</text>
</a>
</g>
</g>
<!-- Node14&#45;&gt;Node21 -->
<g id="edge22" class="edge"><title>Node14&#45;&gt;Node21</title>
<path fill="none" stroke="midnightblue" d="M759.042,-269.044C772.045,-268.186 785.731,-267.282 799.215,-266.391"/>
<polygon fill="midnightblue" stroke="midnightblue" points="799.726,-269.865 809.473,-265.714 799.265,-262.881 799.726,-269.865"/>
</g>
<!-- Node24 -->
<g id="node24" class="node"><title>Node24</title>
<g id="a_node24"><a xlink:href="../../da/d31/class_movement_and_image_a_p_i_1_1src_1_1_image_updater.html#a99fe830ba09a4ee088ef04eebc1b2183" target="_top" xlink:title="MovementAndImageAPI.src.\lImageUpdater.findNewStartPoint">
<polygon fill="white" stroke="black" points="810.5,-147 810.5,-177 983.5,-177 983.5,-147 810.5,-147"/>
<text text-anchor="start" x="818.5" y="-165" font-family="Helvetica,sans-Serif" font-size="10.00">MovementAndImageAPI.src.</text>
<text text-anchor="middle" x="897" y="-154" font-family="Helvetica,sans-Serif" font-size="10.00">ImageUpdater.findNewStartPoint</text>
</a>
</g>
</g>
<!-- Node14&#45;&gt;Node24 -->
<g id="edge27" class="edge"><title>Node14&#45;&gt;Node24</title>
<path fill="none" stroke="midnightblue" d="M755.982,-258.795C761.689,-256.054 767.123,-252.818 772,-249 797.393,-229.12 782.503,-205.746 808,-186 809.78,-184.621 811.634,-183.322 813.548,-182.097"/>
<polygon fill="midnightblue" stroke="midnightblue" points="815.279,-185.139 822.282,-177.19 811.85,-179.037 815.279,-185.139"/>
</g>
<!-- Node16 -->
<g id="node16" class="node"><title>Node16</title>
<g id="a_node16"><a xlink:href="../../d2/d78/class_movement_and_image_a_p_i_1_1src_1_1_pen.html#aecf75855f964eb9eb238cae05df975a6" target="_top" xlink:title="MovementAndImageAPI.src.\lPen.getLineWidth">
<polygon fill="white" stroke="black" points="1025,-376 1025,-406 1177,-406 1177,-376 1025,-376"/>
<text text-anchor="start" x="1033" y="-394" font-family="Helvetica,sans-Serif" font-size="10.00">MovementAndImageAPI.src.</text>
<text text-anchor="middle" x="1101" y="-383" font-family="Helvetica,sans-Serif" font-size="10.00">Pen.getLineWidth</text>
</a>
</g>
</g>
<!-- Node15&#45;&gt;Node16 -->
<g id="edge16" class="edge"><title>Node15&#45;&gt;Node16</title>
<path fill="none" stroke="midnightblue" d="M973.217,-387.862C986.625,-388.194 1000.68,-388.542 1014.36,-388.88"/>
<polygon fill="midnightblue" stroke="midnightblue" points="1014.64,-392.388 1024.72,-389.137 1014.81,-385.39 1014.64,-392.388"/>
</g>
<!-- Node18 -->
<g id="node18" class="node"><title>Node18</title>
<g id="a_node18"><a xlink:href="../../d2/d78/class_movement_and_image_a_p_i_1_1src_1_1_pen.html#a8d076af52cf4510ecda7a874ee978fc2" target="_top" xlink:title="MovementAndImageAPI.src.\lPen.getPenColor">
<polygon fill="white" stroke="black" points="1025,-131 1025,-161 1177,-161 1177,-131 1025,-131"/>
<text text-anchor="start" x="1033" y="-149" font-family="Helvetica,sans-Serif" font-size="10.00">MovementAndImageAPI.src.</text>
<text text-anchor="middle" x="1101" y="-138" font-family="Helvetica,sans-Serif" font-size="10.00">Pen.getPenColor</text>
</a>
</g>
</g>
<!-- Node17&#45;&gt;Node18 -->
<g id="edge18" class="edge"><title>Node17&#45;&gt;Node18</title>
<path fill="none" stroke="midnightblue" d="M955.652,-195.888C965.843,-192.858 976.294,-189.516 986,-186 1002.46,-180.037 1005.6,-176.141 1022,-170 1027.22,-168.043 1032.69,-166.121 1038.19,-164.268"/>
<polygon fill="midnightblue" stroke="midnightblue" points="1039.69,-167.46 1048.1,-161.017 1037.51,-160.809 1039.69,-167.46"/>
</g>
<!-- Node21&#45;&gt;Node19 -->
<g id="edge23" class="edge"><title>Node21&#45;&gt;Node19</title>
<path fill="none" stroke="midnightblue" d="M928.135,-275.095C952.976,-287.236 989.314,-304.303 1022,-317 1027.83,-319.264 1033.96,-321.488 1040.11,-323.618"/>
<polygon fill="midnightblue" stroke="midnightblue" points="1039.16,-326.993 1049.75,-326.882 1041.4,-320.362 1039.16,-326.993"/>
</g>
<!-- Node21&#45;&gt;Node20 -->
<g id="edge24" class="edge"><title>Node21&#45;&gt;Node20</title>
<path fill="none" stroke="midnightblue" d="M984.545,-274.139C993.746,-275.642 1003.11,-277.171 1012.32,-278.677"/>
<polygon fill="midnightblue" stroke="midnightblue" points="1011.81,-282.14 1022.25,-280.298 1012.94,-275.231 1011.81,-282.14"/>
</g>
<!-- Node22 -->
<g id="node22" class="node"><title>Node22</title>
<g id="a_node22"><a xlink:href="../../da/d31/class_movement_and_image_a_p_i_1_1src_1_1_image_updater.html#a24866e7c0871e72ff9bb226fa477ee2b" target="_top" xlink:title="MovementAndImageAPI.src.\lImageUpdater.xBoundary">
<polygon fill="white" stroke="black" points="1025,-229 1025,-259 1177,-259 1177,-229 1025,-229"/>
<text text-anchor="start" x="1033" y="-247" font-family="Helvetica,sans-Serif" font-size="10.00">MovementAndImageAPI.src.</text>
<text text-anchor="middle" x="1101" y="-236" font-family="Helvetica,sans-Serif" font-size="10.00">ImageUpdater.xBoundary</text>
</a>
</g>
</g>
<!-- Node21&#45;&gt;Node22 -->
<g id="edge25" class="edge"><title>Node21&#45;&gt;Node22</title>
<path fill="none" stroke="midnightblue" d="M984.545,-253.145C994.48,-252.358 1004.6,-251.556 1014.52,-250.77"/>
<polygon fill="midnightblue" stroke="midnightblue" points="1015.08,-254.237 1024.77,-249.959 1014.53,-247.259 1015.08,-254.237"/>
</g>
<!-- Node23 -->
<g id="node23" class="node"><title>Node23</title>
<g id="a_node23"><a xlink:href="../../da/d31/class_movement_and_image_a_p_i_1_1src_1_1_image_updater.html#ad79a0592d012a80c6db9c91909440415" target="_top" xlink:title="MovementAndImageAPI.src.\lImageUpdater.yBoundary">
<polygon fill="white" stroke="black" points="1025,-180 1025,-210 1177,-210 1177,-180 1025,-180"/>
<text text-anchor="start" x="1033" y="-198" font-family="Helvetica,sans-Serif" font-size="10.00">MovementAndImageAPI.src.</text>
<text text-anchor="middle" x="1101" y="-187" font-family="Helvetica,sans-Serif" font-size="10.00">ImageUpdater.yBoundary</text>
</a>
</g>
</g>
<!-- Node21&#45;&gt;Node23 -->
<g id="edge26" class="edge"><title>Node21&#45;&gt;Node23</title>
<path fill="none" stroke="midnightblue" d="M955.652,-244.888C965.843,-241.858 976.294,-238.516 986,-235 1002.46,-229.037 1005.6,-225.141 1022,-219 1027.22,-217.043 1032.69,-215.121 1038.19,-213.268"/>
<polygon fill="midnightblue" stroke="midnightblue" points="1039.69,-216.46 1048.1,-210.017 1037.51,-209.809 1039.69,-216.46"/>
</g>
<!-- Node26&#45;&gt;Node3 -->
<g id="edge34" class="edge"><title>Node26&#45;&gt;Node3</title>
<path fill="none" stroke="midnightblue" d="M344.659,-115.019C362.628,-118.839 382.071,-122.972 400.491,-126.887"/>
<polygon fill="midnightblue" stroke="midnightblue" points="399.799,-130.318 410.309,-128.974 401.255,-123.471 399.799,-130.318"/>
</g>
<!-- Node26&#45;&gt;Node6 -->
<g id="edge33" class="edge"><title>Node26&#45;&gt;Node6</title>
<path fill="none" stroke="midnightblue" d="M370.174,-103.064C434.69,-105.12 519.398,-107.819 584.242,-109.885"/>
<polygon fill="midnightblue" stroke="midnightblue" points="584.366,-113.391 594.472,-110.211 584.589,-106.394 584.366,-113.391"/>
</g>
<!-- Node26&#45;&gt;Node10 -->
<g id="edge35" class="edge"><title>Node26&#45;&gt;Node10</title>
<path fill="none" stroke="midnightblue" d="M370.174,-91.5141C438.969,-85.444 530.722,-77.3481 596.868,-71.5116"/>
<polygon fill="midnightblue" stroke="midnightblue" points="597.193,-74.9967 606.846,-70.6312 596.577,-68.0238 597.193,-74.9967"/>
</g>
<!-- Node27 -->
<g id="node27" class="node"><title>Node27</title>
<g id="a_node27"><a xlink:href="../../d7/d43/class_movement_and_image_a_p_i_1_1src_1_1_turtle.html#ad607139e3733cfdfc37a7c4388b4a907" target="_top" xlink:title="MovementAndImageAPI.src.\lTurtle.updateOrientation">
<polygon fill="white" stroke="black" points="406,-2 406,-32 558,-32 558,-2 406,-2"/>
<text text-anchor="start" x="414" y="-20" font-family="Helvetica,sans-Serif" font-size="10.00">MovementAndImageAPI.src.</text>
<text text-anchor="middle" x="482" y="-9" font-family="Helvetica,sans-Serif" font-size="10.00">Turtle.updateOrientation</text>
</a>
</g>
</g>
<!-- Node26&#45;&gt;Node27 -->
<g id="edge30" class="edge"><title>Node26&#45;&gt;Node27</title>
<path fill="none" stroke="midnightblue" d="M311.486,-84.9693C345.817,-71.2038 396.779,-50.7697 433.858,-35.9025"/>
<polygon fill="midnightblue" stroke="midnightblue" points="435.464,-39.0291 443.444,-32.0589 432.859,-32.532 435.464,-39.0291"/>
</g>
<!-- Node28 -->
<g id="node28" class="node"><title>Node28</title>
<g id="a_node28"><a xlink:href="../../d7/d43/class_movement_and_image_a_p_i_1_1src_1_1_turtle.html#a79610d6c6d05b070331c32cee99d69a9" target="_top" xlink:title="MovementAndImageAPI.src.\lTurtle.finishRotation">
<polygon fill="white" stroke="black" points="607,-0 607,-30 759,-30 759,-0 607,-0"/>
<text text-anchor="start" x="615" y="-18" font-family="Helvetica,sans-Serif" font-size="10.00">MovementAndImageAPI.src.</text>
<text text-anchor="middle" x="683" y="-7" font-family="Helvetica,sans-Serif" font-size="10.00">Turtle.finishRotation</text>
</a>
</g>
</g>
<!-- Node27&#45;&gt;Node28 -->
<g id="edge31" class="edge"><title>Node27&#45;&gt;Node28</title>
<path fill="none" stroke="midnightblue" d="M558.233,-16.2439C570.826,-16.1173 583.972,-15.9852 596.794,-15.8563"/>
<polygon fill="midnightblue" stroke="midnightblue" points="597.026,-19.3543 606.99,-15.7539 596.956,-12.3546 597.026,-19.3543"/>
</g>
<!-- Node29 -->
<g id="node29" class="node"><title>Node29</title>
<g id="a_node29"><a xlink:href="../../d7/d43/class_movement_and_image_a_p_i_1_1src_1_1_turtle.html#a1e1b79caf9191f2b467d6a50bfeca3df" target="_top" xlink:title="MovementAndImageAPI.src.\lTurtle.ensurePositiveOrientation">
<polygon fill="white" stroke="black" points="813,-0 813,-30 981,-30 981,-0 813,-0"/>
<text text-anchor="start" x="821" y="-18" font-family="Helvetica,sans-Serif" font-size="10.00">MovementAndImageAPI.src.</text>
<text text-anchor="middle" x="897" y="-7" font-family="Helvetica,sans-Serif" font-size="10.00">Turtle.ensurePositiveOrientation</text>
</a>
</g>
</g>
<!-- Node28&#45;&gt;Node29 -->
<g id="edge32" class="edge"><title>Node28&#45;&gt;Node29</title>
<path fill="none" stroke="midnightblue" d="M759.042,-15C773.171,-15 788.106,-15 802.713,-15"/>
<polygon fill="midnightblue" stroke="midnightblue" points="802.76,-18.5001 812.76,-15 802.76,-11.5001 802.76,-18.5001"/>
</g>
</g>
</svg>
        <g id="navigator" transform="translate(0 0)" fill="#404254">
                <rect fill="#f2f5e9" fill-opacity="0.5" stroke="#606060" stroke-width=".5" x="0" y="0" width="60" height="60"/>
                <use id="zoomplus" xlink:href="#zoomPlus" x="17" y="9" onmousedown="handleZoom(evt,'in')"/>
                <use id="zoomminus" xlink:href="#zoomMin" x="42" y="9" onmousedown="handleZoom(evt,'out')"/>
                <use id="reset" xlink:href="#resetDef" x="30" y="36" onmousedown="handleReset()"/>
                <g id="arrowUp" xlink:href="#dirArrow" transform="translate(30 24)" onmousedown="handlePan(0,-1)">
                  <use xlink:href="#rim" fill="#404040">
                        <set attributeName="fill" to="#808080" begin="arrowUp.mouseover" end="arrowUp.mouseout"/>
                  </use>
                  <path fill="none" stroke="white" stroke-width="1.5" d="M0,-3.0v7 M-2.5,-0.5L0,-3.0L2.5,-0.5"/>
                </g>
                <g id="arrowRight" xlink:href="#dirArrow" transform="rotate(90) translate(36 -43)" onmousedown="handlePan(1,0)">
                  <use xlink:href="#rim" fill="#404040">
                        <set attributeName="fill" to="#808080" begin="arrowRight.mouseover" end="arrowRight.mouseout"/>
                  </use>
                  <path fill="none" stroke="white" stroke-width="1.5" d="M0,-3.0v7 M-2.5,-0.5L0,-3.0L2.5,-0.5"/>
                </g>
                <g id="arrowDown" xlink:href="#dirArrow" transform="rotate(180) translate(-30 -48)" onmousedown="handlePan(0,1)">
                  <use xlink:href="#rim" fill="#404040">
                        <set attributeName="fill" to="#808080" begin="arrowDown.mouseover" end="arrowDown.mouseout"/>
                  </use>
                  <path fill="none" stroke="white" stroke-width="1.5" d="M0,-3.0v7 M-2.5,-0.5L0,-3.0L2.5,-0.5"/>
                </g>
                <g id="arrowLeft" xlink:href="#dirArrow" transform="rotate(270) translate(-36 17)" onmousedown="handlePan(-1,0)">
                  <use xlink:href="#rim" fill="#404040">
                        <set attributeName="fill" to="#808080" begin="arrowLeft.mouseover" end="arrowLeft.mouseout"/>
                  </use>
                  <path fill="none" stroke="white" stroke-width="1.5" d="M0,-3.0v7 M-2.5,-0.5L0,-3.0L2.5,-0.5"/>
                </g>
        </g>
        <svg viewBox="0 0 15 15" width="100%" height="30px" preserveAspectRatio="xMaxYMin meet">
         <g id="arrow_out" transform="scale(0.3 0.3)">
          <a xlink:href="class_main_a9aab0955c478f8846fae079b0c56e8d3_cgraph_org.svg" target="_base">
           <rect id="button" ry="5" rx="5" y="6" x="6" height="38" width="38"
                fill="#f2f5e9" fill-opacity="0.5" stroke="#606060" stroke-width="1.0"/>
           <path id="arrow"
             d="M 11.500037,31.436501 C 11.940474,20.09759 22.043105,11.32322 32.158766,21.979434 L 37.068811,17.246167 C 37.068811,17.246167 37.088388,32 37.088388,32 L 22.160133,31.978069 C 22.160133,31.978069 26.997745,27.140456 26.997745,27.140456 C 18.528582,18.264221 13.291696,25.230495 11.500037,31.436501 z"
             style="fill:#404040;"/>
          </a>
         </g>
        </svg>
</svg>
