<?xml version="1.0" encoding="UTF-8" standalone="no"?>
<!DOCTYPE svg PUBLIC "-//W3C//DTD SVG 1.1//EN"
 "http://www.w3.org/Graphics/SVG/1.1/DTD/svg11.dtd">
<!-- Generated by graphviz version 2.36.0 (20140111.2315)
 -->
<!-- Title: MovementAndImageAPI.src.ImageUpdater Pages: 1 -->
<svg width="212pt" height="118pt"
 viewBox="0.00 0.00 212.00 118.00" xmlns="http://www.w3.org/2000/svg" xmlns:xlink="http://www.w3.org/1999/xlink">
<g id="graph0" class="graph" transform="scale(1 1) rotate(0) translate(4 114)">
<title>MovementAndImageAPI.src.ImageUpdater</title>
<polygon fill="white" stroke="none" points="-4,4 -4,-114 208,-114 208,4 -4,4"/>
<!-- Node1 -->
<g id="node1" class="node"><title>Node1</title>
<polygon fill="#bfbfbf" stroke="black" points="18,-1 18,-31 170,-31 170,-1 18,-1"/>
<text text-anchor="start" x="26" y="-19" font-family="Helvetica,sans-Serif" font-size="10.00">MovementAndImageAPI.src.</text>
<text text-anchor="middle" x="94" y="-8" font-family="Helvetica,sans-Serif" font-size="10.00">ImageUpdater</text>
</g>
<!-- Node2 -->
<g id="node2" class="node"><title>Node2</title>
<polygon fill="white" stroke="#bfbfbf" points="0,-90.5 0,-109.5 96,-109.5 96,-90.5 0,-90.5"/>
<text text-anchor="middle" x="48" y="-97.5" font-family="Helvetica,sans-Serif" font-size="10.00">GraphicsContext</text>
</g>
<!-- Node2&#45;&gt;Node1 -->
<g id="edge1" class="edge"><title>Node2&#45;&gt;Node1</title>
<path fill="none" stroke="#9a32cd" stroke-dasharray="5,2" d="M57.8648,-81.4149C66.2809,-66.4123 78.2267,-45.1177 86.0432,-31.1839"/>
<polygon fill="#9a32cd" stroke="#9a32cd" points="54.7629,-79.7907 52.9228,-90.2246 60.8679,-83.2155 54.7629,-79.7907"/>
<text text-anchor="middle" x="96" y="-64" font-family="Helvetica,sans-Serif" font-size="10.00"> lineGC</text>
<text text-anchor="middle" x="96" y="-53" font-family="Helvetica,sans-Serif" font-size="10.00">turtleGC</text>
</g>
<!-- Node3 -->
<g id="node3" class="node"><title>Node3</title>
<polygon fill="white" stroke="#bfbfbf" points="114,-90.5 114,-109.5 166,-109.5 166,-90.5 114,-90.5"/>
<text text-anchor="middle" x="140" y="-97.5" font-family="Helvetica,sans-Serif" font-size="10.00">Canvas</text>
</g>
<!-- Node3&#45;&gt;Node1 -->
<g id="edge2" class="edge"><title>Node3&#45;&gt;Node1</title>
<path fill="none" stroke="#9a32cd" stroke-dasharray="5,2" d="M132.923,-80.8829C128.975,-71.4438 123.709,-59.8472 118,-50 114.234,-43.5037 109.472,-36.7293 105.184,-31.021"/>
<polygon fill="#9a32cd" stroke="#9a32cd" points="129.783,-82.4538 136.774,-90.415 136.274,-79.832 129.783,-82.4538"/>
<text text-anchor="middle" x="166" y="-64" font-family="Helvetica,sans-Serif" font-size="10.00"> myLineCanvas</text>
<text text-anchor="middle" x="166" y="-53" font-family="Helvetica,sans-Serif" font-size="10.00">myTurtleCanvas</text>
</g>
</g>
</svg>
