<?xml version="1.0" encoding="UTF-8" standalone="no"?>
<!DOCTYPE svg PUBLIC "-//W3C//DTD SVG 1.1//EN"
 "http://www.w3.org/Graphics/SVG/1.1/DTD/svg11.dtd">
<!-- Generated by graphviz version 2.36.0 (20140111.2315)
 -->
<!-- Title: commands.CommandsTurtle Pages: 1 -->
<svg width="359pt" height="140pt"
 viewBox="0.00 0.00 359.00 140.00" xmlns="http://www.w3.org/2000/svg" xmlns:xlink="http://www.w3.org/1999/xlink">
<g id="graph0" class="graph" transform="scale(1 1) rotate(0) translate(4 136)">
<title>commands.CommandsTurtle</title>
<polygon fill="white" stroke="none" points="-4,4 -4,-136 355,-136 355,4 -4,4"/>
<!-- Node1 -->
<g id="node1" class="node"><title>Node1</title>
<polygon fill="#bfbfbf" stroke="black" points="93.5,-56.5 93.5,-75.5 248.5,-75.5 248.5,-56.5 93.5,-56.5"/>
<text text-anchor="middle" x="171" y="-63.5" font-family="Helvetica,sans-Serif" font-size="10.00">commands.CommandsTurtle</text>
</g>
<!-- Node3 -->
<g id="node3" class="node"><title>Node3</title>
<g id="a_node3"><a xlink:href="../../dd/d12/classcommands_1_1_activity_command.html" target="_top" xlink:title="commands.ActivityCommand">
<polygon fill="white" stroke="black" points="0,-0.5 0,-19.5 158,-19.5 158,-0.5 0,-0.5"/>
<text text-anchor="middle" x="79" y="-7.5" font-family="Helvetica,sans-Serif" font-size="10.00">commands.ActivityCommand</text>
</a>
</g>
</g>
<!-- Node1&#45;&gt;Node3 -->
<g id="edge2" class="edge"><title>Node1&#45;&gt;Node3</title>
<path fill="none" stroke="midnightblue" d="M147.45,-51.1774C130.521,-41.2407 108.217,-28.1492 93.7447,-19.6545"/>
<polygon fill="midnightblue" stroke="midnightblue" points="145.823,-54.2804 156.219,-56.324 149.366,-48.2435 145.823,-54.2804"/>
</g>
<!-- Node4 -->
<g id="node4" class="node"><title>Node4</title>
<g id="a_node4"><a xlink:href="../../d1/d7f/classcommands_1_1_movement_command.html" target="_top" xlink:title="commands.MovementCommand">
<polygon fill="white" stroke="black" points="176.5,-0.5 176.5,-19.5 351.5,-19.5 351.5,-0.5 176.5,-0.5"/>
<text text-anchor="middle" x="264" y="-7.5" font-family="Helvetica,sans-Serif" font-size="10.00">commands.MovementCommand</text>
</a>
</g>
</g>
<!-- Node1&#45;&gt;Node4 -->
<g id="edge3" class="edge"><title>Node1&#45;&gt;Node4</title>
<path fill="none" stroke="midnightblue" d="M194.806,-51.1774C211.919,-41.2407 234.465,-28.1492 249.095,-19.6545"/>
<polygon fill="midnightblue" stroke="midnightblue" points="192.832,-48.2758 185.942,-56.324 196.347,-54.3293 192.832,-48.2758"/>
</g>
<!-- Node2 -->
<g id="node2" class="node"><title>Node2</title>
<g id="a_node2"><a xlink:href="../../d3/de9/interfacecommands_1_1_i_command.html" target="_top" xlink:title="commands.ICommand">
<polygon fill="white" stroke="black" points="108,-112.5 108,-131.5 234,-131.5 234,-112.5 108,-112.5"/>
<text text-anchor="middle" x="171" y="-119.5" font-family="Helvetica,sans-Serif" font-size="10.00">commands.ICommand</text>
</a>
</g>
</g>
<!-- Node2&#45;&gt;Node1 -->
<g id="edge1" class="edge"><title>Node2&#45;&gt;Node1</title>
<path fill="none" stroke="midnightblue" d="M171,-101.805C171,-92.9102 171,-82.7798 171,-75.7511"/>
<polygon fill="midnightblue" stroke="midnightblue" points="167.5,-102.083 171,-112.083 174.5,-102.083 167.5,-102.083"/>
</g>
</g>
</svg>
