<?xml version="1.0" encoding="UTF-8" standalone="no"?>
<!DOCTYPE svg PUBLIC "-//W3C//DTD SVG 1.1//EN"
 "http://www.w3.org/Graphics/SVG/1.1/DTD/svg11.dtd">
<!-- Generated by graphviz version 2.36.0 (20140111.2315)
 -->
<!-- Title: TurtleDataFeature.showStage Pages: 1 -->
<svg width="554pt" height="87pt"
 viewBox="0.00 0.00 554.00 87.00" xmlns="http://www.w3.org/2000/svg" xmlns:xlink="http://www.w3.org/1999/xlink">
<g id="graph0" class="graph" transform="scale(1 1) rotate(0) translate(4 83)">
<title>TurtleDataFeature.showStage</title>
<polygon fill="white" stroke="none" points="-4,4 -4,-83 550,-83 550,4 -4,4"/>
<!-- Node1 -->
<g id="node1" class="node"><title>Node1</title>
<polygon fill="#bfbfbf" stroke="black" points="0.5,-29.5 0.5,-48.5 157.5,-48.5 157.5,-29.5 0.5,-29.5"/>
<text text-anchor="middle" x="79" y="-36.5" font-family="Helvetica,sans-Serif" font-size="10.00">TurtleDataFeature.showStage</text>
</g>
<!-- Node2 -->
<g id="node2" class="node"><title>Node2</title>
<g id="a_node2"><a xlink:href="../../d4/d0f/class_movement_and_image_a_p_i_1_1src_1_1_turtle_handler.html#a407c55a73d8dc5bd3f037a5a95fd65c9" target="_top" xlink:title="MovementAndImageAPI.src.\lTurtleHandler.getOrientation">
<polygon fill="white" stroke="black" points="200,-49 200,-79 352,-79 352,-49 200,-49"/>
<text text-anchor="start" x="208" y="-67" font-family="Helvetica,sans-Serif" font-size="10.00">MovementAndImageAPI.src.</text>
<text text-anchor="middle" x="276" y="-56" font-family="Helvetica,sans-Serif" font-size="10.00">TurtleHandler.getOrientation</text>
</a>
</g>
</g>
<!-- Node1&#45;&gt;Node2 -->
<g id="edge1" class="edge"><title>Node1&#45;&gt;Node2</title>
<path fill="none" stroke="midnightblue" d="M154.277,-48.5227C165.965,-50.0212 178.126,-51.5803 190.033,-53.1068"/>
<polygon fill="midnightblue" stroke="midnightblue" points="189.596,-56.5793 199.96,-54.3795 190.486,-49.6361 189.596,-56.5793"/>
</g>
<!-- Node4 -->
<g id="node4" class="node"><title>Node4</title>
<g id="a_node4"><a xlink:href="../../d4/d0f/class_movement_and_image_a_p_i_1_1src_1_1_turtle_handler.html#a183d009af1948557ada7fabffccedd72" target="_top" xlink:title="MovementAndImageAPI.src.\lTurtleHandler.getTurtleLocation">
<polygon fill="white" stroke="black" points="194,-0 194,-30 358,-30 358,-0 194,-0"/>
<text text-anchor="start" x="202" y="-18" font-family="Helvetica,sans-Serif" font-size="10.00">MovementAndImageAPI.src.</text>
<text text-anchor="middle" x="276" y="-7" font-family="Helvetica,sans-Serif" font-size="10.00">TurtleHandler.getTurtleLocation</text>
</a>
</g>
</g>
<!-- Node1&#45;&gt;Node4 -->
<g id="edge3" class="edge"><title>Node1&#45;&gt;Node4</title>
<path fill="none" stroke="midnightblue" d="M157.349,-29.4801C166.079,-28.4056 175.035,-27.3034 183.919,-26.21"/>
<polygon fill="midnightblue" stroke="midnightblue" points="184.406,-29.6765 193.903,-24.9811 183.551,-22.729 184.406,-29.6765"/>
</g>
<!-- Node3 -->
<g id="node3" class="node"><title>Node3</title>
<g id="a_node3"><a xlink:href="../../d7/d43/class_movement_and_image_a_p_i_1_1src_1_1_turtle.html#afc67ef4af25343bf4130a771dbcf676e" target="_top" xlink:title="MovementAndImageAPI.src.\lTurtle.getOrientation">
<polygon fill="white" stroke="black" points="394,-49 394,-79 546,-79 546,-49 394,-49"/>
<text text-anchor="start" x="402" y="-67" font-family="Helvetica,sans-Serif" font-size="10.00">MovementAndImageAPI.src.</text>
<text text-anchor="middle" x="470" y="-56" font-family="Helvetica,sans-Serif" font-size="10.00">Turtle.getOrientation</text>
</a>
</g>
</g>
<!-- Node2&#45;&gt;Node3 -->
<g id="edge2" class="edge"><title>Node2&#45;&gt;Node3</title>
<path fill="none" stroke="midnightblue" d="M352.057,-64C362.498,-64 373.287,-64 383.896,-64"/>
<polygon fill="midnightblue" stroke="midnightblue" points="383.995,-67.5001 393.995,-64 383.995,-60.5001 383.995,-67.5001"/>
</g>
<!-- Node5 -->
<g id="node5" class="node"><title>Node5</title>
<g id="a_node5"><a xlink:href="../../d7/d43/class_movement_and_image_a_p_i_1_1src_1_1_turtle.html#af438d3cf63dc7584f43e470e56592cbb" target="_top" xlink:title="MovementAndImageAPI.src.\lTurtle.getPoint">
<polygon fill="white" stroke="black" points="394,-0 394,-30 546,-30 546,-0 394,-0"/>
<text text-anchor="start" x="402" y="-18" font-family="Helvetica,sans-Serif" font-size="10.00">MovementAndImageAPI.src.</text>
<text text-anchor="middle" x="470" y="-7" font-family="Helvetica,sans-Serif" font-size="10.00">Turtle.getPoint</text>
</a>
</g>
</g>
<!-- Node4&#45;&gt;Node5 -->
<g id="edge4" class="edge"><title>Node4&#45;&gt;Node5</title>
<path fill="none" stroke="midnightblue" d="M358.147,-15C366.587,-15 375.185,-15 383.669,-15"/>
<polygon fill="midnightblue" stroke="midnightblue" points="383.945,-18.5001 393.945,-15 383.945,-11.5001 383.945,-18.5001"/>
</g>
</g>
</svg>
