<?xml version="1.0" encoding="UTF-8" standalone="no"?>
<!DOCTYPE svg PUBLIC "-//W3C//DTD SVG 1.1//EN"
 "http://www.w3.org/Graphics/SVG/1.1/DTD/svg11.dtd">
<!-- Generated by graphviz version 2.36.0 (20140111.2315)
 -->
<!-- Title: TurtleDataFeature.showStage Pages: 1 -->
<svg width="844pt" height="38pt"
 viewBox="0.00 0.00 844.00 38.00" xmlns="http://www.w3.org/2000/svg" xmlns:xlink="http://www.w3.org/1999/xlink">
<g id="graph0" class="graph" transform="scale(1 1) rotate(0) translate(4 34)">
<title>TurtleDataFeature.showStage</title>
<polygon fill="white" stroke="none" points="-4,4 -4,-34 840,-34 840,4 -4,4"/>
<!-- Node1 -->
<g id="node1" class="node"><title>Node1</title>
<polygon fill="#bfbfbf" stroke="black" points="0.5,-5.5 0.5,-24.5 157.5,-24.5 157.5,-5.5 0.5,-5.5"/>
<text text-anchor="middle" x="79" y="-12.5" font-family="Helvetica,sans-Serif" font-size="10.00">TurtleDataFeature.showStage</text>
</g>
<!-- Node2 -->
<g id="node2" class="node"><title>Node2</title>
<g id="a_node2"><a xlink:href="../../d5/d6a/class_turtle_data_feature.html#ae0a4f267c19fdd44c1ae9128f2de41e1" target="_top" xlink:title="TurtleDataFeature.openTurtle\lDataPage">
<polygon fill="white" stroke="black" points="194,-0 194,-30 348,-30 348,-0 194,-0"/>
<text text-anchor="start" x="202" y="-18" font-family="Helvetica,sans-Serif" font-size="10.00">TurtleDataFeature.openTurtle</text>
<text text-anchor="middle" x="271" y="-7" font-family="Helvetica,sans-Serif" font-size="10.00">DataPage</text>
</a>
</g>
</g>
<!-- Node1&#45;&gt;Node2 -->
<g id="edge1" class="edge"><title>Node1&#45;&gt;Node2</title>
<path fill="none" stroke="midnightblue" d="M167.757,-15C176.496,-15 185.318,-15 193.923,-15"/>
<polygon fill="midnightblue" stroke="midnightblue" points="167.554,-11.5001 157.554,-15 167.554,-18.5001 167.554,-11.5001"/>
</g>
<!-- Node3 -->
<g id="node3" class="node"><title>Node3</title>
<g id="a_node3"><a xlink:href="../../d5/d56/class_workspace.html#a6babd032d9af86fbc23812272d59a2d2" target="_top" xlink:title="Workspace.addFeatureButtons">
<polygon fill="white" stroke="black" points="384,-5.5 384,-24.5 546,-24.5 546,-5.5 384,-5.5"/>
<text text-anchor="middle" x="465" y="-12.5" font-family="Helvetica,sans-Serif" font-size="10.00">Workspace.addFeatureButtons</text>
</a>
</g>
</g>
<!-- Node2&#45;&gt;Node3 -->
<g id="edge2" class="edge"><title>Node2&#45;&gt;Node3</title>
<path fill="none" stroke="midnightblue" d="M358.414,-15C366.876,-15 375.438,-15 383.835,-15"/>
<polygon fill="midnightblue" stroke="midnightblue" points="358.159,-11.5001 348.159,-15 358.159,-18.5001 358.159,-11.5001"/>
</g>
<!-- Node4 -->
<g id="node4" class="node"><title>Node4</title>
<g id="a_node4"><a xlink:href="../../d5/d56/class_workspace.html#a429d535dfd8427637b7715f0b1e1df1b" target="_top" xlink:title="Workspace.createWorkspace">
<polygon fill="white" stroke="black" points="582,-5.5 582,-24.5 734,-24.5 734,-5.5 582,-5.5"/>
<text text-anchor="middle" x="658" y="-12.5" font-family="Helvetica,sans-Serif" font-size="10.00">Workspace.createWorkspace</text>
</a>
</g>
</g>
<!-- Node3&#45;&gt;Node4 -->
<g id="edge3" class="edge"><title>Node3&#45;&gt;Node4</title>
<path fill="none" stroke="midnightblue" d="M556.223,-15C564.822,-15 573.479,-15 581.912,-15"/>
<polygon fill="midnightblue" stroke="midnightblue" points="556.171,-11.5001 546.171,-15 556.171,-18.5001 556.171,-11.5001"/>
</g>
<!-- Node5 -->
<g id="node5" class="node"><title>Node5</title>
<g id="a_node5"><a xlink:href="../../d0/d4b/class_main.html#aaa75b38812324d0f17c89f139bde6ada" target="_top" xlink:title="Main.start">
<polygon fill="white" stroke="black" points="770.5,-5.5 770.5,-24.5 835.5,-24.5 835.5,-5.5 770.5,-5.5"/>
<text text-anchor="middle" x="803" y="-12.5" font-family="Helvetica,sans-Serif" font-size="10.00">Main.start</text>
</a>
</g>
</g>
<!-- Node4&#45;&gt;Node5 -->
<g id="edge4" class="edge"><title>Node4&#45;&gt;Node5</title>
<path fill="none" stroke="midnightblue" d="M744.392,-15C753.632,-15 762.551,-15 770.498,-15"/>
<polygon fill="midnightblue" stroke="midnightblue" points="744.269,-11.5001 734.269,-15 744.269,-18.5001 744.269,-11.5001"/>
</g>
</g>
</svg>
