<?xml version="1.0" encoding="UTF-8" standalone="no"?>
<!DOCTYPE svg PUBLIC "-//W3C//DTD SVG 1.1//EN"
 "http://www.w3.org/Graphics/SVG/1.1/DTD/svg11.dtd">
<!-- Generated by graphviz version 2.36.0 (20140111.2315)
 -->
<!-- Title: TurtleDataFeature.openTurtleDataPage Pages: 1 -->
<svg width="744pt" height="87pt"
 viewBox="0.00 0.00 744.00 87.00" xmlns="http://www.w3.org/2000/svg" xmlns:xlink="http://www.w3.org/1999/xlink">
<g id="graph0" class="graph" transform="scale(1 1) rotate(0) translate(4 83)">
<title>TurtleDataFeature.openTurtleDataPage</title>
<polygon fill="white" stroke="none" points="-4,4 -4,-83 740,-83 740,4 -4,4"/>
<!-- Node1 -->
<g id="node1" class="node"><title>Node1</title>
<polygon fill="#bfbfbf" stroke="black" points="0,-24 0,-54 154,-54 154,-24 0,-24"/>
<text text-anchor="start" x="8" y="-42" font-family="Helvetica,sans-Serif" font-size="10.00">TurtleDataFeature.openTurtle</text>
<text text-anchor="middle" x="77" y="-31" font-family="Helvetica,sans-Serif" font-size="10.00">DataPage</text>
</g>
<!-- Node2 -->
<g id="node2" class="node"><title>Node2</title>
<g id="a_node2"><a xlink:href="../../d5/d6a/class_turtle_data_feature.html#a3dd3f16c3c168151bc57be68684dfc50" target="_top" xlink:title="TurtleDataFeature.showStage">
<polygon fill="white" stroke="black" points="190.5,-29.5 190.5,-48.5 347.5,-48.5 347.5,-29.5 190.5,-29.5"/>
<text text-anchor="middle" x="269" y="-36.5" font-family="Helvetica,sans-Serif" font-size="10.00">TurtleDataFeature.showStage</text>
</a>
</g>
</g>
<!-- Node1&#45;&gt;Node2 -->
<g id="edge1" class="edge"><title>Node1&#45;&gt;Node2</title>
<path fill="none" stroke="midnightblue" d="M154.185,-39C162.719,-39 171.464,-39 180.129,-39"/>
<polygon fill="midnightblue" stroke="midnightblue" points="180.247,-42.5001 190.246,-39 180.246,-35.5001 180.247,-42.5001"/>
</g>
<!-- Node3 -->
<g id="node3" class="node"><title>Node3</title>
<g id="a_node3"><a xlink:href="../../d4/d0f/class_movement_and_image_a_p_i_1_1src_1_1_turtle_handler.html#a183d009af1948557ada7fabffccedd72" target="_top" xlink:title="MovementAndImageAPI.src.\lTurtleHandler.getTurtleLocation">
<polygon fill="white" stroke="black" points="384,-49 384,-79 548,-79 548,-49 384,-49"/>
<text text-anchor="start" x="392" y="-67" font-family="Helvetica,sans-Serif" font-size="10.00">MovementAndImageAPI.src.</text>
<text text-anchor="middle" x="466" y="-56" font-family="Helvetica,sans-Serif" font-size="10.00">TurtleHandler.getTurtleLocation</text>
</a>
</g>
</g>
<!-- Node2&#45;&gt;Node3 -->
<g id="edge2" class="edge"><title>Node2&#45;&gt;Node3</title>
<path fill="none" stroke="midnightblue" d="M344.277,-48.5227C353.863,-49.7517 363.767,-51.0214 373.588,-52.2805"/>
<polygon fill="midnightblue" stroke="midnightblue" points="373.412,-55.7865 383.776,-53.5867 374.302,-48.8434 373.412,-55.7865"/>
</g>
<!-- Node5 -->
<g id="node5" class="node"><title>Node5</title>
<g id="a_node5"><a xlink:href="../../d4/d0f/class_movement_and_image_a_p_i_1_1src_1_1_turtle_handler.html#a407c55a73d8dc5bd3f037a5a95fd65c9" target="_top" xlink:title="MovementAndImageAPI.src.\lTurtleHandler.getOrientation">
<polygon fill="white" stroke="black" points="390,-0 390,-30 542,-30 542,-0 390,-0"/>
<text text-anchor="start" x="398" y="-18" font-family="Helvetica,sans-Serif" font-size="10.00">MovementAndImageAPI.src.</text>
<text text-anchor="middle" x="466" y="-7" font-family="Helvetica,sans-Serif" font-size="10.00">TurtleHandler.getOrientation</text>
</a>
</g>
</g>
<!-- Node2&#45;&gt;Node5 -->
<g id="edge4" class="edge"><title>Node2&#45;&gt;Node5</title>
<path fill="none" stroke="midnightblue" d="M347.349,-29.4801C357.986,-28.171 368.957,-26.8207 379.726,-25.4952"/>
<polygon fill="midnightblue" stroke="midnightblue" points="380.474,-28.9297 389.972,-24.2342 379.619,-21.9821 380.474,-28.9297"/>
</g>
<!-- Node4 -->
<g id="node4" class="node"><title>Node4</title>
<g id="a_node4"><a xlink:href="../../d7/d43/class_movement_and_image_a_p_i_1_1src_1_1_turtle.html#af438d3cf63dc7584f43e470e56592cbb" target="_top" xlink:title="MovementAndImageAPI.src.\lTurtle.getPoint">
<polygon fill="white" stroke="black" points="584,-49 584,-79 736,-79 736,-49 584,-49"/>
<text text-anchor="start" x="592" y="-67" font-family="Helvetica,sans-Serif" font-size="10.00">MovementAndImageAPI.src.</text>
<text text-anchor="middle" x="660" y="-56" font-family="Helvetica,sans-Serif" font-size="10.00">Turtle.getPoint</text>
</a>
</g>
</g>
<!-- Node3&#45;&gt;Node4 -->
<g id="edge3" class="edge"><title>Node3&#45;&gt;Node4</title>
<path fill="none" stroke="midnightblue" d="M548.147,-64C556.587,-64 565.185,-64 573.669,-64"/>
<polygon fill="midnightblue" stroke="midnightblue" points="573.945,-67.5001 583.945,-64 573.945,-60.5001 573.945,-67.5001"/>
</g>
<!-- Node6 -->
<g id="node6" class="node"><title>Node6</title>
<g id="a_node6"><a xlink:href="../../d7/d43/class_movement_and_image_a_p_i_1_1src_1_1_turtle.html#afc67ef4af25343bf4130a771dbcf676e" target="_top" xlink:title="MovementAndImageAPI.src.\lTurtle.getOrientation">
<polygon fill="white" stroke="black" points="584,-0 584,-30 736,-30 736,-0 584,-0"/>
<text text-anchor="start" x="592" y="-18" font-family="Helvetica,sans-Serif" font-size="10.00">MovementAndImageAPI.src.</text>
<text text-anchor="middle" x="660" y="-7" font-family="Helvetica,sans-Serif" font-size="10.00">Turtle.getOrientation</text>
</a>
</g>
</g>
<!-- Node5&#45;&gt;Node6 -->
<g id="edge5" class="edge"><title>Node5&#45;&gt;Node6</title>
<path fill="none" stroke="midnightblue" d="M542.057,-15C552.498,-15 563.287,-15 573.896,-15"/>
<polygon fill="midnightblue" stroke="midnightblue" points="573.995,-18.5001 583.995,-15 573.995,-11.5001 573.995,-18.5001"/>
</g>
</g>
</svg>
