<?xml version="1.0" encoding="UTF-8" standalone="no"?>
<!DOCTYPE svg PUBLIC "-//W3C//DTD SVG 1.1//EN"
 "http://www.w3.org/Graphics/SVG/1.1/DTD/svg11.dtd">
<!-- Generated by graphviz version 2.36.0 (20140111.2315)
 -->
<!-- Title: RefGridFeature.showReferenceGrid Pages: 1 -->
<svg width="384pt" height="66pt"
 viewBox="0.00 0.00 384.00 66.00" xmlns="http://www.w3.org/2000/svg" xmlns:xlink="http://www.w3.org/1999/xlink">
<g id="graph0" class="graph" transform="scale(1 1) rotate(0) translate(4 62)">
<title>RefGridFeature.showReferenceGrid</title>
<polygon fill="white" stroke="none" points="-4,4 -4,-62 380,-62 380,4 -4,4"/>
<!-- Node1 -->
<g id="node1" class="node"><title>Node1</title>
<polygon fill="#bfbfbf" stroke="black" points="0,-19.5 0,-38.5 180,-38.5 180,-19.5 0,-19.5"/>
<text text-anchor="middle" x="90" y="-26.5" font-family="Helvetica,sans-Serif" font-size="10.00">RefGridFeature.showReferenceGrid</text>
</g>
<!-- Node2 -->
<g id="node2" class="node"><title>Node2</title>
<g id="a_node2"><a xlink:href="../../d8/d1d/class_ref_grid_feature.html#a5f526f36926fb7de3b688b523924986e" target="_top" xlink:title="RefGridFeature.drawRefGrid">
<polygon fill="white" stroke="black" points="223,-38.5 223,-57.5 369,-57.5 369,-38.5 223,-38.5"/>
<text text-anchor="middle" x="296" y="-45.5" font-family="Helvetica,sans-Serif" font-size="10.00">RefGridFeature.drawRefGrid</text>
</a>
</g>
</g>
<!-- Node1&#45;&gt;Node2 -->
<g id="edge1" class="edge"><title>Node1&#45;&gt;Node2</title>
<path fill="none" stroke="midnightblue" d="M180.181,-37.306C190.987,-38.3125 201.988,-39.3371 212.688,-40.3337"/>
<polygon fill="midnightblue" stroke="midnightblue" points="212.557,-43.8366 222.839,-41.2791 213.207,-36.8668 212.557,-43.8366"/>
</g>
<!-- Node3 -->
<g id="node3" class="node"><title>Node3</title>
<g id="a_node3"><a xlink:href="../../d8/d1d/class_ref_grid_feature.html#a5160551925fb445a5ce6e4ec74476f1d" target="_top" xlink:title="RefGridFeature.removeRefGrid">
<polygon fill="white" stroke="black" points="216,-0.5 216,-19.5 376,-19.5 376,-0.5 216,-0.5"/>
<text text-anchor="middle" x="296" y="-7.5" font-family="Helvetica,sans-Serif" font-size="10.00">RefGridFeature.removeRefGrid</text>
</a>
</g>
</g>
<!-- Node1&#45;&gt;Node3 -->
<g id="edge2" class="edge"><title>Node1&#45;&gt;Node3</title>
<path fill="none" stroke="midnightblue" d="M180.181,-20.694C188.734,-19.8973 197.41,-19.0893 205.962,-18.2927"/>
<polygon fill="midnightblue" stroke="midnightblue" points="206.298,-21.7767 215.93,-17.3643 205.649,-14.8069 206.298,-21.7767"/>
</g>
</g>
</svg>
