<?xml version="1.0" encoding="UTF-8" standalone="no"?>
<!DOCTYPE svg PUBLIC "-//W3C//DTD SVG 1.1//EN"
 "http://www.w3.org/Graphics/SVG/1.1/DTD/svg11.dtd">
<!-- Generated by graphviz version 2.36.0 (20140111.2315)
 -->
<!-- Title: RefGridFeature.removeRefGrid Pages: 1 -->
<svg width="872pt" height="28pt"
 viewBox="0.00 0.00 872.00 28.00" xmlns="http://www.w3.org/2000/svg" xmlns:xlink="http://www.w3.org/1999/xlink">
<g id="graph0" class="graph" transform="scale(1 1) rotate(0) translate(4 24)">
<title>RefGridFeature.removeRefGrid</title>
<polygon fill="white" stroke="none" points="-4,4 -4,-24 868,-24 868,4 -4,4"/>
<!-- Node1 -->
<g id="node1" class="node"><title>Node1</title>
<polygon fill="#bfbfbf" stroke="black" points="0,-0.5 0,-19.5 160,-19.5 160,-0.5 0,-0.5"/>
<text text-anchor="middle" x="80" y="-7.5" font-family="Helvetica,sans-Serif" font-size="10.00">RefGridFeature.removeRefGrid</text>
</g>
<!-- Node2 -->
<g id="node2" class="node"><title>Node2</title>
<g id="a_node2"><a xlink:href="../../d8/d1d/class_ref_grid_feature.html#a57112a8c1201fa272ac503e5590dfcfe" target="_top" xlink:title="RefGridFeature.showReferenceGrid">
<polygon fill="white" stroke="black" points="196,-0.5 196,-19.5 376,-19.5 376,-0.5 196,-0.5"/>
<text text-anchor="middle" x="286" y="-7.5" font-family="Helvetica,sans-Serif" font-size="10.00">RefGridFeature.showReferenceGrid</text>
</a>
</g>
</g>
<!-- Node1&#45;&gt;Node2 -->
<g id="edge1" class="edge"><title>Node1&#45;&gt;Node2</title>
<path fill="none" stroke="midnightblue" d="M170.354,-10C178.768,-10 187.299,-10 195.713,-10"/>
<polygon fill="midnightblue" stroke="midnightblue" points="170.164,-6.5001 160.164,-10 170.164,-13.5001 170.164,-6.5001"/>
</g>
<!-- Node3 -->
<g id="node3" class="node"><title>Node3</title>
<g id="a_node3"><a xlink:href="../../d5/d56/class_workspace.html#a6babd032d9af86fbc23812272d59a2d2" target="_top" xlink:title="Workspace.addFeatureButtons">
<polygon fill="white" stroke="black" points="412,-0.5 412,-19.5 574,-19.5 574,-0.5 412,-0.5"/>
<text text-anchor="middle" x="493" y="-7.5" font-family="Helvetica,sans-Serif" font-size="10.00">Workspace.addFeatureButtons</text>
</a>
</g>
</g>
<!-- Node2&#45;&gt;Node3 -->
<g id="edge2" class="edge"><title>Node2&#45;&gt;Node3</title>
<path fill="none" stroke="midnightblue" d="M386.094,-10C394.7,-10 403.337,-10 411.763,-10"/>
<polygon fill="midnightblue" stroke="midnightblue" points="386.022,-6.5001 376.022,-10 386.022,-13.5001 386.022,-6.5001"/>
</g>
<!-- Node4 -->
<g id="node4" class="node"><title>Node4</title>
<g id="a_node4"><a xlink:href="../../d5/d56/class_workspace.html#a429d535dfd8427637b7715f0b1e1df1b" target="_top" xlink:title="Workspace.createWorkspace">
<polygon fill="white" stroke="black" points="610,-0.5 610,-19.5 762,-19.5 762,-0.5 610,-0.5"/>
<text text-anchor="middle" x="686" y="-7.5" font-family="Helvetica,sans-Serif" font-size="10.00">Workspace.createWorkspace</text>
</a>
</g>
</g>
<!-- Node3&#45;&gt;Node4 -->
<g id="edge3" class="edge"><title>Node3&#45;&gt;Node4</title>
<path fill="none" stroke="midnightblue" d="M584.223,-10C592.822,-10 601.479,-10 609.912,-10"/>
<polygon fill="midnightblue" stroke="midnightblue" points="584.171,-6.5001 574.171,-10 584.171,-13.5001 584.171,-6.5001"/>
</g>
<!-- Node5 -->
<g id="node5" class="node"><title>Node5</title>
<g id="a_node5"><a xlink:href="../../d0/d4b/class_main.html#aaa75b38812324d0f17c89f139bde6ada" target="_top" xlink:title="Main.start">
<polygon fill="white" stroke="black" points="798.5,-0.5 798.5,-19.5 863.5,-19.5 863.5,-0.5 798.5,-0.5"/>
<text text-anchor="middle" x="831" y="-7.5" font-family="Helvetica,sans-Serif" font-size="10.00">Main.start</text>
</a>
</g>
</g>
<!-- Node4&#45;&gt;Node5 -->
<g id="edge4" class="edge"><title>Node4&#45;&gt;Node5</title>
<path fill="none" stroke="midnightblue" d="M772.392,-10C781.632,-10 790.551,-10 798.498,-10"/>
<polygon fill="midnightblue" stroke="midnightblue" points="772.269,-6.5001 762.269,-10 772.269,-13.5001 772.269,-6.5001"/>
</g>
</g>
</svg>
