<?xml version="1.0" encoding="UTF-8" standalone="no"?>
<!DOCTYPE svg PUBLIC "-//W3C//DTD SVG 1.1//EN"
 "http://www.w3.org/Graphics/SVG/1.1/DTD/svg11.dtd">
<!-- Generated by graphviz version 2.36.0 (20140111.2315)
 -->
<!-- Title: RefGridFeature.drawRefGrid Pages: 1 -->
<svg width="858pt" height="28pt"
 viewBox="0.00 0.00 858.00 28.00" xmlns="http://www.w3.org/2000/svg" xmlns:xlink="http://www.w3.org/1999/xlink">
<g id="graph0" class="graph" transform="scale(1 1) rotate(0) translate(4 24)">
<title>RefGridFeature.drawRefGrid</title>
<polygon fill="white" stroke="none" points="-4,4 -4,-24 854,-24 854,4 -4,4"/>
<!-- Node1 -->
<g id="node1" class="node"><title>Node1</title>
<polygon fill="#bfbfbf" stroke="black" points="0,-0.5 0,-19.5 146,-19.5 146,-0.5 0,-0.5"/>
<text text-anchor="middle" x="73" y="-7.5" font-family="Helvetica,sans-Serif" font-size="10.00">RefGridFeature.drawRefGrid</text>
</g>
<!-- Node2 -->
<g id="node2" class="node"><title>Node2</title>
<g id="a_node2"><a xlink:href="../../d8/d1d/class_ref_grid_feature.html#a57112a8c1201fa272ac503e5590dfcfe" target="_top" xlink:title="RefGridFeature.showReferenceGrid">
<polygon fill="white" stroke="black" points="182,-0.5 182,-19.5 362,-19.5 362,-0.5 182,-0.5"/>
<text text-anchor="middle" x="272" y="-7.5" font-family="Helvetica,sans-Serif" font-size="10.00">RefGridFeature.showReferenceGrid</text>
</a>
</g>
</g>
<!-- Node1&#45;&gt;Node2 -->
<g id="edge1" class="edge"><title>Node1&#45;&gt;Node2</title>
<path fill="none" stroke="midnightblue" d="M156.349,-10C164.718,-10 173.246,-10 181.684,-10"/>
<polygon fill="midnightblue" stroke="midnightblue" points="156.237,-6.5001 146.237,-10 156.237,-13.5001 156.237,-6.5001"/>
</g>
<!-- Node3 -->
<g id="node3" class="node"><title>Node3</title>
<g id="a_node3"><a xlink:href="../../d5/d56/class_workspace.html#a6babd032d9af86fbc23812272d59a2d2" target="_top" xlink:title="Workspace.addFeatureButtons">
<polygon fill="white" stroke="black" points="398,-0.5 398,-19.5 560,-19.5 560,-0.5 398,-0.5"/>
<text text-anchor="middle" x="479" y="-7.5" font-family="Helvetica,sans-Serif" font-size="10.00">Workspace.addFeatureButtons</text>
</a>
</g>
</g>
<!-- Node2&#45;&gt;Node3 -->
<g id="edge2" class="edge"><title>Node2&#45;&gt;Node3</title>
<path fill="none" stroke="midnightblue" d="M372.094,-10C380.7,-10 389.337,-10 397.763,-10"/>
<polygon fill="midnightblue" stroke="midnightblue" points="372.022,-6.5001 362.022,-10 372.022,-13.5001 372.022,-6.5001"/>
</g>
<!-- Node4 -->
<g id="node4" class="node"><title>Node4</title>
<g id="a_node4"><a xlink:href="../../d5/d56/class_workspace.html#a429d535dfd8427637b7715f0b1e1df1b" target="_top" xlink:title="Workspace.createWorkspace">
<polygon fill="white" stroke="black" points="596,-0.5 596,-19.5 748,-19.5 748,-0.5 596,-0.5"/>
<text text-anchor="middle" x="672" y="-7.5" font-family="Helvetica,sans-Serif" font-size="10.00">Workspace.createWorkspace</text>
</a>
</g>
</g>
<!-- Node3&#45;&gt;Node4 -->
<g id="edge3" class="edge"><title>Node3&#45;&gt;Node4</title>
<path fill="none" stroke="midnightblue" d="M570.223,-10C578.822,-10 587.479,-10 595.912,-10"/>
<polygon fill="midnightblue" stroke="midnightblue" points="570.171,-6.5001 560.171,-10 570.171,-13.5001 570.171,-6.5001"/>
</g>
<!-- Node5 -->
<g id="node5" class="node"><title>Node5</title>
<g id="a_node5"><a xlink:href="../../d0/d4b/class_main.html#aaa75b38812324d0f17c89f139bde6ada" target="_top" xlink:title="Main.start">
<polygon fill="white" stroke="black" points="784.5,-0.5 784.5,-19.5 849.5,-19.5 849.5,-0.5 784.5,-0.5"/>
<text text-anchor="middle" x="817" y="-7.5" font-family="Helvetica,sans-Serif" font-size="10.00">Main.start</text>
</a>
</g>
</g>
<!-- Node4&#45;&gt;Node5 -->
<g id="edge4" class="edge"><title>Node4&#45;&gt;Node5</title>
<path fill="none" stroke="midnightblue" d="M758.392,-10C767.632,-10 776.551,-10 784.498,-10"/>
<polygon fill="midnightblue" stroke="midnightblue" points="758.269,-6.5001 748.269,-10 758.269,-13.5001 758.269,-6.5001"/>
</g>
</g>
</svg>
