<?xml version="1.0" encoding="UTF-8" standalone="no"?>
<!DOCTYPE svg PUBLIC "-//W3C//DTD SVG 1.1//EN"
 "http://www.w3.org/Graphics/SVG/1.1/DTD/svg11.dtd">
<!-- Generated by graphviz version 2.36.0 (20140111.2315)
 -->
<!-- Title: HelpPage.Browser Pages: 1 -->
<svg width="218pt" height="96pt"
 viewBox="0.00 0.00 218.00 96.00" xmlns="http://www.w3.org/2000/svg" xmlns:xlink="http://www.w3.org/1999/xlink">
<g id="graph0" class="graph" transform="scale(1 1) rotate(0) translate(4 92)">
<title>HelpPage.Browser</title>
<polygon fill="white" stroke="none" points="-4,4 -4,-92 214,-92 214,4 -4,4"/>
<!-- Node1 -->
<g id="node1" class="node"><title>Node1</title>
<polygon fill="#bfbfbf" stroke="black" points="48.5,-0.5 48.5,-19.5 151.5,-19.5 151.5,-0.5 48.5,-0.5"/>
<text text-anchor="middle" x="100" y="-7.5" font-family="Helvetica,sans-Serif" font-size="10.00">HelpPage.Browser</text>
</g>
<!-- Node2 -->
<g id="node2" class="node"><title>Node2</title>
<polygon fill="white" stroke="#bfbfbf" points="0,-68.5 0,-87.5 48,-87.5 48,-68.5 0,-68.5"/>
<text text-anchor="middle" x="24" y="-75.5" font-family="Helvetica,sans-Serif" font-size="10.00">Region</text>
</g>
<!-- Node2&#45;&gt;Node1 -->
<g id="edge1" class="edge"><title>Node2&#45;&gt;Node1</title>
<path fill="none" stroke="midnightblue" d="M41.5325,-61.7744C56.4915,-48.7837 77.482,-30.5551 89.8193,-19.8411"/>
<polygon fill="midnightblue" stroke="midnightblue" points="39.1911,-59.1721 33.9357,-68.3717 43.7809,-64.4574 39.1911,-59.1721"/>
</g>
<!-- Node3 -->
<g id="node3" class="node"><title>Node3</title>
<polygon fill="white" stroke="#bfbfbf" points="66,-68.5 66,-87.5 134,-87.5 134,-68.5 66,-68.5"/>
<text text-anchor="middle" x="100" y="-75.5" font-family="Helvetica,sans-Serif" font-size="10.00">WebEngine</text>
</g>
<!-- Node3&#45;&gt;Node1 -->
<g id="edge2" class="edge"><title>Node3&#45;&gt;Node1</title>
<path fill="none" stroke="#9a32cd" stroke-dasharray="5,2" d="M100,-58.0413C100,-45.4724 100,-29.5631 100,-19.8411"/>
<polygon fill="#9a32cd" stroke="#9a32cd" points="96.5001,-58.3716 100,-68.3717 103.5,-58.3717 96.5001,-58.3716"/>
<text text-anchor="middle" x="127.5" y="-41.5" font-family="Helvetica,sans-Serif" font-size="10.00"> webEngine</text>
</g>
<!-- Node4 -->
<g id="node4" class="node"><title>Node4</title>
<polygon fill="white" stroke="#bfbfbf" points="152,-68.5 152,-87.5 210,-87.5 210,-68.5 152,-68.5"/>
<text text-anchor="middle" x="181" y="-75.5" font-family="Helvetica,sans-Serif" font-size="10.00">WebView</text>
</g>
<!-- Node4&#45;&gt;Node1 -->
<g id="edge3" class="edge"><title>Node4&#45;&gt;Node1</title>
<path fill="none" stroke="#9a32cd" stroke-dasharray="5,2" d="M173.839,-59.0597C170.244,-51.8003 165.296,-43.7861 159,-38 150.125,-29.8444 138.362,-23.7895 127.675,-19.504"/>
<polygon fill="#9a32cd" stroke="#9a32cd" points="170.645,-60.492 177.903,-68.2107 177.043,-57.6508 170.645,-60.492"/>
<text text-anchor="middle" x="188.5" y="-41.5" font-family="Helvetica,sans-Serif" font-size="10.00"> browser</text>
</g>
</g>
</svg>
