<?xml version="1.0" encoding="UTF-8" standalone="no"?>
<!DOCTYPE svg PUBLIC "-//W3C//DTD SVG 1.1//EN"
 "http://www.w3.org/Graphics/SVG/1.1/DTD/svg11.dtd">
<!-- Generated by graphviz version 2.36.0 (20140111.2315)
 -->
<!-- Title: parser.ParseException Pages: 1 -->
<svg width="244pt" height="156pt"
 viewBox="0.00 0.00 244.00 156.00" xmlns="http://www.w3.org/2000/svg" xmlns:xlink="http://www.w3.org/1999/xlink">
<g id="graph0" class="graph" transform="scale(1 1) rotate(0) translate(4 152)">
<title>parser.ParseException</title>
<polygon fill="white" stroke="none" points="-4,4 -4,-152 240,-152 240,4 -4,4"/>
<!-- Node1 -->
<g id="node1" class="node"><title>Node1</title>
<polygon fill="#bfbfbf" stroke="black" points="0,-0.5 0,-19.5 122,-19.5 122,-0.5 0,-0.5"/>
<text text-anchor="middle" x="61" y="-7.5" font-family="Helvetica,sans-Serif" font-size="10.00">parser.ParseException</text>
</g>
<!-- Node2 -->
<g id="node2" class="node"><title>Node2</title>
<polygon fill="white" stroke="#bfbfbf" points="-0.5,-69.5 -0.5,-88.5 62.5,-88.5 62.5,-69.5 -0.5,-69.5"/>
<text text-anchor="middle" x="31" y="-76.5" font-family="Helvetica,sans-Serif" font-size="10.00">Exception</text>
</g>
<!-- Node2&#45;&gt;Node1 -->
<g id="edge1" class="edge"><title>Node2&#45;&gt;Node1</title>
<path fill="none" stroke="midnightblue" d="M39.1489,-59.8007C45.0117,-46.7071 52.653,-29.6417 57.1719,-19.5494"/>
<polygon fill="midnightblue" stroke="midnightblue" points="35.8143,-58.6837 34.922,-69.2409 42.2031,-61.5444 35.8143,-58.6837"/>
</g>
<!-- Node3 -->
<g id="node3" class="node"><title>Node3</title>
<g id="a_node3"><a xlink:href="../../db/df3/classparser_1_1_token.html" target="_top" xlink:title="parser.Token">
<polygon fill="white" stroke="black" points="80.5,-69.5 80.5,-88.5 157.5,-88.5 157.5,-69.5 80.5,-69.5"/>
<text text-anchor="middle" x="119" y="-76.5" font-family="Helvetica,sans-Serif" font-size="10.00">parser.Token</text>
</a>
</g>
</g>
<!-- Node3&#45;&gt;Node1 -->
<g id="edge2" class="edge"><title>Node3&#45;&gt;Node1</title>
<path fill="none" stroke="#9a32cd" stroke-dasharray="5,2" d="M104.575,-61.337C93.0902,-48.0697 77.4836,-30.0414 68.401,-19.5494"/>
<polygon fill="#9a32cd" stroke="#9a32cd" points="102.226,-63.971 111.418,-69.2409 107.519,-59.3895 102.226,-63.971"/>
<text text-anchor="middle" x="125.5" y="-41.5" font-family="Helvetica,sans-Serif" font-size="10.00"> currentToken</text>
</g>
<!-- Node3&#45;&gt;Node3 -->
<g id="edge4" class="edge"><title>Node3&#45;&gt;Node3</title>
<path fill="none" stroke="#9a32cd" stroke-dasharray="5,2" d="M167.872,-83.4488C172.251,-82.5182 175,-81.0352 175,-79 175,-75.6602 167.597,-73.8076 157.735,-73.4423"/>
<polygon fill="#9a32cd" stroke="#9a32cd" points="167.295,-79.9909 157.735,-84.5577 168.057,-86.9494 167.295,-79.9909"/>
<text text-anchor="middle" x="205.5" y="-82" font-family="Helvetica,sans-Serif" font-size="10.00"> next</text>
<text text-anchor="middle" x="205.5" y="-71" font-family="Helvetica,sans-Serif" font-size="10.00">specialToken</text>
</g>
<!-- Node4 -->
<g id="node4" class="node"><title>Node4</title>
<polygon fill="white" stroke="#bfbfbf" points="63.5,-128.5 63.5,-147.5 174.5,-147.5 174.5,-128.5 63.5,-128.5"/>
<text text-anchor="middle" x="119" y="-135.5" font-family="Helvetica,sans-Serif" font-size="10.00">java::io::Serializable</text>
</g>
<!-- Node4&#45;&gt;Node3 -->
<g id="edge3" class="edge"><title>Node4&#45;&gt;Node3</title>
<path fill="none" stroke="midnightblue" d="M119,-117.933C119,-108.024 119,-96.4007 119,-88.6571"/>
<polygon fill="midnightblue" stroke="midnightblue" points="115.5,-118.094 119,-128.094 122.5,-118.094 115.5,-118.094"/>
</g>
</g>
</svg>
