<?xml version="1.0" encoding="UTF-8" standalone="no"?>
<!DOCTYPE svg PUBLIC "-//W3C//DTD SVG 1.1//EN"
 "http://www.w3.org/Graphics/SVG/1.1/DTD/svg11.dtd">
<!-- Generated by graphviz version 2.36.0 (20140111.2315)
 -->
<!-- Title: input.InputExecutor Pages: 1 -->
<!--zoomable 306 -->
<svg id="main" version="1.1" xmlns="http://www.w3.org/2000/svg" xmlns:xlink="http://www.w3.org/1999/xlink" xml:space="preserve" onload="init(evt)">
<style type="text/css"><![CDATA[
.edge:hover path { stroke: red; }
.edge:hover polygon { stroke: red; fill: red; }
]]></style>
<script type="text/javascript"><![CDATA[
var edges = document.getElementsByTagName('g');
if (edges && edges.length) {
  for (var i=0;i<edges.length;i++) {
    if (edges[i].id.substr(0,4)=='edge') {
      edges[i].setAttribute('class','edge');
    }
  }
}
]]></script>
        <defs>
                <circle id="rim" cx="0" cy="0" r="7"/>
                <circle id="rim2" cx="0" cy="0" r="3.5"/>
                <g id="zoomPlus">
                        <use xlink:href="#rim" fill="#404040">
                                <set attributeName="fill" to="#808080" begin="zoomplus.mouseover" end="zoomplus.mouseout"/>
                        </use>
                        <path d="M-4,0h8M0,-4v8" fill="none" stroke="white" stroke-width="1.5" pointer-events="none"/>
                </g>
                <g id="zoomMin">
                        <use xlink:href="#rim" fill="#404040">
                                <set attributeName="fill" to="#808080" begin="zoomminus.mouseover" end="zoomminus.mouseout"/>
                        </use>
                        <path d="M-4,0h8" fill="none" stroke="white" stroke-width="1.5" pointer-events="none"/>
                </g>
                <g id="dirArrow">
                        <path fill="none" stroke="white" stroke-width="1.5" d="M0,-3.0v7 M-2.5,-0.5L0,-3.0L2.5,-0.5"/>
                </g>
               <g id="resetDef">
                       <use xlink:href="#rim2" fill="#404040">
                               <set attributeName="fill" to="#808080" begin="reset.mouseover" end="reset.mouseout"/>
                       </use>
               </g>
        </defs>

<script type="text/javascript">
var viewWidth = 1126;
var viewHeight = 306;
var sectionId = 'dynsection-0';
</script>
<script xlink:href="../../svgpan.js"/>
<svg id="graph" class="graph">
<g id="viewport">
<title>input.InputExecutor</title>
<polygon fill="white" stroke="none" points="-4,4 -4,-301.585 1122,-301.585 1122,4 -4,4"/>
<!-- Node1 -->
<g id="node1" class="node"><title>Node1</title>
<polygon fill="#bfbfbf" stroke="black" points="1008,-96.5 1008,-115.5 1118,-115.5 1118,-96.5 1008,-96.5"/>
<text text-anchor="middle" x="1063" y="-103.5" font-family="Helvetica,sans-Serif" font-size="10.00">input.InputExecutor</text>
</g>
<!-- Node2 -->
<g id="node2" class="node"><title>Node2</title>
<g id="a_node2"><a xlink:href="../../d6/d95/classparser_1_1_parser.html" target="_top" xlink:title="parser.Parser">
<polygon fill="white" stroke="black" points="852,-128.5 852,-147.5 932,-147.5 932,-128.5 852,-128.5"/>
<text text-anchor="middle" x="892" y="-135.5" font-family="Helvetica,sans-Serif" font-size="10.00">parser.Parser</text>
</a>
</g>
</g>
<!-- Node2&#45;&gt;Node1 -->
<g id="edge1" class="edge"><title>Node2&#45;&gt;Node1</title>
<path fill="none" stroke="#9a32cd" stroke-dasharray="5,2" d="M942.264,-128.672C964.122,-124.533 989.812,-119.669 1011.78,-115.509"/>
<polygon fill="#9a32cd" stroke="#9a32cd" points="941.371,-125.279 932.197,-130.578 942.673,-132.157 941.371,-125.279"/>
<text text-anchor="middle" x="973" y="-129" font-family="Helvetica,sans-Serif" font-size="10.00"> parser</text>
</g>
<!-- Node3 -->
<g id="node3" class="node"><title>Node3</title>
<polygon fill="white" stroke="#bfbfbf" points="581.5,-180.5 581.5,-199.5 674.5,-199.5 674.5,-180.5 581.5,-180.5"/>
<text text-anchor="middle" x="628" y="-187.5" font-family="Helvetica,sans-Serif" font-size="10.00">ResourceBundle</text>
</g>
<!-- Node3&#45;&gt;Node2 -->
<g id="edge2" class="edge"><title>Node3&#45;&gt;Node2</title>
<path fill="none" stroke="#9a32cd" stroke-dasharray="5,2" d="M684.768,-185.526C725.027,-181.483 780.444,-174.238 828,-162 842.169,-158.354 857.521,-152.546 869.523,-147.557"/>
<polygon fill="#9a32cd" stroke="#9a32cd" points="684.23,-182.062 674.615,-186.51 684.906,-189.029 684.23,-182.062"/>
<text text-anchor="middle" x="778" y="-184" font-family="Helvetica,sans-Serif" font-size="10.00"> ourLanguageBundle</text>
</g>
<!-- Node4 -->
<g id="node4" class="node"><title>Node4</title>
<g id="a_node4"><a xlink:href="../../d5/d0e/classparser_1_1_logo_parser.html" target="_top" xlink:title="parser.LogoParser">
<polygon fill="white" stroke="black" points="576.5,-142.5 576.5,-161.5 679.5,-161.5 679.5,-142.5 576.5,-142.5"/>
<text text-anchor="middle" x="628" y="-149.5" font-family="Helvetica,sans-Serif" font-size="10.00">parser.LogoParser</text>
</a>
</g>
</g>
<!-- Node4&#45;&gt;Node2 -->
<g id="edge3" class="edge"><title>Node4&#45;&gt;Node2</title>
<path fill="none" stroke="#9a32cd" stroke-dasharray="5,2" d="M689.541,-148.765C739.457,-146.098 808.802,-142.392 851.741,-140.098"/>
<polygon fill="#9a32cd" stroke="#9a32cd" points="689.315,-145.272 679.516,-149.301 689.689,-152.262 689.315,-145.272"/>
<text text-anchor="middle" x="778" y="-150" font-family="Helvetica,sans-Serif" font-size="10.00"> myLogoParser</text>
</g>
<!-- Node5 -->
<g id="node5" class="node"><title>Node5</title>
<g id="a_node5"><a xlink:href="../../de/db9/interfaceparser_1_1_logo_parser_constants.html" target="_top" xlink:title="parser.LogoParserConstants">
<polygon fill="white" stroke="black" points="0,-243.5 0,-262.5 152,-262.5 152,-243.5 0,-243.5"/>
<text text-anchor="middle" x="76" y="-250.5" font-family="Helvetica,sans-Serif" font-size="10.00">parser.LogoParserConstants</text>
</a>
</g>
</g>
<!-- Node5&#45;&gt;Node4 -->
<g id="edge4" class="edge"><title>Node5&#45;&gt;Node4</title>
<path fill="none" stroke="midnightblue" d="M115.838,-265.432C201.015,-290.061 406.32,-334.674 528,-237 551.711,-217.967 524.119,-192.111 546,-171 554.212,-163.077 565.069,-158.235 576.157,-155.326"/>
<polygon fill="midnightblue" stroke="midnightblue" points="116.642,-262.02 106.06,-262.538 114.656,-268.732 116.642,-262.02"/>
</g>
<!-- Node6 -->
<g id="node6" class="node"><title>Node6</title>
<g id="a_node6"><a xlink:href="../../d0/d8c/classparser_1_1_logo_parser_token_manager.html" target="_top" xlink:title="parser.LogoParserTokenManager">
<polygon fill="white" stroke="black" points="256,-212.5 256,-231.5 428,-231.5 428,-212.5 256,-212.5"/>
<text text-anchor="middle" x="342" y="-219.5" font-family="Helvetica,sans-Serif" font-size="10.00">parser.LogoParserTokenManager</text>
</a>
</g>
</g>
<!-- Node5&#45;&gt;Node6 -->
<g id="edge6" class="edge"><title>Node5&#45;&gt;Node6</title>
<path fill="none" stroke="midnightblue" d="M162.329,-242.98C193.694,-239.297 229.094,-235.14 260.061,-231.504"/>
<polygon fill="midnightblue" stroke="midnightblue" points="161.822,-239.516 152.298,-244.158 162.638,-246.468 161.822,-239.516"/>
</g>
<!-- Node6&#45;&gt;Node4 -->
<g id="edge5" class="edge"><title>Node6&#45;&gt;Node4</title>
<path fill="none" stroke="#9a32cd" stroke-dasharray="5,2" d="M438.25,-223.974C468.733,-220.858 501.435,-213.28 528,-197 539.983,-189.656 534.383,-178.911 546,-171 554.954,-164.903 565.614,-160.747 576.212,-157.919"/>
<polygon fill="#9a32cd" stroke="#9a32cd" points="437.668,-220.512 428.01,-224.866 438.276,-227.485 437.668,-220.512"/>
<text text-anchor="middle" x="487" y="-225" font-family="Helvetica,sans-Serif" font-size="10.00"> token_source</text>
</g>
<!-- Node7 -->
<g id="node7" class="node"><title>Node7</title>
<g id="a_node7"><a xlink:href="../../d4/dad/classparser_1_1_simple_char_stream.html" target="_top" xlink:title="parser.SimpleCharStream">
<polygon fill="white" stroke="black" points="5.5,-195.5 5.5,-214.5 146.5,-214.5 146.5,-195.5 5.5,-195.5"/>
<text text-anchor="middle" x="76" y="-202.5" font-family="Helvetica,sans-Serif" font-size="10.00">parser.SimpleCharStream</text>
</a>
</g>
</g>
<!-- Node7&#45;&gt;Node4 -->
<g id="edge8" class="edge"><title>Node7&#45;&gt;Node4</title>
<path fill="none" stroke="#9a32cd" stroke-dasharray="5,2" d="M156.796,-197.311C271.653,-186.243 480.291,-166.137 576.241,-156.891"/>
<polygon fill="#9a32cd" stroke="#9a32cd" points="156.276,-193.844 146.658,-198.288 156.948,-200.812 156.276,-193.844"/>
<text text-anchor="middle" x="342" y="-191" font-family="Helvetica,sans-Serif" font-size="10.00"> jj_input_stream</text>
</g>
<!-- Node7&#45;&gt;Node6 -->
<g id="edge7" class="edge"><title>Node7&#45;&gt;Node6</title>
<path fill="none" stroke="#9a32cd" stroke-dasharray="5,2" d="M156.697,-210.132C188.002,-212.148 223.99,-214.465 255.809,-216.514"/>
<polygon fill="#9a32cd" stroke="#9a32cd" points="156.912,-206.639 146.708,-209.489 156.463,-213.624 156.912,-206.639"/>
<text text-anchor="middle" x="204" y="-218" font-family="Helvetica,sans-Serif" font-size="10.00"> input_stream</text>
</g>
<!-- Node8 -->
<g id="node8" class="node"><title>Node8</title>
<g id="a_node8"><a xlink:href="../../db/df3/classparser_1_1_token.html" target="_top" xlink:title="parser.Token">
<polygon fill="white" stroke="black" points="303.5,-87.5 303.5,-106.5 380.5,-106.5 380.5,-87.5 303.5,-87.5"/>
<text text-anchor="middle" x="342" y="-94.5" font-family="Helvetica,sans-Serif" font-size="10.00">parser.Token</text>
</a>
</g>
</g>
<!-- Node8&#45;&gt;Node4 -->
<g id="edge9" class="edge"><title>Node8&#45;&gt;Node4</title>
<path fill="none" stroke="#9a32cd" stroke-dasharray="5,2" d="M390.664,-106.231C442.555,-116.28 525.137,-132.273 577.673,-142.447"/>
<polygon fill="#9a32cd" stroke="#9a32cd" points="391.196,-102.769 380.713,-104.304 389.865,-109.641 391.196,-102.769"/>
<text text-anchor="middle" x="487" y="-147" font-family="Helvetica,sans-Serif" font-size="10.00"> token</text>
<text text-anchor="middle" x="487" y="-136" font-family="Helvetica,sans-Serif" font-size="10.00">jj_nt</text>
</g>
<!-- Node8&#45;&gt;Node8 -->
<g id="edge11" class="edge"><title>Node8&#45;&gt;Node8</title>
<path fill="none" stroke="#9a32cd" stroke-dasharray="5,2" d="M316.33,-116.029C317.731,-121.128 326.287,-125 342,-125 366.527,-125 373.617,-115.565 363.27,-106.757"/>
<polygon fill="#9a32cd" stroke="#9a32cd" points="319.605,-117.292 320.73,-106.757 313.281,-114.291 319.605,-117.292"/>
<text text-anchor="middle" x="342" y="-139" font-family="Helvetica,sans-Serif" font-size="10.00"> next</text>
<text text-anchor="middle" x="342" y="-128" font-family="Helvetica,sans-Serif" font-size="10.00">specialToken</text>
</g>
<!-- Node9 -->
<g id="node9" class="node"><title>Node9</title>
<polygon fill="white" stroke="#bfbfbf" points="20.5,-87.5 20.5,-106.5 131.5,-106.5 131.5,-87.5 20.5,-87.5"/>
<text text-anchor="middle" x="76" y="-94.5" font-family="Helvetica,sans-Serif" font-size="10.00">java::io::Serializable</text>
</g>
<!-- Node9&#45;&gt;Node8 -->
<g id="edge10" class="edge"><title>Node9&#45;&gt;Node8</title>
<path fill="none" stroke="midnightblue" d="M141.916,-97C192.65,-97 261.392,-97 303.394,-97"/>
<polygon fill="midnightblue" stroke="midnightblue" points="141.701,-93.5001 131.701,-97 141.701,-100.5 141.701,-93.5001"/>
</g>
<!-- Node10 -->
<g id="node10" class="node"><title>Node10</title>
<polygon fill="white" stroke="#bfbfbf" points="306,-49.5 306,-68.5 378,-68.5 378,-49.5 306,-49.5"/>
<text text-anchor="middle" x="342" y="-56.5" font-family="Helvetica,sans-Serif" font-size="10.00">List&lt; int[]&gt;</text>
</g>
<!-- Node10&#45;&gt;Node4 -->
<g id="edge12" class="edge"><title>Node10&#45;&gt;Node4</title>
<path fill="none" stroke="#9a32cd" stroke-dasharray="5,2" d="M388.226,-68.8886C401.093,-71.7618 415.112,-74.9491 428,-78 472.58,-88.5533 485.001,-87.1926 528,-103 558.06,-114.051 591.031,-131.536 610.322,-142.358"/>
<polygon fill="#9a32cd" stroke="#9a32cd" points="388.718,-65.4127 378.197,-66.6602 387.2,-72.246 388.718,-65.4127"/>
<text text-anchor="middle" x="487" y="-106" font-family="Helvetica,sans-Serif" font-size="10.00"> jj_expentries</text>
</g>
<!-- Node11 -->
<g id="node11" class="node"><title>Node11</title>
<g id="a_node11"><a xlink:href="../../d0/d4e/classcommands_1_1_commands_factory.html" target="_top" xlink:title="commands.CommandsFactory">
<polygon fill="white" stroke="black" points="546,-75.5 546,-94.5 710,-94.5 710,-75.5 546,-75.5"/>
<text text-anchor="middle" x="628" y="-82.5" font-family="Helvetica,sans-Serif" font-size="10.00">commands.CommandsFactory</text>
</a>
</g>
</g>
<!-- Node11&#45;&gt;Node1 -->
<g id="edge15" class="edge"><title>Node11&#45;&gt;Node1</title>
<path fill="none" stroke="#9a32cd" stroke-dasharray="5,2" d="M720.342,-89.43C807.498,-93.6569 935.869,-99.8828 1007.89,-103.376"/>
<polygon fill="#9a32cd" stroke="#9a32cd" points="720.348,-85.9262 710.19,-88.9376 720.009,-92.918 720.348,-85.9262"/>
<text text-anchor="middle" x="892" y="-103" font-family="Helvetica,sans-Serif" font-size="10.00"> commandsFactory</text>
</g>
<!-- Node11&#45;&gt;Node2 -->
<g id="edge13" class="edge"><title>Node11&#45;&gt;Node2</title>
<path fill="none" stroke="#9a32cd" stroke-dasharray="5,2" d="M686.195,-96.5699C736.385,-106.723 808.03,-121.216 851.921,-130.095"/>
<polygon fill="#9a32cd" stroke="#9a32cd" points="686.638,-93.0889 676.143,-94.5365 685.25,-99.9499 686.638,-93.0889"/>
<text text-anchor="middle" x="778" y="-129" font-family="Helvetica,sans-Serif" font-size="10.00"> commandsFactory</text>
</g>
<!-- Node12 -->
<g id="node12" class="node"><title>Node12</title>
<g id="a_node12"><a xlink:href="../../d1/d2a/class_movement_and_image_a_p_i_1_1src_1_1_general_turtle_handler.html" target="_top" xlink:title="MovementAndImageAPI.src.\lGeneralTurtleHandler">
<polygon fill="white" stroke="black" points="266,-0 266,-30 418,-30 418,-0 266,-0"/>
<text text-anchor="start" x="274" y="-18" font-family="Helvetica,sans-Serif" font-size="10.00">MovementAndImageAPI.src.</text>
<text text-anchor="middle" x="342" y="-7" font-family="Helvetica,sans-Serif" font-size="10.00">GeneralTurtleHandler</text>
</a>
</g>
</g>
<!-- Node12&#45;&gt;Node11 -->
<g id="edge14" class="edge"><title>Node12&#45;&gt;Node11</title>
<path fill="none" stroke="#9a32cd" stroke-dasharray="5,2" d="M428.436,-11.6536C460.283,-12.5824 496.365,-16.2692 528,-26 562.423,-36.5886 597.383,-61.4557 615.106,-75.2873"/>
<polygon fill="#9a32cd" stroke="#9a32cd" points="428.325,-8.15069 418.255,-11.4448 428.181,-15.1492 428.325,-8.15069"/>
<text text-anchor="middle" x="487" y="-29" font-family="Helvetica,sans-Serif" font-size="10.00"> myTurtleHandler</text>
</g>
</g>
</svg>
        <g id="navigator" transform="translate(0 0)" fill="#404254">
                <rect fill="#f2f5e9" fill-opacity="0.5" stroke="#606060" stroke-width=".5" x="0" y="0" width="60" height="60"/>
                <use id="zoomplus" xlink:href="#zoomPlus" x="17" y="9" onmousedown="handleZoom(evt,'in')"/>
                <use id="zoomminus" xlink:href="#zoomMin" x="42" y="9" onmousedown="handleZoom(evt,'out')"/>
                <use id="reset" xlink:href="#resetDef" x="30" y="36" onmousedown="handleReset()"/>
                <g id="arrowUp" xlink:href="#dirArrow" transform="translate(30 24)" onmousedown="handlePan(0,-1)">
                  <use xlink:href="#rim" fill="#404040">
                        <set attributeName="fill" to="#808080" begin="arrowUp.mouseover" end="arrowUp.mouseout"/>
                  </use>
                  <path fill="none" stroke="white" stroke-width="1.5" d="M0,-3.0v7 M-2.5,-0.5L0,-3.0L2.5,-0.5"/>
                </g>
                <g id="arrowRight" xlink:href="#dirArrow" transform="rotate(90) translate(36 -43)" onmousedown="handlePan(1,0)">
                  <use xlink:href="#rim" fill="#404040">
                        <set attributeName="fill" to="#808080" begin="arrowRight.mouseover" end="arrowRight.mouseout"/>
                  </use>
                  <path fill="none" stroke="white" stroke-width="1.5" d="M0,-3.0v7 M-2.5,-0.5L0,-3.0L2.5,-0.5"/>
                </g>
                <g id="arrowDown" xlink:href="#dirArrow" transform="rotate(180) translate(-30 -48)" onmousedown="handlePan(0,1)">
                  <use xlink:href="#rim" fill="#404040">
                        <set attributeName="fill" to="#808080" begin="arrowDown.mouseover" end="arrowDown.mouseout"/>
                  </use>
                  <path fill="none" stroke="white" stroke-width="1.5" d="M0,-3.0v7 M-2.5,-0.5L0,-3.0L2.5,-0.5"/>
                </g>
                <g id="arrowLeft" xlink:href="#dirArrow" transform="rotate(270) translate(-36 17)" onmousedown="handlePan(-1,0)">
                  <use xlink:href="#rim" fill="#404040">
                        <set attributeName="fill" to="#808080" begin="arrowLeft.mouseover" end="arrowLeft.mouseout"/>
                  </use>
                  <path fill="none" stroke="white" stroke-width="1.5" d="M0,-3.0v7 M-2.5,-0.5L0,-3.0L2.5,-0.5"/>
                </g>
        </g>
        <svg viewBox="0 0 15 15" width="100%" height="30px" preserveAspectRatio="xMaxYMin meet">
         <g id="arrow_out" transform="scale(0.3 0.3)">
          <a xlink:href="classinput_1_1_input_executor__coll__graph_org.svg" target="_base">
           <rect id="button" ry="5" rx="5" y="6" x="6" height="38" width="38"
                fill="#f2f5e9" fill-opacity="0.5" stroke="#606060" stroke-width="1.0"/>
           <path id="arrow"
             d="M 11.500037,31.436501 C 11.940474,20.09759 22.043105,11.32322 32.158766,21.979434 L 37.068811,17.246167 C 37.068811,17.246167 37.088388,32 37.088388,32 L 22.160133,31.978069 C 22.160133,31.978069 26.997745,27.140456 26.997745,27.140456 C 18.528582,18.264221 13.291696,25.230495 11.500037,31.436501 z"
             style="fill:#404040;"/>
          </a>
         </g>
        </svg>
</svg>
