<?xml version="1.0" encoding="UTF-8" standalone="no"?>
<!DOCTYPE svg PUBLIC "-//W3C//DTD SVG 1.1//EN"
 "http://www.w3.org/Graphics/SVG/1.1/DTD/svg11.dtd">
<!-- Generated by graphviz version 2.36.0 (20140111.2315)
 -->
<!-- Title: MovementAndImageAPI.src.PenHandler.setPenColor Pages: 1 -->
<svg width="842pt" height="38pt"
 viewBox="0.00 0.00 842.00 38.00" xmlns="http://www.w3.org/2000/svg" xmlns:xlink="http://www.w3.org/1999/xlink">
<g id="graph0" class="graph" transform="scale(1 1) rotate(0) translate(4 34)">
<title>MovementAndImageAPI.src.PenHandler.setPenColor</title>
<polygon fill="white" stroke="none" points="-4,4 -4,-34 838,-34 838,4 -4,4"/>
<!-- Node1 -->
<g id="node1" class="node"><title>Node1</title>
<polygon fill="#bfbfbf" stroke="black" points="0,-0 0,-30 152,-30 152,-0 0,-0"/>
<text text-anchor="start" x="8" y="-18" font-family="Helvetica,sans-Serif" font-size="10.00">MovementAndImageAPI.src.</text>
<text text-anchor="middle" x="76" y="-7" font-family="Helvetica,sans-Serif" font-size="10.00">PenHandler.setPenColor</text>
</g>
<!-- Node2 -->
<g id="node2" class="node"><title>Node2</title>
<g id="a_node2"><a xlink:href="../../d8/d32/class_color_feature.html#ade298bbd8bdf3236d947e0e52eeeb095" target="_top" xlink:title="ColorFeature.changePenColor">
<polygon fill="white" stroke="black" points="188,-5.5 188,-24.5 346,-24.5 346,-5.5 188,-5.5"/>
<text text-anchor="middle" x="267" y="-12.5" font-family="Helvetica,sans-Serif" font-size="10.00">ColorFeature.changePenColor</text>
</a>
</g>
</g>
<!-- Node1&#45;&gt;Node2 -->
<g id="edge1" class="edge"><title>Node1&#45;&gt;Node2</title>
<path fill="none" stroke="midnightblue" d="M162.503,-15C170.97,-15 179.535,-15 187.922,-15"/>
<polygon fill="midnightblue" stroke="midnightblue" points="162.241,-11.5001 152.241,-15 162.241,-18.5001 162.241,-11.5001"/>
</g>
<!-- Node3 -->
<g id="node3" class="node"><title>Node3</title>
<g id="a_node3"><a xlink:href="../../d5/d56/class_workspace.html#a6babd032d9af86fbc23812272d59a2d2" target="_top" xlink:title="Workspace.addFeatureButtons">
<polygon fill="white" stroke="black" points="382,-5.5 382,-24.5 544,-24.5 544,-5.5 382,-5.5"/>
<text text-anchor="middle" x="463" y="-12.5" font-family="Helvetica,sans-Serif" font-size="10.00">Workspace.addFeatureButtons</text>
</a>
</g>
</g>
<!-- Node2&#45;&gt;Node3 -->
<g id="edge2" class="edge"><title>Node2&#45;&gt;Node3</title>
<path fill="none" stroke="midnightblue" d="M356.094,-15C364.685,-15 373.37,-15 381.876,-15"/>
<polygon fill="midnightblue" stroke="midnightblue" points="356.069,-11.5001 346.069,-15 356.069,-18.5001 356.069,-11.5001"/>
</g>
<!-- Node4 -->
<g id="node4" class="node"><title>Node4</title>
<g id="a_node4"><a xlink:href="../../d5/d56/class_workspace.html#a429d535dfd8427637b7715f0b1e1df1b" target="_top" xlink:title="Workspace.createWorkspace">
<polygon fill="white" stroke="black" points="580,-5.5 580,-24.5 732,-24.5 732,-5.5 580,-5.5"/>
<text text-anchor="middle" x="656" y="-12.5" font-family="Helvetica,sans-Serif" font-size="10.00">Workspace.createWorkspace</text>
</a>
</g>
</g>
<!-- Node3&#45;&gt;Node4 -->
<g id="edge3" class="edge"><title>Node3&#45;&gt;Node4</title>
<path fill="none" stroke="midnightblue" d="M554.223,-15C562.822,-15 571.479,-15 579.912,-15"/>
<polygon fill="midnightblue" stroke="midnightblue" points="554.171,-11.5001 544.171,-15 554.171,-18.5001 554.171,-11.5001"/>
</g>
<!-- Node5 -->
<g id="node5" class="node"><title>Node5</title>
<g id="a_node5"><a xlink:href="../../d0/d4b/class_main.html#aaa75b38812324d0f17c89f139bde6ada" target="_top" xlink:title="Main.start">
<polygon fill="white" stroke="black" points="768.5,-5.5 768.5,-24.5 833.5,-24.5 833.5,-5.5 768.5,-5.5"/>
<text text-anchor="middle" x="801" y="-12.5" font-family="Helvetica,sans-Serif" font-size="10.00">Main.start</text>
</a>
</g>
</g>
<!-- Node4&#45;&gt;Node5 -->
<g id="edge4" class="edge"><title>Node4&#45;&gt;Node5</title>
<path fill="none" stroke="midnightblue" d="M742.392,-15C751.632,-15 760.551,-15 768.498,-15"/>
<polygon fill="midnightblue" stroke="midnightblue" points="742.269,-11.5001 732.269,-15 742.269,-18.5001 742.269,-11.5001"/>
</g>
</g>
</svg>
