<?xml version="1.0" encoding="UTF-8" standalone="no"?>
<!DOCTYPE svg PUBLIC "-//W3C//DTD SVG 1.1//EN"
 "http://www.w3.org/Graphics/SVG/1.1/DTD/svg11.dtd">
<!-- Generated by graphviz version 2.36.0 (20140111.2315)
 -->
<!-- Title: parser.LogoParserTokenManager Pages: 1 -->
<svg width="319pt" height="96pt"
 viewBox="0.00 0.00 319.00 96.00" xmlns="http://www.w3.org/2000/svg" xmlns:xlink="http://www.w3.org/1999/xlink">
<g id="graph0" class="graph" transform="scale(1 1) rotate(0) translate(4 92)">
<title>parser.LogoParserTokenManager</title>
<polygon fill="white" stroke="none" points="-4,4 -4,-92 315,-92 315,4 -4,4"/>
<!-- Node1 -->
<g id="node1" class="node"><title>Node1</title>
<polygon fill="#bfbfbf" stroke="black" points="72,-0.5 72,-19.5 244,-19.5 244,-0.5 72,-0.5"/>
<text text-anchor="middle" x="158" y="-7.5" font-family="Helvetica,sans-Serif" font-size="10.00">parser.LogoParserTokenManager</text>
</g>
<!-- Node2 -->
<g id="node2" class="node"><title>Node2</title>
<g id="a_node2"><a xlink:href="../../de/db9/interfaceparser_1_1_logo_parser_constants.html" target="_top" xlink:title="parser.LogoParserConstants">
<polygon fill="white" stroke="black" points="0,-68.5 0,-87.5 152,-87.5 152,-68.5 0,-68.5"/>
<text text-anchor="middle" x="76" y="-75.5" font-family="Helvetica,sans-Serif" font-size="10.00">parser.LogoParserConstants</text>
</a>
</g>
</g>
<!-- Node2&#45;&gt;Node1 -->
<g id="edge1" class="edge"><title>Node2&#45;&gt;Node1</title>
<path fill="none" stroke="midnightblue" d="M94.517,-62.0961C110.786,-49.0012 133.894,-30.4028 147.277,-19.6305"/>
<polygon fill="midnightblue" stroke="midnightblue" points="92.3157,-59.375 86.7201,-68.3717 96.7048,-64.8281 92.3157,-59.375"/>
</g>
<!-- Node3 -->
<g id="node3" class="node"><title>Node3</title>
<g id="a_node3"><a xlink:href="../../d4/dad/classparser_1_1_simple_char_stream.html" target="_top" xlink:title="parser.SimpleCharStream">
<polygon fill="white" stroke="black" points="170.5,-68.5 170.5,-87.5 311.5,-87.5 311.5,-68.5 170.5,-68.5"/>
<text text-anchor="middle" x="241" y="-75.5" font-family="Helvetica,sans-Serif" font-size="10.00">parser.SimpleCharStream</text>
</a>
</g>
</g>
<!-- Node3&#45;&gt;Node1 -->
<g id="edge2" class="edge"><title>Node3&#45;&gt;Node1</title>
<path fill="none" stroke="#9a32cd" stroke-dasharray="5,2" d="M222.257,-62.0961C205.789,-49.0012 182.4,-30.4028 168.853,-19.6305"/>
<polygon fill="#9a32cd" stroke="#9a32cd" points="220.144,-64.8872 230.149,-68.3717 224.501,-59.4082 220.144,-64.8872"/>
<text text-anchor="middle" x="240.5" y="-41.5" font-family="Helvetica,sans-Serif" font-size="10.00"> input_stream</text>
</g>
</g>
</svg>
