<?xml version="1.0" encoding="UTF-8" standalone="no"?>
<!DOCTYPE svg PUBLIC "-//W3C//DTD SVG 1.1//EN"
 "http://www.w3.org/Graphics/SVG/1.1/DTD/svg11.dtd">
<!-- Generated by graphviz version 2.36.0 (20140111.2315)
 -->
<!-- Title: MovementAndImageAPI.src.Pen.setPenPosition Pages: 1 -->
<svg width="724pt" height="38pt"
 viewBox="0.00 0.00 724.00 38.00" xmlns="http://www.w3.org/2000/svg" xmlns:xlink="http://www.w3.org/1999/xlink">
<g id="graph0" class="graph" transform="scale(1 1) rotate(0) translate(4 34)">
<title>MovementAndImageAPI.src.Pen.setPenPosition</title>
<polygon fill="white" stroke="none" points="-4,4 -4,-34 720,-34 720,4 -4,4"/>
<!-- Node1 -->
<g id="node1" class="node"><title>Node1</title>
<polygon fill="#bfbfbf" stroke="black" points="0,-0 0,-30 152,-30 152,-0 0,-0"/>
<text text-anchor="start" x="8" y="-18" font-family="Helvetica,sans-Serif" font-size="10.00">MovementAndImageAPI.src.</text>
<text text-anchor="middle" x="76" y="-7" font-family="Helvetica,sans-Serif" font-size="10.00">Pen.setPenPosition</text>
</g>
<!-- Node2 -->
<g id="node2" class="node"><title>Node2</title>
<g id="a_node2"><a xlink:href="../../da/d8f/class_movement_and_image_a_p_i_1_1src_1_1_pen_handler.html#a96de7ab426d3bbca78ca017bf6861f83" target="_top" xlink:title="MovementAndImageAPI.src.\lPenHandler.setPenPosition">
<polygon fill="white" stroke="black" points="188,-0 188,-30 340,-30 340,-0 188,-0"/>
<text text-anchor="start" x="196" y="-18" font-family="Helvetica,sans-Serif" font-size="10.00">MovementAndImageAPI.src.</text>
<text text-anchor="middle" x="264" y="-7" font-family="Helvetica,sans-Serif" font-size="10.00">PenHandler.setPenPosition</text>
</a>
</g>
</g>
<!-- Node1&#45;&gt;Node2 -->
<g id="edge1" class="edge"><title>Node1&#45;&gt;Node2</title>
<path fill="none" stroke="midnightblue" d="M162.147,-15C170.742,-15 179.426,-15 187.905,-15"/>
<polygon fill="midnightblue" stroke="midnightblue" points="162.117,-11.5001 152.117,-15 162.117,-18.5001 162.117,-11.5001"/>
</g>
<!-- Node3 -->
<g id="node3" class="node"><title>Node3</title>
<g id="a_node3"><a xlink:href="../../d7/d43/class_movement_and_image_a_p_i_1_1src_1_1_turtle.html#ab542160b67fc87d8096ed22d4face6e0" target="_top" xlink:title="MovementAndImageAPI.src.\lTurtle.setPenPosition">
<polygon fill="white" stroke="black" points="376,-0 376,-30 528,-30 528,-0 376,-0"/>
<text text-anchor="start" x="384" y="-18" font-family="Helvetica,sans-Serif" font-size="10.00">MovementAndImageAPI.src.</text>
<text text-anchor="middle" x="452" y="-7" font-family="Helvetica,sans-Serif" font-size="10.00">Turtle.setPenPosition</text>
</a>
</g>
</g>
<!-- Node2&#45;&gt;Node3 -->
<g id="edge2" class="edge"><title>Node2&#45;&gt;Node3</title>
<path fill="none" stroke="midnightblue" d="M350.147,-15C358.742,-15 367.426,-15 375.905,-15"/>
<polygon fill="midnightblue" stroke="midnightblue" points="350.117,-11.5001 340.117,-15 350.117,-18.5001 350.117,-11.5001"/>
</g>
<!-- Node4 -->
<g id="node4" class="node"><title>Node4</title>
<g id="a_node4"><a xlink:href="../../d4/d0f/class_movement_and_image_a_p_i_1_1src_1_1_turtle_handler.html#a367e526305f149a48544bc1da0a1900b" target="_top" xlink:title="MovementAndImageAPI.src.\lTurtleHandler.setPenPosition">
<polygon fill="white" stroke="black" points="564,-0 564,-30 716,-30 716,-0 564,-0"/>
<text text-anchor="start" x="572" y="-18" font-family="Helvetica,sans-Serif" font-size="10.00">MovementAndImageAPI.src.</text>
<text text-anchor="middle" x="640" y="-7" font-family="Helvetica,sans-Serif" font-size="10.00">TurtleHandler.setPenPosition</text>
</a>
</g>
</g>
<!-- Node3&#45;&gt;Node4 -->
<g id="edge3" class="edge"><title>Node3&#45;&gt;Node4</title>
<path fill="none" stroke="midnightblue" d="M538.147,-15C546.742,-15 555.426,-15 563.905,-15"/>
<polygon fill="midnightblue" stroke="midnightblue" points="538.117,-11.5001 528.117,-15 538.117,-18.5001 538.117,-11.5001"/>
</g>
</g>
</svg>
