<?xml version="1.0" encoding="UTF-8" standalone="no"?>
<!DOCTYPE svg PUBLIC "-//W3C//DTD SVG 1.1//EN"
 "http://www.w3.org/Graphics/SVG/1.1/DTD/svg11.dtd">
<!-- Generated by graphviz version 2.36.0 (20140111.2315)
 -->
<!-- Title: MovementAndImageAPI.src.Pen.getLineWidth Pages: 1 -->
<!--zoomable 97 -->
<svg id="main" version="1.1" xmlns="http://www.w3.org/2000/svg" xmlns:xlink="http://www.w3.org/1999/xlink" xml:space="preserve" onload="init(evt)">
<style type="text/css"><![CDATA[
.edge:hover path { stroke: red; }
.edge:hover polygon { stroke: red; fill: red; }
]]></style>
<script type="text/javascript"><![CDATA[
var edges = document.getElementsByTagName('g');
if (edges && edges.length) {
  for (var i=0;i<edges.length;i++) {
    if (edges[i].id.substr(0,4)=='edge') {
      edges[i].setAttribute('class','edge');
    }
  }
}
]]></script>
        <defs>
                <circle id="rim" cx="0" cy="0" r="7"/>
                <circle id="rim2" cx="0" cy="0" r="3.5"/>
                <g id="zoomPlus">
                        <use xlink:href="#rim" fill="#404040">
                                <set attributeName="fill" to="#808080" begin="zoomplus.mouseover" end="zoomplus.mouseout"/>
                        </use>
                        <path d="M-4,0h8M0,-4v8" fill="none" stroke="white" stroke-width="1.5" pointer-events="none"/>
                </g>
                <g id="zoomMin">
                        <use xlink:href="#rim" fill="#404040">
                                <set attributeName="fill" to="#808080" begin="zoomminus.mouseover" end="zoomminus.mouseout"/>
                        </use>
                        <path d="M-4,0h8" fill="none" stroke="white" stroke-width="1.5" pointer-events="none"/>
                </g>
                <g id="dirArrow">
                        <path fill="none" stroke="white" stroke-width="1.5" d="M0,-3.0v7 M-2.5,-0.5L0,-3.0L2.5,-0.5"/>
                </g>
               <g id="resetDef">
                       <use xlink:href="#rim2" fill="#404040">
                               <set attributeName="fill" to="#808080" begin="reset.mouseover" end="reset.mouseout"/>
                       </use>
               </g>
        </defs>

<script type="text/javascript">
var viewWidth = 1222;
var viewHeight = 97;
var sectionId = 'dynsection-1';
</script>
<script xlink:href="../../svgpan.js"/>
<svg id="graph" class="graph">
<g id="viewport">
<title>MovementAndImageAPI.src.Pen.getLineWidth</title>
<polygon fill="white" stroke="none" points="-4,4 -4,-93 1218,-93 1218,4 -4,4"/>
<!-- Node1 -->
<g id="node1" class="node"><title>Node1</title>
<polygon fill="#bfbfbf" stroke="black" points="0,-32 0,-62 152,-62 152,-32 0,-32"/>
<text text-anchor="start" x="8" y="-50" font-family="Helvetica,sans-Serif" font-size="10.00">MovementAndImageAPI.src.</text>
<text text-anchor="middle" x="76" y="-39" font-family="Helvetica,sans-Serif" font-size="10.00">Pen.getLineWidth</text>
</g>
<!-- Node2 -->
<g id="node2" class="node"><title>Node2</title>
<g id="a_node2"><a xlink:href="../../da/d8f/class_movement_and_image_a_p_i_1_1src_1_1_pen_handler.html#ab73c37fd9bab639a2253b5a5817387a9" target="_top" xlink:title="MovementAndImageAPI.src.\lPenHandler.getLineWidth">
<polygon fill="white" stroke="black" points="188,-32 188,-62 340,-62 340,-32 188,-32"/>
<text text-anchor="start" x="196" y="-50" font-family="Helvetica,sans-Serif" font-size="10.00">MovementAndImageAPI.src.</text>
<text text-anchor="middle" x="264" y="-39" font-family="Helvetica,sans-Serif" font-size="10.00">PenHandler.getLineWidth</text>
</a>
</g>
</g>
<!-- Node1&#45;&gt;Node2 -->
<g id="edge1" class="edge"><title>Node1&#45;&gt;Node2</title>
<path fill="none" stroke="midnightblue" d="M162.147,-47C170.742,-47 179.426,-47 187.905,-47"/>
<polygon fill="midnightblue" stroke="midnightblue" points="162.117,-43.5001 152.117,-47 162.117,-50.5001 162.117,-43.5001"/>
</g>
<!-- Node3 -->
<g id="node3" class="node"><title>Node3</title>
<g id="a_node3"><a xlink:href="../../da/d31/class_movement_and_image_a_p_i_1_1src_1_1_image_updater.html#a194a73bcc0c675e5d7d9182847805455" target="_top" xlink:title="MovementAndImageAPI.src.\lImageUpdater.drawLine">
<polygon fill="white" stroke="black" points="376,-32 376,-62 528,-62 528,-32 376,-32"/>
<text text-anchor="start" x="384" y="-50" font-family="Helvetica,sans-Serif" font-size="10.00">MovementAndImageAPI.src.</text>
<text text-anchor="middle" x="452" y="-39" font-family="Helvetica,sans-Serif" font-size="10.00">ImageUpdater.drawLine</text>
</a>
</g>
</g>
<!-- Node2&#45;&gt;Node3 -->
<g id="edge2" class="edge"><title>Node2&#45;&gt;Node3</title>
<path fill="none" stroke="midnightblue" d="M350.147,-47C358.742,-47 367.426,-47 375.905,-47"/>
<polygon fill="midnightblue" stroke="midnightblue" points="350.117,-43.5001 340.117,-47 350.117,-50.5001 350.117,-43.5001"/>
</g>
<!-- Node4 -->
<g id="node4" class="node"><title>Node4</title>
<g id="a_node4"><a xlink:href="../../d4/d0f/class_movement_and_image_a_p_i_1_1src_1_1_turtle_handler.html#adf01534451c018bc6b767aa8d42689bb" target="_top" xlink:title="MovementAndImageAPI.src.\lTurtleHandler.moveAndDraw">
<polygon fill="white" stroke="black" points="564,-32 564,-62 716,-62 716,-32 564,-32"/>
<text text-anchor="start" x="572" y="-50" font-family="Helvetica,sans-Serif" font-size="10.00">MovementAndImageAPI.src.</text>
<text text-anchor="middle" x="640" y="-39" font-family="Helvetica,sans-Serif" font-size="10.00">TurtleHandler.moveAndDraw</text>
</a>
</g>
</g>
<!-- Node3&#45;&gt;Node4 -->
<g id="edge3" class="edge"><title>Node3&#45;&gt;Node4</title>
<path fill="none" stroke="midnightblue" d="M538.147,-47C546.742,-47 555.426,-47 563.905,-47"/>
<polygon fill="midnightblue" stroke="midnightblue" points="538.117,-43.5001 528.117,-47 538.117,-50.5001 538.117,-43.5001"/>
</g>
<!-- Node5 -->
<g id="node5" class="node"><title>Node5</title>
<g id="a_node5"><a xlink:href="../../d4/d0f/class_movement_and_image_a_p_i_1_1src_1_1_turtle_handler.html#a47aab93cef3fa6ddcebacd40db48090b" target="_top" xlink:title="MovementAndImageAPI.src.\lTurtleHandler.updateTurtleLocation">
<polygon fill="white" stroke="black" points="753,-59 753,-89 935,-89 935,-59 753,-59"/>
<text text-anchor="start" x="761" y="-77" font-family="Helvetica,sans-Serif" font-size="10.00">MovementAndImageAPI.src.</text>
<text text-anchor="middle" x="844" y="-66" font-family="Helvetica,sans-Serif" font-size="10.00">TurtleHandler.updateTurtleLocation</text>
</a>
</g>
</g>
<!-- Node4&#45;&gt;Node5 -->
<g id="edge4" class="edge"><title>Node4&#45;&gt;Node5</title>
<path fill="none" stroke="midnightblue" d="M726.355,-58.4088C735.066,-59.5732 743.937,-60.7589 752.699,-61.9301"/>
<polygon fill="midnightblue" stroke="midnightblue" points="726.593,-54.9096 716.217,-57.0538 725.665,-61.8479 726.593,-54.9096"/>
</g>
<!-- Node8 -->
<g id="node8" class="node"><title>Node8</title>
<g id="a_node8"><a xlink:href="../../d4/d0f/class_movement_and_image_a_p_i_1_1src_1_1_turtle_handler.html#a508472221e2ec6de1f1fae9b04a661c4" target="_top" xlink:title="MovementAndImageAPI.src.\lTurtleHandler.updateTurtleAbsolute\lLocation">
<polygon fill="white" stroke="black" points="752.5,0.5 752.5,-40.5 935.5,-40.5 935.5,0.5 752.5,0.5"/>
<text text-anchor="start" x="760.5" y="-28.5" font-family="Helvetica,sans-Serif" font-size="10.00">MovementAndImageAPI.src.</text>
<text text-anchor="start" x="760.5" y="-17.5" font-family="Helvetica,sans-Serif" font-size="10.00">TurtleHandler.updateTurtleAbsolute</text>
<text text-anchor="middle" x="844" y="-6.5" font-family="Helvetica,sans-Serif" font-size="10.00">Location</text>
</a>
</g>
</g>
<!-- Node4&#45;&gt;Node8 -->
<g id="edge7" class="edge"><title>Node4&#45;&gt;Node8</title>
<path fill="none" stroke="midnightblue" d="M726.258,-35.6041C734.887,-34.4508 743.672,-33.2765 752.354,-32.116"/>
<polygon fill="midnightblue" stroke="midnightblue" points="725.665,-32.1521 716.217,-36.9462 726.593,-39.0904 725.665,-32.1521"/>
</g>
<!-- Node6 -->
<g id="node6" class="node"><title>Node6</title>
<g id="a_node6"><a xlink:href="../../d0/d4b/class_main.html#a9aab0955c478f8846fae079b0c56e8d3" target="_top" xlink:title="Main.addKeyboardControl">
<polygon fill="white" stroke="black" points="972.5,-64.5 972.5,-83.5 1111.5,-83.5 1111.5,-64.5 972.5,-64.5"/>
<text text-anchor="middle" x="1042" y="-71.5" font-family="Helvetica,sans-Serif" font-size="10.00">Main.addKeyboardControl</text>
</a>
</g>
</g>
<!-- Node5&#45;&gt;Node6 -->
<g id="edge5" class="edge"><title>Node5&#45;&gt;Node6</title>
<path fill="none" stroke="midnightblue" d="M945.496,-74C954.57,-74 963.616,-74 972.322,-74"/>
<polygon fill="midnightblue" stroke="midnightblue" points="945.255,-70.5001 935.255,-74 945.255,-77.5001 945.255,-70.5001"/>
</g>
<!-- Node7 -->
<g id="node7" class="node"><title>Node7</title>
<g id="a_node7"><a xlink:href="../../d0/d4b/class_main.html#aaa75b38812324d0f17c89f139bde6ada" target="_top" xlink:title="Main.start">
<polygon fill="white" stroke="black" points="1148.5,-64.5 1148.5,-83.5 1213.5,-83.5 1213.5,-64.5 1148.5,-64.5"/>
<text text-anchor="middle" x="1181" y="-71.5" font-family="Helvetica,sans-Serif" font-size="10.00">Main.start</text>
</a>
</g>
</g>
<!-- Node6&#45;&gt;Node7 -->
<g id="edge6" class="edge"><title>Node6&#45;&gt;Node7</title>
<path fill="none" stroke="midnightblue" d="M1122.06,-74C1131.35,-74 1140.38,-74 1148.44,-74"/>
<polygon fill="midnightblue" stroke="midnightblue" points="1121.9,-70.5001 1111.9,-74 1121.9,-77.5001 1121.9,-70.5001"/>
</g>
</g>
</svg>
        <g id="navigator" transform="translate(0 0)" fill="#404254">
                <rect fill="#f2f5e9" fill-opacity="0.5" stroke="#606060" stroke-width=".5" x="0" y="0" width="60" height="60"/>
                <use id="zoomplus" xlink:href="#zoomPlus" x="17" y="9" onmousedown="handleZoom(evt,'in')"/>
                <use id="zoomminus" xlink:href="#zoomMin" x="42" y="9" onmousedown="handleZoom(evt,'out')"/>
                <use id="reset" xlink:href="#resetDef" x="30" y="36" onmousedown="handleReset()"/>
                <g id="arrowUp" xlink:href="#dirArrow" transform="translate(30 24)" onmousedown="handlePan(0,-1)">
                  <use xlink:href="#rim" fill="#404040">
                        <set attributeName="fill" to="#808080" begin="arrowUp.mouseover" end="arrowUp.mouseout"/>
                  </use>
                  <path fill="none" stroke="white" stroke-width="1.5" d="M0,-3.0v7 M-2.5,-0.5L0,-3.0L2.5,-0.5"/>
                </g>
                <g id="arrowRight" xlink:href="#dirArrow" transform="rotate(90) translate(36 -43)" onmousedown="handlePan(1,0)">
                  <use xlink:href="#rim" fill="#404040">
                        <set attributeName="fill" to="#808080" begin="arrowRight.mouseover" end="arrowRight.mouseout"/>
                  </use>
                  <path fill="none" stroke="white" stroke-width="1.5" d="M0,-3.0v7 M-2.5,-0.5L0,-3.0L2.5,-0.5"/>
                </g>
                <g id="arrowDown" xlink:href="#dirArrow" transform="rotate(180) translate(-30 -48)" onmousedown="handlePan(0,1)">
                  <use xlink:href="#rim" fill="#404040">
                        <set attributeName="fill" to="#808080" begin="arrowDown.mouseover" end="arrowDown.mouseout"/>
                  </use>
                  <path fill="none" stroke="white" stroke-width="1.5" d="M0,-3.0v7 M-2.5,-0.5L0,-3.0L2.5,-0.5"/>
                </g>
                <g id="arrowLeft" xlink:href="#dirArrow" transform="rotate(270) translate(-36 17)" onmousedown="handlePan(-1,0)">
                  <use xlink:href="#rim" fill="#404040">
                        <set attributeName="fill" to="#808080" begin="arrowLeft.mouseover" end="arrowLeft.mouseout"/>
                  </use>
                  <path fill="none" stroke="white" stroke-width="1.5" d="M0,-3.0v7 M-2.5,-0.5L0,-3.0L2.5,-0.5"/>
                </g>
        </g>
        <svg viewBox="0 0 15 15" width="100%" height="30px" preserveAspectRatio="xMaxYMin meet">
         <g id="arrow_out" transform="scale(0.3 0.3)">
          <a xlink:href="class_movement_and_image_a_p_i_1_1src_1_1_pen_aecf75855f964eb9eb238cae05df975a6_icgraph_org.svg" target="_base">
           <rect id="button" ry="5" rx="5" y="6" x="6" height="38" width="38"
                fill="#f2f5e9" fill-opacity="0.5" stroke="#606060" stroke-width="1.0"/>
           <path id="arrow"
             d="M 11.500037,31.436501 C 11.940474,20.09759 22.043105,11.32322 32.158766,21.979434 L 37.068811,17.246167 C 37.068811,17.246167 37.088388,32 37.088388,32 L 22.160133,31.978069 C 22.160133,31.978069 26.997745,27.140456 26.997745,27.140456 C 18.528582,18.264221 13.291696,25.230495 11.500037,31.436501 z"
             style="fill:#404040;"/>
          </a>
         </g>
        </svg>
</svg>
