<?xml version="1.0" encoding="UTF-8" standalone="no"?>
<!DOCTYPE svg PUBLIC "-//W3C//DTD SVG 1.1//EN"
 "http://www.w3.org/Graphics/SVG/1.1/DTD/svg11.dtd">
<!-- Generated by graphviz version 2.36.0 (20140111.2315)
 -->
<!-- Title: parser.Token.toString Pages: 1 -->
<svg width="2334pt" height="97pt"
 viewBox="0.00 0.00 2334.00 97.00" xmlns="http://www.w3.org/2000/svg" xmlns:xlink="http://www.w3.org/1999/xlink">
<g id="graph0" class="graph" transform="scale(1 1) rotate(0) translate(4 93)">
<title>parser.Token.toString</title>
<polygon fill="white" stroke="none" points="-4,4 -4,-93 2330,-93 2330,4 -4,4"/>
<!-- Node1 -->
<g id="node1" class="node"><title>Node1</title>
<polygon fill="#bfbfbf" stroke="black" points="0,-60.5 0,-79.5 118,-79.5 118,-60.5 0,-60.5"/>
<text text-anchor="middle" x="59" y="-67.5" font-family="Helvetica,sans-Serif" font-size="10.00">parser.Token.toString</text>
</g>
<!-- Node2 -->
<g id="node2" class="node"><title>Node2</title>
<g id="a_node2"><a xlink:href="../../d5/d0e/classparser_1_1_logo_parser.html#a6b0ba0c2b5b0bc8c2ef76863fffdb6a3" target="_top" xlink:title="parser.LogoParser.list">
<polygon fill="white" stroke="black" points="1006.5,-41.5 1006.5,-60.5 1125.5,-60.5 1125.5,-41.5 1006.5,-41.5"/>
<text text-anchor="middle" x="1066" y="-48.5" font-family="Helvetica,sans-Serif" font-size="10.00">parser.LogoParser.list</text>
</a>
</g>
</g>
<!-- Node1&#45;&gt;Node2 -->
<g id="edge1" class="edge"><title>Node1&#45;&gt;Node2</title>
<path fill="none" stroke="midnightblue" d="M128.062,-76.4422C192.207,-81.9528 291.042,-89 377,-89 377,-89 377,-89 716,-89 820.984,-89 942.693,-71.7963 1011.09,-60.54"/>
<polygon fill="midnightblue" stroke="midnightblue" points="128.339,-72.9531 118.073,-75.5722 127.731,-79.9267 128.339,-72.9531"/>
</g>
<!-- Node13 -->
<g id="node13" class="node"><title>Node13</title>
<g id="a_node13"><a xlink:href="../../d5/d0e/classparser_1_1_logo_parser.html#a4bdaeff6df067fde6743ff07370c3b0b" target="_top" xlink:title="parser.LogoParser.pow">
<polygon fill="white" stroke="black" points="154,-41.5 154,-60.5 278,-60.5 278,-41.5 154,-41.5"/>
<text text-anchor="middle" x="216" y="-48.5" font-family="Helvetica,sans-Serif" font-size="10.00">parser.LogoParser.pow</text>
</a>
</g>
</g>
<!-- Node1&#45;&gt;Node13 -->
<g id="edge13" class="edge"><title>Node1&#45;&gt;Node13</title>
<path fill="none" stroke="midnightblue" d="M128.137,-61.6477C136.722,-60.5954 145.462,-59.524 153.928,-58.4863"/>
<polygon fill="midnightblue" stroke="midnightblue" points="127.657,-58.1803 118.157,-62.871 128.509,-65.1283 127.657,-58.1803"/>
</g>
<!-- Node3 -->
<g id="node3" class="node"><title>Node3</title>
<g id="a_node3"><a xlink:href="../../d5/d0e/classparser_1_1_logo_parser.html#a4a8825534e0488215d22bcd947bc4d41" target="_top" xlink:title="parser.LogoParser.expression">
<polygon fill="white" stroke="black" points="1162.5,-60.5 1162.5,-79.5 1319.5,-79.5 1319.5,-60.5 1162.5,-60.5"/>
<text text-anchor="middle" x="1241" y="-67.5" font-family="Helvetica,sans-Serif" font-size="10.00">parser.LogoParser.expression</text>
</a>
</g>
</g>
<!-- Node2&#45;&gt;Node3 -->
<g id="edge2" class="edge"><title>Node2&#45;&gt;Node3</title>
<path fill="none" stroke="midnightblue" d="M1135.74,-58.5496C1144.52,-59.5143 1153.56,-60.507 1162.47,-61.4856"/>
<polygon fill="midnightblue" stroke="midnightblue" points="1135.89,-55.0452 1125.57,-57.4325 1135.13,-62.0034 1135.89,-55.0452"/>
</g>
<!-- Node4 -->
<g id="node4" class="node"><title>Node4</title>
<g id="a_node4"><a xlink:href="../../d5/d0e/classparser_1_1_logo_parser.html#adefe3b97ad0d2d7fd0dcd13f7ef2c75e" target="_top" xlink:title="parser.LogoParser.parse">
<polygon fill="white" stroke="black" points="1175,-22.5 1175,-41.5 1307,-41.5 1307,-22.5 1175,-22.5"/>
<text text-anchor="middle" x="1241" y="-29.5" font-family="Helvetica,sans-Serif" font-size="10.00">parser.LogoParser.parse</text>
</a>
</g>
</g>
<!-- Node2&#45;&gt;Node4 -->
<g id="edge3" class="edge"><title>Node2&#45;&gt;Node4</title>
<path fill="none" stroke="midnightblue" d="M1135.78,-43.4457C1148.7,-42.0277 1162.16,-40.5492 1174.95,-39.1442"/>
<polygon fill="midnightblue" stroke="midnightblue" points="1135.13,-39.9966 1125.57,-44.5675 1135.89,-46.9548 1135.13,-39.9966"/>
</g>
<!-- Node5 -->
<g id="node5" class="node"><title>Node5</title>
<g id="a_node5"><a xlink:href="../../d6/d95/classparser_1_1_parser.html#af3d0cef45b9f02f1707959c08d8f3797" target="_top" xlink:title="parser.Parser.parse">
<polygon fill="white" stroke="black" points="1356.5,-22.5 1356.5,-41.5 1465.5,-41.5 1465.5,-22.5 1356.5,-22.5"/>
<text text-anchor="middle" x="1411" y="-29.5" font-family="Helvetica,sans-Serif" font-size="10.00">parser.Parser.parse</text>
</a>
</g>
</g>
<!-- Node4&#45;&gt;Node5 -->
<g id="edge4" class="edge"><title>Node4&#45;&gt;Node5</title>
<path fill="none" stroke="midnightblue" d="M1317.8,-32C1330.83,-32 1344.12,-32 1356.41,-32"/>
<polygon fill="midnightblue" stroke="midnightblue" points="1317.43,-28.5001 1307.43,-32 1317.43,-35.5001 1317.43,-28.5001"/>
</g>
<!-- Node6 -->
<g id="node6" class="node"><title>Node6</title>
<g id="a_node6"><a xlink:href="../../d6/d95/classparser_1_1_parser.html#ae90f8410be9931ec3f349085c8fdae71" target="_top" xlink:title="parser.Parser.parseFile">
<polygon fill="white" stroke="black" points="1515,-66.5 1515,-85.5 1639,-85.5 1639,-66.5 1515,-66.5"/>
<text text-anchor="middle" x="1577" y="-73.5" font-family="Helvetica,sans-Serif" font-size="10.00">parser.Parser.parseFile</text>
</a>
</g>
</g>
<!-- Node5&#45;&gt;Node6 -->
<g id="edge5" class="edge"><title>Node5&#45;&gt;Node6</title>
<path fill="none" stroke="midnightblue" d="M1457.3,-44.1547C1483.55,-51.1955 1516.11,-59.9312 1540.48,-66.4713"/>
<polygon fill="midnightblue" stroke="midnightblue" points="1458.15,-40.7583 1447.59,-41.5473 1456.34,-47.5192 1458.15,-40.7583"/>
</g>
<!-- Node11 -->
<g id="node11" class="node"><title>Node11</title>
<g id="a_node11"><a xlink:href="../../d4/d06/classinput_1_1_input_executor.html#a687a9f2cbed5d27a2c7b1336a1cab8aa" target="_top" xlink:title="input.InputExecutor.process\lInput">
<polygon fill="white" stroke="black" points="1502.5,-17 1502.5,-47 1651.5,-47 1651.5,-17 1502.5,-17"/>
<text text-anchor="start" x="1510.5" y="-35" font-family="Helvetica,sans-Serif" font-size="10.00">input.InputExecutor.process</text>
<text text-anchor="middle" x="1577" y="-24" font-family="Helvetica,sans-Serif" font-size="10.00">Input</text>
</a>
</g>
</g>
<!-- Node5&#45;&gt;Node11 -->
<g id="edge10" class="edge"><title>Node5&#45;&gt;Node11</title>
<path fill="none" stroke="midnightblue" d="M1475.73,-32C1484.42,-32 1493.39,-32 1502.23,-32"/>
<polygon fill="midnightblue" stroke="midnightblue" points="1475.7,-28.5001 1465.7,-32 1475.7,-35.5001 1475.7,-28.5001"/>
</g>
<!-- Node12 -->
<g id="node12" class="node"><title>Node12</title>
<g id="a_node12"><a xlink:href="../../d5/d56/class_workspace.html#a0ed8fb487512971086b6f3ed0d74e4ae" target="_top" xlink:title="Workspace.sendUserInput">
<polygon fill="white" stroke="black" points="1693,-0.5 1693,-19.5 1833,-19.5 1833,-0.5 1693,-0.5"/>
<text text-anchor="middle" x="1763" y="-7.5" font-family="Helvetica,sans-Serif" font-size="10.00">Workspace.sendUserInput</text>
</a>
</g>
</g>
<!-- Node5&#45;&gt;Node12 -->
<g id="edge11" class="edge"><title>Node5&#45;&gt;Node12</title>
<path fill="none" stroke="midnightblue" d="M1448.76,-19.3601C1464.89,-14.4513 1484.17,-9.43044 1502,-7 1566.3,1.7642 1640.37,-0.260129 1692.96,-3.7204"/>
<polygon fill="midnightblue" stroke="midnightblue" points="1447.66,-16.0379 1439.17,-22.3779 1449.76,-22.7153 1447.66,-16.0379"/>
</g>
<!-- Node7 -->
<g id="node7" class="node"><title>Node7</title>
<g id="a_node7"><a xlink:href="../../d9/de8/class_file_chooser_feature.html#ad742b8e9d07e8151f0a9ff1972867ce8" target="_top" xlink:title="FileChooserFeature.openFile\lChooser">
<polygon fill="white" stroke="black" points="1688.5,-50 1688.5,-80 1837.5,-80 1837.5,-50 1688.5,-50"/>
<text text-anchor="start" x="1696.5" y="-68" font-family="Helvetica,sans-Serif" font-size="10.00">FileChooserFeature.openFile</text>
<text text-anchor="middle" x="1763" y="-57" font-family="Helvetica,sans-Serif" font-size="10.00">Chooser</text>
</a>
</g>
</g>
<!-- Node6&#45;&gt;Node7 -->
<g id="edge6" class="edge"><title>Node6&#45;&gt;Node7</title>
<path fill="none" stroke="midnightblue" d="M1649.17,-71.7451C1662.02,-70.9771 1675.44,-70.1749 1688.35,-69.4027"/>
<polygon fill="midnightblue" stroke="midnightblue" points="1648.79,-68.2618 1639.01,-72.3524 1649.2,-75.2493 1648.79,-68.2618"/>
</g>
<!-- Node8 -->
<g id="node8" class="node"><title>Node8</title>
<g id="a_node8"><a xlink:href="../../d5/d56/class_workspace.html#a6babd032d9af86fbc23812272d59a2d2" target="_top" xlink:title="Workspace.addFeatureButtons">
<polygon fill="white" stroke="black" points="1874,-50.5 1874,-69.5 2036,-69.5 2036,-50.5 1874,-50.5"/>
<text text-anchor="middle" x="1955" y="-57.5" font-family="Helvetica,sans-Serif" font-size="10.00">Workspace.addFeatureButtons</text>
</a>
</g>
</g>
<!-- Node7&#45;&gt;Node8 -->
<g id="edge7" class="edge"><title>Node7&#45;&gt;Node8</title>
<path fill="none" stroke="midnightblue" d="M1847.77,-62.7956C1856.38,-62.5689 1865.12,-62.3389 1873.7,-62.1132"/>
<polygon fill="midnightblue" stroke="midnightblue" points="1847.64,-59.2978 1837.73,-63.0597 1847.82,-66.2953 1847.64,-59.2978"/>
</g>
<!-- Node9 -->
<g id="node9" class="node"><title>Node9</title>
<g id="a_node9"><a xlink:href="../../d5/d56/class_workspace.html#a429d535dfd8427637b7715f0b1e1df1b" target="_top" xlink:title="Workspace.createWorkspace">
<polygon fill="white" stroke="black" points="2072,-29.5 2072,-48.5 2224,-48.5 2224,-29.5 2072,-29.5"/>
<text text-anchor="middle" x="2148" y="-36.5" font-family="Helvetica,sans-Serif" font-size="10.00">Workspace.createWorkspace</text>
</a>
</g>
</g>
<!-- Node8&#45;&gt;Node9 -->
<g id="edge8" class="edge"><title>Node8&#45;&gt;Node9</title>
<path fill="none" stroke="midnightblue" d="M2046.22,-50.0802C2054.82,-49.1348 2063.48,-48.183 2071.91,-47.2557"/>
<polygon fill="midnightblue" stroke="midnightblue" points="2045.73,-46.6134 2036.17,-51.1854 2046.49,-53.5714 2045.73,-46.6134"/>
</g>
<!-- Node10 -->
<g id="node10" class="node"><title>Node10</title>
<g id="a_node10"><a xlink:href="../../d0/d4b/class_main.html#aaa75b38812324d0f17c89f139bde6ada" target="_top" xlink:title="Main.start">
<polygon fill="white" stroke="black" points="2260.5,-29.5 2260.5,-48.5 2325.5,-48.5 2325.5,-29.5 2260.5,-29.5"/>
<text text-anchor="middle" x="2293" y="-36.5" font-family="Helvetica,sans-Serif" font-size="10.00">Main.start</text>
</a>
</g>
</g>
<!-- Node9&#45;&gt;Node10 -->
<g id="edge9" class="edge"><title>Node9&#45;&gt;Node10</title>
<path fill="none" stroke="midnightblue" d="M2234.39,-39C2243.63,-39 2252.55,-39 2260.5,-39"/>
<polygon fill="midnightblue" stroke="midnightblue" points="2234.27,-35.5001 2224.27,-39 2234.27,-42.5001 2234.27,-35.5001"/>
</g>
<!-- Node12&#45;&gt;Node9 -->
<g id="edge12" class="edge"><title>Node12&#45;&gt;Node9</title>
<path fill="none" stroke="midnightblue" d="M1843.47,-16.017C1910.6,-21.1005 2006.08,-28.3296 2071.94,-33.3163"/>
<polygon fill="midnightblue" stroke="midnightblue" points="1843.59,-12.5168 1833.36,-15.2517 1843.07,-19.4968 1843.59,-12.5168"/>
</g>
<!-- Node14 -->
<g id="node14" class="node"><title>Node14</title>
<g id="a_node14"><a xlink:href="../../d5/d0e/classparser_1_1_logo_parser.html#a34f4226672a2711ce2691162fdb2124d" target="_top" xlink:title="parser.LogoParser.term">
<polygon fill="white" stroke="black" points="314,-41.5 314,-60.5 442,-60.5 442,-41.5 314,-41.5"/>
<text text-anchor="middle" x="378" y="-48.5" font-family="Helvetica,sans-Serif" font-size="10.00">parser.LogoParser.term</text>
</a>
</g>
</g>
<!-- Node13&#45;&gt;Node14 -->
<g id="edge14" class="edge"><title>Node13&#45;&gt;Node14</title>
<path fill="none" stroke="midnightblue" d="M288.604,-51C297.039,-51 305.601,-51 313.907,-51"/>
<polygon fill="midnightblue" stroke="midnightblue" points="288.403,-47.5001 278.403,-51 288.403,-54.5001 288.403,-47.5001"/>
</g>
<!-- Node15 -->
<g id="node15" class="node"><title>Node15</title>
<g id="a_node15"><a xlink:href="../../d5/d0e/classparser_1_1_logo_parser.html#a82acce8328e52f3b2bcb90542cc800b7" target="_top" xlink:title="parser.LogoParser.arithm">
<polygon fill="white" stroke="black" points="478.5,-41.5 478.5,-60.5 615.5,-60.5 615.5,-41.5 478.5,-41.5"/>
<text text-anchor="middle" x="547" y="-48.5" font-family="Helvetica,sans-Serif" font-size="10.00">parser.LogoParser.arithm</text>
</a>
</g>
</g>
<!-- Node14&#45;&gt;Node15 -->
<g id="edge15" class="edge"><title>Node14&#45;&gt;Node15</title>
<path fill="none" stroke="midnightblue" d="M452.226,-51C460.9,-51 469.723,-51 478.315,-51"/>
<polygon fill="midnightblue" stroke="midnightblue" points="452.136,-47.5001 442.136,-51 452.136,-54.5001 452.136,-47.5001"/>
</g>
<!-- Node16 -->
<g id="node16" class="node"><title>Node16</title>
<g id="a_node16"><a xlink:href="../../d5/d0e/classparser_1_1_logo_parser.html#a397c25c39976e5a1fb689e1f0dd40160" target="_top" xlink:title="parser.LogoParser.eval">
<polygon fill="white" stroke="black" points="652.5,-41.5 652.5,-60.5 777.5,-60.5 777.5,-41.5 652.5,-41.5"/>
<text text-anchor="middle" x="715" y="-48.5" font-family="Helvetica,sans-Serif" font-size="10.00">parser.LogoParser.eval</text>
</a>
</g>
</g>
<!-- Node15&#45;&gt;Node16 -->
<g id="edge16" class="edge"><title>Node15&#45;&gt;Node16</title>
<path fill="none" stroke="midnightblue" d="M625.614,-51C634.607,-51 643.686,-51 652.424,-51"/>
<polygon fill="midnightblue" stroke="midnightblue" points="625.519,-47.5001 615.519,-51 625.519,-54.5001 625.519,-47.5001"/>
</g>
<!-- Node16&#45;&gt;Node2 -->
<g id="edge17" class="edge"><title>Node16&#45;&gt;Node2</title>
<path fill="none" stroke="midnightblue" d="M787.699,-51C852.301,-51 946.118,-51 1006.35,-51"/>
<polygon fill="midnightblue" stroke="midnightblue" points="787.591,-47.5001 777.591,-51 787.591,-54.5001 787.591,-47.5001"/>
</g>
<!-- Node17 -->
<g id="node17" class="node"><title>Node17</title>
<g id="a_node17"><a xlink:href="../../d5/d0e/classparser_1_1_logo_parser.html#ad6ed8e51959a6e19a2323444aa8331c8" target="_top" xlink:title="parser.LogoParser.statement">
<polygon fill="white" stroke="black" points="814.5,-3.5 814.5,-22.5 969.5,-22.5 969.5,-3.5 814.5,-3.5"/>
<text text-anchor="middle" x="892" y="-10.5" font-family="Helvetica,sans-Serif" font-size="10.00">parser.LogoParser.statement</text>
</a>
</g>
</g>
<!-- Node16&#45;&gt;Node17 -->
<g id="edge18" class="edge"><title>Node16&#45;&gt;Node17</title>
<path fill="none" stroke="midnightblue" d="M770.124,-39.2474C794.869,-33.8742 823.803,-27.5914 847.158,-22.5201"/>
<polygon fill="midnightblue" stroke="midnightblue" points="769.189,-35.8686 760.16,-41.411 770.675,-42.7092 769.189,-35.8686"/>
</g>
<!-- Node17&#45;&gt;Node2 -->
<g id="edge19" class="edge"><title>Node17&#45;&gt;Node2</title>
<path fill="none" stroke="midnightblue" d="M946.196,-24.7526C970.517,-30.1258 998.955,-36.4086 1021.91,-41.4799"/>
<polygon fill="midnightblue" stroke="midnightblue" points="946.922,-21.3288 936.403,-22.589 945.412,-28.164 946.922,-21.3288"/>
</g>
</g>
</svg>
