<?xml version="1.0" encoding="UTF-8" standalone="no"?>
<!DOCTYPE svg PUBLIC "-//W3C//DTD SVG 1.1//EN"
 "http://www.w3.org/Graphics/SVG/1.1/DTD/svg11.dtd">
<!-- Generated by graphviz version 2.36.0 (20140111.2315)
 -->
<!-- Title: parser.Token.Token Pages: 1 -->
<svg width="3112pt" height="426pt"
 viewBox="0.00 0.00 3112.00 426.19" xmlns="http://www.w3.org/2000/svg" xmlns:xlink="http://www.w3.org/1999/xlink">
<g id="graph0" class="graph" transform="scale(1 1) rotate(0) translate(4 422.191)">
<title>parser.Token.Token</title>
<polygon fill="white" stroke="none" points="-4,4 -4,-422.191 3108,-422.191 3108,4 -4,4"/>
<!-- Node1 -->
<g id="node1" class="node"><title>Node1</title>
<polygon fill="#bfbfbf" stroke="black" points="0.5,-291.691 0.5,-310.691 107.5,-310.691 107.5,-291.691 0.5,-291.691"/>
<text text-anchor="middle" x="54" y="-298.691" font-family="Helvetica,sans-Serif" font-size="10.00">parser.Token.Token</text>
</g>
<!-- Node2 -->
<g id="node2" class="node"><title>Node2</title>
<g id="a_node2"><a xlink:href="../../db/df3/classparser_1_1_token.html#ae26c3dba3bc9315a3fc688514f51c9bf" target="_top" xlink:title="parser.Token.newToken">
<polygon fill="white" stroke="black" points="144.5,-291.691 144.5,-310.691 269.5,-310.691 269.5,-291.691 144.5,-291.691"/>
<text text-anchor="middle" x="207" y="-298.691" font-family="Helvetica,sans-Serif" font-size="10.00">parser.Token.newToken</text>
</a>
</g>
</g>
<!-- Node1&#45;&gt;Node2 -->
<g id="edge1" class="edge"><title>Node1&#45;&gt;Node2</title>
<path fill="none" stroke="midnightblue" d="M117.952,-301.191C126.704,-301.191 135.689,-301.191 144.416,-301.191"/>
<polygon fill="midnightblue" stroke="midnightblue" points="117.813,-297.692 107.812,-301.191 117.812,-304.692 117.813,-297.692"/>
</g>
<!-- Node3 -->
<g id="node3" class="node"><title>Node3</title>
<g id="a_node3"><a xlink:href="../../d0/d8c/classparser_1_1_logo_parser_token_manager.html#a105d12f62ad67eda0850987aedc48f4d" target="_top" xlink:title="parser.LogoParserTokenManager.jj\lFillToken">
<polygon fill="white" stroke="black" points="306.5,-308.191 306.5,-338.191 485.5,-338.191 485.5,-308.191 306.5,-308.191"/>
<text text-anchor="start" x="314.5" y="-326.191" font-family="Helvetica,sans-Serif" font-size="10.00">parser.LogoParserTokenManager.jj</text>
<text text-anchor="middle" x="396" y="-315.191" font-family="Helvetica,sans-Serif" font-size="10.00">FillToken</text>
</a>
</g>
</g>
<!-- Node2&#45;&gt;Node3 -->
<g id="edge2" class="edge"><title>Node2&#45;&gt;Node3</title>
<path fill="none" stroke="midnightblue" d="M279.782,-309.636C288.449,-310.656 297.379,-311.707 306.251,-312.75"/>
<polygon fill="midnightblue" stroke="midnightblue" points="280.09,-306.149 269.749,-308.456 279.272,-313.101 280.09,-306.149"/>
</g>
<!-- Node25 -->
<g id="node25" class="node"><title>Node25</title>
<g id="a_node25"><a xlink:href="../../db/df3/classparser_1_1_token.html#a5b65ce3c5308c54cfb89844fd090240e" target="_top" xlink:title="parser.Token.newToken">
<polygon fill="white" stroke="black" points="333.5,-269.691 333.5,-288.691 458.5,-288.691 458.5,-269.691 333.5,-269.691"/>
<text text-anchor="middle" x="396" y="-276.691" font-family="Helvetica,sans-Serif" font-size="10.00">parser.Token.newToken</text>
</a>
</g>
</g>
<!-- Node2&#45;&gt;Node25 -->
<g id="edge38" class="edge"><title>Node2&#45;&gt;Node25</title>
<path fill="none" stroke="midnightblue" d="M279.967,-292.725C297.568,-290.654 316.245,-288.457 333.316,-286.448"/>
<polygon fill="midnightblue" stroke="midnightblue" points="279.272,-289.282 269.749,-293.927 280.09,-296.234 279.272,-289.282"/>
</g>
<!-- Node4 -->
<g id="node4" class="node"><title>Node4</title>
<g id="a_node4"><a xlink:href="../../d0/d8c/classparser_1_1_logo_parser_token_manager.html#a3dee50e2286b70ba662519a865e63b77" target="_top" xlink:title="parser.LogoParserTokenManager.get\lNextToken">
<polygon fill="white" stroke="black" points="522,-308.191 522,-338.191 712,-338.191 712,-308.191 522,-308.191"/>
<text text-anchor="start" x="530" y="-326.191" font-family="Helvetica,sans-Serif" font-size="10.00">parser.LogoParserTokenManager.get</text>
<text text-anchor="middle" x="617" y="-315.191" font-family="Helvetica,sans-Serif" font-size="10.00">NextToken</text>
</a>
</g>
</g>
<!-- Node3&#45;&gt;Node4 -->
<g id="edge3" class="edge"><title>Node3&#45;&gt;Node4</title>
<path fill="none" stroke="midnightblue" d="M495.831,-323.191C504.456,-323.191 513.17,-323.191 521.756,-323.191"/>
<polygon fill="midnightblue" stroke="midnightblue" points="495.76,-319.692 485.76,-323.191 495.76,-326.692 495.76,-319.692"/>
</g>
<!-- Node5 -->
<g id="node5" class="node"><title>Node5</title>
<g id="a_node5"><a xlink:href="../../d5/d0e/classparser_1_1_logo_parser.html#a7477b52c4469ea43d75f88fb805e37a1" target="_top" xlink:title="parser.LogoParser.getNext\lToken">
<polygon fill="white" stroke="black" points="750.5,-371.191 750.5,-401.191 893.5,-401.191 893.5,-371.191 750.5,-371.191"/>
<text text-anchor="start" x="758.5" y="-389.191" font-family="Helvetica,sans-Serif" font-size="10.00">parser.LogoParser.getNext</text>
<text text-anchor="middle" x="822" y="-378.191" font-family="Helvetica,sans-Serif" font-size="10.00">Token</text>
</a>
</g>
</g>
<!-- Node4&#45;&gt;Node5 -->
<g id="edge4" class="edge"><title>Node4&#45;&gt;Node5</title>
<path fill="none" stroke="midnightblue" d="M676.044,-341.205C706.612,-350.692 743.662,-362.19 772.653,-371.187"/>
<polygon fill="midnightblue" stroke="midnightblue" points="676.954,-337.823 666.366,-338.202 674.879,-344.508 676.954,-337.823"/>
</g>
<!-- Node6 -->
<g id="node6" class="node"><title>Node6</title>
<g id="a_node6"><a xlink:href="../../d5/d0e/classparser_1_1_logo_parser.html#a63b7890a7d6323bcf938132f968e8157" target="_top" xlink:title="parser.LogoParser.getToken">
<polygon fill="white" stroke="black" points="748,-332.691 748,-351.691 896,-351.691 896,-332.691 748,-332.691"/>
<text text-anchor="middle" x="822" y="-339.691" font-family="Helvetica,sans-Serif" font-size="10.00">parser.LogoParser.getToken</text>
</a>
</g>
</g>
<!-- Node4&#45;&gt;Node6 -->
<g id="edge5" class="edge"><title>Node4&#45;&gt;Node6</title>
<path fill="none" stroke="midnightblue" d="M722.241,-332.948C730.906,-333.759 739.544,-334.568 747.903,-335.35"/>
<polygon fill="midnightblue" stroke="midnightblue" points="722.355,-329.443 712.072,-331.996 721.702,-336.413 722.355,-329.443"/>
</g>
<!-- Node7 -->
<g id="node7" class="node"><title>Node7</title>
<g id="a_node7"><a xlink:href="../../d5/d0e/classparser_1_1_logo_parser.html#a550039a3180ec86ef01f419aefc02edc" target="_top" xlink:title="parser.LogoParser.jj\l_consume_token">
<polygon fill="white" stroke="black" points="767,-118.191 767,-148.191 877,-148.191 877,-118.191 767,-118.191"/>
<text text-anchor="start" x="775" y="-136.191" font-family="Helvetica,sans-Serif" font-size="10.00">parser.LogoParser.jj</text>
<text text-anchor="middle" x="822" y="-125.191" font-family="Helvetica,sans-Serif" font-size="10.00">_consume_token</text>
</a>
</g>
</g>
<!-- Node4&#45;&gt;Node7 -->
<g id="edge6" class="edge"><title>Node4&#45;&gt;Node7</title>
<path fill="none" stroke="midnightblue" d="M641.787,-300.928C683.628,-261.766 769.329,-181.554 804.935,-148.228"/>
<polygon fill="midnightblue" stroke="midnightblue" points="639.178,-298.575 634.269,-307.964 643.962,-303.686 639.178,-298.575"/>
</g>
<!-- Node24 -->
<g id="node24" class="node"><title>Node24</title>
<g id="a_node24"><a xlink:href="../../d5/d0e/classparser_1_1_logo_parser.html#a2e48e3ab2c1c075beca7bcc54d891afd" target="_top" xlink:title="parser.LogoParser.jj_ntk">
<polygon fill="white" stroke="black" points="757,-294.691 757,-313.691 887,-313.691 887,-294.691 757,-294.691"/>
<text text-anchor="middle" x="822" y="-301.691" font-family="Helvetica,sans-Serif" font-size="10.00">parser.LogoParser.jj_ntk</text>
</a>
</g>
</g>
<!-- Node4&#45;&gt;Node24 -->
<g id="edge31" class="edge"><title>Node4&#45;&gt;Node24</title>
<path fill="none" stroke="midnightblue" d="M722.382,-313.422C734.117,-312.323 745.801,-311.23 756.805,-310.2"/>
<polygon fill="midnightblue" stroke="midnightblue" points="721.702,-309.97 712.072,-314.387 722.355,-316.94 721.702,-309.97"/>
</g>
<!-- Node8 -->
<g id="node8" class="node"><title>Node8</title>
<g id="a_node8"><a xlink:href="../../d5/d0e/classparser_1_1_logo_parser.html#a82acce8328e52f3b2bcb90542cc800b7" target="_top" xlink:title="parser.LogoParser.arithm">
<polygon fill="white" stroke="black" points="1256.5,-170.691 1256.5,-189.691 1393.5,-189.691 1393.5,-170.691 1256.5,-170.691"/>
<text text-anchor="middle" x="1325" y="-177.691" font-family="Helvetica,sans-Serif" font-size="10.00">parser.LogoParser.arithm</text>
</a>
</g>
</g>
<!-- Node7&#45;&gt;Node8 -->
<g id="edge7" class="edge"><title>Node7&#45;&gt;Node8</title>
<path fill="none" stroke="midnightblue" d="M887.135,-139.208C982.082,-148.115 1159.24,-164.735 1256.23,-173.834"/>
<polygon fill="midnightblue" stroke="midnightblue" points="887.375,-135.715 877.092,-138.266 886.721,-142.685 887.375,-135.715"/>
</g>
<!-- Node9 -->
<g id="node9" class="node"><title>Node9</title>
<g id="a_node9"><a xlink:href="../../d5/d0e/classparser_1_1_logo_parser.html#a397c25c39976e5a1fb689e1f0dd40160" target="_top" xlink:title="parser.LogoParser.eval">
<polygon fill="white" stroke="black" points="1430.5,-137.691 1430.5,-156.691 1555.5,-156.691 1555.5,-137.691 1430.5,-137.691"/>
<text text-anchor="middle" x="1493" y="-144.691" font-family="Helvetica,sans-Serif" font-size="10.00">parser.LogoParser.eval</text>
</a>
</g>
</g>
<!-- Node7&#45;&gt;Node9 -->
<g id="edge23" class="edge"><title>Node7&#45;&gt;Node9</title>
<path fill="none" stroke="midnightblue" d="M887.274,-134.537C1015.9,-137.228 1303.46,-143.246 1430.1,-145.896"/>
<polygon fill="midnightblue" stroke="midnightblue" points="887.251,-131.035 877.18,-134.325 887.105,-138.034 887.251,-131.035"/>
</g>
<!-- Node10 -->
<g id="node10" class="node"><title>Node10</title>
<g id="a_node10"><a xlink:href="../../d5/d0e/classparser_1_1_logo_parser.html#a6b0ba0c2b5b0bc8c2ef76863fffdb6a3" target="_top" xlink:title="parser.LogoParser.list">
<polygon fill="white" stroke="black" points="1784.5,-99.6915 1784.5,-118.691 1903.5,-118.691 1903.5,-99.6915 1784.5,-99.6915"/>
<text text-anchor="middle" x="1844" y="-106.691" font-family="Helvetica,sans-Serif" font-size="10.00">parser.LogoParser.list</text>
</a>
</g>
</g>
<!-- Node7&#45;&gt;Node10 -->
<g id="edge25" class="edge"><title>Node7&#45;&gt;Node10</title>
<path fill="none" stroke="midnightblue" d="M857.389,-113.063C878.334,-101.597 905.989,-87.8373 932,-79.1915 1027.63,-47.406 1054.23,-38.1915 1155,-38.1915 1155,-38.1915 1155,-38.1915 1494,-38.1915 1615.81,-38.1915 1756.82,-80.2362 1815.34,-99.6161"/>
<polygon fill="midnightblue" stroke="midnightblue" points="855.594,-110.056 848.559,-117.978 858.998,-116.173 855.594,-110.056"/>
</g>
<!-- Node11 -->
<g id="node11" class="node"><title>Node11</title>
<g id="a_node11"><a xlink:href="../../d5/d0e/classparser_1_1_logo_parser.html#a4a8825534e0488215d22bcd947bc4d41" target="_top" xlink:title="parser.LogoParser.expression">
<polygon fill="white" stroke="black" points="1940.5,-26.6915 1940.5,-45.6915 2097.5,-45.6915 2097.5,-26.6915 1940.5,-26.6915"/>
<text text-anchor="middle" x="2019" y="-33.6915" font-family="Helvetica,sans-Serif" font-size="10.00">parser.LogoParser.expression</text>
</a>
</g>
</g>
<!-- Node7&#45;&gt;Node11 -->
<g id="edge24" class="edge"><title>Node7&#45;&gt;Node11</title>
<path fill="none" stroke="midnightblue" d="M842.529,-110.712C862.682,-89.0544 896.153,-57.1518 932,-40.1915 1023.02,2.87243 1054.31,-0.191495 1155,-0.191495 1155,-0.191495 1155,-0.191495 1671,-0.191495 1773.81,-0.191495 1892.85,-16.0201 1961.39,-26.6858"/>
<polygon fill="midnightblue" stroke="midnightblue" points="839.873,-108.43 835.727,-118.18 845.048,-113.143 839.873,-108.43"/>
</g>
<!-- Node21 -->
<g id="node21" class="node"><title>Node21</title>
<g id="a_node21"><a xlink:href="../../d5/d0e/classparser_1_1_logo_parser.html#ad6ed8e51959a6e19a2323444aa8331c8" target="_top" xlink:title="parser.LogoParser.statement">
<polygon fill="white" stroke="black" points="1592.5,-137.691 1592.5,-156.691 1747.5,-156.691 1747.5,-137.691 1592.5,-137.691"/>
<text text-anchor="middle" x="1670" y="-144.691" font-family="Helvetica,sans-Serif" font-size="10.00">parser.LogoParser.statement</text>
</a>
</g>
</g>
<!-- Node7&#45;&gt;Node21 -->
<g id="edge29" class="edge"><title>Node7&#45;&gt;Node21</title>
<path fill="none" stroke="midnightblue" d="M886.757,-115.613C953.191,-98.8657 1060.57,-76.1915 1155,-76.1915 1155,-76.1915 1155,-76.1915 1326,-76.1915 1445.8,-76.1915 1584.34,-118.236 1641.83,-137.616"/>
<polygon fill="midnightblue" stroke="midnightblue" points="885.68,-112.275 876.857,-118.141 887.413,-119.057 885.68,-112.275"/>
</g>
<!-- Node22 -->
<g id="node22" class="node"><title>Node22</title>
<g id="a_node22"><a xlink:href="../../d5/d0e/classparser_1_1_logo_parser.html#a4bdaeff6df067fde6743ff07370c3b0b" target="_top" xlink:title="parser.LogoParser.pow">
<polygon fill="white" stroke="black" points="932,-218.691 932,-237.691 1056,-237.691 1056,-218.691 932,-218.691"/>
<text text-anchor="middle" x="994" y="-225.691" font-family="Helvetica,sans-Serif" font-size="10.00">parser.LogoParser.pow</text>
</a>
</g>
</g>
<!-- Node7&#45;&gt;Node22 -->
<g id="edge26" class="edge"><title>Node7&#45;&gt;Node22</title>
<path fill="none" stroke="midnightblue" d="M851.863,-154.305C873.29,-169.398 903.596,-189.545 932,-204.191 942.519,-209.616 954.559,-214.594 965.148,-218.593"/>
<polygon fill="midnightblue" stroke="midnightblue" points="853.717,-151.329 843.54,-148.383 849.658,-157.032 853.717,-151.329"/>
</g>
<!-- Node23 -->
<g id="node23" class="node"><title>Node23</title>
<g id="a_node23"><a xlink:href="../../d5/d0e/classparser_1_1_logo_parser.html#a34f4226672a2711ce2691162fdb2124d" target="_top" xlink:title="parser.LogoParser.term">
<polygon fill="white" stroke="black" points="1092,-199.691 1092,-218.691 1220,-218.691 1220,-199.691 1092,-199.691"/>
<text text-anchor="middle" x="1156" y="-206.691" font-family="Helvetica,sans-Serif" font-size="10.00">parser.LogoParser.term</text>
</a>
</g>
</g>
<!-- Node7&#45;&gt;Node23 -->
<g id="edge30" class="edge"><title>Node7&#45;&gt;Node23</title>
<path fill="none" stroke="midnightblue" d="M878.638,-151.248C895.662,-156.444 914.51,-161.87 932,-166.191 987.502,-179.905 1051.67,-191.879 1096.89,-199.684"/>
<polygon fill="midnightblue" stroke="midnightblue" points="879.437,-147.831 868.85,-148.225 877.372,-154.52 879.437,-147.831"/>
</g>
<!-- Node8&#45;&gt;Node9 -->
<g id="edge8" class="edge"><title>Node8&#45;&gt;Node9</title>
<path fill="none" stroke="midnightblue" d="M1384.06,-168.649C1403.68,-164.749 1425.35,-160.441 1444.09,-156.715"/>
<polygon fill="midnightblue" stroke="midnightblue" points="1383.14,-165.264 1374.01,-170.647 1384.5,-172.129 1383.14,-165.264"/>
</g>
<!-- Node9&#45;&gt;Node10 -->
<g id="edge9" class="edge"><title>Node9&#45;&gt;Node10</title>
<path fill="none" stroke="midnightblue" d="M1547.06,-135.741C1561.58,-132.926 1577.35,-130.16 1592,-128.191 1657.62,-119.377 1733.48,-114.341 1784.47,-111.699"/>
<polygon fill="midnightblue" stroke="midnightblue" points="1546.37,-132.309 1537.24,-137.687 1547.73,-139.176 1546.37,-132.309"/>
</g>
<!-- Node9&#45;&gt;Node21 -->
<g id="edge21" class="edge"><title>Node9&#45;&gt;Node21</title>
<path fill="none" stroke="midnightblue" d="M1565.8,-147.191C1574.51,-147.191 1583.44,-147.191 1592.22,-147.191"/>
<polygon fill="midnightblue" stroke="midnightblue" points="1565.7,-143.692 1555.7,-147.191 1565.7,-150.692 1565.7,-143.692"/>
</g>
<!-- Node10&#45;&gt;Node11 -->
<g id="edge10" class="edge"><title>Node10&#45;&gt;Node11</title>
<path fill="none" stroke="midnightblue" d="M1877.2,-95.6054C1911.58,-81.0949 1965.2,-58.472 1995.38,-45.7373"/>
<polygon fill="midnightblue" stroke="midnightblue" points="1875.47,-92.5356 1867.62,-99.648 1878.19,-98.9849 1875.47,-92.5356"/>
</g>
<!-- Node12 -->
<g id="node12" class="node"><title>Node12</title>
<g id="a_node12"><a xlink:href="../../d5/d0e/classparser_1_1_logo_parser.html#adefe3b97ad0d2d7fd0dcd13f7ef2c75e" target="_top" xlink:title="parser.LogoParser.parse">
<polygon fill="white" stroke="black" points="1953,-99.6915 1953,-118.691 2085,-118.691 2085,-99.6915 1953,-99.6915"/>
<text text-anchor="middle" x="2019" y="-106.691" font-family="Helvetica,sans-Serif" font-size="10.00">parser.LogoParser.parse</text>
</a>
</g>
</g>
<!-- Node10&#45;&gt;Node12 -->
<g id="edge11" class="edge"><title>Node10&#45;&gt;Node12</title>
<path fill="none" stroke="midnightblue" d="M1913.78,-109.191C1926.7,-109.191 1940.16,-109.191 1952.95,-109.191"/>
<polygon fill="midnightblue" stroke="midnightblue" points="1913.57,-105.692 1903.57,-109.191 1913.57,-112.692 1913.57,-105.692"/>
</g>
<!-- Node13 -->
<g id="node13" class="node"><title>Node13</title>
<g id="a_node13"><a xlink:href="../../d6/d95/classparser_1_1_parser.html#af3d0cef45b9f02f1707959c08d8f3797" target="_top" xlink:title="parser.Parser.parse">
<polygon fill="white" stroke="black" points="2134.5,-99.6915 2134.5,-118.691 2243.5,-118.691 2243.5,-99.6915 2134.5,-99.6915"/>
<text text-anchor="middle" x="2189" y="-106.691" font-family="Helvetica,sans-Serif" font-size="10.00">parser.Parser.parse</text>
</a>
</g>
</g>
<!-- Node12&#45;&gt;Node13 -->
<g id="edge12" class="edge"><title>Node12&#45;&gt;Node13</title>
<path fill="none" stroke="midnightblue" d="M2095.8,-109.191C2108.83,-109.191 2122.12,-109.191 2134.41,-109.191"/>
<polygon fill="midnightblue" stroke="midnightblue" points="2095.43,-105.692 2085.43,-109.191 2095.43,-112.692 2095.43,-105.692"/>
</g>
<!-- Node14 -->
<g id="node14" class="node"><title>Node14</title>
<g id="a_node14"><a xlink:href="../../d6/d95/classparser_1_1_parser.html#ae90f8410be9931ec3f349085c8fdae71" target="_top" xlink:title="parser.Parser.parseFile">
<polygon fill="white" stroke="black" points="2293,-140.691 2293,-159.691 2417,-159.691 2417,-140.691 2293,-140.691"/>
<text text-anchor="middle" x="2355" y="-147.691" font-family="Helvetica,sans-Serif" font-size="10.00">parser.Parser.parseFile</text>
</a>
</g>
</g>
<!-- Node13&#45;&gt;Node14 -->
<g id="edge13" class="edge"><title>Node13&#45;&gt;Node14</title>
<path fill="none" stroke="midnightblue" d="M2237.98,-121.186C2262.79,-127.39 2292.67,-134.858 2315.89,-140.663"/>
<polygon fill="midnightblue" stroke="midnightblue" points="2238.59,-117.731 2228.04,-118.701 2236.89,-124.522 2238.59,-117.731"/>
</g>
<!-- Node19 -->
<g id="node19" class="node"><title>Node19</title>
<g id="a_node19"><a xlink:href="../../d4/d06/classinput_1_1_input_executor.html#a687a9f2cbed5d27a2c7b1336a1cab8aa" target="_top" xlink:title="input.InputExecutor.process\lInput">
<polygon fill="white" stroke="black" points="2280.5,-50.1915 2280.5,-80.1915 2429.5,-80.1915 2429.5,-50.1915 2280.5,-50.1915"/>
<text text-anchor="start" x="2288.5" y="-68.1915" font-family="Helvetica,sans-Serif" font-size="10.00">input.InputExecutor.process</text>
<text text-anchor="middle" x="2355" y="-57.1915" font-family="Helvetica,sans-Serif" font-size="10.00">Input</text>
</a>
</g>
</g>
<!-- Node13&#45;&gt;Node19 -->
<g id="edge18" class="edge"><title>Node13&#45;&gt;Node19</title>
<path fill="none" stroke="midnightblue" d="M2235.36,-97.0228C2254.7,-91.8341 2277.46,-85.7269 2297.85,-80.2569"/>
<polygon fill="midnightblue" stroke="midnightblue" points="2234.34,-93.6723 2225.59,-99.6442 2236.15,-100.433 2234.34,-93.6723"/>
</g>
<!-- Node20 -->
<g id="node20" class="node"><title>Node20</title>
<g id="a_node20"><a xlink:href="../../d5/d56/class_workspace.html#a0ed8fb487512971086b6f3ed0d74e4ae" target="_top" xlink:title="Workspace.sendUserInput">
<polygon fill="white" stroke="black" points="2471,-97.6915 2471,-116.691 2611,-116.691 2611,-97.6915 2471,-97.6915"/>
<text text-anchor="middle" x="2541" y="-104.691" font-family="Helvetica,sans-Serif" font-size="10.00">Workspace.sendUserInput</text>
</a>
</g>
</g>
<!-- Node13&#45;&gt;Node20 -->
<g id="edge19" class="edge"><title>Node13&#45;&gt;Node20</title>
<path fill="none" stroke="midnightblue" d="M2253.86,-108.827C2315.23,-108.476 2407.7,-107.948 2470.79,-107.587"/>
<polygon fill="midnightblue" stroke="midnightblue" points="2253.52,-105.328 2243.54,-108.886 2253.56,-112.328 2253.52,-105.328"/>
</g>
<!-- Node15 -->
<g id="node15" class="node"><title>Node15</title>
<g id="a_node15"><a xlink:href="../../d9/de8/class_file_chooser_feature.html#ad742b8e9d07e8151f0a9ff1972867ce8" target="_top" xlink:title="FileChooserFeature.openFile\lChooser">
<polygon fill="white" stroke="black" points="2466.5,-136.191 2466.5,-166.191 2615.5,-166.191 2615.5,-136.191 2466.5,-136.191"/>
<text text-anchor="start" x="2474.5" y="-154.191" font-family="Helvetica,sans-Serif" font-size="10.00">FileChooserFeature.openFile</text>
<text text-anchor="middle" x="2541" y="-143.191" font-family="Helvetica,sans-Serif" font-size="10.00">Chooser</text>
</a>
</g>
</g>
<!-- Node14&#45;&gt;Node15 -->
<g id="edge14" class="edge"><title>Node14&#45;&gt;Node15</title>
<path fill="none" stroke="midnightblue" d="M2427.17,-150.578C2440.02,-150.648 2453.44,-150.721 2466.35,-150.791"/>
<polygon fill="midnightblue" stroke="midnightblue" points="2427.03,-147.078 2417.01,-150.523 2426.99,-154.077 2427.03,-147.078"/>
</g>
<!-- Node16 -->
<g id="node16" class="node"><title>Node16</title>
<g id="a_node16"><a xlink:href="../../d5/d56/class_workspace.html#a6babd032d9af86fbc23812272d59a2d2" target="_top" xlink:title="Workspace.addFeatureButtons">
<polygon fill="white" stroke="black" points="2652,-139.691 2652,-158.691 2814,-158.691 2814,-139.691 2652,-139.691"/>
<text text-anchor="middle" x="2733" y="-146.691" font-family="Helvetica,sans-Serif" font-size="10.00">Workspace.addFeatureButtons</text>
</a>
</g>
</g>
<!-- Node15&#45;&gt;Node16 -->
<g id="edge15" class="edge"><title>Node15&#45;&gt;Node16</title>
<path fill="none" stroke="midnightblue" d="M2625.77,-150.31C2634.38,-150.219 2643.12,-150.127 2651.7,-150.037"/>
<polygon fill="midnightblue" stroke="midnightblue" points="2625.69,-146.81 2615.73,-150.415 2625.77,-153.81 2625.69,-146.81"/>
</g>
<!-- Node17 -->
<g id="node17" class="node"><title>Node17</title>
<g id="a_node17"><a xlink:href="../../d5/d56/class_workspace.html#a429d535dfd8427637b7715f0b1e1df1b" target="_top" xlink:title="Workspace.createWorkspace">
<polygon fill="white" stroke="black" points="2850,-119.691 2850,-138.691 3002,-138.691 3002,-119.691 2850,-119.691"/>
<text text-anchor="middle" x="2926" y="-126.691" font-family="Helvetica,sans-Serif" font-size="10.00">Workspace.createWorkspace</text>
</a>
</g>
</g>
<!-- Node16&#45;&gt;Node17 -->
<g id="edge16" class="edge"><title>Node16&#45;&gt;Node17</title>
<path fill="none" stroke="midnightblue" d="M2824.22,-139.744C2832.82,-138.844 2841.48,-137.937 2849.91,-137.054"/>
<polygon fill="midnightblue" stroke="midnightblue" points="2823.75,-136.274 2814.17,-140.797 2824.48,-143.236 2823.75,-136.274"/>
</g>
<!-- Node18 -->
<g id="node18" class="node"><title>Node18</title>
<g id="a_node18"><a xlink:href="../../d0/d4b/class_main.html#aaa75b38812324d0f17c89f139bde6ada" target="_top" xlink:title="Main.start">
<polygon fill="white" stroke="black" points="3038.5,-119.691 3038.5,-138.691 3103.5,-138.691 3103.5,-119.691 3038.5,-119.691"/>
<text text-anchor="middle" x="3071" y="-126.691" font-family="Helvetica,sans-Serif" font-size="10.00">Main.start</text>
</a>
</g>
</g>
<!-- Node17&#45;&gt;Node18 -->
<g id="edge17" class="edge"><title>Node17&#45;&gt;Node18</title>
<path fill="none" stroke="midnightblue" d="M3012.39,-129.191C3021.63,-129.191 3030.55,-129.191 3038.5,-129.191"/>
<polygon fill="midnightblue" stroke="midnightblue" points="3012.27,-125.692 3002.27,-129.191 3012.27,-132.692 3012.27,-125.692"/>
</g>
<!-- Node20&#45;&gt;Node17 -->
<g id="edge20" class="edge"><title>Node20&#45;&gt;Node17</title>
<path fill="none" stroke="midnightblue" d="M2621.47,-111.756C2688.6,-115.613 2784.08,-121.097 2849.94,-124.88"/>
<polygon fill="midnightblue" stroke="midnightblue" points="2621.54,-108.255 2611.36,-111.176 2621.14,-115.243 2621.54,-108.255"/>
</g>
<!-- Node21&#45;&gt;Node10 -->
<g id="edge22" class="edge"><title>Node21&#45;&gt;Node10</title>
<path fill="none" stroke="midnightblue" d="M1724.2,-135.439C1748.52,-130.066 1776.95,-123.783 1799.91,-118.712"/>
<polygon fill="midnightblue" stroke="midnightblue" points="1723.41,-132.028 1714.4,-137.602 1724.92,-138.863 1723.41,-132.028"/>
</g>
<!-- Node22&#45;&gt;Node23 -->
<g id="edge27" class="edge"><title>Node22&#45;&gt;Node23</title>
<path fill="none" stroke="midnightblue" d="M1066.6,-219.689C1075.04,-218.687 1083.6,-217.67 1091.91,-216.684"/>
<polygon fill="midnightblue" stroke="midnightblue" points="1065.92,-216.245 1056.4,-220.9 1066.75,-223.196 1065.92,-216.245"/>
</g>
<!-- Node23&#45;&gt;Node8 -->
<g id="edge28" class="edge"><title>Node23&#45;&gt;Node8</title>
<path fill="none" stroke="midnightblue" d="M1222.21,-197.868C1237.75,-195.17 1254.18,-192.316 1269.2,-189.708"/>
<polygon fill="midnightblue" stroke="midnightblue" points="1221.4,-194.456 1212.14,-199.615 1222.6,-201.353 1221.4,-194.456"/>
</g>
<!-- Node24&#45;&gt;Node8 -->
<g id="edge32" class="edge"><title>Node24&#45;&gt;Node8</title>
<path fill="none" stroke="midnightblue" d="M897.453,-298.905C943.457,-294.814 1003.53,-287.984 1056,-277.191 1130.51,-261.866 1148.84,-255.088 1220,-228.191 1250.51,-216.661 1284.61,-200.205 1305.18,-189.866"/>
<polygon fill="midnightblue" stroke="midnightblue" points="896.927,-295.437 887.266,-299.786 897.53,-302.411 896.927,-295.437"/>
</g>
<!-- Node24&#45;&gt;Node9 -->
<g id="edge33" class="edge"><title>Node24&#45;&gt;Node9</title>
<path fill="none" stroke="midnightblue" d="M897.203,-306.883C943.115,-307.567 1003.18,-306.691 1056,-300.191 1211.61,-281.045 1250.69,-262.78 1394,-199.191 1423.58,-186.068 1456.54,-167.774 1475.71,-156.748"/>
<polygon fill="midnightblue" stroke="midnightblue" points="897.099,-303.38 887.039,-306.702 896.975,-310.379 897.099,-303.38"/>
</g>
<!-- Node24&#45;&gt;Node10 -->
<g id="edge34" class="edge"><title>Node24&#45;&gt;Node10</title>
<path fill="none" stroke="midnightblue" d="M883.755,-317.207C888.011,-318.961 892.139,-320.945 896,-323.191 915.832,-334.728 912.167,-348.657 932,-360.191 1020.53,-411.677 1052.59,-418.191 1155,-418.191 1155,-418.191 1155,-418.191 1494,-418.191 1679.32,-418.191 1812.36,-170.934 1838.36,-118.778"/>
<polygon fill="midnightblue" stroke="midnightblue" points="884.883,-313.893 874.29,-313.727 882.468,-320.463 884.883,-313.893"/>
</g>
<!-- Node24&#45;&gt;Node21 -->
<g id="edge36" class="edge"><title>Node24&#45;&gt;Node21</title>
<path fill="none" stroke="midnightblue" d="M870.259,-316.245C955.016,-337.679 1126.7,-380.191 1155,-380.191 1155,-380.191 1155,-380.191 1326,-380.191 1487.61,-380.191 1629.56,-201.004 1662.04,-156.907"/>
<polygon fill="midnightblue" stroke="midnightblue" points="870.923,-312.803 860.37,-313.74 869.204,-319.588 870.923,-312.803"/>
</g>
<!-- Node24&#45;&gt;Node22 -->
<g id="edge35" class="edge"><title>Node24&#45;&gt;Node22</title>
<path fill="none" stroke="midnightblue" d="M851.161,-290.086C873.024,-279.3 904.194,-264.276 932,-252.191 943.585,-247.156 956.592,-241.975 967.61,-237.722"/>
<polygon fill="midnightblue" stroke="midnightblue" points="849.513,-286.997 842.108,-294.573 852.622,-293.269 849.513,-286.997"/>
</g>
<!-- Node24&#45;&gt;Node23 -->
<g id="edge37" class="edge"><title>Node24&#45;&gt;Node23</title>
<path fill="none" stroke="midnightblue" d="M879.248,-292.527C926.783,-282.172 996.446,-265.823 1056,-247.191 1082.71,-238.836 1112.6,-227.006 1132.48,-218.773"/>
<polygon fill="midnightblue" stroke="midnightblue" points="878.486,-289.111 869.452,-294.645 879.965,-295.953 878.486,-289.111"/>
</g>
</g>
</svg>
