<?xml version="1.0" encoding="UTF-8" standalone="no"?>
<!DOCTYPE svg PUBLIC "-//W3C//DTD SVG 1.1//EN"
 "http://www.w3.org/Graphics/SVG/1.1/DTD/svg11.dtd">
<!-- Generated by graphviz version 2.36.0 (20140111.2315)
 -->
<!-- Title: parser.Token.newToken Pages: 1 -->
<!--zoomable 426 -->
<svg id="main" version="1.1" xmlns="http://www.w3.org/2000/svg" xmlns:xlink="http://www.w3.org/1999/xlink" xml:space="preserve" onload="init(evt)">
<style type="text/css"><![CDATA[
.edge:hover path { stroke: red; }
.edge:hover polygon { stroke: red; fill: red; }
]]></style>
<script type="text/javascript"><![CDATA[
var edges = document.getElementsByTagName('g');
if (edges && edges.length) {
  for (var i=0;i<edges.length;i++) {
    if (edges[i].id.substr(0,4)=='edge') {
      edges[i].setAttribute('class','edge');
    }
  }
}
]]></script>
        <defs>
                <circle id="rim" cx="0" cy="0" r="7"/>
                <circle id="rim2" cx="0" cy="0" r="3.5"/>
                <g id="zoomPlus">
                        <use xlink:href="#rim" fill="#404040">
                                <set attributeName="fill" to="#808080" begin="zoomplus.mouseover" end="zoomplus.mouseout"/>
                        </use>
                        <path d="M-4,0h8M0,-4v8" fill="none" stroke="white" stroke-width="1.5" pointer-events="none"/>
                </g>
                <g id="zoomMin">
                        <use xlink:href="#rim" fill="#404040">
                                <set attributeName="fill" to="#808080" begin="zoomminus.mouseover" end="zoomminus.mouseout"/>
                        </use>
                        <path d="M-4,0h8" fill="none" stroke="white" stroke-width="1.5" pointer-events="none"/>
                </g>
                <g id="dirArrow">
                        <path fill="none" stroke="white" stroke-width="1.5" d="M0,-3.0v7 M-2.5,-0.5L0,-3.0L2.5,-0.5"/>
                </g>
               <g id="resetDef">
                       <use xlink:href="#rim2" fill="#404040">
                               <set attributeName="fill" to="#808080" begin="reset.mouseover" end="reset.mouseout"/>
                       </use>
               </g>
        </defs>

<script type="text/javascript">
var viewWidth = 2968;
var viewHeight = 426;
var sectionId = 'dynsection-4';
</script>
<script xlink:href="../../svgpan.js"/>
<svg id="graph" class="graph">
<g id="viewport">
<title>parser.Token.newToken</title>
<polygon fill="white" stroke="none" points="-4,4 -4,-422.191 2964,-422.191 2964,4 -4,4"/>
<!-- Node1 -->
<g id="node1" class="node"><title>Node1</title>
<polygon fill="#bfbfbf" stroke="black" points="0.5,-291.691 0.5,-310.691 125.5,-310.691 125.5,-291.691 0.5,-291.691"/>
<text text-anchor="middle" x="63" y="-298.691" font-family="Helvetica,sans-Serif" font-size="10.00">parser.Token.newToken</text>
</g>
<!-- Node2 -->
<g id="node2" class="node"><title>Node2</title>
<g id="a_node2"><a xlink:href="../../d0/d8c/classparser_1_1_logo_parser_token_manager.html#a105d12f62ad67eda0850987aedc48f4d" target="_top" xlink:title="parser.LogoParserTokenManager.jj\lFillToken">
<polygon fill="white" stroke="black" points="162.5,-308.191 162.5,-338.191 341.5,-338.191 341.5,-308.191 162.5,-308.191"/>
<text text-anchor="start" x="170.5" y="-326.191" font-family="Helvetica,sans-Serif" font-size="10.00">parser.LogoParserTokenManager.jj</text>
<text text-anchor="middle" x="252" y="-315.191" font-family="Helvetica,sans-Serif" font-size="10.00">FillToken</text>
</a>
</g>
</g>
<!-- Node1&#45;&gt;Node2 -->
<g id="edge1" class="edge"><title>Node1&#45;&gt;Node2</title>
<path fill="none" stroke="midnightblue" d="M135.782,-309.636C144.449,-310.656 153.379,-311.707 162.251,-312.75"/>
<polygon fill="midnightblue" stroke="midnightblue" points="136.09,-306.149 125.749,-308.456 135.272,-313.101 136.09,-306.149"/>
</g>
<!-- Node24 -->
<g id="node24" class="node"><title>Node24</title>
<g id="a_node24"><a xlink:href="../../db/df3/classparser_1_1_token.html#a5b65ce3c5308c54cfb89844fd090240e" target="_top" xlink:title="parser.Token.newToken">
<polygon fill="white" stroke="black" points="189.5,-269.691 189.5,-288.691 314.5,-288.691 314.5,-269.691 189.5,-269.691"/>
<text text-anchor="middle" x="252" y="-276.691" font-family="Helvetica,sans-Serif" font-size="10.00">parser.Token.newToken</text>
</a>
</g>
</g>
<!-- Node1&#45;&gt;Node24 -->
<g id="edge37" class="edge"><title>Node1&#45;&gt;Node24</title>
<path fill="none" stroke="midnightblue" d="M135.967,-292.725C153.568,-290.654 172.245,-288.457 189.316,-286.448"/>
<polygon fill="midnightblue" stroke="midnightblue" points="135.272,-289.282 125.749,-293.927 136.09,-296.234 135.272,-289.282"/>
</g>
<!-- Node3 -->
<g id="node3" class="node"><title>Node3</title>
<g id="a_node3"><a xlink:href="../../d0/d8c/classparser_1_1_logo_parser_token_manager.html#a3dee50e2286b70ba662519a865e63b77" target="_top" xlink:title="parser.LogoParserTokenManager.get\lNextToken">
<polygon fill="white" stroke="black" points="378,-308.191 378,-338.191 568,-338.191 568,-308.191 378,-308.191"/>
<text text-anchor="start" x="386" y="-326.191" font-family="Helvetica,sans-Serif" font-size="10.00">parser.LogoParserTokenManager.get</text>
<text text-anchor="middle" x="473" y="-315.191" font-family="Helvetica,sans-Serif" font-size="10.00">NextToken</text>
</a>
</g>
</g>
<!-- Node2&#45;&gt;Node3 -->
<g id="edge2" class="edge"><title>Node2&#45;&gt;Node3</title>
<path fill="none" stroke="midnightblue" d="M351.831,-323.191C360.456,-323.191 369.17,-323.191 377.756,-323.191"/>
<polygon fill="midnightblue" stroke="midnightblue" points="351.76,-319.692 341.76,-323.191 351.76,-326.692 351.76,-319.692"/>
</g>
<!-- Node4 -->
<g id="node4" class="node"><title>Node4</title>
<g id="a_node4"><a xlink:href="../../d5/d0e/classparser_1_1_logo_parser.html#a7477b52c4469ea43d75f88fb805e37a1" target="_top" xlink:title="parser.LogoParser.getNext\lToken">
<polygon fill="white" stroke="black" points="606.5,-371.191 606.5,-401.191 749.5,-401.191 749.5,-371.191 606.5,-371.191"/>
<text text-anchor="start" x="614.5" y="-389.191" font-family="Helvetica,sans-Serif" font-size="10.00">parser.LogoParser.getNext</text>
<text text-anchor="middle" x="678" y="-378.191" font-family="Helvetica,sans-Serif" font-size="10.00">Token</text>
</a>
</g>
</g>
<!-- Node3&#45;&gt;Node4 -->
<g id="edge3" class="edge"><title>Node3&#45;&gt;Node4</title>
<path fill="none" stroke="midnightblue" d="M532.044,-341.205C562.612,-350.692 599.662,-362.19 628.653,-371.187"/>
<polygon fill="midnightblue" stroke="midnightblue" points="532.954,-337.823 522.366,-338.202 530.879,-344.508 532.954,-337.823"/>
</g>
<!-- Node5 -->
<g id="node5" class="node"><title>Node5</title>
<g id="a_node5"><a xlink:href="../../d5/d0e/classparser_1_1_logo_parser.html#a63b7890a7d6323bcf938132f968e8157" target="_top" xlink:title="parser.LogoParser.getToken">
<polygon fill="white" stroke="black" points="604,-332.691 604,-351.691 752,-351.691 752,-332.691 604,-332.691"/>
<text text-anchor="middle" x="678" y="-339.691" font-family="Helvetica,sans-Serif" font-size="10.00">parser.LogoParser.getToken</text>
</a>
</g>
</g>
<!-- Node3&#45;&gt;Node5 -->
<g id="edge4" class="edge"><title>Node3&#45;&gt;Node5</title>
<path fill="none" stroke="midnightblue" d="M578.241,-332.948C586.906,-333.759 595.544,-334.568 603.903,-335.35"/>
<polygon fill="midnightblue" stroke="midnightblue" points="578.355,-329.443 568.072,-331.996 577.702,-336.413 578.355,-329.443"/>
</g>
<!-- Node6 -->
<g id="node6" class="node"><title>Node6</title>
<g id="a_node6"><a xlink:href="../../d5/d0e/classparser_1_1_logo_parser.html#a550039a3180ec86ef01f419aefc02edc" target="_top" xlink:title="parser.LogoParser.jj\l_consume_token">
<polygon fill="white" stroke="black" points="623,-118.191 623,-148.191 733,-148.191 733,-118.191 623,-118.191"/>
<text text-anchor="start" x="631" y="-136.191" font-family="Helvetica,sans-Serif" font-size="10.00">parser.LogoParser.jj</text>
<text text-anchor="middle" x="678" y="-125.191" font-family="Helvetica,sans-Serif" font-size="10.00">_consume_token</text>
</a>
</g>
</g>
<!-- Node3&#45;&gt;Node6 -->
<g id="edge5" class="edge"><title>Node3&#45;&gt;Node6</title>
<path fill="none" stroke="midnightblue" d="M497.787,-300.928C539.628,-261.766 625.329,-181.554 660.935,-148.228"/>
<polygon fill="midnightblue" stroke="midnightblue" points="495.178,-298.575 490.269,-307.964 499.962,-303.686 495.178,-298.575"/>
</g>
<!-- Node23 -->
<g id="node23" class="node"><title>Node23</title>
<g id="a_node23"><a xlink:href="../../d5/d0e/classparser_1_1_logo_parser.html#a2e48e3ab2c1c075beca7bcc54d891afd" target="_top" xlink:title="parser.LogoParser.jj_ntk">
<polygon fill="white" stroke="black" points="613,-294.691 613,-313.691 743,-313.691 743,-294.691 613,-294.691"/>
<text text-anchor="middle" x="678" y="-301.691" font-family="Helvetica,sans-Serif" font-size="10.00">parser.LogoParser.jj_ntk</text>
</a>
</g>
</g>
<!-- Node3&#45;&gt;Node23 -->
<g id="edge30" class="edge"><title>Node3&#45;&gt;Node23</title>
<path fill="none" stroke="midnightblue" d="M578.382,-313.422C590.117,-312.323 601.801,-311.23 612.805,-310.2"/>
<polygon fill="midnightblue" stroke="midnightblue" points="577.702,-309.97 568.072,-314.387 578.355,-316.94 577.702,-309.97"/>
</g>
<!-- Node7 -->
<g id="node7" class="node"><title>Node7</title>
<g id="a_node7"><a xlink:href="../../d5/d0e/classparser_1_1_logo_parser.html#a82acce8328e52f3b2bcb90542cc800b7" target="_top" xlink:title="parser.LogoParser.arithm">
<polygon fill="white" stroke="black" points="1112.5,-170.691 1112.5,-189.691 1249.5,-189.691 1249.5,-170.691 1112.5,-170.691"/>
<text text-anchor="middle" x="1181" y="-177.691" font-family="Helvetica,sans-Serif" font-size="10.00">parser.LogoParser.arithm</text>
</a>
</g>
</g>
<!-- Node6&#45;&gt;Node7 -->
<g id="edge6" class="edge"><title>Node6&#45;&gt;Node7</title>
<path fill="none" stroke="midnightblue" d="M743.135,-139.208C838.082,-148.115 1015.24,-164.735 1112.23,-173.834"/>
<polygon fill="midnightblue" stroke="midnightblue" points="743.375,-135.715 733.092,-138.266 742.721,-142.685 743.375,-135.715"/>
</g>
<!-- Node8 -->
<g id="node8" class="node"><title>Node8</title>
<g id="a_node8"><a xlink:href="../../d5/d0e/classparser_1_1_logo_parser.html#a397c25c39976e5a1fb689e1f0dd40160" target="_top" xlink:title="parser.LogoParser.eval">
<polygon fill="white" stroke="black" points="1286.5,-137.691 1286.5,-156.691 1411.5,-156.691 1411.5,-137.691 1286.5,-137.691"/>
<text text-anchor="middle" x="1349" y="-144.691" font-family="Helvetica,sans-Serif" font-size="10.00">parser.LogoParser.eval</text>
</a>
</g>
</g>
<!-- Node6&#45;&gt;Node8 -->
<g id="edge22" class="edge"><title>Node6&#45;&gt;Node8</title>
<path fill="none" stroke="midnightblue" d="M743.274,-134.537C871.9,-137.228 1159.46,-143.246 1286.1,-145.896"/>
<polygon fill="midnightblue" stroke="midnightblue" points="743.251,-131.035 733.18,-134.325 743.105,-138.034 743.251,-131.035"/>
</g>
<!-- Node9 -->
<g id="node9" class="node"><title>Node9</title>
<g id="a_node9"><a xlink:href="../../d5/d0e/classparser_1_1_logo_parser.html#a6b0ba0c2b5b0bc8c2ef76863fffdb6a3" target="_top" xlink:title="parser.LogoParser.list">
<polygon fill="white" stroke="black" points="1640.5,-99.6915 1640.5,-118.691 1759.5,-118.691 1759.5,-99.6915 1640.5,-99.6915"/>
<text text-anchor="middle" x="1700" y="-106.691" font-family="Helvetica,sans-Serif" font-size="10.00">parser.LogoParser.list</text>
</a>
</g>
</g>
<!-- Node6&#45;&gt;Node9 -->
<g id="edge24" class="edge"><title>Node6&#45;&gt;Node9</title>
<path fill="none" stroke="midnightblue" d="M713.389,-113.063C734.334,-101.597 761.989,-87.8373 788,-79.1915 883.628,-47.406 910.228,-38.1915 1011,-38.1915 1011,-38.1915 1011,-38.1915 1350,-38.1915 1471.81,-38.1915 1612.82,-80.2362 1671.34,-99.6161"/>
<polygon fill="midnightblue" stroke="midnightblue" points="711.594,-110.056 704.559,-117.978 714.998,-116.173 711.594,-110.056"/>
</g>
<!-- Node10 -->
<g id="node10" class="node"><title>Node10</title>
<g id="a_node10"><a xlink:href="../../d5/d0e/classparser_1_1_logo_parser.html#a4a8825534e0488215d22bcd947bc4d41" target="_top" xlink:title="parser.LogoParser.expression">
<polygon fill="white" stroke="black" points="1796.5,-26.6915 1796.5,-45.6915 1953.5,-45.6915 1953.5,-26.6915 1796.5,-26.6915"/>
<text text-anchor="middle" x="1875" y="-33.6915" font-family="Helvetica,sans-Serif" font-size="10.00">parser.LogoParser.expression</text>
</a>
</g>
</g>
<!-- Node6&#45;&gt;Node10 -->
<g id="edge23" class="edge"><title>Node6&#45;&gt;Node10</title>
<path fill="none" stroke="midnightblue" d="M698.529,-110.712C718.682,-89.0544 752.153,-57.1518 788,-40.1915 879.02,2.87243 910.307,-0.191495 1011,-0.191495 1011,-0.191495 1011,-0.191495 1527,-0.191495 1629.81,-0.191495 1748.85,-16.0201 1817.39,-26.6858"/>
<polygon fill="midnightblue" stroke="midnightblue" points="695.873,-108.43 691.727,-118.18 701.048,-113.143 695.873,-108.43"/>
</g>
<!-- Node20 -->
<g id="node20" class="node"><title>Node20</title>
<g id="a_node20"><a xlink:href="../../d5/d0e/classparser_1_1_logo_parser.html#ad6ed8e51959a6e19a2323444aa8331c8" target="_top" xlink:title="parser.LogoParser.statement">
<polygon fill="white" stroke="black" points="1448.5,-137.691 1448.5,-156.691 1603.5,-156.691 1603.5,-137.691 1448.5,-137.691"/>
<text text-anchor="middle" x="1526" y="-144.691" font-family="Helvetica,sans-Serif" font-size="10.00">parser.LogoParser.statement</text>
</a>
</g>
</g>
<!-- Node6&#45;&gt;Node20 -->
<g id="edge28" class="edge"><title>Node6&#45;&gt;Node20</title>
<path fill="none" stroke="midnightblue" d="M742.757,-115.613C809.191,-98.8657 916.574,-76.1915 1011,-76.1915 1011,-76.1915 1011,-76.1915 1182,-76.1915 1301.8,-76.1915 1440.34,-118.236 1497.83,-137.616"/>
<polygon fill="midnightblue" stroke="midnightblue" points="741.68,-112.275 732.857,-118.141 743.413,-119.057 741.68,-112.275"/>
</g>
<!-- Node21 -->
<g id="node21" class="node"><title>Node21</title>
<g id="a_node21"><a xlink:href="../../d5/d0e/classparser_1_1_logo_parser.html#a4bdaeff6df067fde6743ff07370c3b0b" target="_top" xlink:title="parser.LogoParser.pow">
<polygon fill="white" stroke="black" points="788,-218.691 788,-237.691 912,-237.691 912,-218.691 788,-218.691"/>
<text text-anchor="middle" x="850" y="-225.691" font-family="Helvetica,sans-Serif" font-size="10.00">parser.LogoParser.pow</text>
</a>
</g>
</g>
<!-- Node6&#45;&gt;Node21 -->
<g id="edge25" class="edge"><title>Node6&#45;&gt;Node21</title>
<path fill="none" stroke="midnightblue" d="M707.863,-154.305C729.29,-169.398 759.596,-189.545 788,-204.191 798.519,-209.616 810.559,-214.594 821.148,-218.593"/>
<polygon fill="midnightblue" stroke="midnightblue" points="709.717,-151.329 699.54,-148.383 705.658,-157.032 709.717,-151.329"/>
</g>
<!-- Node22 -->
<g id="node22" class="node"><title>Node22</title>
<g id="a_node22"><a xlink:href="../../d5/d0e/classparser_1_1_logo_parser.html#a34f4226672a2711ce2691162fdb2124d" target="_top" xlink:title="parser.LogoParser.term">
<polygon fill="white" stroke="black" points="948,-199.691 948,-218.691 1076,-218.691 1076,-199.691 948,-199.691"/>
<text text-anchor="middle" x="1012" y="-206.691" font-family="Helvetica,sans-Serif" font-size="10.00">parser.LogoParser.term</text>
</a>
</g>
</g>
<!-- Node6&#45;&gt;Node22 -->
<g id="edge29" class="edge"><title>Node6&#45;&gt;Node22</title>
<path fill="none" stroke="midnightblue" d="M734.638,-151.248C751.662,-156.444 770.51,-161.87 788,-166.191 843.502,-179.905 907.673,-191.879 952.886,-199.684"/>
<polygon fill="midnightblue" stroke="midnightblue" points="735.437,-147.831 724.85,-148.225 733.372,-154.52 735.437,-147.831"/>
</g>
<!-- Node7&#45;&gt;Node8 -->
<g id="edge7" class="edge"><title>Node7&#45;&gt;Node8</title>
<path fill="none" stroke="midnightblue" d="M1240.06,-168.649C1259.68,-164.749 1281.35,-160.441 1300.09,-156.715"/>
<polygon fill="midnightblue" stroke="midnightblue" points="1239.14,-165.264 1230.01,-170.647 1240.5,-172.129 1239.14,-165.264"/>
</g>
<!-- Node8&#45;&gt;Node9 -->
<g id="edge8" class="edge"><title>Node8&#45;&gt;Node9</title>
<path fill="none" stroke="midnightblue" d="M1403.06,-135.741C1417.58,-132.926 1433.35,-130.16 1448,-128.191 1513.62,-119.377 1589.48,-114.341 1640.47,-111.699"/>
<polygon fill="midnightblue" stroke="midnightblue" points="1402.37,-132.309 1393.24,-137.687 1403.73,-139.176 1402.37,-132.309"/>
</g>
<!-- Node8&#45;&gt;Node20 -->
<g id="edge20" class="edge"><title>Node8&#45;&gt;Node20</title>
<path fill="none" stroke="midnightblue" d="M1421.8,-147.191C1430.51,-147.191 1439.44,-147.191 1448.22,-147.191"/>
<polygon fill="midnightblue" stroke="midnightblue" points="1421.7,-143.692 1411.7,-147.191 1421.7,-150.692 1421.7,-143.692"/>
</g>
<!-- Node9&#45;&gt;Node10 -->
<g id="edge9" class="edge"><title>Node9&#45;&gt;Node10</title>
<path fill="none" stroke="midnightblue" d="M1733.2,-95.6054C1767.58,-81.0949 1821.2,-58.472 1851.38,-45.7373"/>
<polygon fill="midnightblue" stroke="midnightblue" points="1731.47,-92.5356 1723.62,-99.648 1734.19,-98.9849 1731.47,-92.5356"/>
</g>
<!-- Node11 -->
<g id="node11" class="node"><title>Node11</title>
<g id="a_node11"><a xlink:href="../../d5/d0e/classparser_1_1_logo_parser.html#adefe3b97ad0d2d7fd0dcd13f7ef2c75e" target="_top" xlink:title="parser.LogoParser.parse">
<polygon fill="white" stroke="black" points="1809,-99.6915 1809,-118.691 1941,-118.691 1941,-99.6915 1809,-99.6915"/>
<text text-anchor="middle" x="1875" y="-106.691" font-family="Helvetica,sans-Serif" font-size="10.00">parser.LogoParser.parse</text>
</a>
</g>
</g>
<!-- Node9&#45;&gt;Node11 -->
<g id="edge10" class="edge"><title>Node9&#45;&gt;Node11</title>
<path fill="none" stroke="midnightblue" d="M1769.78,-109.191C1782.7,-109.191 1796.16,-109.191 1808.95,-109.191"/>
<polygon fill="midnightblue" stroke="midnightblue" points="1769.57,-105.692 1759.57,-109.191 1769.57,-112.692 1769.57,-105.692"/>
</g>
<!-- Node12 -->
<g id="node12" class="node"><title>Node12</title>
<g id="a_node12"><a xlink:href="../../d6/d95/classparser_1_1_parser.html#af3d0cef45b9f02f1707959c08d8f3797" target="_top" xlink:title="parser.Parser.parse">
<polygon fill="white" stroke="black" points="1990.5,-99.6915 1990.5,-118.691 2099.5,-118.691 2099.5,-99.6915 1990.5,-99.6915"/>
<text text-anchor="middle" x="2045" y="-106.691" font-family="Helvetica,sans-Serif" font-size="10.00">parser.Parser.parse</text>
</a>
</g>
</g>
<!-- Node11&#45;&gt;Node12 -->
<g id="edge11" class="edge"><title>Node11&#45;&gt;Node12</title>
<path fill="none" stroke="midnightblue" d="M1951.8,-109.191C1964.83,-109.191 1978.12,-109.191 1990.41,-109.191"/>
<polygon fill="midnightblue" stroke="midnightblue" points="1951.43,-105.692 1941.43,-109.191 1951.43,-112.692 1951.43,-105.692"/>
</g>
<!-- Node13 -->
<g id="node13" class="node"><title>Node13</title>
<g id="a_node13"><a xlink:href="../../d6/d95/classparser_1_1_parser.html#ae90f8410be9931ec3f349085c8fdae71" target="_top" xlink:title="parser.Parser.parseFile">
<polygon fill="white" stroke="black" points="2149,-140.691 2149,-159.691 2273,-159.691 2273,-140.691 2149,-140.691"/>
<text text-anchor="middle" x="2211" y="-147.691" font-family="Helvetica,sans-Serif" font-size="10.00">parser.Parser.parseFile</text>
</a>
</g>
</g>
<!-- Node12&#45;&gt;Node13 -->
<g id="edge12" class="edge"><title>Node12&#45;&gt;Node13</title>
<path fill="none" stroke="midnightblue" d="M2093.98,-121.186C2118.79,-127.39 2148.67,-134.858 2171.89,-140.663"/>
<polygon fill="midnightblue" stroke="midnightblue" points="2094.59,-117.731 2084.04,-118.701 2092.89,-124.522 2094.59,-117.731"/>
</g>
<!-- Node18 -->
<g id="node18" class="node"><title>Node18</title>
<g id="a_node18"><a xlink:href="../../d4/d06/classinput_1_1_input_executor.html#a687a9f2cbed5d27a2c7b1336a1cab8aa" target="_top" xlink:title="input.InputExecutor.process\lInput">
<polygon fill="white" stroke="black" points="2136.5,-50.1915 2136.5,-80.1915 2285.5,-80.1915 2285.5,-50.1915 2136.5,-50.1915"/>
<text text-anchor="start" x="2144.5" y="-68.1915" font-family="Helvetica,sans-Serif" font-size="10.00">input.InputExecutor.process</text>
<text text-anchor="middle" x="2211" y="-57.1915" font-family="Helvetica,sans-Serif" font-size="10.00">Input</text>
</a>
</g>
</g>
<!-- Node12&#45;&gt;Node18 -->
<g id="edge17" class="edge"><title>Node12&#45;&gt;Node18</title>
<path fill="none" stroke="midnightblue" d="M2091.36,-97.0228C2110.7,-91.8341 2133.46,-85.7269 2153.85,-80.2569"/>
<polygon fill="midnightblue" stroke="midnightblue" points="2090.34,-93.6723 2081.59,-99.6442 2092.15,-100.433 2090.34,-93.6723"/>
</g>
<!-- Node19 -->
<g id="node19" class="node"><title>Node19</title>
<g id="a_node19"><a xlink:href="../../d5/d56/class_workspace.html#a0ed8fb487512971086b6f3ed0d74e4ae" target="_top" xlink:title="Workspace.sendUserInput">
<polygon fill="white" stroke="black" points="2327,-97.6915 2327,-116.691 2467,-116.691 2467,-97.6915 2327,-97.6915"/>
<text text-anchor="middle" x="2397" y="-104.691" font-family="Helvetica,sans-Serif" font-size="10.00">Workspace.sendUserInput</text>
</a>
</g>
</g>
<!-- Node12&#45;&gt;Node19 -->
<g id="edge18" class="edge"><title>Node12&#45;&gt;Node19</title>
<path fill="none" stroke="midnightblue" d="M2109.86,-108.827C2171.23,-108.476 2263.7,-107.948 2326.79,-107.587"/>
<polygon fill="midnightblue" stroke="midnightblue" points="2109.52,-105.328 2099.54,-108.886 2109.56,-112.328 2109.52,-105.328"/>
</g>
<!-- Node14 -->
<g id="node14" class="node"><title>Node14</title>
<g id="a_node14"><a xlink:href="../../d9/de8/class_file_chooser_feature.html#ad742b8e9d07e8151f0a9ff1972867ce8" target="_top" xlink:title="FileChooserFeature.openFile\lChooser">
<polygon fill="white" stroke="black" points="2322.5,-136.191 2322.5,-166.191 2471.5,-166.191 2471.5,-136.191 2322.5,-136.191"/>
<text text-anchor="start" x="2330.5" y="-154.191" font-family="Helvetica,sans-Serif" font-size="10.00">FileChooserFeature.openFile</text>
<text text-anchor="middle" x="2397" y="-143.191" font-family="Helvetica,sans-Serif" font-size="10.00">Chooser</text>
</a>
</g>
</g>
<!-- Node13&#45;&gt;Node14 -->
<g id="edge13" class="edge"><title>Node13&#45;&gt;Node14</title>
<path fill="none" stroke="midnightblue" d="M2283.17,-150.578C2296.02,-150.648 2309.44,-150.721 2322.35,-150.791"/>
<polygon fill="midnightblue" stroke="midnightblue" points="2283.03,-147.078 2273.01,-150.523 2282.99,-154.077 2283.03,-147.078"/>
</g>
<!-- Node15 -->
<g id="node15" class="node"><title>Node15</title>
<g id="a_node15"><a xlink:href="../../d5/d56/class_workspace.html#a6babd032d9af86fbc23812272d59a2d2" target="_top" xlink:title="Workspace.addFeatureButtons">
<polygon fill="white" stroke="black" points="2508,-139.691 2508,-158.691 2670,-158.691 2670,-139.691 2508,-139.691"/>
<text text-anchor="middle" x="2589" y="-146.691" font-family="Helvetica,sans-Serif" font-size="10.00">Workspace.addFeatureButtons</text>
</a>
</g>
</g>
<!-- Node14&#45;&gt;Node15 -->
<g id="edge14" class="edge"><title>Node14&#45;&gt;Node15</title>
<path fill="none" stroke="midnightblue" d="M2481.77,-150.31C2490.38,-150.219 2499.12,-150.127 2507.7,-150.037"/>
<polygon fill="midnightblue" stroke="midnightblue" points="2481.69,-146.81 2471.73,-150.415 2481.77,-153.81 2481.69,-146.81"/>
</g>
<!-- Node16 -->
<g id="node16" class="node"><title>Node16</title>
<g id="a_node16"><a xlink:href="../../d5/d56/class_workspace.html#a429d535dfd8427637b7715f0b1e1df1b" target="_top" xlink:title="Workspace.createWorkspace">
<polygon fill="white" stroke="black" points="2706,-119.691 2706,-138.691 2858,-138.691 2858,-119.691 2706,-119.691"/>
<text text-anchor="middle" x="2782" y="-126.691" font-family="Helvetica,sans-Serif" font-size="10.00">Workspace.createWorkspace</text>
</a>
</g>
</g>
<!-- Node15&#45;&gt;Node16 -->
<g id="edge15" class="edge"><title>Node15&#45;&gt;Node16</title>
<path fill="none" stroke="midnightblue" d="M2680.22,-139.744C2688.82,-138.844 2697.48,-137.937 2705.91,-137.054"/>
<polygon fill="midnightblue" stroke="midnightblue" points="2679.75,-136.274 2670.17,-140.797 2680.48,-143.236 2679.75,-136.274"/>
</g>
<!-- Node17 -->
<g id="node17" class="node"><title>Node17</title>
<g id="a_node17"><a xlink:href="../../d0/d4b/class_main.html#aaa75b38812324d0f17c89f139bde6ada" target="_top" xlink:title="Main.start">
<polygon fill="white" stroke="black" points="2894.5,-119.691 2894.5,-138.691 2959.5,-138.691 2959.5,-119.691 2894.5,-119.691"/>
<text text-anchor="middle" x="2927" y="-126.691" font-family="Helvetica,sans-Serif" font-size="10.00">Main.start</text>
</a>
</g>
</g>
<!-- Node16&#45;&gt;Node17 -->
<g id="edge16" class="edge"><title>Node16&#45;&gt;Node17</title>
<path fill="none" stroke="midnightblue" d="M2868.39,-129.191C2877.63,-129.191 2886.55,-129.191 2894.5,-129.191"/>
<polygon fill="midnightblue" stroke="midnightblue" points="2868.27,-125.692 2858.27,-129.191 2868.27,-132.692 2868.27,-125.692"/>
</g>
<!-- Node19&#45;&gt;Node16 -->
<g id="edge19" class="edge"><title>Node19&#45;&gt;Node16</title>
<path fill="none" stroke="midnightblue" d="M2477.47,-111.756C2544.6,-115.613 2640.08,-121.097 2705.94,-124.88"/>
<polygon fill="midnightblue" stroke="midnightblue" points="2477.54,-108.255 2467.36,-111.176 2477.14,-115.243 2477.54,-108.255"/>
</g>
<!-- Node20&#45;&gt;Node9 -->
<g id="edge21" class="edge"><title>Node20&#45;&gt;Node9</title>
<path fill="none" stroke="midnightblue" d="M1580.2,-135.439C1604.52,-130.066 1632.95,-123.783 1655.91,-118.712"/>
<polygon fill="midnightblue" stroke="midnightblue" points="1579.41,-132.028 1570.4,-137.602 1580.92,-138.863 1579.41,-132.028"/>
</g>
<!-- Node21&#45;&gt;Node22 -->
<g id="edge26" class="edge"><title>Node21&#45;&gt;Node22</title>
<path fill="none" stroke="midnightblue" d="M922.604,-219.689C931.039,-218.687 939.601,-217.67 947.907,-216.684"/>
<polygon fill="midnightblue" stroke="midnightblue" points="921.92,-216.245 912.403,-220.9 922.746,-223.196 921.92,-216.245"/>
</g>
<!-- Node22&#45;&gt;Node7 -->
<g id="edge27" class="edge"><title>Node22&#45;&gt;Node7</title>
<path fill="none" stroke="midnightblue" d="M1078.21,-197.868C1093.75,-195.17 1110.18,-192.316 1125.2,-189.708"/>
<polygon fill="midnightblue" stroke="midnightblue" points="1077.4,-194.456 1068.14,-199.615 1078.6,-201.353 1077.4,-194.456"/>
</g>
<!-- Node23&#45;&gt;Node7 -->
<g id="edge31" class="edge"><title>Node23&#45;&gt;Node7</title>
<path fill="none" stroke="midnightblue" d="M753.453,-298.905C799.457,-294.814 859.528,-287.984 912,-277.191 986.513,-261.866 1004.84,-255.088 1076,-228.191 1106.51,-216.661 1140.61,-200.205 1161.18,-189.866"/>
<polygon fill="midnightblue" stroke="midnightblue" points="752.927,-295.437 743.266,-299.786 753.53,-302.411 752.927,-295.437"/>
</g>
<!-- Node23&#45;&gt;Node8 -->
<g id="edge32" class="edge"><title>Node23&#45;&gt;Node8</title>
<path fill="none" stroke="midnightblue" d="M753.203,-306.883C799.115,-307.567 859.176,-306.691 912,-300.191 1067.61,-281.045 1106.69,-262.78 1250,-199.191 1279.58,-186.068 1312.54,-167.774 1331.71,-156.748"/>
<polygon fill="midnightblue" stroke="midnightblue" points="753.099,-303.38 743.039,-306.702 752.975,-310.379 753.099,-303.38"/>
</g>
<!-- Node23&#45;&gt;Node9 -->
<g id="edge33" class="edge"><title>Node23&#45;&gt;Node9</title>
<path fill="none" stroke="midnightblue" d="M739.755,-317.207C744.011,-318.961 748.139,-320.945 752,-323.191 771.832,-334.728 768.167,-348.657 788,-360.191 876.525,-411.677 908.591,-418.191 1011,-418.191 1011,-418.191 1011,-418.191 1350,-418.191 1535.32,-418.191 1668.36,-170.934 1694.36,-118.778"/>
<polygon fill="midnightblue" stroke="midnightblue" points="740.883,-313.893 730.29,-313.727 738.468,-320.463 740.883,-313.893"/>
</g>
<!-- Node23&#45;&gt;Node20 -->
<g id="edge35" class="edge"><title>Node23&#45;&gt;Node20</title>
<path fill="none" stroke="midnightblue" d="M726.259,-316.245C811.016,-337.679 982.697,-380.191 1011,-380.191 1011,-380.191 1011,-380.191 1182,-380.191 1343.61,-380.191 1485.56,-201.004 1518.04,-156.907"/>
<polygon fill="midnightblue" stroke="midnightblue" points="726.923,-312.803 716.37,-313.74 725.204,-319.588 726.923,-312.803"/>
</g>
<!-- Node23&#45;&gt;Node21 -->
<g id="edge34" class="edge"><title>Node23&#45;&gt;Node21</title>
<path fill="none" stroke="midnightblue" d="M707.161,-290.086C729.024,-279.3 760.194,-264.276 788,-252.191 799.585,-247.156 812.592,-241.975 823.61,-237.722"/>
<polygon fill="midnightblue" stroke="midnightblue" points="705.513,-286.997 698.108,-294.573 708.622,-293.269 705.513,-286.997"/>
</g>
<!-- Node23&#45;&gt;Node22 -->
<g id="edge36" class="edge"><title>Node23&#45;&gt;Node22</title>
<path fill="none" stroke="midnightblue" d="M735.248,-292.527C782.783,-282.172 852.446,-265.823 912,-247.191 938.707,-238.836 968.601,-227.006 988.482,-218.773"/>
<polygon fill="midnightblue" stroke="midnightblue" points="734.486,-289.111 725.452,-294.645 735.965,-295.953 734.486,-289.111"/>
</g>
</g>
</svg>
        <g id="navigator" transform="translate(0 0)" fill="#404254">
                <rect fill="#f2f5e9" fill-opacity="0.5" stroke="#606060" stroke-width=".5" x="0" y="0" width="60" height="60"/>
                <use id="zoomplus" xlink:href="#zoomPlus" x="17" y="9" onmousedown="handleZoom(evt,'in')"/>
                <use id="zoomminus" xlink:href="#zoomMin" x="42" y="9" onmousedown="handleZoom(evt,'out')"/>
                <use id="reset" xlink:href="#resetDef" x="30" y="36" onmousedown="handleReset()"/>
                <g id="arrowUp" xlink:href="#dirArrow" transform="translate(30 24)" onmousedown="handlePan(0,-1)">
                  <use xlink:href="#rim" fill="#404040">
                        <set attributeName="fill" to="#808080" begin="arrowUp.mouseover" end="arrowUp.mouseout"/>
                  </use>
                  <path fill="none" stroke="white" stroke-width="1.5" d="M0,-3.0v7 M-2.5,-0.5L0,-3.0L2.5,-0.5"/>
                </g>
                <g id="arrowRight" xlink:href="#dirArrow" transform="rotate(90) translate(36 -43)" onmousedown="handlePan(1,0)">
                  <use xlink:href="#rim" fill="#404040">
                        <set attributeName="fill" to="#808080" begin="arrowRight.mouseover" end="arrowRight.mouseout"/>
                  </use>
                  <path fill="none" stroke="white" stroke-width="1.5" d="M0,-3.0v7 M-2.5,-0.5L0,-3.0L2.5,-0.5"/>
                </g>
                <g id="arrowDown" xlink:href="#dirArrow" transform="rotate(180) translate(-30 -48)" onmousedown="handlePan(0,1)">
                  <use xlink:href="#rim" fill="#404040">
                        <set attributeName="fill" to="#808080" begin="arrowDown.mouseover" end="arrowDown.mouseout"/>
                  </use>
                  <path fill="none" stroke="white" stroke-width="1.5" d="M0,-3.0v7 M-2.5,-0.5L0,-3.0L2.5,-0.5"/>
                </g>
                <g id="arrowLeft" xlink:href="#dirArrow" transform="rotate(270) translate(-36 17)" onmousedown="handlePan(-1,0)">
                  <use xlink:href="#rim" fill="#404040">
                        <set attributeName="fill" to="#808080" begin="arrowLeft.mouseover" end="arrowLeft.mouseout"/>
                  </use>
                  <path fill="none" stroke="white" stroke-width="1.5" d="M0,-3.0v7 M-2.5,-0.5L0,-3.0L2.5,-0.5"/>
                </g>
        </g>
        <svg viewBox="0 0 15 15" width="100%" height="30px" preserveAspectRatio="xMaxYMin meet">
         <g id="arrow_out" transform="scale(0.3 0.3)">
          <a xlink:href="classparser_1_1_token_ae26c3dba3bc9315a3fc688514f51c9bf_icgraph_org.svg" target="_base">
           <rect id="button" ry="5" rx="5" y="6" x="6" height="38" width="38"
                fill="#f2f5e9" fill-opacity="0.5" stroke="#606060" stroke-width="1.0"/>
           <path id="arrow"
             d="M 11.500037,31.436501 C 11.940474,20.09759 22.043105,11.32322 32.158766,21.979434 L 37.068811,17.246167 C 37.068811,17.246167 37.088388,32 37.088388,32 L 22.160133,31.978069 C 22.160133,31.978069 26.997745,27.140456 26.997745,27.140456 C 18.528582,18.264221 13.291696,25.230495 11.500037,31.436501 z"
             style="fill:#404040;"/>
          </a>
         </g>
        </svg>
</svg>
