<?xml version="1.0" encoding="UTF-8" standalone="no"?>
<!DOCTYPE svg PUBLIC "-//W3C//DTD SVG 1.1//EN"
 "http://www.w3.org/Graphics/SVG/1.1/DTD/svg11.dtd">
<!-- Generated by graphviz version 2.36.0 (20140111.2315)
 -->
<!-- Title: parser.Token.newToken Pages: 1 -->
<svg width="440pt" height="28pt"
 viewBox="0.00 0.00 440.00 28.00" xmlns="http://www.w3.org/2000/svg" xmlns:xlink="http://www.w3.org/1999/xlink">
<g id="graph0" class="graph" transform="scale(1 1) rotate(0) translate(4 24)">
<title>parser.Token.newToken</title>
<polygon fill="white" stroke="none" points="-4,4 -4,-24 436,-24 436,4 -4,4"/>
<!-- Node1 -->
<g id="node1" class="node"><title>Node1</title>
<polygon fill="#bfbfbf" stroke="black" points="0.5,-0.5 0.5,-19.5 125.5,-19.5 125.5,-0.5 0.5,-0.5"/>
<text text-anchor="middle" x="63" y="-7.5" font-family="Helvetica,sans-Serif" font-size="10.00">parser.Token.newToken</text>
</g>
<!-- Node2 -->
<g id="node2" class="node"><title>Node2</title>
<g id="a_node2"><a xlink:href="../../db/df3/classparser_1_1_token.html#ae26c3dba3bc9315a3fc688514f51c9bf" target="_top" xlink:title="parser.Token.newToken">
<polygon fill="white" stroke="black" points="162.5,-0.5 162.5,-19.5 287.5,-19.5 287.5,-0.5 162.5,-0.5"/>
<text text-anchor="middle" x="225" y="-7.5" font-family="Helvetica,sans-Serif" font-size="10.00">parser.Token.newToken</text>
</a>
</g>
</g>
<!-- Node1&#45;&gt;Node2 -->
<g id="edge1" class="edge"><title>Node1&#45;&gt;Node2</title>
<path fill="none" stroke="midnightblue" d="M125.86,-10C134.456,-10 143.347,-10 152.107,-10"/>
<polygon fill="midnightblue" stroke="midnightblue" points="152.304,-13.5001 162.304,-10 152.304,-6.5001 152.304,-13.5001"/>
</g>
<!-- Node3 -->
<g id="node3" class="node"><title>Node3</title>
<g id="a_node3"><a xlink:href="../../db/df3/classparser_1_1_token.html#aee7a764d984c5f071e40e215c400fc3d" target="_top" xlink:title="parser.Token.Token">
<polygon fill="white" stroke="black" points="324.5,-0.5 324.5,-19.5 431.5,-19.5 431.5,-0.5 324.5,-0.5"/>
<text text-anchor="middle" x="378" y="-7.5" font-family="Helvetica,sans-Serif" font-size="10.00">parser.Token.Token</text>
</a>
</g>
</g>
<!-- Node2&#45;&gt;Node3 -->
<g id="edge2" class="edge"><title>Node2&#45;&gt;Node3</title>
<path fill="none" stroke="midnightblue" d="M287.853,-10C296.517,-10 305.429,-10 314.112,-10"/>
<polygon fill="midnightblue" stroke="midnightblue" points="314.171,-13.5001 324.171,-10 314.171,-6.5001 314.171,-13.5001"/>
</g>
</g>
</svg>
