<?xml version="1.0" encoding="UTF-8" standalone="no"?>
<!DOCTYPE svg PUBLIC "-//W3C//DTD SVG 1.1//EN"
 "http://www.w3.org/Graphics/SVG/1.1/DTD/svg11.dtd">
<!-- Generated by graphviz version 2.36.0 (20140111.2315)
 -->
<!-- Title: HelpPage.HelpPage.start Pages: 1 -->
<svg width="838pt" height="28pt"
 viewBox="0.00 0.00 838.00 28.00" xmlns="http://www.w3.org/2000/svg" xmlns:xlink="http://www.w3.org/1999/xlink">
<g id="graph0" class="graph" transform="scale(1 1) rotate(0) translate(4 24)">
<title>HelpPage.HelpPage.start</title>
<polygon fill="white" stroke="none" points="-4,4 -4,-24 834,-24 834,4 -4,4"/>
<!-- Node1 -->
<g id="node1" class="node"><title>Node1</title>
<polygon fill="#bfbfbf" stroke="black" points="0.5,-0.5 0.5,-19.5 135.5,-19.5 135.5,-0.5 0.5,-0.5"/>
<text text-anchor="middle" x="68" y="-7.5" font-family="Helvetica,sans-Serif" font-size="10.00">HelpPage.HelpPage.start</text>
</g>
<!-- Node2 -->
<g id="node2" class="node"><title>Node2</title>
<g id="a_node2"><a xlink:href="../../d1/d77/class_help_page_feature.html#af29d724d332dfa7893942d1ee1a8334f" target="_top" xlink:title="HelpPageFeature.openHelpPage">
<polygon fill="white" stroke="black" points="172,-0.5 172,-19.5 342,-19.5 342,-0.5 172,-0.5"/>
<text text-anchor="middle" x="257" y="-7.5" font-family="Helvetica,sans-Serif" font-size="10.00">HelpPageFeature.openHelpPage</text>
</a>
</g>
</g>
<!-- Node1&#45;&gt;Node2 -->
<g id="edge1" class="edge"><title>Node1&#45;&gt;Node2</title>
<path fill="none" stroke="midnightblue" d="M145.759,-10C154.405,-10 163.247,-10 171.979,-10"/>
<polygon fill="midnightblue" stroke="midnightblue" points="145.719,-6.5001 135.719,-10 145.719,-13.5001 145.719,-6.5001"/>
</g>
<!-- Node3 -->
<g id="node3" class="node"><title>Node3</title>
<g id="a_node3"><a xlink:href="../../d5/d56/class_workspace.html#a6babd032d9af86fbc23812272d59a2d2" target="_top" xlink:title="Workspace.addFeatureButtons">
<polygon fill="white" stroke="black" points="378,-0.5 378,-19.5 540,-19.5 540,-0.5 378,-0.5"/>
<text text-anchor="middle" x="459" y="-7.5" font-family="Helvetica,sans-Serif" font-size="10.00">Workspace.addFeatureButtons</text>
</a>
</g>
</g>
<!-- Node2&#45;&gt;Node3 -->
<g id="edge2" class="edge"><title>Node2&#45;&gt;Node3</title>
<path fill="none" stroke="midnightblue" d="M352.48,-10C360.911,-10 369.395,-10 377.69,-10"/>
<polygon fill="midnightblue" stroke="midnightblue" points="352.238,-6.5001 342.238,-10 352.238,-13.5001 352.238,-6.5001"/>
</g>
<!-- Node4 -->
<g id="node4" class="node"><title>Node4</title>
<g id="a_node4"><a xlink:href="../../d5/d56/class_workspace.html#a429d535dfd8427637b7715f0b1e1df1b" target="_top" xlink:title="Workspace.createWorkspace">
<polygon fill="white" stroke="black" points="576,-0.5 576,-19.5 728,-19.5 728,-0.5 576,-0.5"/>
<text text-anchor="middle" x="652" y="-7.5" font-family="Helvetica,sans-Serif" font-size="10.00">Workspace.createWorkspace</text>
</a>
</g>
</g>
<!-- Node3&#45;&gt;Node4 -->
<g id="edge3" class="edge"><title>Node3&#45;&gt;Node4</title>
<path fill="none" stroke="midnightblue" d="M550.223,-10C558.822,-10 567.479,-10 575.912,-10"/>
<polygon fill="midnightblue" stroke="midnightblue" points="550.171,-6.5001 540.171,-10 550.171,-13.5001 550.171,-6.5001"/>
</g>
<!-- Node5 -->
<g id="node5" class="node"><title>Node5</title>
<g id="a_node5"><a xlink:href="../../d0/d4b/class_main.html#aaa75b38812324d0f17c89f139bde6ada" target="_top" xlink:title="Main.start">
<polygon fill="white" stroke="black" points="764.5,-0.5 764.5,-19.5 829.5,-19.5 829.5,-0.5 764.5,-0.5"/>
<text text-anchor="middle" x="797" y="-7.5" font-family="Helvetica,sans-Serif" font-size="10.00">Main.start</text>
</a>
</g>
</g>
<!-- Node4&#45;&gt;Node5 -->
<g id="edge4" class="edge"><title>Node4&#45;&gt;Node5</title>
<path fill="none" stroke="midnightblue" d="M738.392,-10C747.632,-10 756.551,-10 764.498,-10"/>
<polygon fill="midnightblue" stroke="midnightblue" points="738.269,-6.5001 728.269,-10 738.269,-13.5001 738.269,-6.5001"/>
</g>
</g>
</svg>
