<?xml version="1.0" encoding="UTF-8" standalone="no"?>
<!DOCTYPE svg PUBLIC "-//W3C//DTD SVG 1.1//EN"
 "http://www.w3.org/Graphics/SVG/1.1/DTD/svg11.dtd">
<!-- Generated by graphviz version 2.36.0 (20140111.2315)
 -->
<!-- Title: input.InputExecutor.InputExecutor Pages: 1 -->
<svg width="316pt" height="38pt"
 viewBox="0.00 0.00 316.00 38.00" xmlns="http://www.w3.org/2000/svg" xmlns:xlink="http://www.w3.org/1999/xlink">
<g id="graph0" class="graph" transform="scale(1 1) rotate(0) translate(4 34)">
<title>input.InputExecutor.InputExecutor</title>
<polygon fill="white" stroke="none" points="-4,4 -4,-34 312,-34 312,4 -4,4"/>
<!-- Node1 -->
<g id="node1" class="node"><title>Node1</title>
<polygon fill="#bfbfbf" stroke="black" points="0,-0 0,-30 136,-30 136,-0 0,-0"/>
<text text-anchor="start" x="8" y="-18" font-family="Helvetica,sans-Serif" font-size="10.00">input.InputExecutor.Input</text>
<text text-anchor="middle" x="68" y="-7" font-family="Helvetica,sans-Serif" font-size="10.00">Executor</text>
</g>
<!-- Node2 -->
<g id="node2" class="node"><title>Node2</title>
<g id="a_node2"><a xlink:href="../../d6/d95/classparser_1_1_parser.html#a2e10a9bf4d53ebaa4f800dfd2953b510" target="_top" xlink:title="parser.Parser.createLogo\lParser">
<polygon fill="white" stroke="black" points="172,-0 172,-30 308,-30 308,-0 172,-0"/>
<text text-anchor="start" x="180" y="-18" font-family="Helvetica,sans-Serif" font-size="10.00">parser.Parser.createLogo</text>
<text text-anchor="middle" x="240" y="-7" font-family="Helvetica,sans-Serif" font-size="10.00">Parser</text>
</a>
</g>
</g>
<!-- Node1&#45;&gt;Node2 -->
<g id="edge1" class="edge"><title>Node1&#45;&gt;Node2</title>
<path fill="none" stroke="midnightblue" d="M136.189,-15C144.502,-15 153.054,-15 161.506,-15"/>
<polygon fill="midnightblue" stroke="midnightblue" points="161.743,-18.5001 171.743,-15 161.743,-11.5001 161.743,-18.5001"/>
</g>
</g>
</svg>
