<?xml version="1.0" encoding="UTF-8" standalone="no"?>
<!DOCTYPE svg PUBLIC "-//W3C//DTD SVG 1.1//EN"
 "http://www.w3.org/Graphics/SVG/1.1/DTD/svg11.dtd">
<!-- Generated by graphviz version 2.36.0 (20140111.2315)
 -->
<!-- Title: parser.ParseException.add_escapes Pages: 1 -->
<svg width="540pt" height="38pt"
 viewBox="0.00 0.00 540.00 38.00" xmlns="http://www.w3.org/2000/svg" xmlns:xlink="http://www.w3.org/1999/xlink">
<g id="graph0" class="graph" transform="scale(1 1) rotate(0) translate(4 34)">
<title>parser.ParseException.add_escapes</title>
<polygon fill="white" stroke="none" points="-4,4 -4,-34 536,-34 536,4 -4,4"/>
<!-- Node1 -->
<g id="node1" class="node"><title>Node1</title>
<polygon fill="#bfbfbf" stroke="black" points="0.5,-0 0.5,-30 143.5,-30 143.5,-0 0.5,-0"/>
<text text-anchor="start" x="8.5" y="-18" font-family="Helvetica,sans-Serif" font-size="10.00">parser.ParseException.add</text>
<text text-anchor="middle" x="72" y="-7" font-family="Helvetica,sans-Serif" font-size="10.00">_escapes</text>
</g>
<!-- Node2 -->
<g id="node2" class="node"><title>Node2</title>
<g id="a_node2"><a xlink:href="../../d3/dd9/classparser_1_1_parse_exception.html#a4e0b21350c67d8c92e984f0d7e1ff980" target="_top" xlink:title="parser.ParseException.initialise">
<polygon fill="white" stroke="black" points="180,-5.5 180,-24.5 344,-24.5 344,-5.5 180,-5.5"/>
<text text-anchor="middle" x="262" y="-12.5" font-family="Helvetica,sans-Serif" font-size="10.00">parser.ParseException.initialise</text>
</a>
</g>
</g>
<!-- Node1&#45;&gt;Node2 -->
<g id="edge1" class="edge"><title>Node1&#45;&gt;Node2</title>
<path fill="none" stroke="midnightblue" d="M153.669,-15C162.375,-15 171.237,-15 179.948,-15"/>
<polygon fill="midnightblue" stroke="midnightblue" points="153.539,-11.5001 143.539,-15 153.539,-18.5001 153.539,-11.5001"/>
</g>
<!-- Node3 -->
<g id="node3" class="node"><title>Node3</title>
<g id="a_node3"><a xlink:href="../../d3/dd9/classparser_1_1_parse_exception.html#a818085fb6e6497e310f0224b815f7e21" target="_top" xlink:title="parser.ParseException.Parse\lException">
<polygon fill="white" stroke="black" points="380,-0 380,-30 532,-30 532,-0 380,-0"/>
<text text-anchor="start" x="388" y="-18" font-family="Helvetica,sans-Serif" font-size="10.00">parser.ParseException.Parse</text>
<text text-anchor="middle" x="456" y="-7" font-family="Helvetica,sans-Serif" font-size="10.00">Exception</text>
</a>
</g>
</g>
<!-- Node2&#45;&gt;Node3 -->
<g id="edge2" class="edge"><title>Node2&#45;&gt;Node3</title>
<path fill="none" stroke="midnightblue" d="M354.221,-15C362.837,-15 371.505,-15 379.945,-15"/>
<polygon fill="midnightblue" stroke="midnightblue" points="354.147,-11.5001 344.147,-15 354.147,-18.5001 354.147,-11.5001"/>
</g>
</g>
</svg>
