<?xml version="1.0" encoding="UTF-8" standalone="no"?>
<!DOCTYPE svg PUBLIC "-//W3C//DTD SVG 1.1//EN"
 "http://www.w3.org/Graphics/SVG/1.1/DTD/svg11.dtd">
<!-- Generated by graphviz version 2.36.0 (20140111.2315)
 -->
<!-- Title: parser.ParseException.ParseException Pages: 1 -->
<svg width="540pt" height="38pt"
 viewBox="0.00 0.00 540.00 38.00" xmlns="http://www.w3.org/2000/svg" xmlns:xlink="http://www.w3.org/1999/xlink">
<g id="graph0" class="graph" transform="scale(1 1) rotate(0) translate(4 34)">
<title>parser.ParseException.ParseException</title>
<polygon fill="white" stroke="none" points="-4,4 -4,-34 536,-34 536,4 -4,4"/>
<!-- Node1 -->
<g id="node1" class="node"><title>Node1</title>
<polygon fill="#bfbfbf" stroke="black" points="0,-0 0,-30 152,-30 152,-0 0,-0"/>
<text text-anchor="start" x="8" y="-18" font-family="Helvetica,sans-Serif" font-size="10.00">parser.ParseException.Parse</text>
<text text-anchor="middle" x="76" y="-7" font-family="Helvetica,sans-Serif" font-size="10.00">Exception</text>
</g>
<!-- Node2 -->
<g id="node2" class="node"><title>Node2</title>
<g id="a_node2"><a xlink:href="../../d3/dd9/classparser_1_1_parse_exception.html#a4e0b21350c67d8c92e984f0d7e1ff980" target="_top" xlink:title="parser.ParseException.initialise">
<polygon fill="white" stroke="black" points="188,-5.5 188,-24.5 352,-24.5 352,-5.5 188,-5.5"/>
<text text-anchor="middle" x="270" y="-12.5" font-family="Helvetica,sans-Serif" font-size="10.00">parser.ParseException.initialise</text>
</a>
</g>
</g>
<!-- Node1&#45;&gt;Node2 -->
<g id="edge1" class="edge"><title>Node1&#45;&gt;Node2</title>
<path fill="none" stroke="midnightblue" d="M152.057,-15C160.524,-15 169.219,-15 177.862,-15"/>
<polygon fill="midnightblue" stroke="midnightblue" points="177.966,-18.5001 187.966,-15 177.966,-11.5001 177.966,-18.5001"/>
</g>
<!-- Node3 -->
<g id="node3" class="node"><title>Node3</title>
<g id="a_node3"><a xlink:href="../../d3/dd9/classparser_1_1_parse_exception.html#a184434cbfe52a30deadeaf6e2300d1ba" target="_top" xlink:title="parser.ParseException.add\l_escapes">
<polygon fill="white" stroke="black" points="388.5,-0 388.5,-30 531.5,-30 531.5,-0 388.5,-0"/>
<text text-anchor="start" x="396.5" y="-18" font-family="Helvetica,sans-Serif" font-size="10.00">parser.ParseException.add</text>
<text text-anchor="middle" x="460" y="-7" font-family="Helvetica,sans-Serif" font-size="10.00">_escapes</text>
</a>
</g>
</g>
<!-- Node2&#45;&gt;Node3 -->
<g id="edge2" class="edge"><title>Node2&#45;&gt;Node3</title>
<path fill="none" stroke="midnightblue" d="M352.093,-15C360.736,-15 369.527,-15 378.167,-15"/>
<polygon fill="midnightblue" stroke="midnightblue" points="378.222,-18.5001 388.222,-15 378.222,-11.5001 378.222,-18.5001"/>
</g>
</g>
</svg>
