<?xml version="1.0" encoding="UTF-8" standalone="no"?>
<!DOCTYPE svg PUBLIC "-//W3C//DTD SVG 1.1//EN"
 "http://www.w3.org/Graphics/SVG/1.1/DTD/svg11.dtd">
<!-- Generated by graphviz version 2.36.0 (20140111.2315)
 -->
<!-- Title: parser.SimpleCharStream.UpdateLineColumn Pages: 1 -->
<svg width="4938pt" height="779pt"
 viewBox="0.00 0.00 4938.00 778.70" xmlns="http://www.w3.org/2000/svg" xmlns:xlink="http://www.w3.org/1999/xlink">
<g id="graph0" class="graph" transform="scale(1 1) rotate(0) translate(4 774.698)">
<title>parser.SimpleCharStream.UpdateLineColumn</title>
<polygon fill="white" stroke="none" points="-4,4 -4,-774.698 4934,-774.698 4934,4 -4,4"/>
<!-- Node1 -->
<g id="node1" class="node"><title>Node1</title>
<polygon fill="#bfbfbf" stroke="black" points="0,-500 0,-530 144,-530 144,-500 0,-500"/>
<text text-anchor="start" x="8" y="-518" font-family="Helvetica,sans-Serif" font-size="10.00">parser.SimpleCharStream.</text>
<text text-anchor="middle" x="72" y="-507" font-family="Helvetica,sans-Serif" font-size="10.00">UpdateLineColumn</text>
</g>
<!-- Node2 -->
<g id="node2" class="node"><title>Node2</title>
<g id="a_node2"><a xlink:href="../../d4/dad/classparser_1_1_simple_char_stream.html#a9f80cee02b99e8e200afa646e3b25e29" target="_top" xlink:title="parser.SimpleCharStream.readChar">
<polygon fill="white" stroke="black" points="180,-505.5 180,-524.5 368,-524.5 368,-505.5 180,-505.5"/>
<text text-anchor="middle" x="274" y="-512.5" font-family="Helvetica,sans-Serif" font-size="10.00">parser.SimpleCharStream.readChar</text>
</a>
</g>
</g>
<!-- Node1&#45;&gt;Node2 -->
<g id="edge1" class="edge"><title>Node1&#45;&gt;Node2</title>
<path fill="none" stroke="midnightblue" d="M154.229,-515C162.641,-515 171.238,-515 179.768,-515"/>
<polygon fill="midnightblue" stroke="midnightblue" points="154.076,-511.5 144.076,-515 154.076,-518.5 154.076,-511.5"/>
</g>
<!-- Node3 -->
<g id="node3" class="node"><title>Node3</title>
<g id="a_node3"><a xlink:href="../../d4/dad/classparser_1_1_simple_char_stream.html#ad35e1457d139a5986c04f7975065d03d" target="_top" xlink:title="parser.SimpleCharStream.\lBeginToken">
<polygon fill="white" stroke="black" points="854,-687 854,-717 998,-717 998,-687 854,-687"/>
<text text-anchor="start" x="862" y="-705" font-family="Helvetica,sans-Serif" font-size="10.00">parser.SimpleCharStream.</text>
<text text-anchor="middle" x="926" y="-694" font-family="Helvetica,sans-Serif" font-size="10.00">BeginToken</text>
</a>
</g>
</g>
<!-- Node2&#45;&gt;Node3 -->
<g id="edge2" class="edge"><title>Node2&#45;&gt;Node3</title>
<path fill="none" stroke="midnightblue" d="M283.823,-533.754C301.228,-568.309 343.606,-641.302 404,-672 549.784,-746.1 748.997,-730.621 853.822,-715.046"/>
<polygon fill="midnightblue" stroke="midnightblue" points="286.943,-532.167 279.406,-524.721 280.655,-535.242 286.943,-532.167"/>
</g>
<!-- Node4 -->
<g id="node4" class="node"><title>Node4</title>
<g id="a_node4"><a xlink:href="../../d0/d8c/classparser_1_1_logo_parser_token_manager.html#a3dee50e2286b70ba662519a865e63b77" target="_top" xlink:title="parser.LogoParserTokenManager.get\lNextToken">
<polygon fill="white" stroke="black" points="2348,-643 2348,-673 2538,-673 2538,-643 2348,-643"/>
<text text-anchor="start" x="2356" y="-661" font-family="Helvetica,sans-Serif" font-size="10.00">parser.LogoParserTokenManager.get</text>
<text text-anchor="middle" x="2443" y="-650" font-family="Helvetica,sans-Serif" font-size="10.00">NextToken</text>
</a>
</g>
</g>
<!-- Node2&#45;&gt;Node4 -->
<g id="edge38" class="edge"><title>Node2&#45;&gt;Node4</title>
<path fill="none" stroke="midnightblue" d="M291.95,-531.76C315.13,-553.601 358.998,-591.215 404,-610 530.635,-662.859 571.776,-658 709,-658 709,-658 709,-658 2007,-658 2124.43,-658 2259.7,-658 2347.81,-658"/>
<polygon fill="midnightblue" stroke="midnightblue" points="294.284,-529.149 284.646,-524.749 289.437,-534.199 294.284,-529.149"/>
</g>
<!-- Node25 -->
<g id="node25" class="node"><title>Node25</title>
<g id="a_node25"><a xlink:href="../../d0/d8c/classparser_1_1_logo_parser_token_manager.html#a0071f141b41b403c8ab151c8c014a709" target="_top" xlink:title="parser.LogoParserTokenManager.jj\lMoveNfa_0">
<polygon fill="white" stroke="black" points="404.5,-197 404.5,-227 583.5,-227 583.5,-197 404.5,-197"/>
<text text-anchor="start" x="412.5" y="-215" font-family="Helvetica,sans-Serif" font-size="10.00">parser.LogoParserTokenManager.jj</text>
<text text-anchor="middle" x="494" y="-204" font-family="Helvetica,sans-Serif" font-size="10.00">MoveNfa_0</text>
</a>
</g>
</g>
<!-- Node2&#45;&gt;Node25 -->
<g id="edge39" class="edge"><title>Node2&#45;&gt;Node25</title>
<path fill="none" stroke="midnightblue" d="M280.461,-495.666C294.254,-449.809 334.434,-332.925 404,-261 417.979,-246.547 437.157,-235.249 454.132,-227.162"/>
<polygon fill="midnightblue" stroke="midnightblue" points="277.034,-494.915 277.586,-505.495 283.753,-496.88 277.034,-494.915"/>
</g>
<!-- Node28 -->
<g id="node28" class="node"><title>Node28</title>
<g id="a_node28"><a xlink:href="../../d0/d8c/classparser_1_1_logo_parser_token_manager.html#a99a01f0b68908e628349e9f09a2cbccd" target="_top" xlink:title="parser.LogoParserTokenManager.jj\lMoveStringLiteralDfa1_0">
<polygon fill="white" stroke="black" points="1916.5,-504 1916.5,-534 2095.5,-534 2095.5,-504 1916.5,-504"/>
<text text-anchor="start" x="1924.5" y="-522" font-family="Helvetica,sans-Serif" font-size="10.00">parser.LogoParserTokenManager.jj</text>
<text text-anchor="middle" x="2006" y="-511" font-family="Helvetica,sans-Serif" font-size="10.00">MoveStringLiteralDfa1_0</text>
</a>
</g>
</g>
<!-- Node2&#45;&gt;Node28 -->
<g id="edge62" class="edge"><title>Node2&#45;&gt;Node28</title>
<path fill="none" stroke="midnightblue" d="M300.455,-529.535C325.868,-543.389 366.443,-563.755 404,-575 535.265,-614.303 571.977,-620 709,-620 709,-620 709,-620 1359,-620 1578.94,-620 1835.99,-562.147 1948,-534.012"/>
<polygon fill="midnightblue" stroke="midnightblue" points="301.94,-526.357 291.496,-524.577 298.551,-532.482 301.94,-526.357"/>
</g>
<!-- Node29 -->
<g id="node29" class="node"><title>Node29</title>
<g id="a_node29"><a xlink:href="../../d0/d8c/classparser_1_1_logo_parser_token_manager.html#a26eaeb3ef169f93c03edbb3e26128b7a" target="_top" xlink:title="parser.LogoParserTokenManager.jj\lMoveStringLiteralDfa2_0">
<polygon fill="white" stroke="black" points="1700.5,-485 1700.5,-515 1879.5,-515 1879.5,-485 1700.5,-485"/>
<text text-anchor="start" x="1708.5" y="-503" font-family="Helvetica,sans-Serif" font-size="10.00">parser.LogoParserTokenManager.jj</text>
<text text-anchor="middle" x="1790" y="-492" font-family="Helvetica,sans-Serif" font-size="10.00">MoveStringLiteralDfa2_0</text>
</a>
</g>
</g>
<!-- Node2&#45;&gt;Node29 -->
<g id="edge63" class="edge"><title>Node2&#45;&gt;Node29</title>
<path fill="none" stroke="midnightblue" d="M321.696,-527.021C400.819,-546.303 566.538,-582 709,-582 709,-582 709,-582 927,-582 1210.56,-582 1544.23,-537.482 1700.23,-514.05"/>
<polygon fill="midnightblue" stroke="midnightblue" points="322.119,-523.521 311.573,-524.528 320.445,-530.318 322.119,-523.521"/>
</g>
<!-- Node30 -->
<g id="node30" class="node"><title>Node30</title>
<g id="a_node30"><a xlink:href="../../d0/d8c/classparser_1_1_logo_parser_token_manager.html#a12bfedaecfaf646642cb1aba5b1bd6fb" target="_top" xlink:title="parser.LogoParserTokenManager.jj\lMoveStringLiteralDfa3_0">
<polygon fill="white" stroke="black" points="1484.5,-415 1484.5,-445 1663.5,-445 1663.5,-415 1484.5,-415"/>
<text text-anchor="start" x="1492.5" y="-433" font-family="Helvetica,sans-Serif" font-size="10.00">parser.LogoParserTokenManager.jj</text>
<text text-anchor="middle" x="1574" y="-422" font-family="Helvetica,sans-Serif" font-size="10.00">MoveStringLiteralDfa3_0</text>
</a>
</g>
</g>
<!-- Node2&#45;&gt;Node30 -->
<g id="edge64" class="edge"><title>Node2&#45;&gt;Node30</title>
<path fill="none" stroke="midnightblue" d="M378.289,-508.952C582.634,-496.864 1052.94,-468.43 1448,-440 1459.73,-439.156 1472.07,-438.223 1484.24,-437.277"/>
<polygon fill="midnightblue" stroke="midnightblue" points="377.944,-505.466 368.168,-509.55 378.358,-512.454 377.944,-505.466"/>
</g>
<!-- Node31 -->
<g id="node31" class="node"><title>Node31</title>
<g id="a_node31"><a xlink:href="../../d0/d8c/classparser_1_1_logo_parser_token_manager.html#aa9aaf3af52d382735345487d2b89e0cf" target="_top" xlink:title="parser.LogoParserTokenManager.jj\lMoveStringLiteralDfa4_0">
<polygon fill="white" stroke="black" points="1268.5,-279 1268.5,-309 1447.5,-309 1447.5,-279 1268.5,-279"/>
<text text-anchor="start" x="1276.5" y="-297" font-family="Helvetica,sans-Serif" font-size="10.00">parser.LogoParserTokenManager.jj</text>
<text text-anchor="middle" x="1358" y="-286" font-family="Helvetica,sans-Serif" font-size="10.00">MoveStringLiteralDfa4_0</text>
</a>
</g>
</g>
<!-- Node2&#45;&gt;Node31 -->
<g id="edge65" class="edge"><title>Node2&#45;&gt;Node31</title>
<path fill="none" stroke="midnightblue" d="M276.024,-495.338C280.21,-437.147 301.153,-264.989 404,-187 697.331,35.4335 886.106,-82.9976 1232,-209 1275.4,-224.809 1318.21,-259.057 1340.72,-278.917"/>
<polygon fill="midnightblue" stroke="midnightblue" points="272.526,-495.195 275.391,-505.395 279.512,-495.635 272.526,-495.195"/>
</g>
<!-- Node32 -->
<g id="node32" class="node"><title>Node32</title>
<g id="a_node32"><a xlink:href="../../d0/d8c/classparser_1_1_logo_parser_token_manager.html#a4553920ced069b9d4852f1c1020bea38" target="_top" xlink:title="parser.LogoParserTokenManager.jj\lMoveStringLiteralDfa5_0">
<polygon fill="white" stroke="black" points="1052.5,-279 1052.5,-309 1231.5,-309 1231.5,-279 1052.5,-279"/>
<text text-anchor="start" x="1060.5" y="-297" font-family="Helvetica,sans-Serif" font-size="10.00">parser.LogoParserTokenManager.jj</text>
<text text-anchor="middle" x="1142" y="-286" font-family="Helvetica,sans-Serif" font-size="10.00">MoveStringLiteralDfa5_0</text>
</a>
</g>
</g>
<!-- Node2&#45;&gt;Node32 -->
<g id="edge66" class="edge"><title>Node2&#45;&gt;Node32</title>
<path fill="none" stroke="midnightblue" d="M296.537,-499.438C321.341,-482.175 363.849,-454.578 404,-438 626.179,-346.267 910.614,-311.975 1052.38,-299.967"/>
<polygon fill="midnightblue" stroke="midnightblue" points="294.393,-496.667 288.237,-505.291 298.427,-502.388 294.393,-496.667"/>
</g>
<!-- Node33 -->
<g id="node33" class="node"><title>Node33</title>
<g id="a_node33"><a xlink:href="../../d0/d8c/classparser_1_1_logo_parser_token_manager.html#a1bad232a9ce95d19e7133cbee0b538b5" target="_top" xlink:title="parser.LogoParserTokenManager.jj\lMoveStringLiteralDfa6_0">
<polygon fill="white" stroke="black" points="836.5,-257 836.5,-287 1015.5,-287 1015.5,-257 836.5,-257"/>
<text text-anchor="start" x="844.5" y="-275" font-family="Helvetica,sans-Serif" font-size="10.00">parser.LogoParserTokenManager.jj</text>
<text text-anchor="middle" x="926" y="-264" font-family="Helvetica,sans-Serif" font-size="10.00">MoveStringLiteralDfa6_0</text>
</a>
</g>
</g>
<!-- Node2&#45;&gt;Node33 -->
<g id="edge67" class="edge"><title>Node2&#45;&gt;Node33</title>
<path fill="none" stroke="midnightblue" d="M280.175,-495.314C292.838,-451.564 329.905,-346.604 404,-302 545.854,-216.606 750.683,-237.844 856.286,-256.989"/>
<polygon fill="midnightblue" stroke="midnightblue" points="276.776,-494.473 277.473,-505.045 283.521,-496.345 276.776,-494.473"/>
</g>
<!-- Node34 -->
<g id="node34" class="node"><title>Node34</title>
<g id="a_node34"><a xlink:href="../../d0/d8c/classparser_1_1_logo_parser_token_manager.html#a94b20a17d94554012918e876be221c46" target="_top" xlink:title="parser.LogoParserTokenManager.jj\lStartNfaWithStates_0">
<polygon fill="white" stroke="black" points="620.5,-396 620.5,-426 799.5,-426 799.5,-396 620.5,-396"/>
<text text-anchor="start" x="628.5" y="-414" font-family="Helvetica,sans-Serif" font-size="10.00">parser.LogoParserTokenManager.jj</text>
<text text-anchor="middle" x="710" y="-403" font-family="Helvetica,sans-Serif" font-size="10.00">StartNfaWithStates_0</text>
</a>
</g>
</g>
<!-- Node2&#45;&gt;Node34 -->
<g id="edge68" class="edge"><title>Node2&#45;&gt;Node34</title>
<path fill="none" stroke="midnightblue" d="M324.401,-503.162C403.62,-484.179 558.984,-446.949 646.046,-426.086"/>
<polygon fill="midnightblue" stroke="midnightblue" points="323.574,-499.761 314.665,-505.495 325.205,-506.568 323.574,-499.761"/>
</g>
<!-- Node3&#45;&gt;Node4 -->
<g id="edge3" class="edge"><title>Node3&#45;&gt;Node4</title>
<path fill="none" stroke="midnightblue" d="M1008.15,-701.097C1094.6,-700.213 1235.46,-699 1357,-699 1357,-699 1357,-699 2007,-699 2124.77,-699 2259.68,-683.921 2347.63,-672.053"/>
<polygon fill="midnightblue" stroke="midnightblue" points="1008.1,-697.597 998.14,-701.2 1008.18,-704.597 1008.1,-697.597"/>
</g>
<!-- Node5 -->
<g id="node5" class="node"><title>Node5</title>
<g id="a_node5"><a xlink:href="../../d5/d0e/classparser_1_1_logo_parser.html#a7477b52c4469ea43d75f88fb805e37a1" target="_top" xlink:title="parser.LogoParser.getNext\lToken">
<polygon fill="white" stroke="black" points="2576.5,-709 2576.5,-739 2719.5,-739 2719.5,-709 2576.5,-709"/>
<text text-anchor="start" x="2584.5" y="-727" font-family="Helvetica,sans-Serif" font-size="10.00">parser.LogoParser.getNext</text>
<text text-anchor="middle" x="2648" y="-716" font-family="Helvetica,sans-Serif" font-size="10.00">Token</text>
</a>
</g>
</g>
<!-- Node4&#45;&gt;Node5 -->
<g id="edge4" class="edge"><title>Node4&#45;&gt;Node5</title>
<path fill="none" stroke="midnightblue" d="M2499.88,-676.166C2531.5,-686.449 2570.59,-699.158 2600.53,-708.892"/>
<polygon fill="midnightblue" stroke="midnightblue" points="2500.91,-672.822 2490.32,-673.059 2498.75,-679.479 2500.91,-672.822"/>
</g>
<!-- Node6 -->
<g id="node6" class="node"><title>Node6</title>
<g id="a_node6"><a xlink:href="../../d5/d0e/classparser_1_1_logo_parser.html#a63b7890a7d6323bcf938132f968e8157" target="_top" xlink:title="parser.LogoParser.getToken">
<polygon fill="white" stroke="black" points="2574,-670.5 2574,-689.5 2722,-689.5 2722,-670.5 2574,-670.5"/>
<text text-anchor="middle" x="2648" y="-677.5" font-family="Helvetica,sans-Serif" font-size="10.00">parser.LogoParser.getToken</text>
</a>
</g>
</g>
<!-- Node4&#45;&gt;Node6 -->
<g id="edge5" class="edge"><title>Node4&#45;&gt;Node6</title>
<path fill="none" stroke="midnightblue" d="M2548.24,-669.297C2556.91,-670.236 2565.54,-671.172 2573.9,-672.078"/>
<polygon fill="midnightblue" stroke="midnightblue" points="2548.39,-665.793 2538.07,-668.195 2547.64,-672.752 2548.39,-665.793"/>
</g>
<!-- Node7 -->
<g id="node7" class="node"><title>Node7</title>
<g id="a_node7"><a xlink:href="../../d5/d0e/classparser_1_1_logo_parser.html#a550039a3180ec86ef01f419aefc02edc" target="_top" xlink:title="parser.LogoParser.jj\l_consume_token">
<polygon fill="white" stroke="black" points="2593,-621 2593,-651 2703,-651 2703,-621 2593,-621"/>
<text text-anchor="start" x="2601" y="-639" font-family="Helvetica,sans-Serif" font-size="10.00">parser.LogoParser.jj</text>
<text text-anchor="middle" x="2648" y="-628" font-family="Helvetica,sans-Serif" font-size="10.00">_consume_token</text>
</a>
</g>
</g>
<!-- Node4&#45;&gt;Node7 -->
<g id="edge6" class="edge"><title>Node4&#45;&gt;Node7</title>
<path fill="none" stroke="midnightblue" d="M2548.21,-646.706C2563.64,-645.034 2578.99,-643.371 2592.82,-641.871"/>
<polygon fill="midnightblue" stroke="midnightblue" points="2547.64,-643.248 2538.07,-647.805 2548.39,-650.207 2547.64,-643.248"/>
</g>
<!-- Node24 -->
<g id="node24" class="node"><title>Node24</title>
<g id="a_node24"><a xlink:href="../../d5/d0e/classparser_1_1_logo_parser.html#a2e48e3ab2c1c075beca7bcc54d891afd" target="_top" xlink:title="parser.LogoParser.jj_ntk">
<polygon fill="white" stroke="black" points="2583,-455.5 2583,-474.5 2713,-474.5 2713,-455.5 2583,-455.5"/>
<text text-anchor="middle" x="2648" y="-462.5" font-family="Helvetica,sans-Serif" font-size="10.00">parser.LogoParser.jj_ntk</text>
</a>
</g>
</g>
<!-- Node4&#45;&gt;Node24 -->
<g id="edge31" class="edge"><title>Node4&#45;&gt;Node24</title>
<path fill="none" stroke="midnightblue" d="M2467.32,-635.832C2511.47,-593.854 2605.65,-504.315 2636.78,-474.72"/>
<polygon fill="midnightblue" stroke="midnightblue" points="2464.76,-633.429 2459.93,-642.856 2469.59,-638.502 2464.76,-633.429"/>
</g>
<!-- Node8 -->
<g id="node8" class="node"><title>Node8</title>
<g id="a_node8"><a xlink:href="../../d5/d0e/classparser_1_1_logo_parser.html#a82acce8328e52f3b2bcb90542cc800b7" target="_top" xlink:title="parser.LogoParser.arithm">
<polygon fill="white" stroke="black" points="3082.5,-569.5 3082.5,-588.5 3219.5,-588.5 3219.5,-569.5 3082.5,-569.5"/>
<text text-anchor="middle" x="3151" y="-576.5" font-family="Helvetica,sans-Serif" font-size="10.00">parser.LogoParser.arithm</text>
</a>
</g>
</g>
<!-- Node7&#45;&gt;Node8 -->
<g id="edge7" class="edge"><title>Node7&#45;&gt;Node8</title>
<path fill="none" stroke="midnightblue" d="M2713.14,-628.703C2808.08,-617.901 2985.24,-597.745 3082.23,-586.71"/>
<polygon fill="midnightblue" stroke="midnightblue" points="2712.63,-625.238 2703.09,-629.846 2713.42,-632.193 2712.63,-625.238"/>
</g>
<!-- Node9 -->
<g id="node9" class="node"><title>Node9</title>
<g id="a_node9"><a xlink:href="../../d5/d0e/classparser_1_1_logo_parser.html#a397c25c39976e5a1fb689e1f0dd40160" target="_top" xlink:title="parser.LogoParser.eval">
<polygon fill="white" stroke="black" points="3256.5,-607.5 3256.5,-626.5 3381.5,-626.5 3381.5,-607.5 3256.5,-607.5"/>
<text text-anchor="middle" x="3319" y="-614.5" font-family="Helvetica,sans-Serif" font-size="10.00">parser.LogoParser.eval</text>
</a>
</g>
</g>
<!-- Node7&#45;&gt;Node9 -->
<g id="edge23" class="edge"><title>Node7&#45;&gt;Node9</title>
<path fill="none" stroke="midnightblue" d="M2713.15,-634.807C2759.95,-633.892 2824.91,-632.529 2882,-631 3015.43,-627.426 3171.8,-622.137 3256.27,-619.189"/>
<polygon fill="midnightblue" stroke="midnightblue" points="2713.08,-631.308 2703.15,-635.001 2713.21,-638.306 2713.08,-631.308"/>
</g>
<!-- Node10 -->
<g id="node10" class="node"><title>Node10</title>
<g id="a_node10"><a xlink:href="../../d5/d0e/classparser_1_1_logo_parser.html#a6b0ba0c2b5b0bc8c2ef76863fffdb6a3" target="_top" xlink:title="parser.LogoParser.list">
<polygon fill="white" stroke="black" points="3610.5,-645.5 3610.5,-664.5 3729.5,-664.5 3729.5,-645.5 3610.5,-645.5"/>
<text text-anchor="middle" x="3670" y="-652.5" font-family="Helvetica,sans-Serif" font-size="10.00">parser.LogoParser.list</text>
</a>
</g>
</g>
<!-- Node7&#45;&gt;Node10 -->
<g id="edge25" class="edge"><title>Node7&#45;&gt;Node10</title>
<path fill="none" stroke="midnightblue" d="M2709.88,-655.009C2714.05,-656.871 2718.13,-658.868 2722,-661 2739.99,-670.923 2739.32,-681.436 2758,-690 2849.6,-732.007 2880.23,-731 2981,-731 2981,-731 2981,-731 3320,-731 3443.4,-731 3585.84,-685.076 3643.15,-664.625"/>
<polygon fill="midnightblue" stroke="midnightblue" points="2711.21,-651.771 2700.63,-651.149 2708.51,-658.231 2711.21,-651.771"/>
</g>
<!-- Node11 -->
<g id="node11" class="node"><title>Node11</title>
<g id="a_node11"><a xlink:href="../../d5/d0e/classparser_1_1_logo_parser.html#a4a8825534e0488215d22bcd947bc4d41" target="_top" xlink:title="parser.LogoParser.expression">
<polygon fill="white" stroke="black" points="3766.5,-721.5 3766.5,-740.5 3923.5,-740.5 3923.5,-721.5 3766.5,-721.5"/>
<text text-anchor="middle" x="3845" y="-728.5" font-family="Helvetica,sans-Serif" font-size="10.00">parser.LogoParser.expression</text>
</a>
</g>
</g>
<!-- Node7&#45;&gt;Node11 -->
<g id="edge24" class="edge"><title>Node7&#45;&gt;Node11</title>
<path fill="none" stroke="midnightblue" d="M2712.15,-654.161C2715.63,-656.208 2718.95,-658.479 2722,-661 2746.86,-681.548 2731.85,-705.121 2758,-724 2839.97,-783.19 2879.89,-769 2981,-769 2981,-769 2981,-769 3497,-769 3601.39,-769 3722.4,-751.796 3790.4,-740.54"/>
<polygon fill="midnightblue" stroke="midnightblue" points="2713.7,-651.021 2703.21,-649.523 2710.48,-657.235 2713.7,-651.021"/>
</g>
<!-- Node21 -->
<g id="node21" class="node"><title>Node21</title>
<g id="a_node21"><a xlink:href="../../d5/d0e/classparser_1_1_logo_parser.html#ad6ed8e51959a6e19a2323444aa8331c8" target="_top" xlink:title="parser.LogoParser.statement">
<polygon fill="white" stroke="black" points="3418.5,-645.5 3418.5,-664.5 3573.5,-664.5 3573.5,-645.5 3418.5,-645.5"/>
<text text-anchor="middle" x="3496" y="-652.5" font-family="Helvetica,sans-Serif" font-size="10.00">parser.LogoParser.statement</text>
</a>
</g>
</g>
<!-- Node7&#45;&gt;Node21 -->
<g id="edge29" class="edge"><title>Node7&#45;&gt;Node21</title>
<path fill="none" stroke="midnightblue" d="M2712.76,-653.579C2779.19,-670.326 2886.57,-693 2981,-693 2981,-693 2981,-693 3152,-693 3255.2,-693 3374.81,-675.796 3442.02,-664.54"/>
<polygon fill="midnightblue" stroke="midnightblue" points="2713.41,-650.134 2702.86,-651.051 2711.68,-656.916 2713.41,-650.134"/>
</g>
<!-- Node22 -->
<g id="node22" class="node"><title>Node22</title>
<g id="a_node22"><a xlink:href="../../d5/d0e/classparser_1_1_logo_parser.html#a4bdaeff6df067fde6743ff07370c3b0b" target="_top" xlink:title="parser.LogoParser.pow">
<polygon fill="white" stroke="black" points="2758,-531.5 2758,-550.5 2882,-550.5 2882,-531.5 2758,-531.5"/>
<text text-anchor="middle" x="2820" y="-538.5" font-family="Helvetica,sans-Serif" font-size="10.00">parser.LogoParser.pow</text>
</a>
</g>
</g>
<!-- Node7&#45;&gt;Node22 -->
<g id="edge26" class="edge"><title>Node7&#45;&gt;Node22</title>
<path fill="none" stroke="midnightblue" d="M2677.86,-614.886C2699.29,-599.794 2729.6,-579.646 2758,-565 2768.52,-559.576 2780.56,-554.598 2791.15,-550.599"/>
<polygon fill="midnightblue" stroke="midnightblue" points="2675.66,-612.159 2669.54,-620.809 2679.72,-617.863 2675.66,-612.159"/>
</g>
<!-- Node23 -->
<g id="node23" class="node"><title>Node23</title>
<g id="a_node23"><a xlink:href="../../d5/d0e/classparser_1_1_logo_parser.html#a34f4226672a2711ce2691162fdb2124d" target="_top" xlink:title="parser.LogoParser.term">
<polygon fill="white" stroke="black" points="2918,-550.5 2918,-569.5 3046,-569.5 3046,-550.5 2918,-550.5"/>
<text text-anchor="middle" x="2982" y="-557.5" font-family="Helvetica,sans-Serif" font-size="10.00">parser.LogoParser.term</text>
</a>
</g>
</g>
<!-- Node7&#45;&gt;Node23 -->
<g id="edge30" class="edge"><title>Node7&#45;&gt;Node23</title>
<path fill="none" stroke="midnightblue" d="M2704.64,-617.944C2721.66,-612.747 2740.51,-607.321 2758,-603 2813.5,-589.286 2877.67,-577.313 2922.89,-569.507"/>
<polygon fill="midnightblue" stroke="midnightblue" points="2703.37,-614.672 2694.85,-620.967 2705.44,-621.36 2703.37,-614.672"/>
</g>
<!-- Node8&#45;&gt;Node9 -->
<g id="edge8" class="edge"><title>Node8&#45;&gt;Node9</title>
<path fill="none" stroke="midnightblue" d="M3203.65,-590.824C3227.06,-596.182 3254.36,-602.431 3276.41,-607.48"/>
<polygon fill="midnightblue" stroke="midnightblue" points="3204.42,-587.409 3193.89,-588.589 3202.86,-594.232 3204.42,-587.409"/>
</g>
<!-- Node9&#45;&gt;Node10 -->
<g id="edge9" class="edge"><title>Node9&#45;&gt;Node10</title>
<path fill="none" stroke="midnightblue" d="M3391.82,-620.018C3442.82,-622.735 3512.83,-627.627 3574,-636 3591.5,-638.395 3610.62,-642.022 3627.1,-645.467"/>
<polygon fill="midnightblue" stroke="midnightblue" points="3391.72,-616.509 3381.55,-619.487 3391.36,-623.499 3391.72,-616.509"/>
</g>
<!-- Node9&#45;&gt;Node21 -->
<g id="edge21" class="edge"><title>Node9&#45;&gt;Node21</title>
<path fill="none" stroke="midnightblue" d="M3374.12,-628.753C3398.87,-634.126 3427.8,-640.409 3451.16,-645.48"/>
<polygon fill="midnightblue" stroke="midnightblue" points="3374.67,-625.291 3364.16,-626.589 3373.19,-632.131 3374.67,-625.291"/>
</g>
<!-- Node10&#45;&gt;Node11 -->
<g id="edge10" class="edge"><title>Node10&#45;&gt;Node11</title>
<path fill="none" stroke="midnightblue" d="M3702.11,-668.666C3736.78,-683.898 3791.95,-708.133 3822.27,-721.453"/>
<polygon fill="midnightblue" stroke="midnightblue" points="3703.47,-665.443 3692.91,-664.625 3700.66,-671.852 3703.47,-665.443"/>
</g>
<!-- Node12 -->
<g id="node12" class="node"><title>Node12</title>
<g id="a_node12"><a xlink:href="../../d5/d0e/classparser_1_1_logo_parser.html#adefe3b97ad0d2d7fd0dcd13f7ef2c75e" target="_top" xlink:title="parser.LogoParser.parse">
<polygon fill="white" stroke="black" points="3779,-645.5 3779,-664.5 3911,-664.5 3911,-645.5 3779,-645.5"/>
<text text-anchor="middle" x="3845" y="-652.5" font-family="Helvetica,sans-Serif" font-size="10.00">parser.LogoParser.parse</text>
</a>
</g>
</g>
<!-- Node10&#45;&gt;Node12 -->
<g id="edge11" class="edge"><title>Node10&#45;&gt;Node12</title>
<path fill="none" stroke="midnightblue" d="M3739.78,-655C3752.7,-655 3766.16,-655 3778.95,-655"/>
<polygon fill="midnightblue" stroke="midnightblue" points="3739.57,-651.5 3729.57,-655 3739.57,-658.5 3739.57,-651.5"/>
</g>
<!-- Node13 -->
<g id="node13" class="node"><title>Node13</title>
<g id="a_node13"><a xlink:href="../../d6/d95/classparser_1_1_parser.html#af3d0cef45b9f02f1707959c08d8f3797" target="_top" xlink:title="parser.Parser.parse">
<polygon fill="white" stroke="black" points="3960.5,-645.5 3960.5,-664.5 4069.5,-664.5 4069.5,-645.5 3960.5,-645.5"/>
<text text-anchor="middle" x="4015" y="-652.5" font-family="Helvetica,sans-Serif" font-size="10.00">parser.Parser.parse</text>
</a>
</g>
</g>
<!-- Node12&#45;&gt;Node13 -->
<g id="edge12" class="edge"><title>Node12&#45;&gt;Node13</title>
<path fill="none" stroke="midnightblue" d="M3921.8,-655C3934.83,-655 3948.12,-655 3960.41,-655"/>
<polygon fill="midnightblue" stroke="midnightblue" points="3921.43,-651.5 3911.43,-655 3921.43,-658.5 3921.43,-651.5"/>
</g>
<!-- Node14 -->
<g id="node14" class="node"><title>Node14</title>
<g id="a_node14"><a xlink:href="../../d6/d95/classparser_1_1_parser.html#ae90f8410be9931ec3f349085c8fdae71" target="_top" xlink:title="parser.Parser.parseFile">
<polygon fill="white" stroke="black" points="4119,-689.5 4119,-708.5 4243,-708.5 4243,-689.5 4119,-689.5"/>
<text text-anchor="middle" x="4181" y="-696.5" font-family="Helvetica,sans-Serif" font-size="10.00">parser.Parser.parseFile</text>
</a>
</g>
</g>
<!-- Node13&#45;&gt;Node14 -->
<g id="edge13" class="edge"><title>Node13&#45;&gt;Node14</title>
<path fill="none" stroke="midnightblue" d="M4061.3,-667.155C4087.55,-674.195 4120.11,-682.931 4144.48,-689.471"/>
<polygon fill="midnightblue" stroke="midnightblue" points="4062.15,-663.758 4051.59,-664.547 4060.34,-670.519 4062.15,-663.758"/>
</g>
<!-- Node19 -->
<g id="node19" class="node"><title>Node19</title>
<g id="a_node19"><a xlink:href="../../d4/d06/classinput_1_1_input_executor.html#a687a9f2cbed5d27a2c7b1336a1cab8aa" target="_top" xlink:title="input.InputExecutor.process\lInput">
<polygon fill="white" stroke="black" points="4106.5,-640 4106.5,-670 4255.5,-670 4255.5,-640 4106.5,-640"/>
<text text-anchor="start" x="4114.5" y="-658" font-family="Helvetica,sans-Serif" font-size="10.00">input.InputExecutor.process</text>
<text text-anchor="middle" x="4181" y="-647" font-family="Helvetica,sans-Serif" font-size="10.00">Input</text>
</a>
</g>
</g>
<!-- Node13&#45;&gt;Node19 -->
<g id="edge18" class="edge"><title>Node13&#45;&gt;Node19</title>
<path fill="none" stroke="midnightblue" d="M4079.73,-655C4088.42,-655 4097.39,-655 4106.23,-655"/>
<polygon fill="midnightblue" stroke="midnightblue" points="4079.7,-651.5 4069.7,-655 4079.7,-658.5 4079.7,-651.5"/>
</g>
<!-- Node20 -->
<g id="node20" class="node"><title>Node20</title>
<g id="a_node20"><a xlink:href="../../d5/d56/class_workspace.html#a0ed8fb487512971086b6f3ed0d74e4ae" target="_top" xlink:title="Workspace.sendUserInput">
<polygon fill="white" stroke="black" points="4297,-623.5 4297,-642.5 4437,-642.5 4437,-623.5 4297,-623.5"/>
<text text-anchor="middle" x="4367" y="-630.5" font-family="Helvetica,sans-Serif" font-size="10.00">Workspace.sendUserInput</text>
</a>
</g>
</g>
<!-- Node13&#45;&gt;Node20 -->
<g id="edge19" class="edge"><title>Node13&#45;&gt;Node20</title>
<path fill="none" stroke="midnightblue" d="M4052.76,-642.36C4068.89,-637.451 4088.17,-632.43 4106,-630 4170.3,-621.236 4244.37,-623.26 4296.96,-626.72"/>
<polygon fill="midnightblue" stroke="midnightblue" points="4051.66,-639.038 4043.17,-645.378 4053.76,-645.715 4051.66,-639.038"/>
</g>
<!-- Node15 -->
<g id="node15" class="node"><title>Node15</title>
<g id="a_node15"><a xlink:href="../../d9/de8/class_file_chooser_feature.html#ad742b8e9d07e8151f0a9ff1972867ce8" target="_top" xlink:title="FileChooserFeature.openFile\lChooser">
<polygon fill="white" stroke="black" points="4292.5,-673 4292.5,-703 4441.5,-703 4441.5,-673 4292.5,-673"/>
<text text-anchor="start" x="4300.5" y="-691" font-family="Helvetica,sans-Serif" font-size="10.00">FileChooserFeature.openFile</text>
<text text-anchor="middle" x="4367" y="-680" font-family="Helvetica,sans-Serif" font-size="10.00">Chooser</text>
</a>
</g>
</g>
<!-- Node14&#45;&gt;Node15 -->
<g id="edge14" class="edge"><title>Node14&#45;&gt;Node15</title>
<path fill="none" stroke="midnightblue" d="M4253.17,-694.745C4266.02,-693.977 4279.44,-693.175 4292.35,-692.403"/>
<polygon fill="midnightblue" stroke="midnightblue" points="4252.79,-691.262 4243.01,-695.352 4253.2,-698.249 4252.79,-691.262"/>
</g>
<!-- Node16 -->
<g id="node16" class="node"><title>Node16</title>
<g id="a_node16"><a xlink:href="../../d5/d56/class_workspace.html#a6babd032d9af86fbc23812272d59a2d2" target="_top" xlink:title="Workspace.addFeatureButtons">
<polygon fill="white" stroke="black" points="4478,-673.5 4478,-692.5 4640,-692.5 4640,-673.5 4478,-673.5"/>
<text text-anchor="middle" x="4559" y="-680.5" font-family="Helvetica,sans-Serif" font-size="10.00">Workspace.addFeatureButtons</text>
</a>
</g>
</g>
<!-- Node15&#45;&gt;Node16 -->
<g id="edge15" class="edge"><title>Node15&#45;&gt;Node16</title>
<path fill="none" stroke="midnightblue" d="M4451.77,-685.796C4460.38,-685.569 4469.12,-685.339 4477.7,-685.113"/>
<polygon fill="midnightblue" stroke="midnightblue" points="4451.64,-682.298 4441.73,-686.06 4451.82,-689.295 4451.64,-682.298"/>
</g>
<!-- Node17 -->
<g id="node17" class="node"><title>Node17</title>
<g id="a_node17"><a xlink:href="../../d5/d56/class_workspace.html#a429d535dfd8427637b7715f0b1e1df1b" target="_top" xlink:title="Workspace.createWorkspace">
<polygon fill="white" stroke="black" points="4676,-652.5 4676,-671.5 4828,-671.5 4828,-652.5 4676,-652.5"/>
<text text-anchor="middle" x="4752" y="-659.5" font-family="Helvetica,sans-Serif" font-size="10.00">Workspace.createWorkspace</text>
</a>
</g>
</g>
<!-- Node16&#45;&gt;Node17 -->
<g id="edge16" class="edge"><title>Node16&#45;&gt;Node17</title>
<path fill="none" stroke="midnightblue" d="M4650.22,-673.08C4658.82,-672.135 4667.48,-671.183 4675.91,-670.256"/>
<polygon fill="midnightblue" stroke="midnightblue" points="4649.73,-669.613 4640.17,-674.185 4650.49,-676.571 4649.73,-669.613"/>
</g>
<!-- Node18 -->
<g id="node18" class="node"><title>Node18</title>
<g id="a_node18"><a xlink:href="../../d0/d4b/class_main.html#aaa75b38812324d0f17c89f139bde6ada" target="_top" xlink:title="Main.start">
<polygon fill="white" stroke="black" points="4864.5,-652.5 4864.5,-671.5 4929.5,-671.5 4929.5,-652.5 4864.5,-652.5"/>
<text text-anchor="middle" x="4897" y="-659.5" font-family="Helvetica,sans-Serif" font-size="10.00">Main.start</text>
</a>
</g>
</g>
<!-- Node17&#45;&gt;Node18 -->
<g id="edge17" class="edge"><title>Node17&#45;&gt;Node18</title>
<path fill="none" stroke="midnightblue" d="M4838.39,-662C4847.63,-662 4856.55,-662 4864.5,-662"/>
<polygon fill="midnightblue" stroke="midnightblue" points="4838.27,-658.5 4828.27,-662 4838.27,-665.5 4838.27,-658.5"/>
</g>
<!-- Node20&#45;&gt;Node17 -->
<g id="edge20" class="edge"><title>Node20&#45;&gt;Node17</title>
<path fill="none" stroke="midnightblue" d="M4447.47,-639.017C4514.6,-644.101 4610.08,-651.33 4675.94,-656.316"/>
<polygon fill="midnightblue" stroke="midnightblue" points="4447.59,-635.517 4437.36,-638.252 4447.07,-642.497 4447.59,-635.517"/>
</g>
<!-- Node21&#45;&gt;Node10 -->
<g id="edge22" class="edge"><title>Node21&#45;&gt;Node10</title>
<path fill="none" stroke="midnightblue" d="M3583.8,-655C3592.76,-655 3601.71,-655 3610.26,-655"/>
<polygon fill="midnightblue" stroke="midnightblue" points="3583.69,-651.5 3573.69,-655 3583.69,-658.5 3583.69,-651.5"/>
</g>
<!-- Node22&#45;&gt;Node23 -->
<g id="edge27" class="edge"><title>Node22&#45;&gt;Node23</title>
<path fill="none" stroke="midnightblue" d="M2892.6,-549.503C2901.04,-550.505 2909.6,-551.521 2917.91,-552.508"/>
<polygon fill="midnightblue" stroke="midnightblue" points="2892.75,-545.995 2882.4,-548.292 2891.92,-552.946 2892.75,-545.995"/>
</g>
<!-- Node23&#45;&gt;Node8 -->
<g id="edge28" class="edge"><title>Node23&#45;&gt;Node8</title>
<path fill="none" stroke="midnightblue" d="M3056.23,-568.331C3064.9,-569.318 3073.72,-570.322 3082.32,-571.299"/>
<polygon fill="midnightblue" stroke="midnightblue" points="3056.47,-564.836 3046.14,-567.183 3055.68,-571.791 3056.47,-564.836"/>
</g>
<!-- Node24&#45;&gt;Node8 -->
<g id="edge32" class="edge"><title>Node24&#45;&gt;Node8</title>
<path fill="none" stroke="midnightblue" d="M2723.34,-467.275C2769.42,-469.773 2829.62,-475.013 2882,-486 2957.24,-501.78 2973.44,-515.583 3046,-541 3072.85,-550.406 3103.41,-561.637 3124.42,-569.439"/>
<polygon fill="midnightblue" stroke="midnightblue" points="2723.3,-463.768 2713.13,-466.753 2722.94,-470.759 2723.3,-463.768"/>
</g>
<!-- Node24&#45;&gt;Node9 -->
<g id="edge33" class="edge"><title>Node24&#45;&gt;Node9</title>
<path fill="none" stroke="midnightblue" d="M2723.53,-462.539C2769.32,-461.717 2829.13,-461.88 2882,-466 3037.45,-478.116 3079.75,-491.875 3220,-560 3250.45,-574.791 3284.22,-595.438 3303.11,-607.394"/>
<polygon fill="midnightblue" stroke="midnightblue" points="2723.32,-459.042 2713.39,-462.741 2723.46,-466.041 2723.32,-459.042"/>
</g>
<!-- Node24&#45;&gt;Node10 -->
<g id="edge34" class="edge"><title>Node24&#45;&gt;Node10</title>
<path fill="none" stroke="midnightblue" d="M2668.67,-449.085C2689.59,-432.989 2724.23,-408.599 2758,-395 2851.71,-357.263 2879.98,-351 2981,-351 2981,-351 2981,-351 3320,-351 3503.61,-351 3637.49,-593.195 3664.14,-645.23"/>
<polygon fill="midnightblue" stroke="midnightblue" points="2666.31,-446.495 2660.6,-455.42 2670.62,-452.003 2666.31,-446.495"/>
</g>
<!-- Node24&#45;&gt;Node21 -->
<g id="edge36" class="edge"><title>Node24&#45;&gt;Node21</title>
<path fill="none" stroke="midnightblue" d="M2683.19,-451.803C2742.74,-430.038 2869.77,-389 2981,-389 2981,-389 2981,-389 3152,-389 3322.68,-389 3459.84,-597.228 3489.19,-645.217"/>
<polygon fill="midnightblue" stroke="midnightblue" points="2681.71,-448.618 2673.55,-455.375 2684.14,-455.182 2681.71,-448.618"/>
</g>
<!-- Node24&#45;&gt;Node22 -->
<g id="edge35" class="edge"><title>Node24&#45;&gt;Node22</title>
<path fill="none" stroke="midnightblue" d="M2677.16,-479.105C2699.02,-489.892 2730.19,-504.915 2758,-517 2769.59,-522.035 2782.59,-527.216 2793.61,-531.47"/>
<polygon fill="midnightblue" stroke="midnightblue" points="2678.62,-475.923 2668.11,-474.618 2675.51,-482.195 2678.62,-475.923"/>
</g>
<!-- Node24&#45;&gt;Node23 -->
<g id="edge37" class="edge"><title>Node24&#45;&gt;Node23</title>
<path fill="none" stroke="midnightblue" d="M2705.25,-476.664C2752.78,-487.019 2822.45,-503.368 2882,-522 2908.71,-530.355 2938.6,-542.185 2958.48,-550.418"/>
<polygon fill="midnightblue" stroke="midnightblue" points="2705.97,-473.239 2695.45,-474.547 2704.49,-480.081 2705.97,-473.239"/>
</g>
<!-- Node26 -->
<g id="node26" class="node"><title>Node26</title>
<g id="a_node26"><a xlink:href="../../d0/d8c/classparser_1_1_logo_parser_token_manager.html#a2b55f093fc0200c57a099eba2d9b37e2" target="_top" xlink:title="parser.LogoParserTokenManager.jj\lMoveStringLiteralDfa0_0">
<polygon fill="white" stroke="black" points="2132.5,-536 2132.5,-566 2311.5,-566 2311.5,-536 2132.5,-536"/>
<text text-anchor="start" x="2140.5" y="-554" font-family="Helvetica,sans-Serif" font-size="10.00">parser.LogoParserTokenManager.jj</text>
<text text-anchor="middle" x="2222" y="-543" font-family="Helvetica,sans-Serif" font-size="10.00">MoveStringLiteralDfa0_0</text>
</a>
</g>
</g>
<!-- Node25&#45;&gt;Node26 -->
<g id="edge40" class="edge"><title>Node25&#45;&gt;Node26</title>
<path fill="none" stroke="midnightblue" d="M529.612,-191.937C624.188,-139.074 896.254,-0 1141,-0 1141,-0 1141,-0 1791,-0 2071,-0 2195.59,-447.667 2217.45,-535.976"/>
<polygon fill="midnightblue" stroke="midnightblue" points="527.757,-188.966 520.762,-196.923 531.192,-195.064 527.757,-188.966"/>
</g>
<!-- Node27 -->
<g id="node27" class="node"><title>Node27</title>
<g id="a_node27"><a xlink:href="../../d0/d8c/classparser_1_1_logo_parser_token_manager.html#aa065c8b0c977d3c1c9d9058f96664080" target="_top" xlink:title="parser.LogoParserTokenManager.jj\lStartNfa_0">
<polygon fill="white" stroke="black" points="620.5,-175 620.5,-205 799.5,-205 799.5,-175 620.5,-175"/>
<text text-anchor="start" x="628.5" y="-193" font-family="Helvetica,sans-Serif" font-size="10.00">parser.LogoParserTokenManager.jj</text>
<text text-anchor="middle" x="710" y="-182" font-family="Helvetica,sans-Serif" font-size="10.00">StartNfa_0</text>
</a>
</g>
</g>
<!-- Node25&#45;&gt;Node27 -->
<g id="edge42" class="edge"><title>Node25&#45;&gt;Node27</title>
<path fill="none" stroke="midnightblue" d="M593.645,-201.859C602.596,-200.939 611.625,-200.011 620.48,-199.1"/>
<polygon fill="midnightblue" stroke="midnightblue" points="593.176,-198.389 583.587,-202.893 593.892,-205.352 593.176,-198.389"/>
</g>
<!-- Node25&#45;&gt;Node34 -->
<g id="edge55" class="edge"><title>Node25&#45;&gt;Node34</title>
<path fill="none" stroke="midnightblue" d="M518.795,-234.127C562.696,-274.951 655.362,-361.121 692.8,-395.936"/>
<polygon fill="midnightblue" stroke="midnightblue" points="521.143,-231.531 511.437,-227.285 516.377,-236.658 521.143,-231.531"/>
</g>
<!-- Node26&#45;&gt;Node4 -->
<g id="edge41" class="edge"><title>Node26&#45;&gt;Node4</title>
<path fill="none" stroke="midnightblue" d="M2262.9,-570.496C2305.61,-591.361 2372.43,-624.011 2411.24,-642.973"/>
<polygon fill="midnightblue" stroke="midnightblue" points="2264.43,-567.349 2253.91,-566.104 2261.36,-573.638 2264.43,-567.349"/>
</g>
<!-- Node27&#45;&gt;Node28 -->
<g id="edge43" class="edge"><title>Node27&#45;&gt;Node28</title>
<path fill="none" stroke="midnightblue" d="M740.877,-169.105C765.32,-153.065 801.385,-131.736 836,-120 965.707,-76.0238 1004.04,-76 1141,-76 1141,-76 1141,-76 1575,-76 1818.84,-76 1968.88,-425.854 1999.26,-503.751"/>
<polygon fill="midnightblue" stroke="midnightblue" points="738.797,-166.286 732.422,-174.748 742.683,-172.108 738.797,-166.286"/>
</g>
<!-- Node27&#45;&gt;Node29 -->
<g id="edge45" class="edge"><title>Node27&#45;&gt;Node29</title>
<path fill="none" stroke="midnightblue" d="M771.851,-172.316C854.625,-149.861 1007.69,-114 1141,-114 1141,-114 1141,-114 1359,-114 1585.22,-114 1746.55,-413.503 1781.78,-484.868"/>
<polygon fill="midnightblue" stroke="midnightblue" points="770.831,-168.967 762.112,-174.985 772.681,-175.718 770.831,-168.967"/>
</g>
<!-- Node27&#45;&gt;Node30 -->
<g id="edge47" class="edge"><title>Node27&#45;&gt;Node30</title>
<path fill="none" stroke="midnightblue" d="M808.788,-173.624C959.71,-153.83 1252.37,-137.797 1448,-269 1506.19,-308.027 1549.14,-382.995 1565.62,-414.962"/>
<polygon fill="midnightblue" stroke="midnightblue" points="808.057,-170.191 798.613,-174.993 808.99,-177.128 808.057,-170.191"/>
</g>
<!-- Node27&#45;&gt;Node31 -->
<g id="edge49" class="edge"><title>Node27&#45;&gt;Node31</title>
<path fill="none" stroke="midnightblue" d="M809.786,-190.189C869.74,-191.54 947.631,-195.493 1016,-206 1123.42,-222.507 1246.06,-258.516 1311.01,-278.987"/>
<polygon fill="midnightblue" stroke="midnightblue" points="809.636,-186.685 799.566,-189.98 809.493,-193.684 809.636,-186.685"/>
</g>
<!-- Node27&#45;&gt;Node32 -->
<g id="edge51" class="edge"><title>Node27&#45;&gt;Node32</title>
<path fill="none" stroke="midnightblue" d="M809.58,-203.937C869.806,-213.556 948.052,-228.034 1016,-247 1047.04,-255.664 1081.22,-268.776 1105.99,-278.951"/>
<polygon fill="midnightblue" stroke="midnightblue" points="810.118,-200.479 799.694,-202.376 809.026,-207.393 810.118,-200.479"/>
</g>
<!-- Node27&#45;&gt;Node33 -->
<g id="edge53" class="edge"><title>Node27&#45;&gt;Node33</title>
<path fill="none" stroke="midnightblue" d="M754.967,-209.163C778.79,-219.325 808.833,-231.784 836,-242 849.583,-247.108 864.479,-252.29 878.133,-256.877"/>
<polygon fill="midnightblue" stroke="midnightblue" points="756.068,-205.827 745.498,-205.106 753.311,-212.261 756.068,-205.827"/>
</g>
<!-- Node28&#45;&gt;Node26 -->
<g id="edge44" class="edge"><title>Node28&#45;&gt;Node26</title>
<path fill="none" stroke="midnightblue" d="M2105.65,-533.751C2114.6,-535.089 2123.62,-536.439 2132.48,-537.763"/>
<polygon fill="midnightblue" stroke="midnightblue" points="2105.99,-530.264 2095.59,-532.247 2104.96,-537.187 2105.99,-530.264"/>
</g>
<!-- Node29&#45;&gt;Node28 -->
<g id="edge46" class="edge"><title>Node29&#45;&gt;Node28</title>
<path fill="none" stroke="midnightblue" d="M1889.65,-508.758C1898.6,-509.553 1907.62,-510.355 1916.48,-511.141"/>
<polygon fill="midnightblue" stroke="midnightblue" points="1889.86,-505.263 1879.59,-507.865 1889.24,-512.236 1889.86,-505.263"/>
</g>
<!-- Node30&#45;&gt;Node29 -->
<g id="edge48" class="edge"><title>Node30&#45;&gt;Node29</title>
<path fill="none" stroke="midnightblue" d="M1630.48,-448.146C1665.36,-459.556 1709.84,-474.106 1742.8,-484.887"/>
<polygon fill="midnightblue" stroke="midnightblue" points="1631.5,-444.799 1620.91,-445.017 1629.32,-451.452 1631.5,-444.799"/>
</g>
<!-- Node31&#45;&gt;Node30 -->
<g id="edge50" class="edge"><title>Node31&#45;&gt;Node30</title>
<path fill="none" stroke="midnightblue" d="M1391.19,-314.455C1434.52,-341.993 1510.62,-390.357 1549.17,-414.858"/>
<polygon fill="midnightblue" stroke="midnightblue" points="1393.04,-311.484 1382.72,-309.074 1389.28,-317.392 1393.04,-311.484"/>
</g>
<!-- Node32&#45;&gt;Node31 -->
<g id="edge52" class="edge"><title>Node32&#45;&gt;Node31</title>
<path fill="none" stroke="midnightblue" d="M1241.65,-294C1250.6,-294 1259.62,-294 1268.48,-294"/>
<polygon fill="midnightblue" stroke="midnightblue" points="1241.59,-290.5 1231.59,-294 1241.59,-297.5 1241.59,-290.5"/>
</g>
<!-- Node33&#45;&gt;Node32 -->
<g id="edge54" class="edge"><title>Node33&#45;&gt;Node32</title>
<path fill="none" stroke="midnightblue" d="M1025.65,-282.141C1034.6,-283.061 1043.62,-283.989 1052.48,-284.9"/>
<polygon fill="midnightblue" stroke="midnightblue" points="1025.89,-278.648 1015.59,-281.107 1025.18,-285.611 1025.89,-278.648"/>
</g>
<!-- Node34&#45;&gt;Node26 -->
<g id="edge56" class="edge"><title>Node34&#45;&gt;Node26</title>
<path fill="none" stroke="midnightblue" d="M759.168,-429.581C782.165,-437.931 810.231,-447.375 836,-454 1157.99,-536.78 1240.54,-582 1573,-582 1573,-582 1573,-582 1791,-582 1909.26,-582 2045.34,-570.191 2132.19,-561.151"/>
<polygon fill="midnightblue" stroke="midnightblue" points="760.237,-426.245 749.643,-426.08 757.822,-432.815 760.237,-426.245"/>
</g>
<!-- Node34&#45;&gt;Node29 -->
<g id="edge57" class="edge"><title>Node34&#45;&gt;Node29</title>
<path fill="none" stroke="midnightblue" d="M809.684,-426.726C818.571,-427.922 827.442,-429.037 836,-430 1153.14,-465.696 1531.8,-487.272 1700.43,-495.792"/>
<polygon fill="midnightblue" stroke="midnightblue" points="810.044,-423.243 799.659,-425.344 809.088,-430.177 810.044,-423.243"/>
</g>
<!-- Node34&#45;&gt;Node30 -->
<g id="edge58" class="edge"><title>Node34&#45;&gt;Node30</title>
<path fill="none" stroke="midnightblue" d="M809.758,-413.177C979.102,-416.909 1322.27,-424.474 1484.38,-428.047"/>
<polygon fill="midnightblue" stroke="midnightblue" points="809.675,-409.674 799.6,-412.953 809.52,-416.673 809.675,-409.674"/>
</g>
<!-- Node34&#45;&gt;Node31 -->
<g id="edge59" class="edge"><title>Node34&#45;&gt;Node31</title>
<path fill="none" stroke="midnightblue" d="M809.894,-398.932C869.726,-391.166 947.453,-380.253 1016,-368 1113.8,-350.519 1226.24,-325.066 1294.43,-309.029"/>
<polygon fill="midnightblue" stroke="midnightblue" points="809.164,-395.497 799.695,-400.248 810.06,-402.44 809.164,-395.497"/>
</g>
<!-- Node34&#45;&gt;Node32 -->
<g id="edge60" class="edge"><title>Node34&#45;&gt;Node32</title>
<path fill="none" stroke="midnightblue" d="M777.862,-393.322C860.49,-371.464 993.04,-336.354 1016,-330 1040.27,-323.284 1067.11,-315.589 1089.68,-309.042"/>
<polygon fill="midnightblue" stroke="midnightblue" points="776.816,-389.978 768.044,-395.919 778.607,-396.746 776.816,-389.978"/>
</g>
<!-- Node34&#45;&gt;Node33 -->
<g id="edge61" class="edge"><title>Node34&#45;&gt;Node33</title>
<path fill="none" stroke="midnightblue" d="M742.793,-390.35C786.261,-362.115 863.227,-312.123 901.72,-287.121"/>
<polygon fill="midnightblue" stroke="midnightblue" points="740.789,-387.478 734.309,-395.86 744.602,-393.348 740.789,-387.478"/>
</g>
</g>
</svg>
