<?xml version="1.0" encoding="UTF-8" standalone="no"?>
<!DOCTYPE svg PUBLIC "-//W3C//DTD SVG 1.1//EN"
 "http://www.w3.org/Graphics/SVG/1.1/DTD/svg11.dtd">
<!-- Generated by graphviz version 2.36.0 (20140111.2315)
 -->
<!-- Title: parser.SimpleCharStream.getEndColumn Pages: 1 -->
<svg width="3002pt" height="426pt"
 viewBox="0.00 0.00 3002.00 426.13" xmlns="http://www.w3.org/2000/svg" xmlns:xlink="http://www.w3.org/1999/xlink">
<g id="graph0" class="graph" transform="scale(1 1) rotate(0) translate(4 422.128)">
<title>parser.SimpleCharStream.getEndColumn</title>
<polygon fill="white" stroke="none" points="-4,4 -4,-422.128 2998,-422.128 2998,4 -4,4"/>
<!-- Node1 -->
<g id="node1" class="node"><title>Node1</title>
<polygon fill="#bfbfbf" stroke="black" points="0,-308.128 0,-338.128 160,-338.128 160,-308.128 0,-308.128"/>
<text text-anchor="start" x="8" y="-326.128" font-family="Helvetica,sans-Serif" font-size="10.00">parser.SimpleCharStream.get</text>
<text text-anchor="middle" x="80" y="-315.128" font-family="Helvetica,sans-Serif" font-size="10.00">EndColumn</text>
</g>
<!-- Node2 -->
<g id="node2" class="node"><title>Node2</title>
<g id="a_node2"><a xlink:href="../../d0/d8c/classparser_1_1_logo_parser_token_manager.html#a3dee50e2286b70ba662519a865e63b77" target="_top" xlink:title="parser.LogoParserTokenManager.get\lNextToken">
<polygon fill="white" stroke="black" points="412,-308.128 412,-338.128 602,-338.128 602,-308.128 412,-308.128"/>
<text text-anchor="start" x="420" y="-326.128" font-family="Helvetica,sans-Serif" font-size="10.00">parser.LogoParserTokenManager.get</text>
<text text-anchor="middle" x="507" y="-315.128" font-family="Helvetica,sans-Serif" font-size="10.00">NextToken</text>
</a>
</g>
</g>
<!-- Node1&#45;&gt;Node2 -->
<g id="edge1" class="edge"><title>Node1&#45;&gt;Node2</title>
<path fill="none" stroke="midnightblue" d="M170.343,-324.834C179.014,-324.954 187.676,-325.056 196,-325.128 275.997,-325.824 296.002,-325.744 376,-325.128 387.624,-325.039 399.833,-324.905 411.92,-324.747"/>
<polygon fill="midnightblue" stroke="midnightblue" points="170.232,-321.332 160.182,-324.686 170.13,-328.332 170.232,-321.332"/>
</g>
<!-- Node23 -->
<g id="node23" class="node"><title>Node23</title>
<g id="a_node23"><a xlink:href="../../d0/d8c/classparser_1_1_logo_parser_token_manager.html#a105d12f62ad67eda0850987aedc48f4d" target="_top" xlink:title="parser.LogoParserTokenManager.jj\lFillToken">
<polygon fill="white" stroke="black" points="196.5,-286.128 196.5,-316.128 375.5,-316.128 375.5,-286.128 196.5,-286.128"/>
<text text-anchor="start" x="204.5" y="-304.128" font-family="Helvetica,sans-Serif" font-size="10.00">parser.LogoParserTokenManager.jj</text>
<text text-anchor="middle" x="286" y="-293.128" font-family="Helvetica,sans-Serif" font-size="10.00">FillToken</text>
</a>
</g>
</g>
<!-- Node1&#45;&gt;Node23 -->
<g id="edge36" class="edge"><title>Node1&#45;&gt;Node23</title>
<path fill="none" stroke="midnightblue" d="M170.268,-313.501C178.938,-312.566 187.732,-311.618 196.395,-310.684"/>
<polygon fill="midnightblue" stroke="midnightblue" points="169.731,-310.039 160.164,-314.591 170.481,-316.999 169.731,-310.039"/>
</g>
<!-- Node3 -->
<g id="node3" class="node"><title>Node3</title>
<g id="a_node3"><a xlink:href="../../d5/d0e/classparser_1_1_logo_parser.html#a7477b52c4469ea43d75f88fb805e37a1" target="_top" xlink:title="parser.LogoParser.getNext\lToken">
<polygon fill="white" stroke="black" points="640.5,-371.128 640.5,-401.128 783.5,-401.128 783.5,-371.128 640.5,-371.128"/>
<text text-anchor="start" x="648.5" y="-389.128" font-family="Helvetica,sans-Serif" font-size="10.00">parser.LogoParser.getNext</text>
<text text-anchor="middle" x="712" y="-378.128" font-family="Helvetica,sans-Serif" font-size="10.00">Token</text>
</a>
</g>
</g>
<!-- Node2&#45;&gt;Node3 -->
<g id="edge2" class="edge"><title>Node2&#45;&gt;Node3</title>
<path fill="none" stroke="midnightblue" d="M566.044,-341.142C596.612,-350.629 633.662,-362.127 662.653,-371.124"/>
<polygon fill="midnightblue" stroke="midnightblue" points="566.954,-337.76 556.366,-338.138 564.879,-344.445 566.954,-337.76"/>
</g>
<!-- Node4 -->
<g id="node4" class="node"><title>Node4</title>
<g id="a_node4"><a xlink:href="../../d5/d0e/classparser_1_1_logo_parser.html#a63b7890a7d6323bcf938132f968e8157" target="_top" xlink:title="parser.LogoParser.getToken">
<polygon fill="white" stroke="black" points="638,-332.628 638,-351.628 786,-351.628 786,-332.628 638,-332.628"/>
<text text-anchor="middle" x="712" y="-339.628" font-family="Helvetica,sans-Serif" font-size="10.00">parser.LogoParser.getToken</text>
</a>
</g>
</g>
<!-- Node2&#45;&gt;Node4 -->
<g id="edge3" class="edge"><title>Node2&#45;&gt;Node4</title>
<path fill="none" stroke="midnightblue" d="M612.241,-332.885C620.906,-333.696 629.544,-334.504 637.903,-335.287"/>
<polygon fill="midnightblue" stroke="midnightblue" points="612.355,-329.38 602.072,-331.933 611.702,-336.35 612.355,-329.38"/>
</g>
<!-- Node5 -->
<g id="node5" class="node"><title>Node5</title>
<g id="a_node5"><a xlink:href="../../d5/d0e/classparser_1_1_logo_parser.html#a550039a3180ec86ef01f419aefc02edc" target="_top" xlink:title="parser.LogoParser.jj\l_consume_token">
<polygon fill="white" stroke="black" points="657,-118.128 657,-148.128 767,-148.128 767,-118.128 657,-118.128"/>
<text text-anchor="start" x="665" y="-136.128" font-family="Helvetica,sans-Serif" font-size="10.00">parser.LogoParser.jj</text>
<text text-anchor="middle" x="712" y="-125.128" font-family="Helvetica,sans-Serif" font-size="10.00">_consume_token</text>
</a>
</g>
</g>
<!-- Node2&#45;&gt;Node5 -->
<g id="edge4" class="edge"><title>Node2&#45;&gt;Node5</title>
<path fill="none" stroke="midnightblue" d="M531.787,-300.864C573.628,-261.703 659.329,-181.49 694.935,-148.164"/>
<polygon fill="midnightblue" stroke="midnightblue" points="529.178,-298.512 524.269,-307.901 533.962,-303.623 529.178,-298.512"/>
</g>
<!-- Node22 -->
<g id="node22" class="node"><title>Node22</title>
<g id="a_node22"><a xlink:href="../../d5/d0e/classparser_1_1_logo_parser.html#a2e48e3ab2c1c075beca7bcc54d891afd" target="_top" xlink:title="parser.LogoParser.jj_ntk">
<polygon fill="white" stroke="black" points="647,-294.628 647,-313.628 777,-313.628 777,-294.628 647,-294.628"/>
<text text-anchor="middle" x="712" y="-301.628" font-family="Helvetica,sans-Serif" font-size="10.00">parser.LogoParser.jj_ntk</text>
</a>
</g>
</g>
<!-- Node2&#45;&gt;Node22 -->
<g id="edge29" class="edge"><title>Node2&#45;&gt;Node22</title>
<path fill="none" stroke="midnightblue" d="M612.382,-313.359C624.117,-312.26 635.801,-311.167 646.805,-310.137"/>
<polygon fill="midnightblue" stroke="midnightblue" points="611.702,-309.907 602.072,-314.324 612.355,-316.876 611.702,-309.907"/>
</g>
<!-- Node6 -->
<g id="node6" class="node"><title>Node6</title>
<g id="a_node6"><a xlink:href="../../d5/d0e/classparser_1_1_logo_parser.html#a82acce8328e52f3b2bcb90542cc800b7" target="_top" xlink:title="parser.LogoParser.arithm">
<polygon fill="white" stroke="black" points="1146.5,-170.628 1146.5,-189.628 1283.5,-189.628 1283.5,-170.628 1146.5,-170.628"/>
<text text-anchor="middle" x="1215" y="-177.628" font-family="Helvetica,sans-Serif" font-size="10.00">parser.LogoParser.arithm</text>
</a>
</g>
</g>
<!-- Node5&#45;&gt;Node6 -->
<g id="edge5" class="edge"><title>Node5&#45;&gt;Node6</title>
<path fill="none" stroke="midnightblue" d="M777.135,-139.145C872.082,-148.052 1049.24,-164.672 1146.23,-173.771"/>
<polygon fill="midnightblue" stroke="midnightblue" points="777.375,-135.652 767.092,-138.203 776.721,-142.622 777.375,-135.652"/>
</g>
<!-- Node7 -->
<g id="node7" class="node"><title>Node7</title>
<g id="a_node7"><a xlink:href="../../d5/d0e/classparser_1_1_logo_parser.html#a397c25c39976e5a1fb689e1f0dd40160" target="_top" xlink:title="parser.LogoParser.eval">
<polygon fill="white" stroke="black" points="1320.5,-137.628 1320.5,-156.628 1445.5,-156.628 1445.5,-137.628 1320.5,-137.628"/>
<text text-anchor="middle" x="1383" y="-144.628" font-family="Helvetica,sans-Serif" font-size="10.00">parser.LogoParser.eval</text>
</a>
</g>
</g>
<!-- Node5&#45;&gt;Node7 -->
<g id="edge21" class="edge"><title>Node5&#45;&gt;Node7</title>
<path fill="none" stroke="midnightblue" d="M777.274,-134.473C905.9,-137.165 1193.46,-143.183 1320.1,-145.833"/>
<polygon fill="midnightblue" stroke="midnightblue" points="777.251,-130.972 767.18,-134.262 777.105,-137.971 777.251,-130.972"/>
</g>
<!-- Node8 -->
<g id="node8" class="node"><title>Node8</title>
<g id="a_node8"><a xlink:href="../../d5/d0e/classparser_1_1_logo_parser.html#a6b0ba0c2b5b0bc8c2ef76863fffdb6a3" target="_top" xlink:title="parser.LogoParser.list">
<polygon fill="white" stroke="black" points="1674.5,-99.6283 1674.5,-118.628 1793.5,-118.628 1793.5,-99.6283 1674.5,-99.6283"/>
<text text-anchor="middle" x="1734" y="-106.628" font-family="Helvetica,sans-Serif" font-size="10.00">parser.LogoParser.list</text>
</a>
</g>
</g>
<!-- Node5&#45;&gt;Node8 -->
<g id="edge23" class="edge"><title>Node5&#45;&gt;Node8</title>
<path fill="none" stroke="midnightblue" d="M747.871,-113.211C768.785,-102.026 796.244,-88.6456 822,-80.1283 917.754,-48.4635 944.146,-38.1283 1045,-38.1283 1045,-38.1283 1045,-38.1283 1384,-38.1283 1505.81,-38.1283 1646.82,-80.173 1705.34,-99.5529"/>
<polygon fill="midnightblue" stroke="midnightblue" points="746.158,-110.159 739.043,-118.009 749.501,-116.309 746.158,-110.159"/>
</g>
<!-- Node9 -->
<g id="node9" class="node"><title>Node9</title>
<g id="a_node9"><a xlink:href="../../d5/d0e/classparser_1_1_logo_parser.html#a4a8825534e0488215d22bcd947bc4d41" target="_top" xlink:title="parser.LogoParser.expression">
<polygon fill="white" stroke="black" points="1830.5,-26.6283 1830.5,-45.6283 1987.5,-45.6283 1987.5,-26.6283 1830.5,-26.6283"/>
<text text-anchor="middle" x="1909" y="-33.6283" font-family="Helvetica,sans-Serif" font-size="10.00">parser.LogoParser.expression</text>
</a>
</g>
</g>
<!-- Node5&#45;&gt;Node9 -->
<g id="edge22" class="edge"><title>Node5&#45;&gt;Node9</title>
<path fill="none" stroke="midnightblue" d="M732.934,-110.568C753.172,-89.1803 786.506,-57.9001 822,-41.1283 913.113,1.92439 944.228,-0.128293 1045,-0.128293 1045,-0.128293 1045,-0.128293 1561,-0.128293 1663.81,-0.128293 1782.85,-15.9569 1851.39,-26.6226"/>
<polygon fill="midnightblue" stroke="midnightblue" points="730.32,-108.241 726.091,-117.955 735.455,-112.998 730.32,-108.241"/>
</g>
<!-- Node19 -->
<g id="node19" class="node"><title>Node19</title>
<g id="a_node19"><a xlink:href="../../d5/d0e/classparser_1_1_logo_parser.html#ad6ed8e51959a6e19a2323444aa8331c8" target="_top" xlink:title="parser.LogoParser.statement">
<polygon fill="white" stroke="black" points="1482.5,-137.628 1482.5,-156.628 1637.5,-156.628 1637.5,-137.628 1482.5,-137.628"/>
<text text-anchor="middle" x="1560" y="-144.628" font-family="Helvetica,sans-Serif" font-size="10.00">parser.LogoParser.statement</text>
</a>
</g>
</g>
<!-- Node5&#45;&gt;Node19 -->
<g id="edge27" class="edge"><title>Node5&#45;&gt;Node19</title>
<path fill="none" stroke="midnightblue" d="M776.757,-115.549C843.191,-98.8025 950.574,-76.1283 1045,-76.1283 1045,-76.1283 1045,-76.1283 1216,-76.1283 1335.8,-76.1283 1474.34,-118.173 1531.83,-137.553"/>
<polygon fill="midnightblue" stroke="midnightblue" points="775.68,-112.212 766.857,-118.078 777.413,-118.994 775.68,-112.212"/>
</g>
<!-- Node20 -->
<g id="node20" class="node"><title>Node20</title>
<g id="a_node20"><a xlink:href="../../d5/d0e/classparser_1_1_logo_parser.html#a4bdaeff6df067fde6743ff07370c3b0b" target="_top" xlink:title="parser.LogoParser.pow">
<polygon fill="white" stroke="black" points="822,-218.628 822,-237.628 946,-237.628 946,-218.628 822,-218.628"/>
<text text-anchor="middle" x="884" y="-225.628" font-family="Helvetica,sans-Serif" font-size="10.00">parser.LogoParser.pow</text>
</a>
</g>
</g>
<!-- Node5&#45;&gt;Node20 -->
<g id="edge24" class="edge"><title>Node5&#45;&gt;Node20</title>
<path fill="none" stroke="midnightblue" d="M741.863,-154.242C763.29,-169.334 793.596,-189.482 822,-204.128 832.519,-209.553 844.559,-214.531 855.148,-218.53"/>
<polygon fill="midnightblue" stroke="midnightblue" points="743.717,-151.266 733.54,-148.319 739.658,-156.969 743.717,-151.266"/>
</g>
<!-- Node21 -->
<g id="node21" class="node"><title>Node21</title>
<g id="a_node21"><a xlink:href="../../d5/d0e/classparser_1_1_logo_parser.html#a34f4226672a2711ce2691162fdb2124d" target="_top" xlink:title="parser.LogoParser.term">
<polygon fill="white" stroke="black" points="982,-199.628 982,-218.628 1110,-218.628 1110,-199.628 982,-199.628"/>
<text text-anchor="middle" x="1046" y="-206.628" font-family="Helvetica,sans-Serif" font-size="10.00">parser.LogoParser.term</text>
</a>
</g>
</g>
<!-- Node5&#45;&gt;Node21 -->
<g id="edge28" class="edge"><title>Node5&#45;&gt;Node21</title>
<path fill="none" stroke="midnightblue" d="M768.638,-151.185C785.662,-156.381 804.51,-161.807 822,-166.128 877.502,-179.842 941.673,-191.816 986.886,-199.621"/>
<polygon fill="midnightblue" stroke="midnightblue" points="769.437,-147.768 758.85,-148.162 767.372,-154.457 769.437,-147.768"/>
</g>
<!-- Node6&#45;&gt;Node7 -->
<g id="edge6" class="edge"><title>Node6&#45;&gt;Node7</title>
<path fill="none" stroke="midnightblue" d="M1274.06,-168.586C1293.68,-164.686 1315.35,-160.378 1334.09,-156.652"/>
<polygon fill="midnightblue" stroke="midnightblue" points="1273.14,-165.201 1264.01,-170.583 1274.5,-172.066 1273.14,-165.201"/>
</g>
<!-- Node7&#45;&gt;Node8 -->
<g id="edge7" class="edge"><title>Node7&#45;&gt;Node8</title>
<path fill="none" stroke="midnightblue" d="M1437.06,-135.677C1451.58,-132.863 1467.35,-130.097 1482,-128.128 1547.62,-119.314 1623.48,-114.278 1674.47,-111.635"/>
<polygon fill="midnightblue" stroke="midnightblue" points="1436.37,-132.246 1427.24,-137.624 1437.73,-139.112 1436.37,-132.246"/>
</g>
<!-- Node7&#45;&gt;Node19 -->
<g id="edge19" class="edge"><title>Node7&#45;&gt;Node19</title>
<path fill="none" stroke="midnightblue" d="M1455.8,-147.128C1464.51,-147.128 1473.44,-147.128 1482.22,-147.128"/>
<polygon fill="midnightblue" stroke="midnightblue" points="1455.7,-143.628 1445.7,-147.128 1455.7,-150.628 1455.7,-143.628"/>
</g>
<!-- Node8&#45;&gt;Node9 -->
<g id="edge8" class="edge"><title>Node8&#45;&gt;Node9</title>
<path fill="none" stroke="midnightblue" d="M1767.2,-95.5422C1801.58,-81.0317 1855.2,-58.4088 1885.38,-45.6741"/>
<polygon fill="midnightblue" stroke="midnightblue" points="1765.47,-92.4724 1757.62,-99.5848 1768.19,-98.9217 1765.47,-92.4724"/>
</g>
<!-- Node10 -->
<g id="node10" class="node"><title>Node10</title>
<g id="a_node10"><a xlink:href="../../d5/d0e/classparser_1_1_logo_parser.html#adefe3b97ad0d2d7fd0dcd13f7ef2c75e" target="_top" xlink:title="parser.LogoParser.parse">
<polygon fill="white" stroke="black" points="1843,-99.6283 1843,-118.628 1975,-118.628 1975,-99.6283 1843,-99.6283"/>
<text text-anchor="middle" x="1909" y="-106.628" font-family="Helvetica,sans-Serif" font-size="10.00">parser.LogoParser.parse</text>
</a>
</g>
</g>
<!-- Node8&#45;&gt;Node10 -->
<g id="edge9" class="edge"><title>Node8&#45;&gt;Node10</title>
<path fill="none" stroke="midnightblue" d="M1803.78,-109.128C1816.7,-109.128 1830.16,-109.128 1842.95,-109.128"/>
<polygon fill="midnightblue" stroke="midnightblue" points="1803.57,-105.628 1793.57,-109.128 1803.57,-112.628 1803.57,-105.628"/>
</g>
<!-- Node11 -->
<g id="node11" class="node"><title>Node11</title>
<g id="a_node11"><a xlink:href="../../d6/d95/classparser_1_1_parser.html#af3d0cef45b9f02f1707959c08d8f3797" target="_top" xlink:title="parser.Parser.parse">
<polygon fill="white" stroke="black" points="2024.5,-99.6283 2024.5,-118.628 2133.5,-118.628 2133.5,-99.6283 2024.5,-99.6283"/>
<text text-anchor="middle" x="2079" y="-106.628" font-family="Helvetica,sans-Serif" font-size="10.00">parser.Parser.parse</text>
</a>
</g>
</g>
<!-- Node10&#45;&gt;Node11 -->
<g id="edge10" class="edge"><title>Node10&#45;&gt;Node11</title>
<path fill="none" stroke="midnightblue" d="M1985.8,-109.128C1998.83,-109.128 2012.12,-109.128 2024.41,-109.128"/>
<polygon fill="midnightblue" stroke="midnightblue" points="1985.43,-105.628 1975.43,-109.128 1985.43,-112.628 1985.43,-105.628"/>
</g>
<!-- Node12 -->
<g id="node12" class="node"><title>Node12</title>
<g id="a_node12"><a xlink:href="../../d6/d95/classparser_1_1_parser.html#ae90f8410be9931ec3f349085c8fdae71" target="_top" xlink:title="parser.Parser.parseFile">
<polygon fill="white" stroke="black" points="2183,-140.628 2183,-159.628 2307,-159.628 2307,-140.628 2183,-140.628"/>
<text text-anchor="middle" x="2245" y="-147.628" font-family="Helvetica,sans-Serif" font-size="10.00">parser.Parser.parseFile</text>
</a>
</g>
</g>
<!-- Node11&#45;&gt;Node12 -->
<g id="edge11" class="edge"><title>Node11&#45;&gt;Node12</title>
<path fill="none" stroke="midnightblue" d="M2127.98,-121.122C2152.79,-127.327 2182.67,-134.795 2205.89,-140.6"/>
<polygon fill="midnightblue" stroke="midnightblue" points="2128.59,-117.668 2118.04,-118.638 2126.89,-124.459 2128.59,-117.668"/>
</g>
<!-- Node17 -->
<g id="node17" class="node"><title>Node17</title>
<g id="a_node17"><a xlink:href="../../d4/d06/classinput_1_1_input_executor.html#a687a9f2cbed5d27a2c7b1336a1cab8aa" target="_top" xlink:title="input.InputExecutor.process\lInput">
<polygon fill="white" stroke="black" points="2170.5,-50.1283 2170.5,-80.1283 2319.5,-80.1283 2319.5,-50.1283 2170.5,-50.1283"/>
<text text-anchor="start" x="2178.5" y="-68.1283" font-family="Helvetica,sans-Serif" font-size="10.00">input.InputExecutor.process</text>
<text text-anchor="middle" x="2245" y="-57.1283" font-family="Helvetica,sans-Serif" font-size="10.00">Input</text>
</a>
</g>
</g>
<!-- Node11&#45;&gt;Node17 -->
<g id="edge16" class="edge"><title>Node11&#45;&gt;Node17</title>
<path fill="none" stroke="midnightblue" d="M2125.36,-96.9596C2144.7,-91.7709 2167.46,-85.6637 2187.85,-80.1937"/>
<polygon fill="midnightblue" stroke="midnightblue" points="2124.34,-93.6091 2115.59,-99.5809 2126.15,-100.37 2124.34,-93.6091"/>
</g>
<!-- Node18 -->
<g id="node18" class="node"><title>Node18</title>
<g id="a_node18"><a xlink:href="../../d5/d56/class_workspace.html#a0ed8fb487512971086b6f3ed0d74e4ae" target="_top" xlink:title="Workspace.sendUserInput">
<polygon fill="white" stroke="black" points="2361,-98.6283 2361,-117.628 2501,-117.628 2501,-98.6283 2361,-98.6283"/>
<text text-anchor="middle" x="2431" y="-105.628" font-family="Helvetica,sans-Serif" font-size="10.00">Workspace.sendUserInput</text>
</a>
</g>
</g>
<!-- Node11&#45;&gt;Node18 -->
<g id="edge17" class="edge"><title>Node11&#45;&gt;Node18</title>
<path fill="none" stroke="midnightblue" d="M2143.86,-108.946C2205.23,-108.77 2297.7,-108.506 2360.79,-108.326"/>
<polygon fill="midnightblue" stroke="midnightblue" points="2143.53,-105.447 2133.54,-108.975 2143.55,-112.447 2143.53,-105.447"/>
</g>
<!-- Node13 -->
<g id="node13" class="node"><title>Node13</title>
<g id="a_node13"><a xlink:href="../../d9/de8/class_file_chooser_feature.html#ad742b8e9d07e8151f0a9ff1972867ce8" target="_top" xlink:title="FileChooserFeature.openFile\lChooser">
<polygon fill="white" stroke="black" points="2356.5,-137.128 2356.5,-167.128 2505.5,-167.128 2505.5,-137.128 2356.5,-137.128"/>
<text text-anchor="start" x="2364.5" y="-155.128" font-family="Helvetica,sans-Serif" font-size="10.00">FileChooserFeature.openFile</text>
<text text-anchor="middle" x="2431" y="-144.128" font-family="Helvetica,sans-Serif" font-size="10.00">Chooser</text>
</a>
</g>
</g>
<!-- Node12&#45;&gt;Node13 -->
<g id="edge12" class="edge"><title>Node12&#45;&gt;Node13</title>
<path fill="none" stroke="midnightblue" d="M2317.17,-150.902C2330.02,-151.042 2343.44,-151.187 2356.35,-151.328"/>
<polygon fill="midnightblue" stroke="midnightblue" points="2317.05,-147.4 2307.01,-150.791 2316.98,-154.4 2317.05,-147.4"/>
</g>
<!-- Node14 -->
<g id="node14" class="node"><title>Node14</title>
<g id="a_node14"><a xlink:href="../../d5/d56/class_workspace.html#a6babd032d9af86fbc23812272d59a2d2" target="_top" xlink:title="Workspace.addFeatureButtons">
<polygon fill="white" stroke="black" points="2542,-140.628 2542,-159.628 2704,-159.628 2704,-140.628 2542,-140.628"/>
<text text-anchor="middle" x="2623" y="-147.628" font-family="Helvetica,sans-Serif" font-size="10.00">Workspace.addFeatureButtons</text>
</a>
</g>
</g>
<!-- Node13&#45;&gt;Node14 -->
<g id="edge13" class="edge"><title>Node13&#45;&gt;Node14</title>
<path fill="none" stroke="midnightblue" d="M2515.77,-151.247C2524.38,-151.156 2533.12,-151.064 2541.7,-150.974"/>
<polygon fill="midnightblue" stroke="midnightblue" points="2515.69,-147.747 2505.73,-151.352 2515.77,-154.747 2515.69,-147.747"/>
</g>
<!-- Node15 -->
<g id="node15" class="node"><title>Node15</title>
<g id="a_node15"><a xlink:href="../../d5/d56/class_workspace.html#a429d535dfd8427637b7715f0b1e1df1b" target="_top" xlink:title="Workspace.createWorkspace">
<polygon fill="white" stroke="black" points="2740,-120.628 2740,-139.628 2892,-139.628 2892,-120.628 2740,-120.628"/>
<text text-anchor="middle" x="2816" y="-127.628" font-family="Helvetica,sans-Serif" font-size="10.00">Workspace.createWorkspace</text>
</a>
</g>
</g>
<!-- Node14&#45;&gt;Node15 -->
<g id="edge14" class="edge"><title>Node14&#45;&gt;Node15</title>
<path fill="none" stroke="midnightblue" d="M2714.22,-140.681C2722.82,-139.78 2731.48,-138.874 2739.91,-137.991"/>
<polygon fill="midnightblue" stroke="midnightblue" points="2713.75,-137.211 2704.17,-141.733 2714.48,-144.173 2713.75,-137.211"/>
</g>
<!-- Node16 -->
<g id="node16" class="node"><title>Node16</title>
<g id="a_node16"><a xlink:href="../../d0/d4b/class_main.html#aaa75b38812324d0f17c89f139bde6ada" target="_top" xlink:title="Main.start">
<polygon fill="white" stroke="black" points="2928.5,-120.628 2928.5,-139.628 2993.5,-139.628 2993.5,-120.628 2928.5,-120.628"/>
<text text-anchor="middle" x="2961" y="-127.628" font-family="Helvetica,sans-Serif" font-size="10.00">Main.start</text>
</a>
</g>
</g>
<!-- Node15&#45;&gt;Node16 -->
<g id="edge15" class="edge"><title>Node15&#45;&gt;Node16</title>
<path fill="none" stroke="midnightblue" d="M2902.39,-130.128C2911.63,-130.128 2920.55,-130.128 2928.5,-130.128"/>
<polygon fill="midnightblue" stroke="midnightblue" points="2902.27,-126.628 2892.27,-130.128 2902.27,-133.628 2902.27,-126.628"/>
</g>
<!-- Node18&#45;&gt;Node15 -->
<g id="edge18" class="edge"><title>Node18&#45;&gt;Node15</title>
<path fill="none" stroke="midnightblue" d="M2511.47,-112.693C2578.6,-116.549 2674.08,-122.033 2739.94,-125.816"/>
<polygon fill="midnightblue" stroke="midnightblue" points="2511.54,-109.192 2501.36,-112.112 2511.14,-116.18 2511.54,-109.192"/>
</g>
<!-- Node19&#45;&gt;Node8 -->
<g id="edge20" class="edge"><title>Node19&#45;&gt;Node8</title>
<path fill="none" stroke="midnightblue" d="M1614.2,-135.376C1638.52,-130.003 1666.95,-123.72 1689.91,-118.648"/>
<polygon fill="midnightblue" stroke="midnightblue" points="1613.41,-131.964 1604.4,-137.539 1614.92,-138.8 1613.41,-131.964"/>
</g>
<!-- Node20&#45;&gt;Node21 -->
<g id="edge25" class="edge"><title>Node20&#45;&gt;Node21</title>
<path fill="none" stroke="midnightblue" d="M956.604,-219.625C965.039,-218.624 973.601,-217.607 981.907,-216.621"/>
<polygon fill="midnightblue" stroke="midnightblue" points="955.92,-216.182 946.403,-220.837 956.746,-223.133 955.92,-216.182"/>
</g>
<!-- Node21&#45;&gt;Node6 -->
<g id="edge26" class="edge"><title>Node21&#45;&gt;Node6</title>
<path fill="none" stroke="midnightblue" d="M1112.21,-197.805C1127.75,-195.106 1144.18,-192.253 1159.2,-189.645"/>
<polygon fill="midnightblue" stroke="midnightblue" points="1111.4,-194.393 1102.14,-199.552 1112.6,-201.29 1111.4,-194.393"/>
</g>
<!-- Node22&#45;&gt;Node6 -->
<g id="edge30" class="edge"><title>Node22&#45;&gt;Node6</title>
<path fill="none" stroke="midnightblue" d="M787.476,-299.342C833.489,-295.516 893.561,-288.951 946,-278.128 1020.63,-262.726 1038.8,-255.269 1110,-228.128 1140.47,-216.513 1174.58,-200.08 1195.17,-189.77"/>
<polygon fill="midnightblue" stroke="midnightblue" points="786.973,-295.871 777.287,-300.164 787.536,-302.848 786.973,-295.871"/>
</g>
<!-- Node22&#45;&gt;Node7 -->
<g id="edge31" class="edge"><title>Node22&#45;&gt;Node7</title>
<path fill="none" stroke="midnightblue" d="M787.183,-307.109C833.087,-307.98 893.148,-307.361 946,-301.128 1101.83,-282.751 1140.9,-263.494 1284,-199.128 1313.51,-185.855 1346.49,-167.608 1365.68,-156.632"/>
<polygon fill="midnightblue" stroke="midnightblue" points="787.094,-303.607 777.02,-306.888 786.941,-310.605 787.094,-303.607"/>
</g>
<!-- Node22&#45;&gt;Node8 -->
<g id="edge32" class="edge"><title>Node22&#45;&gt;Node8</title>
<path fill="none" stroke="midnightblue" d="M774.343,-317.318C778.395,-319.028 782.321,-320.955 786,-323.128 806.031,-334.96 801.943,-349.341 822,-361.128 910.194,-412.961 942.702,-418.128 1045,-418.128 1045,-418.128 1045,-418.128 1384,-418.128 1569.32,-418.128 1702.36,-170.871 1728.36,-118.715"/>
<polygon fill="midnightblue" stroke="midnightblue" points="775.312,-313.944 764.72,-313.712 772.856,-320.499 775.312,-313.944"/>
</g>
<!-- Node22&#45;&gt;Node19 -->
<g id="edge34" class="edge"><title>Node22&#45;&gt;Node19</title>
<path fill="none" stroke="midnightblue" d="M760.259,-316.182C845.016,-337.615 1016.7,-380.128 1045,-380.128 1045,-380.128 1045,-380.128 1216,-380.128 1377.61,-380.128 1519.56,-200.94 1552.04,-156.843"/>
<polygon fill="midnightblue" stroke="midnightblue" points="760.923,-312.739 750.37,-313.677 759.204,-319.525 760.923,-312.739"/>
</g>
<!-- Node22&#45;&gt;Node20 -->
<g id="edge33" class="edge"><title>Node22&#45;&gt;Node20</title>
<path fill="none" stroke="midnightblue" d="M741.161,-290.023C763.024,-279.237 794.194,-264.213 822,-252.128 833.585,-247.093 846.592,-241.912 857.61,-237.659"/>
<polygon fill="midnightblue" stroke="midnightblue" points="739.513,-286.933 732.108,-294.51 742.622,-293.205 739.513,-286.933"/>
</g>
<!-- Node22&#45;&gt;Node21 -->
<g id="edge35" class="edge"><title>Node22&#45;&gt;Node21</title>
<path fill="none" stroke="midnightblue" d="M769.248,-292.464C816.783,-282.109 886.446,-265.76 946,-247.128 972.707,-238.773 1002.6,-226.943 1022.48,-218.71"/>
<polygon fill="midnightblue" stroke="midnightblue" points="768.486,-289.048 759.452,-294.581 769.965,-295.89 768.486,-289.048"/>
</g>
<!-- Node23&#45;&gt;Node2 -->
<g id="edge37" class="edge"><title>Node23&#45;&gt;Node2</title>
<path fill="none" stroke="midnightblue" d="M385.831,-311.057C394.456,-311.923 403.17,-312.798 411.756,-313.661"/>
<polygon fill="midnightblue" stroke="midnightblue" points="386.06,-307.562 375.76,-310.045 385.36,-314.527 386.06,-307.562"/>
</g>
</g>
</svg>
