<?xml version="1.0" encoding="UTF-8" standalone="no"?>
<!DOCTYPE svg PUBLIC "-//W3C//DTD SVG 1.1//EN"
 "http://www.w3.org/Graphics/SVG/1.1/DTD/svg11.dtd">
<!-- Generated by graphviz version 2.36.0 (20140111.2315)
 -->
<!-- Title: parser.SimpleCharStream.GetImage Pages: 1 -->
<!--zoomable 426 -->
<svg id="main" version="1.1" xmlns="http://www.w3.org/2000/svg" xmlns:xlink="http://www.w3.org/1999/xlink" xml:space="preserve" onload="init(evt)">
<style type="text/css"><![CDATA[
.edge:hover path { stroke: red; }
.edge:hover polygon { stroke: red; fill: red; }
]]></style>
<script type="text/javascript"><![CDATA[
var edges = document.getElementsByTagName('g');
if (edges && edges.length) {
  for (var i=0;i<edges.length;i++) {
    if (edges[i].id.substr(0,4)=='edge') {
      edges[i].setAttribute('class','edge');
    }
  }
}
]]></script>
        <defs>
                <circle id="rim" cx="0" cy="0" r="7"/>
                <circle id="rim2" cx="0" cy="0" r="3.5"/>
                <g id="zoomPlus">
                        <use xlink:href="#rim" fill="#404040">
                                <set attributeName="fill" to="#808080" begin="zoomplus.mouseover" end="zoomplus.mouseout"/>
                        </use>
                        <path d="M-4,0h8M0,-4v8" fill="none" stroke="white" stroke-width="1.5" pointer-events="none"/>
                </g>
                <g id="zoomMin">
                        <use xlink:href="#rim" fill="#404040">
                                <set attributeName="fill" to="#808080" begin="zoomminus.mouseover" end="zoomminus.mouseout"/>
                        </use>
                        <path d="M-4,0h8" fill="none" stroke="white" stroke-width="1.5" pointer-events="none"/>
                </g>
                <g id="dirArrow">
                        <path fill="none" stroke="white" stroke-width="1.5" d="M0,-3.0v7 M-2.5,-0.5L0,-3.0L2.5,-0.5"/>
                </g>
               <g id="resetDef">
                       <use xlink:href="#rim2" fill="#404040">
                               <set attributeName="fill" to="#808080" begin="reset.mouseover" end="reset.mouseout"/>
                       </use>
               </g>
        </defs>

<script type="text/javascript">
var viewWidth = 2986;
var viewHeight = 426;
var sectionId = 'dynsection-10';
</script>
<script xlink:href="../../svgpan.js"/>
<svg id="graph" class="graph">
<g id="viewport">
<title>parser.SimpleCharStream.GetImage</title>
<polygon fill="white" stroke="none" points="-4,4 -4,-422.128 2982,-422.128 2982,4 -4,4"/>
<!-- Node1 -->
<g id="node1" class="node"><title>Node1</title>
<polygon fill="#bfbfbf" stroke="black" points="0,-308.128 0,-338.128 144,-338.128 144,-308.128 0,-308.128"/>
<text text-anchor="start" x="8" y="-326.128" font-family="Helvetica,sans-Serif" font-size="10.00">parser.SimpleCharStream.</text>
<text text-anchor="middle" x="72" y="-315.128" font-family="Helvetica,sans-Serif" font-size="10.00">GetImage</text>
</g>
<!-- Node2 -->
<g id="node2" class="node"><title>Node2</title>
<g id="a_node2"><a xlink:href="../../d0/d8c/classparser_1_1_logo_parser_token_manager.html#a3dee50e2286b70ba662519a865e63b77" target="_top" xlink:title="parser.LogoParserTokenManager.get\lNextToken">
<polygon fill="white" stroke="black" points="396,-308.128 396,-338.128 586,-338.128 586,-308.128 396,-308.128"/>
<text text-anchor="start" x="404" y="-326.128" font-family="Helvetica,sans-Serif" font-size="10.00">parser.LogoParserTokenManager.get</text>
<text text-anchor="middle" x="491" y="-315.128" font-family="Helvetica,sans-Serif" font-size="10.00">NextToken</text>
</a>
</g>
</g>
<!-- Node1&#45;&gt;Node2 -->
<g id="edge1" class="edge"><title>Node1&#45;&gt;Node2</title>
<path fill="none" stroke="midnightblue" d="M154.25,-324.806C162.942,-324.938 171.654,-325.05 180,-325.128 259.997,-325.876 280.002,-325.744 360,-325.128 371.624,-325.039 383.833,-324.905 395.92,-324.747"/>
<polygon fill="midnightblue" stroke="midnightblue" points="154.134,-321.304 144.079,-324.643 154.021,-328.303 154.134,-321.304"/>
</g>
<!-- Node23 -->
<g id="node23" class="node"><title>Node23</title>
<g id="a_node23"><a xlink:href="../../d0/d8c/classparser_1_1_logo_parser_token_manager.html#a105d12f62ad67eda0850987aedc48f4d" target="_top" xlink:title="parser.LogoParserTokenManager.jj\lFillToken">
<polygon fill="white" stroke="black" points="180.5,-286.128 180.5,-316.128 359.5,-316.128 359.5,-286.128 180.5,-286.128"/>
<text text-anchor="start" x="188.5" y="-304.128" font-family="Helvetica,sans-Serif" font-size="10.00">parser.LogoParserTokenManager.jj</text>
<text text-anchor="middle" x="270" y="-293.128" font-family="Helvetica,sans-Serif" font-size="10.00">FillToken</text>
</a>
</g>
</g>
<!-- Node1&#45;&gt;Node23 -->
<g id="edge36" class="edge"><title>Node1&#45;&gt;Node23</title>
<path fill="none" stroke="midnightblue" d="M154.139,-314.021C162.829,-313.045 171.702,-312.05 180.473,-311.065"/>
<polygon fill="midnightblue" stroke="midnightblue" points="153.585,-310.561 144.038,-315.155 154.366,-317.517 153.585,-310.561"/>
</g>
<!-- Node3 -->
<g id="node3" class="node"><title>Node3</title>
<g id="a_node3"><a xlink:href="../../d5/d0e/classparser_1_1_logo_parser.html#a7477b52c4469ea43d75f88fb805e37a1" target="_top" xlink:title="parser.LogoParser.getNext\lToken">
<polygon fill="white" stroke="black" points="624.5,-371.128 624.5,-401.128 767.5,-401.128 767.5,-371.128 624.5,-371.128"/>
<text text-anchor="start" x="632.5" y="-389.128" font-family="Helvetica,sans-Serif" font-size="10.00">parser.LogoParser.getNext</text>
<text text-anchor="middle" x="696" y="-378.128" font-family="Helvetica,sans-Serif" font-size="10.00">Token</text>
</a>
</g>
</g>
<!-- Node2&#45;&gt;Node3 -->
<g id="edge2" class="edge"><title>Node2&#45;&gt;Node3</title>
<path fill="none" stroke="midnightblue" d="M550.044,-341.142C580.612,-350.629 617.662,-362.127 646.653,-371.124"/>
<polygon fill="midnightblue" stroke="midnightblue" points="550.954,-337.76 540.366,-338.138 548.879,-344.445 550.954,-337.76"/>
</g>
<!-- Node4 -->
<g id="node4" class="node"><title>Node4</title>
<g id="a_node4"><a xlink:href="../../d5/d0e/classparser_1_1_logo_parser.html#a63b7890a7d6323bcf938132f968e8157" target="_top" xlink:title="parser.LogoParser.getToken">
<polygon fill="white" stroke="black" points="622,-332.628 622,-351.628 770,-351.628 770,-332.628 622,-332.628"/>
<text text-anchor="middle" x="696" y="-339.628" font-family="Helvetica,sans-Serif" font-size="10.00">parser.LogoParser.getToken</text>
</a>
</g>
</g>
<!-- Node2&#45;&gt;Node4 -->
<g id="edge3" class="edge"><title>Node2&#45;&gt;Node4</title>
<path fill="none" stroke="midnightblue" d="M596.241,-332.885C604.906,-333.696 613.544,-334.504 621.903,-335.287"/>
<polygon fill="midnightblue" stroke="midnightblue" points="596.355,-329.38 586.072,-331.933 595.702,-336.35 596.355,-329.38"/>
</g>
<!-- Node5 -->
<g id="node5" class="node"><title>Node5</title>
<g id="a_node5"><a xlink:href="../../d5/d0e/classparser_1_1_logo_parser.html#a550039a3180ec86ef01f419aefc02edc" target="_top" xlink:title="parser.LogoParser.jj\l_consume_token">
<polygon fill="white" stroke="black" points="641,-118.128 641,-148.128 751,-148.128 751,-118.128 641,-118.128"/>
<text text-anchor="start" x="649" y="-136.128" font-family="Helvetica,sans-Serif" font-size="10.00">parser.LogoParser.jj</text>
<text text-anchor="middle" x="696" y="-125.128" font-family="Helvetica,sans-Serif" font-size="10.00">_consume_token</text>
</a>
</g>
</g>
<!-- Node2&#45;&gt;Node5 -->
<g id="edge4" class="edge"><title>Node2&#45;&gt;Node5</title>
<path fill="none" stroke="midnightblue" d="M515.787,-300.864C557.628,-261.703 643.329,-181.49 678.935,-148.164"/>
<polygon fill="midnightblue" stroke="midnightblue" points="513.178,-298.512 508.269,-307.901 517.962,-303.623 513.178,-298.512"/>
</g>
<!-- Node22 -->
<g id="node22" class="node"><title>Node22</title>
<g id="a_node22"><a xlink:href="../../d5/d0e/classparser_1_1_logo_parser.html#a2e48e3ab2c1c075beca7bcc54d891afd" target="_top" xlink:title="parser.LogoParser.jj_ntk">
<polygon fill="white" stroke="black" points="631,-294.628 631,-313.628 761,-313.628 761,-294.628 631,-294.628"/>
<text text-anchor="middle" x="696" y="-301.628" font-family="Helvetica,sans-Serif" font-size="10.00">parser.LogoParser.jj_ntk</text>
</a>
</g>
</g>
<!-- Node2&#45;&gt;Node22 -->
<g id="edge29" class="edge"><title>Node2&#45;&gt;Node22</title>
<path fill="none" stroke="midnightblue" d="M596.382,-313.359C608.117,-312.26 619.801,-311.167 630.805,-310.137"/>
<polygon fill="midnightblue" stroke="midnightblue" points="595.702,-309.907 586.072,-314.324 596.355,-316.876 595.702,-309.907"/>
</g>
<!-- Node6 -->
<g id="node6" class="node"><title>Node6</title>
<g id="a_node6"><a xlink:href="../../d5/d0e/classparser_1_1_logo_parser.html#a82acce8328e52f3b2bcb90542cc800b7" target="_top" xlink:title="parser.LogoParser.arithm">
<polygon fill="white" stroke="black" points="1130.5,-170.628 1130.5,-189.628 1267.5,-189.628 1267.5,-170.628 1130.5,-170.628"/>
<text text-anchor="middle" x="1199" y="-177.628" font-family="Helvetica,sans-Serif" font-size="10.00">parser.LogoParser.arithm</text>
</a>
</g>
</g>
<!-- Node5&#45;&gt;Node6 -->
<g id="edge5" class="edge"><title>Node5&#45;&gt;Node6</title>
<path fill="none" stroke="midnightblue" d="M761.135,-139.145C856.082,-148.052 1033.24,-164.672 1130.23,-173.771"/>
<polygon fill="midnightblue" stroke="midnightblue" points="761.375,-135.652 751.092,-138.203 760.721,-142.622 761.375,-135.652"/>
</g>
<!-- Node7 -->
<g id="node7" class="node"><title>Node7</title>
<g id="a_node7"><a xlink:href="../../d5/d0e/classparser_1_1_logo_parser.html#a397c25c39976e5a1fb689e1f0dd40160" target="_top" xlink:title="parser.LogoParser.eval">
<polygon fill="white" stroke="black" points="1304.5,-137.628 1304.5,-156.628 1429.5,-156.628 1429.5,-137.628 1304.5,-137.628"/>
<text text-anchor="middle" x="1367" y="-144.628" font-family="Helvetica,sans-Serif" font-size="10.00">parser.LogoParser.eval</text>
</a>
</g>
</g>
<!-- Node5&#45;&gt;Node7 -->
<g id="edge21" class="edge"><title>Node5&#45;&gt;Node7</title>
<path fill="none" stroke="midnightblue" d="M761.274,-134.473C889.9,-137.165 1177.46,-143.183 1304.1,-145.833"/>
<polygon fill="midnightblue" stroke="midnightblue" points="761.251,-130.972 751.18,-134.262 761.105,-137.971 761.251,-130.972"/>
</g>
<!-- Node8 -->
<g id="node8" class="node"><title>Node8</title>
<g id="a_node8"><a xlink:href="../../d5/d0e/classparser_1_1_logo_parser.html#a6b0ba0c2b5b0bc8c2ef76863fffdb6a3" target="_top" xlink:title="parser.LogoParser.list">
<polygon fill="white" stroke="black" points="1658.5,-99.6283 1658.5,-118.628 1777.5,-118.628 1777.5,-99.6283 1658.5,-99.6283"/>
<text text-anchor="middle" x="1718" y="-106.628" font-family="Helvetica,sans-Serif" font-size="10.00">parser.LogoParser.list</text>
</a>
</g>
</g>
<!-- Node5&#45;&gt;Node8 -->
<g id="edge23" class="edge"><title>Node5&#45;&gt;Node8</title>
<path fill="none" stroke="midnightblue" d="M731.871,-113.211C752.785,-102.026 780.244,-88.6456 806,-80.1283 901.754,-48.4635 928.146,-38.1283 1029,-38.1283 1029,-38.1283 1029,-38.1283 1368,-38.1283 1489.81,-38.1283 1630.82,-80.173 1689.34,-99.5529"/>
<polygon fill="midnightblue" stroke="midnightblue" points="730.158,-110.159 723.043,-118.009 733.501,-116.309 730.158,-110.159"/>
</g>
<!-- Node9 -->
<g id="node9" class="node"><title>Node9</title>
<g id="a_node9"><a xlink:href="../../d5/d0e/classparser_1_1_logo_parser.html#a4a8825534e0488215d22bcd947bc4d41" target="_top" xlink:title="parser.LogoParser.expression">
<polygon fill="white" stroke="black" points="1814.5,-26.6283 1814.5,-45.6283 1971.5,-45.6283 1971.5,-26.6283 1814.5,-26.6283"/>
<text text-anchor="middle" x="1893" y="-33.6283" font-family="Helvetica,sans-Serif" font-size="10.00">parser.LogoParser.expression</text>
</a>
</g>
</g>
<!-- Node5&#45;&gt;Node9 -->
<g id="edge22" class="edge"><title>Node5&#45;&gt;Node9</title>
<path fill="none" stroke="midnightblue" d="M716.934,-110.568C737.172,-89.1803 770.506,-57.9001 806,-41.1283 897.113,1.92439 928.228,-0.128293 1029,-0.128293 1029,-0.128293 1029,-0.128293 1545,-0.128293 1647.81,-0.128293 1766.85,-15.9569 1835.39,-26.6226"/>
<polygon fill="midnightblue" stroke="midnightblue" points="714.32,-108.241 710.091,-117.955 719.455,-112.998 714.32,-108.241"/>
</g>
<!-- Node19 -->
<g id="node19" class="node"><title>Node19</title>
<g id="a_node19"><a xlink:href="../../d5/d0e/classparser_1_1_logo_parser.html#ad6ed8e51959a6e19a2323444aa8331c8" target="_top" xlink:title="parser.LogoParser.statement">
<polygon fill="white" stroke="black" points="1466.5,-137.628 1466.5,-156.628 1621.5,-156.628 1621.5,-137.628 1466.5,-137.628"/>
<text text-anchor="middle" x="1544" y="-144.628" font-family="Helvetica,sans-Serif" font-size="10.00">parser.LogoParser.statement</text>
</a>
</g>
</g>
<!-- Node5&#45;&gt;Node19 -->
<g id="edge27" class="edge"><title>Node5&#45;&gt;Node19</title>
<path fill="none" stroke="midnightblue" d="M760.757,-115.549C827.191,-98.8025 934.574,-76.1283 1029,-76.1283 1029,-76.1283 1029,-76.1283 1200,-76.1283 1319.8,-76.1283 1458.34,-118.173 1515.83,-137.553"/>
<polygon fill="midnightblue" stroke="midnightblue" points="759.68,-112.212 750.857,-118.078 761.413,-118.994 759.68,-112.212"/>
</g>
<!-- Node20 -->
<g id="node20" class="node"><title>Node20</title>
<g id="a_node20"><a xlink:href="../../d5/d0e/classparser_1_1_logo_parser.html#a4bdaeff6df067fde6743ff07370c3b0b" target="_top" xlink:title="parser.LogoParser.pow">
<polygon fill="white" stroke="black" points="806,-218.628 806,-237.628 930,-237.628 930,-218.628 806,-218.628"/>
<text text-anchor="middle" x="868" y="-225.628" font-family="Helvetica,sans-Serif" font-size="10.00">parser.LogoParser.pow</text>
</a>
</g>
</g>
<!-- Node5&#45;&gt;Node20 -->
<g id="edge24" class="edge"><title>Node5&#45;&gt;Node20</title>
<path fill="none" stroke="midnightblue" d="M725.863,-154.242C747.29,-169.334 777.596,-189.482 806,-204.128 816.519,-209.553 828.559,-214.531 839.148,-218.53"/>
<polygon fill="midnightblue" stroke="midnightblue" points="727.717,-151.266 717.54,-148.319 723.658,-156.969 727.717,-151.266"/>
</g>
<!-- Node21 -->
<g id="node21" class="node"><title>Node21</title>
<g id="a_node21"><a xlink:href="../../d5/d0e/classparser_1_1_logo_parser.html#a34f4226672a2711ce2691162fdb2124d" target="_top" xlink:title="parser.LogoParser.term">
<polygon fill="white" stroke="black" points="966,-199.628 966,-218.628 1094,-218.628 1094,-199.628 966,-199.628"/>
<text text-anchor="middle" x="1030" y="-206.628" font-family="Helvetica,sans-Serif" font-size="10.00">parser.LogoParser.term</text>
</a>
</g>
</g>
<!-- Node5&#45;&gt;Node21 -->
<g id="edge28" class="edge"><title>Node5&#45;&gt;Node21</title>
<path fill="none" stroke="midnightblue" d="M752.638,-151.185C769.662,-156.381 788.51,-161.807 806,-166.128 861.502,-179.842 925.673,-191.816 970.886,-199.621"/>
<polygon fill="midnightblue" stroke="midnightblue" points="753.437,-147.768 742.85,-148.162 751.372,-154.457 753.437,-147.768"/>
</g>
<!-- Node6&#45;&gt;Node7 -->
<g id="edge6" class="edge"><title>Node6&#45;&gt;Node7</title>
<path fill="none" stroke="midnightblue" d="M1258.06,-168.586C1277.68,-164.686 1299.35,-160.378 1318.09,-156.652"/>
<polygon fill="midnightblue" stroke="midnightblue" points="1257.14,-165.201 1248.01,-170.583 1258.5,-172.066 1257.14,-165.201"/>
</g>
<!-- Node7&#45;&gt;Node8 -->
<g id="edge7" class="edge"><title>Node7&#45;&gt;Node8</title>
<path fill="none" stroke="midnightblue" d="M1421.06,-135.677C1435.58,-132.863 1451.35,-130.097 1466,-128.128 1531.62,-119.314 1607.48,-114.278 1658.47,-111.635"/>
<polygon fill="midnightblue" stroke="midnightblue" points="1420.37,-132.246 1411.24,-137.624 1421.73,-139.112 1420.37,-132.246"/>
</g>
<!-- Node7&#45;&gt;Node19 -->
<g id="edge19" class="edge"><title>Node7&#45;&gt;Node19</title>
<path fill="none" stroke="midnightblue" d="M1439.8,-147.128C1448.51,-147.128 1457.44,-147.128 1466.22,-147.128"/>
<polygon fill="midnightblue" stroke="midnightblue" points="1439.7,-143.628 1429.7,-147.128 1439.7,-150.628 1439.7,-143.628"/>
</g>
<!-- Node8&#45;&gt;Node9 -->
<g id="edge8" class="edge"><title>Node8&#45;&gt;Node9</title>
<path fill="none" stroke="midnightblue" d="M1751.2,-95.5422C1785.58,-81.0317 1839.2,-58.4088 1869.38,-45.6741"/>
<polygon fill="midnightblue" stroke="midnightblue" points="1749.47,-92.4724 1741.62,-99.5848 1752.19,-98.9217 1749.47,-92.4724"/>
</g>
<!-- Node10 -->
<g id="node10" class="node"><title>Node10</title>
<g id="a_node10"><a xlink:href="../../d5/d0e/classparser_1_1_logo_parser.html#adefe3b97ad0d2d7fd0dcd13f7ef2c75e" target="_top" xlink:title="parser.LogoParser.parse">
<polygon fill="white" stroke="black" points="1827,-99.6283 1827,-118.628 1959,-118.628 1959,-99.6283 1827,-99.6283"/>
<text text-anchor="middle" x="1893" y="-106.628" font-family="Helvetica,sans-Serif" font-size="10.00">parser.LogoParser.parse</text>
</a>
</g>
</g>
<!-- Node8&#45;&gt;Node10 -->
<g id="edge9" class="edge"><title>Node8&#45;&gt;Node10</title>
<path fill="none" stroke="midnightblue" d="M1787.78,-109.128C1800.7,-109.128 1814.16,-109.128 1826.95,-109.128"/>
<polygon fill="midnightblue" stroke="midnightblue" points="1787.57,-105.628 1777.57,-109.128 1787.57,-112.628 1787.57,-105.628"/>
</g>
<!-- Node11 -->
<g id="node11" class="node"><title>Node11</title>
<g id="a_node11"><a xlink:href="../../d6/d95/classparser_1_1_parser.html#af3d0cef45b9f02f1707959c08d8f3797" target="_top" xlink:title="parser.Parser.parse">
<polygon fill="white" stroke="black" points="2008.5,-99.6283 2008.5,-118.628 2117.5,-118.628 2117.5,-99.6283 2008.5,-99.6283"/>
<text text-anchor="middle" x="2063" y="-106.628" font-family="Helvetica,sans-Serif" font-size="10.00">parser.Parser.parse</text>
</a>
</g>
</g>
<!-- Node10&#45;&gt;Node11 -->
<g id="edge10" class="edge"><title>Node10&#45;&gt;Node11</title>
<path fill="none" stroke="midnightblue" d="M1969.8,-109.128C1982.83,-109.128 1996.12,-109.128 2008.41,-109.128"/>
<polygon fill="midnightblue" stroke="midnightblue" points="1969.43,-105.628 1959.43,-109.128 1969.43,-112.628 1969.43,-105.628"/>
</g>
<!-- Node12 -->
<g id="node12" class="node"><title>Node12</title>
<g id="a_node12"><a xlink:href="../../d6/d95/classparser_1_1_parser.html#ae90f8410be9931ec3f349085c8fdae71" target="_top" xlink:title="parser.Parser.parseFile">
<polygon fill="white" stroke="black" points="2167,-140.628 2167,-159.628 2291,-159.628 2291,-140.628 2167,-140.628"/>
<text text-anchor="middle" x="2229" y="-147.628" font-family="Helvetica,sans-Serif" font-size="10.00">parser.Parser.parseFile</text>
</a>
</g>
</g>
<!-- Node11&#45;&gt;Node12 -->
<g id="edge11" class="edge"><title>Node11&#45;&gt;Node12</title>
<path fill="none" stroke="midnightblue" d="M2111.98,-121.122C2136.79,-127.327 2166.67,-134.795 2189.89,-140.6"/>
<polygon fill="midnightblue" stroke="midnightblue" points="2112.59,-117.668 2102.04,-118.638 2110.89,-124.459 2112.59,-117.668"/>
</g>
<!-- Node17 -->
<g id="node17" class="node"><title>Node17</title>
<g id="a_node17"><a xlink:href="../../d4/d06/classinput_1_1_input_executor.html#a687a9f2cbed5d27a2c7b1336a1cab8aa" target="_top" xlink:title="input.InputExecutor.process\lInput">
<polygon fill="white" stroke="black" points="2154.5,-50.1283 2154.5,-80.1283 2303.5,-80.1283 2303.5,-50.1283 2154.5,-50.1283"/>
<text text-anchor="start" x="2162.5" y="-68.1283" font-family="Helvetica,sans-Serif" font-size="10.00">input.InputExecutor.process</text>
<text text-anchor="middle" x="2229" y="-57.1283" font-family="Helvetica,sans-Serif" font-size="10.00">Input</text>
</a>
</g>
</g>
<!-- Node11&#45;&gt;Node17 -->
<g id="edge16" class="edge"><title>Node11&#45;&gt;Node17</title>
<path fill="none" stroke="midnightblue" d="M2109.36,-96.9596C2128.7,-91.7709 2151.46,-85.6637 2171.85,-80.1937"/>
<polygon fill="midnightblue" stroke="midnightblue" points="2108.34,-93.6091 2099.59,-99.5809 2110.15,-100.37 2108.34,-93.6091"/>
</g>
<!-- Node18 -->
<g id="node18" class="node"><title>Node18</title>
<g id="a_node18"><a xlink:href="../../d5/d56/class_workspace.html#a0ed8fb487512971086b6f3ed0d74e4ae" target="_top" xlink:title="Workspace.sendUserInput">
<polygon fill="white" stroke="black" points="2345,-98.6283 2345,-117.628 2485,-117.628 2485,-98.6283 2345,-98.6283"/>
<text text-anchor="middle" x="2415" y="-105.628" font-family="Helvetica,sans-Serif" font-size="10.00">Workspace.sendUserInput</text>
</a>
</g>
</g>
<!-- Node11&#45;&gt;Node18 -->
<g id="edge17" class="edge"><title>Node11&#45;&gt;Node18</title>
<path fill="none" stroke="midnightblue" d="M2127.86,-108.946C2189.23,-108.77 2281.7,-108.506 2344.79,-108.326"/>
<polygon fill="midnightblue" stroke="midnightblue" points="2127.53,-105.447 2117.54,-108.975 2127.55,-112.447 2127.53,-105.447"/>
</g>
<!-- Node13 -->
<g id="node13" class="node"><title>Node13</title>
<g id="a_node13"><a xlink:href="../../d9/de8/class_file_chooser_feature.html#ad742b8e9d07e8151f0a9ff1972867ce8" target="_top" xlink:title="FileChooserFeature.openFile\lChooser">
<polygon fill="white" stroke="black" points="2340.5,-137.128 2340.5,-167.128 2489.5,-167.128 2489.5,-137.128 2340.5,-137.128"/>
<text text-anchor="start" x="2348.5" y="-155.128" font-family="Helvetica,sans-Serif" font-size="10.00">FileChooserFeature.openFile</text>
<text text-anchor="middle" x="2415" y="-144.128" font-family="Helvetica,sans-Serif" font-size="10.00">Chooser</text>
</a>
</g>
</g>
<!-- Node12&#45;&gt;Node13 -->
<g id="edge12" class="edge"><title>Node12&#45;&gt;Node13</title>
<path fill="none" stroke="midnightblue" d="M2301.17,-150.902C2314.02,-151.042 2327.44,-151.187 2340.35,-151.328"/>
<polygon fill="midnightblue" stroke="midnightblue" points="2301.05,-147.4 2291.01,-150.791 2300.98,-154.4 2301.05,-147.4"/>
</g>
<!-- Node14 -->
<g id="node14" class="node"><title>Node14</title>
<g id="a_node14"><a xlink:href="../../d5/d56/class_workspace.html#a6babd032d9af86fbc23812272d59a2d2" target="_top" xlink:title="Workspace.addFeatureButtons">
<polygon fill="white" stroke="black" points="2526,-140.628 2526,-159.628 2688,-159.628 2688,-140.628 2526,-140.628"/>
<text text-anchor="middle" x="2607" y="-147.628" font-family="Helvetica,sans-Serif" font-size="10.00">Workspace.addFeatureButtons</text>
</a>
</g>
</g>
<!-- Node13&#45;&gt;Node14 -->
<g id="edge13" class="edge"><title>Node13&#45;&gt;Node14</title>
<path fill="none" stroke="midnightblue" d="M2499.77,-151.247C2508.38,-151.156 2517.12,-151.064 2525.7,-150.974"/>
<polygon fill="midnightblue" stroke="midnightblue" points="2499.69,-147.747 2489.73,-151.352 2499.77,-154.747 2499.69,-147.747"/>
</g>
<!-- Node15 -->
<g id="node15" class="node"><title>Node15</title>
<g id="a_node15"><a xlink:href="../../d5/d56/class_workspace.html#a429d535dfd8427637b7715f0b1e1df1b" target="_top" xlink:title="Workspace.createWorkspace">
<polygon fill="white" stroke="black" points="2724,-120.628 2724,-139.628 2876,-139.628 2876,-120.628 2724,-120.628"/>
<text text-anchor="middle" x="2800" y="-127.628" font-family="Helvetica,sans-Serif" font-size="10.00">Workspace.createWorkspace</text>
</a>
</g>
</g>
<!-- Node14&#45;&gt;Node15 -->
<g id="edge14" class="edge"><title>Node14&#45;&gt;Node15</title>
<path fill="none" stroke="midnightblue" d="M2698.22,-140.681C2706.82,-139.78 2715.48,-138.874 2723.91,-137.991"/>
<polygon fill="midnightblue" stroke="midnightblue" points="2697.75,-137.211 2688.17,-141.733 2698.48,-144.173 2697.75,-137.211"/>
</g>
<!-- Node16 -->
<g id="node16" class="node"><title>Node16</title>
<g id="a_node16"><a xlink:href="../../d0/d4b/class_main.html#aaa75b38812324d0f17c89f139bde6ada" target="_top" xlink:title="Main.start">
<polygon fill="white" stroke="black" points="2912.5,-120.628 2912.5,-139.628 2977.5,-139.628 2977.5,-120.628 2912.5,-120.628"/>
<text text-anchor="middle" x="2945" y="-127.628" font-family="Helvetica,sans-Serif" font-size="10.00">Main.start</text>
</a>
</g>
</g>
<!-- Node15&#45;&gt;Node16 -->
<g id="edge15" class="edge"><title>Node15&#45;&gt;Node16</title>
<path fill="none" stroke="midnightblue" d="M2886.39,-130.128C2895.63,-130.128 2904.55,-130.128 2912.5,-130.128"/>
<polygon fill="midnightblue" stroke="midnightblue" points="2886.27,-126.628 2876.27,-130.128 2886.27,-133.628 2886.27,-126.628"/>
</g>
<!-- Node18&#45;&gt;Node15 -->
<g id="edge18" class="edge"><title>Node18&#45;&gt;Node15</title>
<path fill="none" stroke="midnightblue" d="M2495.47,-112.693C2562.6,-116.549 2658.08,-122.033 2723.94,-125.816"/>
<polygon fill="midnightblue" stroke="midnightblue" points="2495.54,-109.192 2485.36,-112.112 2495.14,-116.18 2495.54,-109.192"/>
</g>
<!-- Node19&#45;&gt;Node8 -->
<g id="edge20" class="edge"><title>Node19&#45;&gt;Node8</title>
<path fill="none" stroke="midnightblue" d="M1598.2,-135.376C1622.52,-130.003 1650.95,-123.72 1673.91,-118.648"/>
<polygon fill="midnightblue" stroke="midnightblue" points="1597.41,-131.964 1588.4,-137.539 1598.92,-138.8 1597.41,-131.964"/>
</g>
<!-- Node20&#45;&gt;Node21 -->
<g id="edge25" class="edge"><title>Node20&#45;&gt;Node21</title>
<path fill="none" stroke="midnightblue" d="M940.604,-219.625C949.039,-218.624 957.601,-217.607 965.907,-216.621"/>
<polygon fill="midnightblue" stroke="midnightblue" points="939.92,-216.182 930.403,-220.837 940.746,-223.133 939.92,-216.182"/>
</g>
<!-- Node21&#45;&gt;Node6 -->
<g id="edge26" class="edge"><title>Node21&#45;&gt;Node6</title>
<path fill="none" stroke="midnightblue" d="M1096.21,-197.805C1111.75,-195.106 1128.18,-192.253 1143.2,-189.645"/>
<polygon fill="midnightblue" stroke="midnightblue" points="1095.4,-194.393 1086.14,-199.552 1096.6,-201.29 1095.4,-194.393"/>
</g>
<!-- Node22&#45;&gt;Node6 -->
<g id="edge30" class="edge"><title>Node22&#45;&gt;Node6</title>
<path fill="none" stroke="midnightblue" d="M771.476,-299.342C817.489,-295.516 877.561,-288.951 930,-278.128 1004.63,-262.726 1022.8,-255.269 1094,-228.128 1124.47,-216.513 1158.58,-200.08 1179.17,-189.77"/>
<polygon fill="midnightblue" stroke="midnightblue" points="770.973,-295.871 761.287,-300.164 771.536,-302.848 770.973,-295.871"/>
</g>
<!-- Node22&#45;&gt;Node7 -->
<g id="edge31" class="edge"><title>Node22&#45;&gt;Node7</title>
<path fill="none" stroke="midnightblue" d="M771.183,-307.109C817.087,-307.98 877.148,-307.361 930,-301.128 1085.83,-282.751 1124.9,-263.494 1268,-199.128 1297.51,-185.855 1330.49,-167.608 1349.68,-156.632"/>
<polygon fill="midnightblue" stroke="midnightblue" points="771.094,-303.607 761.02,-306.888 770.941,-310.605 771.094,-303.607"/>
</g>
<!-- Node22&#45;&gt;Node8 -->
<g id="edge32" class="edge"><title>Node22&#45;&gt;Node8</title>
<path fill="none" stroke="midnightblue" d="M758.343,-317.318C762.395,-319.028 766.321,-320.955 770,-323.128 790.031,-334.96 785.943,-349.341 806,-361.128 894.194,-412.961 926.702,-418.128 1029,-418.128 1029,-418.128 1029,-418.128 1368,-418.128 1553.32,-418.128 1686.36,-170.871 1712.36,-118.715"/>
<polygon fill="midnightblue" stroke="midnightblue" points="759.312,-313.944 748.72,-313.712 756.856,-320.499 759.312,-313.944"/>
</g>
<!-- Node22&#45;&gt;Node19 -->
<g id="edge34" class="edge"><title>Node22&#45;&gt;Node19</title>
<path fill="none" stroke="midnightblue" d="M744.259,-316.182C829.016,-337.615 1000.7,-380.128 1029,-380.128 1029,-380.128 1029,-380.128 1200,-380.128 1361.61,-380.128 1503.56,-200.94 1536.04,-156.843"/>
<polygon fill="midnightblue" stroke="midnightblue" points="744.923,-312.739 734.37,-313.677 743.204,-319.525 744.923,-312.739"/>
</g>
<!-- Node22&#45;&gt;Node20 -->
<g id="edge33" class="edge"><title>Node22&#45;&gt;Node20</title>
<path fill="none" stroke="midnightblue" d="M725.161,-290.023C747.024,-279.237 778.194,-264.213 806,-252.128 817.585,-247.093 830.592,-241.912 841.61,-237.659"/>
<polygon fill="midnightblue" stroke="midnightblue" points="723.513,-286.933 716.108,-294.51 726.622,-293.205 723.513,-286.933"/>
</g>
<!-- Node22&#45;&gt;Node21 -->
<g id="edge35" class="edge"><title>Node22&#45;&gt;Node21</title>
<path fill="none" stroke="midnightblue" d="M753.248,-292.464C800.783,-282.109 870.446,-265.76 930,-247.128 956.707,-238.773 986.601,-226.943 1006.48,-218.71"/>
<polygon fill="midnightblue" stroke="midnightblue" points="752.486,-289.048 743.452,-294.581 753.965,-295.89 752.486,-289.048"/>
</g>
<!-- Node23&#45;&gt;Node2 -->
<g id="edge37" class="edge"><title>Node23&#45;&gt;Node2</title>
<path fill="none" stroke="midnightblue" d="M369.831,-311.057C378.456,-311.923 387.17,-312.798 395.756,-313.661"/>
<polygon fill="midnightblue" stroke="midnightblue" points="370.06,-307.562 359.76,-310.045 369.36,-314.527 370.06,-307.562"/>
</g>
</g>
</svg>
        <g id="navigator" transform="translate(0 0)" fill="#404254">
                <rect fill="#f2f5e9" fill-opacity="0.5" stroke="#606060" stroke-width=".5" x="0" y="0" width="60" height="60"/>
                <use id="zoomplus" xlink:href="#zoomPlus" x="17" y="9" onmousedown="handleZoom(evt,'in')"/>
                <use id="zoomminus" xlink:href="#zoomMin" x="42" y="9" onmousedown="handleZoom(evt,'out')"/>
                <use id="reset" xlink:href="#resetDef" x="30" y="36" onmousedown="handleReset()"/>
                <g id="arrowUp" xlink:href="#dirArrow" transform="translate(30 24)" onmousedown="handlePan(0,-1)">
                  <use xlink:href="#rim" fill="#404040">
                        <set attributeName="fill" to="#808080" begin="arrowUp.mouseover" end="arrowUp.mouseout"/>
                  </use>
                  <path fill="none" stroke="white" stroke-width="1.5" d="M0,-3.0v7 M-2.5,-0.5L0,-3.0L2.5,-0.5"/>
                </g>
                <g id="arrowRight" xlink:href="#dirArrow" transform="rotate(90) translate(36 -43)" onmousedown="handlePan(1,0)">
                  <use xlink:href="#rim" fill="#404040">
                        <set attributeName="fill" to="#808080" begin="arrowRight.mouseover" end="arrowRight.mouseout"/>
                  </use>
                  <path fill="none" stroke="white" stroke-width="1.5" d="M0,-3.0v7 M-2.5,-0.5L0,-3.0L2.5,-0.5"/>
                </g>
                <g id="arrowDown" xlink:href="#dirArrow" transform="rotate(180) translate(-30 -48)" onmousedown="handlePan(0,1)">
                  <use xlink:href="#rim" fill="#404040">
                        <set attributeName="fill" to="#808080" begin="arrowDown.mouseover" end="arrowDown.mouseout"/>
                  </use>
                  <path fill="none" stroke="white" stroke-width="1.5" d="M0,-3.0v7 M-2.5,-0.5L0,-3.0L2.5,-0.5"/>
                </g>
                <g id="arrowLeft" xlink:href="#dirArrow" transform="rotate(270) translate(-36 17)" onmousedown="handlePan(-1,0)">
                  <use xlink:href="#rim" fill="#404040">
                        <set attributeName="fill" to="#808080" begin="arrowLeft.mouseover" end="arrowLeft.mouseout"/>
                  </use>
                  <path fill="none" stroke="white" stroke-width="1.5" d="M0,-3.0v7 M-2.5,-0.5L0,-3.0L2.5,-0.5"/>
                </g>
        </g>
        <svg viewBox="0 0 15 15" width="100%" height="30px" preserveAspectRatio="xMaxYMin meet">
         <g id="arrow_out" transform="scale(0.3 0.3)">
          <a xlink:href="classparser_1_1_simple_char_stream_ad220e4e4324856b29042bb7cd3f1bf5e_icgraph_org.svg" target="_base">
           <rect id="button" ry="5" rx="5" y="6" x="6" height="38" width="38"
                fill="#f2f5e9" fill-opacity="0.5" stroke="#606060" stroke-width="1.0"/>
           <path id="arrow"
             d="M 11.500037,31.436501 C 11.940474,20.09759 22.043105,11.32322 32.158766,21.979434 L 37.068811,17.246167 C 37.068811,17.246167 37.088388,32 37.088388,32 L 22.160133,31.978069 C 22.160133,31.978069 26.997745,27.140456 26.997745,27.140456 C 18.528582,18.264221 13.291696,25.230495 11.500037,31.436501 z"
             style="fill:#404040;"/>
          </a>
         </g>
        </svg>
</svg>
