<?xml version="1.0" encoding="UTF-8" standalone="no"?>
<!DOCTYPE svg PUBLIC "-//W3C//DTD SVG 1.1//EN"
 "http://www.w3.org/Graphics/SVG/1.1/DTD/svg11.dtd">
<!-- Generated by graphviz version 2.36.0 (20140111.2315)
 -->
<!-- Title: parser.SimpleCharStream.ReInit Pages: 1 -->
<svg width="332pt" height="77pt"
 viewBox="0.00 0.00 332.00 77.00" xmlns="http://www.w3.org/2000/svg" xmlns:xlink="http://www.w3.org/1999/xlink">
<g id="graph0" class="graph" transform="scale(1 1) rotate(0) translate(4 73)">
<title>parser.SimpleCharStream.ReInit</title>
<polygon fill="white" stroke="none" points="-4,4 -4,-73 328,-73 328,4 -4,4"/>
<!-- Node1 -->
<g id="node1" class="node"><title>Node1</title>
<polygon fill="#bfbfbf" stroke="black" points="0,-17 0,-47 144,-47 144,-17 0,-17"/>
<text text-anchor="start" x="8" y="-35" font-family="Helvetica,sans-Serif" font-size="10.00">parser.SimpleCharStream.</text>
<text text-anchor="middle" x="72" y="-24" font-family="Helvetica,sans-Serif" font-size="10.00">ReInit</text>
</g>
<!-- Node2 -->
<g id="node2" class="node"><title>Node2</title>
<g id="a_node2"><a xlink:href="../../d4/dad/classparser_1_1_simple_char_stream.html#aaadcb098b1539b5df2de4eebd906d78d" target="_top" xlink:title="parser.SimpleCharStream.\lReInit">
<polygon fill="white" stroke="black" points="180,-39 180,-69 324,-69 324,-39 180,-39"/>
<text text-anchor="start" x="188" y="-57" font-family="Helvetica,sans-Serif" font-size="10.00">parser.SimpleCharStream.</text>
<text text-anchor="middle" x="252" y="-46" font-family="Helvetica,sans-Serif" font-size="10.00">ReInit</text>
</a>
</g>
</g>
<!-- Node1&#45;&gt;Node2 -->
<g id="edge1" class="edge"><title>Node1&#45;&gt;Node2</title>
<path fill="none" stroke="midnightblue" d="M154.17,-42.0323C162.789,-43.0975 171.506,-44.1749 179.995,-45.2241"/>
<polygon fill="midnightblue" stroke="midnightblue" points="154.472,-38.543 144.118,-40.7898 153.613,-45.4901 154.472,-38.543"/>
</g>
<!-- Node3 -->
<g id="node3" class="node"><title>Node3</title>
<g id="a_node3"><a xlink:href="../../d5/d0e/classparser_1_1_logo_parser.html#ad67ba6e3a9b52b58bf08ea2ff3617c0b" target="_top" xlink:title="parser.LogoParser.ReInit">
<polygon fill="white" stroke="black" points="186.5,-0.5 186.5,-19.5 317.5,-19.5 317.5,-0.5 186.5,-0.5"/>
<text text-anchor="middle" x="252" y="-7.5" font-family="Helvetica,sans-Serif" font-size="10.00">parser.LogoParser.ReInit</text>
</a>
</g>
</g>
<!-- Node1&#45;&gt;Node3 -->
<g id="edge2" class="edge"><title>Node1&#45;&gt;Node3</title>
<path fill="none" stroke="midnightblue" d="M154.336,-21.9472C165.063,-20.6214 175.94,-19.2771 186.337,-17.9921"/>
<polygon fill="midnightblue" stroke="midnightblue" points="153.613,-18.5099 144.118,-23.2102 154.472,-25.457 153.613,-18.5099"/>
</g>
</g>
</svg>
