<?xml version="1.0" encoding="UTF-8" standalone="no"?>
<!DOCTYPE svg PUBLIC "-//W3C//DTD SVG 1.1//EN"
 "http://www.w3.org/Graphics/SVG/1.1/DTD/svg11.dtd">
<!-- Generated by graphviz version 2.36.0 (20140111.2315)
 -->
<!-- Title: parser.SimpleCharStream.readChar Pages: 1 -->
<svg width="4758pt" height="779pt"
 viewBox="0.00 0.00 4758.00 778.70" xmlns="http://www.w3.org/2000/svg" xmlns:xlink="http://www.w3.org/1999/xlink">
<g id="graph0" class="graph" transform="scale(1 1) rotate(0) translate(4 774.698)">
<title>parser.SimpleCharStream.readChar</title>
<polygon fill="white" stroke="none" points="-4,4 -4,-774.698 4754,-774.698 4754,4 -4,4"/>
<!-- Node1 -->
<g id="node1" class="node"><title>Node1</title>
<polygon fill="#bfbfbf" stroke="black" points="0,-505.5 0,-524.5 188,-524.5 188,-505.5 0,-505.5"/>
<text text-anchor="middle" x="94" y="-512.5" font-family="Helvetica,sans-Serif" font-size="10.00">parser.SimpleCharStream.readChar</text>
</g>
<!-- Node2 -->
<g id="node2" class="node"><title>Node2</title>
<g id="a_node2"><a xlink:href="../../d4/dad/classparser_1_1_simple_char_stream.html#ad35e1457d139a5986c04f7975065d03d" target="_top" xlink:title="parser.SimpleCharStream.\lBeginToken">
<polygon fill="white" stroke="black" points="674,-687 674,-717 818,-717 818,-687 674,-687"/>
<text text-anchor="start" x="682" y="-705" font-family="Helvetica,sans-Serif" font-size="10.00">parser.SimpleCharStream.</text>
<text text-anchor="middle" x="746" y="-694" font-family="Helvetica,sans-Serif" font-size="10.00">BeginToken</text>
</a>
</g>
</g>
<!-- Node1&#45;&gt;Node2 -->
<g id="edge1" class="edge"><title>Node1&#45;&gt;Node2</title>
<path fill="none" stroke="midnightblue" d="M103.823,-533.754C121.228,-568.309 163.606,-641.302 224,-672 369.784,-746.1 568.997,-730.621 673.822,-715.046"/>
<polygon fill="midnightblue" stroke="midnightblue" points="106.943,-532.167 99.4056,-524.721 100.655,-535.242 106.943,-532.167"/>
</g>
<!-- Node3 -->
<g id="node3" class="node"><title>Node3</title>
<g id="a_node3"><a xlink:href="../../d0/d8c/classparser_1_1_logo_parser_token_manager.html#a3dee50e2286b70ba662519a865e63b77" target="_top" xlink:title="parser.LogoParserTokenManager.get\lNextToken">
<polygon fill="white" stroke="black" points="2168,-643 2168,-673 2358,-673 2358,-643 2168,-643"/>
<text text-anchor="start" x="2176" y="-661" font-family="Helvetica,sans-Serif" font-size="10.00">parser.LogoParserTokenManager.get</text>
<text text-anchor="middle" x="2263" y="-650" font-family="Helvetica,sans-Serif" font-size="10.00">NextToken</text>
</a>
</g>
</g>
<!-- Node1&#45;&gt;Node3 -->
<g id="edge37" class="edge"><title>Node1&#45;&gt;Node3</title>
<path fill="none" stroke="midnightblue" d="M111.95,-531.76C135.13,-553.601 178.998,-591.215 224,-610 350.635,-662.859 391.776,-658 529,-658 529,-658 529,-658 1827,-658 1944.43,-658 2079.7,-658 2167.81,-658"/>
<polygon fill="midnightblue" stroke="midnightblue" points="114.284,-529.149 104.646,-524.749 109.437,-534.199 114.284,-529.149"/>
</g>
<!-- Node24 -->
<g id="node24" class="node"><title>Node24</title>
<g id="a_node24"><a xlink:href="../../d0/d8c/classparser_1_1_logo_parser_token_manager.html#a0071f141b41b403c8ab151c8c014a709" target="_top" xlink:title="parser.LogoParserTokenManager.jj\lMoveNfa_0">
<polygon fill="white" stroke="black" points="224.5,-197 224.5,-227 403.5,-227 403.5,-197 224.5,-197"/>
<text text-anchor="start" x="232.5" y="-215" font-family="Helvetica,sans-Serif" font-size="10.00">parser.LogoParserTokenManager.jj</text>
<text text-anchor="middle" x="314" y="-204" font-family="Helvetica,sans-Serif" font-size="10.00">MoveNfa_0</text>
</a>
</g>
</g>
<!-- Node1&#45;&gt;Node24 -->
<g id="edge38" class="edge"><title>Node1&#45;&gt;Node24</title>
<path fill="none" stroke="midnightblue" d="M100.461,-495.666C114.254,-449.809 154.434,-332.925 224,-261 237.979,-246.547 257.157,-235.249 274.132,-227.162"/>
<polygon fill="midnightblue" stroke="midnightblue" points="97.0344,-494.915 97.5862,-505.495 103.753,-496.88 97.0344,-494.915"/>
</g>
<!-- Node27 -->
<g id="node27" class="node"><title>Node27</title>
<g id="a_node27"><a xlink:href="../../d0/d8c/classparser_1_1_logo_parser_token_manager.html#a99a01f0b68908e628349e9f09a2cbccd" target="_top" xlink:title="parser.LogoParserTokenManager.jj\lMoveStringLiteralDfa1_0">
<polygon fill="white" stroke="black" points="1736.5,-504 1736.5,-534 1915.5,-534 1915.5,-504 1736.5,-504"/>
<text text-anchor="start" x="1744.5" y="-522" font-family="Helvetica,sans-Serif" font-size="10.00">parser.LogoParserTokenManager.jj</text>
<text text-anchor="middle" x="1826" y="-511" font-family="Helvetica,sans-Serif" font-size="10.00">MoveStringLiteralDfa1_0</text>
</a>
</g>
</g>
<!-- Node1&#45;&gt;Node27 -->
<g id="edge61" class="edge"><title>Node1&#45;&gt;Node27</title>
<path fill="none" stroke="midnightblue" d="M120.455,-529.535C145.868,-543.389 186.443,-563.755 224,-575 355.265,-614.303 391.977,-620 529,-620 529,-620 529,-620 1179,-620 1398.94,-620 1655.99,-562.147 1768,-534.012"/>
<polygon fill="midnightblue" stroke="midnightblue" points="121.94,-526.357 111.496,-524.577 118.551,-532.482 121.94,-526.357"/>
</g>
<!-- Node28 -->
<g id="node28" class="node"><title>Node28</title>
<g id="a_node28"><a xlink:href="../../d0/d8c/classparser_1_1_logo_parser_token_manager.html#a26eaeb3ef169f93c03edbb3e26128b7a" target="_top" xlink:title="parser.LogoParserTokenManager.jj\lMoveStringLiteralDfa2_0">
<polygon fill="white" stroke="black" points="1520.5,-485 1520.5,-515 1699.5,-515 1699.5,-485 1520.5,-485"/>
<text text-anchor="start" x="1528.5" y="-503" font-family="Helvetica,sans-Serif" font-size="10.00">parser.LogoParserTokenManager.jj</text>
<text text-anchor="middle" x="1610" y="-492" font-family="Helvetica,sans-Serif" font-size="10.00">MoveStringLiteralDfa2_0</text>
</a>
</g>
</g>
<!-- Node1&#45;&gt;Node28 -->
<g id="edge62" class="edge"><title>Node1&#45;&gt;Node28</title>
<path fill="none" stroke="midnightblue" d="M141.696,-527.021C220.819,-546.303 386.538,-582 529,-582 529,-582 529,-582 747,-582 1030.56,-582 1364.23,-537.482 1520.23,-514.05"/>
<polygon fill="midnightblue" stroke="midnightblue" points="142.119,-523.521 131.573,-524.528 140.445,-530.318 142.119,-523.521"/>
</g>
<!-- Node29 -->
<g id="node29" class="node"><title>Node29</title>
<g id="a_node29"><a xlink:href="../../d0/d8c/classparser_1_1_logo_parser_token_manager.html#a12bfedaecfaf646642cb1aba5b1bd6fb" target="_top" xlink:title="parser.LogoParserTokenManager.jj\lMoveStringLiteralDfa3_0">
<polygon fill="white" stroke="black" points="1304.5,-415 1304.5,-445 1483.5,-445 1483.5,-415 1304.5,-415"/>
<text text-anchor="start" x="1312.5" y="-433" font-family="Helvetica,sans-Serif" font-size="10.00">parser.LogoParserTokenManager.jj</text>
<text text-anchor="middle" x="1394" y="-422" font-family="Helvetica,sans-Serif" font-size="10.00">MoveStringLiteralDfa3_0</text>
</a>
</g>
</g>
<!-- Node1&#45;&gt;Node29 -->
<g id="edge63" class="edge"><title>Node1&#45;&gt;Node29</title>
<path fill="none" stroke="midnightblue" d="M198.289,-508.952C402.634,-496.864 872.941,-468.43 1268,-440 1279.73,-439.156 1292.07,-438.223 1304.24,-437.277"/>
<polygon fill="midnightblue" stroke="midnightblue" points="197.944,-505.466 188.168,-509.55 198.358,-512.454 197.944,-505.466"/>
</g>
<!-- Node30 -->
<g id="node30" class="node"><title>Node30</title>
<g id="a_node30"><a xlink:href="../../d0/d8c/classparser_1_1_logo_parser_token_manager.html#aa9aaf3af52d382735345487d2b89e0cf" target="_top" xlink:title="parser.LogoParserTokenManager.jj\lMoveStringLiteralDfa4_0">
<polygon fill="white" stroke="black" points="1088.5,-279 1088.5,-309 1267.5,-309 1267.5,-279 1088.5,-279"/>
<text text-anchor="start" x="1096.5" y="-297" font-family="Helvetica,sans-Serif" font-size="10.00">parser.LogoParserTokenManager.jj</text>
<text text-anchor="middle" x="1178" y="-286" font-family="Helvetica,sans-Serif" font-size="10.00">MoveStringLiteralDfa4_0</text>
</a>
</g>
</g>
<!-- Node1&#45;&gt;Node30 -->
<g id="edge64" class="edge"><title>Node1&#45;&gt;Node30</title>
<path fill="none" stroke="midnightblue" d="M96.0239,-495.338C100.21,-437.147 121.153,-264.989 224,-187 517.331,35.4335 706.106,-82.9976 1052,-209 1095.4,-224.809 1138.21,-259.057 1160.72,-278.917"/>
<polygon fill="midnightblue" stroke="midnightblue" points="92.526,-495.195 95.3907,-505.395 99.5122,-495.635 92.526,-495.195"/>
</g>
<!-- Node31 -->
<g id="node31" class="node"><title>Node31</title>
<g id="a_node31"><a xlink:href="../../d0/d8c/classparser_1_1_logo_parser_token_manager.html#a4553920ced069b9d4852f1c1020bea38" target="_top" xlink:title="parser.LogoParserTokenManager.jj\lMoveStringLiteralDfa5_0">
<polygon fill="white" stroke="black" points="872.5,-279 872.5,-309 1051.5,-309 1051.5,-279 872.5,-279"/>
<text text-anchor="start" x="880.5" y="-297" font-family="Helvetica,sans-Serif" font-size="10.00">parser.LogoParserTokenManager.jj</text>
<text text-anchor="middle" x="962" y="-286" font-family="Helvetica,sans-Serif" font-size="10.00">MoveStringLiteralDfa5_0</text>
</a>
</g>
</g>
<!-- Node1&#45;&gt;Node31 -->
<g id="edge65" class="edge"><title>Node1&#45;&gt;Node31</title>
<path fill="none" stroke="midnightblue" d="M116.537,-499.438C141.341,-482.175 183.849,-454.578 224,-438 446.179,-346.267 730.614,-311.975 872.383,-299.967"/>
<polygon fill="midnightblue" stroke="midnightblue" points="114.393,-496.667 108.237,-505.291 118.427,-502.388 114.393,-496.667"/>
</g>
<!-- Node32 -->
<g id="node32" class="node"><title>Node32</title>
<g id="a_node32"><a xlink:href="../../d0/d8c/classparser_1_1_logo_parser_token_manager.html#a1bad232a9ce95d19e7133cbee0b538b5" target="_top" xlink:title="parser.LogoParserTokenManager.jj\lMoveStringLiteralDfa6_0">
<polygon fill="white" stroke="black" points="656.5,-257 656.5,-287 835.5,-287 835.5,-257 656.5,-257"/>
<text text-anchor="start" x="664.5" y="-275" font-family="Helvetica,sans-Serif" font-size="10.00">parser.LogoParserTokenManager.jj</text>
<text text-anchor="middle" x="746" y="-264" font-family="Helvetica,sans-Serif" font-size="10.00">MoveStringLiteralDfa6_0</text>
</a>
</g>
</g>
<!-- Node1&#45;&gt;Node32 -->
<g id="edge66" class="edge"><title>Node1&#45;&gt;Node32</title>
<path fill="none" stroke="midnightblue" d="M100.175,-495.314C112.838,-451.564 149.905,-346.604 224,-302 365.854,-216.606 570.683,-237.844 676.286,-256.989"/>
<polygon fill="midnightblue" stroke="midnightblue" points="96.7762,-494.473 97.4734,-505.045 103.521,-496.345 96.7762,-494.473"/>
</g>
<!-- Node33 -->
<g id="node33" class="node"><title>Node33</title>
<g id="a_node33"><a xlink:href="../../d0/d8c/classparser_1_1_logo_parser_token_manager.html#a94b20a17d94554012918e876be221c46" target="_top" xlink:title="parser.LogoParserTokenManager.jj\lStartNfaWithStates_0">
<polygon fill="white" stroke="black" points="440.5,-396 440.5,-426 619.5,-426 619.5,-396 440.5,-396"/>
<text text-anchor="start" x="448.5" y="-414" font-family="Helvetica,sans-Serif" font-size="10.00">parser.LogoParserTokenManager.jj</text>
<text text-anchor="middle" x="530" y="-403" font-family="Helvetica,sans-Serif" font-size="10.00">StartNfaWithStates_0</text>
</a>
</g>
</g>
<!-- Node1&#45;&gt;Node33 -->
<g id="edge67" class="edge"><title>Node1&#45;&gt;Node33</title>
<path fill="none" stroke="midnightblue" d="M144.401,-503.162C223.62,-484.179 378.984,-446.949 466.046,-426.086"/>
<polygon fill="midnightblue" stroke="midnightblue" points="143.574,-499.761 134.665,-505.495 145.205,-506.568 143.574,-499.761"/>
</g>
<!-- Node2&#45;&gt;Node3 -->
<g id="edge2" class="edge"><title>Node2&#45;&gt;Node3</title>
<path fill="none" stroke="midnightblue" d="M828.148,-701.097C914.599,-700.213 1055.46,-699 1177,-699 1177,-699 1177,-699 1827,-699 1944.77,-699 2079.68,-683.921 2167.63,-672.053"/>
<polygon fill="midnightblue" stroke="midnightblue" points="828.103,-697.597 818.14,-701.2 828.175,-704.597 828.103,-697.597"/>
</g>
<!-- Node4 -->
<g id="node4" class="node"><title>Node4</title>
<g id="a_node4"><a xlink:href="../../d5/d0e/classparser_1_1_logo_parser.html#a7477b52c4469ea43d75f88fb805e37a1" target="_top" xlink:title="parser.LogoParser.getNext\lToken">
<polygon fill="white" stroke="black" points="2396.5,-709 2396.5,-739 2539.5,-739 2539.5,-709 2396.5,-709"/>
<text text-anchor="start" x="2404.5" y="-727" font-family="Helvetica,sans-Serif" font-size="10.00">parser.LogoParser.getNext</text>
<text text-anchor="middle" x="2468" y="-716" font-family="Helvetica,sans-Serif" font-size="10.00">Token</text>
</a>
</g>
</g>
<!-- Node3&#45;&gt;Node4 -->
<g id="edge3" class="edge"><title>Node3&#45;&gt;Node4</title>
<path fill="none" stroke="midnightblue" d="M2319.88,-676.166C2351.5,-686.449 2390.59,-699.158 2420.53,-708.892"/>
<polygon fill="midnightblue" stroke="midnightblue" points="2320.91,-672.822 2310.32,-673.059 2318.75,-679.479 2320.91,-672.822"/>
</g>
<!-- Node5 -->
<g id="node5" class="node"><title>Node5</title>
<g id="a_node5"><a xlink:href="../../d5/d0e/classparser_1_1_logo_parser.html#a63b7890a7d6323bcf938132f968e8157" target="_top" xlink:title="parser.LogoParser.getToken">
<polygon fill="white" stroke="black" points="2394,-670.5 2394,-689.5 2542,-689.5 2542,-670.5 2394,-670.5"/>
<text text-anchor="middle" x="2468" y="-677.5" font-family="Helvetica,sans-Serif" font-size="10.00">parser.LogoParser.getToken</text>
</a>
</g>
</g>
<!-- Node3&#45;&gt;Node5 -->
<g id="edge4" class="edge"><title>Node3&#45;&gt;Node5</title>
<path fill="none" stroke="midnightblue" d="M2368.24,-669.297C2376.91,-670.236 2385.54,-671.172 2393.9,-672.078"/>
<polygon fill="midnightblue" stroke="midnightblue" points="2368.39,-665.793 2358.07,-668.195 2367.64,-672.752 2368.39,-665.793"/>
</g>
<!-- Node6 -->
<g id="node6" class="node"><title>Node6</title>
<g id="a_node6"><a xlink:href="../../d5/d0e/classparser_1_1_logo_parser.html#a550039a3180ec86ef01f419aefc02edc" target="_top" xlink:title="parser.LogoParser.jj\l_consume_token">
<polygon fill="white" stroke="black" points="2413,-621 2413,-651 2523,-651 2523,-621 2413,-621"/>
<text text-anchor="start" x="2421" y="-639" font-family="Helvetica,sans-Serif" font-size="10.00">parser.LogoParser.jj</text>
<text text-anchor="middle" x="2468" y="-628" font-family="Helvetica,sans-Serif" font-size="10.00">_consume_token</text>
</a>
</g>
</g>
<!-- Node3&#45;&gt;Node6 -->
<g id="edge5" class="edge"><title>Node3&#45;&gt;Node6</title>
<path fill="none" stroke="midnightblue" d="M2368.21,-646.706C2383.64,-645.034 2398.99,-643.371 2412.82,-641.871"/>
<polygon fill="midnightblue" stroke="midnightblue" points="2367.64,-643.248 2358.07,-647.805 2368.39,-650.207 2367.64,-643.248"/>
</g>
<!-- Node23 -->
<g id="node23" class="node"><title>Node23</title>
<g id="a_node23"><a xlink:href="../../d5/d0e/classparser_1_1_logo_parser.html#a2e48e3ab2c1c075beca7bcc54d891afd" target="_top" xlink:title="parser.LogoParser.jj_ntk">
<polygon fill="white" stroke="black" points="2403,-455.5 2403,-474.5 2533,-474.5 2533,-455.5 2403,-455.5"/>
<text text-anchor="middle" x="2468" y="-462.5" font-family="Helvetica,sans-Serif" font-size="10.00">parser.LogoParser.jj_ntk</text>
</a>
</g>
</g>
<!-- Node3&#45;&gt;Node23 -->
<g id="edge30" class="edge"><title>Node3&#45;&gt;Node23</title>
<path fill="none" stroke="midnightblue" d="M2287.32,-635.832C2331.47,-593.854 2425.65,-504.315 2456.78,-474.72"/>
<polygon fill="midnightblue" stroke="midnightblue" points="2284.76,-633.429 2279.93,-642.856 2289.59,-638.502 2284.76,-633.429"/>
</g>
<!-- Node7 -->
<g id="node7" class="node"><title>Node7</title>
<g id="a_node7"><a xlink:href="../../d5/d0e/classparser_1_1_logo_parser.html#a82acce8328e52f3b2bcb90542cc800b7" target="_top" xlink:title="parser.LogoParser.arithm">
<polygon fill="white" stroke="black" points="2902.5,-569.5 2902.5,-588.5 3039.5,-588.5 3039.5,-569.5 2902.5,-569.5"/>
<text text-anchor="middle" x="2971" y="-576.5" font-family="Helvetica,sans-Serif" font-size="10.00">parser.LogoParser.arithm</text>
</a>
</g>
</g>
<!-- Node6&#45;&gt;Node7 -->
<g id="edge6" class="edge"><title>Node6&#45;&gt;Node7</title>
<path fill="none" stroke="midnightblue" d="M2533.14,-628.703C2628.08,-617.901 2805.24,-597.745 2902.23,-586.71"/>
<polygon fill="midnightblue" stroke="midnightblue" points="2532.63,-625.238 2523.09,-629.846 2533.42,-632.193 2532.63,-625.238"/>
</g>
<!-- Node8 -->
<g id="node8" class="node"><title>Node8</title>
<g id="a_node8"><a xlink:href="../../d5/d0e/classparser_1_1_logo_parser.html#a397c25c39976e5a1fb689e1f0dd40160" target="_top" xlink:title="parser.LogoParser.eval">
<polygon fill="white" stroke="black" points="3076.5,-607.5 3076.5,-626.5 3201.5,-626.5 3201.5,-607.5 3076.5,-607.5"/>
<text text-anchor="middle" x="3139" y="-614.5" font-family="Helvetica,sans-Serif" font-size="10.00">parser.LogoParser.eval</text>
</a>
</g>
</g>
<!-- Node6&#45;&gt;Node8 -->
<g id="edge22" class="edge"><title>Node6&#45;&gt;Node8</title>
<path fill="none" stroke="midnightblue" d="M2533.15,-634.807C2579.95,-633.892 2644.91,-632.529 2702,-631 2835.43,-627.426 2991.8,-622.137 3076.27,-619.189"/>
<polygon fill="midnightblue" stroke="midnightblue" points="2533.08,-631.308 2523.15,-635.001 2533.21,-638.306 2533.08,-631.308"/>
</g>
<!-- Node9 -->
<g id="node9" class="node"><title>Node9</title>
<g id="a_node9"><a xlink:href="../../d5/d0e/classparser_1_1_logo_parser.html#a6b0ba0c2b5b0bc8c2ef76863fffdb6a3" target="_top" xlink:title="parser.LogoParser.list">
<polygon fill="white" stroke="black" points="3430.5,-645.5 3430.5,-664.5 3549.5,-664.5 3549.5,-645.5 3430.5,-645.5"/>
<text text-anchor="middle" x="3490" y="-652.5" font-family="Helvetica,sans-Serif" font-size="10.00">parser.LogoParser.list</text>
</a>
</g>
</g>
<!-- Node6&#45;&gt;Node9 -->
<g id="edge24" class="edge"><title>Node6&#45;&gt;Node9</title>
<path fill="none" stroke="midnightblue" d="M2529.88,-655.009C2534.05,-656.871 2538.13,-658.868 2542,-661 2559.99,-670.923 2559.32,-681.436 2578,-690 2669.6,-732.007 2700.23,-731 2801,-731 2801,-731 2801,-731 3140,-731 3263.4,-731 3405.84,-685.076 3463.15,-664.625"/>
<polygon fill="midnightblue" stroke="midnightblue" points="2531.21,-651.771 2520.63,-651.149 2528.51,-658.231 2531.21,-651.771"/>
</g>
<!-- Node10 -->
<g id="node10" class="node"><title>Node10</title>
<g id="a_node10"><a xlink:href="../../d5/d0e/classparser_1_1_logo_parser.html#a4a8825534e0488215d22bcd947bc4d41" target="_top" xlink:title="parser.LogoParser.expression">
<polygon fill="white" stroke="black" points="3586.5,-721.5 3586.5,-740.5 3743.5,-740.5 3743.5,-721.5 3586.5,-721.5"/>
<text text-anchor="middle" x="3665" y="-728.5" font-family="Helvetica,sans-Serif" font-size="10.00">parser.LogoParser.expression</text>
</a>
</g>
</g>
<!-- Node6&#45;&gt;Node10 -->
<g id="edge23" class="edge"><title>Node6&#45;&gt;Node10</title>
<path fill="none" stroke="midnightblue" d="M2532.15,-654.161C2535.63,-656.208 2538.95,-658.479 2542,-661 2566.86,-681.548 2551.85,-705.121 2578,-724 2659.97,-783.19 2699.89,-769 2801,-769 2801,-769 2801,-769 3317,-769 3421.39,-769 3542.4,-751.796 3610.4,-740.54"/>
<polygon fill="midnightblue" stroke="midnightblue" points="2533.7,-651.021 2523.21,-649.523 2530.48,-657.235 2533.7,-651.021"/>
</g>
<!-- Node20 -->
<g id="node20" class="node"><title>Node20</title>
<g id="a_node20"><a xlink:href="../../d5/d0e/classparser_1_1_logo_parser.html#ad6ed8e51959a6e19a2323444aa8331c8" target="_top" xlink:title="parser.LogoParser.statement">
<polygon fill="white" stroke="black" points="3238.5,-645.5 3238.5,-664.5 3393.5,-664.5 3393.5,-645.5 3238.5,-645.5"/>
<text text-anchor="middle" x="3316" y="-652.5" font-family="Helvetica,sans-Serif" font-size="10.00">parser.LogoParser.statement</text>
</a>
</g>
</g>
<!-- Node6&#45;&gt;Node20 -->
<g id="edge28" class="edge"><title>Node6&#45;&gt;Node20</title>
<path fill="none" stroke="midnightblue" d="M2532.76,-653.579C2599.19,-670.326 2706.57,-693 2801,-693 2801,-693 2801,-693 2972,-693 3075.2,-693 3194.81,-675.796 3262.02,-664.54"/>
<polygon fill="midnightblue" stroke="midnightblue" points="2533.41,-650.134 2522.86,-651.051 2531.68,-656.916 2533.41,-650.134"/>
</g>
<!-- Node21 -->
<g id="node21" class="node"><title>Node21</title>
<g id="a_node21"><a xlink:href="../../d5/d0e/classparser_1_1_logo_parser.html#a4bdaeff6df067fde6743ff07370c3b0b" target="_top" xlink:title="parser.LogoParser.pow">
<polygon fill="white" stroke="black" points="2578,-531.5 2578,-550.5 2702,-550.5 2702,-531.5 2578,-531.5"/>
<text text-anchor="middle" x="2640" y="-538.5" font-family="Helvetica,sans-Serif" font-size="10.00">parser.LogoParser.pow</text>
</a>
</g>
</g>
<!-- Node6&#45;&gt;Node21 -->
<g id="edge25" class="edge"><title>Node6&#45;&gt;Node21</title>
<path fill="none" stroke="midnightblue" d="M2497.86,-614.886C2519.29,-599.794 2549.6,-579.646 2578,-565 2588.52,-559.576 2600.56,-554.598 2611.15,-550.599"/>
<polygon fill="midnightblue" stroke="midnightblue" points="2495.66,-612.159 2489.54,-620.809 2499.72,-617.863 2495.66,-612.159"/>
</g>
<!-- Node22 -->
<g id="node22" class="node"><title>Node22</title>
<g id="a_node22"><a xlink:href="../../d5/d0e/classparser_1_1_logo_parser.html#a34f4226672a2711ce2691162fdb2124d" target="_top" xlink:title="parser.LogoParser.term">
<polygon fill="white" stroke="black" points="2738,-550.5 2738,-569.5 2866,-569.5 2866,-550.5 2738,-550.5"/>
<text text-anchor="middle" x="2802" y="-557.5" font-family="Helvetica,sans-Serif" font-size="10.00">parser.LogoParser.term</text>
</a>
</g>
</g>
<!-- Node6&#45;&gt;Node22 -->
<g id="edge29" class="edge"><title>Node6&#45;&gt;Node22</title>
<path fill="none" stroke="midnightblue" d="M2524.64,-617.944C2541.66,-612.747 2560.51,-607.321 2578,-603 2633.5,-589.286 2697.67,-577.313 2742.89,-569.507"/>
<polygon fill="midnightblue" stroke="midnightblue" points="2523.37,-614.672 2514.85,-620.967 2525.44,-621.36 2523.37,-614.672"/>
</g>
<!-- Node7&#45;&gt;Node8 -->
<g id="edge7" class="edge"><title>Node7&#45;&gt;Node8</title>
<path fill="none" stroke="midnightblue" d="M3023.65,-590.824C3047.06,-596.182 3074.36,-602.431 3096.41,-607.48"/>
<polygon fill="midnightblue" stroke="midnightblue" points="3024.42,-587.409 3013.89,-588.589 3022.86,-594.232 3024.42,-587.409"/>
</g>
<!-- Node8&#45;&gt;Node9 -->
<g id="edge8" class="edge"><title>Node8&#45;&gt;Node9</title>
<path fill="none" stroke="midnightblue" d="M3211.82,-620.018C3262.82,-622.735 3332.83,-627.627 3394,-636 3411.5,-638.395 3430.62,-642.022 3447.1,-645.467"/>
<polygon fill="midnightblue" stroke="midnightblue" points="3211.72,-616.509 3201.55,-619.487 3211.36,-623.499 3211.72,-616.509"/>
</g>
<!-- Node8&#45;&gt;Node20 -->
<g id="edge20" class="edge"><title>Node8&#45;&gt;Node20</title>
<path fill="none" stroke="midnightblue" d="M3194.12,-628.753C3218.87,-634.126 3247.8,-640.409 3271.16,-645.48"/>
<polygon fill="midnightblue" stroke="midnightblue" points="3194.67,-625.291 3184.16,-626.589 3193.19,-632.131 3194.67,-625.291"/>
</g>
<!-- Node9&#45;&gt;Node10 -->
<g id="edge9" class="edge"><title>Node9&#45;&gt;Node10</title>
<path fill="none" stroke="midnightblue" d="M3522.11,-668.666C3556.78,-683.898 3611.95,-708.133 3642.27,-721.453"/>
<polygon fill="midnightblue" stroke="midnightblue" points="3523.47,-665.443 3512.91,-664.625 3520.66,-671.852 3523.47,-665.443"/>
</g>
<!-- Node11 -->
<g id="node11" class="node"><title>Node11</title>
<g id="a_node11"><a xlink:href="../../d5/d0e/classparser_1_1_logo_parser.html#adefe3b97ad0d2d7fd0dcd13f7ef2c75e" target="_top" xlink:title="parser.LogoParser.parse">
<polygon fill="white" stroke="black" points="3599,-645.5 3599,-664.5 3731,-664.5 3731,-645.5 3599,-645.5"/>
<text text-anchor="middle" x="3665" y="-652.5" font-family="Helvetica,sans-Serif" font-size="10.00">parser.LogoParser.parse</text>
</a>
</g>
</g>
<!-- Node9&#45;&gt;Node11 -->
<g id="edge10" class="edge"><title>Node9&#45;&gt;Node11</title>
<path fill="none" stroke="midnightblue" d="M3559.78,-655C3572.7,-655 3586.16,-655 3598.95,-655"/>
<polygon fill="midnightblue" stroke="midnightblue" points="3559.57,-651.5 3549.57,-655 3559.57,-658.5 3559.57,-651.5"/>
</g>
<!-- Node12 -->
<g id="node12" class="node"><title>Node12</title>
<g id="a_node12"><a xlink:href="../../d6/d95/classparser_1_1_parser.html#af3d0cef45b9f02f1707959c08d8f3797" target="_top" xlink:title="parser.Parser.parse">
<polygon fill="white" stroke="black" points="3780.5,-645.5 3780.5,-664.5 3889.5,-664.5 3889.5,-645.5 3780.5,-645.5"/>
<text text-anchor="middle" x="3835" y="-652.5" font-family="Helvetica,sans-Serif" font-size="10.00">parser.Parser.parse</text>
</a>
</g>
</g>
<!-- Node11&#45;&gt;Node12 -->
<g id="edge11" class="edge"><title>Node11&#45;&gt;Node12</title>
<path fill="none" stroke="midnightblue" d="M3741.8,-655C3754.83,-655 3768.12,-655 3780.41,-655"/>
<polygon fill="midnightblue" stroke="midnightblue" points="3741.43,-651.5 3731.43,-655 3741.43,-658.5 3741.43,-651.5"/>
</g>
<!-- Node13 -->
<g id="node13" class="node"><title>Node13</title>
<g id="a_node13"><a xlink:href="../../d6/d95/classparser_1_1_parser.html#ae90f8410be9931ec3f349085c8fdae71" target="_top" xlink:title="parser.Parser.parseFile">
<polygon fill="white" stroke="black" points="3939,-689.5 3939,-708.5 4063,-708.5 4063,-689.5 3939,-689.5"/>
<text text-anchor="middle" x="4001" y="-696.5" font-family="Helvetica,sans-Serif" font-size="10.00">parser.Parser.parseFile</text>
</a>
</g>
</g>
<!-- Node12&#45;&gt;Node13 -->
<g id="edge12" class="edge"><title>Node12&#45;&gt;Node13</title>
<path fill="none" stroke="midnightblue" d="M3881.3,-667.155C3907.55,-674.195 3940.11,-682.931 3964.48,-689.471"/>
<polygon fill="midnightblue" stroke="midnightblue" points="3882.15,-663.758 3871.59,-664.547 3880.34,-670.519 3882.15,-663.758"/>
</g>
<!-- Node18 -->
<g id="node18" class="node"><title>Node18</title>
<g id="a_node18"><a xlink:href="../../d4/d06/classinput_1_1_input_executor.html#a687a9f2cbed5d27a2c7b1336a1cab8aa" target="_top" xlink:title="input.InputExecutor.process\lInput">
<polygon fill="white" stroke="black" points="3926.5,-640 3926.5,-670 4075.5,-670 4075.5,-640 3926.5,-640"/>
<text text-anchor="start" x="3934.5" y="-658" font-family="Helvetica,sans-Serif" font-size="10.00">input.InputExecutor.process</text>
<text text-anchor="middle" x="4001" y="-647" font-family="Helvetica,sans-Serif" font-size="10.00">Input</text>
</a>
</g>
</g>
<!-- Node12&#45;&gt;Node18 -->
<g id="edge17" class="edge"><title>Node12&#45;&gt;Node18</title>
<path fill="none" stroke="midnightblue" d="M3899.73,-655C3908.42,-655 3917.39,-655 3926.23,-655"/>
<polygon fill="midnightblue" stroke="midnightblue" points="3899.7,-651.5 3889.7,-655 3899.7,-658.5 3899.7,-651.5"/>
</g>
<!-- Node19 -->
<g id="node19" class="node"><title>Node19</title>
<g id="a_node19"><a xlink:href="../../d5/d56/class_workspace.html#a0ed8fb487512971086b6f3ed0d74e4ae" target="_top" xlink:title="Workspace.sendUserInput">
<polygon fill="white" stroke="black" points="4117,-623.5 4117,-642.5 4257,-642.5 4257,-623.5 4117,-623.5"/>
<text text-anchor="middle" x="4187" y="-630.5" font-family="Helvetica,sans-Serif" font-size="10.00">Workspace.sendUserInput</text>
</a>
</g>
</g>
<!-- Node12&#45;&gt;Node19 -->
<g id="edge18" class="edge"><title>Node12&#45;&gt;Node19</title>
<path fill="none" stroke="midnightblue" d="M3872.76,-642.36C3888.89,-637.451 3908.17,-632.43 3926,-630 3990.3,-621.236 4064.37,-623.26 4116.96,-626.72"/>
<polygon fill="midnightblue" stroke="midnightblue" points="3871.66,-639.038 3863.17,-645.378 3873.76,-645.715 3871.66,-639.038"/>
</g>
<!-- Node14 -->
<g id="node14" class="node"><title>Node14</title>
<g id="a_node14"><a xlink:href="../../d9/de8/class_file_chooser_feature.html#ad742b8e9d07e8151f0a9ff1972867ce8" target="_top" xlink:title="FileChooserFeature.openFile\lChooser">
<polygon fill="white" stroke="black" points="4112.5,-673 4112.5,-703 4261.5,-703 4261.5,-673 4112.5,-673"/>
<text text-anchor="start" x="4120.5" y="-691" font-family="Helvetica,sans-Serif" font-size="10.00">FileChooserFeature.openFile</text>
<text text-anchor="middle" x="4187" y="-680" font-family="Helvetica,sans-Serif" font-size="10.00">Chooser</text>
</a>
</g>
</g>
<!-- Node13&#45;&gt;Node14 -->
<g id="edge13" class="edge"><title>Node13&#45;&gt;Node14</title>
<path fill="none" stroke="midnightblue" d="M4073.17,-694.745C4086.02,-693.977 4099.44,-693.175 4112.35,-692.403"/>
<polygon fill="midnightblue" stroke="midnightblue" points="4072.79,-691.262 4063.01,-695.352 4073.2,-698.249 4072.79,-691.262"/>
</g>
<!-- Node15 -->
<g id="node15" class="node"><title>Node15</title>
<g id="a_node15"><a xlink:href="../../d5/d56/class_workspace.html#a6babd032d9af86fbc23812272d59a2d2" target="_top" xlink:title="Workspace.addFeatureButtons">
<polygon fill="white" stroke="black" points="4298,-673.5 4298,-692.5 4460,-692.5 4460,-673.5 4298,-673.5"/>
<text text-anchor="middle" x="4379" y="-680.5" font-family="Helvetica,sans-Serif" font-size="10.00">Workspace.addFeatureButtons</text>
</a>
</g>
</g>
<!-- Node14&#45;&gt;Node15 -->
<g id="edge14" class="edge"><title>Node14&#45;&gt;Node15</title>
<path fill="none" stroke="midnightblue" d="M4271.77,-685.796C4280.38,-685.569 4289.12,-685.339 4297.7,-685.113"/>
<polygon fill="midnightblue" stroke="midnightblue" points="4271.64,-682.298 4261.73,-686.06 4271.82,-689.295 4271.64,-682.298"/>
</g>
<!-- Node16 -->
<g id="node16" class="node"><title>Node16</title>
<g id="a_node16"><a xlink:href="../../d5/d56/class_workspace.html#a429d535dfd8427637b7715f0b1e1df1b" target="_top" xlink:title="Workspace.createWorkspace">
<polygon fill="white" stroke="black" points="4496,-652.5 4496,-671.5 4648,-671.5 4648,-652.5 4496,-652.5"/>
<text text-anchor="middle" x="4572" y="-659.5" font-family="Helvetica,sans-Serif" font-size="10.00">Workspace.createWorkspace</text>
</a>
</g>
</g>
<!-- Node15&#45;&gt;Node16 -->
<g id="edge15" class="edge"><title>Node15&#45;&gt;Node16</title>
<path fill="none" stroke="midnightblue" d="M4470.22,-673.08C4478.82,-672.135 4487.48,-671.183 4495.91,-670.256"/>
<polygon fill="midnightblue" stroke="midnightblue" points="4469.73,-669.613 4460.17,-674.185 4470.49,-676.571 4469.73,-669.613"/>
</g>
<!-- Node17 -->
<g id="node17" class="node"><title>Node17</title>
<g id="a_node17"><a xlink:href="../../d0/d4b/class_main.html#aaa75b38812324d0f17c89f139bde6ada" target="_top" xlink:title="Main.start">
<polygon fill="white" stroke="black" points="4684.5,-652.5 4684.5,-671.5 4749.5,-671.5 4749.5,-652.5 4684.5,-652.5"/>
<text text-anchor="middle" x="4717" y="-659.5" font-family="Helvetica,sans-Serif" font-size="10.00">Main.start</text>
</a>
</g>
</g>
<!-- Node16&#45;&gt;Node17 -->
<g id="edge16" class="edge"><title>Node16&#45;&gt;Node17</title>
<path fill="none" stroke="midnightblue" d="M4658.39,-662C4667.63,-662 4676.55,-662 4684.5,-662"/>
<polygon fill="midnightblue" stroke="midnightblue" points="4658.27,-658.5 4648.27,-662 4658.27,-665.5 4658.27,-658.5"/>
</g>
<!-- Node19&#45;&gt;Node16 -->
<g id="edge19" class="edge"><title>Node19&#45;&gt;Node16</title>
<path fill="none" stroke="midnightblue" d="M4267.47,-639.017C4334.6,-644.101 4430.08,-651.33 4495.94,-656.316"/>
<polygon fill="midnightblue" stroke="midnightblue" points="4267.59,-635.517 4257.36,-638.252 4267.07,-642.497 4267.59,-635.517"/>
</g>
<!-- Node20&#45;&gt;Node9 -->
<g id="edge21" class="edge"><title>Node20&#45;&gt;Node9</title>
<path fill="none" stroke="midnightblue" d="M3403.8,-655C3412.76,-655 3421.71,-655 3430.26,-655"/>
<polygon fill="midnightblue" stroke="midnightblue" points="3403.69,-651.5 3393.69,-655 3403.69,-658.5 3403.69,-651.5"/>
</g>
<!-- Node21&#45;&gt;Node22 -->
<g id="edge26" class="edge"><title>Node21&#45;&gt;Node22</title>
<path fill="none" stroke="midnightblue" d="M2712.6,-549.503C2721.04,-550.505 2729.6,-551.521 2737.91,-552.508"/>
<polygon fill="midnightblue" stroke="midnightblue" points="2712.75,-545.995 2702.4,-548.292 2711.92,-552.946 2712.75,-545.995"/>
</g>
<!-- Node22&#45;&gt;Node7 -->
<g id="edge27" class="edge"><title>Node22&#45;&gt;Node7</title>
<path fill="none" stroke="midnightblue" d="M2876.23,-568.331C2884.9,-569.318 2893.72,-570.322 2902.32,-571.299"/>
<polygon fill="midnightblue" stroke="midnightblue" points="2876.47,-564.836 2866.14,-567.183 2875.68,-571.791 2876.47,-564.836"/>
</g>
<!-- Node23&#45;&gt;Node7 -->
<g id="edge31" class="edge"><title>Node23&#45;&gt;Node7</title>
<path fill="none" stroke="midnightblue" d="M2543.34,-467.275C2589.42,-469.773 2649.62,-475.013 2702,-486 2777.24,-501.78 2793.44,-515.583 2866,-541 2892.85,-550.406 2923.41,-561.637 2944.42,-569.439"/>
<polygon fill="midnightblue" stroke="midnightblue" points="2543.3,-463.768 2533.13,-466.753 2542.94,-470.759 2543.3,-463.768"/>
</g>
<!-- Node23&#45;&gt;Node8 -->
<g id="edge32" class="edge"><title>Node23&#45;&gt;Node8</title>
<path fill="none" stroke="midnightblue" d="M2543.53,-462.539C2589.32,-461.717 2649.13,-461.88 2702,-466 2857.45,-478.116 2899.75,-491.875 3040,-560 3070.45,-574.791 3104.22,-595.438 3123.11,-607.394"/>
<polygon fill="midnightblue" stroke="midnightblue" points="2543.32,-459.042 2533.39,-462.741 2543.46,-466.041 2543.32,-459.042"/>
</g>
<!-- Node23&#45;&gt;Node9 -->
<g id="edge33" class="edge"><title>Node23&#45;&gt;Node9</title>
<path fill="none" stroke="midnightblue" d="M2488.67,-449.085C2509.59,-432.989 2544.23,-408.599 2578,-395 2671.71,-357.263 2699.98,-351 2801,-351 2801,-351 2801,-351 3140,-351 3323.61,-351 3457.49,-593.195 3484.14,-645.23"/>
<polygon fill="midnightblue" stroke="midnightblue" points="2486.31,-446.495 2480.6,-455.42 2490.62,-452.003 2486.31,-446.495"/>
</g>
<!-- Node23&#45;&gt;Node20 -->
<g id="edge35" class="edge"><title>Node23&#45;&gt;Node20</title>
<path fill="none" stroke="midnightblue" d="M2503.19,-451.803C2562.74,-430.038 2689.77,-389 2801,-389 2801,-389 2801,-389 2972,-389 3142.68,-389 3279.84,-597.228 3309.19,-645.217"/>
<polygon fill="midnightblue" stroke="midnightblue" points="2501.71,-448.618 2493.55,-455.375 2504.14,-455.182 2501.71,-448.618"/>
</g>
<!-- Node23&#45;&gt;Node21 -->
<g id="edge34" class="edge"><title>Node23&#45;&gt;Node21</title>
<path fill="none" stroke="midnightblue" d="M2497.16,-479.105C2519.02,-489.892 2550.19,-504.915 2578,-517 2589.59,-522.035 2602.59,-527.216 2613.61,-531.47"/>
<polygon fill="midnightblue" stroke="midnightblue" points="2498.62,-475.923 2488.11,-474.618 2495.51,-482.195 2498.62,-475.923"/>
</g>
<!-- Node23&#45;&gt;Node22 -->
<g id="edge36" class="edge"><title>Node23&#45;&gt;Node22</title>
<path fill="none" stroke="midnightblue" d="M2525.25,-476.664C2572.78,-487.019 2642.45,-503.368 2702,-522 2728.71,-530.355 2758.6,-542.185 2778.48,-550.418"/>
<polygon fill="midnightblue" stroke="midnightblue" points="2525.97,-473.239 2515.45,-474.547 2524.49,-480.081 2525.97,-473.239"/>
</g>
<!-- Node25 -->
<g id="node25" class="node"><title>Node25</title>
<g id="a_node25"><a xlink:href="../../d0/d8c/classparser_1_1_logo_parser_token_manager.html#a2b55f093fc0200c57a099eba2d9b37e2" target="_top" xlink:title="parser.LogoParserTokenManager.jj\lMoveStringLiteralDfa0_0">
<polygon fill="white" stroke="black" points="1952.5,-536 1952.5,-566 2131.5,-566 2131.5,-536 1952.5,-536"/>
<text text-anchor="start" x="1960.5" y="-554" font-family="Helvetica,sans-Serif" font-size="10.00">parser.LogoParserTokenManager.jj</text>
<text text-anchor="middle" x="2042" y="-543" font-family="Helvetica,sans-Serif" font-size="10.00">MoveStringLiteralDfa0_0</text>
</a>
</g>
</g>
<!-- Node24&#45;&gt;Node25 -->
<g id="edge39" class="edge"><title>Node24&#45;&gt;Node25</title>
<path fill="none" stroke="midnightblue" d="M349.612,-191.937C444.188,-139.074 716.254,-0 961,-0 961,-0 961,-0 1611,-0 1891,-0 2015.59,-447.667 2037.45,-535.976"/>
<polygon fill="midnightblue" stroke="midnightblue" points="347.757,-188.966 340.762,-196.923 351.192,-195.064 347.757,-188.966"/>
</g>
<!-- Node26 -->
<g id="node26" class="node"><title>Node26</title>
<g id="a_node26"><a xlink:href="../../d0/d8c/classparser_1_1_logo_parser_token_manager.html#aa065c8b0c977d3c1c9d9058f96664080" target="_top" xlink:title="parser.LogoParserTokenManager.jj\lStartNfa_0">
<polygon fill="white" stroke="black" points="440.5,-175 440.5,-205 619.5,-205 619.5,-175 440.5,-175"/>
<text text-anchor="start" x="448.5" y="-193" font-family="Helvetica,sans-Serif" font-size="10.00">parser.LogoParserTokenManager.jj</text>
<text text-anchor="middle" x="530" y="-182" font-family="Helvetica,sans-Serif" font-size="10.00">StartNfa_0</text>
</a>
</g>
</g>
<!-- Node24&#45;&gt;Node26 -->
<g id="edge41" class="edge"><title>Node24&#45;&gt;Node26</title>
<path fill="none" stroke="midnightblue" d="M413.645,-201.859C422.596,-200.939 431.625,-200.011 440.48,-199.1"/>
<polygon fill="midnightblue" stroke="midnightblue" points="413.176,-198.389 403.587,-202.893 413.892,-205.352 413.176,-198.389"/>
</g>
<!-- Node24&#45;&gt;Node33 -->
<g id="edge54" class="edge"><title>Node24&#45;&gt;Node33</title>
<path fill="none" stroke="midnightblue" d="M338.795,-234.127C382.696,-274.951 475.362,-361.121 512.8,-395.936"/>
<polygon fill="midnightblue" stroke="midnightblue" points="341.143,-231.531 331.437,-227.285 336.377,-236.658 341.143,-231.531"/>
</g>
<!-- Node25&#45;&gt;Node3 -->
<g id="edge40" class="edge"><title>Node25&#45;&gt;Node3</title>
<path fill="none" stroke="midnightblue" d="M2082.9,-570.496C2125.61,-591.361 2192.43,-624.011 2231.24,-642.973"/>
<polygon fill="midnightblue" stroke="midnightblue" points="2084.43,-567.349 2073.91,-566.104 2081.36,-573.638 2084.43,-567.349"/>
</g>
<!-- Node26&#45;&gt;Node27 -->
<g id="edge42" class="edge"><title>Node26&#45;&gt;Node27</title>
<path fill="none" stroke="midnightblue" d="M560.877,-169.105C585.32,-153.065 621.385,-131.736 656,-120 785.707,-76.0238 824.041,-76 961,-76 961,-76 961,-76 1395,-76 1638.84,-76 1788.88,-425.854 1819.26,-503.751"/>
<polygon fill="midnightblue" stroke="midnightblue" points="558.797,-166.286 552.422,-174.748 562.683,-172.108 558.797,-166.286"/>
</g>
<!-- Node26&#45;&gt;Node28 -->
<g id="edge44" class="edge"><title>Node26&#45;&gt;Node28</title>
<path fill="none" stroke="midnightblue" d="M591.851,-172.316C674.625,-149.861 827.687,-114 961,-114 961,-114 961,-114 1179,-114 1405.22,-114 1566.55,-413.503 1601.78,-484.868"/>
<polygon fill="midnightblue" stroke="midnightblue" points="590.831,-168.967 582.112,-174.985 592.681,-175.718 590.831,-168.967"/>
</g>
<!-- Node26&#45;&gt;Node29 -->
<g id="edge46" class="edge"><title>Node26&#45;&gt;Node29</title>
<path fill="none" stroke="midnightblue" d="M628.788,-173.624C779.71,-153.83 1072.37,-137.797 1268,-269 1326.19,-308.027 1369.14,-382.995 1385.62,-414.962"/>
<polygon fill="midnightblue" stroke="midnightblue" points="628.057,-170.191 618.613,-174.993 628.99,-177.128 628.057,-170.191"/>
</g>
<!-- Node26&#45;&gt;Node30 -->
<g id="edge48" class="edge"><title>Node26&#45;&gt;Node30</title>
<path fill="none" stroke="midnightblue" d="M629.786,-190.189C689.74,-191.54 767.631,-195.493 836,-206 943.417,-222.507 1066.06,-258.516 1131.01,-278.987"/>
<polygon fill="midnightblue" stroke="midnightblue" points="629.636,-186.685 619.566,-189.98 629.493,-193.684 629.636,-186.685"/>
</g>
<!-- Node26&#45;&gt;Node31 -->
<g id="edge50" class="edge"><title>Node26&#45;&gt;Node31</title>
<path fill="none" stroke="midnightblue" d="M629.58,-203.937C689.806,-213.556 768.052,-228.034 836,-247 867.04,-255.664 901.225,-268.776 925.988,-278.951"/>
<polygon fill="midnightblue" stroke="midnightblue" points="630.118,-200.479 619.694,-202.376 629.026,-207.393 630.118,-200.479"/>
</g>
<!-- Node26&#45;&gt;Node32 -->
<g id="edge52" class="edge"><title>Node26&#45;&gt;Node32</title>
<path fill="none" stroke="midnightblue" d="M574.967,-209.163C598.79,-219.325 628.833,-231.784 656,-242 669.583,-247.108 684.479,-252.29 698.133,-256.877"/>
<polygon fill="midnightblue" stroke="midnightblue" points="576.068,-205.827 565.498,-205.106 573.311,-212.261 576.068,-205.827"/>
</g>
<!-- Node27&#45;&gt;Node25 -->
<g id="edge43" class="edge"><title>Node27&#45;&gt;Node25</title>
<path fill="none" stroke="midnightblue" d="M1925.65,-533.751C1934.6,-535.089 1943.62,-536.439 1952.48,-537.763"/>
<polygon fill="midnightblue" stroke="midnightblue" points="1925.99,-530.264 1915.59,-532.247 1924.96,-537.187 1925.99,-530.264"/>
</g>
<!-- Node28&#45;&gt;Node27 -->
<g id="edge45" class="edge"><title>Node28&#45;&gt;Node27</title>
<path fill="none" stroke="midnightblue" d="M1709.65,-508.758C1718.6,-509.553 1727.62,-510.355 1736.48,-511.141"/>
<polygon fill="midnightblue" stroke="midnightblue" points="1709.86,-505.263 1699.59,-507.865 1709.24,-512.236 1709.86,-505.263"/>
</g>
<!-- Node29&#45;&gt;Node28 -->
<g id="edge47" class="edge"><title>Node29&#45;&gt;Node28</title>
<path fill="none" stroke="midnightblue" d="M1450.48,-448.146C1485.36,-459.556 1529.84,-474.106 1562.8,-484.887"/>
<polygon fill="midnightblue" stroke="midnightblue" points="1451.5,-444.799 1440.91,-445.017 1449.32,-451.452 1451.5,-444.799"/>
</g>
<!-- Node30&#45;&gt;Node29 -->
<g id="edge49" class="edge"><title>Node30&#45;&gt;Node29</title>
<path fill="none" stroke="midnightblue" d="M1211.19,-314.455C1254.52,-341.993 1330.62,-390.357 1369.17,-414.858"/>
<polygon fill="midnightblue" stroke="midnightblue" points="1213.04,-311.484 1202.72,-309.074 1209.28,-317.392 1213.04,-311.484"/>
</g>
<!-- Node31&#45;&gt;Node30 -->
<g id="edge51" class="edge"><title>Node31&#45;&gt;Node30</title>
<path fill="none" stroke="midnightblue" d="M1061.65,-294C1070.6,-294 1079.62,-294 1088.48,-294"/>
<polygon fill="midnightblue" stroke="midnightblue" points="1061.59,-290.5 1051.59,-294 1061.59,-297.5 1061.59,-290.5"/>
</g>
<!-- Node32&#45;&gt;Node31 -->
<g id="edge53" class="edge"><title>Node32&#45;&gt;Node31</title>
<path fill="none" stroke="midnightblue" d="M845.645,-282.141C854.596,-283.061 863.625,-283.989 872.48,-284.9"/>
<polygon fill="midnightblue" stroke="midnightblue" points="845.892,-278.648 835.587,-281.107 845.176,-285.611 845.892,-278.648"/>
</g>
<!-- Node33&#45;&gt;Node25 -->
<g id="edge55" class="edge"><title>Node33&#45;&gt;Node25</title>
<path fill="none" stroke="midnightblue" d="M579.168,-429.581C602.165,-437.931 630.231,-447.375 656,-454 977.988,-536.78 1060.54,-582 1393,-582 1393,-582 1393,-582 1611,-582 1729.26,-582 1865.34,-570.191 1952.19,-561.151"/>
<polygon fill="midnightblue" stroke="midnightblue" points="580.237,-426.245 569.643,-426.08 577.822,-432.815 580.237,-426.245"/>
</g>
<!-- Node33&#45;&gt;Node28 -->
<g id="edge56" class="edge"><title>Node33&#45;&gt;Node28</title>
<path fill="none" stroke="midnightblue" d="M629.684,-426.726C638.571,-427.922 647.442,-429.037 656,-430 973.142,-465.696 1351.8,-487.272 1520.43,-495.792"/>
<polygon fill="midnightblue" stroke="midnightblue" points="630.044,-423.243 619.659,-425.344 629.088,-430.177 630.044,-423.243"/>
</g>
<!-- Node33&#45;&gt;Node29 -->
<g id="edge57" class="edge"><title>Node33&#45;&gt;Node29</title>
<path fill="none" stroke="midnightblue" d="M629.758,-413.177C799.102,-416.909 1142.27,-424.474 1304.38,-428.047"/>
<polygon fill="midnightblue" stroke="midnightblue" points="629.675,-409.674 619.6,-412.953 629.52,-416.673 629.675,-409.674"/>
</g>
<!-- Node33&#45;&gt;Node30 -->
<g id="edge58" class="edge"><title>Node33&#45;&gt;Node30</title>
<path fill="none" stroke="midnightblue" d="M629.894,-398.932C689.726,-391.166 767.453,-380.253 836,-368 933.8,-350.519 1046.24,-325.066 1114.43,-309.029"/>
<polygon fill="midnightblue" stroke="midnightblue" points="629.164,-395.497 619.695,-400.248 630.06,-402.44 629.164,-395.497"/>
</g>
<!-- Node33&#45;&gt;Node31 -->
<g id="edge59" class="edge"><title>Node33&#45;&gt;Node31</title>
<path fill="none" stroke="midnightblue" d="M597.862,-393.322C680.49,-371.464 813.04,-336.354 836,-330 860.268,-323.284 887.109,-315.589 909.678,-309.042"/>
<polygon fill="midnightblue" stroke="midnightblue" points="596.816,-389.978 588.044,-395.919 598.607,-396.746 596.816,-389.978"/>
</g>
<!-- Node33&#45;&gt;Node32 -->
<g id="edge60" class="edge"><title>Node33&#45;&gt;Node32</title>
<path fill="none" stroke="midnightblue" d="M562.793,-390.35C606.261,-362.115 683.227,-312.123 721.72,-287.121"/>
<polygon fill="midnightblue" stroke="midnightblue" points="560.789,-387.478 554.309,-395.86 564.602,-393.348 560.789,-387.478"/>
</g>
</g>
</svg>
