<?xml version="1.0" encoding="UTF-8" standalone="no"?>
<!DOCTYPE svg PUBLIC "-//W3C//DTD SVG 1.1//EN"
 "http://www.w3.org/Graphics/SVG/1.1/DTD/svg11.dtd">
<!-- Generated by graphviz version 2.36.0 (20140111.2315)
 -->
<!-- Title: parser.SimpleCharStream.BeginToken Pages: 1 -->
<!--zoomable 426 -->
<svg id="main" version="1.1" xmlns="http://www.w3.org/2000/svg" xmlns:xlink="http://www.w3.org/1999/xlink" xml:space="preserve" onload="init(evt)">
<style type="text/css"><![CDATA[
.edge:hover path { stroke: red; }
.edge:hover polygon { stroke: red; fill: red; }
]]></style>
<script type="text/javascript"><![CDATA[
var edges = document.getElementsByTagName('g');
if (edges && edges.length) {
  for (var i=0;i<edges.length;i++) {
    if (edges[i].id.substr(0,4)=='edge') {
      edges[i].setAttribute('class','edge');
    }
  }
}
]]></script>
        <defs>
                <circle id="rim" cx="0" cy="0" r="7"/>
                <circle id="rim2" cx="0" cy="0" r="3.5"/>
                <g id="zoomPlus">
                        <use xlink:href="#rim" fill="#404040">
                                <set attributeName="fill" to="#808080" begin="zoomplus.mouseover" end="zoomplus.mouseout"/>
                        </use>
                        <path d="M-4,0h8M0,-4v8" fill="none" stroke="white" stroke-width="1.5" pointer-events="none"/>
                </g>
                <g id="zoomMin">
                        <use xlink:href="#rim" fill="#404040">
                                <set attributeName="fill" to="#808080" begin="zoomminus.mouseover" end="zoomminus.mouseout"/>
                        </use>
                        <path d="M-4,0h8" fill="none" stroke="white" stroke-width="1.5" pointer-events="none"/>
                </g>
                <g id="dirArrow">
                        <path fill="none" stroke="white" stroke-width="1.5" d="M0,-3.0v7 M-2.5,-0.5L0,-3.0L2.5,-0.5"/>
                </g>
               <g id="resetDef">
                       <use xlink:href="#rim2" fill="#404040">
                               <set attributeName="fill" to="#808080" begin="reset.mouseover" end="reset.mouseout"/>
                       </use>
               </g>
        </defs>

<script type="text/javascript">
var viewWidth = 2770;
var viewHeight = 426;
var sectionId = 'dynsection-2';
</script>
<script xlink:href="../../svgpan.js"/>
<svg id="graph" class="graph">
<g id="viewport">
<title>parser.SimpleCharStream.BeginToken</title>
<polygon fill="white" stroke="none" points="-4,4 -4,-422.128 2766,-422.128 2766,4 -4,4"/>
<!-- Node1 -->
<g id="node1" class="node"><title>Node1</title>
<polygon fill="#bfbfbf" stroke="black" points="0,-308.128 0,-338.128 144,-338.128 144,-308.128 0,-308.128"/>
<text text-anchor="start" x="8" y="-326.128" font-family="Helvetica,sans-Serif" font-size="10.00">parser.SimpleCharStream.</text>
<text text-anchor="middle" x="72" y="-315.128" font-family="Helvetica,sans-Serif" font-size="10.00">BeginToken</text>
</g>
<!-- Node2 -->
<g id="node2" class="node"><title>Node2</title>
<g id="a_node2"><a xlink:href="../../d0/d8c/classparser_1_1_logo_parser_token_manager.html#a3dee50e2286b70ba662519a865e63b77" target="_top" xlink:title="parser.LogoParserTokenManager.get\lNextToken">
<polygon fill="white" stroke="black" points="180,-308.128 180,-338.128 370,-338.128 370,-308.128 180,-308.128"/>
<text text-anchor="start" x="188" y="-326.128" font-family="Helvetica,sans-Serif" font-size="10.00">parser.LogoParserTokenManager.get</text>
<text text-anchor="middle" x="275" y="-315.128" font-family="Helvetica,sans-Serif" font-size="10.00">NextToken</text>
</a>
</g>
</g>
<!-- Node1&#45;&gt;Node2 -->
<g id="edge1" class="edge"><title>Node1&#45;&gt;Node2</title>
<path fill="none" stroke="midnightblue" d="M154.262,-323.128C162.643,-323.128 171.209,-323.128 179.715,-323.128"/>
<polygon fill="midnightblue" stroke="midnightblue" points="154.148,-319.628 144.148,-323.128 154.148,-326.628 154.148,-319.628"/>
</g>
<!-- Node3 -->
<g id="node3" class="node"><title>Node3</title>
<g id="a_node3"><a xlink:href="../../d5/d0e/classparser_1_1_logo_parser.html#a7477b52c4469ea43d75f88fb805e37a1" target="_top" xlink:title="parser.LogoParser.getNext\lToken">
<polygon fill="white" stroke="black" points="408.5,-371.128 408.5,-401.128 551.5,-401.128 551.5,-371.128 408.5,-371.128"/>
<text text-anchor="start" x="416.5" y="-389.128" font-family="Helvetica,sans-Serif" font-size="10.00">parser.LogoParser.getNext</text>
<text text-anchor="middle" x="480" y="-378.128" font-family="Helvetica,sans-Serif" font-size="10.00">Token</text>
</a>
</g>
</g>
<!-- Node2&#45;&gt;Node3 -->
<g id="edge2" class="edge"><title>Node2&#45;&gt;Node3</title>
<path fill="none" stroke="midnightblue" d="M334.044,-341.142C364.612,-350.629 401.662,-362.127 430.653,-371.124"/>
<polygon fill="midnightblue" stroke="midnightblue" points="334.954,-337.76 324.366,-338.138 332.879,-344.445 334.954,-337.76"/>
</g>
<!-- Node4 -->
<g id="node4" class="node"><title>Node4</title>
<g id="a_node4"><a xlink:href="../../d5/d0e/classparser_1_1_logo_parser.html#a63b7890a7d6323bcf938132f968e8157" target="_top" xlink:title="parser.LogoParser.getToken">
<polygon fill="white" stroke="black" points="406,-332.628 406,-351.628 554,-351.628 554,-332.628 406,-332.628"/>
<text text-anchor="middle" x="480" y="-339.628" font-family="Helvetica,sans-Serif" font-size="10.00">parser.LogoParser.getToken</text>
</a>
</g>
</g>
<!-- Node2&#45;&gt;Node4 -->
<g id="edge3" class="edge"><title>Node2&#45;&gt;Node4</title>
<path fill="none" stroke="midnightblue" d="M380.241,-332.885C388.906,-333.696 397.544,-334.504 405.903,-335.287"/>
<polygon fill="midnightblue" stroke="midnightblue" points="380.355,-329.38 370.072,-331.933 379.702,-336.35 380.355,-329.38"/>
</g>
<!-- Node5 -->
<g id="node5" class="node"><title>Node5</title>
<g id="a_node5"><a xlink:href="../../d5/d0e/classparser_1_1_logo_parser.html#a550039a3180ec86ef01f419aefc02edc" target="_top" xlink:title="parser.LogoParser.jj\l_consume_token">
<polygon fill="white" stroke="black" points="425,-118.128 425,-148.128 535,-148.128 535,-118.128 425,-118.128"/>
<text text-anchor="start" x="433" y="-136.128" font-family="Helvetica,sans-Serif" font-size="10.00">parser.LogoParser.jj</text>
<text text-anchor="middle" x="480" y="-125.128" font-family="Helvetica,sans-Serif" font-size="10.00">_consume_token</text>
</a>
</g>
</g>
<!-- Node2&#45;&gt;Node5 -->
<g id="edge4" class="edge"><title>Node2&#45;&gt;Node5</title>
<path fill="none" stroke="midnightblue" d="M299.787,-300.864C341.628,-261.703 427.329,-181.49 462.935,-148.164"/>
<polygon fill="midnightblue" stroke="midnightblue" points="297.178,-298.512 292.269,-307.901 301.962,-303.623 297.178,-298.512"/>
</g>
<!-- Node22 -->
<g id="node22" class="node"><title>Node22</title>
<g id="a_node22"><a xlink:href="../../d5/d0e/classparser_1_1_logo_parser.html#a2e48e3ab2c1c075beca7bcc54d891afd" target="_top" xlink:title="parser.LogoParser.jj_ntk">
<polygon fill="white" stroke="black" points="415,-294.628 415,-313.628 545,-313.628 545,-294.628 415,-294.628"/>
<text text-anchor="middle" x="480" y="-301.628" font-family="Helvetica,sans-Serif" font-size="10.00">parser.LogoParser.jj_ntk</text>
</a>
</g>
</g>
<!-- Node2&#45;&gt;Node22 -->
<g id="edge29" class="edge"><title>Node2&#45;&gt;Node22</title>
<path fill="none" stroke="midnightblue" d="M380.382,-313.359C392.117,-312.26 403.801,-311.167 414.805,-310.137"/>
<polygon fill="midnightblue" stroke="midnightblue" points="379.702,-309.907 370.072,-314.324 380.355,-316.876 379.702,-309.907"/>
</g>
<!-- Node6 -->
<g id="node6" class="node"><title>Node6</title>
<g id="a_node6"><a xlink:href="../../d5/d0e/classparser_1_1_logo_parser.html#a82acce8328e52f3b2bcb90542cc800b7" target="_top" xlink:title="parser.LogoParser.arithm">
<polygon fill="white" stroke="black" points="914.5,-170.628 914.5,-189.628 1051.5,-189.628 1051.5,-170.628 914.5,-170.628"/>
<text text-anchor="middle" x="983" y="-177.628" font-family="Helvetica,sans-Serif" font-size="10.00">parser.LogoParser.arithm</text>
</a>
</g>
</g>
<!-- Node5&#45;&gt;Node6 -->
<g id="edge5" class="edge"><title>Node5&#45;&gt;Node6</title>
<path fill="none" stroke="midnightblue" d="M545.135,-139.145C640.082,-148.052 817.24,-164.672 914.234,-173.771"/>
<polygon fill="midnightblue" stroke="midnightblue" points="545.375,-135.652 535.092,-138.203 544.721,-142.622 545.375,-135.652"/>
</g>
<!-- Node7 -->
<g id="node7" class="node"><title>Node7</title>
<g id="a_node7"><a xlink:href="../../d5/d0e/classparser_1_1_logo_parser.html#a397c25c39976e5a1fb689e1f0dd40160" target="_top" xlink:title="parser.LogoParser.eval">
<polygon fill="white" stroke="black" points="1088.5,-137.628 1088.5,-156.628 1213.5,-156.628 1213.5,-137.628 1088.5,-137.628"/>
<text text-anchor="middle" x="1151" y="-144.628" font-family="Helvetica,sans-Serif" font-size="10.00">parser.LogoParser.eval</text>
</a>
</g>
</g>
<!-- Node5&#45;&gt;Node7 -->
<g id="edge21" class="edge"><title>Node5&#45;&gt;Node7</title>
<path fill="none" stroke="midnightblue" d="M545.274,-134.473C673.9,-137.165 961.457,-143.183 1088.1,-145.833"/>
<polygon fill="midnightblue" stroke="midnightblue" points="545.251,-130.972 535.18,-134.262 545.105,-137.971 545.251,-130.972"/>
</g>
<!-- Node8 -->
<g id="node8" class="node"><title>Node8</title>
<g id="a_node8"><a xlink:href="../../d5/d0e/classparser_1_1_logo_parser.html#a6b0ba0c2b5b0bc8c2ef76863fffdb6a3" target="_top" xlink:title="parser.LogoParser.list">
<polygon fill="white" stroke="black" points="1442.5,-99.6283 1442.5,-118.628 1561.5,-118.628 1561.5,-99.6283 1442.5,-99.6283"/>
<text text-anchor="middle" x="1502" y="-106.628" font-family="Helvetica,sans-Serif" font-size="10.00">parser.LogoParser.list</text>
</a>
</g>
</g>
<!-- Node5&#45;&gt;Node8 -->
<g id="edge23" class="edge"><title>Node5&#45;&gt;Node8</title>
<path fill="none" stroke="midnightblue" d="M515.871,-113.211C536.785,-102.026 564.244,-88.6456 590,-80.1283 685.754,-48.4635 712.146,-38.1283 813,-38.1283 813,-38.1283 813,-38.1283 1152,-38.1283 1273.81,-38.1283 1414.82,-80.173 1473.34,-99.5529"/>
<polygon fill="midnightblue" stroke="midnightblue" points="514.158,-110.159 507.043,-118.009 517.501,-116.309 514.158,-110.159"/>
</g>
<!-- Node9 -->
<g id="node9" class="node"><title>Node9</title>
<g id="a_node9"><a xlink:href="../../d5/d0e/classparser_1_1_logo_parser.html#a4a8825534e0488215d22bcd947bc4d41" target="_top" xlink:title="parser.LogoParser.expression">
<polygon fill="white" stroke="black" points="1598.5,-26.6283 1598.5,-45.6283 1755.5,-45.6283 1755.5,-26.6283 1598.5,-26.6283"/>
<text text-anchor="middle" x="1677" y="-33.6283" font-family="Helvetica,sans-Serif" font-size="10.00">parser.LogoParser.expression</text>
</a>
</g>
</g>
<!-- Node5&#45;&gt;Node9 -->
<g id="edge22" class="edge"><title>Node5&#45;&gt;Node9</title>
<path fill="none" stroke="midnightblue" d="M500.934,-110.568C521.172,-89.1803 554.506,-57.9001 590,-41.1283 681.113,1.92439 712.228,-0.128293 813,-0.128293 813,-0.128293 813,-0.128293 1329,-0.128293 1431.81,-0.128293 1550.85,-15.9569 1619.39,-26.6226"/>
<polygon fill="midnightblue" stroke="midnightblue" points="498.32,-108.241 494.091,-117.955 503.455,-112.998 498.32,-108.241"/>
</g>
<!-- Node19 -->
<g id="node19" class="node"><title>Node19</title>
<g id="a_node19"><a xlink:href="../../d5/d0e/classparser_1_1_logo_parser.html#ad6ed8e51959a6e19a2323444aa8331c8" target="_top" xlink:title="parser.LogoParser.statement">
<polygon fill="white" stroke="black" points="1250.5,-137.628 1250.5,-156.628 1405.5,-156.628 1405.5,-137.628 1250.5,-137.628"/>
<text text-anchor="middle" x="1328" y="-144.628" font-family="Helvetica,sans-Serif" font-size="10.00">parser.LogoParser.statement</text>
</a>
</g>
</g>
<!-- Node5&#45;&gt;Node19 -->
<g id="edge27" class="edge"><title>Node5&#45;&gt;Node19</title>
<path fill="none" stroke="midnightblue" d="M544.757,-115.549C611.191,-98.8025 718.574,-76.1283 813,-76.1283 813,-76.1283 813,-76.1283 984,-76.1283 1103.8,-76.1283 1242.34,-118.173 1299.83,-137.553"/>
<polygon fill="midnightblue" stroke="midnightblue" points="543.68,-112.212 534.857,-118.078 545.413,-118.994 543.68,-112.212"/>
</g>
<!-- Node20 -->
<g id="node20" class="node"><title>Node20</title>
<g id="a_node20"><a xlink:href="../../d5/d0e/classparser_1_1_logo_parser.html#a4bdaeff6df067fde6743ff07370c3b0b" target="_top" xlink:title="parser.LogoParser.pow">
<polygon fill="white" stroke="black" points="590,-218.628 590,-237.628 714,-237.628 714,-218.628 590,-218.628"/>
<text text-anchor="middle" x="652" y="-225.628" font-family="Helvetica,sans-Serif" font-size="10.00">parser.LogoParser.pow</text>
</a>
</g>
</g>
<!-- Node5&#45;&gt;Node20 -->
<g id="edge24" class="edge"><title>Node5&#45;&gt;Node20</title>
<path fill="none" stroke="midnightblue" d="M509.863,-154.242C531.29,-169.334 561.596,-189.482 590,-204.128 600.519,-209.553 612.559,-214.531 623.148,-218.53"/>
<polygon fill="midnightblue" stroke="midnightblue" points="511.717,-151.266 501.54,-148.319 507.658,-156.969 511.717,-151.266"/>
</g>
<!-- Node21 -->
<g id="node21" class="node"><title>Node21</title>
<g id="a_node21"><a xlink:href="../../d5/d0e/classparser_1_1_logo_parser.html#a34f4226672a2711ce2691162fdb2124d" target="_top" xlink:title="parser.LogoParser.term">
<polygon fill="white" stroke="black" points="750,-199.628 750,-218.628 878,-218.628 878,-199.628 750,-199.628"/>
<text text-anchor="middle" x="814" y="-206.628" font-family="Helvetica,sans-Serif" font-size="10.00">parser.LogoParser.term</text>
</a>
</g>
</g>
<!-- Node5&#45;&gt;Node21 -->
<g id="edge28" class="edge"><title>Node5&#45;&gt;Node21</title>
<path fill="none" stroke="midnightblue" d="M536.638,-151.185C553.662,-156.381 572.51,-161.807 590,-166.128 645.502,-179.842 709.673,-191.816 754.886,-199.621"/>
<polygon fill="midnightblue" stroke="midnightblue" points="537.437,-147.768 526.85,-148.162 535.372,-154.457 537.437,-147.768"/>
</g>
<!-- Node6&#45;&gt;Node7 -->
<g id="edge6" class="edge"><title>Node6&#45;&gt;Node7</title>
<path fill="none" stroke="midnightblue" d="M1042.06,-168.586C1061.68,-164.686 1083.35,-160.378 1102.09,-156.652"/>
<polygon fill="midnightblue" stroke="midnightblue" points="1041.14,-165.201 1032.01,-170.583 1042.5,-172.066 1041.14,-165.201"/>
</g>
<!-- Node7&#45;&gt;Node8 -->
<g id="edge7" class="edge"><title>Node7&#45;&gt;Node8</title>
<path fill="none" stroke="midnightblue" d="M1205.06,-135.677C1219.58,-132.863 1235.35,-130.097 1250,-128.128 1315.62,-119.314 1391.48,-114.278 1442.47,-111.635"/>
<polygon fill="midnightblue" stroke="midnightblue" points="1204.37,-132.246 1195.24,-137.624 1205.73,-139.112 1204.37,-132.246"/>
</g>
<!-- Node7&#45;&gt;Node19 -->
<g id="edge19" class="edge"><title>Node7&#45;&gt;Node19</title>
<path fill="none" stroke="midnightblue" d="M1223.8,-147.128C1232.51,-147.128 1241.44,-147.128 1250.22,-147.128"/>
<polygon fill="midnightblue" stroke="midnightblue" points="1223.7,-143.628 1213.7,-147.128 1223.7,-150.628 1223.7,-143.628"/>
</g>
<!-- Node8&#45;&gt;Node9 -->
<g id="edge8" class="edge"><title>Node8&#45;&gt;Node9</title>
<path fill="none" stroke="midnightblue" d="M1535.2,-95.5422C1569.58,-81.0317 1623.2,-58.4088 1653.38,-45.6741"/>
<polygon fill="midnightblue" stroke="midnightblue" points="1533.47,-92.4724 1525.62,-99.5848 1536.19,-98.9217 1533.47,-92.4724"/>
</g>
<!-- Node10 -->
<g id="node10" class="node"><title>Node10</title>
<g id="a_node10"><a xlink:href="../../d5/d0e/classparser_1_1_logo_parser.html#adefe3b97ad0d2d7fd0dcd13f7ef2c75e" target="_top" xlink:title="parser.LogoParser.parse">
<polygon fill="white" stroke="black" points="1611,-99.6283 1611,-118.628 1743,-118.628 1743,-99.6283 1611,-99.6283"/>
<text text-anchor="middle" x="1677" y="-106.628" font-family="Helvetica,sans-Serif" font-size="10.00">parser.LogoParser.parse</text>
</a>
</g>
</g>
<!-- Node8&#45;&gt;Node10 -->
<g id="edge9" class="edge"><title>Node8&#45;&gt;Node10</title>
<path fill="none" stroke="midnightblue" d="M1571.78,-109.128C1584.7,-109.128 1598.16,-109.128 1610.95,-109.128"/>
<polygon fill="midnightblue" stroke="midnightblue" points="1571.57,-105.628 1561.57,-109.128 1571.57,-112.628 1571.57,-105.628"/>
</g>
<!-- Node11 -->
<g id="node11" class="node"><title>Node11</title>
<g id="a_node11"><a xlink:href="../../d6/d95/classparser_1_1_parser.html#af3d0cef45b9f02f1707959c08d8f3797" target="_top" xlink:title="parser.Parser.parse">
<polygon fill="white" stroke="black" points="1792.5,-99.6283 1792.5,-118.628 1901.5,-118.628 1901.5,-99.6283 1792.5,-99.6283"/>
<text text-anchor="middle" x="1847" y="-106.628" font-family="Helvetica,sans-Serif" font-size="10.00">parser.Parser.parse</text>
</a>
</g>
</g>
<!-- Node10&#45;&gt;Node11 -->
<g id="edge10" class="edge"><title>Node10&#45;&gt;Node11</title>
<path fill="none" stroke="midnightblue" d="M1753.8,-109.128C1766.83,-109.128 1780.12,-109.128 1792.41,-109.128"/>
<polygon fill="midnightblue" stroke="midnightblue" points="1753.43,-105.628 1743.43,-109.128 1753.43,-112.628 1753.43,-105.628"/>
</g>
<!-- Node12 -->
<g id="node12" class="node"><title>Node12</title>
<g id="a_node12"><a xlink:href="../../d6/d95/classparser_1_1_parser.html#ae90f8410be9931ec3f349085c8fdae71" target="_top" xlink:title="parser.Parser.parseFile">
<polygon fill="white" stroke="black" points="1951,-140.628 1951,-159.628 2075,-159.628 2075,-140.628 1951,-140.628"/>
<text text-anchor="middle" x="2013" y="-147.628" font-family="Helvetica,sans-Serif" font-size="10.00">parser.Parser.parseFile</text>
</a>
</g>
</g>
<!-- Node11&#45;&gt;Node12 -->
<g id="edge11" class="edge"><title>Node11&#45;&gt;Node12</title>
<path fill="none" stroke="midnightblue" d="M1895.98,-121.122C1920.79,-127.327 1950.67,-134.795 1973.89,-140.6"/>
<polygon fill="midnightblue" stroke="midnightblue" points="1896.59,-117.668 1886.04,-118.638 1894.89,-124.459 1896.59,-117.668"/>
</g>
<!-- Node17 -->
<g id="node17" class="node"><title>Node17</title>
<g id="a_node17"><a xlink:href="../../d4/d06/classinput_1_1_input_executor.html#a687a9f2cbed5d27a2c7b1336a1cab8aa" target="_top" xlink:title="input.InputExecutor.process\lInput">
<polygon fill="white" stroke="black" points="1938.5,-50.1283 1938.5,-80.1283 2087.5,-80.1283 2087.5,-50.1283 1938.5,-50.1283"/>
<text text-anchor="start" x="1946.5" y="-68.1283" font-family="Helvetica,sans-Serif" font-size="10.00">input.InputExecutor.process</text>
<text text-anchor="middle" x="2013" y="-57.1283" font-family="Helvetica,sans-Serif" font-size="10.00">Input</text>
</a>
</g>
</g>
<!-- Node11&#45;&gt;Node17 -->
<g id="edge16" class="edge"><title>Node11&#45;&gt;Node17</title>
<path fill="none" stroke="midnightblue" d="M1893.36,-96.9596C1912.7,-91.7709 1935.46,-85.6637 1955.85,-80.1937"/>
<polygon fill="midnightblue" stroke="midnightblue" points="1892.34,-93.6091 1883.59,-99.5809 1894.15,-100.37 1892.34,-93.6091"/>
</g>
<!-- Node18 -->
<g id="node18" class="node"><title>Node18</title>
<g id="a_node18"><a xlink:href="../../d5/d56/class_workspace.html#a0ed8fb487512971086b6f3ed0d74e4ae" target="_top" xlink:title="Workspace.sendUserInput">
<polygon fill="white" stroke="black" points="2129,-97.6283 2129,-116.628 2269,-116.628 2269,-97.6283 2129,-97.6283"/>
<text text-anchor="middle" x="2199" y="-104.628" font-family="Helvetica,sans-Serif" font-size="10.00">Workspace.sendUserInput</text>
</a>
</g>
</g>
<!-- Node11&#45;&gt;Node18 -->
<g id="edge17" class="edge"><title>Node11&#45;&gt;Node18</title>
<path fill="none" stroke="midnightblue" d="M1911.86,-108.763C1973.23,-108.413 2065.7,-107.884 2128.79,-107.524"/>
<polygon fill="midnightblue" stroke="midnightblue" points="1911.52,-105.265 1901.54,-108.822 1911.56,-112.265 1911.52,-105.265"/>
</g>
<!-- Node13 -->
<g id="node13" class="node"><title>Node13</title>
<g id="a_node13"><a xlink:href="../../d9/de8/class_file_chooser_feature.html#ad742b8e9d07e8151f0a9ff1972867ce8" target="_top" xlink:title="FileChooserFeature.openFile\lChooser">
<polygon fill="white" stroke="black" points="2124.5,-136.128 2124.5,-166.128 2273.5,-166.128 2273.5,-136.128 2124.5,-136.128"/>
<text text-anchor="start" x="2132.5" y="-154.128" font-family="Helvetica,sans-Serif" font-size="10.00">FileChooserFeature.openFile</text>
<text text-anchor="middle" x="2199" y="-143.128" font-family="Helvetica,sans-Serif" font-size="10.00">Chooser</text>
</a>
</g>
</g>
<!-- Node12&#45;&gt;Node13 -->
<g id="edge12" class="edge"><title>Node12&#45;&gt;Node13</title>
<path fill="none" stroke="midnightblue" d="M2085.17,-150.515C2098.02,-150.585 2111.44,-150.658 2124.35,-150.728"/>
<polygon fill="midnightblue" stroke="midnightblue" points="2085.03,-147.014 2075.01,-150.46 2084.99,-154.014 2085.03,-147.014"/>
</g>
<!-- Node14 -->
<g id="node14" class="node"><title>Node14</title>
<g id="a_node14"><a xlink:href="../../d5/d56/class_workspace.html#a6babd032d9af86fbc23812272d59a2d2" target="_top" xlink:title="Workspace.addFeatureButtons">
<polygon fill="white" stroke="black" points="2310,-139.628 2310,-158.628 2472,-158.628 2472,-139.628 2310,-139.628"/>
<text text-anchor="middle" x="2391" y="-146.628" font-family="Helvetica,sans-Serif" font-size="10.00">Workspace.addFeatureButtons</text>
</a>
</g>
</g>
<!-- Node13&#45;&gt;Node14 -->
<g id="edge13" class="edge"><title>Node13&#45;&gt;Node14</title>
<path fill="none" stroke="midnightblue" d="M2283.77,-150.247C2292.38,-150.156 2301.12,-150.064 2309.7,-149.974"/>
<polygon fill="midnightblue" stroke="midnightblue" points="2283.69,-146.747 2273.73,-150.352 2283.77,-153.747 2283.69,-146.747"/>
</g>
<!-- Node15 -->
<g id="node15" class="node"><title>Node15</title>
<g id="a_node15"><a xlink:href="../../d5/d56/class_workspace.html#a429d535dfd8427637b7715f0b1e1df1b" target="_top" xlink:title="Workspace.createWorkspace">
<polygon fill="white" stroke="black" points="2508,-119.628 2508,-138.628 2660,-138.628 2660,-119.628 2508,-119.628"/>
<text text-anchor="middle" x="2584" y="-126.628" font-family="Helvetica,sans-Serif" font-size="10.00">Workspace.createWorkspace</text>
</a>
</g>
</g>
<!-- Node14&#45;&gt;Node15 -->
<g id="edge14" class="edge"><title>Node14&#45;&gt;Node15</title>
<path fill="none" stroke="midnightblue" d="M2482.22,-139.681C2490.82,-138.78 2499.48,-137.874 2507.91,-136.991"/>
<polygon fill="midnightblue" stroke="midnightblue" points="2481.75,-136.211 2472.17,-140.733 2482.48,-143.173 2481.75,-136.211"/>
</g>
<!-- Node16 -->
<g id="node16" class="node"><title>Node16</title>
<g id="a_node16"><a xlink:href="../../d0/d4b/class_main.html#aaa75b38812324d0f17c89f139bde6ada" target="_top" xlink:title="Main.start">
<polygon fill="white" stroke="black" points="2696.5,-119.628 2696.5,-138.628 2761.5,-138.628 2761.5,-119.628 2696.5,-119.628"/>
<text text-anchor="middle" x="2729" y="-126.628" font-family="Helvetica,sans-Serif" font-size="10.00">Main.start</text>
</a>
</g>
</g>
<!-- Node15&#45;&gt;Node16 -->
<g id="edge15" class="edge"><title>Node15&#45;&gt;Node16</title>
<path fill="none" stroke="midnightblue" d="M2670.39,-129.128C2679.63,-129.128 2688.55,-129.128 2696.5,-129.128"/>
<polygon fill="midnightblue" stroke="midnightblue" points="2670.27,-125.628 2660.27,-129.128 2670.27,-132.628 2670.27,-125.628"/>
</g>
<!-- Node18&#45;&gt;Node15 -->
<g id="edge18" class="edge"><title>Node18&#45;&gt;Node15</title>
<path fill="none" stroke="midnightblue" d="M2279.47,-111.693C2346.6,-115.549 2442.08,-121.033 2507.94,-124.816"/>
<polygon fill="midnightblue" stroke="midnightblue" points="2279.54,-108.192 2269.36,-111.112 2279.14,-115.18 2279.54,-108.192"/>
</g>
<!-- Node19&#45;&gt;Node8 -->
<g id="edge20" class="edge"><title>Node19&#45;&gt;Node8</title>
<path fill="none" stroke="midnightblue" d="M1382.2,-135.376C1406.52,-130.003 1434.95,-123.72 1457.91,-118.648"/>
<polygon fill="midnightblue" stroke="midnightblue" points="1381.41,-131.964 1372.4,-137.539 1382.92,-138.8 1381.41,-131.964"/>
</g>
<!-- Node20&#45;&gt;Node21 -->
<g id="edge25" class="edge"><title>Node20&#45;&gt;Node21</title>
<path fill="none" stroke="midnightblue" d="M724.604,-219.625C733.039,-218.624 741.601,-217.607 749.907,-216.621"/>
<polygon fill="midnightblue" stroke="midnightblue" points="723.92,-216.182 714.403,-220.837 724.746,-223.133 723.92,-216.182"/>
</g>
<!-- Node21&#45;&gt;Node6 -->
<g id="edge26" class="edge"><title>Node21&#45;&gt;Node6</title>
<path fill="none" stroke="midnightblue" d="M880.206,-197.805C895.747,-195.106 912.178,-192.253 927.198,-189.645"/>
<polygon fill="midnightblue" stroke="midnightblue" points="879.399,-194.393 870.145,-199.552 880.596,-201.29 879.399,-194.393"/>
</g>
<!-- Node22&#45;&gt;Node6 -->
<g id="edge30" class="edge"><title>Node22&#45;&gt;Node6</title>
<path fill="none" stroke="midnightblue" d="M555.476,-299.342C601.489,-295.516 661.561,-288.951 714,-278.128 788.628,-262.726 806.796,-255.269 878,-228.128 908.474,-216.513 942.585,-200.08 963.166,-189.77"/>
<polygon fill="midnightblue" stroke="midnightblue" points="554.973,-295.871 545.287,-300.164 555.536,-302.848 554.973,-295.871"/>
</g>
<!-- Node22&#45;&gt;Node7 -->
<g id="edge31" class="edge"><title>Node22&#45;&gt;Node7</title>
<path fill="none" stroke="midnightblue" d="M555.183,-307.109C601.087,-307.98 661.148,-307.361 714,-301.128 869.834,-282.751 908.896,-263.494 1052,-199.128 1081.51,-185.855 1114.49,-167.608 1133.68,-156.632"/>
<polygon fill="midnightblue" stroke="midnightblue" points="555.094,-303.607 545.02,-306.888 554.941,-310.605 555.094,-303.607"/>
</g>
<!-- Node22&#45;&gt;Node8 -->
<g id="edge32" class="edge"><title>Node22&#45;&gt;Node8</title>
<path fill="none" stroke="midnightblue" d="M541.755,-317.144C546.011,-318.897 550.139,-320.882 554,-323.128 573.832,-334.665 570.167,-348.593 590,-360.128 678.525,-411.614 710.591,-418.128 813,-418.128 813,-418.128 813,-418.128 1152,-418.128 1337.32,-418.128 1470.36,-170.871 1496.36,-118.715"/>
<polygon fill="midnightblue" stroke="midnightblue" points="542.883,-313.83 532.29,-313.664 540.468,-320.4 542.883,-313.83"/>
</g>
<!-- Node22&#45;&gt;Node19 -->
<g id="edge34" class="edge"><title>Node22&#45;&gt;Node19</title>
<path fill="none" stroke="midnightblue" d="M528.259,-316.182C613.016,-337.615 784.697,-380.128 813,-380.128 813,-380.128 813,-380.128 984,-380.128 1145.61,-380.128 1287.56,-200.94 1320.04,-156.843"/>
<polygon fill="midnightblue" stroke="midnightblue" points="528.923,-312.739 518.37,-313.677 527.204,-319.525 528.923,-312.739"/>
</g>
<!-- Node22&#45;&gt;Node20 -->
<g id="edge33" class="edge"><title>Node22&#45;&gt;Node20</title>
<path fill="none" stroke="midnightblue" d="M509.161,-290.023C531.024,-279.237 562.194,-264.213 590,-252.128 601.585,-247.093 614.592,-241.912 625.61,-237.659"/>
<polygon fill="midnightblue" stroke="midnightblue" points="507.513,-286.933 500.108,-294.51 510.622,-293.205 507.513,-286.933"/>
</g>
<!-- Node22&#45;&gt;Node21 -->
<g id="edge35" class="edge"><title>Node22&#45;&gt;Node21</title>
<path fill="none" stroke="midnightblue" d="M537.248,-292.464C584.783,-282.109 654.446,-265.76 714,-247.128 740.707,-238.773 770.601,-226.943 790.482,-218.71"/>
<polygon fill="midnightblue" stroke="midnightblue" points="536.486,-289.048 527.452,-294.581 537.965,-295.89 536.486,-289.048"/>
</g>
</g>
</svg>
        <g id="navigator" transform="translate(0 0)" fill="#404254">
                <rect fill="#f2f5e9" fill-opacity="0.5" stroke="#606060" stroke-width=".5" x="0" y="0" width="60" height="60"/>
                <use id="zoomplus" xlink:href="#zoomPlus" x="17" y="9" onmousedown="handleZoom(evt,'in')"/>
                <use id="zoomminus" xlink:href="#zoomMin" x="42" y="9" onmousedown="handleZoom(evt,'out')"/>
                <use id="reset" xlink:href="#resetDef" x="30" y="36" onmousedown="handleReset()"/>
                <g id="arrowUp" xlink:href="#dirArrow" transform="translate(30 24)" onmousedown="handlePan(0,-1)">
                  <use xlink:href="#rim" fill="#404040">
                        <set attributeName="fill" to="#808080" begin="arrowUp.mouseover" end="arrowUp.mouseout"/>
                  </use>
                  <path fill="none" stroke="white" stroke-width="1.5" d="M0,-3.0v7 M-2.5,-0.5L0,-3.0L2.5,-0.5"/>
                </g>
                <g id="arrowRight" xlink:href="#dirArrow" transform="rotate(90) translate(36 -43)" onmousedown="handlePan(1,0)">
                  <use xlink:href="#rim" fill="#404040">
                        <set attributeName="fill" to="#808080" begin="arrowRight.mouseover" end="arrowRight.mouseout"/>
                  </use>
                  <path fill="none" stroke="white" stroke-width="1.5" d="M0,-3.0v7 M-2.5,-0.5L0,-3.0L2.5,-0.5"/>
                </g>
                <g id="arrowDown" xlink:href="#dirArrow" transform="rotate(180) translate(-30 -48)" onmousedown="handlePan(0,1)">
                  <use xlink:href="#rim" fill="#404040">
                        <set attributeName="fill" to="#808080" begin="arrowDown.mouseover" end="arrowDown.mouseout"/>
                  </use>
                  <path fill="none" stroke="white" stroke-width="1.5" d="M0,-3.0v7 M-2.5,-0.5L0,-3.0L2.5,-0.5"/>
                </g>
                <g id="arrowLeft" xlink:href="#dirArrow" transform="rotate(270) translate(-36 17)" onmousedown="handlePan(-1,0)">
                  <use xlink:href="#rim" fill="#404040">
                        <set attributeName="fill" to="#808080" begin="arrowLeft.mouseover" end="arrowLeft.mouseout"/>
                  </use>
                  <path fill="none" stroke="white" stroke-width="1.5" d="M0,-3.0v7 M-2.5,-0.5L0,-3.0L2.5,-0.5"/>
                </g>
        </g>
        <svg viewBox="0 0 15 15" width="100%" height="30px" preserveAspectRatio="xMaxYMin meet">
         <g id="arrow_out" transform="scale(0.3 0.3)">
          <a xlink:href="classparser_1_1_simple_char_stream_ad35e1457d139a5986c04f7975065d03d_icgraph_org.svg" target="_base">
           <rect id="button" ry="5" rx="5" y="6" x="6" height="38" width="38"
                fill="#f2f5e9" fill-opacity="0.5" stroke="#606060" stroke-width="1.0"/>
           <path id="arrow"
             d="M 11.500037,31.436501 C 11.940474,20.09759 22.043105,11.32322 32.158766,21.979434 L 37.068811,17.246167 C 37.068811,17.246167 37.088388,32 37.088388,32 L 22.160133,31.978069 C 22.160133,31.978069 26.997745,27.140456 26.997745,27.140456 C 18.528582,18.264221 13.291696,25.230495 11.500037,31.436501 z"
             style="fill:#404040;"/>
          </a>
         </g>
        </svg>
</svg>
