<?xml version="1.0" encoding="UTF-8" standalone="no"?>
<!DOCTYPE svg PUBLIC "-//W3C//DTD SVG 1.1//EN"
 "http://www.w3.org/Graphics/SVG/1.1/DTD/svg11.dtd">
<!-- Generated by graphviz version 2.36.0 (20140111.2315)
 -->
<!-- Title: parser.LogoParserConstants Pages: 1 -->
<svg width="301pt" height="84pt"
 viewBox="0.00 0.00 301.00 84.00" xmlns="http://www.w3.org/2000/svg" xmlns:xlink="http://www.w3.org/1999/xlink">
<g id="graph0" class="graph" transform="scale(1 1) rotate(0) translate(4 80)">
<title>parser.LogoParserConstants</title>
<polygon fill="white" stroke="none" points="-4,4 -4,-80 297,-80 297,4 -4,4"/>
<!-- Node1 -->
<g id="node1" class="node"><title>Node1</title>
<polygon fill="#bfbfbf" stroke="black" points="53,-56.5 53,-75.5 205,-75.5 205,-56.5 53,-56.5"/>
<text text-anchor="middle" x="129" y="-63.5" font-family="Helvetica,sans-Serif" font-size="10.00">parser.LogoParserConstants</text>
</g>
<!-- Node2 -->
<g id="node2" class="node"><title>Node2</title>
<g id="a_node2"><a xlink:href="../../d5/d0e/classparser_1_1_logo_parser.html" target="_top" xlink:title="parser.LogoParser">
<polygon fill="white" stroke="black" points="-0.5,-0.5 -0.5,-19.5 102.5,-19.5 102.5,-0.5 -0.5,-0.5"/>
<text text-anchor="middle" x="51" y="-7.5" font-family="Helvetica,sans-Serif" font-size="10.00">parser.LogoParser</text>
</a>
</g>
</g>
<!-- Node1&#45;&gt;Node2 -->
<g id="edge1" class="edge"><title>Node1&#45;&gt;Node2</title>
<path fill="none" stroke="midnightblue" d="M108.232,-50.6221C93.9829,-40.7574 75.5438,-27.9919 63.5009,-19.6545"/>
<polygon fill="midnightblue" stroke="midnightblue" points="106.254,-53.5095 116.468,-56.324 110.238,-47.7541 106.254,-53.5095"/>
</g>
<!-- Node3 -->
<g id="node3" class="node"><title>Node3</title>
<g id="a_node3"><a xlink:href="../../d0/d8c/classparser_1_1_logo_parser_token_manager.html" target="_top" xlink:title="parser.LogoParserTokenManager">
<polygon fill="white" stroke="black" points="121,-0.5 121,-19.5 293,-19.5 293,-0.5 121,-0.5"/>
<text text-anchor="middle" x="207" y="-7.5" font-family="Helvetica,sans-Serif" font-size="10.00">parser.LogoParserTokenManager</text>
</a>
</g>
</g>
<!-- Node1&#45;&gt;Node3 -->
<g id="edge2" class="edge"><title>Node1&#45;&gt;Node3</title>
<path fill="none" stroke="midnightblue" d="M149.768,-50.6221C164.017,-40.7574 182.456,-27.9919 194.499,-19.6545"/>
<polygon fill="midnightblue" stroke="midnightblue" points="147.762,-47.7541 141.532,-56.324 151.746,-53.5095 147.762,-47.7541"/>
</g>
</g>
</svg>
