<?xml version="1.0" encoding="UTF-8" standalone="no"?>
<!DOCTYPE svg PUBLIC "-//W3C//DTD SVG 1.1//EN"
 "http://www.w3.org/Graphics/SVG/1.1/DTD/svg11.dtd">
<!-- Generated by graphviz version 2.36.0 (20140111.2315)
 -->
<!-- Title: MovementAndImageAPI.src.Turtle.getImage Pages: 1 -->
<svg width="1098pt" height="317pt"
 viewBox="0.00 0.00 1098.00 317.00" xmlns="http://www.w3.org/2000/svg" xmlns:xlink="http://www.w3.org/1999/xlink">
<g id="graph0" class="graph" transform="scale(1 1) rotate(0) translate(4 313)">
<title>MovementAndImageAPI.src.Turtle.getImage</title>
<polygon fill="white" stroke="none" points="-4,4 -4,-313 1094,-313 1094,4 -4,4"/>
<!-- Node1 -->
<g id="node1" class="node"><title>Node1</title>
<polygon fill="#bfbfbf" stroke="black" points="0,-159 0,-189 152,-189 152,-159 0,-159"/>
<text text-anchor="start" x="8" y="-177" font-family="Helvetica,sans-Serif" font-size="10.00">MovementAndImageAPI.src.</text>
<text text-anchor="middle" x="76" y="-166" font-family="Helvetica,sans-Serif" font-size="10.00">Turtle.getImage</text>
</g>
<!-- Node2 -->
<g id="node2" class="node"><title>Node2</title>
<g id="a_node2"><a xlink:href="../../d4/d0f/class_movement_and_image_a_p_i_1_1src_1_1_turtle_handler.html#af29fccc690dc6879ac8d313c67c669fa" target="_top" xlink:title="MovementAndImageAPI.src.\lTurtleHandler.getShowing">
<polygon fill="white" stroke="black" points="204,-279 204,-309 356,-309 356,-279 204,-279"/>
<text text-anchor="start" x="212" y="-297" font-family="Helvetica,sans-Serif" font-size="10.00">MovementAndImageAPI.src.</text>
<text text-anchor="middle" x="280" y="-286" font-family="Helvetica,sans-Serif" font-size="10.00">TurtleHandler.getShowing</text>
</a>
</g>
</g>
<!-- Node1&#45;&gt;Node2 -->
<g id="edge1" class="edge"><title>Node1&#45;&gt;Node2</title>
<path fill="none" stroke="midnightblue" d="M97.5733,-196.628C118.387,-218.212 152.482,-250.147 188,-269 195.236,-272.841 203.116,-276.135 211.114,-278.95"/>
<polygon fill="midnightblue" stroke="midnightblue" points="99.9451,-194.043 90.5279,-189.188 94.8622,-198.856 99.9451,-194.043"/>
</g>
<!-- Node3 -->
<g id="node3" class="node"><title>Node3</title>
<g id="a_node3"><a xlink:href="../../d4/d0f/class_movement_and_image_a_p_i_1_1src_1_1_turtle_handler.html#adf01534451c018bc6b767aa8d42689bb" target="_top" xlink:title="MovementAndImageAPI.src.\lTurtleHandler.moveAndDraw">
<polygon fill="white" stroke="black" points="204,-230 204,-260 356,-260 356,-230 204,-230"/>
<text text-anchor="start" x="212" y="-248" font-family="Helvetica,sans-Serif" font-size="10.00">MovementAndImageAPI.src.</text>
<text text-anchor="middle" x="280" y="-237" font-family="Helvetica,sans-Serif" font-size="10.00">TurtleHandler.moveAndDraw</text>
</a>
</g>
</g>
<!-- Node1&#45;&gt;Node3 -->
<g id="edge2" class="edge"><title>Node1&#45;&gt;Node3</title>
<path fill="none" stroke="midnightblue" d="M119.915,-193.252C140.313,-202.023 165.175,-212.169 188,-220 198.228,-223.509 209.231,-226.87 219.929,-229.927"/>
<polygon fill="midnightblue" stroke="midnightblue" points="121.153,-189.974 110.586,-189.204 118.366,-196.396 121.153,-189.974"/>
</g>
<!-- Node8 -->
<g id="node8" class="node"><title>Node8</title>
<g id="a_node8"><a xlink:href="../../d4/d0f/class_movement_and_image_a_p_i_1_1src_1_1_turtle_handler.html#a6b47711dbbda0e84e5228414a8dd8aa5" target="_top" xlink:title="MovementAndImageAPI.src.\lTurtleHandler.showTurtle">
<polygon fill="white" stroke="black" points="204,-181 204,-211 356,-211 356,-181 204,-181"/>
<text text-anchor="start" x="212" y="-199" font-family="Helvetica,sans-Serif" font-size="10.00">MovementAndImageAPI.src.</text>
<text text-anchor="middle" x="280" y="-188" font-family="Helvetica,sans-Serif" font-size="10.00">TurtleHandler.showTurtle</text>
</a>
</g>
</g>
<!-- Node1&#45;&gt;Node8 -->
<g id="edge7" class="edge"><title>Node1&#45;&gt;Node8</title>
<path fill="none" stroke="midnightblue" d="M162.178,-183.277C175.976,-184.78 190.178,-186.326 203.72,-187.801"/>
<polygon fill="midnightblue" stroke="midnightblue" points="162.538,-179.795 152.217,-182.192 161.78,-186.754 162.538,-179.795"/>
</g>
<!-- Node9 -->
<g id="node9" class="node"><title>Node9</title>
<g id="a_node9"><a xlink:href="../../d4/d0f/class_movement_and_image_a_p_i_1_1src_1_1_turtle_handler.html#ae7bd62e67c6a572a4efef91176eb370e" target="_top" xlink:title="MovementAndImageAPI.src.\lTurtleHandler.updateImage">
<polygon fill="white" stroke="black" points="204,-34 204,-64 356,-64 356,-34 204,-34"/>
<text text-anchor="start" x="212" y="-52" font-family="Helvetica,sans-Serif" font-size="10.00">MovementAndImageAPI.src.</text>
<text text-anchor="middle" x="280" y="-41" font-family="Helvetica,sans-Serif" font-size="10.00">TurtleHandler.updateImage</text>
</a>
</g>
</g>
<!-- Node1&#45;&gt;Node9 -->
<g id="edge8" class="edge"><title>Node1&#45;&gt;Node9</title>
<path fill="none" stroke="midnightblue" d="M95.9426,-151.265C116.357,-128.215 150.94,-93.1527 188,-73 194.316,-69.5656 201.149,-66.6028 208.134,-64.0509"/>
<polygon fill="midnightblue" stroke="midnightblue" points="93.2486,-149.03 89.3316,-158.874 98.5326,-153.621 93.2486,-149.03"/>
</g>
<!-- Node13 -->
<g id="node13" class="node"><title>Node13</title>
<g id="a_node13"><a xlink:href="../../d4/d0f/class_movement_and_image_a_p_i_1_1src_1_1_turtle_handler.html#a24e9fb6ae5a522e3142b165eaa68e94f" target="_top" xlink:title="MovementAndImageAPI.src.\lTurtleHandler.updateTurtleAbsolute\lOrientation">
<polygon fill="white" stroke="black" points="188.5,-82.5 188.5,-123.5 371.5,-123.5 371.5,-82.5 188.5,-82.5"/>
<text text-anchor="start" x="196.5" y="-111.5" font-family="Helvetica,sans-Serif" font-size="10.00">MovementAndImageAPI.src.</text>
<text text-anchor="start" x="196.5" y="-100.5" font-family="Helvetica,sans-Serif" font-size="10.00">TurtleHandler.updateTurtleAbsolute</text>
<text text-anchor="middle" x="280" y="-89.5" font-family="Helvetica,sans-Serif" font-size="10.00">Orientation</text>
</a>
</g>
</g>
<!-- Node1&#45;&gt;Node13 -->
<g id="edge14" class="edge"><title>Node1&#45;&gt;Node13</title>
<path fill="none" stroke="midnightblue" d="M129.42,-155.575C157.331,-145.765 191.738,-133.671 220.514,-123.557"/>
<polygon fill="midnightblue" stroke="midnightblue" points="128.113,-152.325 119.839,-158.943 130.434,-158.929 128.113,-152.325"/>
</g>
<!-- Node15 -->
<g id="node15" class="node"><title>Node15</title>
<g id="a_node15"><a xlink:href="../../d4/d0f/class_movement_and_image_a_p_i_1_1src_1_1_turtle_handler.html#af8be08b68068574b061f2e3a2f02c524" target="_top" xlink:title="MovementAndImageAPI.src.\lTurtleHandler.updateTurtleOrientation">
<polygon fill="white" stroke="black" points="408,-137 408,-167 602,-167 602,-137 408,-137"/>
<text text-anchor="start" x="416" y="-155" font-family="Helvetica,sans-Serif" font-size="10.00">MovementAndImageAPI.src.</text>
<text text-anchor="middle" x="505" y="-144" font-family="Helvetica,sans-Serif" font-size="10.00">TurtleHandler.updateTurtleOrientation</text>
</a>
</g>
</g>
<!-- Node1&#45;&gt;Node15 -->
<g id="edge16" class="edge"><title>Node1&#45;&gt;Node15</title>
<path fill="none" stroke="midnightblue" d="M162.585,-169.59C233.424,-165.941 334.023,-160.758 407.672,-156.963"/>
<polygon fill="midnightblue" stroke="midnightblue" points="162.163,-166.107 152.356,-170.117 162.523,-173.098 162.163,-166.107"/>
</g>
<!-- Node4 -->
<g id="node4" class="node"><title>Node4</title>
<g id="a_node4"><a xlink:href="../../d4/d0f/class_movement_and_image_a_p_i_1_1src_1_1_turtle_handler.html#a47aab93cef3fa6ddcebacd40db48090b" target="_top" xlink:title="MovementAndImageAPI.src.\lTurtleHandler.updateTurtleLocation">
<polygon fill="white" stroke="black" points="414,-245 414,-275 596,-275 596,-245 414,-245"/>
<text text-anchor="start" x="422" y="-263" font-family="Helvetica,sans-Serif" font-size="10.00">MovementAndImageAPI.src.</text>
<text text-anchor="middle" x="505" y="-252" font-family="Helvetica,sans-Serif" font-size="10.00">TurtleHandler.updateTurtleLocation</text>
</a>
</g>
</g>
<!-- Node3&#45;&gt;Node4 -->
<g id="edge3" class="edge"><title>Node3&#45;&gt;Node4</title>
<path fill="none" stroke="midnightblue" d="M366.269,-250.736C381.79,-251.78 398.03,-252.872 413.69,-253.925"/>
<polygon fill="midnightblue" stroke="midnightblue" points="366.399,-247.237 356.187,-250.057 365.929,-254.221 366.399,-247.237"/>
</g>
<!-- Node7 -->
<g id="node7" class="node"><title>Node7</title>
<g id="a_node7"><a xlink:href="../../d4/d0f/class_movement_and_image_a_p_i_1_1src_1_1_turtle_handler.html#a508472221e2ec6de1f1fae9b04a661c4" target="_top" xlink:title="MovementAndImageAPI.src.\lTurtleHandler.updateTurtleAbsolute\lLocation">
<polygon fill="white" stroke="black" points="413.5,-185.5 413.5,-226.5 596.5,-226.5 596.5,-185.5 413.5,-185.5"/>
<text text-anchor="start" x="421.5" y="-214.5" font-family="Helvetica,sans-Serif" font-size="10.00">MovementAndImageAPI.src.</text>
<text text-anchor="start" x="421.5" y="-203.5" font-family="Helvetica,sans-Serif" font-size="10.00">TurtleHandler.updateTurtleAbsolute</text>
<text text-anchor="middle" x="505" y="-192.5" font-family="Helvetica,sans-Serif" font-size="10.00">Location</text>
</a>
</g>
</g>
<!-- Node3&#45;&gt;Node7 -->
<g id="edge6" class="edge"><title>Node3&#45;&gt;Node7</title>
<path fill="none" stroke="midnightblue" d="M366.199,-230.1C381.612,-227.404 397.735,-224.584 413.298,-221.863"/>
<polygon fill="midnightblue" stroke="midnightblue" points="365.434,-226.68 356.187,-231.851 366.64,-233.576 365.434,-226.68"/>
</g>
<!-- Node5 -->
<g id="node5" class="node"><title>Node5</title>
<g id="a_node5"><a xlink:href="../../d0/d4b/class_main.html#a9aab0955c478f8846fae079b0c56e8d3" target="_top" xlink:title="Main.addKeyboardControl">
<polygon fill="white" stroke="black" points="649.5,-142.5 649.5,-161.5 788.5,-161.5 788.5,-142.5 649.5,-142.5"/>
<text text-anchor="middle" x="719" y="-149.5" font-family="Helvetica,sans-Serif" font-size="10.00">Main.addKeyboardControl</text>
</a>
</g>
</g>
<!-- Node4&#45;&gt;Node5 -->
<g id="edge4" class="edge"><title>Node4&#45;&gt;Node5</title>
<path fill="none" stroke="midnightblue" d="M585.59,-241.741C591.23,-239.699 596.754,-237.456 602,-235 644.61,-215.048 687.869,-178.993 707.342,-161.727"/>
<polygon fill="midnightblue" stroke="midnightblue" points="584.363,-238.461 576.02,-244.991 586.615,-245.089 584.363,-238.461"/>
</g>
<!-- Node6 -->
<g id="node6" class="node"><title>Node6</title>
<g id="a_node6"><a xlink:href="../../d0/d4b/class_main.html#aaa75b38812324d0f17c89f139bde6ada" target="_top" xlink:title="Main.start">
<polygon fill="white" stroke="black" points="1024.5,-81.5 1024.5,-100.5 1089.5,-100.5 1089.5,-81.5 1024.5,-81.5"/>
<text text-anchor="middle" x="1057" y="-88.5" font-family="Helvetica,sans-Serif" font-size="10.00">Main.start</text>
</a>
</g>
</g>
<!-- Node5&#45;&gt;Node6 -->
<g id="edge5" class="edge"><title>Node5&#45;&gt;Node6</title>
<path fill="none" stroke="midnightblue" d="M782.75,-140.608C854.404,-127.599 968.833,-106.825 1024.09,-96.7937"/>
<polygon fill="midnightblue" stroke="midnightblue" points="781.714,-137.239 772.5,-142.469 782.964,-144.126 781.714,-137.239"/>
</g>
<!-- Node10 -->
<g id="node10" class="node"><title>Node10</title>
<g id="a_node10"><a xlink:href="../../d7/daa/class_turtle_chooser_feature.html#a46a2a59cd3e594dff7798d6a31cb5c9c" target="_top" xlink:title="TurtleChooserFeature.open\lTurtleChooser">
<polygon fill="white" stroke="black" points="432.5,-0 432.5,-30 577.5,-30 577.5,-0 432.5,-0"/>
<text text-anchor="start" x="440.5" y="-18" font-family="Helvetica,sans-Serif" font-size="10.00">TurtleChooserFeature.open</text>
<text text-anchor="middle" x="505" y="-7" font-family="Helvetica,sans-Serif" font-size="10.00">TurtleChooser</text>
</a>
</g>
</g>
<!-- Node9&#45;&gt;Node10 -->
<g id="edge9" class="edge"><title>Node9&#45;&gt;Node10</title>
<path fill="none" stroke="midnightblue" d="M366.087,-36.0271C387.881,-32.7042 411.104,-29.1636 432.157,-25.9536"/>
<polygon fill="midnightblue" stroke="midnightblue" points="365.545,-32.5692 356.187,-37.5366 366.6,-39.4892 365.545,-32.5692"/>
</g>
<!-- Node12 -->
<g id="node12" class="node"><title>Node12</title>
<g id="a_node12"><a xlink:href="../../d5/d56/class_workspace.html#a429d535dfd8427637b7715f0b1e1df1b" target="_top" xlink:title="Workspace.createWorkspace">
<polygon fill="white" stroke="black" points="836,-49.5 836,-68.5 988,-68.5 988,-49.5 836,-49.5"/>
<text text-anchor="middle" x="912" y="-56.5" font-family="Helvetica,sans-Serif" font-size="10.00">Workspace.createWorkspace</text>
</a>
</g>
</g>
<!-- Node9&#45;&gt;Node12 -->
<g id="edge13" class="edge"><title>Node9&#45;&gt;Node12</title>
<path fill="none" stroke="midnightblue" d="M366.254,-50.3532C490.165,-52.3201 718.058,-55.9374 835.95,-57.8087"/>
<polygon fill="midnightblue" stroke="midnightblue" points="366.109,-46.8506 356.055,-50.1913 365.998,-53.8497 366.109,-46.8506"/>
</g>
<!-- Node11 -->
<g id="node11" class="node"><title>Node11</title>
<g id="a_node11"><a xlink:href="../../d5/d56/class_workspace.html#a6babd032d9af86fbc23812272d59a2d2" target="_top" xlink:title="Workspace.addFeatureButtons">
<polygon fill="white" stroke="black" points="638,-8.5 638,-27.5 800,-27.5 800,-8.5 638,-8.5"/>
<text text-anchor="middle" x="719" y="-15.5" font-family="Helvetica,sans-Serif" font-size="10.00">Workspace.addFeatureButtons</text>
</a>
</g>
</g>
<!-- Node10&#45;&gt;Node11 -->
<g id="edge10" class="edge"><title>Node10&#45;&gt;Node11</title>
<path fill="none" stroke="midnightblue" d="M587.881,-16.1587C604.309,-16.3912 621.552,-16.6352 637.918,-16.8668"/>
<polygon fill="midnightblue" stroke="midnightblue" points="587.822,-12.6576 577.774,-16.0157 587.723,-19.6569 587.822,-12.6576"/>
</g>
<!-- Node11&#45;&gt;Node12 -->
<g id="edge11" class="edge"><title>Node11&#45;&gt;Node12</title>
<path fill="none" stroke="midnightblue" d="M774.34,-29.6645C803.54,-35.9327 839.089,-43.5637 866.61,-49.4714"/>
<polygon fill="midnightblue" stroke="midnightblue" points="774.811,-26.1861 764.299,-27.5093 773.342,-33.0302 774.811,-26.1861"/>
</g>
<!-- Node12&#45;&gt;Node6 -->
<g id="edge12" class="edge"><title>Node12&#45;&gt;Node6</title>
<path fill="none" stroke="midnightblue" d="M965.33,-70.7102C985.11,-75.1366 1007,-80.0359 1024.32,-83.9112"/>
<polygon fill="midnightblue" stroke="midnightblue" points="966.041,-67.2827 955.518,-68.5144 964.512,-74.1138 966.041,-67.2827"/>
</g>
<!-- Node14 -->
<g id="node14" class="node"><title>Node14</title>
<g id="a_node14"><a xlink:href="../../d4/d0f/class_movement_and_image_a_p_i_1_1src_1_1_turtle_handler.html#a95e798d7c5caefdc1472c01f1438adaa" target="_top" xlink:title="MovementAndImageAPI.src.\lTurtleHandler.towards">
<polygon fill="white" stroke="black" points="429,-88 429,-118 581,-118 581,-88 429,-88"/>
<text text-anchor="start" x="437" y="-106" font-family="Helvetica,sans-Serif" font-size="10.00">MovementAndImageAPI.src.</text>
<text text-anchor="middle" x="505" y="-95" font-family="Helvetica,sans-Serif" font-size="10.00">TurtleHandler.towards</text>
</a>
</g>
</g>
<!-- Node13&#45;&gt;Node14 -->
<g id="edge15" class="edge"><title>Node13&#45;&gt;Node14</title>
<path fill="none" stroke="midnightblue" d="M381.975,-103C397.689,-103 413.684,-103 428.697,-103"/>
<polygon fill="midnightblue" stroke="midnightblue" points="381.703,-99.5001 371.703,-103 381.703,-106.5 381.703,-99.5001"/>
</g>
<!-- Node15&#45;&gt;Node5 -->
<g id="edge17" class="edge"><title>Node15&#45;&gt;Node5</title>
<path fill="none" stroke="midnightblue" d="M612.224,-152C624.895,-152 637.561,-152 649.499,-152"/>
<polygon fill="midnightblue" stroke="midnightblue" points="612.075,-148.5 602.075,-152 612.075,-155.5 612.075,-148.5"/>
</g>
</g>
</svg>
