<?xml version="1.0" encoding="UTF-8" standalone="no"?>
<!DOCTYPE svg PUBLIC "-//W3C//DTD SVG 1.1//EN"
 "http://www.w3.org/Graphics/SVG/1.1/DTD/svg11.dtd">
<!-- Generated by graphviz version 2.36.0 (20140111.2315)
 -->
<!-- Title: MovementAndImageAPI.src.Turtle.updateAbsoluteLocation Pages: 1 -->
<svg width="390pt" height="97pt"
 viewBox="0.00 0.00 390.00 97.00" xmlns="http://www.w3.org/2000/svg" xmlns:xlink="http://www.w3.org/1999/xlink">
<g id="graph0" class="graph" transform="scale(1 1) rotate(0) translate(4 93)">
<title>MovementAndImageAPI.src.Turtle.updateAbsoluteLocation</title>
<polygon fill="white" stroke="none" points="-4,4 -4,-93 386,-93 386,4 -4,4"/>
<!-- Node1 -->
<g id="node1" class="node"><title>Node1</title>
<polygon fill="#bfbfbf" stroke="black" points="0.5,-32 0.5,-62 161.5,-62 161.5,-32 0.5,-32"/>
<text text-anchor="start" x="8.5" y="-50" font-family="Helvetica,sans-Serif" font-size="10.00">MovementAndImageAPI.src.</text>
<text text-anchor="middle" x="81" y="-39" font-family="Helvetica,sans-Serif" font-size="10.00">Turtle.updateAbsoluteLocation</text>
</g>
<!-- Node2 -->
<g id="node2" class="node"><title>Node2</title>
<g id="a_node2"><a xlink:href="../../d2/d23/class_movement_and_image_a_p_i_1_1src_1_1_turtle_test.html#a98b768bf3f706d1d322e3eabfcd78dfe" target="_top" xlink:title="MovementAndImageAPI.src.\lTurtleTest.testMovingDirections">
<polygon fill="white" stroke="black" points="208,-59 208,-89 372,-89 372,-59 208,-59"/>
<text text-anchor="start" x="216" y="-77" font-family="Helvetica,sans-Serif" font-size="10.00">MovementAndImageAPI.src.</text>
<text text-anchor="middle" x="290" y="-66" font-family="Helvetica,sans-Serif" font-size="10.00">TurtleTest.testMovingDirections</text>
</a>
</g>
</g>
<!-- Node1&#45;&gt;Node2 -->
<g id="edge1" class="edge"><title>Node1&#45;&gt;Node2</title>
<path fill="none" stroke="midnightblue" d="M171.765,-58.7084C183.792,-60.2772 196.071,-61.8788 207.937,-63.4266"/>
<polygon fill="midnightblue" stroke="midnightblue" points="172.104,-55.2232 161.736,-57.4003 171.199,-62.1644 172.104,-55.2232"/>
</g>
<!-- Node3 -->
<g id="node3" class="node"><title>Node3</title>
<g id="a_node3"><a xlink:href="../../d4/d0f/class_movement_and_image_a_p_i_1_1src_1_1_turtle_handler.html#a508472221e2ec6de1f1fae9b04a661c4" target="_top" xlink:title="MovementAndImageAPI.src.\lTurtleHandler.updateTurtleAbsolute\lLocation">
<polygon fill="white" stroke="black" points="198.5,0.5 198.5,-40.5 381.5,-40.5 381.5,0.5 198.5,0.5"/>
<text text-anchor="start" x="206.5" y="-28.5" font-family="Helvetica,sans-Serif" font-size="10.00">MovementAndImageAPI.src.</text>
<text text-anchor="start" x="206.5" y="-17.5" font-family="Helvetica,sans-Serif" font-size="10.00">TurtleHandler.updateTurtleAbsolute</text>
<text text-anchor="middle" x="290" y="-6.5" font-family="Helvetica,sans-Serif" font-size="10.00">Location</text>
</a>
</g>
</g>
<!-- Node1&#45;&gt;Node3 -->
<g id="edge2" class="edge"><title>Node1&#45;&gt;Node3</title>
<path fill="none" stroke="midnightblue" d="M171.917,-35.2718C180.654,-34.1321 189.522,-32.9754 198.267,-31.8347"/>
<polygon fill="midnightblue" stroke="midnightblue" points="171.199,-31.8356 161.736,-36.5997 172.104,-38.7768 171.199,-31.8356"/>
</g>
</g>
</svg>
