<?xml version="1.0" encoding="UTF-8" standalone="no"?>
<!DOCTYPE svg PUBLIC "-//W3C//DTD SVG 1.1//EN"
 "http://www.w3.org/Graphics/SVG/1.1/DTD/svg11.dtd">
<!-- Generated by graphviz version 2.36.0 (20140111.2315)
 -->
<!-- Title: MovementAndImageAPI.src.Turtle.getPenHandler Pages: 1 -->
<svg width="860pt" height="142pt"
 viewBox="0.00 0.00 860.00 142.00" xmlns="http://www.w3.org/2000/svg" xmlns:xlink="http://www.w3.org/1999/xlink">
<g id="graph0" class="graph" transform="scale(1 1) rotate(0) translate(4 138)">
<title>MovementAndImageAPI.src.Turtle.getPenHandler</title>
<polygon fill="white" stroke="none" points="-4,4 -4,-138 856,-138 856,4 -4,4"/>
<!-- Node1 -->
<g id="node1" class="node"><title>Node1</title>
<polygon fill="#bfbfbf" stroke="black" points="0,-55 0,-85 152,-85 152,-55 0,-55"/>
<text text-anchor="start" x="8" y="-73" font-family="Helvetica,sans-Serif" font-size="10.00">MovementAndImageAPI.src.</text>
<text text-anchor="middle" x="76" y="-62" font-family="Helvetica,sans-Serif" font-size="10.00">Turtle.getPenHandler</text>
</g>
<!-- Node2 -->
<g id="node2" class="node"><title>Node2</title>
<g id="a_node2"><a xlink:href="../../d4/d0f/class_movement_and_image_a_p_i_1_1src_1_1_turtle_handler.html#a65a517db32e5aa2c1b9559b444229f09" target="_top" xlink:title="MovementAndImageAPI.src.\lTurtleHandler.getPenHandler">
<polygon fill="white" stroke="black" points="188.5,-104 188.5,-134 341.5,-134 341.5,-104 188.5,-104"/>
<text text-anchor="start" x="196.5" y="-122" font-family="Helvetica,sans-Serif" font-size="10.00">MovementAndImageAPI.src.</text>
<text text-anchor="middle" x="265" y="-111" font-family="Helvetica,sans-Serif" font-size="10.00">TurtleHandler.getPenHandler</text>
</a>
</g>
</g>
<!-- Node1&#45;&gt;Node2 -->
<g id="edge1" class="edge"><title>Node1&#45;&gt;Node2</title>
<path fill="none" stroke="midnightblue" d="M144.255,-87.6229C164.713,-92.9837 186.996,-98.8225 206.731,-103.994"/>
<polygon fill="midnightblue" stroke="midnightblue" points="144.938,-84.1837 134.377,-85.0346 143.163,-90.9551 144.938,-84.1837"/>
</g>
<!-- Node5 -->
<g id="node5" class="node"><title>Node5</title>
<g id="a_node5"><a xlink:href="../../d4/d0f/class_movement_and_image_a_p_i_1_1src_1_1_turtle_handler.html#adf01534451c018bc6b767aa8d42689bb" target="_top" xlink:title="MovementAndImageAPI.src.\lTurtleHandler.moveAndDraw">
<polygon fill="white" stroke="black" points="189,-55 189,-85 341,-85 341,-55 189,-55"/>
<text text-anchor="start" x="197" y="-73" font-family="Helvetica,sans-Serif" font-size="10.00">MovementAndImageAPI.src.</text>
<text text-anchor="middle" x="265" y="-62" font-family="Helvetica,sans-Serif" font-size="10.00">TurtleHandler.moveAndDraw</text>
</a>
</g>
</g>
<!-- Node1&#45;&gt;Node5 -->
<g id="edge4" class="edge"><title>Node1&#45;&gt;Node5</title>
<path fill="none" stroke="midnightblue" d="M162.523,-70C171.326,-70 180.224,-70 188.902,-70"/>
<polygon fill="midnightblue" stroke="midnightblue" points="162.252,-66.5001 152.252,-70 162.252,-73.5001 162.252,-66.5001"/>
</g>
<!-- Node9 -->
<g id="node9" class="node"><title>Node9</title>
<g id="a_node9"><a xlink:href="../../d4/d0f/class_movement_and_image_a_p_i_1_1src_1_1_turtle_handler.html#a2886677da06f01f2aeb84c8894a80e08" target="_top" xlink:title="MovementAndImageAPI.src.\lTurtleHandler.setLineWidth">
<polygon fill="white" stroke="black" points="189,-6 189,-36 341,-36 341,-6 189,-6"/>
<text text-anchor="start" x="197" y="-24" font-family="Helvetica,sans-Serif" font-size="10.00">MovementAndImageAPI.src.</text>
<text text-anchor="middle" x="265" y="-13" font-family="Helvetica,sans-Serif" font-size="10.00">TurtleHandler.setLineWidth</text>
</a>
</g>
</g>
<!-- Node1&#45;&gt;Node9 -->
<g id="edge9" class="edge"><title>Node1&#45;&gt;Node9</title>
<path fill="none" stroke="midnightblue" d="M144.255,-52.3771C164.713,-47.0163 186.996,-41.1775 206.731,-36.0062"/>
<polygon fill="midnightblue" stroke="midnightblue" points="143.163,-49.0449 134.377,-54.9654 144.938,-55.8163 143.163,-49.0449"/>
</g>
<!-- Node3 -->
<g id="node3" class="node"><title>Node3</title>
<g id="a_node3"><a xlink:href="../../d5/d56/class_workspace.html#a429d535dfd8427637b7715f0b1e1df1b" target="_top" xlink:title="Workspace.createWorkspace">
<polygon fill="white" stroke="black" points="598,-107.5 598,-126.5 750,-126.5 750,-107.5 598,-107.5"/>
<text text-anchor="middle" x="674" y="-114.5" font-family="Helvetica,sans-Serif" font-size="10.00">Workspace.createWorkspace</text>
</a>
</g>
</g>
<!-- Node2&#45;&gt;Node3 -->
<g id="edge2" class="edge"><title>Node2&#45;&gt;Node3</title>
<path fill="none" stroke="midnightblue" d="M351.669,-118.579C424.523,-118.221 528.116,-117.712 597.805,-117.37"/>
<polygon fill="midnightblue" stroke="midnightblue" points="351.582,-115.079 341.6,-118.629 351.617,-122.079 351.582,-115.079"/>
</g>
<!-- Node4 -->
<g id="node4" class="node"><title>Node4</title>
<g id="a_node4"><a xlink:href="../../d0/d4b/class_main.html#aaa75b38812324d0f17c89f139bde6ada" target="_top" xlink:title="Main.start">
<polygon fill="white" stroke="black" points="786.5,-87.5 786.5,-106.5 851.5,-106.5 851.5,-87.5 786.5,-87.5"/>
<text text-anchor="middle" x="819" y="-94.5" font-family="Helvetica,sans-Serif" font-size="10.00">Main.start</text>
</a>
</g>
</g>
<!-- Node3&#45;&gt;Node4 -->
<g id="edge3" class="edge"><title>Node3&#45;&gt;Node4</title>
<path fill="none" stroke="midnightblue" d="M753.064,-106.082C764.833,-104.436 776.363,-102.823 786.363,-101.425"/>
<polygon fill="midnightblue" stroke="midnightblue" points="752.568,-102.617 743.15,-107.469 753.538,-109.55 752.568,-102.617"/>
</g>
<!-- Node6 -->
<g id="node6" class="node"><title>Node6</title>
<g id="a_node6"><a xlink:href="../../d4/d0f/class_movement_and_image_a_p_i_1_1src_1_1_turtle_handler.html#a47aab93cef3fa6ddcebacd40db48090b" target="_top" xlink:title="MovementAndImageAPI.src.\lTurtleHandler.updateTurtleLocation">
<polygon fill="white" stroke="black" points="379,-60 379,-90 561,-90 561,-60 379,-60"/>
<text text-anchor="start" x="387" y="-78" font-family="Helvetica,sans-Serif" font-size="10.00">MovementAndImageAPI.src.</text>
<text text-anchor="middle" x="470" y="-67" font-family="Helvetica,sans-Serif" font-size="10.00">TurtleHandler.updateTurtleLocation</text>
</a>
</g>
</g>
<!-- Node5&#45;&gt;Node6 -->
<g id="edge5" class="edge"><title>Node5&#45;&gt;Node6</title>
<path fill="none" stroke="midnightblue" d="M351.221,-72.099C360.344,-72.3238 369.648,-72.5529 378.826,-72.779"/>
<polygon fill="midnightblue" stroke="midnightblue" points="351.096,-68.595 341.013,-71.8476 350.924,-75.5929 351.096,-68.595"/>
</g>
<!-- Node8 -->
<g id="node8" class="node"><title>Node8</title>
<g id="a_node8"><a xlink:href="../../d4/d0f/class_movement_and_image_a_p_i_1_1src_1_1_turtle_handler.html#a508472221e2ec6de1f1fae9b04a661c4" target="_top" xlink:title="MovementAndImageAPI.src.\lTurtleHandler.updateTurtleAbsolute\lLocation">
<polygon fill="white" stroke="black" points="378.5,-0.5 378.5,-41.5 561.5,-41.5 561.5,-0.5 378.5,-0.5"/>
<text text-anchor="start" x="386.5" y="-29.5" font-family="Helvetica,sans-Serif" font-size="10.00">MovementAndImageAPI.src.</text>
<text text-anchor="start" x="386.5" y="-18.5" font-family="Helvetica,sans-Serif" font-size="10.00">TurtleHandler.updateTurtleAbsolute</text>
<text text-anchor="middle" x="470" y="-7.5" font-family="Helvetica,sans-Serif" font-size="10.00">Location</text>
</a>
</g>
</g>
<!-- Node5&#45;&gt;Node8 -->
<g id="edge8" class="edge"><title>Node5&#45;&gt;Node8</title>
<path fill="none" stroke="midnightblue" d="M338.364,-52.5328C353.155,-48.9627 368.847,-45.175 384.031,-41.5097"/>
<polygon fill="midnightblue" stroke="midnightblue" points="337.186,-49.2166 328.286,-54.9654 338.828,-56.0212 337.186,-49.2166"/>
</g>
<!-- Node7 -->
<g id="node7" class="node"><title>Node7</title>
<g id="a_node7"><a xlink:href="../../d0/d4b/class_main.html#a9aab0955c478f8846fae079b0c56e8d3" target="_top" xlink:title="Main.addKeyboardControl">
<polygon fill="white" stroke="black" points="604.5,-68.5 604.5,-87.5 743.5,-87.5 743.5,-68.5 604.5,-68.5"/>
<text text-anchor="middle" x="674" y="-75.5" font-family="Helvetica,sans-Serif" font-size="10.00">Main.addKeyboardControl</text>
</a>
</g>
</g>
<!-- Node6&#45;&gt;Node7 -->
<g id="edge6" class="edge"><title>Node6&#45;&gt;Node7</title>
<path fill="none" stroke="midnightblue" d="M571.314,-76.4898C582.488,-76.6558 593.673,-76.8219 604.322,-76.98"/>
<polygon fill="midnightblue" stroke="midnightblue" points="571.122,-72.9867 561.071,-76.3377 571.018,-79.9859 571.122,-72.9867"/>
</g>
<!-- Node7&#45;&gt;Node4 -->
<g id="edge7" class="edge"><title>Node7&#45;&gt;Node4</title>
<path fill="none" stroke="midnightblue" d="M753.698,-88.4564C765.186,-89.9827 776.423,-91.4758 786.208,-92.7759"/>
<polygon fill="midnightblue" stroke="midnightblue" points="753.942,-84.9581 743.568,-87.1104 753.02,-91.8971 753.942,-84.9581"/>
</g>
</g>
</svg>
