<?xml version="1.0" encoding="UTF-8" standalone="no"?>
<!DOCTYPE svg PUBLIC "-//W3C//DTD SVG 1.1//EN"
 "http://www.w3.org/Graphics/SVG/1.1/DTD/svg11.dtd">
<!-- Generated by graphviz version 2.36.0 (20140111.2315)
 -->
<!-- Title: MovementAndImageAPI.src.Turtle.getOrientation Pages: 1 -->
<svg width="1220pt" height="38pt"
 viewBox="0.00 0.00 1220.00 38.00" xmlns="http://www.w3.org/2000/svg" xmlns:xlink="http://www.w3.org/1999/xlink">
<g id="graph0" class="graph" transform="scale(1 1) rotate(0) translate(4 34)">
<title>MovementAndImageAPI.src.Turtle.getOrientation</title>
<polygon fill="white" stroke="none" points="-4,4 -4,-34 1216,-34 1216,4 -4,4"/>
<!-- Node1 -->
<g id="node1" class="node"><title>Node1</title>
<polygon fill="#bfbfbf" stroke="black" points="0,-0 0,-30 152,-30 152,-0 0,-0"/>
<text text-anchor="start" x="8" y="-18" font-family="Helvetica,sans-Serif" font-size="10.00">MovementAndImageAPI.src.</text>
<text text-anchor="middle" x="76" y="-7" font-family="Helvetica,sans-Serif" font-size="10.00">Turtle.getOrientation</text>
</g>
<!-- Node2 -->
<g id="node2" class="node"><title>Node2</title>
<g id="a_node2"><a xlink:href="../../d4/d0f/class_movement_and_image_a_p_i_1_1src_1_1_turtle_handler.html#a407c55a73d8dc5bd3f037a5a95fd65c9" target="_top" xlink:title="MovementAndImageAPI.src.\lTurtleHandler.getOrientation">
<polygon fill="white" stroke="black" points="188,-0 188,-30 340,-30 340,-0 188,-0"/>
<text text-anchor="start" x="196" y="-18" font-family="Helvetica,sans-Serif" font-size="10.00">MovementAndImageAPI.src.</text>
<text text-anchor="middle" x="264" y="-7" font-family="Helvetica,sans-Serif" font-size="10.00">TurtleHandler.getOrientation</text>
</a>
</g>
</g>
<!-- Node1&#45;&gt;Node2 -->
<g id="edge1" class="edge"><title>Node1&#45;&gt;Node2</title>
<path fill="none" stroke="midnightblue" d="M162.147,-15C170.742,-15 179.426,-15 187.905,-15"/>
<polygon fill="midnightblue" stroke="midnightblue" points="162.117,-11.5001 152.117,-15 162.117,-18.5001 162.117,-11.5001"/>
</g>
<!-- Node3 -->
<g id="node3" class="node"><title>Node3</title>
<g id="a_node3"><a xlink:href="../../d5/d6a/class_turtle_data_feature.html#a3dd3f16c3c168151bc57be68684dfc50" target="_top" xlink:title="TurtleDataFeature.showStage">
<polygon fill="white" stroke="black" points="376.5,-5.5 376.5,-24.5 533.5,-24.5 533.5,-5.5 376.5,-5.5"/>
<text text-anchor="middle" x="455" y="-12.5" font-family="Helvetica,sans-Serif" font-size="10.00">TurtleDataFeature.showStage</text>
</a>
</g>
</g>
<!-- Node2&#45;&gt;Node3 -->
<g id="edge2" class="edge"><title>Node2&#45;&gt;Node3</title>
<path fill="none" stroke="midnightblue" d="M350.312,-15C358.946,-15 367.684,-15 376.233,-15"/>
<polygon fill="midnightblue" stroke="midnightblue" points="350.241,-11.5001 340.241,-15 350.241,-18.5001 350.241,-11.5001"/>
</g>
<!-- Node4 -->
<g id="node4" class="node"><title>Node4</title>
<g id="a_node4"><a xlink:href="../../d5/d6a/class_turtle_data_feature.html#ae0a4f267c19fdd44c1ae9128f2de41e1" target="_top" xlink:title="TurtleDataFeature.openTurtle\lDataPage">
<polygon fill="white" stroke="black" points="570,-0 570,-30 724,-30 724,-0 570,-0"/>
<text text-anchor="start" x="578" y="-18" font-family="Helvetica,sans-Serif" font-size="10.00">TurtleDataFeature.openTurtle</text>
<text text-anchor="middle" x="647" y="-7" font-family="Helvetica,sans-Serif" font-size="10.00">DataPage</text>
</a>
</g>
</g>
<!-- Node3&#45;&gt;Node4 -->
<g id="edge3" class="edge"><title>Node3&#45;&gt;Node4</title>
<path fill="none" stroke="midnightblue" d="M543.757,-15C552.496,-15 561.318,-15 569.923,-15"/>
<polygon fill="midnightblue" stroke="midnightblue" points="543.554,-11.5001 533.554,-15 543.554,-18.5001 543.554,-11.5001"/>
</g>
<!-- Node5 -->
<g id="node5" class="node"><title>Node5</title>
<g id="a_node5"><a xlink:href="../../d5/d56/class_workspace.html#a6babd032d9af86fbc23812272d59a2d2" target="_top" xlink:title="Workspace.addFeatureButtons">
<polygon fill="white" stroke="black" points="760,-5.5 760,-24.5 922,-24.5 922,-5.5 760,-5.5"/>
<text text-anchor="middle" x="841" y="-12.5" font-family="Helvetica,sans-Serif" font-size="10.00">Workspace.addFeatureButtons</text>
</a>
</g>
</g>
<!-- Node4&#45;&gt;Node5 -->
<g id="edge4" class="edge"><title>Node4&#45;&gt;Node5</title>
<path fill="none" stroke="midnightblue" d="M734.414,-15C742.876,-15 751.438,-15 759.835,-15"/>
<polygon fill="midnightblue" stroke="midnightblue" points="734.159,-11.5001 724.159,-15 734.159,-18.5001 734.159,-11.5001"/>
</g>
<!-- Node6 -->
<g id="node6" class="node"><title>Node6</title>
<g id="a_node6"><a xlink:href="../../d5/d56/class_workspace.html#a429d535dfd8427637b7715f0b1e1df1b" target="_top" xlink:title="Workspace.createWorkspace">
<polygon fill="white" stroke="black" points="958,-5.5 958,-24.5 1110,-24.5 1110,-5.5 958,-5.5"/>
<text text-anchor="middle" x="1034" y="-12.5" font-family="Helvetica,sans-Serif" font-size="10.00">Workspace.createWorkspace</text>
</a>
</g>
</g>
<!-- Node5&#45;&gt;Node6 -->
<g id="edge5" class="edge"><title>Node5&#45;&gt;Node6</title>
<path fill="none" stroke="midnightblue" d="M932.223,-15C940.822,-15 949.479,-15 957.912,-15"/>
<polygon fill="midnightblue" stroke="midnightblue" points="932.171,-11.5001 922.171,-15 932.171,-18.5001 932.171,-11.5001"/>
</g>
<!-- Node7 -->
<g id="node7" class="node"><title>Node7</title>
<g id="a_node7"><a xlink:href="../../d0/d4b/class_main.html#aaa75b38812324d0f17c89f139bde6ada" target="_top" xlink:title="Main.start">
<polygon fill="white" stroke="black" points="1146.5,-5.5 1146.5,-24.5 1211.5,-24.5 1211.5,-5.5 1146.5,-5.5"/>
<text text-anchor="middle" x="1179" y="-12.5" font-family="Helvetica,sans-Serif" font-size="10.00">Main.start</text>
</a>
</g>
</g>
<!-- Node6&#45;&gt;Node7 -->
<g id="edge6" class="edge"><title>Node6&#45;&gt;Node7</title>
<path fill="none" stroke="midnightblue" d="M1120.39,-15C1129.63,-15 1138.55,-15 1146.5,-15"/>
<polygon fill="midnightblue" stroke="midnightblue" points="1120.27,-11.5001 1110.27,-15 1120.27,-18.5001 1120.27,-11.5001"/>
</g>
</g>
</svg>
