<?xml version="1.0" encoding="UTF-8" standalone="no"?>
<!DOCTYPE svg PUBLIC "-//W3C//DTD SVG 1.1//EN"
 "http://www.w3.org/Graphics/SVG/1.1/DTD/svg11.dtd">
<!-- Generated by graphviz version 2.36.0 (20140111.2315)
 -->
<!-- Title: MovementAndImageAPI.src.Turtle.updateLocation Pages: 1 -->
<svg width="656pt" height="87pt"
 viewBox="0.00 0.00 656.00 87.00" xmlns="http://www.w3.org/2000/svg" xmlns:xlink="http://www.w3.org/1999/xlink">
<g id="graph0" class="graph" transform="scale(1 1) rotate(0) translate(4 83)">
<title>MovementAndImageAPI.src.Turtle.updateLocation</title>
<polygon fill="white" stroke="none" points="-4,4 -4,-83 652,-83 652,4 -4,4"/>
<!-- Node1 -->
<g id="node1" class="node"><title>Node1</title>
<polygon fill="#bfbfbf" stroke="black" points="0,-24 0,-54 152,-54 152,-24 0,-24"/>
<text text-anchor="start" x="8" y="-42" font-family="Helvetica,sans-Serif" font-size="10.00">MovementAndImageAPI.src.</text>
<text text-anchor="middle" x="76" y="-31" font-family="Helvetica,sans-Serif" font-size="10.00">Turtle.updateLocation</text>
</g>
<!-- Node2 -->
<g id="node2" class="node"><title>Node2</title>
<g id="a_node2"><a xlink:href="../../d2/d23/class_movement_and_image_a_p_i_1_1src_1_1_turtle_test.html#a98b768bf3f706d1d322e3eabfcd78dfe" target="_top" xlink:title="MovementAndImageAPI.src.\lTurtleTest.testMovingDirections">
<polygon fill="white" stroke="black" points="197,-49 197,-79 361,-79 361,-49 197,-49"/>
<text text-anchor="start" x="205" y="-67" font-family="Helvetica,sans-Serif" font-size="10.00">MovementAndImageAPI.src.</text>
<text text-anchor="middle" x="279" y="-56" font-family="Helvetica,sans-Serif" font-size="10.00">TurtleTest.testMovingDirections</text>
</a>
</g>
</g>
<!-- Node1&#45;&gt;Node2 -->
<g id="edge1" class="edge"><title>Node1&#45;&gt;Node2</title>
<path fill="none" stroke="midnightblue" d="M162.161,-49.5922C173.674,-51.0241 185.461,-52.4902 196.9,-53.913"/>
<polygon fill="midnightblue" stroke="midnightblue" points="162.486,-46.1057 152.131,-48.3446 161.622,-53.0522 162.486,-46.1057"/>
</g>
<!-- Node3 -->
<g id="node3" class="node"><title>Node3</title>
<g id="a_node3"><a xlink:href="../../d4/d0f/class_movement_and_image_a_p_i_1_1src_1_1_turtle_handler.html#a47aab93cef3fa6ddcebacd40db48090b" target="_top" xlink:title="MovementAndImageAPI.src.\lTurtleHandler.updateTurtleLocation">
<polygon fill="white" stroke="black" points="188,-0 188,-30 370,-30 370,-0 188,-0"/>
<text text-anchor="start" x="196" y="-18" font-family="Helvetica,sans-Serif" font-size="10.00">MovementAndImageAPI.src.</text>
<text text-anchor="middle" x="279" y="-7" font-family="Helvetica,sans-Serif" font-size="10.00">TurtleHandler.updateTurtleLocation</text>
</a>
</g>
</g>
<!-- Node1&#45;&gt;Node3 -->
<g id="edge2" class="edge"><title>Node1&#45;&gt;Node3</title>
<path fill="none" stroke="midnightblue" d="M162.292,-28.8159C170.694,-27.8126 179.242,-26.792 187.693,-25.7829"/>
<polygon fill="midnightblue" stroke="midnightblue" points="161.645,-25.3681 152.131,-30.0292 162.475,-32.3188 161.645,-25.3681"/>
</g>
<!-- Node4 -->
<g id="node4" class="node"><title>Node4</title>
<g id="a_node4"><a xlink:href="../../d0/d4b/class_main.html#a9aab0955c478f8846fae079b0c56e8d3" target="_top" xlink:title="Main.addKeyboardControl">
<polygon fill="white" stroke="black" points="406.5,-5.5 406.5,-24.5 545.5,-24.5 545.5,-5.5 406.5,-5.5"/>
<text text-anchor="middle" x="476" y="-12.5" font-family="Helvetica,sans-Serif" font-size="10.00">Main.addKeyboardControl</text>
</a>
</g>
</g>
<!-- Node3&#45;&gt;Node4 -->
<g id="edge3" class="edge"><title>Node3&#45;&gt;Node4</title>
<path fill="none" stroke="midnightblue" d="M380.086,-15C388.952,-15 397.789,-15 406.304,-15"/>
<polygon fill="midnightblue" stroke="midnightblue" points="380.08,-11.5001 370.08,-15 380.08,-18.5001 380.08,-11.5001"/>
</g>
<!-- Node5 -->
<g id="node5" class="node"><title>Node5</title>
<g id="a_node5"><a xlink:href="../../d0/d4b/class_main.html#aaa75b38812324d0f17c89f139bde6ada" target="_top" xlink:title="Main.start">
<polygon fill="white" stroke="black" points="582.5,-5.5 582.5,-24.5 647.5,-24.5 647.5,-5.5 582.5,-5.5"/>
<text text-anchor="middle" x="615" y="-12.5" font-family="Helvetica,sans-Serif" font-size="10.00">Main.start</text>
</a>
</g>
</g>
<!-- Node4&#45;&gt;Node5 -->
<g id="edge4" class="edge"><title>Node4&#45;&gt;Node5</title>
<path fill="none" stroke="midnightblue" d="M556.059,-15C565.354,-15 574.384,-15 582.44,-15"/>
<polygon fill="midnightblue" stroke="midnightblue" points="555.901,-11.5001 545.901,-15 555.901,-18.5001 555.901,-11.5001"/>
</g>
</g>
</svg>
