<?xml version="1.0" encoding="UTF-8" standalone="no"?>
<!DOCTYPE svg PUBLIC "-//W3C//DTD SVG 1.1//EN"
 "http://www.w3.org/Graphics/SVG/1.1/DTD/svg11.dtd">
<!-- Generated by graphviz version 2.36.0 (20140111.2315)
 -->
<!-- Title: MovementAndImageAPI.src.Turtle.getPenPosition Pages: 1 -->
<svg width="848pt" height="119pt"
 viewBox="0.00 0.00 848.00 119.00" xmlns="http://www.w3.org/2000/svg" xmlns:xlink="http://www.w3.org/1999/xlink">
<g id="graph0" class="graph" transform="scale(1 1) rotate(0) translate(4 115)">
<title>MovementAndImageAPI.src.Turtle.getPenPosition</title>
<polygon fill="white" stroke="none" points="-4,4 -4,-115 844,-115 844,4 -4,4"/>
<!-- Node1 -->
<g id="node1" class="node"><title>Node1</title>
<polygon fill="#bfbfbf" stroke="black" points="0,-56 0,-86 152,-86 152,-56 0,-56"/>
<text text-anchor="start" x="8" y="-74" font-family="Helvetica,sans-Serif" font-size="10.00">MovementAndImageAPI.src.</text>
<text text-anchor="middle" x="76" y="-63" font-family="Helvetica,sans-Serif" font-size="10.00">Turtle.getPenPosition</text>
</g>
<!-- Node2 -->
<g id="node2" class="node"><title>Node2</title>
<g id="a_node2"><a xlink:href="../../d4/d0f/class_movement_and_image_a_p_i_1_1src_1_1_turtle_handler.html#a970fe0c9687fe615d73223a0e4a99027" target="_top" xlink:title="MovementAndImageAPI.src.\lTurtleHandler.getPenPosition">
<polygon fill="white" stroke="black" points="188.5,-81 188.5,-111 341.5,-111 341.5,-81 188.5,-81"/>
<text text-anchor="start" x="196.5" y="-99" font-family="Helvetica,sans-Serif" font-size="10.00">MovementAndImageAPI.src.</text>
<text text-anchor="middle" x="265" y="-88" font-family="Helvetica,sans-Serif" font-size="10.00">TurtleHandler.getPenPosition</text>
</a>
</g>
</g>
<!-- Node1&#45;&gt;Node2 -->
<g id="edge1" class="edge"><title>Node1&#45;&gt;Node2</title>
<path fill="none" stroke="midnightblue" d="M162.35,-82.4104C171.003,-83.5673 179.751,-84.7368 188.293,-85.8788"/>
<polygon fill="midnightblue" stroke="midnightblue" points="162.627,-78.9165 152.252,-81.0604 161.7,-85.8547 162.627,-78.9165"/>
</g>
<!-- Node3 -->
<g id="node3" class="node"><title>Node3</title>
<g id="a_node3"><a xlink:href="../../d4/d0f/class_movement_and_image_a_p_i_1_1src_1_1_turtle_handler.html#adf01534451c018bc6b767aa8d42689bb" target="_top" xlink:title="MovementAndImageAPI.src.\lTurtleHandler.moveAndDraw">
<polygon fill="white" stroke="black" points="189,-32 189,-62 341,-62 341,-32 189,-32"/>
<text text-anchor="start" x="197" y="-50" font-family="Helvetica,sans-Serif" font-size="10.00">MovementAndImageAPI.src.</text>
<text text-anchor="middle" x="265" y="-39" font-family="Helvetica,sans-Serif" font-size="10.00">TurtleHandler.moveAndDraw</text>
</a>
</g>
</g>
<!-- Node1&#45;&gt;Node3 -->
<g id="edge2" class="edge"><title>Node1&#45;&gt;Node3</title>
<path fill="none" stroke="midnightblue" d="M162.236,-60.0606C171.133,-58.9188 180.13,-57.7641 188.902,-56.6382"/>
<polygon fill="midnightblue" stroke="midnightblue" points="161.725,-56.5974 152.252,-61.342 162.616,-63.5405 161.725,-56.5974"/>
</g>
<!-- Node4 -->
<g id="node4" class="node"><title>Node4</title>
<g id="a_node4"><a xlink:href="../../d4/d0f/class_movement_and_image_a_p_i_1_1src_1_1_turtle_handler.html#a47aab93cef3fa6ddcebacd40db48090b" target="_top" xlink:title="MovementAndImageAPI.src.\lTurtleHandler.updateTurtleLocation">
<polygon fill="white" stroke="black" points="379,-59 379,-89 561,-89 561,-59 379,-59"/>
<text text-anchor="start" x="387" y="-77" font-family="Helvetica,sans-Serif" font-size="10.00">MovementAndImageAPI.src.</text>
<text text-anchor="middle" x="470" y="-66" font-family="Helvetica,sans-Serif" font-size="10.00">TurtleHandler.updateTurtleLocation</text>
</a>
</g>
</g>
<!-- Node3&#45;&gt;Node4 -->
<g id="edge3" class="edge"><title>Node3&#45;&gt;Node4</title>
<path fill="none" stroke="midnightblue" d="M350.927,-58.2957C360.144,-59.5216 369.549,-60.7726 378.826,-62.0065"/>
<polygon fill="midnightblue" stroke="midnightblue" points="351.387,-54.8262 341.013,-56.9771 350.464,-61.7651 351.387,-54.8262"/>
</g>
<!-- Node7 -->
<g id="node7" class="node"><title>Node7</title>
<g id="a_node7"><a xlink:href="../../d4/d0f/class_movement_and_image_a_p_i_1_1src_1_1_turtle_handler.html#a508472221e2ec6de1f1fae9b04a661c4" target="_top" xlink:title="MovementAndImageAPI.src.\lTurtleHandler.updateTurtleAbsolute\lLocation">
<polygon fill="white" stroke="black" points="378.5,0.5 378.5,-40.5 561.5,-40.5 561.5,0.5 378.5,0.5"/>
<text text-anchor="start" x="386.5" y="-28.5" font-family="Helvetica,sans-Serif" font-size="10.00">MovementAndImageAPI.src.</text>
<text text-anchor="start" x="386.5" y="-17.5" font-family="Helvetica,sans-Serif" font-size="10.00">TurtleHandler.updateTurtleAbsolute</text>
<text text-anchor="middle" x="470" y="-6.5" font-family="Helvetica,sans-Serif" font-size="10.00">Location</text>
</a>
</g>
</g>
<!-- Node3&#45;&gt;Node7 -->
<g id="edge6" class="edge"><title>Node3&#45;&gt;Node7</title>
<path fill="none" stroke="midnightblue" d="M351.126,-35.6778C360.165,-34.4756 369.381,-33.2498 378.479,-32.0398"/>
<polygon fill="midnightblue" stroke="midnightblue" points="350.464,-32.2349 341.013,-37.0229 351.387,-39.1738 350.464,-32.2349"/>
</g>
<!-- Node5 -->
<g id="node5" class="node"><title>Node5</title>
<g id="a_node5"><a xlink:href="../../d0/d4b/class_main.html#a9aab0955c478f8846fae079b0c56e8d3" target="_top" xlink:title="Main.addKeyboardControl">
<polygon fill="white" stroke="black" points="598.5,-64.5 598.5,-83.5 737.5,-83.5 737.5,-64.5 598.5,-64.5"/>
<text text-anchor="middle" x="668" y="-71.5" font-family="Helvetica,sans-Serif" font-size="10.00">Main.addKeyboardControl</text>
</a>
</g>
</g>
<!-- Node4&#45;&gt;Node5 -->
<g id="edge4" class="edge"><title>Node4&#45;&gt;Node5</title>
<path fill="none" stroke="midnightblue" d="M571.496,-74C580.57,-74 589.616,-74 598.322,-74"/>
<polygon fill="midnightblue" stroke="midnightblue" points="571.255,-70.5001 561.255,-74 571.255,-77.5001 571.255,-70.5001"/>
</g>
<!-- Node6 -->
<g id="node6" class="node"><title>Node6</title>
<g id="a_node6"><a xlink:href="../../d0/d4b/class_main.html#aaa75b38812324d0f17c89f139bde6ada" target="_top" xlink:title="Main.start">
<polygon fill="white" stroke="black" points="774.5,-64.5 774.5,-83.5 839.5,-83.5 839.5,-64.5 774.5,-64.5"/>
<text text-anchor="middle" x="807" y="-71.5" font-family="Helvetica,sans-Serif" font-size="10.00">Main.start</text>
</a>
</g>
</g>
<!-- Node5&#45;&gt;Node6 -->
<g id="edge5" class="edge"><title>Node5&#45;&gt;Node6</title>
<path fill="none" stroke="midnightblue" d="M748.059,-74C757.354,-74 766.384,-74 774.44,-74"/>
<polygon fill="midnightblue" stroke="midnightblue" points="747.901,-70.5001 737.901,-74 747.901,-77.5001 747.901,-70.5001"/>
</g>
</g>
</svg>
