<?xml version="1.0" encoding="UTF-8" standalone="no"?>
<!DOCTYPE svg PUBLIC "-//W3C//DTD SVG 1.1//EN"
 "http://www.w3.org/Graphics/SVG/1.1/DTD/svg11.dtd">
<!-- Generated by graphviz version 2.36.0 (20140111.2315)
 -->
<!-- Title: MovementAndImageAPI.src.Turtle.ensurePositiveOrientation Pages: 1 -->
<svg width="1094pt" height="146pt"
 viewBox="0.00 0.00 1094.00 146.00" xmlns="http://www.w3.org/2000/svg" xmlns:xlink="http://www.w3.org/1999/xlink">
<g id="graph0" class="graph" transform="scale(1 1) rotate(0) translate(4 142)">
<title>MovementAndImageAPI.src.Turtle.ensurePositiveOrientation</title>
<polygon fill="white" stroke="none" points="-4,4 -4,-142 1090,-142 1090,4 -4,4"/>
<!-- Node1 -->
<g id="node1" class="node"><title>Node1</title>
<polygon fill="#bfbfbf" stroke="black" points="0,-79 0,-109 168,-109 168,-79 0,-79"/>
<text text-anchor="start" x="8" y="-97" font-family="Helvetica,sans-Serif" font-size="10.00">MovementAndImageAPI.src.</text>
<text text-anchor="middle" x="84" y="-86" font-family="Helvetica,sans-Serif" font-size="10.00">Turtle.ensurePositiveOrientation</text>
</g>
<!-- Node2 -->
<g id="node2" class="node"><title>Node2</title>
<g id="a_node2"><a xlink:href="../../d7/d43/class_movement_and_image_a_p_i_1_1src_1_1_turtle.html#a79610d6c6d05b070331c32cee99d69a9" target="_top" xlink:title="MovementAndImageAPI.src.\lTurtle.finishRotation">
<polygon fill="white" stroke="black" points="204,-79 204,-109 356,-109 356,-79 204,-79"/>
<text text-anchor="start" x="212" y="-97" font-family="Helvetica,sans-Serif" font-size="10.00">MovementAndImageAPI.src.</text>
<text text-anchor="middle" x="280" y="-86" font-family="Helvetica,sans-Serif" font-size="10.00">Turtle.finishRotation</text>
</a>
</g>
</g>
<!-- Node1&#45;&gt;Node2 -->
<g id="edge1" class="edge"><title>Node1&#45;&gt;Node2</title>
<path fill="none" stroke="midnightblue" d="M178.147,-94C186.72,-94 195.333,-94 203.718,-94"/>
<polygon fill="midnightblue" stroke="midnightblue" points="178.118,-90.5001 168.118,-94 178.118,-97.5001 178.118,-90.5001"/>
</g>
<!-- Node3 -->
<g id="node3" class="node"><title>Node3</title>
<g id="a_node3"><a xlink:href="../../d7/d43/class_movement_and_image_a_p_i_1_1src_1_1_turtle.html#ad607139e3733cfdfc37a7c4388b4a907" target="_top" xlink:title="MovementAndImageAPI.src.\lTurtle.updateOrientation">
<polygon fill="white" stroke="black" points="403,-105 403,-135 555,-135 555,-105 403,-105"/>
<text text-anchor="start" x="411" y="-123" font-family="Helvetica,sans-Serif" font-size="10.00">MovementAndImageAPI.src.</text>
<text text-anchor="middle" x="479" y="-112" font-family="Helvetica,sans-Serif" font-size="10.00">Turtle.updateOrientation</text>
</a>
</g>
</g>
<!-- Node2&#45;&gt;Node3 -->
<g id="edge2" class="edge"><title>Node2&#45;&gt;Node3</title>
<path fill="none" stroke="midnightblue" d="M366.199,-105.245C378.392,-106.854 390.862,-108.5 402.843,-110.081"/>
<polygon fill="midnightblue" stroke="midnightblue" points="366.411,-101.742 356.039,-103.904 365.495,-108.682 366.411,-101.742"/>
</g>
<!-- Node7 -->
<g id="node7" class="node"><title>Node7</title>
<g id="a_node7"><a xlink:href="../../d7/d43/class_movement_and_image_a_p_i_1_1src_1_1_turtle.html#a0fcf334951cc9357c73e968707cab8d0" target="_top" xlink:title="MovementAndImageAPI.src.\lTurtle.updateAbsoluteOrientation">
<polygon fill="white" stroke="black" points="392,-54 392,-84 566,-84 566,-54 392,-54"/>
<text text-anchor="start" x="400" y="-72" font-family="Helvetica,sans-Serif" font-size="10.00">MovementAndImageAPI.src.</text>
<text text-anchor="middle" x="479" y="-61" font-family="Helvetica,sans-Serif" font-size="10.00">Turtle.updateAbsoluteOrientation</text>
</a>
</g>
</g>
<!-- Node2&#45;&gt;Node7 -->
<g id="edge6" class="edge"><title>Node2&#45;&gt;Node7</title>
<path fill="none" stroke="midnightblue" d="M366.044,-83.2077C374.634,-82.1175 383.364,-81.0097 391.965,-79.9182"/>
<polygon fill="midnightblue" stroke="midnightblue" points="365.519,-79.7461 356.039,-84.4773 366.4,-86.6904 365.519,-79.7461"/>
</g>
<!-- Node4 -->
<g id="node4" class="node"><title>Node4</title>
<g id="a_node4"><a xlink:href="../../d4/d0f/class_movement_and_image_a_p_i_1_1src_1_1_turtle_handler.html#af8be08b68068574b061f2e3a2f02c524" target="_top" xlink:title="MovementAndImageAPI.src.\lTurtleHandler.updateTurtleOrientation">
<polygon fill="white" stroke="black" points="602,-108 602,-138 796,-138 796,-108 602,-108"/>
<text text-anchor="start" x="610" y="-126" font-family="Helvetica,sans-Serif" font-size="10.00">MovementAndImageAPI.src.</text>
<text text-anchor="middle" x="699" y="-115" font-family="Helvetica,sans-Serif" font-size="10.00">TurtleHandler.updateTurtleOrientation</text>
</a>
</g>
</g>
<!-- Node3&#45;&gt;Node4 -->
<g id="edge3" class="edge"><title>Node3&#45;&gt;Node4</title>
<path fill="none" stroke="midnightblue" d="M565.368,-121.175C577.273,-121.339 589.574,-121.508 601.663,-121.674"/>
<polygon fill="midnightblue" stroke="midnightblue" points="565.07,-117.67 555.023,-121.032 564.974,-124.67 565.07,-117.67"/>
</g>
<!-- Node5 -->
<g id="node5" class="node"><title>Node5</title>
<g id="a_node5"><a xlink:href="../../d0/d4b/class_main.html#a9aab0955c478f8846fae079b0c56e8d3" target="_top" xlink:title="Main.addKeyboardControl">
<polygon fill="white" stroke="black" points="838.5,-113.5 838.5,-132.5 977.5,-132.5 977.5,-113.5 838.5,-113.5"/>
<text text-anchor="middle" x="908" y="-120.5" font-family="Helvetica,sans-Serif" font-size="10.00">Main.addKeyboardControl</text>
</a>
</g>
</g>
<!-- Node4&#45;&gt;Node5 -->
<g id="edge4" class="edge"><title>Node4&#45;&gt;Node5</title>
<path fill="none" stroke="midnightblue" d="M806.266,-123C817.199,-123 828.091,-123 838.454,-123"/>
<polygon fill="midnightblue" stroke="midnightblue" points="806.228,-119.5 796.228,-123 806.228,-126.5 806.228,-119.5"/>
</g>
<!-- Node6 -->
<g id="node6" class="node"><title>Node6</title>
<g id="a_node6"><a xlink:href="../../d0/d4b/class_main.html#aaa75b38812324d0f17c89f139bde6ada" target="_top" xlink:title="Main.start">
<polygon fill="white" stroke="black" points="1020.5,-113.5 1020.5,-132.5 1085.5,-132.5 1085.5,-113.5 1020.5,-113.5"/>
<text text-anchor="middle" x="1053" y="-120.5" font-family="Helvetica,sans-Serif" font-size="10.00">Main.start</text>
</a>
</g>
</g>
<!-- Node5&#45;&gt;Node6 -->
<g id="edge5" class="edge"><title>Node5&#45;&gt;Node6</title>
<path fill="none" stroke="midnightblue" d="M987.698,-123C999.186,-123 1010.42,-123 1020.21,-123"/>
<polygon fill="midnightblue" stroke="midnightblue" points="987.568,-119.5 977.568,-123 987.568,-126.5 987.568,-119.5"/>
</g>
<!-- Node8 -->
<g id="node8" class="node"><title>Node8</title>
<g id="a_node8"><a xlink:href="../../d4/d0f/class_movement_and_image_a_p_i_1_1src_1_1_turtle_handler.html#a24e9fb6ae5a522e3142b165eaa68e94f" target="_top" xlink:title="MovementAndImageAPI.src.\lTurtleHandler.updateTurtleAbsolute\lOrientation">
<polygon fill="white" stroke="black" points="607.5,-48.5 607.5,-89.5 790.5,-89.5 790.5,-48.5 607.5,-48.5"/>
<text text-anchor="start" x="615.5" y="-77.5" font-family="Helvetica,sans-Serif" font-size="10.00">MovementAndImageAPI.src.</text>
<text text-anchor="start" x="615.5" y="-66.5" font-family="Helvetica,sans-Serif" font-size="10.00">TurtleHandler.updateTurtleAbsolute</text>
<text text-anchor="middle" x="699" y="-55.5" font-family="Helvetica,sans-Serif" font-size="10.00">Orientation</text>
</a>
</g>
</g>
<!-- Node7&#45;&gt;Node8 -->
<g id="edge7" class="edge"><title>Node7&#45;&gt;Node8</title>
<path fill="none" stroke="midnightblue" d="M576.414,-69C586.733,-69 597.205,-69 607.452,-69"/>
<polygon fill="midnightblue" stroke="midnightblue" points="576.159,-65.5001 566.159,-69 576.159,-72.5001 576.159,-65.5001"/>
</g>
<!-- Node10 -->
<g id="node10" class="node"><title>Node10</title>
<g id="a_node10"><a xlink:href="../../d2/d23/class_movement_and_image_a_p_i_1_1src_1_1_turtle_test.html#a98b768bf3f706d1d322e3eabfcd78dfe" target="_top" xlink:title="MovementAndImageAPI.src.\lTurtleTest.testMovingDirections">
<polygon fill="white" stroke="black" points="617,-0 617,-30 781,-30 781,-0 617,-0"/>
<text text-anchor="start" x="625" y="-18" font-family="Helvetica,sans-Serif" font-size="10.00">MovementAndImageAPI.src.</text>
<text text-anchor="middle" x="699" y="-7" font-family="Helvetica,sans-Serif" font-size="10.00">TurtleTest.testMovingDirections</text>
</a>
</g>
</g>
<!-- Node7&#45;&gt;Node10 -->
<g id="edge9" class="edge"><title>Node7&#45;&gt;Node10</title>
<path fill="none" stroke="midnightblue" d="M550.443,-51.5507C578.418,-44.6213 610.282,-36.7284 637.223,-30.0549"/>
<polygon fill="midnightblue" stroke="midnightblue" points="549.59,-48.1562 540.725,-53.958 551.273,-54.9508 549.59,-48.1562"/>
</g>
<!-- Node9 -->
<g id="node9" class="node"><title>Node9</title>
<g id="a_node9"><a xlink:href="../../d4/d0f/class_movement_and_image_a_p_i_1_1src_1_1_turtle_handler.html#a95e798d7c5caefdc1472c01f1438adaa" target="_top" xlink:title="MovementAndImageAPI.src.\lTurtleHandler.towards">
<polygon fill="white" stroke="black" points="832,-54 832,-84 984,-84 984,-54 832,-54"/>
<text text-anchor="start" x="840" y="-72" font-family="Helvetica,sans-Serif" font-size="10.00">MovementAndImageAPI.src.</text>
<text text-anchor="middle" x="908" y="-61" font-family="Helvetica,sans-Serif" font-size="10.00">TurtleHandler.towards</text>
</a>
</g>
</g>
<!-- Node8&#45;&gt;Node9 -->
<g id="edge8" class="edge"><title>Node8&#45;&gt;Node9</title>
<path fill="none" stroke="midnightblue" d="M801.1,-69C811.432,-69 821.797,-69 831.781,-69"/>
<polygon fill="midnightblue" stroke="midnightblue" points="800.793,-65.5001 790.793,-69 800.793,-72.5001 800.793,-65.5001"/>
</g>
</g>
</svg>
