<?xml version="1.0" encoding="UTF-8" standalone="no"?>
<!DOCTYPE svg PUBLIC "-//W3C//DTD SVG 1.1//EN"
 "http://www.w3.org/Graphics/SVG/1.1/DTD/svg11.dtd">
<!-- Generated by graphviz version 2.36.0 (20140111.2315)
 -->
<!-- Title: MovementAndImageAPI.src.Turtle.updateOrientation Pages: 1 -->
<svg width="668pt" height="38pt"
 viewBox="0.00 0.00 668.00 38.00" xmlns="http://www.w3.org/2000/svg" xmlns:xlink="http://www.w3.org/1999/xlink">
<g id="graph0" class="graph" transform="scale(1 1) rotate(0) translate(4 34)">
<title>MovementAndImageAPI.src.Turtle.updateOrientation</title>
<polygon fill="white" stroke="none" points="-4,4 -4,-34 664,-34 664,4 -4,4"/>
<!-- Node1 -->
<g id="node1" class="node"><title>Node1</title>
<polygon fill="#bfbfbf" stroke="black" points="0,-0 0,-30 152,-30 152,-0 0,-0"/>
<text text-anchor="start" x="8" y="-18" font-family="Helvetica,sans-Serif" font-size="10.00">MovementAndImageAPI.src.</text>
<text text-anchor="middle" x="76" y="-7" font-family="Helvetica,sans-Serif" font-size="10.00">Turtle.updateOrientation</text>
</g>
<!-- Node2 -->
<g id="node2" class="node"><title>Node2</title>
<g id="a_node2"><a xlink:href="../../d4/d0f/class_movement_and_image_a_p_i_1_1src_1_1_turtle_handler.html#af8be08b68068574b061f2e3a2f02c524" target="_top" xlink:title="MovementAndImageAPI.src.\lTurtleHandler.updateTurtleOrientation">
<polygon fill="white" stroke="black" points="188,-0 188,-30 382,-30 382,-0 188,-0"/>
<text text-anchor="start" x="196" y="-18" font-family="Helvetica,sans-Serif" font-size="10.00">MovementAndImageAPI.src.</text>
<text text-anchor="middle" x="285" y="-7" font-family="Helvetica,sans-Serif" font-size="10.00">TurtleHandler.updateTurtleOrientation</text>
</a>
</g>
</g>
<!-- Node1&#45;&gt;Node2 -->
<g id="edge1" class="edge"><title>Node1&#45;&gt;Node2</title>
<path fill="none" stroke="midnightblue" d="M162.274,-15C170.759,-15 179.412,-15 187.996,-15"/>
<polygon fill="midnightblue" stroke="midnightblue" points="162.024,-11.5001 152.024,-15 162.024,-18.5001 162.024,-11.5001"/>
</g>
<!-- Node3 -->
<g id="node3" class="node"><title>Node3</title>
<g id="a_node3"><a xlink:href="../../d0/d4b/class_main.html#a9aab0955c478f8846fae079b0c56e8d3" target="_top" xlink:title="Main.addKeyboardControl">
<polygon fill="white" stroke="black" points="418.5,-5.5 418.5,-24.5 557.5,-24.5 557.5,-5.5 418.5,-5.5"/>
<text text-anchor="middle" x="488" y="-12.5" font-family="Helvetica,sans-Serif" font-size="10.00">Main.addKeyboardControl</text>
</a>
</g>
</g>
<!-- Node2&#45;&gt;Node3 -->
<g id="edge2" class="edge"><title>Node2&#45;&gt;Node3</title>
<path fill="none" stroke="midnightblue" d="M392.108,-15C400.977,-15 409.787,-15 418.262,-15"/>
<polygon fill="midnightblue" stroke="midnightblue" points="392.085,-11.5001 382.085,-15 392.085,-18.5001 392.085,-11.5001"/>
</g>
<!-- Node4 -->
<g id="node4" class="node"><title>Node4</title>
<g id="a_node4"><a xlink:href="../../d0/d4b/class_main.html#aaa75b38812324d0f17c89f139bde6ada" target="_top" xlink:title="Main.start">
<polygon fill="white" stroke="black" points="594.5,-5.5 594.5,-24.5 659.5,-24.5 659.5,-5.5 594.5,-5.5"/>
<text text-anchor="middle" x="627" y="-12.5" font-family="Helvetica,sans-Serif" font-size="10.00">Main.start</text>
</a>
</g>
</g>
<!-- Node3&#45;&gt;Node4 -->
<g id="edge3" class="edge"><title>Node3&#45;&gt;Node4</title>
<path fill="none" stroke="midnightblue" d="M568.059,-15C577.354,-15 586.384,-15 594.44,-15"/>
<polygon fill="midnightblue" stroke="midnightblue" points="567.901,-11.5001 557.901,-15 567.901,-18.5001 567.901,-11.5001"/>
</g>
</g>
</svg>
