<?xml version="1.0" encoding="UTF-8" standalone="no"?>
<!DOCTYPE svg PUBLIC "-//W3C//DTD SVG 1.1//EN"
 "http://www.w3.org/Graphics/SVG/1.1/DTD/svg11.dtd">
<!-- Generated by graphviz version 2.36.0 (20140111.2315)
 -->
<!-- Title: MovementAndImageAPI.src.Turtle.updateAbsoluteOrientation Pages: 1 -->
<svg width="590pt" height="97pt"
 viewBox="0.00 0.00 590.00 97.00" xmlns="http://www.w3.org/2000/svg" xmlns:xlink="http://www.w3.org/1999/xlink">
<g id="graph0" class="graph" transform="scale(1 1) rotate(0) translate(4 93)">
<title>MovementAndImageAPI.src.Turtle.updateAbsoluteOrientation</title>
<polygon fill="white" stroke="none" points="-4,4 -4,-93 586,-93 586,4 -4,4"/>
<!-- Node1 -->
<g id="node1" class="node"><title>Node1</title>
<polygon fill="#bfbfbf" stroke="black" points="0,-32 0,-62 174,-62 174,-32 0,-32"/>
<text text-anchor="start" x="8" y="-50" font-family="Helvetica,sans-Serif" font-size="10.00">MovementAndImageAPI.src.</text>
<text text-anchor="middle" x="87" y="-39" font-family="Helvetica,sans-Serif" font-size="10.00">Turtle.updateAbsoluteOrientation</text>
</g>
<!-- Node2 -->
<g id="node2" class="node"><title>Node2</title>
<g id="a_node2"><a xlink:href="../../d2/d23/class_movement_and_image_a_p_i_1_1src_1_1_turtle_test.html#a98b768bf3f706d1d322e3eabfcd78dfe" target="_top" xlink:title="MovementAndImageAPI.src.\lTurtleTest.testMovingDirections">
<polygon fill="white" stroke="black" points="220,-59 220,-89 384,-89 384,-59 220,-59"/>
<text text-anchor="start" x="228" y="-77" font-family="Helvetica,sans-Serif" font-size="10.00">MovementAndImageAPI.src.</text>
<text text-anchor="middle" x="302" y="-66" font-family="Helvetica,sans-Serif" font-size="10.00">TurtleTest.testMovingDirections</text>
</a>
</g>
</g>
<!-- Node1&#45;&gt;Node2 -->
<g id="edge1" class="edge"><title>Node1&#45;&gt;Node2</title>
<path fill="none" stroke="midnightblue" d="M184.016,-59.171C195.98,-60.6876 208.123,-62.2268 219.832,-63.7111"/>
<polygon fill="midnightblue" stroke="midnightblue" points="184.382,-55.6895 174.021,-57.9041 183.502,-62.634 184.382,-55.6895"/>
</g>
<!-- Node3 -->
<g id="node3" class="node"><title>Node3</title>
<g id="a_node3"><a xlink:href="../../d4/d0f/class_movement_and_image_a_p_i_1_1src_1_1_turtle_handler.html#a24e9fb6ae5a522e3142b165eaa68e94f" target="_top" xlink:title="MovementAndImageAPI.src.\lTurtleHandler.updateTurtleAbsolute\lOrientation">
<polygon fill="white" stroke="black" points="210.5,0.5 210.5,-40.5 393.5,-40.5 393.5,0.5 210.5,0.5"/>
<text text-anchor="start" x="218.5" y="-28.5" font-family="Helvetica,sans-Serif" font-size="10.00">MovementAndImageAPI.src.</text>
<text text-anchor="start" x="218.5" y="-17.5" font-family="Helvetica,sans-Serif" font-size="10.00">TurtleHandler.updateTurtleAbsolute</text>
<text text-anchor="middle" x="302" y="-6.5" font-family="Helvetica,sans-Serif" font-size="10.00">Orientation</text>
</a>
</g>
</g>
<!-- Node1&#45;&gt;Node3 -->
<g id="edge2" class="edge"><title>Node1&#45;&gt;Node3</title>
<path fill="none" stroke="midnightblue" d="M184.224,-34.8026C192.964,-33.6947 201.797,-32.575 210.485,-31.4737"/>
<polygon fill="midnightblue" stroke="midnightblue" points="183.502,-31.3661 174.021,-36.0959 184.382,-38.3105 183.502,-31.3661"/>
</g>
<!-- Node4 -->
<g id="node4" class="node"><title>Node4</title>
<g id="a_node4"><a xlink:href="../../d4/d0f/class_movement_and_image_a_p_i_1_1src_1_1_turtle_handler.html#a95e798d7c5caefdc1472c01f1438adaa" target="_top" xlink:title="MovementAndImageAPI.src.\lTurtleHandler.towards">
<polygon fill="white" stroke="black" points="430,-5 430,-35 582,-35 582,-5 430,-5"/>
<text text-anchor="start" x="438" y="-23" font-family="Helvetica,sans-Serif" font-size="10.00">MovementAndImageAPI.src.</text>
<text text-anchor="middle" x="506" y="-12" font-family="Helvetica,sans-Serif" font-size="10.00">TurtleHandler.towards</text>
</a>
</g>
</g>
<!-- Node3&#45;&gt;Node4 -->
<g id="edge3" class="edge"><title>Node3&#45;&gt;Node4</title>
<path fill="none" stroke="midnightblue" d="M403.868,-20C412.578,-20 421.289,-20 429.743,-20"/>
<polygon fill="midnightblue" stroke="midnightblue" points="403.66,-16.5001 393.66,-20 403.66,-23.5001 403.66,-16.5001"/>
</g>
</g>
</svg>
