<?xml version="1.0" encoding="UTF-8" standalone="no"?>
<!DOCTYPE svg PUBLIC "-//W3C//DTD SVG 1.1//EN"
 "http://www.w3.org/Graphics/SVG/1.1/DTD/svg11.dtd">
<!-- Generated by graphviz version 2.36.0 (20140111.2315)
 -->
<!-- Title: MovementAndImageAPI.src.Turtle.getPenPosition Pages: 1 -->
<svg width="536pt" height="38pt"
 viewBox="0.00 0.00 536.00 38.00" xmlns="http://www.w3.org/2000/svg" xmlns:xlink="http://www.w3.org/1999/xlink">
<g id="graph0" class="graph" transform="scale(1 1) rotate(0) translate(4 34)">
<title>MovementAndImageAPI.src.Turtle.getPenPosition</title>
<polygon fill="white" stroke="none" points="-4,4 -4,-34 532,-34 532,4 -4,4"/>
<!-- Node1 -->
<g id="node1" class="node"><title>Node1</title>
<polygon fill="#bfbfbf" stroke="black" points="0,-0 0,-30 152,-30 152,-0 0,-0"/>
<text text-anchor="start" x="8" y="-18" font-family="Helvetica,sans-Serif" font-size="10.00">MovementAndImageAPI.src.</text>
<text text-anchor="middle" x="76" y="-7" font-family="Helvetica,sans-Serif" font-size="10.00">Turtle.getPenPosition</text>
</g>
<!-- Node2 -->
<g id="node2" class="node"><title>Node2</title>
<g id="a_node2"><a xlink:href="../../da/d8f/class_movement_and_image_a_p_i_1_1src_1_1_pen_handler.html#ad3f35e8b9605bde22fcbb5bc3e15cbf5" target="_top" xlink:title="MovementAndImageAPI.src.\lPenHandler.getPenPosition">
<polygon fill="white" stroke="black" points="188,-0 188,-30 340,-30 340,-0 188,-0"/>
<text text-anchor="start" x="196" y="-18" font-family="Helvetica,sans-Serif" font-size="10.00">MovementAndImageAPI.src.</text>
<text text-anchor="middle" x="264" y="-7" font-family="Helvetica,sans-Serif" font-size="10.00">PenHandler.getPenPosition</text>
</a>
</g>
</g>
<!-- Node1&#45;&gt;Node2 -->
<g id="edge1" class="edge"><title>Node1&#45;&gt;Node2</title>
<path fill="none" stroke="midnightblue" d="M152.117,-15C160.596,-15 169.281,-15 177.875,-15"/>
<polygon fill="midnightblue" stroke="midnightblue" points="177.905,-18.5001 187.905,-15 177.905,-11.5001 177.905,-18.5001"/>
</g>
<!-- Node3 -->
<g id="node3" class="node"><title>Node3</title>
<g id="a_node3"><a xlink:href="../../d2/d78/class_movement_and_image_a_p_i_1_1src_1_1_pen.html#a3f3cdbaef2a7328e6051567cc29975fb" target="_top" xlink:title="MovementAndImageAPI.src.\lPen.getPenPosition">
<polygon fill="white" stroke="black" points="376,-0 376,-30 528,-30 528,-0 376,-0"/>
<text text-anchor="start" x="384" y="-18" font-family="Helvetica,sans-Serif" font-size="10.00">MovementAndImageAPI.src.</text>
<text text-anchor="middle" x="452" y="-7" font-family="Helvetica,sans-Serif" font-size="10.00">Pen.getPenPosition</text>
</a>
</g>
</g>
<!-- Node2&#45;&gt;Node3 -->
<g id="edge2" class="edge"><title>Node2&#45;&gt;Node3</title>
<path fill="none" stroke="midnightblue" d="M340.117,-15C348.596,-15 357.281,-15 365.875,-15"/>
<polygon fill="midnightblue" stroke="midnightblue" points="365.905,-18.5001 375.905,-15 365.905,-11.5001 365.905,-18.5001"/>
</g>
</g>
</svg>
