<?xml version="1.0" encoding="UTF-8" standalone="no"?>
<!DOCTYPE svg PUBLIC "-//W3C//DTD SVG 1.1//EN"
 "http://www.w3.org/Graphics/SVG/1.1/DTD/svg11.dtd">
<!-- Generated by graphviz version 2.36.0 (20140111.2315)
 -->
<!-- Title: MovementAndImageAPI.src.Turtle.updateImage Pages: 1 -->
<svg width="1018pt" height="60pt"
 viewBox="0.00 0.00 1018.00 60.00" xmlns="http://www.w3.org/2000/svg" xmlns:xlink="http://www.w3.org/1999/xlink">
<g id="graph0" class="graph" transform="scale(1 1) rotate(0) translate(4 56)">
<title>MovementAndImageAPI.src.Turtle.updateImage</title>
<polygon fill="white" stroke="none" points="-4,4 -4,-56 1014,-56 1014,4 -4,4"/>
<!-- Node1 -->
<g id="node1" class="node"><title>Node1</title>
<polygon fill="#bfbfbf" stroke="black" points="0,-0 0,-30 152,-30 152,-0 0,-0"/>
<text text-anchor="start" x="8" y="-18" font-family="Helvetica,sans-Serif" font-size="10.00">MovementAndImageAPI.src.</text>
<text text-anchor="middle" x="76" y="-7" font-family="Helvetica,sans-Serif" font-size="10.00">Turtle.updateImage</text>
</g>
<!-- Node2 -->
<g id="node2" class="node"><title>Node2</title>
<g id="a_node2"><a xlink:href="../../d4/d0f/class_movement_and_image_a_p_i_1_1src_1_1_turtle_handler.html#ae7bd62e67c6a572a4efef91176eb370e" target="_top" xlink:title="MovementAndImageAPI.src.\lTurtleHandler.updateImage">
<polygon fill="white" stroke="black" points="188,-0 188,-30 340,-30 340,-0 188,-0"/>
<text text-anchor="start" x="196" y="-18" font-family="Helvetica,sans-Serif" font-size="10.00">MovementAndImageAPI.src.</text>
<text text-anchor="middle" x="264" y="-7" font-family="Helvetica,sans-Serif" font-size="10.00">TurtleHandler.updateImage</text>
</a>
</g>
</g>
<!-- Node1&#45;&gt;Node2 -->
<g id="edge1" class="edge"><title>Node1&#45;&gt;Node2</title>
<path fill="none" stroke="midnightblue" d="M162.147,-15C170.742,-15 179.426,-15 187.905,-15"/>
<polygon fill="midnightblue" stroke="midnightblue" points="162.117,-11.5001 152.117,-15 162.117,-18.5001 162.117,-11.5001"/>
</g>
<!-- Node3 -->
<g id="node3" class="node"><title>Node3</title>
<g id="a_node3"><a xlink:href="../../d7/daa/class_turtle_chooser_feature.html#a46a2a59cd3e594dff7798d6a31cb5c9c" target="_top" xlink:title="TurtleChooserFeature.open\lTurtleChooser">
<polygon fill="white" stroke="black" points="376.5,-22 376.5,-52 521.5,-52 521.5,-22 376.5,-22"/>
<text text-anchor="start" x="384.5" y="-40" font-family="Helvetica,sans-Serif" font-size="10.00">TurtleChooserFeature.open</text>
<text text-anchor="middle" x="449" y="-29" font-family="Helvetica,sans-Serif" font-size="10.00">TurtleChooser</text>
</a>
</g>
</g>
<!-- Node2&#45;&gt;Node3 -->
<g id="edge2" class="edge"><title>Node2&#45;&gt;Node3</title>
<path fill="none" stroke="midnightblue" d="M350.362,-25.262C359.041,-26.3055 367.795,-27.3578 376.308,-28.3813"/>
<polygon fill="midnightblue" stroke="midnightblue" points="350.572,-21.7622 340.225,-24.0435 349.736,-28.7121 350.572,-21.7622"/>
</g>
<!-- Node5 -->
<g id="node5" class="node"><title>Node5</title>
<g id="a_node5"><a xlink:href="../../d5/d56/class_workspace.html#a429d535dfd8427637b7715f0b1e1df1b" target="_top" xlink:title="Workspace.createWorkspace">
<polygon fill="white" stroke="black" points="756,-3.5 756,-22.5 908,-22.5 908,-3.5 756,-3.5"/>
<text text-anchor="middle" x="832" y="-10.5" font-family="Helvetica,sans-Serif" font-size="10.00">Workspace.createWorkspace</text>
</a>
</g>
</g>
<!-- Node2&#45;&gt;Node5 -->
<g id="edge6" class="edge"><title>Node2&#45;&gt;Node5</title>
<path fill="none" stroke="midnightblue" d="M350.367,-12.4597C359.025,-12.2719 367.687,-12.1123 376,-12 509.684,-10.1938 665.481,-11.213 755.719,-12.1111"/>
<polygon fill="midnightblue" stroke="midnightblue" points="350.144,-8.9638 340.227,-12.6919 350.305,-15.962 350.144,-8.9638"/>
</g>
<!-- Node4 -->
<g id="node4" class="node"><title>Node4</title>
<g id="a_node4"><a xlink:href="../../d5/d56/class_workspace.html#a6babd032d9af86fbc23812272d59a2d2" target="_top" xlink:title="Workspace.addFeatureButtons">
<polygon fill="white" stroke="black" points="558,-24.5 558,-43.5 720,-43.5 720,-24.5 558,-24.5"/>
<text text-anchor="middle" x="639" y="-31.5" font-family="Helvetica,sans-Serif" font-size="10.00">Workspace.addFeatureButtons</text>
</a>
</g>
</g>
<!-- Node3&#45;&gt;Node4 -->
<g id="edge3" class="edge"><title>Node3&#45;&gt;Node4</title>
<path fill="none" stroke="midnightblue" d="M531.693,-35.6964C540.353,-35.5582 549.154,-35.4178 557.796,-35.2798"/>
<polygon fill="midnightblue" stroke="midnightblue" points="531.554,-32.1981 521.611,-35.8573 531.666,-39.1972 531.554,-32.1981"/>
</g>
<!-- Node4&#45;&gt;Node5 -->
<g id="edge4" class="edge"><title>Node4&#45;&gt;Node5</title>
<path fill="none" stroke="midnightblue" d="M730.223,-24.0802C738.822,-23.1348 747.479,-22.183 755.912,-21.2557"/>
<polygon fill="midnightblue" stroke="midnightblue" points="729.729,-20.6134 720.171,-25.1854 730.494,-27.5714 729.729,-20.6134"/>
</g>
<!-- Node6 -->
<g id="node6" class="node"><title>Node6</title>
<g id="a_node6"><a xlink:href="../../d0/d4b/class_main.html#aaa75b38812324d0f17c89f139bde6ada" target="_top" xlink:title="Main.start">
<polygon fill="white" stroke="black" points="944.5,-3.5 944.5,-22.5 1009.5,-22.5 1009.5,-3.5 944.5,-3.5"/>
<text text-anchor="middle" x="977" y="-10.5" font-family="Helvetica,sans-Serif" font-size="10.00">Main.start</text>
</a>
</g>
</g>
<!-- Node5&#45;&gt;Node6 -->
<g id="edge5" class="edge"><title>Node5&#45;&gt;Node6</title>
<path fill="none" stroke="midnightblue" d="M918.392,-13C927.632,-13 936.551,-13 944.498,-13"/>
<polygon fill="midnightblue" stroke="midnightblue" points="918.269,-9.5001 908.269,-13 918.269,-16.5001 918.269,-9.5001"/>
</g>
</g>
</svg>
