<?xml version="1.0" encoding="UTF-8" standalone="no"?>
<!DOCTYPE svg PUBLIC "-//W3C//DTD SVG 1.1//EN"
 "http://www.w3.org/Graphics/SVG/1.1/DTD/svg11.dtd">
<!-- Generated by graphviz version 2.36.0 (20140111.2315)
 -->
<!-- Title: MovementAndImageAPI.src.Turtle.getPoint Pages: 1 -->
<svg width="1262pt" height="451pt"
 viewBox="0.00 0.00 1262.00 450.88" xmlns="http://www.w3.org/2000/svg" xmlns:xlink="http://www.w3.org/1999/xlink">
<g id="graph0" class="graph" transform="scale(1 1) rotate(0) translate(4 446.875)">
<title>MovementAndImageAPI.src.Turtle.getPoint</title>
<polygon fill="white" stroke="none" points="-4,4 -4,-446.875 1258,-446.875 1258,4 -4,4"/>
<!-- Node1 -->
<g id="node1" class="node"><title>Node1</title>
<polygon fill="#bfbfbf" stroke="black" points="0,-212 0,-242 152,-242 152,-212 0,-212"/>
<text text-anchor="start" x="8" y="-230" font-family="Helvetica,sans-Serif" font-size="10.00">MovementAndImageAPI.src.</text>
<text text-anchor="middle" x="76" y="-219" font-family="Helvetica,sans-Serif" font-size="10.00">Turtle.getPoint</text>
</g>
<!-- Node2 -->
<g id="node2" class="node"><title>Node2</title>
<g id="a_node2"><a xlink:href="../../d4/d0f/class_movement_and_image_a_p_i_1_1src_1_1_turtle_handler.html#a183d009af1948557ada7fabffccedd72" target="_top" xlink:title="MovementAndImageAPI.src.\lTurtleHandler.getTurtleLocation">
<polygon fill="white" stroke="black" points="203,-98 203,-128 367,-128 367,-98 203,-98"/>
<text text-anchor="start" x="211" y="-116" font-family="Helvetica,sans-Serif" font-size="10.00">MovementAndImageAPI.src.</text>
<text text-anchor="middle" x="285" y="-105" font-family="Helvetica,sans-Serif" font-size="10.00">TurtleHandler.getTurtleLocation</text>
</a>
</g>
</g>
<!-- Node1&#45;&gt;Node2 -->
<g id="edge1" class="edge"><title>Node1&#45;&gt;Node2</title>
<path fill="none" stroke="midnightblue" d="M98.4272,-204.74C119.407,-184.214 153.208,-154.374 188,-137 194.84,-133.585 202.202,-130.631 209.699,-128.083"/>
<polygon fill="midnightblue" stroke="midnightblue" points="95.914,-202.304 91.2999,-211.841 100.854,-207.263 95.914,-202.304"/>
</g>
<!-- Node8 -->
<g id="node8" class="node"><title>Node8</title>
<g id="a_node8"><a xlink:href="../../d4/d0f/class_movement_and_image_a_p_i_1_1src_1_1_turtle_handler.html#a2ea695e787018d10ea88d4b9a15c8f2a" target="_top" xlink:title="MovementAndImageAPI.src.\lTurtleHandler.getTurtleLocation\lInCanvas">
<polygon fill="white" stroke="black" points="203,-363.5 203,-404.5 367,-404.5 367,-363.5 203,-363.5"/>
<text text-anchor="start" x="211" y="-392.5" font-family="Helvetica,sans-Serif" font-size="10.00">MovementAndImageAPI.src.</text>
<text text-anchor="start" x="211" y="-381.5" font-family="Helvetica,sans-Serif" font-size="10.00">TurtleHandler.getTurtleLocation</text>
<text text-anchor="middle" x="285" y="-370.5" font-family="Helvetica,sans-Serif" font-size="10.00">InCanvas</text>
</a>
</g>
</g>
<!-- Node1&#45;&gt;Node8 -->
<g id="edge7" class="edge"><title>Node1&#45;&gt;Node8</title>
<path fill="none" stroke="midnightblue" d="M91.8635,-250.891C110.807,-279.429 146.164,-326.727 188,-354 193.412,-357.528 199.265,-360.663 205.319,-363.445"/>
<polygon fill="midnightblue" stroke="midnightblue" points="94.6862,-248.811 86.3023,-242.333 88.8167,-252.625 94.6862,-248.811"/>
</g>
<!-- Node10 -->
<g id="node10" class="node"><title>Node10</title>
<g id="a_node10"><a xlink:href="../../d4/d0f/class_movement_and_image_a_p_i_1_1src_1_1_turtle_handler.html#a6b47711dbbda0e84e5228414a8dd8aa5" target="_top" xlink:title="MovementAndImageAPI.src.\lTurtleHandler.showTurtle">
<polygon fill="white" stroke="black" points="209,-315 209,-345 361,-345 361,-315 209,-315"/>
<text text-anchor="start" x="217" y="-333" font-family="Helvetica,sans-Serif" font-size="10.00">MovementAndImageAPI.src.</text>
<text text-anchor="middle" x="285" y="-322" font-family="Helvetica,sans-Serif" font-size="10.00">TurtleHandler.showTurtle</text>
</a>
</g>
</g>
<!-- Node1&#45;&gt;Node10 -->
<g id="edge9" class="edge"><title>Node1&#45;&gt;Node10</title>
<path fill="none" stroke="midnightblue" d="M102.19,-248.691C123.692,-266.187 156.113,-290.235 188,-305 196.205,-308.799 205.082,-312.092 214.01,-314.925"/>
<polygon fill="midnightblue" stroke="midnightblue" points="104.167,-245.785 94.231,-242.108 99.7053,-251.179 104.167,-245.785"/>
</g>
<!-- Node11 -->
<g id="node11" class="node"><title>Node11</title>
<g id="a_node11"><a xlink:href="../../d2/d23/class_movement_and_image_a_p_i_1_1src_1_1_turtle_test.html#a98b768bf3f706d1d322e3eabfcd78dfe" target="_top" xlink:title="MovementAndImageAPI.src.\lTurtleTest.testMovingDirections">
<polygon fill="white" stroke="black" points="203,-266 203,-296 367,-296 367,-266 203,-266"/>
<text text-anchor="start" x="211" y="-284" font-family="Helvetica,sans-Serif" font-size="10.00">MovementAndImageAPI.src.</text>
<text text-anchor="middle" x="285" y="-273" font-family="Helvetica,sans-Serif" font-size="10.00">TurtleTest.testMovingDirections</text>
</a>
</g>
</g>
<!-- Node1&#45;&gt;Node11 -->
<g id="edge10" class="edge"><title>Node1&#45;&gt;Node11</title>
<path fill="none" stroke="midnightblue" d="M144.428,-244.625C158.808,-248.382 173.907,-252.324 188,-256 200.332,-259.217 213.556,-262.663 226.126,-265.937"/>
<polygon fill="midnightblue" stroke="midnightblue" points="145.169,-241.202 134.609,-242.06 143.399,-247.974 145.169,-241.202"/>
</g>
<!-- Node12 -->
<g id="node12" class="node"><title>Node12</title>
<g id="a_node12"><a xlink:href="../../d4/d0f/class_movement_and_image_a_p_i_1_1src_1_1_turtle_handler.html#ae7bd62e67c6a572a4efef91176eb370e" target="_top" xlink:title="MovementAndImageAPI.src.\lTurtleHandler.updateImage">
<polygon fill="white" stroke="black" points="421,-261 421,-291 573,-291 573,-261 421,-261"/>
<text text-anchor="start" x="429" y="-279" font-family="Helvetica,sans-Serif" font-size="10.00">MovementAndImageAPI.src.</text>
<text text-anchor="middle" x="497" y="-268" font-family="Helvetica,sans-Serif" font-size="10.00">TurtleHandler.updateImage</text>
</a>
</g>
</g>
<!-- Node1&#45;&gt;Node12 -->
<g id="edge11" class="edge"><title>Node1&#45;&gt;Node12</title>
<path fill="none" stroke="midnightblue" d="M83.3093,-251.968C95.4556,-294.09 126.501,-378.083 188,-413 262.98,-455.571 303.931,-449.6 382,-413 436.632,-387.388 474.18,-321.305 488.972,-291.266"/>
<polygon fill="midnightblue" stroke="midnightblue" points="86.653,-250.927 80.6215,-242.217 79.9047,-252.788 86.653,-250.927"/>
</g>
<!-- Node14 -->
<g id="node14" class="node"><title>Node14</title>
<g id="a_node14"><a xlink:href="../../d4/d0f/class_movement_and_image_a_p_i_1_1src_1_1_turtle_handler.html#a508472221e2ec6de1f1fae9b04a661c4" target="_top" xlink:title="MovementAndImageAPI.src.\lTurtleHandler.updateTurtleAbsolute\lLocation">
<polygon fill="white" stroke="black" points="193.5,-146.5 193.5,-187.5 376.5,-187.5 376.5,-146.5 193.5,-146.5"/>
<text text-anchor="start" x="201.5" y="-175.5" font-family="Helvetica,sans-Serif" font-size="10.00">MovementAndImageAPI.src.</text>
<text text-anchor="start" x="201.5" y="-164.5" font-family="Helvetica,sans-Serif" font-size="10.00">TurtleHandler.updateTurtleAbsolute</text>
<text text-anchor="middle" x="285" y="-153.5" font-family="Helvetica,sans-Serif" font-size="10.00">Location</text>
</a>
</g>
</g>
<!-- Node1&#45;&gt;Node14 -->
<g id="edge15" class="edge"><title>Node1&#45;&gt;Node14</title>
<path fill="none" stroke="midnightblue" d="M138.779,-209.093C162.201,-202.304 189.048,-194.522 213.236,-187.511"/>
<polygon fill="midnightblue" stroke="midnightblue" points="137.598,-205.791 128.968,-211.937 139.547,-212.515 137.598,-205.791"/>
</g>
<!-- Node15 -->
<g id="node15" class="node"><title>Node15</title>
<g id="a_node15"><a xlink:href="../../d4/d0f/class_movement_and_image_a_p_i_1_1src_1_1_turtle_handler.html#a24e9fb6ae5a522e3142b165eaa68e94f" target="_top" xlink:title="MovementAndImageAPI.src.\lTurtleHandler.updateTurtleAbsolute\lOrientation">
<polygon fill="white" stroke="black" points="193.5,-206.5 193.5,-247.5 376.5,-247.5 376.5,-206.5 193.5,-206.5"/>
<text text-anchor="start" x="201.5" y="-235.5" font-family="Helvetica,sans-Serif" font-size="10.00">MovementAndImageAPI.src.</text>
<text text-anchor="start" x="201.5" y="-224.5" font-family="Helvetica,sans-Serif" font-size="10.00">TurtleHandler.updateTurtleAbsolute</text>
<text text-anchor="middle" x="285" y="-213.5" font-family="Helvetica,sans-Serif" font-size="10.00">Orientation</text>
</a>
</g>
</g>
<!-- Node1&#45;&gt;Node15 -->
<g id="edge16" class="edge"><title>Node1&#45;&gt;Node15</title>
<path fill="none" stroke="midnightblue" d="M162.205,-227C172.484,-227 183.011,-227 193.364,-227"/>
<polygon fill="midnightblue" stroke="midnightblue" points="162.024,-223.5 152.024,-227 162.024,-230.5 162.024,-223.5"/>
</g>
<!-- Node16 -->
<g id="node16" class="node"><title>Node16</title>
<g id="a_node16"><a xlink:href="../../d4/d0f/class_movement_and_image_a_p_i_1_1src_1_1_turtle_handler.html#a47aab93cef3fa6ddcebacd40db48090b" target="_top" xlink:title="MovementAndImageAPI.src.\lTurtleHandler.updateTurtleLocation">
<polygon fill="white" stroke="black" points="194,-0 194,-30 376,-30 376,-0 194,-0"/>
<text text-anchor="start" x="202" y="-18" font-family="Helvetica,sans-Serif" font-size="10.00">MovementAndImageAPI.src.</text>
<text text-anchor="middle" x="285" y="-7" font-family="Helvetica,sans-Serif" font-size="10.00">TurtleHandler.updateTurtleLocation</text>
</a>
</g>
</g>
<!-- Node1&#45;&gt;Node16 -->
<g id="edge18" class="edge"><title>Node1&#45;&gt;Node16</title>
<path fill="none" stroke="midnightblue" d="M84.6234,-202.163C98.4064,-161.551 131.417,-81.2354 188,-39 192.543,-35.6088 197.51,-32.6931 202.717,-30.1867"/>
<polygon fill="midnightblue" stroke="midnightblue" points="81.2487,-201.222 81.4583,-211.815 87.9001,-203.404 81.2487,-201.222"/>
</g>
<!-- Node18 -->
<g id="node18" class="node"><title>Node18</title>
<g id="a_node18"><a xlink:href="../../d4/d0f/class_movement_and_image_a_p_i_1_1src_1_1_turtle_handler.html#af8be08b68068574b061f2e3a2f02c524" target="_top" xlink:title="MovementAndImageAPI.src.\lTurtleHandler.updateTurtleOrientation">
<polygon fill="white" stroke="black" points="188,-49 188,-79 382,-79 382,-49 188,-49"/>
<text text-anchor="start" x="196" y="-67" font-family="Helvetica,sans-Serif" font-size="10.00">MovementAndImageAPI.src.</text>
<text text-anchor="middle" x="285" y="-56" font-family="Helvetica,sans-Serif" font-size="10.00">TurtleHandler.updateTurtleOrientation</text>
</a>
</g>
</g>
<!-- Node1&#45;&gt;Node18 -->
<g id="edge21" class="edge"><title>Node1&#45;&gt;Node18</title>
<path fill="none" stroke="midnightblue" d="M89.677,-202.781C107.392,-171.379 142.553,-117.192 188,-88 193.348,-84.5647 199.156,-81.6211 205.178,-79.0988"/>
<polygon fill="midnightblue" stroke="midnightblue" points="86.5009,-201.293 84.7471,-211.741 92.634,-204.667 86.5009,-201.293"/>
</g>
<!-- Node3 -->
<g id="node3" class="node"><title>Node3</title>
<g id="a_node3"><a xlink:href="../../d5/d6a/class_turtle_data_feature.html#a3dd3f16c3c168151bc57be68684dfc50" target="_top" xlink:title="TurtleDataFeature.showStage">
<polygon fill="white" stroke="black" points="418.5,-107.5 418.5,-126.5 575.5,-126.5 575.5,-107.5 418.5,-107.5"/>
<text text-anchor="middle" x="497" y="-114.5" font-family="Helvetica,sans-Serif" font-size="10.00">TurtleDataFeature.showStage</text>
</a>
</g>
</g>
<!-- Node2&#45;&gt;Node3 -->
<g id="edge2" class="edge"><title>Node2&#45;&gt;Node3</title>
<path fill="none" stroke="midnightblue" d="M377.551,-114.744C391.198,-115.004 405.152,-115.27 418.473,-115.523"/>
<polygon fill="midnightblue" stroke="midnightblue" points="377.256,-111.238 367.191,-114.547 377.123,-118.236 377.256,-111.238"/>
</g>
<!-- Node4 -->
<g id="node4" class="node"><title>Node4</title>
<g id="a_node4"><a xlink:href="../../d5/d6a/class_turtle_data_feature.html#ae0a4f267c19fdd44c1ae9128f2de41e1" target="_top" xlink:title="TurtleDataFeature.openTurtle\lDataPage">
<polygon fill="white" stroke="black" points="612,-137 612,-167 766,-167 766,-137 612,-137"/>
<text text-anchor="start" x="620" y="-155" font-family="Helvetica,sans-Serif" font-size="10.00">TurtleDataFeature.openTurtle</text>
<text text-anchor="middle" x="689" y="-144" font-family="Helvetica,sans-Serif" font-size="10.00">DataPage</text>
</a>
</g>
</g>
<!-- Node3&#45;&gt;Node4 -->
<g id="edge3" class="edge"><title>Node3&#45;&gt;Node4</title>
<path fill="none" stroke="midnightblue" d="M559.769,-128.379C576.348,-131.433 594.472,-134.771 611.737,-137.951"/>
<polygon fill="midnightblue" stroke="midnightblue" points="560.136,-124.887 549.667,-126.518 558.868,-131.771 560.136,-124.887"/>
</g>
<!-- Node5 -->
<g id="node5" class="node"><title>Node5</title>
<g id="a_node5"><a xlink:href="../../d5/d56/class_workspace.html#a6babd032d9af86fbc23812272d59a2d2" target="_top" xlink:title="Workspace.addFeatureButtons">
<polygon fill="white" stroke="black" points="802,-175.5 802,-194.5 964,-194.5 964,-175.5 802,-175.5"/>
<text text-anchor="middle" x="883" y="-182.5" font-family="Helvetica,sans-Serif" font-size="10.00">Workspace.addFeatureButtons</text>
</a>
</g>
</g>
<!-- Node4&#45;&gt;Node5 -->
<g id="edge4" class="edge"><title>Node4&#45;&gt;Node5</title>
<path fill="none" stroke="midnightblue" d="M776.187,-166.813C793.329,-169.76 810.894,-172.779 826.662,-175.489"/>
<polygon fill="midnightblue" stroke="midnightblue" points="776.608,-163.334 766.159,-165.09 775.422,-170.233 776.608,-163.334"/>
</g>
<!-- Node6 -->
<g id="node6" class="node"><title>Node6</title>
<g id="a_node6"><a xlink:href="../../d5/d56/class_workspace.html#a429d535dfd8427637b7715f0b1e1df1b" target="_top" xlink:title="Workspace.createWorkspace">
<polygon fill="white" stroke="black" points="1000,-175.5 1000,-194.5 1152,-194.5 1152,-175.5 1000,-175.5"/>
<text text-anchor="middle" x="1076" y="-182.5" font-family="Helvetica,sans-Serif" font-size="10.00">Workspace.createWorkspace</text>
</a>
</g>
</g>
<!-- Node5&#45;&gt;Node6 -->
<g id="edge5" class="edge"><title>Node5&#45;&gt;Node6</title>
<path fill="none" stroke="midnightblue" d="M974.223,-185C982.822,-185 991.479,-185 999.912,-185"/>
<polygon fill="midnightblue" stroke="midnightblue" points="974.171,-181.5 964.171,-185 974.171,-188.5 974.171,-181.5"/>
</g>
<!-- Node7 -->
<g id="node7" class="node"><title>Node7</title>
<g id="a_node7"><a xlink:href="../../d0/d4b/class_main.html#aaa75b38812324d0f17c89f139bde6ada" target="_top" xlink:title="Main.start">
<polygon fill="white" stroke="black" points="1188.5,-126.5 1188.5,-145.5 1253.5,-145.5 1253.5,-126.5 1188.5,-126.5"/>
<text text-anchor="middle" x="1221" y="-133.5" font-family="Helvetica,sans-Serif" font-size="10.00">Main.start</text>
</a>
</g>
</g>
<!-- Node6&#45;&gt;Node7 -->
<g id="edge6" class="edge"><title>Node6&#45;&gt;Node7</title>
<path fill="none" stroke="midnightblue" d="M1114.54,-172.138C1138.87,-163.801 1170.03,-153.122 1192.16,-145.54"/>
<polygon fill="midnightblue" stroke="midnightblue" points="1113.24,-168.883 1104.91,-175.436 1115.51,-175.505 1113.24,-168.883"/>
</g>
<!-- Node9 -->
<g id="node9" class="node"><title>Node9</title>
<g id="a_node9"><a xlink:href="../../d4/d0f/class_movement_and_image_a_p_i_1_1src_1_1_turtle_handler.html#a95e798d7c5caefdc1472c01f1438adaa" target="_top" xlink:title="MovementAndImageAPI.src.\lTurtleHandler.towards">
<polygon fill="white" stroke="black" points="421,-212 421,-242 573,-242 573,-212 421,-212"/>
<text text-anchor="start" x="429" y="-230" font-family="Helvetica,sans-Serif" font-size="10.00">MovementAndImageAPI.src.</text>
<text text-anchor="middle" x="497" y="-219" font-family="Helvetica,sans-Serif" font-size="10.00">TurtleHandler.towards</text>
</a>
</g>
</g>
<!-- Node8&#45;&gt;Node9 -->
<g id="edge8" class="edge"><title>Node8&#45;&gt;Node9</title>
<path fill="none" stroke="midnightblue" d="M375.914,-359.239C378.043,-357.603 380.078,-355.859 382,-354 416.857,-320.287 383.069,-284.637 418,-251 421.572,-247.56 425.625,-244.613 429.961,-242.087"/>
<polygon fill="midnightblue" stroke="midnightblue" points="373.639,-356.55 367.286,-365.028 377.54,-362.363 373.639,-356.55"/>
</g>
<!-- Node12&#45;&gt;Node6 -->
<g id="edge14" class="edge"><title>Node12&#45;&gt;Node6</title>
<path fill="none" stroke="midnightblue" d="M583.236,-266.426C635.986,-260.194 705.047,-251.481 766,-242 859.252,-227.496 967.582,-206.564 1028.03,-194.516"/>
<polygon fill="midnightblue" stroke="midnightblue" points="582.77,-262.957 573.247,-267.6 583.587,-269.909 582.77,-262.957"/>
</g>
<!-- Node13 -->
<g id="node13" class="node"><title>Node13</title>
<g id="a_node13"><a xlink:href="../../d7/daa/class_turtle_chooser_feature.html#a46a2a59cd3e594dff7798d6a31cb5c9c" target="_top" xlink:title="TurtleChooserFeature.open\lTurtleChooser">
<polygon fill="white" stroke="black" points="616.5,-203 616.5,-233 761.5,-233 761.5,-203 616.5,-203"/>
<text text-anchor="start" x="624.5" y="-221" font-family="Helvetica,sans-Serif" font-size="10.00">TurtleChooserFeature.open</text>
<text text-anchor="middle" x="689" y="-210" font-family="Helvetica,sans-Serif" font-size="10.00">TurtleChooser</text>
</a>
</g>
</g>
<!-- Node12&#45;&gt;Node13 -->
<g id="edge12" class="edge"><title>Node12&#45;&gt;Node13</title>
<path fill="none" stroke="midnightblue" d="M557.239,-257.916C583.444,-249.917 613.9,-240.62 638.823,-233.012"/>
<polygon fill="midnightblue" stroke="midnightblue" points="555.967,-254.645 547.424,-260.913 558.01,-261.34 555.967,-254.645"/>
</g>
<!-- Node13&#45;&gt;Node5 -->
<g id="edge13" class="edge"><title>Node13&#45;&gt;Node5</title>
<path fill="none" stroke="midnightblue" d="M771.655,-203.966C790.155,-200.786 809.383,-197.481 826.505,-194.538"/>
<polygon fill="midnightblue" stroke="midnightblue" points="771.029,-200.522 761.767,-205.665 772.215,-207.421 771.029,-200.522"/>
</g>
<!-- Node15&#45;&gt;Node9 -->
<g id="edge17" class="edge"><title>Node15&#45;&gt;Node9</title>
<path fill="none" stroke="midnightblue" d="M386.663,-227C398.171,-227 409.748,-227 420.84,-227"/>
<polygon fill="midnightblue" stroke="midnightblue" points="386.583,-223.5 376.583,-227 386.583,-230.5 386.583,-223.5"/>
</g>
<!-- Node17 -->
<g id="node17" class="node"><title>Node17</title>
<g id="a_node17"><a xlink:href="../../d0/d4b/class_main.html#a9aab0955c478f8846fae079b0c56e8d3" target="_top" xlink:title="Main.addKeyboardControl">
<polygon fill="white" stroke="black" points="427.5,-54.5 427.5,-73.5 566.5,-73.5 566.5,-54.5 427.5,-54.5"/>
<text text-anchor="middle" x="497" y="-61.5" font-family="Helvetica,sans-Serif" font-size="10.00">Main.addKeyboardControl</text>
</a>
</g>
</g>
<!-- Node16&#45;&gt;Node17 -->
<g id="edge19" class="edge"><title>Node16&#45;&gt;Node17</title>
<path fill="none" stroke="midnightblue" d="M360.194,-32.3119C392.121,-39.7615 428.216,-48.1838 455.166,-54.472"/>
<polygon fill="midnightblue" stroke="midnightblue" points="360.968,-28.8985 350.434,-30.0346 359.377,-35.7154 360.968,-28.8985"/>
</g>
<!-- Node17&#45;&gt;Node7 -->
<g id="edge20" class="edge"><title>Node17&#45;&gt;Node7</title>
<path fill="none" stroke="midnightblue" d="M576.66,-71.8442C734.018,-87.5365 1081.62,-122.2 1188.26,-132.835"/>
<polygon fill="midnightblue" stroke="midnightblue" points="576.873,-68.3482 566.575,-70.8385 576.178,-75.3136 576.873,-68.3482"/>
</g>
<!-- Node18&#45;&gt;Node17 -->
<g id="edge22" class="edge"><title>Node18&#45;&gt;Node17</title>
<path fill="none" stroke="midnightblue" d="M392.105,-64C404.039,-64 415.955,-64 427.234,-64"/>
<polygon fill="midnightblue" stroke="midnightblue" points="392.089,-60.5001 382.089,-64 392.089,-67.5001 392.089,-60.5001"/>
</g>
</g>
</svg>
