<?xml version="1.0" encoding="UTF-8" standalone="no"?>
<!DOCTYPE svg PUBLIC "-//W3C//DTD SVG 1.1//EN"
 "http://www.w3.org/Graphics/SVG/1.1/DTD/svg11.dtd">
<!-- Generated by graphviz version 2.36.0 (20140111.2315)
 -->
<!-- Title: MovementAndImageAPI.src.TurtleGroup Pages: 1 -->
<svg width="414pt" height="87pt"
 viewBox="0.00 0.00 414.00 87.00" xmlns="http://www.w3.org/2000/svg" xmlns:xlink="http://www.w3.org/1999/xlink">
<g id="graph0" class="graph" transform="scale(1 1) rotate(0) translate(4 83)">
<title>MovementAndImageAPI.src.TurtleGroup</title>
<polygon fill="white" stroke="none" points="-4,4 -4,-83 410,-83 410,4 -4,4"/>
<!-- Node1 -->
<g id="node1" class="node"><title>Node1</title>
<polygon fill="#bfbfbf" stroke="black" points="254,-24 254,-54 406,-54 406,-24 254,-24"/>
<text text-anchor="start" x="262" y="-42" font-family="Helvetica,sans-Serif" font-size="10.00">MovementAndImageAPI.src.</text>
<text text-anchor="middle" x="330" y="-31" font-family="Helvetica,sans-Serif" font-size="10.00">TurtleGroup</text>
</g>
<!-- Node2 -->
<g id="node2" class="node"><title>Node2</title>
<g id="a_node2"><a xlink:href="../../d1/d2a/class_movement_and_image_a_p_i_1_1src_1_1_general_turtle_handler.html" target="_top" xlink:title="MovementAndImageAPI.src.\lGeneralTurtleHandler">
<polygon fill="white" stroke="black" points="3,-49 3,-79 155,-79 155,-49 3,-49"/>
<text text-anchor="start" x="11" y="-67" font-family="Helvetica,sans-Serif" font-size="10.00">MovementAndImageAPI.src.</text>
<text text-anchor="middle" x="79" y="-56" font-family="Helvetica,sans-Serif" font-size="10.00">GeneralTurtleHandler</text>
</a>
</g>
</g>
<!-- Node2&#45;&gt;Node1 -->
<g id="edge1" class="edge"><title>Node2&#45;&gt;Node1</title>
<path fill="none" stroke="midnightblue" d="M165.109,-56.8004C188.13,-54.7335 213.029,-52.3888 236,-50 241.822,-49.3946 247.845,-48.7419 253.898,-48.0673"/>
<polygon fill="midnightblue" stroke="midnightblue" points="164.675,-53.3251 155.025,-57.699 165.297,-60.2975 164.675,-53.3251"/>
</g>
<!-- Node3 -->
<g id="node3" class="node"><title>Node3</title>
<polygon fill="white" stroke="#bfbfbf" points="0,-0 0,-30 158,-30 158,-0 0,-0"/>
<text text-anchor="start" x="8" y="-18" font-family="Helvetica,sans-Serif" font-size="10.00">Map&lt; Integer, MovementAnd</text>
<text text-anchor="middle" x="79" y="-7" font-family="Helvetica,sans-Serif" font-size="10.00">ImageAPI.src.TurtleHandler &gt;</text>
</g>
<!-- Node3&#45;&gt;Node1 -->
<g id="edge2" class="edge"><title>Node3&#45;&gt;Node1</title>
<path fill="none" stroke="#9a32cd" stroke-dasharray="5,2" d="M168.258,-21.8192C190.389,-23.6765 214.075,-25.7905 236,-28 241.824,-28.5869 247.848,-29.2262 253.903,-29.8917"/>
<polygon fill="#9a32cd" stroke="#9a32cd" points="168.466,-18.3245 158.21,-20.9845 167.886,-25.3005 168.466,-18.3245"/>
<text text-anchor="middle" x="206" y="-42" font-family="Helvetica,sans-Serif" font-size="10.00"> allTurtles</text>
<text text-anchor="middle" x="206" y="-31" font-family="Helvetica,sans-Serif" font-size="10.00">activeTurtles</text>
</g>
</g>
</svg>
