<?xml version="1.0" encoding="UTF-8" standalone="no"?>
<!DOCTYPE svg PUBLIC "-//W3C//DTD SVG 1.1//EN"
 "http://www.w3.org/Graphics/SVG/1.1/DTD/svg11.dtd">
<!-- Generated by graphviz version 2.36.0 (20140111.2315)
 -->
<!-- Title: MovementAndImageAPI.src.Turtle Pages: 1 -->
<svg width="331pt" height="256pt"
 viewBox="0.00 0.00 331.00 256.00" xmlns="http://www.w3.org/2000/svg" xmlns:xlink="http://www.w3.org/1999/xlink">
<g id="graph0" class="graph" transform="scale(1 1) rotate(0) translate(4 252)">
<title>MovementAndImageAPI.src.Turtle</title>
<polygon fill="white" stroke="none" points="-4,4 -4,-252 327,-252 327,4 -4,4"/>
<!-- Node1 -->
<g id="node1" class="node"><title>Node1</title>
<polygon fill="#bfbfbf" stroke="black" points="130,-1 130,-31 282,-31 282,-1 130,-1"/>
<text text-anchor="start" x="138" y="-19" font-family="Helvetica,sans-Serif" font-size="10.00">MovementAndImageAPI.src.</text>
<text text-anchor="middle" x="206" y="-8" font-family="Helvetica,sans-Serif" font-size="10.00">Turtle</text>
</g>
<!-- Node2 -->
<g id="node2" class="node"><title>Node2</title>
<g id="a_node2"><a xlink:href="../../da/d8f/class_movement_and_image_a_p_i_1_1src_1_1_pen_handler.html" target="_top" xlink:title="MovementAndImageAPI.src.\lPenHandler">
<polygon fill="white" stroke="black" points="9,-81 9,-111 161,-111 161,-81 9,-81"/>
<text text-anchor="start" x="17" y="-99" font-family="Helvetica,sans-Serif" font-size="10.00">MovementAndImageAPI.src.</text>
<text text-anchor="middle" x="85" y="-88" font-family="Helvetica,sans-Serif" font-size="10.00">PenHandler</text>
</a>
</g>
</g>
<!-- Node2&#45;&gt;Node1 -->
<g id="edge1" class="edge"><title>Node2&#45;&gt;Node1</title>
<path fill="none" stroke="#9a32cd" stroke-dasharray="5,2" d="M102.487,-73.2284C109.751,-65.174 118.663,-56.4456 128,-50 138.891,-42.4823 151.764,-36.1718 163.881,-31.1488"/>
<polygon fill="#9a32cd" stroke="#9a32cd" points="99.7059,-71.0933 95.8167,-80.9485 105.003,-75.6697 99.7059,-71.0933"/>
<text text-anchor="middle" x="165" y="-53.5" font-family="Helvetica,sans-Serif" font-size="10.00"> myPenHandler</text>
</g>
<!-- Node3 -->
<g id="node3" class="node"><title>Node3</title>
<g id="a_node3"><a xlink:href="../../d2/d78/class_movement_and_image_a_p_i_1_1src_1_1_pen.html" target="_top" xlink:title="MovementAndImageAPI.src.Pen">
<polygon fill="white" stroke="black" points="0,-160.5 0,-179.5 170,-179.5 170,-160.5 0,-160.5"/>
<text text-anchor="middle" x="85" y="-167.5" font-family="Helvetica,sans-Serif" font-size="10.00">MovementAndImageAPI.src.Pen</text>
</a>
</g>
</g>
<!-- Node3&#45;&gt;Node2 -->
<g id="edge2" class="edge"><title>Node3&#45;&gt;Node2</title>
<path fill="none" stroke="#9a32cd" stroke-dasharray="5,2" d="M85,-150.085C85,-137.915 85,-122.354 85,-111.232"/>
<polygon fill="#9a32cd" stroke="#9a32cd" points="81.5001,-150.458 85,-160.458 88.5001,-150.458 81.5001,-150.458"/>
<text text-anchor="middle" x="108" y="-133.5" font-family="Helvetica,sans-Serif" font-size="10.00"> mainPen</text>
</g>
<!-- Node4 -->
<g id="node4" class="node"><title>Node4</title>
<polygon fill="white" stroke="#bfbfbf" points="64.5,-228.5 64.5,-247.5 105.5,-247.5 105.5,-228.5 64.5,-228.5"/>
<text text-anchor="middle" x="85" y="-235.5" font-family="Helvetica,sans-Serif" font-size="10.00">Color</text>
</g>
<!-- Node4&#45;&gt;Node3 -->
<g id="edge3" class="edge"><title>Node4&#45;&gt;Node3</title>
<path fill="none" stroke="#9a32cd" stroke-dasharray="5,2" d="M85,-218.041C85,-205.472 85,-189.563 85,-179.841"/>
<polygon fill="#9a32cd" stroke="#9a32cd" points="81.5001,-218.372 85,-228.372 88.5001,-218.372 81.5001,-218.372"/>
<text text-anchor="middle" x="115.5" y="-201.5" font-family="Helvetica,sans-Serif" font-size="10.00"> myPenColor</text>
</g>
<!-- Node5 -->
<g id="node5" class="node"><title>Node5</title>
<polygon fill="white" stroke="#bfbfbf" points="179,-86.5 179,-105.5 233,-105.5 233,-86.5 179,-86.5"/>
<text text-anchor="middle" x="206" y="-93.5" font-family="Helvetica,sans-Serif" font-size="10.00">Point2D</text>
</g>
<!-- Node5&#45;&gt;Node1 -->
<g id="edge4" class="edge"><title>Node5&#45;&gt;Node1</title>
<path fill="none" stroke="#9a32cd" stroke-dasharray="5,2" d="M206,-76.062C206,-62.2416 206,-43.8024 206,-31.227"/>
<polygon fill="#9a32cd" stroke="#9a32cd" points="202.5,-76.3546 206,-86.3546 209.5,-76.3546 202.5,-76.3546"/>
<text text-anchor="middle" x="235.5" y="-53.5" font-family="Helvetica,sans-Serif" font-size="10.00"> myLocation</text>
</g>
<!-- Node6 -->
<g id="node6" class="node"><title>Node6</title>
<polygon fill="white" stroke="#bfbfbf" points="254,-86.5 254,-105.5 322,-105.5 322,-86.5 254,-86.5"/>
<text text-anchor="middle" x="288" y="-93.5" font-family="Helvetica,sans-Serif" font-size="10.00">ImageView</text>
</g>
<!-- Node6&#45;&gt;Node1 -->
<g id="edge5" class="edge"><title>Node6&#45;&gt;Node1</title>
<path fill="none" stroke="#9a32cd" stroke-dasharray="5,2" d="M282.133,-76.9557C278.549,-68.0438 273.244,-57.6016 266,-50 258.701,-42.3406 249.225,-36.0183 239.968,-31.0292"/>
<polygon fill="#9a32cd" stroke="#9a32cd" points="278.873,-78.2355 285.561,-86.4527 285.457,-75.8584 278.873,-78.2355"/>
<text text-anchor="middle" x="298.5" y="-53.5" font-family="Helvetica,sans-Serif" font-size="10.00"> myImage</text>
</g>
</g>
</svg>
