<?xml version="1.0" encoding="UTF-8" standalone="no"?>
<!DOCTYPE svg PUBLIC "-//W3C//DTD SVG 1.1//EN"
 "http://www.w3.org/Graphics/SVG/1.1/DTD/svg11.dtd">
<!-- Generated by graphviz version 2.36.0 (20140111.2315)
 -->
<!-- Title: TurtleChooserFeature.openTurtleChooser Pages: 1 -->
<svg width="958pt" height="185pt"
 viewBox="0.00 0.00 958.00 185.00" xmlns="http://www.w3.org/2000/svg" xmlns:xlink="http://www.w3.org/1999/xlink">
<g id="graph0" class="graph" transform="scale(1 1) rotate(0) translate(4 181)">
<title>TurtleChooserFeature.openTurtleChooser</title>
<polygon fill="white" stroke="none" points="-4,4 -4,-181 954,-181 954,4 -4,4"/>
<!-- Node1 -->
<g id="node1" class="node"><title>Node1</title>
<polygon fill="#bfbfbf" stroke="black" points="0.5,-73 0.5,-103 145.5,-103 145.5,-73 0.5,-73"/>
<text text-anchor="start" x="8.5" y="-91" font-family="Helvetica,sans-Serif" font-size="10.00">TurtleChooserFeature.open</text>
<text text-anchor="middle" x="73" y="-80" font-family="Helvetica,sans-Serif" font-size="10.00">TurtleChooser</text>
</g>
<!-- Node2 -->
<g id="node2" class="node"><title>Node2</title>
<g id="a_node2"><a xlink:href="../../d4/d0f/class_movement_and_image_a_p_i_1_1src_1_1_turtle_handler.html#ae7bd62e67c6a572a4efef91176eb370e" target="_top" xlink:title="MovementAndImageAPI.src.\lTurtleHandler.updateImage">
<polygon fill="white" stroke="black" points="182,-73 182,-103 334,-103 334,-73 182,-73"/>
<text text-anchor="start" x="190" y="-91" font-family="Helvetica,sans-Serif" font-size="10.00">MovementAndImageAPI.src.</text>
<text text-anchor="middle" x="258" y="-80" font-family="Helvetica,sans-Serif" font-size="10.00">TurtleHandler.updateImage</text>
</a>
</g>
</g>
<!-- Node1&#45;&gt;Node2 -->
<g id="edge1" class="edge"><title>Node1&#45;&gt;Node2</title>
<path fill="none" stroke="midnightblue" d="M145.539,-88C154.113,-88 162.933,-88 171.677,-88"/>
<polygon fill="midnightblue" stroke="midnightblue" points="171.889,-91.5001 181.889,-88 171.889,-84.5001 171.889,-91.5001"/>
</g>
<!-- Node3 -->
<g id="node3" class="node"><title>Node3</title>
<g id="a_node3"><a xlink:href="../../d7/d43/class_movement_and_image_a_p_i_1_1src_1_1_turtle.html#a8b7348625438380a184c287ba3eda20d" target="_top" xlink:title="MovementAndImageAPI.src.\lTurtle.updateImage">
<polygon fill="white" stroke="black" points="383,-147 383,-177 535,-177 535,-147 383,-147"/>
<text text-anchor="start" x="391" y="-165" font-family="Helvetica,sans-Serif" font-size="10.00">MovementAndImageAPI.src.</text>
<text text-anchor="middle" x="459" y="-154" font-family="Helvetica,sans-Serif" font-size="10.00">Turtle.updateImage</text>
</a>
</g>
</g>
<!-- Node2&#45;&gt;Node3 -->
<g id="edge2" class="edge"><title>Node2&#45;&gt;Node3</title>
<path fill="none" stroke="midnightblue" d="M290.104,-103.123C312.1,-113.471 342.457,-127.063 370,-137 376.676,-139.409 383.703,-141.738 390.755,-143.943"/>
<polygon fill="midnightblue" stroke="midnightblue" points="389.77,-147.302 400.355,-146.868 391.809,-140.605 389.77,-147.302"/>
</g>
<!-- Node4 -->
<g id="node4" class="node"><title>Node4</title>
<g id="a_node4"><a xlink:href="../../da/d31/class_movement_and_image_a_p_i_1_1src_1_1_image_updater.html#adea0730f4ec25ebf5b16940420f9af0b" target="_top" xlink:title="MovementAndImageAPI.src.\lImageUpdater.updateTurtleImage">
<polygon fill="white" stroke="black" points="370.5,-98 370.5,-128 547.5,-128 547.5,-98 370.5,-98"/>
<text text-anchor="start" x="378.5" y="-116" font-family="Helvetica,sans-Serif" font-size="10.00">MovementAndImageAPI.src.</text>
<text text-anchor="middle" x="459" y="-105" font-family="Helvetica,sans-Serif" font-size="10.00">ImageUpdater.updateTurtleImage</text>
</a>
</g>
</g>
<!-- Node2&#45;&gt;Node4 -->
<g id="edge3" class="edge"><title>Node2&#45;&gt;Node4</title>
<path fill="none" stroke="midnightblue" d="M334.233,-97.4514C342.698,-98.5148 351.412,-99.6096 360.11,-100.702"/>
<polygon fill="midnightblue" stroke="midnightblue" points="359.939,-104.208 370.297,-101.982 360.811,-97.2628 359.939,-104.208"/>
</g>
<!-- Node8 -->
<g id="node8" class="node"><title>Node8</title>
<g id="a_node8"><a xlink:href="../../d7/d43/class_movement_and_image_a_p_i_1_1src_1_1_turtle.html#af438d3cf63dc7584f43e470e56592cbb" target="_top" xlink:title="MovementAndImageAPI.src.\lTurtle.getPoint">
<polygon fill="white" stroke="black" points="383,-49 383,-79 535,-79 535,-49 383,-49"/>
<text text-anchor="start" x="391" y="-67" font-family="Helvetica,sans-Serif" font-size="10.00">MovementAndImageAPI.src.</text>
<text text-anchor="middle" x="459" y="-56" font-family="Helvetica,sans-Serif" font-size="10.00">Turtle.getPoint</text>
</a>
</g>
</g>
<!-- Node2&#45;&gt;Node8 -->
<g id="edge7" class="edge"><title>Node2&#45;&gt;Node8</title>
<path fill="none" stroke="midnightblue" d="M334.233,-78.9266C346.826,-77.4079 359.972,-75.8225 372.794,-74.2762"/>
<polygon fill="midnightblue" stroke="midnightblue" points="373.481,-77.7186 382.99,-73.0464 372.643,-70.769 373.481,-77.7186"/>
</g>
<!-- Node9 -->
<g id="node9" class="node"><title>Node9</title>
<g id="a_node9"><a xlink:href="../../d7/d43/class_movement_and_image_a_p_i_1_1src_1_1_turtle.html#a75d31c1ce4fcba5a04aec065d2403d39" target="_top" xlink:title="MovementAndImageAPI.src.\lTurtle.getImage">
<polygon fill="white" stroke="black" points="383,-0 383,-30 535,-30 535,-0 383,-0"/>
<text text-anchor="start" x="391" y="-18" font-family="Helvetica,sans-Serif" font-size="10.00">MovementAndImageAPI.src.</text>
<text text-anchor="middle" x="459" y="-7" font-family="Helvetica,sans-Serif" font-size="10.00">Turtle.getImage</text>
</a>
</g>
</g>
<!-- Node2&#45;&gt;Node9 -->
<g id="edge8" class="edge"><title>Node2&#45;&gt;Node9</title>
<path fill="none" stroke="midnightblue" d="M291.093,-72.7887C313.022,-62.727 342.907,-49.6594 370,-40 376.788,-37.5799 383.934,-35.2323 391.099,-33.0075"/>
<polygon fill="midnightblue" stroke="midnightblue" points="392.292,-36.3033 400.848,-30.0546 390.263,-29.6039 392.292,-36.3033"/>
</g>
<!-- Node5 -->
<g id="node5" class="node"><title>Node5</title>
<g id="a_node5"><a xlink:href="../../da/d31/class_movement_and_image_a_p_i_1_1src_1_1_image_updater.html#a08e8ba7624dbce157332a73670072c78" target="_top" xlink:title="MovementAndImageAPI.src.\lImageUpdater.ensurePositive">
<polygon fill="white" stroke="black" points="594,-122 594,-152 752,-152 752,-122 594,-122"/>
<text text-anchor="start" x="602" y="-140" font-family="Helvetica,sans-Serif" font-size="10.00">MovementAndImageAPI.src.</text>
<text text-anchor="middle" x="673" y="-129" font-family="Helvetica,sans-Serif" font-size="10.00">ImageUpdater.ensurePositive</text>
</a>
</g>
</g>
<!-- Node4&#45;&gt;Node5 -->
<g id="edge4" class="edge"><title>Node4&#45;&gt;Node5</title>
<path fill="none" stroke="midnightblue" d="M547.759,-122.935C559.565,-124.271 571.682,-125.643 583.5,-126.981"/>
<polygon fill="midnightblue" stroke="midnightblue" points="583.464,-130.499 593.794,-128.147 584.251,-123.544 583.464,-130.499"/>
</g>
<!-- Node6 -->
<g id="node6" class="node"><title>Node6</title>
<g id="a_node6"><a xlink:href="../../da/d31/class_movement_and_image_a_p_i_1_1src_1_1_image_updater.html#a581e045297ecf935c75512c1198703b3" target="_top" xlink:title="MovementAndImageAPI.src.\lImageUpdater.drawRotatedImage">
<polygon fill="white" stroke="black" points="584.5,-73 584.5,-103 761.5,-103 761.5,-73 584.5,-73"/>
<text text-anchor="start" x="592.5" y="-91" font-family="Helvetica,sans-Serif" font-size="10.00">MovementAndImageAPI.src.</text>
<text text-anchor="middle" x="673" y="-80" font-family="Helvetica,sans-Serif" font-size="10.00">ImageUpdater.drawRotatedImage</text>
</a>
</g>
</g>
<!-- Node4&#45;&gt;Node6 -->
<g id="edge5" class="edge"><title>Node4&#45;&gt;Node6</title>
<path fill="none" stroke="midnightblue" d="M547.759,-102.651C556.532,-101.617 565.477,-100.562 574.343,-99.5161"/>
<polygon fill="midnightblue" stroke="midnightblue" points="574.786,-102.988 584.307,-98.3412 573.966,-96.0365 574.786,-102.988"/>
</g>
<!-- Node7 -->
<g id="node7" class="node"><title>Node7</title>
<g id="a_node7"><a xlink:href="../../da/d31/class_movement_and_image_a_p_i_1_1src_1_1_image_updater.html#a2368721809649636ad6dce3c008a6d62" target="_top" xlink:title="MovementAndImageAPI.src.\lImageUpdater.rotate">
<polygon fill="white" stroke="black" points="798,-73 798,-103 950,-103 950,-73 798,-73"/>
<text text-anchor="start" x="806" y="-91" font-family="Helvetica,sans-Serif" font-size="10.00">MovementAndImageAPI.src.</text>
<text text-anchor="middle" x="874" y="-80" font-family="Helvetica,sans-Serif" font-size="10.00">ImageUpdater.rotate</text>
</a>
</g>
</g>
<!-- Node6&#45;&gt;Node7 -->
<g id="edge6" class="edge"><title>Node6&#45;&gt;Node7</title>
<path fill="none" stroke="midnightblue" d="M761.574,-88C770.268,-88 779.085,-88 787.755,-88"/>
<polygon fill="midnightblue" stroke="midnightblue" points="787.849,-91.5001 797.849,-88 787.849,-84.5001 787.849,-91.5001"/>
</g>
</g>
</svg>
