<?xml version="1.0" encoding="UTF-8" standalone="no"?>
<!DOCTYPE svg PUBLIC "-//W3C//DTD SVG 1.1//EN"
 "http://www.w3.org/Graphics/SVG/1.1/DTD/svg11.dtd">
<!-- Generated by graphviz version 2.36.0 (20140111.2315)
 -->
<!-- Title: parser.TokenMgrError.addEscapes Pages: 1 -->
<svg width="518pt" height="38pt"
 viewBox="0.00 0.00 518.00 38.00" xmlns="http://www.w3.org/2000/svg" xmlns:xlink="http://www.w3.org/1999/xlink">
<g id="graph0" class="graph" transform="scale(1 1) rotate(0) translate(4 34)">
<title>parser.TokenMgrError.addEscapes</title>
<polygon fill="white" stroke="none" points="-4,4 -4,-34 514,-34 514,4 -4,4"/>
<!-- Node1 -->
<g id="node1" class="node"><title>Node1</title>
<polygon fill="#bfbfbf" stroke="black" points="0,-0 0,-30 138,-30 138,-0 0,-0"/>
<text text-anchor="start" x="8" y="-18" font-family="Helvetica,sans-Serif" font-size="10.00">parser.TokenMgrError.add</text>
<text text-anchor="middle" x="69" y="-7" font-family="Helvetica,sans-Serif" font-size="10.00">Escapes</text>
</g>
<!-- Node2 -->
<g id="node2" class="node"><title>Node2</title>
<g id="a_node2"><a xlink:href="../../d1/de9/classparser_1_1_token_mgr_error.html#a98f98a5263d39a0e3d3b0849dacd0f4b" target="_top" xlink:title="parser.TokenMgrError.Lexical\lError">
<polygon fill="white" stroke="black" points="174,-0 174,-30 326,-30 326,-0 174,-0"/>
<text text-anchor="start" x="182" y="-18" font-family="Helvetica,sans-Serif" font-size="10.00">parser.TokenMgrError.Lexical</text>
<text text-anchor="middle" x="250" y="-7" font-family="Helvetica,sans-Serif" font-size="10.00">Error</text>
</a>
</g>
</g>
<!-- Node1&#45;&gt;Node2 -->
<g id="edge1" class="edge"><title>Node1&#45;&gt;Node2</title>
<path fill="none" stroke="midnightblue" d="M148.401,-15C156.849,-15 165.431,-15 173.84,-15"/>
<polygon fill="midnightblue" stroke="midnightblue" points="148.183,-11.5001 138.183,-15 148.183,-18.5001 148.183,-11.5001"/>
</g>
<!-- Node3 -->
<g id="node3" class="node"><title>Node3</title>
<g id="a_node3"><a xlink:href="../../d1/de9/classparser_1_1_token_mgr_error.html#ade9127c3a39c027da0bb4c5bd066be4e" target="_top" xlink:title="parser.TokenMgrError.Token\lMgrError">
<polygon fill="white" stroke="black" points="362.5,-0 362.5,-30 509.5,-30 509.5,-0 362.5,-0"/>
<text text-anchor="start" x="370.5" y="-18" font-family="Helvetica,sans-Serif" font-size="10.00">parser.TokenMgrError.Token</text>
<text text-anchor="middle" x="436" y="-7" font-family="Helvetica,sans-Serif" font-size="10.00">MgrError</text>
</a>
</g>
</g>
<!-- Node2&#45;&gt;Node3 -->
<g id="edge2" class="edge"><title>Node2&#45;&gt;Node3</title>
<path fill="none" stroke="midnightblue" d="M336.241,-15C344.923,-15 353.685,-15 362.216,-15"/>
<polygon fill="midnightblue" stroke="midnightblue" points="336.105,-11.5001 326.105,-15 336.105,-18.5001 336.105,-11.5001"/>
</g>
</g>
</svg>
