<?xml version="1.0" encoding="UTF-8" standalone="no"?>
<!DOCTYPE svg PUBLIC "-//W3C//DTD SVG 1.1//EN"
 "http://www.w3.org/Graphics/SVG/1.1/DTD/svg11.dtd">
<!-- Generated by graphviz version 2.36.0 (20140111.2315)
 -->
<!-- Title: parser.TokenMgrError.TokenMgrError Pages: 1 -->
<svg width="518pt" height="38pt"
 viewBox="0.00 0.00 518.00 38.00" xmlns="http://www.w3.org/2000/svg" xmlns:xlink="http://www.w3.org/1999/xlink">
<g id="graph0" class="graph" transform="scale(1 1) rotate(0) translate(4 34)">
<title>parser.TokenMgrError.TokenMgrError</title>
<polygon fill="white" stroke="none" points="-4,4 -4,-34 514,-34 514,4 -4,4"/>
<!-- Node1 -->
<g id="node1" class="node"><title>Node1</title>
<polygon fill="#bfbfbf" stroke="black" points="0.5,-0 0.5,-30 147.5,-30 147.5,-0 0.5,-0"/>
<text text-anchor="start" x="8.5" y="-18" font-family="Helvetica,sans-Serif" font-size="10.00">parser.TokenMgrError.Token</text>
<text text-anchor="middle" x="74" y="-7" font-family="Helvetica,sans-Serif" font-size="10.00">MgrError</text>
</g>
<!-- Node2 -->
<g id="node2" class="node"><title>Node2</title>
<g id="a_node2"><a xlink:href="../../d1/de9/classparser_1_1_token_mgr_error.html#a98f98a5263d39a0e3d3b0849dacd0f4b" target="_top" xlink:title="parser.TokenMgrError.Lexical\lError">
<polygon fill="white" stroke="black" points="184,-0 184,-30 336,-30 336,-0 184,-0"/>
<text text-anchor="start" x="192" y="-18" font-family="Helvetica,sans-Serif" font-size="10.00">parser.TokenMgrError.Lexical</text>
<text text-anchor="middle" x="260" y="-7" font-family="Helvetica,sans-Serif" font-size="10.00">Error</text>
</a>
</g>
</g>
<!-- Node1&#45;&gt;Node2 -->
<g id="edge1" class="edge"><title>Node1&#45;&gt;Node2</title>
<path fill="none" stroke="midnightblue" d="M147.722,-15C156.241,-15 164.992,-15 173.663,-15"/>
<polygon fill="midnightblue" stroke="midnightblue" points="173.787,-18.5001 183.787,-15 173.787,-11.5001 173.787,-18.5001"/>
</g>
<!-- Node3 -->
<g id="node3" class="node"><title>Node3</title>
<g id="a_node3"><a xlink:href="../../d1/de9/classparser_1_1_token_mgr_error.html#ac9e636de47058dcec839aaeda6968a14" target="_top" xlink:title="parser.TokenMgrError.add\lEscapes">
<polygon fill="white" stroke="black" points="372,-0 372,-30 510,-30 510,-0 372,-0"/>
<text text-anchor="start" x="380" y="-18" font-family="Helvetica,sans-Serif" font-size="10.00">parser.TokenMgrError.add</text>
<text text-anchor="middle" x="441" y="-7" font-family="Helvetica,sans-Serif" font-size="10.00">Escapes</text>
</a>
</g>
</g>
<!-- Node2&#45;&gt;Node3 -->
<g id="edge2" class="edge"><title>Node2&#45;&gt;Node3</title>
<path fill="none" stroke="midnightblue" d="M336.134,-15C344.568,-15 353.177,-15 361.651,-15"/>
<polygon fill="midnightblue" stroke="midnightblue" points="361.899,-18.5001 371.899,-15 361.899,-11.5001 361.899,-18.5001"/>
</g>
</g>
</svg>
