<?xml version="1.0" encoding="UTF-8" standalone="no"?>
<!DOCTYPE svg PUBLIC "-//W3C//DTD SVG 1.1//EN"
 "http://www.w3.org/Graphics/SVG/1.1/DTD/svg11.dtd">
<!-- Generated by graphviz version 2.36.0 (20140111.2315)
 -->
<!-- Title: commands.MovementCommand Pages: 1 -->
<svg width="422pt" height="188pt"
 viewBox="0.00 0.00 422.00 188.00" xmlns="http://www.w3.org/2000/svg" xmlns:xlink="http://www.w3.org/1999/xlink">
<g id="graph0" class="graph" transform="scale(1 1) rotate(0) translate(4 184)">
<title>commands.MovementCommand</title>
<polygon fill="white" stroke="none" points="-4,4 -4,-184 418,-184 418,4 -4,4"/>
<!-- Node1 -->
<g id="node1" class="node"><title>Node1</title>
<polygon fill="#bfbfbf" stroke="black" points="191.5,-0.5 191.5,-19.5 366.5,-19.5 366.5,-0.5 191.5,-0.5"/>
<text text-anchor="middle" x="279" y="-7.5" font-family="Helvetica,sans-Serif" font-size="10.00">commands.MovementCommand</text>
</g>
<!-- Node2 -->
<g id="node2" class="node"><title>Node2</title>
<g id="a_node2"><a xlink:href="../../d7/d15/classcommands_1_1_commands_turtle.html" target="_top" xlink:title="commands.CommandsTurtle">
<polygon fill="white" stroke="black" points="63.5,-74.5 63.5,-93.5 218.5,-93.5 218.5,-74.5 63.5,-74.5"/>
<text text-anchor="middle" x="141" y="-81.5" font-family="Helvetica,sans-Serif" font-size="10.00">commands.CommandsTurtle</text>
</a>
</g>
</g>
<!-- Node2&#45;&gt;Node1 -->
<g id="edge1" class="edge"><title>Node2&#45;&gt;Node1</title>
<path fill="none" stroke="midnightblue" d="M166.57,-69.6589C194.652,-55.0079 238.903,-31.9201 262.649,-19.531"/>
<polygon fill="midnightblue" stroke="midnightblue" points="164.619,-66.7292 157.372,-74.4579 167.857,-72.9353 164.619,-66.7292"/>
</g>
<!-- Node3 -->
<g id="node3" class="node"><title>Node3</title>
<g id="a_node3"><a xlink:href="../../d3/de9/interfacecommands_1_1_i_command.html" target="_top" xlink:title="commands.ICommand">
<polygon fill="white" stroke="black" points="0,-154.5 0,-173.5 126,-173.5 126,-154.5 0,-154.5"/>
<text text-anchor="middle" x="63" y="-161.5" font-family="Helvetica,sans-Serif" font-size="10.00">commands.ICommand</text>
</a>
</g>
</g>
<!-- Node3&#45;&gt;Node2 -->
<g id="edge2" class="edge"><title>Node3&#45;&gt;Node2</title>
<path fill="none" stroke="midnightblue" d="M78.771,-147.229C94.8101,-131.19 119.096,-106.904 132.076,-93.9238"/>
<polygon fill="midnightblue" stroke="midnightblue" points="76.2416,-144.809 71.6454,-154.355 81.1914,-149.758 76.2416,-144.809"/>
</g>
<!-- Node4 -->
<g id="node4" class="node"><title>Node4</title>
<g id="a_node4"><a xlink:href="../../d1/d2a/class_movement_and_image_a_p_i_1_1src_1_1_general_turtle_handler.html" target="_top" xlink:title="MovementAndImageAPI.src.\lGeneralTurtleHandler">
<polygon fill="white" stroke="black" points="144,-149 144,-179 296,-179 296,-149 144,-149"/>
<text text-anchor="start" x="152" y="-167" font-family="Helvetica,sans-Serif" font-size="10.00">MovementAndImageAPI.src.</text>
<text text-anchor="middle" x="220" y="-156" font-family="Helvetica,sans-Serif" font-size="10.00">GeneralTurtleHandler</text>
</a>
</g>
</g>
<!-- Node4&#45;&gt;Node2 -->
<g id="edge3" class="edge"><title>Node4&#45;&gt;Node2</title>
<path fill="none" stroke="#9a32cd" stroke-dasharray="5,2" d="M198.164,-141.44C182.291,-125.769 161.627,-105.366 149.99,-93.8764"/>
<polygon fill="#9a32cd" stroke="#9a32cd" points="195.935,-144.158 205.51,-148.694 200.853,-139.177 195.935,-144.158"/>
<text text-anchor="middle" x="219.5" y="-121.5" font-family="Helvetica,sans-Serif" font-size="10.00"> turtleHandler</text>
</g>
<!-- Node5 -->
<g id="node5" class="node"><title>Node5</title>
<g id="a_node5"><a xlink:href="../../d9/d12/enumcommands_1_1_movement_command_1_1_command_type.html" target="_top" xlink:title="commands.MovementCommand.\lCommandType">
<polygon fill="white" stroke="black" points="237,-69 237,-99 415,-99 415,-69 237,-69"/>
<text text-anchor="start" x="245" y="-87" font-family="Helvetica,sans-Serif" font-size="10.00">commands.MovementCommand.</text>
<text text-anchor="middle" x="326" y="-76" font-family="Helvetica,sans-Serif" font-size="10.00">CommandType</text>
</a>
</g>
</g>
<!-- Node5&#45;&gt;Node1 -->
<g id="edge4" class="edge"><title>Node5&#45;&gt;Node1</title>
<path fill="none" stroke="#9a32cd" stroke-dasharray="5,2" d="M311.164,-60.2726C302.186,-46.5196 291.247,-29.7615 284.718,-19.7589"/>
<polygon fill="#9a32cd" stroke="#9a32cd" points="308.317,-62.3145 316.714,-68.7751 314.179,-58.4881 308.317,-62.3145"/>
<text text-anchor="middle" x="338.5" y="-41.5" font-family="Helvetica,sans-Serif" font-size="10.00"> myCommand</text>
</g>
</g>
</svg>
