<?xml version="1.0" encoding="UTF-8" standalone="no"?>
<!DOCTYPE svg PUBLIC "-//W3C//DTD SVG 1.1//EN"
 "http://www.w3.org/Graphics/SVG/1.1/DTD/svg11.dtd">
<!-- Generated by graphviz version 2.36.0 (20140111.2315)
 -->
<!-- Title: parser.LogoParser Pages: 1 -->
<svg width="644pt" height="222pt"
 viewBox="0.00 0.00 644.00 222.00" xmlns="http://www.w3.org/2000/svg" xmlns:xlink="http://www.w3.org/1999/xlink">
<g id="graph0" class="graph" transform="scale(1 1) rotate(0) translate(4 218)">
<title>parser.LogoParser</title>
<polygon fill="white" stroke="none" points="-4,4 -4,-218 640,-218 640,4 -4,4"/>
<!-- Node1 -->
<g id="node1" class="node"><title>Node1</title>
<polygon fill="#bfbfbf" stroke="black" points="532.5,-124.5 532.5,-143.5 635.5,-143.5 635.5,-124.5 532.5,-124.5"/>
<text text-anchor="middle" x="584" y="-131.5" font-family="Helvetica,sans-Serif" font-size="10.00">parser.LogoParser</text>
</g>
<!-- Node2 -->
<g id="node2" class="node"><title>Node2</title>
<g id="a_node2"><a xlink:href="../../de/db9/interfaceparser_1_1_logo_parser_constants.html" target="_top" xlink:title="parser.LogoParserConstants">
<polygon fill="white" stroke="black" points="0,-194.5 0,-213.5 152,-213.5 152,-194.5 0,-194.5"/>
<text text-anchor="middle" x="76" y="-201.5" font-family="Helvetica,sans-Serif" font-size="10.00">parser.LogoParserConstants</text>
</a>
</g>
</g>
<!-- Node2&#45;&gt;Node1 -->
<g id="edge1" class="edge"><title>Node2&#45;&gt;Node1</title>
<path fill="none" stroke="midnightblue" d="M162.282,-205.871C233.612,-206.292 337.878,-204.242 428,-192 466.788,-186.731 477.448,-187.007 514,-173 534.173,-165.27 555.555,-152.353 569.075,-143.518"/>
<polygon fill="midnightblue" stroke="midnightblue" points="162.029,-202.369 152.002,-205.792 161.975,-209.369 162.029,-202.369"/>
</g>
<!-- Node3 -->
<g id="node3" class="node"><title>Node3</title>
<g id="a_node3"><a xlink:href="../../d0/d8c/classparser_1_1_logo_parser_token_manager.html" target="_top" xlink:title="parser.LogoParserTokenManager">
<polygon fill="white" stroke="black" points="256,-163.5 256,-182.5 428,-182.5 428,-163.5 256,-163.5"/>
<text text-anchor="middle" x="342" y="-170.5" font-family="Helvetica,sans-Serif" font-size="10.00">parser.LogoParserTokenManager</text>
</a>
</g>
</g>
<!-- Node2&#45;&gt;Node3 -->
<g id="edge3" class="edge"><title>Node2&#45;&gt;Node3</title>
<path fill="none" stroke="midnightblue" d="M162.329,-193.98C193.694,-190.297 229.094,-186.14 260.061,-182.504"/>
<polygon fill="midnightblue" stroke="midnightblue" points="161.822,-190.516 152.298,-195.158 162.638,-197.468 161.822,-190.516"/>
</g>
<!-- Node3&#45;&gt;Node1 -->
<g id="edge2" class="edge"><title>Node3&#45;&gt;Node1</title>
<path fill="none" stroke="#9a32cd" stroke-dasharray="5,2" d="M424.176,-162.064C452.636,-157.983 484.784,-153.096 514,-148 521.707,-146.656 529.872,-145.109 537.786,-143.544"/>
<polygon fill="#9a32cd" stroke="#9a32cd" points="423.681,-158.599 414.274,-163.473 424.667,-165.529 423.681,-158.599"/>
<text text-anchor="middle" x="480" y="-161" font-family="Helvetica,sans-Serif" font-size="10.00"> token_source</text>
</g>
<!-- Node4 -->
<g id="node4" class="node"><title>Node4</title>
<g id="a_node4"><a xlink:href="../../d4/dad/classparser_1_1_simple_char_stream.html" target="_top" xlink:title="parser.SimpleCharStream">
<polygon fill="white" stroke="black" points="5.5,-146.5 5.5,-165.5 146.5,-165.5 146.5,-146.5 5.5,-146.5"/>
<text text-anchor="middle" x="76" y="-153.5" font-family="Helvetica,sans-Serif" font-size="10.00">parser.SimpleCharStream</text>
</a>
</g>
</g>
<!-- Node4&#45;&gt;Node1 -->
<g id="edge5" class="edge"><title>Node4&#45;&gt;Node1</title>
<path fill="none" stroke="#9a32cd" stroke-dasharray="5,2" d="M156.953,-149.421C187.876,-147.079 223.568,-144.623 256,-143 353.703,-138.11 467.969,-135.726 532.276,-134.689"/>
<polygon fill="#9a32cd" stroke="#9a32cd" points="156.364,-145.956 146.661,-150.21 156.899,-152.935 156.364,-145.956"/>
<text text-anchor="middle" x="342" y="-146" font-family="Helvetica,sans-Serif" font-size="10.00"> jj_input_stream</text>
</g>
<!-- Node4&#45;&gt;Node3 -->
<g id="edge4" class="edge"><title>Node4&#45;&gt;Node3</title>
<path fill="none" stroke="#9a32cd" stroke-dasharray="5,2" d="M156.697,-161.132C188.002,-163.148 223.99,-165.465 255.809,-167.514"/>
<polygon fill="#9a32cd" stroke="#9a32cd" points="156.912,-157.639 146.708,-160.489 156.463,-164.624 156.912,-157.639"/>
<text text-anchor="middle" x="204" y="-169" font-family="Helvetica,sans-Serif" font-size="10.00"> input_stream</text>
</g>
<!-- Node5 -->
<g id="node5" class="node"><title>Node5</title>
<g id="a_node5"><a xlink:href="../../db/df3/classparser_1_1_token.html" target="_top" xlink:title="parser.Token">
<polygon fill="white" stroke="black" points="303.5,-38.5 303.5,-57.5 380.5,-57.5 380.5,-38.5 303.5,-38.5"/>
<text text-anchor="middle" x="342" y="-45.5" font-family="Helvetica,sans-Serif" font-size="10.00">parser.Token</text>
</a>
</g>
</g>
<!-- Node5&#45;&gt;Node1 -->
<g id="edge6" class="edge"><title>Node5&#45;&gt;Node1</title>
<path fill="none" stroke="#9a32cd" stroke-dasharray="5,2" d="M390.636,-59.2462C425.418,-68.0995 473.391,-81.6539 514,-98 532.801,-105.568 553.259,-116.627 566.977,-124.487"/>
<polygon fill="#9a32cd" stroke="#9a32cd" points="391.292,-55.8024 380.741,-56.7636 389.589,-62.5919 391.292,-55.8024"/>
<text text-anchor="middle" x="480" y="-112" font-family="Helvetica,sans-Serif" font-size="10.00"> token</text>
<text text-anchor="middle" x="480" y="-101" font-family="Helvetica,sans-Serif" font-size="10.00">jj_nt</text>
</g>
<!-- Node5&#45;&gt;Node5 -->
<g id="edge8" class="edge"><title>Node5&#45;&gt;Node5</title>
<path fill="none" stroke="#9a32cd" stroke-dasharray="5,2" d="M316.33,-67.0292C317.731,-72.128 326.287,-76 342,-76 366.527,-76 373.617,-66.5653 363.27,-57.7571"/>
<polygon fill="#9a32cd" stroke="#9a32cd" points="319.605,-68.292 320.73,-57.7571 313.281,-65.2911 319.605,-68.292"/>
<text text-anchor="middle" x="342" y="-90" font-family="Helvetica,sans-Serif" font-size="10.00"> next</text>
<text text-anchor="middle" x="342" y="-79" font-family="Helvetica,sans-Serif" font-size="10.00">specialToken</text>
</g>
<!-- Node6 -->
<g id="node6" class="node"><title>Node6</title>
<polygon fill="white" stroke="#bfbfbf" points="20.5,-38.5 20.5,-57.5 131.5,-57.5 131.5,-38.5 20.5,-38.5"/>
<text text-anchor="middle" x="76" y="-45.5" font-family="Helvetica,sans-Serif" font-size="10.00">java::io::Serializable</text>
</g>
<!-- Node6&#45;&gt;Node5 -->
<g id="edge7" class="edge"><title>Node6&#45;&gt;Node5</title>
<path fill="none" stroke="midnightblue" d="M141.916,-48C192.65,-48 261.392,-48 303.394,-48"/>
<polygon fill="midnightblue" stroke="midnightblue" points="141.701,-44.5001 131.701,-48 141.701,-51.5001 141.701,-44.5001"/>
</g>
<!-- Node7 -->
<g id="node7" class="node"><title>Node7</title>
<polygon fill="white" stroke="#bfbfbf" points="306,-0.5 306,-19.5 378,-19.5 378,-0.5 306,-0.5"/>
<text text-anchor="middle" x="342" y="-7.5" font-family="Helvetica,sans-Serif" font-size="10.00">List&lt; int[]&gt;</text>
</g>
<!-- Node7&#45;&gt;Node1 -->
<g id="edge9" class="edge"><title>Node7&#45;&gt;Node1</title>
<path fill="none" stroke="#9a32cd" stroke-dasharray="5,2" d="M388.631,-15.8C424.989,-22.1154 475.932,-34.8867 514,-60 541.272,-77.9913 565.339,-108.903 576.462,-124.463"/>
<polygon fill="#9a32cd" stroke="#9a32cd" points="388.751,-12.2731 378.317,-14.1128 387.621,-19.1813 388.751,-12.2731"/>
<text text-anchor="middle" x="480" y="-63" font-family="Helvetica,sans-Serif" font-size="10.00"> jj_expentries</text>
</g>
</g>
</svg>
