<?xml version="1.0" encoding="UTF-8" standalone="no"?>
<!DOCTYPE svg PUBLIC "-//W3C//DTD SVG 1.1//EN"
 "http://www.w3.org/Graphics/SVG/1.1/DTD/svg11.dtd">
<!-- Generated by graphviz version 2.36.0 (20140111.2315)
 -->
<!-- Title: MovementAndImageAPI.src.GeneralTurtleHandler.setPenPosition Pages: 1 -->
<svg width="450pt" height="66pt"
 viewBox="0.00 0.00 450.00 66.00" xmlns="http://www.w3.org/2000/svg" xmlns:xlink="http://www.w3.org/1999/xlink">
<g id="graph0" class="graph" transform="scale(1 1) rotate(0) translate(4 62)">
<title>MovementAndImageAPI.src.GeneralTurtleHandler.setPenPosition</title>
<polygon fill="white" stroke="none" points="-4,4 -4,-62 446,-62 446,4 -4,4"/>
<!-- Node1 -->
<g id="node1" class="node"><title>Node1</title>
<polygon fill="#bfbfbf" stroke="black" points="0,-14 0,-44 190,-44 190,-14 0,-14"/>
<text text-anchor="start" x="8" y="-32" font-family="Helvetica,sans-Serif" font-size="10.00">MovementAndImageAPI.src.</text>
<text text-anchor="middle" x="95" y="-21" font-family="Helvetica,sans-Serif" font-size="10.00">GeneralTurtleHandler.setPenPosition</text>
</g>
<!-- Node2 -->
<g id="node2" class="node"><title>Node2</title>
<g id="a_node2"><a xlink:href="../../dd/d12/classcommands_1_1_activity_command.html#adfd5a1b897a52136a95e4d3b9cdd04d9" target="_top" xlink:title="commands.ActivityCommand.execute">
<polygon fill="white" stroke="black" points="234,-38.5 234,-57.5 434,-57.5 434,-38.5 234,-38.5"/>
<text text-anchor="middle" x="334" y="-45.5" font-family="Helvetica,sans-Serif" font-size="10.00">commands.ActivityCommand.execute</text>
</a>
</g>
</g>
<!-- Node1&#45;&gt;Node2 -->
<g id="edge1" class="edge"><title>Node1&#45;&gt;Node2</title>
<path fill="none" stroke="midnightblue" d="M200.167,-37.3509C211.292,-38.2428 222.588,-39.1484 233.655,-40.0357"/>
<polygon fill="midnightblue" stroke="midnightblue" points="200.257,-33.847 190.009,-36.5366 199.697,-40.8246 200.257,-33.847"/>
</g>
<!-- Node3 -->
<g id="node3" class="node"><title>Node3</title>
<g id="a_node3"><a xlink:href="../../d1/d7f/classcommands_1_1_movement_command.html#a80189fb5aa013c7f5c400118c94ddf8c" target="_top" xlink:title="commands.MovementCommand.execute">
<polygon fill="white" stroke="black" points="226,-0.5 226,-19.5 442,-19.5 442,-0.5 226,-0.5"/>
<text text-anchor="middle" x="334" y="-7.5" font-family="Helvetica,sans-Serif" font-size="10.00">commands.MovementCommand.execute</text>
</a>
</g>
</g>
<!-- Node1&#45;&gt;Node3 -->
<g id="edge2" class="edge"><title>Node1&#45;&gt;Node3</title>
<path fill="none" stroke="midnightblue" d="M200.001,-20.6624C208.562,-19.976 217.225,-19.2815 225.809,-18.5934"/>
<polygon fill="midnightblue" stroke="midnightblue" points="199.697,-17.1754 190.009,-21.4634 200.257,-24.153 199.697,-17.1754"/>
</g>
</g>
</svg>
