<?xml version="1.0" encoding="UTF-8" standalone="no"?>
<!DOCTYPE svg PUBLIC "-//W3C//DTD SVG 1.1//EN"
 "http://www.w3.org/Graphics/SVG/1.1/DTD/svg11.dtd">
<!-- Generated by graphviz version 2.36.0 (20140111.2315)
 -->
<!-- Title: MovementAndImageAPI.src.GeneralTurtleHandler.updateTurtleAbsoluteLocation Pages: 1 -->
<svg width="440pt" height="48pt"
 viewBox="0.00 0.00 440.00 48.00" xmlns="http://www.w3.org/2000/svg" xmlns:xlink="http://www.w3.org/1999/xlink">
<g id="graph0" class="graph" transform="scale(1 1) rotate(0) translate(4 44)">
<title>MovementAndImageAPI.src.GeneralTurtleHandler.updateTurtleAbsoluteLocation</title>
<polygon fill="white" stroke="none" points="-4,4 -4,-44 436,-44 436,4 -4,4"/>
<!-- Node1 -->
<g id="node1" class="node"><title>Node1</title>
<polygon fill="#bfbfbf" stroke="black" points="0.5,0.5 0.5,-40.5 179.5,-40.5 179.5,0.5 0.5,0.5"/>
<text text-anchor="start" x="8.5" y="-28.5" font-family="Helvetica,sans-Serif" font-size="10.00">MovementAndImageAPI.src.</text>
<text text-anchor="start" x="8.5" y="-17.5" font-family="Helvetica,sans-Serif" font-size="10.00">GeneralTurtleHandler.updateTurtle</text>
<text text-anchor="middle" x="90" y="-6.5" font-family="Helvetica,sans-Serif" font-size="10.00">AbsoluteLocation</text>
</g>
<!-- Node2 -->
<g id="node2" class="node"><title>Node2</title>
<g id="a_node2"><a xlink:href="../../d1/d7f/classcommands_1_1_movement_command.html#a80189fb5aa013c7f5c400118c94ddf8c" target="_top" xlink:title="commands.MovementCommand.execute">
<polygon fill="white" stroke="black" points="216,-10.5 216,-29.5 432,-29.5 432,-10.5 216,-10.5"/>
<text text-anchor="middle" x="324" y="-17.5" font-family="Helvetica,sans-Serif" font-size="10.00">commands.MovementCommand.execute</text>
</a>
</g>
</g>
<!-- Node1&#45;&gt;Node2 -->
<g id="edge1" class="edge"><title>Node1&#45;&gt;Node2</title>
<path fill="none" stroke="midnightblue" d="M189.715,-20C198.304,-20 207.023,-20 215.677,-20"/>
<polygon fill="midnightblue" stroke="midnightblue" points="189.702,-16.5001 179.702,-20 189.702,-23.5001 189.702,-16.5001"/>
</g>
</g>
</svg>
