<?xml version="1.0" encoding="UTF-8" standalone="no"?>
<!DOCTYPE svg PUBLIC "-//W3C//DTD SVG 1.1//EN"
 "http://www.w3.org/Graphics/SVG/1.1/DTD/svg11.dtd">
<!-- Generated by graphviz version 2.36.0 (20140111.2315)
 -->
<!-- Title: parser.FilePicker Pages: 1 -->
<svg width="127pt" height="96pt"
 viewBox="0.00 0.00 127.00 96.00" xmlns="http://www.w3.org/2000/svg" xmlns:xlink="http://www.w3.org/1999/xlink">
<g id="graph0" class="graph" transform="scale(1 1) rotate(0) translate(4 92)">
<title>parser.FilePicker</title>
<polygon fill="white" stroke="none" points="-4,4 -4,-92 123,-92 123,4 -4,4"/>
<!-- Node1 -->
<g id="node1" class="node"><title>Node1</title>
<polygon fill="#bfbfbf" stroke="black" points="21.5,-0.5 21.5,-19.5 114.5,-19.5 114.5,-0.5 21.5,-0.5"/>
<text text-anchor="middle" x="68" y="-7.5" font-family="Helvetica,sans-Serif" font-size="10.00">parser.FilePicker</text>
</g>
<!-- Node2 -->
<g id="node2" class="node"><title>Node2</title>
<polygon fill="white" stroke="#bfbfbf" points="-0.5,-68.5 -0.5,-87.5 68.5,-87.5 68.5,-68.5 -0.5,-68.5"/>
<text text-anchor="middle" x="34" y="-75.5" font-family="Helvetica,sans-Serif" font-size="10.00">Application</text>
</g>
<!-- Node2&#45;&gt;Node1 -->
<g id="edge1" class="edge"><title>Node2&#45;&gt;Node1</title>
<path fill="none" stroke="midnightblue" d="M43.177,-59.1859C49.7367,-46.4523 58.2839,-29.8607 63.4455,-19.8411"/>
<polygon fill="midnightblue" stroke="midnightblue" points="39.9131,-57.879 38.4449,-68.3717 46.1359,-61.0848 39.9131,-57.879"/>
</g>
<!-- Node3 -->
<g id="node3" class="node"><title>Node3</title>
<polygon fill="white" stroke="#bfbfbf" points="87,-68.5 87,-87.5 119,-87.5 119,-68.5 87,-68.5"/>
<text text-anchor="middle" x="103" y="-75.5" font-family="Helvetica,sans-Serif" font-size="10.00">File</text>
</g>
<!-- Node3&#45;&gt;Node1 -->
<g id="edge2" class="edge"><title>Node3&#45;&gt;Node1</title>
<path fill="none" stroke="#9a32cd" stroke-dasharray="5,2" d="M93.5531,-59.1859C86.8005,-46.4523 78.0019,-29.8607 72.6885,-19.8411"/>
<polygon fill="#9a32cd" stroke="#9a32cd" points="90.6472,-61.1768 98.4244,-68.3717 96.8314,-57.8972 90.6472,-61.1768"/>
<text text-anchor="middle" x="97.5" y="-41.5" font-family="Helvetica,sans-Serif" font-size="10.00"> file</text>
</g>
</g>
</svg>
