<?xml version="1.0" encoding="UTF-8" standalone="no"?>
<!DOCTYPE svg PUBLIC "-//W3C//DTD SVG 1.1//EN"
 "http://www.w3.org/Graphics/SVG/1.1/DTD/svg11.dtd">
<!-- Generated by graphviz version 2.36.0 (20140111.2315)
 -->
<!-- Title: RefGridFeature Pages: 1 -->
<svg width="219pt" height="96pt"
 viewBox="0.00 0.00 219.00 96.00" xmlns="http://www.w3.org/2000/svg" xmlns:xlink="http://www.w3.org/1999/xlink">
<g id="graph0" class="graph" transform="scale(1 1) rotate(0) translate(4 92)">
<title>RefGridFeature</title>
<polygon fill="white" stroke="none" points="-4,4 -4,-92 215,-92 215,4 -4,4"/>
<!-- Node1 -->
<g id="node1" class="node"><title>Node1</title>
<polygon fill="#bfbfbf" stroke="black" points="60,-0.5 60,-19.5 146,-19.5 146,-0.5 60,-0.5"/>
<text text-anchor="middle" x="103" y="-7.5" font-family="Helvetica,sans-Serif" font-size="10.00">RefGridFeature</text>
</g>
<!-- Node2 -->
<g id="node2" class="node"><title>Node2</title>
<g id="a_node2"><a xlink:href="../../d8/dfb/class_feature_1_1_feature.html" target="_top" xlink:title="Feature.Feature">
<polygon fill="white" stroke="black" points="0,-68.5 0,-87.5 92,-87.5 92,-68.5 0,-68.5"/>
<text text-anchor="middle" x="46" y="-75.5" font-family="Helvetica,sans-Serif" font-size="10.00">Feature.Feature</text>
</a>
</g>
</g>
<!-- Node2&#45;&gt;Node1 -->
<g id="edge1" class="edge"><title>Node2&#45;&gt;Node1</title>
<path fill="none" stroke="midnightblue" d="M60.0945,-60.68C71.2382,-47.7768 86.3685,-30.2575 95.3645,-19.8411"/>
<polygon fill="midnightblue" stroke="midnightblue" points="57.3391,-58.5157 53.4518,-68.3717 62.6369,-63.0911 57.3391,-58.5157"/>
</g>
<!-- Node3 -->
<g id="node3" class="node"><title>Node3</title>
<polygon fill="white" stroke="#bfbfbf" points="110.5,-68.5 110.5,-87.5 211.5,-87.5 211.5,-68.5 110.5,-68.5"/>
<text text-anchor="middle" x="161" y="-75.5" font-family="Helvetica,sans-Serif" font-size="10.00">ArrayList&lt; Line &gt;</text>
</g>
<!-- Node3&#45;&gt;Node1 -->
<g id="edge2" class="edge"><title>Node3&#45;&gt;Node1</title>
<path fill="none" stroke="#9a32cd" stroke-dasharray="5,2" d="M146.658,-60.68C135.319,-47.7768 119.923,-30.2575 110.769,-19.8411"/>
<polygon fill="#9a32cd" stroke="#9a32cd" points="144.187,-63.1704 153.418,-68.3717 149.445,-58.5496 144.187,-63.1704"/>
<text text-anchor="middle" x="156.5" y="-41.5" font-family="Helvetica,sans-Serif" font-size="10.00"> lineList</text>
</g>
</g>
</svg>
