<?xml version="1.0" encoding="UTF-8" standalone="no"?>
<!DOCTYPE svg PUBLIC "-//W3C//DTD SVG 1.1//EN"
 "http://www.w3.org/Graphics/SVG/1.1/DTD/svg11.dtd">
<!-- Generated by graphviz version 2.36.0 (20140111.2315)
 -->
<!-- Title: commands.CommandMake Pages: 1 -->
<svg width="156pt" height="96pt"
 viewBox="0.00 0.00 156.00 96.00" xmlns="http://www.w3.org/2000/svg" xmlns:xlink="http://www.w3.org/1999/xlink">
<g id="graph0" class="graph" transform="scale(1 1) rotate(0) translate(4 92)">
<title>commands.CommandMake</title>
<polygon fill="white" stroke="none" points="-4,4 -4,-92 152,-92 152,4 -4,4"/>
<!-- Node1 -->
<g id="node1" class="node"><title>Node1</title>
<polygon fill="#bfbfbf" stroke="black" points="-0.5,-0.5 -0.5,-19.5 148.5,-19.5 148.5,-0.5 -0.5,-0.5"/>
<text text-anchor="middle" x="74" y="-7.5" font-family="Helvetica,sans-Serif" font-size="10.00">commands.CommandMake</text>
</g>
<!-- Node2 -->
<g id="node2" class="node"><title>Node2</title>
<g id="a_node2"><a xlink:href="../../d3/de9/interfacecommands_1_1_i_command.html" target="_top" xlink:title="commands.ICommand">
<polygon fill="white" stroke="black" points="11,-68.5 11,-87.5 137,-87.5 137,-68.5 11,-68.5"/>
<text text-anchor="middle" x="74" y="-75.5" font-family="Helvetica,sans-Serif" font-size="10.00">commands.ICommand</text>
</a>
</g>
</g>
<!-- Node2&#45;&gt;Node1 -->
<g id="edge1" class="edge"><title>Node2&#45;&gt;Node1</title>
<path fill="none" stroke="midnightblue" d="M72.4399,-58.3825C72.2572,-55.5753 72.1003,-52.7126 72,-50 71.6141,-39.5663 72.4162,-27.5725 73.1167,-19.6712"/>
<polygon fill="midnightblue" stroke="midnightblue" points="68.9607,-58.7906 73.2083,-68.4967 75.9406,-58.2602 68.9607,-58.7906"/>
</g>
<!-- Node2&#45;&gt;Node1 -->
<g id="edge2" class="edge"><title>Node2&#45;&gt;Node1</title>
<path fill="none" stroke="#9a32cd" stroke-dasharray="5,2" d="M74,-58.0413C74,-45.4724 74,-29.5631 74,-19.8411"/>
<polygon fill="#9a32cd" stroke="#9a32cd" points="70.5001,-58.3716 74,-68.3717 77.5001,-58.3717 70.5001,-58.3716"/>
<text text-anchor="middle" x="100" y="-41.5" font-family="Helvetica,sans-Serif" font-size="10.00"> command</text>
</g>
</g>
</svg>
