<?xml version="1.0" encoding="UTF-8" standalone="no"?>
<!DOCTYPE svg PUBLIC "-//W3C//DTD SVG 1.1//EN"
 "http://www.w3.org/Graphics/SVG/1.1/DTD/svg11.dtd">
<!-- Generated by graphviz version 2.36.0 (20140111.2315)
 -->
<!-- Title: commands.CommandsTurtle.turtleHandler Pages: 1 -->
<svg width="444pt" height="115pt"
 viewBox="0.00 0.00 444.00 115.00" xmlns="http://www.w3.org/2000/svg" xmlns:xlink="http://www.w3.org/1999/xlink">
<g id="graph0" class="graph" transform="scale(1 1) rotate(0) translate(4 111)">
<title>commands.CommandsTurtle.turtleHandler</title>
<polygon fill="white" stroke="none" points="-4,4 -4,-111 440,-111 440,4 -4,4"/>
<!-- Node1 -->
<g id="node1" class="node"><title>Node1</title>
<polygon fill="#bfbfbf" stroke="black" points="0.5,-33 0.5,-63 183.5,-63 183.5,-33 0.5,-33"/>
<text text-anchor="start" x="8.5" y="-51" font-family="Helvetica,sans-Serif" font-size="10.00">commands.CommandsTurtle.turtle</text>
<text text-anchor="middle" x="92" y="-40" font-family="Helvetica,sans-Serif" font-size="10.00">Handler</text>
</g>
<!-- Node2 -->
<g id="node2" class="node"><title>Node2</title>
<g id="a_node2"><a xlink:href="../../d7/d15/classcommands_1_1_commands_turtle.html#ab26d610dfd31612313a1671573e08374" target="_top" xlink:title="commands.CommandsTurtle.\lCommandsTurtle">
<polygon fill="white" stroke="black" points="249,-77 249,-107 407,-107 407,-77 249,-77"/>
<text text-anchor="start" x="257" y="-95" font-family="Helvetica,sans-Serif" font-size="10.00">commands.CommandsTurtle.</text>
<text text-anchor="middle" x="328" y="-84" font-family="Helvetica,sans-Serif" font-size="10.00">CommandsTurtle</text>
</a>
</g>
</g>
<!-- Node1&#45;&gt;Node2 -->
<g id="edge1" class="edge"><title>Node1&#45;&gt;Node2</title>
<path fill="none" stroke="midnightblue" d="M182.751,-64.8762C204.474,-68.9608 227.523,-73.295 248.673,-77.2719"/>
<polygon fill="midnightblue" stroke="midnightblue" points="183.35,-61.4276 172.875,-63.0192 182.056,-68.307 183.35,-61.4276"/>
</g>
<!-- Node3 -->
<g id="node3" class="node"><title>Node3</title>
<g id="a_node3"><a xlink:href="../../dd/d12/classcommands_1_1_activity_command.html#adfd5a1b897a52136a95e4d3b9cdd04d9" target="_top" xlink:title="commands.ActivityCommand.execute">
<polygon fill="white" stroke="black" points="228,-38.5 228,-57.5 428,-57.5 428,-38.5 228,-38.5"/>
<text text-anchor="middle" x="328" y="-45.5" font-family="Helvetica,sans-Serif" font-size="10.00">commands.ActivityCommand.execute</text>
</a>
</g>
</g>
<!-- Node1&#45;&gt;Node3 -->
<g id="edge2" class="edge"><title>Node1&#45;&gt;Node3</title>
<path fill="none" stroke="midnightblue" d="M194.002,-48C205.179,-48 216.554,-48 227.71,-48"/>
<polygon fill="midnightblue" stroke="midnightblue" points="193.805,-44.5001 183.805,-48 193.805,-51.5001 193.805,-44.5001"/>
</g>
<!-- Node4 -->
<g id="node4" class="node"><title>Node4</title>
<g id="a_node4"><a xlink:href="../../d1/d7f/classcommands_1_1_movement_command.html#a80189fb5aa013c7f5c400118c94ddf8c" target="_top" xlink:title="commands.MovementCommand.execute">
<polygon fill="white" stroke="black" points="220,-0.5 220,-19.5 436,-19.5 436,-0.5 220,-0.5"/>
<text text-anchor="middle" x="328" y="-7.5" font-family="Helvetica,sans-Serif" font-size="10.00">commands.MovementCommand.execute</text>
</a>
</g>
</g>
<!-- Node1&#45;&gt;Node4 -->
<g id="edge3" class="edge"><title>Node1&#45;&gt;Node4</title>
<path fill="none" stroke="midnightblue" d="M193.865,-31.6203C219.291,-27.4912 245.754,-23.1938 268.325,-19.5284"/>
<polygon fill="midnightblue" stroke="midnightblue" points="193.115,-28.1961 183.805,-33.2538 194.237,-35.1055 193.115,-28.1961"/>
</g>
</g>
</svg>
