<?xml version="1.0" encoding="UTF-8" standalone="no"?>
<!DOCTYPE svg PUBLIC "-//W3C//DTD SVG 1.1//EN"
 "http://www.w3.org/Graphics/SVG/1.1/DTD/svg11.dtd">
<!-- Generated by graphviz version 2.36.0 (20140111.2315)
 -->
<!-- Title: MovementAndImageAPI.src.TurtleHandler Pages: 1 -->
<svg width="1102pt" height="208pt"
 viewBox="0.00 0.00 1102.00 208.00" xmlns="http://www.w3.org/2000/svg" xmlns:xlink="http://www.w3.org/1999/xlink">
<g id="graph0" class="graph" transform="scale(1 1) rotate(0) translate(4 204)">
<title>MovementAndImageAPI.src.TurtleHandler</title>
<polygon fill="white" stroke="none" points="-4,4 -4,-204 1098,-204 1098,4 -4,4"/>
<!-- Node1 -->
<g id="node1" class="node"><title>Node1</title>
<polygon fill="#bfbfbf" stroke="black" points="942,-121 942,-151 1094,-151 1094,-121 942,-121"/>
<text text-anchor="start" x="950" y="-139" font-family="Helvetica,sans-Serif" font-size="10.00">MovementAndImageAPI.src.</text>
<text text-anchor="middle" x="1018" y="-128" font-family="Helvetica,sans-Serif" font-size="10.00">TurtleHandler</text>
</g>
<!-- Node2 -->
<g id="node2" class="node"><title>Node2</title>
<g id="a_node2"><a xlink:href="../../d1/d2a/class_movement_and_image_a_p_i_1_1src_1_1_general_turtle_handler.html" target="_top" xlink:title="MovementAndImageAPI.src.\lGeneralTurtleHandler">
<polygon fill="white" stroke="black" points="656,-170 656,-200 808,-200 808,-170 656,-170"/>
<text text-anchor="start" x="664" y="-188" font-family="Helvetica,sans-Serif" font-size="10.00">MovementAndImageAPI.src.</text>
<text text-anchor="middle" x="732" y="-177" font-family="Helvetica,sans-Serif" font-size="10.00">GeneralTurtleHandler</text>
</a>
</g>
</g>
<!-- Node2&#45;&gt;Node1 -->
<g id="edge1" class="edge"><title>Node2&#45;&gt;Node1</title>
<path fill="none" stroke="midnightblue" d="M818.447,-170.257C857.705,-163.484 903.857,-155.521 941.78,-148.978"/>
<polygon fill="midnightblue" stroke="midnightblue" points="817.62,-166.848 808.361,-171.998 818.811,-173.746 817.62,-166.848"/>
</g>
<!-- Node3 -->
<g id="node3" class="node"><title>Node3</title>
<g id="a_node3"><a xlink:href="../../da/d31/class_movement_and_image_a_p_i_1_1src_1_1_image_updater.html" target="_top" xlink:title="MovementAndImageAPI.src.\lImageUpdater">
<polygon fill="white" stroke="black" points="656,-121 656,-151 808,-151 808,-121 656,-121"/>
<text text-anchor="start" x="664" y="-139" font-family="Helvetica,sans-Serif" font-size="10.00">MovementAndImageAPI.src.</text>
<text text-anchor="middle" x="732" y="-128" font-family="Helvetica,sans-Serif" font-size="10.00">ImageUpdater</text>
</a>
</g>
</g>
<!-- Node3&#45;&gt;Node1 -->
<g id="edge2" class="edge"><title>Node3&#45;&gt;Node1</title>
<path fill="none" stroke="#9a32cd" stroke-dasharray="5,2" d="M818.447,-136C857.705,-136 903.857,-136 941.78,-136"/>
<polygon fill="#9a32cd" stroke="#9a32cd" points="818.361,-132.5 808.361,-136 818.361,-139.5 818.361,-132.5"/>
<text text-anchor="middle" x="875" y="-139" font-family="Helvetica,sans-Serif" font-size="10.00"> mainImageUpdater</text>
</g>
<!-- Node4 -->
<g id="node4" class="node"><title>Node4</title>
<polygon fill="white" stroke="#bfbfbf" points="420,-171.5 420,-190.5 516,-190.5 516,-171.5 420,-171.5"/>
<text text-anchor="middle" x="468" y="-178.5" font-family="Helvetica,sans-Serif" font-size="10.00">GraphicsContext</text>
</g>
<!-- Node4&#45;&gt;Node3 -->
<g id="edge3" class="edge"><title>Node4&#45;&gt;Node3</title>
<path fill="none" stroke="#9a32cd" stroke-dasharray="5,2" d="M526.53,-175.144C559.336,-171.397 601.135,-165.935 638,-159 649.932,-156.755 662.622,-153.921 674.666,-151.015"/>
<polygon fill="#9a32cd" stroke="#9a32cd" points="525.761,-171.708 516.213,-176.3 526.541,-178.664 525.761,-171.708"/>
<text text-anchor="middle" x="600" y="-184" font-family="Helvetica,sans-Serif" font-size="10.00"> lineGC</text>
<text text-anchor="middle" x="600" y="-173" font-family="Helvetica,sans-Serif" font-size="10.00">turtleGC</text>
</g>
<!-- Node5 -->
<g id="node5" class="node"><title>Node5</title>
<polygon fill="white" stroke="#bfbfbf" points="442,-126.5 442,-145.5 494,-145.5 494,-126.5 442,-126.5"/>
<text text-anchor="middle" x="468" y="-133.5" font-family="Helvetica,sans-Serif" font-size="10.00">Canvas</text>
</g>
<!-- Node5&#45;&gt;Node3 -->
<g id="edge4" class="edge"><title>Node5&#45;&gt;Node3</title>
<path fill="none" stroke="#9a32cd" stroke-dasharray="5,2" d="M504.341,-136C542.981,-136 606.03,-136 655.834,-136"/>
<polygon fill="#9a32cd" stroke="#9a32cd" points="504.122,-132.5 494.122,-136 504.122,-139.5 504.122,-132.5"/>
<text text-anchor="middle" x="600" y="-150" font-family="Helvetica,sans-Serif" font-size="10.00"> myLineCanvas</text>
<text text-anchor="middle" x="600" y="-139" font-family="Helvetica,sans-Serif" font-size="10.00">myTurtleCanvas</text>
</g>
<!-- Node6 -->
<g id="node6" class="node"><title>Node6</title>
<g id="a_node6"><a xlink:href="../../d7/d43/class_movement_and_image_a_p_i_1_1src_1_1_turtle.html" target="_top" xlink:title="MovementAndImageAPI.src.\lTurtle">
<polygon fill="white" stroke="black" points="656,-46 656,-76 808,-76 808,-46 656,-46"/>
<text text-anchor="start" x="664" y="-64" font-family="Helvetica,sans-Serif" font-size="10.00">MovementAndImageAPI.src.</text>
<text text-anchor="middle" x="732" y="-53" font-family="Helvetica,sans-Serif" font-size="10.00">Turtle</text>
</a>
</g>
</g>
<!-- Node6&#45;&gt;Node1 -->
<g id="edge5" class="edge"><title>Node6&#45;&gt;Node1</title>
<path fill="none" stroke="#9a32cd" stroke-dasharray="5,2" d="M799.941,-78.678C848.602,-91.5287 913.767,-108.738 959.961,-120.937"/>
<polygon fill="#9a32cd" stroke="#9a32cd" points="800.692,-75.2565 790.13,-76.0871 798.905,-82.0245 800.692,-75.2565"/>
<text text-anchor="middle" x="875" y="-113" font-family="Helvetica,sans-Serif" font-size="10.00"> mainTurtle</text>
</g>
<!-- Node7 -->
<g id="node7" class="node"><title>Node7</title>
<g id="a_node7"><a xlink:href="../../da/d8f/class_movement_and_image_a_p_i_1_1src_1_1_pen_handler.html" target="_top" xlink:title="MovementAndImageAPI.src.\lPenHandler">
<polygon fill="white" stroke="black" points="392,-77 392,-107 544,-107 544,-77 392,-77"/>
<text text-anchor="start" x="400" y="-95" font-family="Helvetica,sans-Serif" font-size="10.00">MovementAndImageAPI.src.</text>
<text text-anchor="middle" x="468" y="-84" font-family="Helvetica,sans-Serif" font-size="10.00">PenHandler</text>
</a>
</g>
</g>
<!-- Node7&#45;&gt;Node6 -->
<g id="edge6" class="edge"><title>Node7&#45;&gt;Node6</title>
<path fill="none" stroke="#9a32cd" stroke-dasharray="5,2" d="M554.108,-81.93C586.915,-78.0483 624.117,-73.6465 655.91,-69.8847"/>
<polygon fill="#9a32cd" stroke="#9a32cd" points="553.598,-78.4658 544.079,-83.1166 554.421,-85.4173 553.598,-78.4658"/>
<text text-anchor="middle" x="600" y="-84" font-family="Helvetica,sans-Serif" font-size="10.00"> myPenHandler</text>
</g>
<!-- Node8 -->
<g id="node8" class="node"><title>Node8</title>
<g id="a_node8"><a xlink:href="../../d2/d78/class_movement_and_image_a_p_i_1_1src_1_1_pen.html" target="_top" xlink:title="MovementAndImageAPI.src.Pen">
<polygon fill="white" stroke="black" points="140,-82.5 140,-101.5 310,-101.5 310,-82.5 140,-82.5"/>
<text text-anchor="middle" x="225" y="-89.5" font-family="Helvetica,sans-Serif" font-size="10.00">MovementAndImageAPI.src.Pen</text>
</a>
</g>
</g>
<!-- Node8&#45;&gt;Node7 -->
<g id="edge7" class="edge"><title>Node8&#45;&gt;Node7</title>
<path fill="none" stroke="#9a32cd" stroke-dasharray="5,2" d="M320.325,-92C343.968,-92 369.024,-92 391.609,-92"/>
<polygon fill="#9a32cd" stroke="#9a32cd" points="320.29,-88.5001 310.29,-92 320.29,-95.5001 320.29,-88.5001"/>
<text text-anchor="middle" x="351" y="-95" font-family="Helvetica,sans-Serif" font-size="10.00"> mainPen</text>
</g>
<!-- Node9 -->
<g id="node9" class="node"><title>Node9</title>
<polygon fill="white" stroke="#bfbfbf" points="0.5,-82.5 0.5,-101.5 41.5,-101.5 41.5,-82.5 0.5,-82.5"/>
<text text-anchor="middle" x="21" y="-89.5" font-family="Helvetica,sans-Serif" font-size="10.00">Color</text>
</g>
<!-- Node9&#45;&gt;Node8 -->
<g id="edge8" class="edge"><title>Node9&#45;&gt;Node8</title>
<path fill="none" stroke="#9a32cd" stroke-dasharray="5,2" d="M51.9646,-92C75.2055,-92 108.61,-92 139.813,-92"/>
<polygon fill="#9a32cd" stroke="#9a32cd" points="51.7364,-88.5001 41.7364,-92 51.7364,-95.5001 51.7364,-88.5001"/>
<text text-anchor="middle" x="91" y="-95" font-family="Helvetica,sans-Serif" font-size="10.00"> myPenColor</text>
</g>
<!-- Node10 -->
<g id="node10" class="node"><title>Node10</title>
<polygon fill="white" stroke="#bfbfbf" points="441,-38.5 441,-57.5 495,-57.5 495,-38.5 441,-38.5"/>
<text text-anchor="middle" x="468" y="-45.5" font-family="Helvetica,sans-Serif" font-size="10.00">Point2D</text>
</g>
<!-- Node10&#45;&gt;Node6 -->
<g id="edge9" class="edge"><title>Node10&#45;&gt;Node6</title>
<path fill="none" stroke="#9a32cd" stroke-dasharray="5,2" d="M505.51,-48.8785C539.751,-49.8014 592.372,-51.4738 638,-54 643.82,-54.3222 649.842,-54.6922 655.895,-55.0903"/>
<polygon fill="#9a32cd" stroke="#9a32cd" points="505.159,-45.3682 495.071,-48.6051 504.976,-52.3658 505.159,-45.3682"/>
<text text-anchor="middle" x="600" y="-57" font-family="Helvetica,sans-Serif" font-size="10.00"> myLocation</text>
</g>
<!-- Node11 -->
<g id="node11" class="node"><title>Node11</title>
<polygon fill="white" stroke="#bfbfbf" points="434,-0.5 434,-19.5 502,-19.5 502,-0.5 434,-0.5"/>
<text text-anchor="middle" x="468" y="-7.5" font-family="Helvetica,sans-Serif" font-size="10.00">ImageView</text>
</g>
<!-- Node11&#45;&gt;Node6 -->
<g id="edge10" class="edge"><title>Node11&#45;&gt;Node6</title>
<path fill="none" stroke="#9a32cd" stroke-dasharray="5,2" d="M512.369,-15.336C546.649,-19.8747 595.617,-27.0714 638,-36 651.415,-38.8261 665.778,-42.4067 679.105,-45.9686"/>
<polygon fill="#9a32cd" stroke="#9a32cd" points="512.594,-11.8358 502.225,-14.0138 511.689,-18.7771 512.594,-11.8358"/>
<text text-anchor="middle" x="600" y="-39" font-family="Helvetica,sans-Serif" font-size="10.00"> myImage</text>
</g>
</g>
</svg>
