<?xml version="1.0" encoding="UTF-8" standalone="no"?>
<!DOCTYPE svg PUBLIC "-//W3C//DTD SVG 1.1//EN"
 "http://www.w3.org/Graphics/SVG/1.1/DTD/svg11.dtd">
<!-- Generated by graphviz version 2.36.0 (20140111.2315)
 -->
<!-- Title: commands.CommandsTurtle Pages: 1 -->
<svg width="304pt" height="108pt"
 viewBox="0.00 0.00 304.00 108.00" xmlns="http://www.w3.org/2000/svg" xmlns:xlink="http://www.w3.org/1999/xlink">
<g id="graph0" class="graph" transform="scale(1 1) rotate(0) translate(4 104)">
<title>commands.CommandsTurtle</title>
<polygon fill="white" stroke="none" points="-4,4 -4,-104 300,-104 300,4 -4,4"/>
<!-- Node1 -->
<g id="node1" class="node"><title>Node1</title>
<polygon fill="#bfbfbf" stroke="black" points="63.5,-0.5 63.5,-19.5 218.5,-19.5 218.5,-0.5 63.5,-0.5"/>
<text text-anchor="middle" x="141" y="-7.5" font-family="Helvetica,sans-Serif" font-size="10.00">commands.CommandsTurtle</text>
</g>
<!-- Node2 -->
<g id="node2" class="node"><title>Node2</title>
<g id="a_node2"><a xlink:href="../../d3/de9/interfacecommands_1_1_i_command.html" target="_top" xlink:title="commands.ICommand">
<polygon fill="white" stroke="black" points="0,-74.5 0,-93.5 126,-93.5 126,-74.5 0,-74.5"/>
<text text-anchor="middle" x="63" y="-81.5" font-family="Helvetica,sans-Serif" font-size="10.00">commands.ICommand</text>
</a>
</g>
</g>
<!-- Node2&#45;&gt;Node1 -->
<g id="edge1" class="edge"><title>Node2&#45;&gt;Node1</title>
<path fill="none" stroke="midnightblue" d="M79.8011,-67.4913C95.7009,-52.8145 118.981,-31.325 131.758,-19.531"/>
<polygon fill="midnightblue" stroke="midnightblue" points="77.228,-65.1033 72.2539,-74.4579 81.976,-70.2469 77.228,-65.1033"/>
</g>
<!-- Node3 -->
<g id="node3" class="node"><title>Node3</title>
<g id="a_node3"><a xlink:href="../../d1/d2a/class_movement_and_image_a_p_i_1_1src_1_1_general_turtle_handler.html" target="_top" xlink:title="MovementAndImageAPI.src.\lGeneralTurtleHandler">
<polygon fill="white" stroke="black" points="144,-69 144,-99 296,-99 296,-69 144,-69"/>
<text text-anchor="start" x="152" y="-87" font-family="Helvetica,sans-Serif" font-size="10.00">MovementAndImageAPI.src.</text>
<text text-anchor="middle" x="220" y="-76" font-family="Helvetica,sans-Serif" font-size="10.00">GeneralTurtleHandler</text>
</a>
</g>
</g>
<!-- Node3&#45;&gt;Node1 -->
<g id="edge2" class="edge"><title>Node3&#45;&gt;Node1</title>
<path fill="none" stroke="#9a32cd" stroke-dasharray="5,2" d="M196.773,-61.8307C181.385,-47.8062 162.004,-30.1426 150.61,-19.7589"/>
<polygon fill="#9a32cd" stroke="#9a32cd" points="194.644,-64.6259 204.392,-68.7751 199.359,-59.4522 194.644,-64.6259"/>
<text text-anchor="middle" x="216.5" y="-41.5" font-family="Helvetica,sans-Serif" font-size="10.00"> turtleHandler</text>
</g>
</g>
</svg>
