<?xml version="1.0" encoding="UTF-8" standalone="no"?>
<!DOCTYPE svg PUBLIC "-//W3C//DTD SVG 1.1//EN"
 "http://www.w3.org/Graphics/SVG/1.1/DTD/svg11.dtd">
<!-- Generated by graphviz version 2.36.0 (20140111.2315)
 -->
<!-- Title: MovementAndImageAPI.src.ImageUpdater.drawLine Pages: 1 -->
<svg width="566pt" height="361pt"
 viewBox="0.00 0.00 566.00 361.00" xmlns="http://www.w3.org/2000/svg" xmlns:xlink="http://www.w3.org/1999/xlink">
<g id="graph0" class="graph" transform="scale(1 1) rotate(0) translate(4 357)">
<title>MovementAndImageAPI.src.ImageUpdater.drawLine</title>
<polygon fill="white" stroke="none" points="-4,4 -4,-357 562,-357 562,4 -4,4"/>
<!-- Node1 -->
<g id="node1" class="node"><title>Node1</title>
<polygon fill="#bfbfbf" stroke="black" points="0,-169 0,-199 152,-199 152,-169 0,-169"/>
<text text-anchor="start" x="8" y="-187" font-family="Helvetica,sans-Serif" font-size="10.00">MovementAndImageAPI.src.</text>
<text text-anchor="middle" x="76" y="-176" font-family="Helvetica,sans-Serif" font-size="10.00">ImageUpdater.drawLine</text>
</g>
<!-- Node2 -->
<g id="node2" class="node"><title>Node2</title>
<g id="a_node2"><a xlink:href="../../da/d31/class_movement_and_image_a_p_i_1_1src_1_1_image_updater.html#a08e8ba7624dbce157332a73670072c78" target="_top" xlink:title="MovementAndImageAPI.src.\lImageUpdater.ensurePositive">
<polygon fill="white" stroke="black" points="197,-323 197,-353 355,-353 355,-323 197,-323"/>
<text text-anchor="start" x="205" y="-341" font-family="Helvetica,sans-Serif" font-size="10.00">MovementAndImageAPI.src.</text>
<text text-anchor="middle" x="276" y="-330" font-family="Helvetica,sans-Serif" font-size="10.00">ImageUpdater.ensurePositive</text>
</a>
</g>
</g>
<!-- Node1&#45;&gt;Node2 -->
<g id="edge1" class="edge"><title>Node1&#45;&gt;Node2</title>
<path fill="none" stroke="midnightblue" d="M86.7576,-199.237C104.1,-225.158 142.754,-277.944 188,-308 194.222,-312.133 201.072,-315.757 208.115,-318.92"/>
<polygon fill="midnightblue" stroke="midnightblue" points="207.219,-322.338 217.796,-322.952 209.91,-315.876 207.219,-322.338"/>
</g>
<!-- Node3 -->
<g id="node3" class="node"><title>Node3</title>
<g id="a_node3"><a xlink:href="../../da/d31/class_movement_and_image_a_p_i_1_1src_1_1_image_updater.html#a049f8e63bcdbe91f5fad63c778030fb4" target="_top" xlink:title="MovementAndImageAPI.src.\lImageUpdater.findBoundaryPoint">
<polygon fill="white" stroke="black" points="188.5,-235 188.5,-265 363.5,-265 363.5,-235 188.5,-235"/>
<text text-anchor="start" x="196.5" y="-253" font-family="Helvetica,sans-Serif" font-size="10.00">MovementAndImageAPI.src.</text>
<text text-anchor="middle" x="276" y="-242" font-family="Helvetica,sans-Serif" font-size="10.00">ImageUpdater.findBoundaryPoint</text>
</a>
</g>
</g>
<!-- Node1&#45;&gt;Node3 -->
<g id="edge2" class="edge"><title>Node1&#45;&gt;Node3</title>
<path fill="none" stroke="midnightblue" d="M122.425,-199.142C151.478,-208.826 189.339,-221.446 220.077,-231.692"/>
<polygon fill="midnightblue" stroke="midnightblue" points="219.193,-235.087 229.786,-234.929 221.406,-228.446 219.193,-235.087"/>
</g>
<!-- Node4 -->
<g id="node4" class="node"><title>Node4</title>
<g id="a_node4"><a xlink:href="../../da/d31/class_movement_and_image_a_p_i_1_1src_1_1_image_updater.html#a03f6a2a06e7a7476405345f6fcb3dad5" target="_top" xlink:title="MovementAndImageAPI.src.\lImageUpdater.xOutOfBounds">
<polygon fill="white" stroke="black" points="400.5,-313 400.5,-343 557.5,-343 557.5,-313 400.5,-313"/>
<text text-anchor="start" x="408.5" y="-331" font-family="Helvetica,sans-Serif" font-size="10.00">MovementAndImageAPI.src.</text>
<text text-anchor="middle" x="479" y="-320" font-family="Helvetica,sans-Serif" font-size="10.00">ImageUpdater.xOutOfBounds</text>
</a>
</g>
</g>
<!-- Node1&#45;&gt;Node4 -->
<g id="edge14" class="edge"><title>Node1&#45;&gt;Node4</title>
<path fill="none" stroke="midnightblue" d="M90.7984,-199.162C110.333,-219.612 148.134,-255.586 188,-274 223.246,-290.28 318.466,-306.217 390.257,-316.508"/>
<polygon fill="midnightblue" stroke="midnightblue" points="389.83,-319.982 400.223,-317.922 390.813,-313.052 389.83,-319.982"/>
</g>
<!-- Node5 -->
<g id="node5" class="node"><title>Node5</title>
<g id="a_node5"><a xlink:href="../../da/d31/class_movement_and_image_a_p_i_1_1src_1_1_image_updater.html#af0f2404b46ab5bd003906d97d8460654" target="_top" xlink:title="MovementAndImageAPI.src.\lImageUpdater.yOutOfBounds">
<polygon fill="white" stroke="black" points="400.5,-166 400.5,-196 557.5,-196 557.5,-166 400.5,-166"/>
<text text-anchor="start" x="408.5" y="-184" font-family="Helvetica,sans-Serif" font-size="10.00">MovementAndImageAPI.src.</text>
<text text-anchor="middle" x="479" y="-173" font-family="Helvetica,sans-Serif" font-size="10.00">ImageUpdater.yOutOfBounds</text>
</a>
</g>
</g>
<!-- Node1&#45;&gt;Node5 -->
<g id="edge15" class="edge"><title>Node1&#45;&gt;Node5</title>
<path fill="none" stroke="midnightblue" d="M152.23,-185.539C164.195,-185.731 176.436,-185.896 188,-186 266.219,-186.705 285.797,-187.714 364,-186 372.562,-185.812 381.484,-185.545 390.399,-185.231"/>
<polygon fill="midnightblue" stroke="midnightblue" points="390.578,-188.727 400.442,-184.859 390.319,-181.732 390.578,-188.727"/>
</g>
<!-- Node8 -->
<g id="node8" class="node"><title>Node8</title>
<g id="a_node8"><a xlink:href="../../da/d31/class_movement_and_image_a_p_i_1_1src_1_1_image_updater.html#a99fe830ba09a4ee088ef04eebc1b2183" target="_top" xlink:title="MovementAndImageAPI.src.\lImageUpdater.findNewStartPoint">
<polygon fill="white" stroke="black" points="189.5,-147 189.5,-177 362.5,-177 362.5,-147 189.5,-147"/>
<text text-anchor="start" x="197.5" y="-165" font-family="Helvetica,sans-Serif" font-size="10.00">MovementAndImageAPI.src.</text>
<text text-anchor="middle" x="276" y="-154" font-family="Helvetica,sans-Serif" font-size="10.00">ImageUpdater.findNewStartPoint</text>
</a>
</g>
</g>
<!-- Node1&#45;&gt;Node8 -->
<g id="edge7" class="edge"><title>Node1&#45;&gt;Node8</title>
<path fill="none" stroke="midnightblue" d="M152.138,-175.651C160.961,-174.671 170.052,-173.661 179.109,-172.655"/>
<polygon fill="midnightblue" stroke="midnightblue" points="179.752,-176.105 189.304,-171.522 178.979,-169.148 179.752,-176.105"/>
</g>
<!-- Node9 -->
<g id="node9" class="node"><title>Node9</title>
<g id="a_node9"><a xlink:href="../../da/d8f/class_movement_and_image_a_p_i_1_1src_1_1_pen_handler.html#ab73c37fd9bab639a2253b5a5817387a9" target="_top" xlink:title="MovementAndImageAPI.src.\lPenHandler.getLineWidth">
<polygon fill="white" stroke="black" points="200,-98 200,-128 352,-128 352,-98 200,-98"/>
<text text-anchor="start" x="208" y="-116" font-family="Helvetica,sans-Serif" font-size="10.00">MovementAndImageAPI.src.</text>
<text text-anchor="middle" x="276" y="-105" font-family="Helvetica,sans-Serif" font-size="10.00">PenHandler.getLineWidth</text>
</a>
</g>
</g>
<!-- Node1&#45;&gt;Node9 -->
<g id="edge8" class="edge"><title>Node1&#45;&gt;Node9</title>
<path fill="none" stroke="midnightblue" d="M109.585,-168.866C131.473,-159.033 161.12,-146.353 188,-137 193.924,-134.939 200.122,-132.935 206.365,-131.022"/>
<polygon fill="midnightblue" stroke="midnightblue" points="207.596,-134.307 216.178,-128.094 205.594,-127.6 207.596,-134.307"/>
</g>
<!-- Node11 -->
<g id="node11" class="node"><title>Node11</title>
<g id="a_node11"><a xlink:href="../../da/d8f/class_movement_and_image_a_p_i_1_1src_1_1_pen_handler.html#a64a9b8fde73c28f0683640b081d884f1" target="_top" xlink:title="MovementAndImageAPI.src.\lPenHandler.getPenColor">
<polygon fill="white" stroke="black" points="200,-49 200,-79 352,-79 352,-49 200,-49"/>
<text text-anchor="start" x="208" y="-67" font-family="Helvetica,sans-Serif" font-size="10.00">MovementAndImageAPI.src.</text>
<text text-anchor="middle" x="276" y="-56" font-family="Helvetica,sans-Serif" font-size="10.00">PenHandler.getPenColor</text>
</a>
</g>
</g>
<!-- Node1&#45;&gt;Node11 -->
<g id="edge10" class="edge"><title>Node1&#45;&gt;Node11</title>
<path fill="none" stroke="midnightblue" d="M90.4968,-168.651C109.966,-147.445 148.009,-109.388 188,-88 191.476,-86.1411 195.108,-84.4158 198.834,-82.8158"/>
<polygon fill="midnightblue" stroke="midnightblue" points="200.236,-86.0249 208.248,-79.0919 197.661,-79.5157 200.236,-86.0249"/>
</g>
<!-- Node13 -->
<g id="node13" class="node"><title>Node13</title>
<g id="a_node13"><a xlink:href="../../da/d8f/class_movement_and_image_a_p_i_1_1src_1_1_pen_handler.html#ad3f35e8b9605bde22fcbb5bc3e15cbf5" target="_top" xlink:title="MovementAndImageAPI.src.\lPenHandler.getPenPosition">
<polygon fill="white" stroke="black" points="200,-0 200,-30 352,-30 352,-0 200,-0"/>
<text text-anchor="start" x="208" y="-18" font-family="Helvetica,sans-Serif" font-size="10.00">MovementAndImageAPI.src.</text>
<text text-anchor="middle" x="276" y="-7" font-family="Helvetica,sans-Serif" font-size="10.00">PenHandler.getPenPosition</text>
</a>
</g>
</g>
<!-- Node1&#45;&gt;Node13 -->
<g id="edge12" class="edge"><title>Node1&#45;&gt;Node13</title>
<path fill="none" stroke="midnightblue" d="M84.4055,-168.656C99.5554,-138.927 137.007,-73.3869 188,-39 190.296,-37.4519 192.689,-36.0032 195.156,-34.6475"/>
<polygon fill="midnightblue" stroke="midnightblue" points="196.924,-37.6784 204.363,-30.1343 193.843,-31.3929 196.924,-37.6784"/>
</g>
<!-- Node3&#45;&gt;Node4 -->
<g id="edge3" class="edge"><title>Node3&#45;&gt;Node4</title>
<path fill="none" stroke="midnightblue" d="M327.505,-265.154C339.681,-269.421 352.493,-274.437 364,-280 381.094,-288.264 382.816,-294.924 400,-303 404.705,-305.211 409.658,-307.301 414.691,-309.259"/>
<polygon fill="midnightblue" stroke="midnightblue" points="413.832,-312.673 424.425,-312.858 416.259,-306.107 413.832,-312.673"/>
</g>
<!-- Node3&#45;&gt;Node5 -->
<g id="edge4" class="edge"><title>Node3&#45;&gt;Node5</title>
<path fill="none" stroke="midnightblue" d="M322.349,-234.964C335.817,-230.337 350.56,-225.112 364,-220 380.201,-213.838 383.698,-210.889 400,-205 405.463,-203.026 411.178,-201.069 416.922,-199.174"/>
<polygon fill="midnightblue" stroke="midnightblue" points="418.141,-202.459 426.579,-196.051 415.987,-195.798 418.141,-202.459"/>
</g>
<!-- Node6 -->
<g id="node6" class="node"><title>Node6</title>
<g id="a_node6"><a xlink:href="../../da/d31/class_movement_and_image_a_p_i_1_1src_1_1_image_updater.html#a24866e7c0871e72ff9bb226fa477ee2b" target="_top" xlink:title="MovementAndImageAPI.src.\lImageUpdater.xBoundary">
<polygon fill="white" stroke="black" points="403,-264 403,-294 555,-294 555,-264 403,-264"/>
<text text-anchor="start" x="411" y="-282" font-family="Helvetica,sans-Serif" font-size="10.00">MovementAndImageAPI.src.</text>
<text text-anchor="middle" x="479" y="-271" font-family="Helvetica,sans-Serif" font-size="10.00">ImageUpdater.xBoundary</text>
</a>
</g>
</g>
<!-- Node3&#45;&gt;Node6 -->
<g id="edge5" class="edge"><title>Node3&#45;&gt;Node6</title>
<path fill="none" stroke="midnightblue" d="M363.7,-262.509C373.4,-263.908 383.274,-265.333 392.953,-266.73"/>
<polygon fill="midnightblue" stroke="midnightblue" points="392.555,-270.208 402.952,-268.172 393.555,-263.28 392.555,-270.208"/>
</g>
<!-- Node7 -->
<g id="node7" class="node"><title>Node7</title>
<g id="a_node7"><a xlink:href="../../da/d31/class_movement_and_image_a_p_i_1_1src_1_1_image_updater.html#ad79a0592d012a80c6db9c91909440415" target="_top" xlink:title="MovementAndImageAPI.src.\lImageUpdater.yBoundary">
<polygon fill="white" stroke="black" points="403,-215 403,-245 555,-245 555,-215 403,-215"/>
<text text-anchor="start" x="411" y="-233" font-family="Helvetica,sans-Serif" font-size="10.00">MovementAndImageAPI.src.</text>
<text text-anchor="middle" x="479" y="-222" font-family="Helvetica,sans-Serif" font-size="10.00">ImageUpdater.yBoundary</text>
</a>
</g>
</g>
<!-- Node3&#45;&gt;Node7 -->
<g id="edge6" class="edge"><title>Node3&#45;&gt;Node7</title>
<path fill="none" stroke="midnightblue" d="M363.7,-241.373C373.4,-240.408 383.274,-239.425 392.953,-238.462"/>
<polygon fill="midnightblue" stroke="midnightblue" points="393.348,-241.94 402.952,-237.467 392.655,-234.975 393.348,-241.94"/>
</g>
<!-- Node10 -->
<g id="node10" class="node"><title>Node10</title>
<g id="a_node10"><a xlink:href="../../d2/d78/class_movement_and_image_a_p_i_1_1src_1_1_pen.html#aecf75855f964eb9eb238cae05df975a6" target="_top" xlink:title="MovementAndImageAPI.src.\lPen.getLineWidth">
<polygon fill="white" stroke="black" points="403,-98 403,-128 555,-128 555,-98 403,-98"/>
<text text-anchor="start" x="411" y="-116" font-family="Helvetica,sans-Serif" font-size="10.00">MovementAndImageAPI.src.</text>
<text text-anchor="middle" x="479" y="-105" font-family="Helvetica,sans-Serif" font-size="10.00">Pen.getLineWidth</text>
</a>
</g>
</g>
<!-- Node9&#45;&gt;Node10 -->
<g id="edge9" class="edge"><title>Node9&#45;&gt;Node10</title>
<path fill="none" stroke="midnightblue" d="M352.131,-113C365.37,-113 379.239,-113 392.732,-113"/>
<polygon fill="midnightblue" stroke="midnightblue" points="392.96,-116.5 402.96,-113 392.96,-109.5 392.96,-116.5"/>
</g>
<!-- Node12 -->
<g id="node12" class="node"><title>Node12</title>
<g id="a_node12"><a xlink:href="../../d2/d78/class_movement_and_image_a_p_i_1_1src_1_1_pen.html#a8d076af52cf4510ecda7a874ee978fc2" target="_top" xlink:title="MovementAndImageAPI.src.\lPen.getPenColor">
<polygon fill="white" stroke="black" points="403,-49 403,-79 555,-79 555,-49 403,-49"/>
<text text-anchor="start" x="411" y="-67" font-family="Helvetica,sans-Serif" font-size="10.00">MovementAndImageAPI.src.</text>
<text text-anchor="middle" x="479" y="-56" font-family="Helvetica,sans-Serif" font-size="10.00">Pen.getPenColor</text>
</a>
</g>
</g>
<!-- Node11&#45;&gt;Node12 -->
<g id="edge11" class="edge"><title>Node11&#45;&gt;Node12</title>
<path fill="none" stroke="midnightblue" d="M352.131,-64C365.37,-64 379.239,-64 392.732,-64"/>
<polygon fill="midnightblue" stroke="midnightblue" points="392.96,-67.5001 402.96,-64 392.96,-60.5001 392.96,-67.5001"/>
</g>
<!-- Node14 -->
<g id="node14" class="node"><title>Node14</title>
<g id="a_node14"><a xlink:href="../../d2/d78/class_movement_and_image_a_p_i_1_1src_1_1_pen.html#a3f3cdbaef2a7328e6051567cc29975fb" target="_top" xlink:title="MovementAndImageAPI.src.\lPen.getPenPosition">
<polygon fill="white" stroke="black" points="403,-0 403,-30 555,-30 555,-0 403,-0"/>
<text text-anchor="start" x="411" y="-18" font-family="Helvetica,sans-Serif" font-size="10.00">MovementAndImageAPI.src.</text>
<text text-anchor="middle" x="479" y="-7" font-family="Helvetica,sans-Serif" font-size="10.00">Pen.getPenPosition</text>
</a>
</g>
</g>
<!-- Node13&#45;&gt;Node14 -->
<g id="edge13" class="edge"><title>Node13&#45;&gt;Node14</title>
<path fill="none" stroke="midnightblue" d="M352.131,-15C365.37,-15 379.239,-15 392.732,-15"/>
<polygon fill="midnightblue" stroke="midnightblue" points="392.96,-18.5001 402.96,-15 392.96,-11.5001 392.96,-18.5001"/>
</g>
</g>
</svg>
