<?xml version="1.0" encoding="UTF-8" standalone="no"?>
<!DOCTYPE svg PUBLIC "-//W3C//DTD SVG 1.1//EN"
 "http://www.w3.org/Graphics/SVG/1.1/DTD/svg11.dtd">
<!-- Generated by graphviz version 2.36.0 (20140111.2315)
 -->
<!-- Title: MovementAndImageAPI.src.ImageUpdater.getTurtleCanvasSize Pages: 1 -->
<svg width="582pt" height="48pt"
 viewBox="0.00 0.00 582.00 48.00" xmlns="http://www.w3.org/2000/svg" xmlns:xlink="http://www.w3.org/1999/xlink">
<g id="graph0" class="graph" transform="scale(1 1) rotate(0) translate(4 44)">
<title>MovementAndImageAPI.src.ImageUpdater.getTurtleCanvasSize</title>
<polygon fill="white" stroke="none" points="-4,4 -4,-44 578,-44 578,4 -4,4"/>
<!-- Node1 -->
<g id="node1" class="node"><title>Node1</title>
<polygon fill="#bfbfbf" stroke="black" points="0.5,-5 0.5,-35 185.5,-35 185.5,-5 0.5,-5"/>
<text text-anchor="start" x="8.5" y="-23" font-family="Helvetica,sans-Serif" font-size="10.00">MovementAndImageAPI.src.</text>
<text text-anchor="middle" x="93" y="-12" font-family="Helvetica,sans-Serif" font-size="10.00">ImageUpdater.getTurtleCanvasSize</text>
</g>
<!-- Node2 -->
<g id="node2" class="node"><title>Node2</title>
<g id="a_node2"><a xlink:href="../../d4/d0f/class_movement_and_image_a_p_i_1_1src_1_1_turtle_handler.html#a2ea695e787018d10ea88d4b9a15c8f2a" target="_top" xlink:title="MovementAndImageAPI.src.\lTurtleHandler.getTurtleLocation\lInCanvas">
<polygon fill="white" stroke="black" points="222,0.5 222,-40.5 386,-40.5 386,0.5 222,0.5"/>
<text text-anchor="start" x="230" y="-28.5" font-family="Helvetica,sans-Serif" font-size="10.00">MovementAndImageAPI.src.</text>
<text text-anchor="start" x="230" y="-17.5" font-family="Helvetica,sans-Serif" font-size="10.00">TurtleHandler.getTurtleLocation</text>
<text text-anchor="middle" x="304" y="-6.5" font-family="Helvetica,sans-Serif" font-size="10.00">InCanvas</text>
</a>
</g>
</g>
<!-- Node1&#45;&gt;Node2 -->
<g id="edge1" class="edge"><title>Node1&#45;&gt;Node2</title>
<path fill="none" stroke="midnightblue" d="M195.89,-20C204.618,-20 213.37,-20 221.903,-20"/>
<polygon fill="midnightblue" stroke="midnightblue" points="195.67,-16.5001 185.67,-20 195.67,-23.5001 195.67,-16.5001"/>
</g>
<!-- Node3 -->
<g id="node3" class="node"><title>Node3</title>
<g id="a_node3"><a xlink:href="../../d4/d0f/class_movement_and_image_a_p_i_1_1src_1_1_turtle_handler.html#a95e798d7c5caefdc1472c01f1438adaa" target="_top" xlink:title="MovementAndImageAPI.src.\lTurtleHandler.towards">
<polygon fill="white" stroke="black" points="422,-5 422,-35 574,-35 574,-5 422,-5"/>
<text text-anchor="start" x="430" y="-23" font-family="Helvetica,sans-Serif" font-size="10.00">MovementAndImageAPI.src.</text>
<text text-anchor="middle" x="498" y="-12" font-family="Helvetica,sans-Serif" font-size="10.00">TurtleHandler.towards</text>
</a>
</g>
</g>
<!-- Node2&#45;&gt;Node3 -->
<g id="edge2" class="edge"><title>Node2&#45;&gt;Node3</title>
<path fill="none" stroke="midnightblue" d="M396.221,-20C404.837,-20 413.505,-20 421.945,-20"/>
<polygon fill="midnightblue" stroke="midnightblue" points="396.147,-16.5001 386.147,-20 396.147,-23.5001 396.147,-16.5001"/>
</g>
</g>
</svg>
