<?xml version="1.0" encoding="UTF-8" standalone="no"?>
<!DOCTYPE svg PUBLIC "-//W3C//DTD SVG 1.1//EN"
 "http://www.w3.org/Graphics/SVG/1.1/DTD/svg11.dtd">
<!-- Generated by graphviz version 2.36.0 (20140111.2315)
 -->
<!-- Title: MovementAndImageAPI.src.ImageUpdater.yOutOfBounds Pages: 1 -->
<svg width="1252pt" height="98pt"
 viewBox="0.00 0.00 1252.00 98.00" xmlns="http://www.w3.org/2000/svg" xmlns:xlink="http://www.w3.org/1999/xlink">
<g id="graph0" class="graph" transform="scale(1 1) rotate(0) translate(4 94)">
<title>MovementAndImageAPI.src.ImageUpdater.yOutOfBounds</title>
<polygon fill="white" stroke="none" points="-4,4 -4,-94 1248,-94 1248,4 -4,4"/>
<!-- Node1 -->
<g id="node1" class="node"><title>Node1</title>
<polygon fill="#bfbfbf" stroke="black" points="0.5,-33 0.5,-63 157.5,-63 157.5,-33 0.5,-33"/>
<text text-anchor="start" x="8.5" y="-51" font-family="Helvetica,sans-Serif" font-size="10.00">MovementAndImageAPI.src.</text>
<text text-anchor="middle" x="79" y="-40" font-family="Helvetica,sans-Serif" font-size="10.00">ImageUpdater.yOutOfBounds</text>
</g>
<!-- Node2 -->
<g id="node2" class="node"><title>Node2</title>
<g id="a_node2"><a xlink:href="../../da/d31/class_movement_and_image_a_p_i_1_1src_1_1_image_updater.html#a194a73bcc0c675e5d7d9182847805455" target="_top" xlink:title="MovementAndImageAPI.src.\lImageUpdater.drawLine">
<polygon fill="white" stroke="black" points="406,-33 406,-63 558,-63 558,-33 406,-33"/>
<text text-anchor="start" x="414" y="-51" font-family="Helvetica,sans-Serif" font-size="10.00">MovementAndImageAPI.src.</text>
<text text-anchor="middle" x="482" y="-40" font-family="Helvetica,sans-Serif" font-size="10.00">ImageUpdater.drawLine</text>
</a>
</g>
</g>
<!-- Node1&#45;&gt;Node2 -->
<g id="edge1" class="edge"><title>Node1&#45;&gt;Node2</title>
<path fill="none" stroke="midnightblue" d="M167.612,-49.6926C176.525,-49.8182 185.443,-49.9249 194,-50 272.219,-50.6861 291.781,-50.7046 370,-50 381.564,-49.8958 393.805,-49.7306 405.77,-49.5387"/>
<polygon fill="midnightblue" stroke="midnightblue" points="167.622,-46.1925 157.571,-49.5435 167.518,-53.1917 167.622,-46.1925"/>
</g>
<!-- Node8 -->
<g id="node8" class="node"><title>Node8</title>
<g id="a_node8"><a xlink:href="../../da/d31/class_movement_and_image_a_p_i_1_1src_1_1_image_updater.html#a049f8e63bcdbe91f5fad63c778030fb4" target="_top" xlink:title="MovementAndImageAPI.src.\lImageUpdater.findBoundaryPoint">
<polygon fill="white" stroke="black" points="194.5,-11 194.5,-41 369.5,-41 369.5,-11 194.5,-11"/>
<text text-anchor="start" x="202.5" y="-29" font-family="Helvetica,sans-Serif" font-size="10.00">MovementAndImageAPI.src.</text>
<text text-anchor="middle" x="282" y="-18" font-family="Helvetica,sans-Serif" font-size="10.00">ImageUpdater.findBoundaryPoint</text>
</a>
</g>
</g>
<!-- Node1&#45;&gt;Node8 -->
<g id="edge7" class="edge"><title>Node1&#45;&gt;Node8</title>
<path fill="none" stroke="midnightblue" d="M167.678,-38.4034C176.569,-37.4302 185.597,-36.4421 194.476,-35.4703"/>
<polygon fill="midnightblue" stroke="midnightblue" points="167.272,-34.9269 157.712,-39.4942 168.033,-41.8853 167.272,-34.9269"/>
</g>
<!-- Node3 -->
<g id="node3" class="node"><title>Node3</title>
<g id="a_node3"><a xlink:href="../../d4/d0f/class_movement_and_image_a_p_i_1_1src_1_1_turtle_handler.html#adf01534451c018bc6b767aa8d42689bb" target="_top" xlink:title="MovementAndImageAPI.src.\lTurtleHandler.moveAndDraw">
<polygon fill="white" stroke="black" points="594,-33 594,-63 746,-63 746,-33 594,-33"/>
<text text-anchor="start" x="602" y="-51" font-family="Helvetica,sans-Serif" font-size="10.00">MovementAndImageAPI.src.</text>
<text text-anchor="middle" x="670" y="-40" font-family="Helvetica,sans-Serif" font-size="10.00">TurtleHandler.moveAndDraw</text>
</a>
</g>
</g>
<!-- Node2&#45;&gt;Node3 -->
<g id="edge2" class="edge"><title>Node2&#45;&gt;Node3</title>
<path fill="none" stroke="midnightblue" d="M568.147,-48C576.742,-48 585.426,-48 593.905,-48"/>
<polygon fill="midnightblue" stroke="midnightblue" points="568.117,-44.5001 558.117,-48 568.117,-51.5001 568.117,-44.5001"/>
</g>
<!-- Node4 -->
<g id="node4" class="node"><title>Node4</title>
<g id="a_node4"><a xlink:href="../../d4/d0f/class_movement_and_image_a_p_i_1_1src_1_1_turtle_handler.html#a47aab93cef3fa6ddcebacd40db48090b" target="_top" xlink:title="MovementAndImageAPI.src.\lTurtleHandler.updateTurtleLocation">
<polygon fill="white" stroke="black" points="783,-60 783,-90 965,-90 965,-60 783,-60"/>
<text text-anchor="start" x="791" y="-78" font-family="Helvetica,sans-Serif" font-size="10.00">MovementAndImageAPI.src.</text>
<text text-anchor="middle" x="874" y="-67" font-family="Helvetica,sans-Serif" font-size="10.00">TurtleHandler.updateTurtleLocation</text>
</a>
</g>
</g>
<!-- Node3&#45;&gt;Node4 -->
<g id="edge3" class="edge"><title>Node3&#45;&gt;Node4</title>
<path fill="none" stroke="midnightblue" d="M756.355,-59.4088C765.066,-60.5732 773.937,-61.7589 782.699,-62.9301"/>
<polygon fill="midnightblue" stroke="midnightblue" points="756.593,-55.9096 746.217,-58.0538 755.665,-62.8479 756.593,-55.9096"/>
</g>
<!-- Node7 -->
<g id="node7" class="node"><title>Node7</title>
<g id="a_node7"><a xlink:href="../../d4/d0f/class_movement_and_image_a_p_i_1_1src_1_1_turtle_handler.html#a508472221e2ec6de1f1fae9b04a661c4" target="_top" xlink:title="MovementAndImageAPI.src.\lTurtleHandler.updateTurtleAbsolute\lLocation">
<polygon fill="white" stroke="black" points="782.5,-0.5 782.5,-41.5 965.5,-41.5 965.5,-0.5 782.5,-0.5"/>
<text text-anchor="start" x="790.5" y="-29.5" font-family="Helvetica,sans-Serif" font-size="10.00">MovementAndImageAPI.src.</text>
<text text-anchor="start" x="790.5" y="-18.5" font-family="Helvetica,sans-Serif" font-size="10.00">TurtleHandler.updateTurtleAbsolute</text>
<text text-anchor="middle" x="874" y="-7.5" font-family="Helvetica,sans-Serif" font-size="10.00">Location</text>
</a>
</g>
</g>
<!-- Node3&#45;&gt;Node7 -->
<g id="edge6" class="edge"><title>Node3&#45;&gt;Node7</title>
<path fill="none" stroke="midnightblue" d="M756.258,-36.6041C764.887,-35.4508 773.672,-34.2765 782.354,-33.116"/>
<polygon fill="midnightblue" stroke="midnightblue" points="755.665,-33.1521 746.217,-37.9462 756.593,-40.0904 755.665,-33.1521"/>
</g>
<!-- Node5 -->
<g id="node5" class="node"><title>Node5</title>
<g id="a_node5"><a xlink:href="../../d0/d4b/class_main.html#a9aab0955c478f8846fae079b0c56e8d3" target="_top" xlink:title="Main.addKeyboardControl">
<polygon fill="white" stroke="black" points="1002.5,-65.5 1002.5,-84.5 1141.5,-84.5 1141.5,-65.5 1002.5,-65.5"/>
<text text-anchor="middle" x="1072" y="-72.5" font-family="Helvetica,sans-Serif" font-size="10.00">Main.addKeyboardControl</text>
</a>
</g>
</g>
<!-- Node4&#45;&gt;Node5 -->
<g id="edge4" class="edge"><title>Node4&#45;&gt;Node5</title>
<path fill="none" stroke="midnightblue" d="M975.496,-75C984.57,-75 993.616,-75 1002.32,-75"/>
<polygon fill="midnightblue" stroke="midnightblue" points="975.255,-71.5001 965.255,-75 975.255,-78.5001 975.255,-71.5001"/>
</g>
<!-- Node6 -->
<g id="node6" class="node"><title>Node6</title>
<g id="a_node6"><a xlink:href="../../d0/d4b/class_main.html#aaa75b38812324d0f17c89f139bde6ada" target="_top" xlink:title="Main.start">
<polygon fill="white" stroke="black" points="1178.5,-65.5 1178.5,-84.5 1243.5,-84.5 1243.5,-65.5 1178.5,-65.5"/>
<text text-anchor="middle" x="1211" y="-72.5" font-family="Helvetica,sans-Serif" font-size="10.00">Main.start</text>
</a>
</g>
</g>
<!-- Node5&#45;&gt;Node6 -->
<g id="edge5" class="edge"><title>Node5&#45;&gt;Node6</title>
<path fill="none" stroke="midnightblue" d="M1152.06,-75C1161.35,-75 1170.38,-75 1178.44,-75"/>
<polygon fill="midnightblue" stroke="midnightblue" points="1151.9,-71.5001 1141.9,-75 1151.9,-78.5001 1151.9,-71.5001"/>
</g>
<!-- Node8&#45;&gt;Node2 -->
<g id="edge8" class="edge"><title>Node8&#45;&gt;Node2</title>
<path fill="none" stroke="midnightblue" d="M379.501,-36.7223C388.331,-37.7034 397.188,-38.6875 405.79,-39.6433"/>
<polygon fill="midnightblue" stroke="midnightblue" points="379.883,-33.2433 369.558,-35.6175 379.11,-40.2005 379.883,-33.2433"/>
</g>
</g>
</svg>
