<?xml version="1.0" encoding="UTF-8" standalone="no"?>
<!DOCTYPE svg PUBLIC "-//W3C//DTD SVG 1.1//EN"
 "http://www.w3.org/Graphics/SVG/1.1/DTD/svg11.dtd">
<!-- Generated by graphviz version 2.36.0 (20140111.2315)
 -->
<!-- Title: MovementAndImageAPI.src.ImageUpdater.updateTurtleImage Pages: 1 -->
<svg width="1124pt" height="283pt"
 viewBox="0.00 0.00 1124.00 283.00" xmlns="http://www.w3.org/2000/svg" xmlns:xlink="http://www.w3.org/1999/xlink">
<g id="graph0" class="graph" transform="scale(1 1) rotate(0) translate(4 279)">
<title>MovementAndImageAPI.src.ImageUpdater.updateTurtleImage</title>
<polygon fill="white" stroke="none" points="-4,4 -4,-279 1120,-279 1120,4 -4,4"/>
<!-- Node1 -->
<g id="node1" class="node"><title>Node1</title>
<polygon fill="#bfbfbf" stroke="black" points="0.5,-127 0.5,-157 177.5,-157 177.5,-127 0.5,-127"/>
<text text-anchor="start" x="8.5" y="-145" font-family="Helvetica,sans-Serif" font-size="10.00">MovementAndImageAPI.src.</text>
<text text-anchor="middle" x="89" y="-134" font-family="Helvetica,sans-Serif" font-size="10.00">ImageUpdater.updateTurtleImage</text>
</g>
<!-- Node2 -->
<g id="node2" class="node"><title>Node2</title>
<g id="a_node2"><a xlink:href="../../d4/d0f/class_movement_and_image_a_p_i_1_1src_1_1_turtle_handler.html#adf01534451c018bc6b767aa8d42689bb" target="_top" xlink:title="MovementAndImageAPI.src.\lTurtleHandler.moveAndDraw">
<polygon fill="white" stroke="black" points="230,-220 230,-250 382,-250 382,-220 230,-220"/>
<text text-anchor="start" x="238" y="-238" font-family="Helvetica,sans-Serif" font-size="10.00">MovementAndImageAPI.src.</text>
<text text-anchor="middle" x="306" y="-227" font-family="Helvetica,sans-Serif" font-size="10.00">TurtleHandler.moveAndDraw</text>
</a>
</g>
</g>
<!-- Node1&#45;&gt;Node2 -->
<g id="edge1" class="edge"><title>Node1&#45;&gt;Node2</title>
<path fill="none" stroke="midnightblue" d="M122.253,-162.42C146.697,-177.211 181.513,-196.841 214,-210 223.111,-213.691 232.95,-217.025 242.676,-219.966"/>
<polygon fill="midnightblue" stroke="midnightblue" points="123.775,-159.248 113.418,-157.012 120.12,-165.218 123.775,-159.248"/>
</g>
<!-- Node7 -->
<g id="node7" class="node"><title>Node7</title>
<g id="a_node7"><a xlink:href="../../d4/d0f/class_movement_and_image_a_p_i_1_1src_1_1_turtle_handler.html#a6b47711dbbda0e84e5228414a8dd8aa5" target="_top" xlink:title="MovementAndImageAPI.src.\lTurtleHandler.showTurtle">
<polygon fill="white" stroke="black" points="230,-171 230,-201 382,-201 382,-171 230,-171"/>
<text text-anchor="start" x="238" y="-189" font-family="Helvetica,sans-Serif" font-size="10.00">MovementAndImageAPI.src.</text>
<text text-anchor="middle" x="306" y="-178" font-family="Helvetica,sans-Serif" font-size="10.00">TurtleHandler.showTurtle</text>
</a>
</g>
</g>
<!-- Node1&#45;&gt;Node7 -->
<g id="edge6" class="edge"><title>Node1&#45;&gt;Node7</title>
<path fill="none" stroke="midnightblue" d="M173.321,-159.052C192.53,-162.983 212.825,-167.136 231.576,-170.974"/>
<polygon fill="midnightblue" stroke="midnightblue" points="173.888,-155.595 163.389,-157.019 172.485,-162.453 173.888,-155.595"/>
</g>
<!-- Node8 -->
<g id="node8" class="node"><title>Node8</title>
<g id="a_node8"><a xlink:href="../../d4/d0f/class_movement_and_image_a_p_i_1_1src_1_1_turtle_handler.html#ae7bd62e67c6a572a4efef91176eb370e" target="_top" xlink:title="MovementAndImageAPI.src.\lTurtleHandler.updateImage">
<polygon fill="white" stroke="black" points="230,-83 230,-113 382,-113 382,-83 230,-83"/>
<text text-anchor="start" x="238" y="-101" font-family="Helvetica,sans-Serif" font-size="10.00">MovementAndImageAPI.src.</text>
<text text-anchor="middle" x="306" y="-90" font-family="Helvetica,sans-Serif" font-size="10.00">TurtleHandler.updateImage</text>
</a>
</g>
</g>
<!-- Node1&#45;&gt;Node8 -->
<g id="edge7" class="edge"><title>Node1&#45;&gt;Node8</title>
<path fill="none" stroke="midnightblue" d="M173.321,-124.948C192.53,-121.017 212.825,-116.864 231.576,-113.026"/>
<polygon fill="midnightblue" stroke="midnightblue" points="172.485,-121.547 163.389,-126.981 173.888,-128.405 172.485,-121.547"/>
</g>
<!-- Node12 -->
<g id="node12" class="node"><title>Node12</title>
<g id="a_node12"><a xlink:href="../../d4/d0f/class_movement_and_image_a_p_i_1_1src_1_1_turtle_handler.html#a24e9fb6ae5a522e3142b165eaa68e94f" target="_top" xlink:title="MovementAndImageAPI.src.\lTurtleHandler.updateTurtleAbsolute\lOrientation">
<polygon fill="white" stroke="black" points="214.5,-13.5 214.5,-54.5 397.5,-54.5 397.5,-13.5 214.5,-13.5"/>
<text text-anchor="start" x="222.5" y="-42.5" font-family="Helvetica,sans-Serif" font-size="10.00">MovementAndImageAPI.src.</text>
<text text-anchor="start" x="222.5" y="-31.5" font-family="Helvetica,sans-Serif" font-size="10.00">TurtleHandler.updateTurtleAbsolute</text>
<text text-anchor="middle" x="306" y="-20.5" font-family="Helvetica,sans-Serif" font-size="10.00">Orientation</text>
</a>
</g>
</g>
<!-- Node1&#45;&gt;Node12 -->
<g id="edge13" class="edge"><title>Node1&#45;&gt;Node12</title>
<path fill="none" stroke="midnightblue" d="M124.182,-121.73C148.807,-107.438 183.016,-88.2098 214,-73 226.961,-66.6376 241.214,-60.2516 254.515,-54.5424"/>
<polygon fill="midnightblue" stroke="midnightblue" points="122.114,-118.885 115.24,-126.948 125.642,-124.931 122.114,-118.885"/>
</g>
<!-- Node14 -->
<g id="node14" class="node"><title>Node14</title>
<g id="a_node14"><a xlink:href="../../d4/d0f/class_movement_and_image_a_p_i_1_1src_1_1_turtle_handler.html#af8be08b68068574b061f2e3a2f02c524" target="_top" xlink:title="MovementAndImageAPI.src.\lTurtleHandler.updateTurtleOrientation">
<polygon fill="white" stroke="black" points="434,-137 434,-167 628,-167 628,-137 434,-137"/>
<text text-anchor="start" x="442" y="-155" font-family="Helvetica,sans-Serif" font-size="10.00">MovementAndImageAPI.src.</text>
<text text-anchor="middle" x="531" y="-144" font-family="Helvetica,sans-Serif" font-size="10.00">TurtleHandler.updateTurtleOrientation</text>
</a>
</g>
</g>
<!-- Node1&#45;&gt;Node14 -->
<g id="edge15" class="edge"><title>Node1&#45;&gt;Node14</title>
<path fill="none" stroke="midnightblue" d="M187.873,-144.224C261.113,-145.889 360.785,-148.154 433.654,-149.81"/>
<polygon fill="midnightblue" stroke="midnightblue" points="187.796,-140.722 177.719,-143.994 187.637,-147.72 187.796,-140.722"/>
</g>
<!-- Node3 -->
<g id="node3" class="node"><title>Node3</title>
<g id="a_node3"><a xlink:href="../../d4/d0f/class_movement_and_image_a_p_i_1_1src_1_1_turtle_handler.html#a47aab93cef3fa6ddcebacd40db48090b" target="_top" xlink:title="MovementAndImageAPI.src.\lTurtleHandler.updateTurtleLocation">
<polygon fill="white" stroke="black" points="440,-245 440,-275 622,-275 622,-245 440,-245"/>
<text text-anchor="start" x="448" y="-263" font-family="Helvetica,sans-Serif" font-size="10.00">MovementAndImageAPI.src.</text>
<text text-anchor="middle" x="531" y="-252" font-family="Helvetica,sans-Serif" font-size="10.00">TurtleHandler.updateTurtleLocation</text>
</a>
</g>
</g>
<!-- Node2&#45;&gt;Node3 -->
<g id="edge2" class="edge"><title>Node2&#45;&gt;Node3</title>
<path fill="none" stroke="midnightblue" d="M392.269,-244.559C407.79,-246.299 424.03,-248.12 439.69,-249.876"/>
<polygon fill="midnightblue" stroke="midnightblue" points="392.514,-241.065 382.187,-243.429 391.735,-248.021 392.514,-241.065"/>
</g>
<!-- Node6 -->
<g id="node6" class="node"><title>Node6</title>
<g id="a_node6"><a xlink:href="../../d4/d0f/class_movement_and_image_a_p_i_1_1src_1_1_turtle_handler.html#a508472221e2ec6de1f1fae9b04a661c4" target="_top" xlink:title="MovementAndImageAPI.src.\lTurtleHandler.updateTurtleAbsolute\lLocation">
<polygon fill="white" stroke="black" points="439.5,-185.5 439.5,-226.5 622.5,-226.5 622.5,-185.5 439.5,-185.5"/>
<text text-anchor="start" x="447.5" y="-214.5" font-family="Helvetica,sans-Serif" font-size="10.00">MovementAndImageAPI.src.</text>
<text text-anchor="start" x="447.5" y="-203.5" font-family="Helvetica,sans-Serif" font-size="10.00">TurtleHandler.updateTurtleAbsolute</text>
<text text-anchor="middle" x="531" y="-192.5" font-family="Helvetica,sans-Serif" font-size="10.00">Location</text>
</a>
</g>
</g>
<!-- Node2&#45;&gt;Node6 -->
<g id="edge5" class="edge"><title>Node2&#45;&gt;Node6</title>
<path fill="none" stroke="midnightblue" d="M392.199,-223.92C407.612,-221.916 423.735,-219.819 439.298,-217.795"/>
<polygon fill="midnightblue" stroke="midnightblue" points="391.652,-220.462 382.187,-225.222 392.555,-227.403 391.652,-220.462"/>
</g>
<!-- Node4 -->
<g id="node4" class="node"><title>Node4</title>
<g id="a_node4"><a xlink:href="../../d0/d4b/class_main.html#a9aab0955c478f8846fae079b0c56e8d3" target="_top" xlink:title="Main.addKeyboardControl">
<polygon fill="white" stroke="black" points="675.5,-142.5 675.5,-161.5 814.5,-161.5 814.5,-142.5 675.5,-142.5"/>
<text text-anchor="middle" x="745" y="-149.5" font-family="Helvetica,sans-Serif" font-size="10.00">Main.addKeyboardControl</text>
</a>
</g>
</g>
<!-- Node3&#45;&gt;Node4 -->
<g id="edge3" class="edge"><title>Node3&#45;&gt;Node4</title>
<path fill="none" stroke="midnightblue" d="M611.59,-241.741C617.23,-239.699 622.754,-237.456 628,-235 670.61,-215.048 713.869,-178.993 733.342,-161.727"/>
<polygon fill="midnightblue" stroke="midnightblue" points="610.363,-238.461 602.02,-244.991 612.615,-245.089 610.363,-238.461"/>
</g>
<!-- Node5 -->
<g id="node5" class="node"><title>Node5</title>
<g id="a_node5"><a xlink:href="../../d0/d4b/class_main.html#aaa75b38812324d0f17c89f139bde6ada" target="_top" xlink:title="Main.start">
<polygon fill="white" stroke="black" points="1050.5,-118.5 1050.5,-137.5 1115.5,-137.5 1115.5,-118.5 1050.5,-118.5"/>
<text text-anchor="middle" x="1083" y="-125.5" font-family="Helvetica,sans-Serif" font-size="10.00">Main.start</text>
</a>
</g>
</g>
<!-- Node4&#45;&gt;Node5 -->
<g id="edge4" class="edge"><title>Node4&#45;&gt;Node5</title>
<path fill="none" stroke="midnightblue" d="M825.17,-146.345C896.98,-141.216 999.184,-133.915 1050.31,-130.264"/>
<polygon fill="midnightblue" stroke="midnightblue" points="824.531,-142.882 814.805,-147.085 825.029,-149.864 824.531,-142.882"/>
</g>
<!-- Node9 -->
<g id="node9" class="node"><title>Node9</title>
<g id="a_node9"><a xlink:href="../../d7/daa/class_turtle_chooser_feature.html#a46a2a59cd3e594dff7798d6a31cb5c9c" target="_top" xlink:title="TurtleChooserFeature.open\lTurtleChooser">
<polygon fill="white" stroke="black" points="458.5,-49 458.5,-79 603.5,-79 603.5,-49 458.5,-49"/>
<text text-anchor="start" x="466.5" y="-67" font-family="Helvetica,sans-Serif" font-size="10.00">TurtleChooserFeature.open</text>
<text text-anchor="middle" x="531" y="-56" font-family="Helvetica,sans-Serif" font-size="10.00">TurtleChooser</text>
</a>
</g>
</g>
<!-- Node8&#45;&gt;Node9 -->
<g id="edge8" class="edge"><title>Node8&#45;&gt;Node9</title>
<path fill="none" stroke="midnightblue" d="M392.087,-85.0271C413.881,-81.7042 437.104,-78.1636 458.157,-74.9536"/>
<polygon fill="midnightblue" stroke="midnightblue" points="391.545,-81.5692 382.187,-86.5366 392.6,-88.4892 391.545,-81.5692"/>
</g>
<!-- Node11 -->
<g id="node11" class="node"><title>Node11</title>
<g id="a_node11"><a xlink:href="../../d5/d56/class_workspace.html#a429d535dfd8427637b7715f0b1e1df1b" target="_top" xlink:title="Workspace.createWorkspace">
<polygon fill="white" stroke="black" points="862,-98.5 862,-117.5 1014,-117.5 1014,-98.5 862,-98.5"/>
<text text-anchor="middle" x="938" y="-105.5" font-family="Helvetica,sans-Serif" font-size="10.00">Workspace.createWorkspace</text>
</a>
</g>
</g>
<!-- Node8&#45;&gt;Node11 -->
<g id="edge12" class="edge"><title>Node8&#45;&gt;Node11</title>
<path fill="none" stroke="midnightblue" d="M392.254,-99.3532C516.165,-101.32 744.058,-104.937 861.95,-106.809"/>
<polygon fill="midnightblue" stroke="midnightblue" points="392.109,-95.8506 382.055,-99.1913 391.998,-102.85 392.109,-95.8506"/>
</g>
<!-- Node10 -->
<g id="node10" class="node"><title>Node10</title>
<g id="a_node10"><a xlink:href="../../d5/d56/class_workspace.html#a6babd032d9af86fbc23812272d59a2d2" target="_top" xlink:title="Workspace.addFeatureButtons">
<polygon fill="white" stroke="black" points="664,-57.5 664,-76.5 826,-76.5 826,-57.5 664,-57.5"/>
<text text-anchor="middle" x="745" y="-64.5" font-family="Helvetica,sans-Serif" font-size="10.00">Workspace.addFeatureButtons</text>
</a>
</g>
</g>
<!-- Node9&#45;&gt;Node10 -->
<g id="edge9" class="edge"><title>Node9&#45;&gt;Node10</title>
<path fill="none" stroke="midnightblue" d="M613.881,-65.1587C630.309,-65.3912 647.552,-65.6352 663.918,-65.8668"/>
<polygon fill="midnightblue" stroke="midnightblue" points="613.822,-61.6576 603.774,-65.0157 613.723,-68.6569 613.822,-61.6576"/>
</g>
<!-- Node10&#45;&gt;Node11 -->
<g id="edge10" class="edge"><title>Node10&#45;&gt;Node11</title>
<path fill="none" stroke="midnightblue" d="M800.34,-78.6645C829.54,-84.9327 865.089,-92.5637 892.61,-98.4714"/>
<polygon fill="midnightblue" stroke="midnightblue" points="800.811,-75.1861 790.299,-76.5093 799.342,-82.0302 800.811,-75.1861"/>
</g>
<!-- Node11&#45;&gt;Node5 -->
<g id="edge11" class="edge"><title>Node11&#45;&gt;Node5</title>
<path fill="none" stroke="midnightblue" d="M1017.06,-118.918C1028.83,-120.564 1040.36,-122.177 1050.36,-123.575"/>
<polygon fill="midnightblue" stroke="midnightblue" points="1017.54,-115.45 1007.15,-117.531 1016.57,-122.383 1017.54,-115.45"/>
</g>
<!-- Node13 -->
<g id="node13" class="node"><title>Node13</title>
<g id="a_node13"><a xlink:href="../../d4/d0f/class_movement_and_image_a_p_i_1_1src_1_1_turtle_handler.html#a95e798d7c5caefdc1472c01f1438adaa" target="_top" xlink:title="MovementAndImageAPI.src.\lTurtleHandler.towards">
<polygon fill="white" stroke="black" points="455,-0 455,-30 607,-30 607,-0 455,-0"/>
<text text-anchor="start" x="463" y="-18" font-family="Helvetica,sans-Serif" font-size="10.00">MovementAndImageAPI.src.</text>
<text text-anchor="middle" x="531" y="-7" font-family="Helvetica,sans-Serif" font-size="10.00">TurtleHandler.towards</text>
</a>
</g>
</g>
<!-- Node12&#45;&gt;Node13 -->
<g id="edge14" class="edge"><title>Node12&#45;&gt;Node13</title>
<path fill="none" stroke="midnightblue" d="M407.975,-25.3967C423.689,-24.0579 439.684,-22.6951 454.697,-21.416"/>
<polygon fill="midnightblue" stroke="midnightblue" points="407.369,-21.9356 397.703,-26.272 407.964,-28.9103 407.369,-21.9356"/>
</g>
<!-- Node14&#45;&gt;Node4 -->
<g id="edge16" class="edge"><title>Node14&#45;&gt;Node4</title>
<path fill="none" stroke="midnightblue" d="M638.224,-152C650.895,-152 663.561,-152 675.499,-152"/>
<polygon fill="midnightblue" stroke="midnightblue" points="638.075,-148.5 628.075,-152 638.075,-155.5 638.075,-148.5"/>
</g>
</g>
</svg>
