<?xml version="1.0" encoding="UTF-8" standalone="no"?>
<!DOCTYPE svg PUBLIC "-//W3C//DTD SVG 1.1//EN"
 "http://www.w3.org/Graphics/SVG/1.1/DTD/svg11.dtd">
<!-- Generated by graphviz version 2.36.0 (20140111.2315)
 -->
<!-- Title: MovementAndImageAPI.src.ImageUpdater.ensurePositive Pages: 1 -->
<!--zoomable 288 -->
<svg id="main" version="1.1" xmlns="http://www.w3.org/2000/svg" xmlns:xlink="http://www.w3.org/1999/xlink" xml:space="preserve" onload="init(evt)">
<style type="text/css"><![CDATA[
.edge:hover path { stroke: red; }
.edge:hover polygon { stroke: red; fill: red; }
]]></style>
<script type="text/javascript"><![CDATA[
var edges = document.getElementsByTagName('g');
if (edges && edges.length) {
  for (var i=0;i<edges.length;i++) {
    if (edges[i].id.substr(0,4)=='edge') {
      edges[i].setAttribute('class','edge');
    }
  }
}
]]></script>
        <defs>
                <circle id="rim" cx="0" cy="0" r="7"/>
                <circle id="rim2" cx="0" cy="0" r="3.5"/>
                <g id="zoomPlus">
                        <use xlink:href="#rim" fill="#404040">
                                <set attributeName="fill" to="#808080" begin="zoomplus.mouseover" end="zoomplus.mouseout"/>
                        </use>
                        <path d="M-4,0h8M0,-4v8" fill="none" stroke="white" stroke-width="1.5" pointer-events="none"/>
                </g>
                <g id="zoomMin">
                        <use xlink:href="#rim" fill="#404040">
                                <set attributeName="fill" to="#808080" begin="zoomminus.mouseover" end="zoomminus.mouseout"/>
                        </use>
                        <path d="M-4,0h8" fill="none" stroke="white" stroke-width="1.5" pointer-events="none"/>
                </g>
                <g id="dirArrow">
                        <path fill="none" stroke="white" stroke-width="1.5" d="M0,-3.0v7 M-2.5,-0.5L0,-3.0L2.5,-0.5"/>
                </g>
               <g id="resetDef">
                       <use xlink:href="#rim2" fill="#404040">
                               <set attributeName="fill" to="#808080" begin="reset.mouseover" end="reset.mouseout"/>
                       </use>
               </g>
        </defs>

<script type="text/javascript">
var viewWidth = 1318;
var viewHeight = 288;
var sectionId = 'dynsection-6';
</script>
<script xlink:href="../../svgpan.js"/>
<svg id="graph" class="graph">
<g id="viewport">
<title>MovementAndImageAPI.src.ImageUpdater.ensurePositive</title>
<polygon fill="white" stroke="none" points="-4,4 -4,-284 1314,-284 1314,4 -4,4"/>
<!-- Node1 -->
<g id="node1" class="node"><title>Node1</title>
<polygon fill="#bfbfbf" stroke="black" points="0,-149 0,-179 158,-179 158,-149 0,-149"/>
<text text-anchor="start" x="8" y="-167" font-family="Helvetica,sans-Serif" font-size="10.00">MovementAndImageAPI.src.</text>
<text text-anchor="middle" x="79" y="-156" font-family="Helvetica,sans-Serif" font-size="10.00">ImageUpdater.ensurePositive</text>
</g>
<!-- Node2 -->
<g id="node2" class="node"><title>Node2</title>
<g id="a_node2"><a xlink:href="../../da/d31/class_movement_and_image_a_p_i_1_1src_1_1_image_updater.html#a194a73bcc0c675e5d7d9182847805455" target="_top" xlink:title="MovementAndImageAPI.src.\lImageUpdater.drawLine">
<polygon fill="white" stroke="black" points="207,-185 207,-215 359,-215 359,-185 207,-185"/>
<text text-anchor="start" x="215" y="-203" font-family="Helvetica,sans-Serif" font-size="10.00">MovementAndImageAPI.src.</text>
<text text-anchor="middle" x="283" y="-192" font-family="Helvetica,sans-Serif" font-size="10.00">ImageUpdater.drawLine</text>
</a>
</g>
</g>
<!-- Node1&#45;&gt;Node2 -->
<g id="edge1" class="edge"><title>Node1&#45;&gt;Node2</title>
<path fill="none" stroke="midnightblue" d="M168.307,-179.738C181.13,-182.023 194.231,-184.358 206.765,-186.592"/>
<polygon fill="midnightblue" stroke="midnightblue" points="168.557,-176.227 158.098,-177.919 167.329,-183.119 168.557,-176.227"/>
</g>
<!-- Node8 -->
<g id="node8" class="node"><title>Node8</title>
<g id="a_node8"><a xlink:href="../../da/d31/class_movement_and_image_a_p_i_1_1src_1_1_image_updater.html#adea0730f4ec25ebf5b16940420f9af0b" target="_top" xlink:title="MovementAndImageAPI.src.\lImageUpdater.updateTurtleImage">
<polygon fill="white" stroke="black" points="194.5,-114 194.5,-144 371.5,-144 371.5,-114 194.5,-114"/>
<text text-anchor="start" x="202.5" y="-132" font-family="Helvetica,sans-Serif" font-size="10.00">MovementAndImageAPI.src.</text>
<text text-anchor="middle" x="283" y="-121" font-family="Helvetica,sans-Serif" font-size="10.00">ImageUpdater.updateTurtleImage</text>
</a>
</g>
</g>
<!-- Node1&#45;&gt;Node8 -->
<g id="edge7" class="edge"><title>Node1&#45;&gt;Node8</title>
<path fill="none" stroke="midnightblue" d="M168.206,-148.717C177.225,-147.154 186.382,-145.567 195.384,-144.008"/>
<polygon fill="midnightblue" stroke="midnightblue" points="167.354,-145.312 158.098,-150.468 168.549,-152.209 167.354,-145.312"/>
</g>
<!-- Node3 -->
<g id="node3" class="node"><title>Node3</title>
<g id="a_node3"><a xlink:href="../../d4/d0f/class_movement_and_image_a_p_i_1_1src_1_1_turtle_handler.html#adf01534451c018bc6b767aa8d42689bb" target="_top" xlink:title="MovementAndImageAPI.src.\lTurtleHandler.moveAndDraw">
<polygon fill="white" stroke="black" points="424,-196 424,-226 576,-226 576,-196 424,-196"/>
<text text-anchor="start" x="432" y="-214" font-family="Helvetica,sans-Serif" font-size="10.00">MovementAndImageAPI.src.</text>
<text text-anchor="middle" x="500" y="-203" font-family="Helvetica,sans-Serif" font-size="10.00">TurtleHandler.moveAndDraw</text>
</a>
</g>
</g>
<!-- Node2&#45;&gt;Node3 -->
<g id="edge2" class="edge"><title>Node2&#45;&gt;Node3</title>
<path fill="none" stroke="midnightblue" d="M369.386,-204.369C387.388,-205.29 406.254,-206.255 423.846,-207.155"/>
<polygon fill="midnightblue" stroke="midnightblue" points="369.362,-200.863 359.197,-203.847 369.005,-207.854 369.362,-200.863"/>
</g>
<!-- Node4 -->
<g id="node4" class="node"><title>Node4</title>
<g id="a_node4"><a xlink:href="../../d4/d0f/class_movement_and_image_a_p_i_1_1src_1_1_turtle_handler.html#a47aab93cef3fa6ddcebacd40db48090b" target="_top" xlink:title="MovementAndImageAPI.src.\lTurtleHandler.updateTurtleLocation">
<polygon fill="white" stroke="black" points="634,-250 634,-280 816,-280 816,-250 634,-250"/>
<text text-anchor="start" x="642" y="-268" font-family="Helvetica,sans-Serif" font-size="10.00">MovementAndImageAPI.src.</text>
<text text-anchor="middle" x="725" y="-257" font-family="Helvetica,sans-Serif" font-size="10.00">TurtleHandler.updateTurtleLocation</text>
</a>
</g>
</g>
<!-- Node3&#45;&gt;Node4 -->
<g id="edge3" class="edge"><title>Node3&#45;&gt;Node4</title>
<path fill="none" stroke="midnightblue" d="M573.059,-228.449C601.675,-235.379 634.27,-243.272 661.829,-249.945"/>
<polygon fill="midnightblue" stroke="midnightblue" points="573.661,-224.994 563.118,-226.042 572.013,-231.797 573.661,-224.994"/>
</g>
<!-- Node7 -->
<g id="node7" class="node"><title>Node7</title>
<g id="a_node7"><a xlink:href="../../d4/d0f/class_movement_and_image_a_p_i_1_1src_1_1_turtle_handler.html#a508472221e2ec6de1f1fae9b04a661c4" target="_top" xlink:title="MovementAndImageAPI.src.\lTurtleHandler.updateTurtleAbsolute\lLocation">
<polygon fill="white" stroke="black" points="633.5,-190.5 633.5,-231.5 816.5,-231.5 816.5,-190.5 633.5,-190.5"/>
<text text-anchor="start" x="641.5" y="-219.5" font-family="Helvetica,sans-Serif" font-size="10.00">MovementAndImageAPI.src.</text>
<text text-anchor="start" x="641.5" y="-208.5" font-family="Helvetica,sans-Serif" font-size="10.00">TurtleHandler.updateTurtleAbsolute</text>
<text text-anchor="middle" x="725" y="-197.5" font-family="Helvetica,sans-Serif" font-size="10.00">Location</text>
</a>
</g>
</g>
<!-- Node3&#45;&gt;Node7 -->
<g id="edge6" class="edge"><title>Node3&#45;&gt;Node7</title>
<path fill="none" stroke="midnightblue" d="M586.199,-211C601.612,-211 617.735,-211 633.298,-211"/>
<polygon fill="midnightblue" stroke="midnightblue" points="586.187,-207.5 576.187,-211 586.187,-214.5 586.187,-207.5"/>
</g>
<!-- Node5 -->
<g id="node5" class="node"><title>Node5</title>
<g id="a_node5"><a xlink:href="../../d0/d4b/class_main.html#a9aab0955c478f8846fae079b0c56e8d3" target="_top" xlink:title="Main.addKeyboardControl">
<polygon fill="white" stroke="black" points="869.5,-147.5 869.5,-166.5 1008.5,-166.5 1008.5,-147.5 869.5,-147.5"/>
<text text-anchor="middle" x="939" y="-154.5" font-family="Helvetica,sans-Serif" font-size="10.00">Main.addKeyboardControl</text>
</a>
</g>
</g>
<!-- Node4&#45;&gt;Node5 -->
<g id="edge4" class="edge"><title>Node4&#45;&gt;Node5</title>
<path fill="none" stroke="midnightblue" d="M805.59,-246.741C811.23,-244.699 816.754,-242.456 822,-240 864.61,-220.048 907.869,-183.993 927.342,-166.727"/>
<polygon fill="midnightblue" stroke="midnightblue" points="804.363,-243.461 796.02,-249.991 806.615,-250.089 804.363,-243.461"/>
</g>
<!-- Node6 -->
<g id="node6" class="node"><title>Node6</title>
<g id="a_node6"><a xlink:href="../../d0/d4b/class_main.html#aaa75b38812324d0f17c89f139bde6ada" target="_top" xlink:title="Main.start">
<polygon fill="white" stroke="black" points="1244.5,-83.5 1244.5,-102.5 1309.5,-102.5 1309.5,-83.5 1244.5,-83.5"/>
<text text-anchor="middle" x="1277" y="-90.5" font-family="Helvetica,sans-Serif" font-size="10.00">Main.start</text>
</a>
</g>
</g>
<!-- Node5&#45;&gt;Node6 -->
<g id="edge5" class="edge"><title>Node5&#45;&gt;Node6</title>
<path fill="none" stroke="midnightblue" d="M1000.17,-145.54C1071.79,-131.898 1188.69,-109.63 1244.47,-99.0066"/>
<polygon fill="midnightblue" stroke="midnightblue" points="999.108,-142.178 989.94,-147.488 1000.42,-149.055 999.108,-142.178"/>
</g>
<!-- Node8&#45;&gt;Node3 -->
<g id="edge8" class="edge"><title>Node8&#45;&gt;Node3</title>
<path fill="none" stroke="midnightblue" d="M327.322,-148.152C350.982,-158.361 380.902,-170.869 408,-181 421.868,-186.184 437.092,-191.39 451.053,-195.975"/>
<polygon fill="midnightblue" stroke="midnightblue" points="328.489,-144.843 317.922,-144.075 325.704,-151.265 328.489,-144.843"/>
</g>
<!-- Node9 -->
<g id="node9" class="node"><title>Node9</title>
<g id="a_node9"><a xlink:href="../../d4/d0f/class_movement_and_image_a_p_i_1_1src_1_1_turtle_handler.html#af8be08b68068574b061f2e3a2f02c524" target="_top" xlink:title="MovementAndImageAPI.src.\lTurtleHandler.updateTurtleOrientation">
<polygon fill="white" stroke="black" points="628,-142 628,-172 822,-172 822,-142 628,-142"/>
<text text-anchor="start" x="636" y="-160" font-family="Helvetica,sans-Serif" font-size="10.00">MovementAndImageAPI.src.</text>
<text text-anchor="middle" x="725" y="-149" font-family="Helvetica,sans-Serif" font-size="10.00">TurtleHandler.updateTurtleOrientation</text>
</a>
</g>
</g>
<!-- Node8&#45;&gt;Node9 -->
<g id="edge9" class="edge"><title>Node8&#45;&gt;Node9</title>
<path fill="none" stroke="midnightblue" d="M381.623,-144.22C390.527,-145.291 399.419,-146.244 408,-147 481.54,-153.48 565.033,-155.912 627.72,-156.76"/>
<polygon fill="midnightblue" stroke="midnightblue" points="381.94,-140.733 371.583,-142.966 381.072,-147.679 381.94,-140.733"/>
</g>
<!-- Node10 -->
<g id="node10" class="node"><title>Node10</title>
<g id="a_node10"><a xlink:href="../../d4/d0f/class_movement_and_image_a_p_i_1_1src_1_1_turtle_handler.html#a24e9fb6ae5a522e3142b165eaa68e94f" target="_top" xlink:title="MovementAndImageAPI.src.\lTurtleHandler.updateTurtleAbsolute\lOrientation">
<polygon fill="white" stroke="black" points="408.5,-97.5 408.5,-138.5 591.5,-138.5 591.5,-97.5 408.5,-97.5"/>
<text text-anchor="start" x="416.5" y="-126.5" font-family="Helvetica,sans-Serif" font-size="10.00">MovementAndImageAPI.src.</text>
<text text-anchor="start" x="416.5" y="-115.5" font-family="Helvetica,sans-Serif" font-size="10.00">TurtleHandler.updateTurtleAbsolute</text>
<text text-anchor="middle" x="500" y="-104.5" font-family="Helvetica,sans-Serif" font-size="10.00">Orientation</text>
</a>
</g>
</g>
<!-- Node8&#45;&gt;Node10 -->
<g id="edge11" class="edge"><title>Node8&#45;&gt;Node10</title>
<path fill="none" stroke="midnightblue" d="M382.015,-123.985C390.798,-123.536 399.665,-123.082 408.381,-122.636"/>
<polygon fill="midnightblue" stroke="midnightblue" points="381.567,-120.504 371.759,-124.51 381.925,-127.494 381.567,-120.504"/>
</g>
<!-- Node12 -->
<g id="node12" class="node"><title>Node12</title>
<g id="a_node12"><a xlink:href="../../d4/d0f/class_movement_and_image_a_p_i_1_1src_1_1_turtle_handler.html#a6b47711dbbda0e84e5228414a8dd8aa5" target="_top" xlink:title="MovementAndImageAPI.src.\lTurtleHandler.showTurtle">
<polygon fill="white" stroke="black" points="424,-49 424,-79 576,-79 576,-49 424,-49"/>
<text text-anchor="start" x="432" y="-67" font-family="Helvetica,sans-Serif" font-size="10.00">MovementAndImageAPI.src.</text>
<text text-anchor="middle" x="500" y="-56" font-family="Helvetica,sans-Serif" font-size="10.00">TurtleHandler.showTurtle</text>
</a>
</g>
</g>
<!-- Node8&#45;&gt;Node12 -->
<g id="edge13" class="edge"><title>Node8&#45;&gt;Node12</title>
<path fill="none" stroke="midnightblue" d="M337.16,-110.627C359.011,-103.283 384.627,-94.9392 408,-88 418.181,-84.9774 429.059,-81.9425 439.623,-79.0963"/>
<polygon fill="midnightblue" stroke="midnightblue" points="335.761,-107.405 327.407,-113.922 338.002,-114.037 335.761,-107.405"/>
</g>
<!-- Node13 -->
<g id="node13" class="node"><title>Node13</title>
<g id="a_node13"><a xlink:href="../../d4/d0f/class_movement_and_image_a_p_i_1_1src_1_1_turtle_handler.html#ae7bd62e67c6a572a4efef91176eb370e" target="_top" xlink:title="MovementAndImageAPI.src.\lTurtleHandler.updateImage">
<polygon fill="white" stroke="black" points="424,-0 424,-30 576,-30 576,-0 424,-0"/>
<text text-anchor="start" x="432" y="-18" font-family="Helvetica,sans-Serif" font-size="10.00">MovementAndImageAPI.src.</text>
<text text-anchor="middle" x="500" y="-7" font-family="Helvetica,sans-Serif" font-size="10.00">TurtleHandler.updateImage</text>
</a>
</g>
</g>
<!-- Node8&#45;&gt;Node13 -->
<g id="edge14" class="edge"><title>Node8&#45;&gt;Node13</title>
<path fill="none" stroke="midnightblue" d="M308.569,-106.882C332.399,-86.5184 370.376,-56.8439 408,-39 415.086,-35.6393 422.714,-32.6951 430.432,-30.1294"/>
<polygon fill="midnightblue" stroke="midnightblue" points="306.014,-104.465 300.754,-113.662 310.601,-109.753 306.014,-104.465"/>
</g>
<!-- Node9&#45;&gt;Node5 -->
<g id="edge10" class="edge"><title>Node9&#45;&gt;Node5</title>
<path fill="none" stroke="midnightblue" d="M832.224,-157C844.895,-157 857.561,-157 869.499,-157"/>
<polygon fill="midnightblue" stroke="midnightblue" points="832.075,-153.5 822.075,-157 832.075,-160.5 832.075,-153.5"/>
</g>
<!-- Node11 -->
<g id="node11" class="node"><title>Node11</title>
<g id="a_node11"><a xlink:href="../../d4/d0f/class_movement_and_image_a_p_i_1_1src_1_1_turtle_handler.html#a95e798d7c5caefdc1472c01f1438adaa" target="_top" xlink:title="MovementAndImageAPI.src.\lTurtleHandler.towards">
<polygon fill="white" stroke="black" points="649,-93 649,-123 801,-123 801,-93 649,-93"/>
<text text-anchor="start" x="657" y="-111" font-family="Helvetica,sans-Serif" font-size="10.00">MovementAndImageAPI.src.</text>
<text text-anchor="middle" x="725" y="-100" font-family="Helvetica,sans-Serif" font-size="10.00">TurtleHandler.towards</text>
</a>
</g>
</g>
<!-- Node10&#45;&gt;Node11 -->
<g id="edge12" class="edge"><title>Node10&#45;&gt;Node11</title>
<path fill="none" stroke="midnightblue" d="M601.975,-113.472C617.689,-112.767 633.684,-112.05 648.697,-111.377"/>
<polygon fill="midnightblue" stroke="midnightblue" points="601.536,-109.988 591.703,-113.933 601.849,-116.981 601.536,-109.988"/>
</g>
<!-- Node14 -->
<g id="node14" class="node"><title>Node14</title>
<g id="a_node14"><a xlink:href="../../d7/daa/class_turtle_chooser_feature.html#a46a2a59cd3e594dff7798d6a31cb5c9c" target="_top" xlink:title="TurtleChooserFeature.open\lTurtleChooser">
<polygon fill="white" stroke="black" points="652.5,-44 652.5,-74 797.5,-74 797.5,-44 652.5,-44"/>
<text text-anchor="start" x="660.5" y="-62" font-family="Helvetica,sans-Serif" font-size="10.00">TurtleChooserFeature.open</text>
<text text-anchor="middle" x="725" y="-51" font-family="Helvetica,sans-Serif" font-size="10.00">TurtleChooser</text>
</a>
</g>
</g>
<!-- Node13&#45;&gt;Node14 -->
<g id="edge15" class="edge"><title>Node13&#45;&gt;Node14</title>
<path fill="none" stroke="midnightblue" d="M586.087,-31.7884C607.881,-36.0886 631.104,-40.6707 652.157,-44.8248"/>
<polygon fill="midnightblue" stroke="midnightblue" points="586.675,-28.3371 576.187,-29.8351 585.32,-35.2047 586.675,-28.3371"/>
</g>
<!-- Node16 -->
<g id="node16" class="node"><title>Node16</title>
<g id="a_node16"><a xlink:href="../../d5/d56/class_workspace.html#a429d535dfd8427637b7715f0b1e1df1b" target="_top" xlink:title="Workspace.createWorkspace">
<polygon fill="white" stroke="black" points="1056,-49.5 1056,-68.5 1208,-68.5 1208,-49.5 1056,-49.5"/>
<text text-anchor="middle" x="1132" y="-56.5" font-family="Helvetica,sans-Serif" font-size="10.00">Workspace.createWorkspace</text>
</a>
</g>
</g>
<!-- Node13&#45;&gt;Node16 -->
<g id="edge19" class="edge"><title>Node13&#45;&gt;Node16</title>
<path fill="none" stroke="midnightblue" d="M586.472,-15.9422C689.543,-17.8104 867.909,-23.3823 1020,-40 1040.8,-42.2722 1063.6,-45.9642 1083.1,-49.4923"/>
<polygon fill="midnightblue" stroke="midnightblue" points="586.489,-12.4421 576.43,-15.7676 586.367,-19.441 586.489,-12.4421"/>
</g>
<!-- Node15 -->
<g id="node15" class="node"><title>Node15</title>
<g id="a_node15"><a xlink:href="../../d5/d56/class_workspace.html#a6babd032d9af86fbc23812272d59a2d2" target="_top" xlink:title="Workspace.addFeatureButtons">
<polygon fill="white" stroke="black" points="858,-49.5 858,-68.5 1020,-68.5 1020,-49.5 858,-49.5"/>
<text text-anchor="middle" x="939" y="-56.5" font-family="Helvetica,sans-Serif" font-size="10.00">Workspace.addFeatureButtons</text>
</a>
</g>
</g>
<!-- Node14&#45;&gt;Node15 -->
<g id="edge16" class="edge"><title>Node14&#45;&gt;Node15</title>
<path fill="none" stroke="midnightblue" d="M807.881,-59C824.309,-59 841.552,-59 857.918,-59"/>
<polygon fill="midnightblue" stroke="midnightblue" points="807.774,-55.5001 797.774,-59 807.773,-62.5001 807.774,-55.5001"/>
</g>
<!-- Node15&#45;&gt;Node16 -->
<g id="edge17" class="edge"><title>Node15&#45;&gt;Node16</title>
<path fill="none" stroke="midnightblue" d="M1030.22,-59C1038.82,-59 1047.48,-59 1055.91,-59"/>
<polygon fill="midnightblue" stroke="midnightblue" points="1030.17,-55.5001 1020.17,-59 1030.17,-62.5001 1030.17,-55.5001"/>
</g>
<!-- Node16&#45;&gt;Node6 -->
<g id="edge18" class="edge"><title>Node16&#45;&gt;Node6</title>
<path fill="none" stroke="midnightblue" d="M1182.97,-70.8798C1203.32,-75.7184 1226.23,-81.1673 1244.23,-85.4464"/>
<polygon fill="midnightblue" stroke="midnightblue" points="1183.75,-67.4695 1173.21,-68.5614 1182.13,-74.2797 1183.75,-67.4695"/>
</g>
</g>
</svg>
        <g id="navigator" transform="translate(0 0)" fill="#404254">
                <rect fill="#f2f5e9" fill-opacity="0.5" stroke="#606060" stroke-width=".5" x="0" y="0" width="60" height="60"/>
                <use id="zoomplus" xlink:href="#zoomPlus" x="17" y="9" onmousedown="handleZoom(evt,'in')"/>
                <use id="zoomminus" xlink:href="#zoomMin" x="42" y="9" onmousedown="handleZoom(evt,'out')"/>
                <use id="reset" xlink:href="#resetDef" x="30" y="36" onmousedown="handleReset()"/>
                <g id="arrowUp" xlink:href="#dirArrow" transform="translate(30 24)" onmousedown="handlePan(0,-1)">
                  <use xlink:href="#rim" fill="#404040">
                        <set attributeName="fill" to="#808080" begin="arrowUp.mouseover" end="arrowUp.mouseout"/>
                  </use>
                  <path fill="none" stroke="white" stroke-width="1.5" d="M0,-3.0v7 M-2.5,-0.5L0,-3.0L2.5,-0.5"/>
                </g>
                <g id="arrowRight" xlink:href="#dirArrow" transform="rotate(90) translate(36 -43)" onmousedown="handlePan(1,0)">
                  <use xlink:href="#rim" fill="#404040">
                        <set attributeName="fill" to="#808080" begin="arrowRight.mouseover" end="arrowRight.mouseout"/>
                  </use>
                  <path fill="none" stroke="white" stroke-width="1.5" d="M0,-3.0v7 M-2.5,-0.5L0,-3.0L2.5,-0.5"/>
                </g>
                <g id="arrowDown" xlink:href="#dirArrow" transform="rotate(180) translate(-30 -48)" onmousedown="handlePan(0,1)">
                  <use xlink:href="#rim" fill="#404040">
                        <set attributeName="fill" to="#808080" begin="arrowDown.mouseover" end="arrowDown.mouseout"/>
                  </use>
                  <path fill="none" stroke="white" stroke-width="1.5" d="M0,-3.0v7 M-2.5,-0.5L0,-3.0L2.5,-0.5"/>
                </g>
                <g id="arrowLeft" xlink:href="#dirArrow" transform="rotate(270) translate(-36 17)" onmousedown="handlePan(-1,0)">
                  <use xlink:href="#rim" fill="#404040">
                        <set attributeName="fill" to="#808080" begin="arrowLeft.mouseover" end="arrowLeft.mouseout"/>
                  </use>
                  <path fill="none" stroke="white" stroke-width="1.5" d="M0,-3.0v7 M-2.5,-0.5L0,-3.0L2.5,-0.5"/>
                </g>
        </g>
        <svg viewBox="0 0 15 15" width="100%" height="30px" preserveAspectRatio="xMaxYMin meet">
         <g id="arrow_out" transform="scale(0.3 0.3)">
          <a xlink:href="class_movement_and_image_a_p_i_1_1src_1_1_image_updater_a08e8ba7624dbce157332a73670072c78_icgraph_org.svg" target="_base">
           <rect id="button" ry="5" rx="5" y="6" x="6" height="38" width="38"
                fill="#f2f5e9" fill-opacity="0.5" stroke="#606060" stroke-width="1.0"/>
           <path id="arrow"
             d="M 11.500037,31.436501 C 11.940474,20.09759 22.043105,11.32322 32.158766,21.979434 L 37.068811,17.246167 C 37.068811,17.246167 37.088388,32 37.088388,32 L 22.160133,31.978069 C 22.160133,31.978069 26.997745,27.140456 26.997745,27.140456 C 18.528582,18.264221 13.291696,25.230495 11.500037,31.436501 z"
             style="fill:#404040;"/>
          </a>
         </g>
        </svg>
</svg>
