<?xml version="1.0" encoding="UTF-8" standalone="no"?>
<!DOCTYPE svg PUBLIC "-//W3C//DTD SVG 1.1//EN"
 "http://www.w3.org/Graphics/SVG/1.1/DTD/svg11.dtd">
<!-- Generated by graphviz version 2.36.0 (20140111.2315)
 -->
<!-- Title: MovementAndImageAPI.src.ImageUpdater.yBoundary Pages: 1 -->
<svg width="1246pt" height="97pt"
 viewBox="0.00 0.00 1246.00 97.00" xmlns="http://www.w3.org/2000/svg" xmlns:xlink="http://www.w3.org/1999/xlink">
<g id="graph0" class="graph" transform="scale(1 1) rotate(0) translate(4 93)">
<title>MovementAndImageAPI.src.ImageUpdater.yBoundary</title>
<polygon fill="white" stroke="none" points="-4,4 -4,-93 1242,-93 1242,4 -4,4"/>
<!-- Node1 -->
<g id="node1" class="node"><title>Node1</title>
<polygon fill="#bfbfbf" stroke="black" points="0,-32 0,-62 152,-62 152,-32 0,-32"/>
<text text-anchor="start" x="8" y="-50" font-family="Helvetica,sans-Serif" font-size="10.00">MovementAndImageAPI.src.</text>
<text text-anchor="middle" x="76" y="-39" font-family="Helvetica,sans-Serif" font-size="10.00">ImageUpdater.yBoundary</text>
</g>
<!-- Node2 -->
<g id="node2" class="node"><title>Node2</title>
<g id="a_node2"><a xlink:href="../../da/d31/class_movement_and_image_a_p_i_1_1src_1_1_image_updater.html#a049f8e63bcdbe91f5fad63c778030fb4" target="_top" xlink:title="MovementAndImageAPI.src.\lImageUpdater.findBoundaryPoint">
<polygon fill="white" stroke="black" points="188.5,-32 188.5,-62 363.5,-62 363.5,-32 188.5,-32"/>
<text text-anchor="start" x="196.5" y="-50" font-family="Helvetica,sans-Serif" font-size="10.00">MovementAndImageAPI.src.</text>
<text text-anchor="middle" x="276" y="-39" font-family="Helvetica,sans-Serif" font-size="10.00">ImageUpdater.findBoundaryPoint</text>
</a>
</g>
</g>
<!-- Node1&#45;&gt;Node2 -->
<g id="edge1" class="edge"><title>Node1&#45;&gt;Node2</title>
<path fill="none" stroke="midnightblue" d="M162.205,-47C170.851,-47 179.639,-47 188.301,-47"/>
<polygon fill="midnightblue" stroke="midnightblue" points="162.138,-43.5001 152.138,-47 162.138,-50.5001 162.138,-43.5001"/>
</g>
<!-- Node3 -->
<g id="node3" class="node"><title>Node3</title>
<g id="a_node3"><a xlink:href="../../da/d31/class_movement_and_image_a_p_i_1_1src_1_1_image_updater.html#a194a73bcc0c675e5d7d9182847805455" target="_top" xlink:title="MovementAndImageAPI.src.\lImageUpdater.drawLine">
<polygon fill="white" stroke="black" points="400,-32 400,-62 552,-62 552,-32 400,-32"/>
<text text-anchor="start" x="408" y="-50" font-family="Helvetica,sans-Serif" font-size="10.00">MovementAndImageAPI.src.</text>
<text text-anchor="middle" x="476" y="-39" font-family="Helvetica,sans-Serif" font-size="10.00">ImageUpdater.drawLine</text>
</a>
</g>
</g>
<!-- Node2&#45;&gt;Node3 -->
<g id="edge2" class="edge"><title>Node2&#45;&gt;Node3</title>
<path fill="none" stroke="midnightblue" d="M373.786,-47C382.521,-47 391.28,-47 399.79,-47"/>
<polygon fill="midnightblue" stroke="midnightblue" points="373.558,-43.5001 363.558,-47 373.558,-50.5001 373.558,-43.5001"/>
</g>
<!-- Node4 -->
<g id="node4" class="node"><title>Node4</title>
<g id="a_node4"><a xlink:href="../../d4/d0f/class_movement_and_image_a_p_i_1_1src_1_1_turtle_handler.html#adf01534451c018bc6b767aa8d42689bb" target="_top" xlink:title="MovementAndImageAPI.src.\lTurtleHandler.moveAndDraw">
<polygon fill="white" stroke="black" points="588,-32 588,-62 740,-62 740,-32 588,-32"/>
<text text-anchor="start" x="596" y="-50" font-family="Helvetica,sans-Serif" font-size="10.00">MovementAndImageAPI.src.</text>
<text text-anchor="middle" x="664" y="-39" font-family="Helvetica,sans-Serif" font-size="10.00">TurtleHandler.moveAndDraw</text>
</a>
</g>
</g>
<!-- Node3&#45;&gt;Node4 -->
<g id="edge3" class="edge"><title>Node3&#45;&gt;Node4</title>
<path fill="none" stroke="midnightblue" d="M562.147,-47C570.742,-47 579.426,-47 587.905,-47"/>
<polygon fill="midnightblue" stroke="midnightblue" points="562.117,-43.5001 552.117,-47 562.117,-50.5001 562.117,-43.5001"/>
</g>
<!-- Node5 -->
<g id="node5" class="node"><title>Node5</title>
<g id="a_node5"><a xlink:href="../../d4/d0f/class_movement_and_image_a_p_i_1_1src_1_1_turtle_handler.html#a47aab93cef3fa6ddcebacd40db48090b" target="_top" xlink:title="MovementAndImageAPI.src.\lTurtleHandler.updateTurtleLocation">
<polygon fill="white" stroke="black" points="777,-59 777,-89 959,-89 959,-59 777,-59"/>
<text text-anchor="start" x="785" y="-77" font-family="Helvetica,sans-Serif" font-size="10.00">MovementAndImageAPI.src.</text>
<text text-anchor="middle" x="868" y="-66" font-family="Helvetica,sans-Serif" font-size="10.00">TurtleHandler.updateTurtleLocation</text>
</a>
</g>
</g>
<!-- Node4&#45;&gt;Node5 -->
<g id="edge4" class="edge"><title>Node4&#45;&gt;Node5</title>
<path fill="none" stroke="midnightblue" d="M750.355,-58.4088C759.066,-59.5732 767.937,-60.7589 776.699,-61.9301"/>
<polygon fill="midnightblue" stroke="midnightblue" points="750.593,-54.9096 740.217,-57.0538 749.665,-61.8479 750.593,-54.9096"/>
</g>
<!-- Node8 -->
<g id="node8" class="node"><title>Node8</title>
<g id="a_node8"><a xlink:href="../../d4/d0f/class_movement_and_image_a_p_i_1_1src_1_1_turtle_handler.html#a508472221e2ec6de1f1fae9b04a661c4" target="_top" xlink:title="MovementAndImageAPI.src.\lTurtleHandler.updateTurtleAbsolute\lLocation">
<polygon fill="white" stroke="black" points="776.5,0.5 776.5,-40.5 959.5,-40.5 959.5,0.5 776.5,0.5"/>
<text text-anchor="start" x="784.5" y="-28.5" font-family="Helvetica,sans-Serif" font-size="10.00">MovementAndImageAPI.src.</text>
<text text-anchor="start" x="784.5" y="-17.5" font-family="Helvetica,sans-Serif" font-size="10.00">TurtleHandler.updateTurtleAbsolute</text>
<text text-anchor="middle" x="868" y="-6.5" font-family="Helvetica,sans-Serif" font-size="10.00">Location</text>
</a>
</g>
</g>
<!-- Node4&#45;&gt;Node8 -->
<g id="edge7" class="edge"><title>Node4&#45;&gt;Node8</title>
<path fill="none" stroke="midnightblue" d="M750.258,-35.6041C758.887,-34.4508 767.672,-33.2765 776.354,-32.116"/>
<polygon fill="midnightblue" stroke="midnightblue" points="749.665,-32.1521 740.217,-36.9462 750.593,-39.0904 749.665,-32.1521"/>
</g>
<!-- Node6 -->
<g id="node6" class="node"><title>Node6</title>
<g id="a_node6"><a xlink:href="../../d0/d4b/class_main.html#a9aab0955c478f8846fae079b0c56e8d3" target="_top" xlink:title="Main.addKeyboardControl">
<polygon fill="white" stroke="black" points="996.5,-64.5 996.5,-83.5 1135.5,-83.5 1135.5,-64.5 996.5,-64.5"/>
<text text-anchor="middle" x="1066" y="-71.5" font-family="Helvetica,sans-Serif" font-size="10.00">Main.addKeyboardControl</text>
</a>
</g>
</g>
<!-- Node5&#45;&gt;Node6 -->
<g id="edge5" class="edge"><title>Node5&#45;&gt;Node6</title>
<path fill="none" stroke="midnightblue" d="M969.496,-74C978.57,-74 987.616,-74 996.322,-74"/>
<polygon fill="midnightblue" stroke="midnightblue" points="969.255,-70.5001 959.255,-74 969.255,-77.5001 969.255,-70.5001"/>
</g>
<!-- Node7 -->
<g id="node7" class="node"><title>Node7</title>
<g id="a_node7"><a xlink:href="../../d0/d4b/class_main.html#aaa75b38812324d0f17c89f139bde6ada" target="_top" xlink:title="Main.start">
<polygon fill="white" stroke="black" points="1172.5,-64.5 1172.5,-83.5 1237.5,-83.5 1237.5,-64.5 1172.5,-64.5"/>
<text text-anchor="middle" x="1205" y="-71.5" font-family="Helvetica,sans-Serif" font-size="10.00">Main.start</text>
</a>
</g>
</g>
<!-- Node6&#45;&gt;Node7 -->
<g id="edge6" class="edge"><title>Node6&#45;&gt;Node7</title>
<path fill="none" stroke="midnightblue" d="M1146.06,-74C1155.35,-74 1164.38,-74 1172.44,-74"/>
<polygon fill="midnightblue" stroke="midnightblue" points="1145.9,-70.5001 1135.9,-74 1145.9,-77.5001 1145.9,-70.5001"/>
</g>
</g>
</svg>
