<?xml version="1.0" encoding="UTF-8" standalone="no"?>
<!DOCTYPE svg PUBLIC "-//W3C//DTD SVG 1.1//EN"
 "http://www.w3.org/Graphics/SVG/1.1/DTD/svg11.dtd">
<!-- Generated by graphviz version 2.36.0 (20140111.2315)
 -->
<!-- Title: MovementAndImageAPI.src.ImageUpdater.drawRotatedImage Pages: 1 -->
<svg width="1338pt" height="293pt"
 viewBox="0.00 0.00 1338.00 293.00" xmlns="http://www.w3.org/2000/svg" xmlns:xlink="http://www.w3.org/1999/xlink">
<g id="graph0" class="graph" transform="scale(1 1) rotate(0) translate(4 289)">
<title>MovementAndImageAPI.src.ImageUpdater.drawRotatedImage</title>
<polygon fill="white" stroke="none" points="-4,4 -4,-289 1334,-289 1334,4 -4,4"/>
<!-- Node1 -->
<g id="node1" class="node"><title>Node1</title>
<polygon fill="#bfbfbf" stroke="black" points="0.5,-103 0.5,-133 177.5,-133 177.5,-103 0.5,-103"/>
<text text-anchor="start" x="8.5" y="-121" font-family="Helvetica,sans-Serif" font-size="10.00">MovementAndImageAPI.src.</text>
<text text-anchor="middle" x="89" y="-110" font-family="Helvetica,sans-Serif" font-size="10.00">ImageUpdater.drawRotatedImage</text>
</g>
<!-- Node2 -->
<g id="node2" class="node"><title>Node2</title>
<g id="a_node2"><a xlink:href="../../da/d31/class_movement_and_image_a_p_i_1_1src_1_1_image_updater.html#adea0730f4ec25ebf5b16940420f9af0b" target="_top" xlink:title="MovementAndImageAPI.src.\lImageUpdater.updateTurtleImage">
<polygon fill="white" stroke="black" points="214.5,-103 214.5,-133 391.5,-133 391.5,-103 214.5,-103"/>
<text text-anchor="start" x="222.5" y="-121" font-family="Helvetica,sans-Serif" font-size="10.00">MovementAndImageAPI.src.</text>
<text text-anchor="middle" x="303" y="-110" font-family="Helvetica,sans-Serif" font-size="10.00">ImageUpdater.updateTurtleImage</text>
</a>
</g>
</g>
<!-- Node1&#45;&gt;Node2 -->
<g id="edge1" class="edge"><title>Node1&#45;&gt;Node2</title>
<path fill="none" stroke="midnightblue" d="M188.01,-118C196.783,-118 205.629,-118 214.307,-118"/>
<polygon fill="midnightblue" stroke="midnightblue" points="187.759,-114.5 177.759,-118 187.759,-121.5 187.759,-114.5"/>
</g>
<!-- Node3 -->
<g id="node3" class="node"><title>Node3</title>
<g id="a_node3"><a xlink:href="../../d4/d0f/class_movement_and_image_a_p_i_1_1src_1_1_turtle_handler.html#adf01534451c018bc6b767aa8d42689bb" target="_top" xlink:title="MovementAndImageAPI.src.\lTurtleHandler.moveAndDraw">
<polygon fill="white" stroke="black" points="444,-201 444,-231 596,-231 596,-201 444,-201"/>
<text text-anchor="start" x="452" y="-219" font-family="Helvetica,sans-Serif" font-size="10.00">MovementAndImageAPI.src.</text>
<text text-anchor="middle" x="520" y="-208" font-family="Helvetica,sans-Serif" font-size="10.00">TurtleHandler.moveAndDraw</text>
</a>
</g>
</g>
<!-- Node2&#45;&gt;Node3 -->
<g id="edge2" class="edge"><title>Node2&#45;&gt;Node3</title>
<path fill="none" stroke="midnightblue" d="M340.596,-137.846C365.037,-150.787 398.069,-167.683 428,-181 443.775,-188.018 461.425,-195 476.953,-200.861"/>
<polygon fill="midnightblue" stroke="midnightblue" points="342.146,-134.706 331.674,-133.095 338.856,-140.885 342.146,-134.706"/>
</g>
<!-- Node8 -->
<g id="node8" class="node"><title>Node8</title>
<g id="a_node8"><a xlink:href="../../d4/d0f/class_movement_and_image_a_p_i_1_1src_1_1_turtle_handler.html#af8be08b68068574b061f2e3a2f02c524" target="_top" xlink:title="MovementAndImageAPI.src.\lTurtleHandler.updateTurtleOrientation">
<polygon fill="white" stroke="black" points="648,-147 648,-177 842,-177 842,-147 648,-147"/>
<text text-anchor="start" x="656" y="-165" font-family="Helvetica,sans-Serif" font-size="10.00">MovementAndImageAPI.src.</text>
<text text-anchor="middle" x="745" y="-154" font-family="Helvetica,sans-Serif" font-size="10.00">TurtleHandler.updateTurtleOrientation</text>
</a>
</g>
</g>
<!-- Node2&#45;&gt;Node8 -->
<g id="edge7" class="edge"><title>Node2&#45;&gt;Node8</title>
<path fill="none" stroke="midnightblue" d="M368.314,-135.389C387.392,-139.908 408.421,-144.269 428,-147 501.299,-157.224 584.985,-160.841 647.816,-161.973"/>
<polygon fill="midnightblue" stroke="midnightblue" points="369.077,-131.972 358.534,-133.019 367.428,-138.776 369.077,-131.972"/>
</g>
<!-- Node9 -->
<g id="node9" class="node"><title>Node9</title>
<g id="a_node9"><a xlink:href="../../d4/d0f/class_movement_and_image_a_p_i_1_1src_1_1_turtle_handler.html#a24e9fb6ae5a522e3142b165eaa68e94f" target="_top" xlink:title="MovementAndImageAPI.src.\lTurtleHandler.updateTurtleAbsolute\lOrientation">
<polygon fill="white" stroke="black" points="428.5,-97.5 428.5,-138.5 611.5,-138.5 611.5,-97.5 428.5,-97.5"/>
<text text-anchor="start" x="436.5" y="-126.5" font-family="Helvetica,sans-Serif" font-size="10.00">MovementAndImageAPI.src.</text>
<text text-anchor="start" x="436.5" y="-115.5" font-family="Helvetica,sans-Serif" font-size="10.00">TurtleHandler.updateTurtleAbsolute</text>
<text text-anchor="middle" x="520" y="-104.5" font-family="Helvetica,sans-Serif" font-size="10.00">Orientation</text>
</a>
</g>
</g>
<!-- Node2&#45;&gt;Node9 -->
<g id="edge9" class="edge"><title>Node2&#45;&gt;Node9</title>
<path fill="none" stroke="midnightblue" d="M402.015,-118C410.798,-118 419.665,-118 428.381,-118"/>
<polygon fill="midnightblue" stroke="midnightblue" points="401.759,-114.5 391.759,-118 401.759,-121.5 401.759,-114.5"/>
</g>
<!-- Node11 -->
<g id="node11" class="node"><title>Node11</title>
<g id="a_node11"><a xlink:href="../../d4/d0f/class_movement_and_image_a_p_i_1_1src_1_1_turtle_handler.html#a6b47711dbbda0e84e5228414a8dd8aa5" target="_top" xlink:title="MovementAndImageAPI.src.\lTurtleHandler.showTurtle">
<polygon fill="white" stroke="black" points="444,-49 444,-79 596,-79 596,-49 444,-49"/>
<text text-anchor="start" x="452" y="-67" font-family="Helvetica,sans-Serif" font-size="10.00">MovementAndImageAPI.src.</text>
<text text-anchor="middle" x="520" y="-56" font-family="Helvetica,sans-Serif" font-size="10.00">TurtleHandler.showTurtle</text>
</a>
</g>
</g>
<!-- Node2&#45;&gt;Node11 -->
<g id="edge11" class="edge"><title>Node2&#45;&gt;Node11</title>
<path fill="none" stroke="midnightblue" d="M373.836,-100.46C401.338,-93.5524 432.605,-85.6992 459.059,-79.0549"/>
<polygon fill="midnightblue" stroke="midnightblue" points="372.736,-97.1274 363.889,-102.958 374.441,-103.917 372.736,-97.1274"/>
</g>
<!-- Node12 -->
<g id="node12" class="node"><title>Node12</title>
<g id="a_node12"><a xlink:href="../../d4/d0f/class_movement_and_image_a_p_i_1_1src_1_1_turtle_handler.html#ae7bd62e67c6a572a4efef91176eb370e" target="_top" xlink:title="MovementAndImageAPI.src.\lTurtleHandler.updateImage">
<polygon fill="white" stroke="black" points="444,-0 444,-30 596,-30 596,-0 444,-0"/>
<text text-anchor="start" x="452" y="-18" font-family="Helvetica,sans-Serif" font-size="10.00">MovementAndImageAPI.src.</text>
<text text-anchor="middle" x="520" y="-7" font-family="Helvetica,sans-Serif" font-size="10.00">TurtleHandler.updateImage</text>
</a>
</g>
</g>
<!-- Node2&#45;&gt;Node12 -->
<g id="edge12" class="edge"><title>Node2&#45;&gt;Node12</title>
<path fill="none" stroke="midnightblue" d="M331.882,-96.6611C356.13,-79.0042 392.804,-54.4046 428,-39 435.634,-35.6589 443.837,-32.6966 452.081,-30.0946"/>
<polygon fill="midnightblue" stroke="midnightblue" points="329.503,-94.067 323.537,-102.822 333.661,-99.6985 329.503,-94.067"/>
</g>
<!-- Node4 -->
<g id="node4" class="node"><title>Node4</title>
<g id="a_node4"><a xlink:href="../../d4/d0f/class_movement_and_image_a_p_i_1_1src_1_1_turtle_handler.html#a47aab93cef3fa6ddcebacd40db48090b" target="_top" xlink:title="MovementAndImageAPI.src.\lTurtleHandler.updateTurtleLocation">
<polygon fill="white" stroke="black" points="654,-255 654,-285 836,-285 836,-255 654,-255"/>
<text text-anchor="start" x="662" y="-273" font-family="Helvetica,sans-Serif" font-size="10.00">MovementAndImageAPI.src.</text>
<text text-anchor="middle" x="745" y="-262" font-family="Helvetica,sans-Serif" font-size="10.00">TurtleHandler.updateTurtleLocation</text>
</a>
</g>
</g>
<!-- Node3&#45;&gt;Node4 -->
<g id="edge3" class="edge"><title>Node3&#45;&gt;Node4</title>
<path fill="none" stroke="midnightblue" d="M593.059,-233.449C621.675,-240.379 654.27,-248.272 681.829,-254.945"/>
<polygon fill="midnightblue" stroke="midnightblue" points="593.661,-229.994 583.118,-231.042 592.013,-236.797 593.661,-229.994"/>
</g>
<!-- Node7 -->
<g id="node7" class="node"><title>Node7</title>
<g id="a_node7"><a xlink:href="../../d4/d0f/class_movement_and_image_a_p_i_1_1src_1_1_turtle_handler.html#a508472221e2ec6de1f1fae9b04a661c4" target="_top" xlink:title="MovementAndImageAPI.src.\lTurtleHandler.updateTurtleAbsolute\lLocation">
<polygon fill="white" stroke="black" points="653.5,-195.5 653.5,-236.5 836.5,-236.5 836.5,-195.5 653.5,-195.5"/>
<text text-anchor="start" x="661.5" y="-224.5" font-family="Helvetica,sans-Serif" font-size="10.00">MovementAndImageAPI.src.</text>
<text text-anchor="start" x="661.5" y="-213.5" font-family="Helvetica,sans-Serif" font-size="10.00">TurtleHandler.updateTurtleAbsolute</text>
<text text-anchor="middle" x="745" y="-202.5" font-family="Helvetica,sans-Serif" font-size="10.00">Location</text>
</a>
</g>
</g>
<!-- Node3&#45;&gt;Node7 -->
<g id="edge6" class="edge"><title>Node3&#45;&gt;Node7</title>
<path fill="none" stroke="midnightblue" d="M606.199,-216C621.612,-216 637.735,-216 653.298,-216"/>
<polygon fill="midnightblue" stroke="midnightblue" points="606.187,-212.5 596.187,-216 606.187,-219.5 606.187,-212.5"/>
</g>
<!-- Node5 -->
<g id="node5" class="node"><title>Node5</title>
<g id="a_node5"><a xlink:href="../../d0/d4b/class_main.html#a9aab0955c478f8846fae079b0c56e8d3" target="_top" xlink:title="Main.addKeyboardControl">
<polygon fill="white" stroke="black" points="889.5,-152.5 889.5,-171.5 1028.5,-171.5 1028.5,-152.5 889.5,-152.5"/>
<text text-anchor="middle" x="959" y="-159.5" font-family="Helvetica,sans-Serif" font-size="10.00">Main.addKeyboardControl</text>
</a>
</g>
</g>
<!-- Node4&#45;&gt;Node5 -->
<g id="edge4" class="edge"><title>Node4&#45;&gt;Node5</title>
<path fill="none" stroke="midnightblue" d="M825.59,-251.741C831.23,-249.699 836.754,-247.456 842,-245 884.61,-225.048 927.869,-188.993 947.342,-171.727"/>
<polygon fill="midnightblue" stroke="midnightblue" points="824.363,-248.461 816.02,-254.991 826.615,-255.089 824.363,-248.461"/>
</g>
<!-- Node6 -->
<g id="node6" class="node"><title>Node6</title>
<g id="a_node6"><a xlink:href="../../d0/d4b/class_main.html#aaa75b38812324d0f17c89f139bde6ada" target="_top" xlink:title="Main.start">
<polygon fill="white" stroke="black" points="1264.5,-84.5 1264.5,-103.5 1329.5,-103.5 1329.5,-84.5 1264.5,-84.5"/>
<text text-anchor="middle" x="1297" y="-91.5" font-family="Helvetica,sans-Serif" font-size="10.00">Main.start</text>
</a>
</g>
</g>
<!-- Node5&#45;&gt;Node6 -->
<g id="edge5" class="edge"><title>Node5&#45;&gt;Node6</title>
<path fill="none" stroke="midnightblue" d="M1017.23,-150.419C1088.49,-135.997 1207.72,-111.866 1264.32,-100.411"/>
<polygon fill="midnightblue" stroke="midnightblue" points="1016.18,-147.059 1007.07,-152.473 1017.57,-153.92 1016.18,-147.059"/>
</g>
<!-- Node8&#45;&gt;Node5 -->
<g id="edge8" class="edge"><title>Node8&#45;&gt;Node5</title>
<path fill="none" stroke="midnightblue" d="M852.224,-162C864.895,-162 877.561,-162 889.499,-162"/>
<polygon fill="midnightblue" stroke="midnightblue" points="852.075,-158.5 842.075,-162 852.075,-165.5 852.075,-158.5"/>
</g>
<!-- Node10 -->
<g id="node10" class="node"><title>Node10</title>
<g id="a_node10"><a xlink:href="../../d4/d0f/class_movement_and_image_a_p_i_1_1src_1_1_turtle_handler.html#a95e798d7c5caefdc1472c01f1438adaa" target="_top" xlink:title="MovementAndImageAPI.src.\lTurtleHandler.towards">
<polygon fill="white" stroke="black" points="669,-98 669,-128 821,-128 821,-98 669,-98"/>
<text text-anchor="start" x="677" y="-116" font-family="Helvetica,sans-Serif" font-size="10.00">MovementAndImageAPI.src.</text>
<text text-anchor="middle" x="745" y="-105" font-family="Helvetica,sans-Serif" font-size="10.00">TurtleHandler.towards</text>
</a>
</g>
</g>
<!-- Node9&#45;&gt;Node10 -->
<g id="edge10" class="edge"><title>Node9&#45;&gt;Node10</title>
<path fill="none" stroke="midnightblue" d="M621.975,-115.736C637.689,-115.384 653.684,-115.025 668.697,-114.688"/>
<polygon fill="midnightblue" stroke="midnightblue" points="621.622,-112.243 611.703,-115.966 621.779,-119.241 621.622,-112.243"/>
</g>
<!-- Node13 -->
<g id="node13" class="node"><title>Node13</title>
<g id="a_node13"><a xlink:href="../../d7/daa/class_turtle_chooser_feature.html#a46a2a59cd3e594dff7798d6a31cb5c9c" target="_top" xlink:title="TurtleChooserFeature.open\lTurtleChooser">
<polygon fill="white" stroke="black" points="672.5,-44 672.5,-74 817.5,-74 817.5,-44 672.5,-44"/>
<text text-anchor="start" x="680.5" y="-62" font-family="Helvetica,sans-Serif" font-size="10.00">TurtleChooserFeature.open</text>
<text text-anchor="middle" x="745" y="-51" font-family="Helvetica,sans-Serif" font-size="10.00">TurtleChooser</text>
</a>
</g>
</g>
<!-- Node12&#45;&gt;Node13 -->
<g id="edge13" class="edge"><title>Node12&#45;&gt;Node13</title>
<path fill="none" stroke="midnightblue" d="M606.087,-31.7884C627.881,-36.0886 651.104,-40.6707 672.157,-44.8248"/>
<polygon fill="midnightblue" stroke="midnightblue" points="606.675,-28.3371 596.187,-29.8351 605.32,-35.2047 606.675,-28.3371"/>
</g>
<!-- Node15 -->
<g id="node15" class="node"><title>Node15</title>
<g id="a_node15"><a xlink:href="../../d5/d56/class_workspace.html#a429d535dfd8427637b7715f0b1e1df1b" target="_top" xlink:title="Workspace.createWorkspace">
<polygon fill="white" stroke="black" points="1076,-49.5 1076,-68.5 1228,-68.5 1228,-49.5 1076,-49.5"/>
<text text-anchor="middle" x="1152" y="-56.5" font-family="Helvetica,sans-Serif" font-size="10.00">Workspace.createWorkspace</text>
</a>
</g>
</g>
<!-- Node12&#45;&gt;Node15 -->
<g id="edge17" class="edge"><title>Node12&#45;&gt;Node15</title>
<path fill="none" stroke="midnightblue" d="M606.472,-15.9422C709.543,-17.8104 887.909,-23.3823 1040,-40 1060.8,-42.2722 1083.6,-45.9642 1103.1,-49.4923"/>
<polygon fill="midnightblue" stroke="midnightblue" points="606.489,-12.4421 596.43,-15.7676 606.367,-19.441 606.489,-12.4421"/>
</g>
<!-- Node14 -->
<g id="node14" class="node"><title>Node14</title>
<g id="a_node14"><a xlink:href="../../d5/d56/class_workspace.html#a6babd032d9af86fbc23812272d59a2d2" target="_top" xlink:title="Workspace.addFeatureButtons">
<polygon fill="white" stroke="black" points="878,-49.5 878,-68.5 1040,-68.5 1040,-49.5 878,-49.5"/>
<text text-anchor="middle" x="959" y="-56.5" font-family="Helvetica,sans-Serif" font-size="10.00">Workspace.addFeatureButtons</text>
</a>
</g>
</g>
<!-- Node13&#45;&gt;Node14 -->
<g id="edge14" class="edge"><title>Node13&#45;&gt;Node14</title>
<path fill="none" stroke="midnightblue" d="M827.881,-59C844.309,-59 861.552,-59 877.918,-59"/>
<polygon fill="midnightblue" stroke="midnightblue" points="827.774,-55.5001 817.774,-59 827.773,-62.5001 827.774,-55.5001"/>
</g>
<!-- Node14&#45;&gt;Node15 -->
<g id="edge15" class="edge"><title>Node14&#45;&gt;Node15</title>
<path fill="none" stroke="midnightblue" d="M1050.22,-59C1058.82,-59 1067.48,-59 1075.91,-59"/>
<polygon fill="midnightblue" stroke="midnightblue" points="1050.17,-55.5001 1040.17,-59 1050.17,-62.5001 1050.17,-55.5001"/>
</g>
<!-- Node15&#45;&gt;Node6 -->
<g id="edge16" class="edge"><title>Node15&#45;&gt;Node6</title>
<path fill="none" stroke="midnightblue" d="M1201.93,-70.9751C1222.52,-76.0155 1245.9,-81.7373 1264.2,-86.2161"/>
<polygon fill="midnightblue" stroke="midnightblue" points="1202.62,-67.5417 1192.08,-68.5639 1200.96,-74.341 1202.62,-67.5417"/>
</g>
</g>
</svg>
