<?xml version="1.0" encoding="UTF-8" standalone="no"?>
<!DOCTYPE svg PUBLIC "-//W3C//DTD SVG 1.1//EN"
 "http://www.w3.org/Graphics/SVG/1.1/DTD/svg11.dtd">
<!-- Generated by graphviz version 2.36.0 (20140111.2315)
 -->
<!-- Title: MovementAndImageAPI.src.ImageUpdater.findBoundaryPoint Pages: 1 -->
<svg width="378pt" height="185pt"
 viewBox="0.00 0.00 378.00 185.00" xmlns="http://www.w3.org/2000/svg" xmlns:xlink="http://www.w3.org/1999/xlink">
<g id="graph0" class="graph" transform="scale(1 1) rotate(0) translate(4 181)">
<title>MovementAndImageAPI.src.ImageUpdater.findBoundaryPoint</title>
<polygon fill="white" stroke="none" points="-4,4 -4,-181 374,-181 374,4 -4,4"/>
<!-- Node1 -->
<g id="node1" class="node"><title>Node1</title>
<polygon fill="#bfbfbf" stroke="black" points="0.5,-73 0.5,-103 175.5,-103 175.5,-73 0.5,-73"/>
<text text-anchor="start" x="8.5" y="-91" font-family="Helvetica,sans-Serif" font-size="10.00">MovementAndImageAPI.src.</text>
<text text-anchor="middle" x="88" y="-80" font-family="Helvetica,sans-Serif" font-size="10.00">ImageUpdater.findBoundaryPoint</text>
</g>
<!-- Node2 -->
<g id="node2" class="node"><title>Node2</title>
<g id="a_node2"><a xlink:href="../../da/d31/class_movement_and_image_a_p_i_1_1src_1_1_image_updater.html#a24866e7c0871e72ff9bb226fa477ee2b" target="_top" xlink:title="MovementAndImageAPI.src.\lImageUpdater.xBoundary">
<polygon fill="white" stroke="black" points="215,-147 215,-177 367,-177 367,-147 215,-147"/>
<text text-anchor="start" x="223" y="-165" font-family="Helvetica,sans-Serif" font-size="10.00">MovementAndImageAPI.src.</text>
<text text-anchor="middle" x="291" y="-154" font-family="Helvetica,sans-Serif" font-size="10.00">ImageUpdater.xBoundary</text>
</a>
</g>
</g>
<!-- Node1&#45;&gt;Node2 -->
<g id="edge1" class="edge"><title>Node1&#45;&gt;Node2</title>
<path fill="none" stroke="midnightblue" d="M124.811,-103.023C149.218,-113.075 182.361,-126.361 212,-137 218.295,-139.26 224.909,-141.533 231.513,-143.738"/>
<polygon fill="midnightblue" stroke="midnightblue" points="230.551,-147.106 241.144,-146.911 232.741,-140.458 230.551,-147.106"/>
</g>
<!-- Node3 -->
<g id="node3" class="node"><title>Node3</title>
<g id="a_node3"><a xlink:href="../../da/d31/class_movement_and_image_a_p_i_1_1src_1_1_image_updater.html#a03f6a2a06e7a7476405345f6fcb3dad5" target="_top" xlink:title="MovementAndImageAPI.src.\lImageUpdater.xOutOfBounds">
<polygon fill="white" stroke="black" points="212.5,-98 212.5,-128 369.5,-128 369.5,-98 212.5,-98"/>
<text text-anchor="start" x="220.5" y="-116" font-family="Helvetica,sans-Serif" font-size="10.00">MovementAndImageAPI.src.</text>
<text text-anchor="middle" x="291" y="-105" font-family="Helvetica,sans-Serif" font-size="10.00">ImageUpdater.xOutOfBounds</text>
</a>
</g>
</g>
<!-- Node1&#45;&gt;Node3 -->
<g id="edge2" class="edge"><title>Node1&#45;&gt;Node3</title>
<path fill="none" stroke="midnightblue" d="M175.7,-98.7836C184.578,-99.8878 193.602,-101.01 202.489,-102.116"/>
<polygon fill="midnightblue" stroke="midnightblue" points="202.093,-105.593 212.448,-103.354 202.957,-98.6467 202.093,-105.593"/>
</g>
<!-- Node4 -->
<g id="node4" class="node"><title>Node4</title>
<g id="a_node4"><a xlink:href="../../da/d31/class_movement_and_image_a_p_i_1_1src_1_1_image_updater.html#ad79a0592d012a80c6db9c91909440415" target="_top" xlink:title="MovementAndImageAPI.src.\lImageUpdater.yBoundary">
<polygon fill="white" stroke="black" points="215,-49 215,-79 367,-79 367,-49 215,-49"/>
<text text-anchor="start" x="223" y="-67" font-family="Helvetica,sans-Serif" font-size="10.00">MovementAndImageAPI.src.</text>
<text text-anchor="middle" x="291" y="-56" font-family="Helvetica,sans-Serif" font-size="10.00">ImageUpdater.yBoundary</text>
</a>
</g>
</g>
<!-- Node1&#45;&gt;Node4 -->
<g id="edge3" class="edge"><title>Node1&#45;&gt;Node4</title>
<path fill="none" stroke="midnightblue" d="M175.7,-77.6477C185.4,-76.4895 195.274,-75.3105 204.953,-74.1549"/>
<polygon fill="midnightblue" stroke="midnightblue" points="205.438,-77.6219 214.952,-72.9609 204.608,-70.6713 205.438,-77.6219"/>
</g>
<!-- Node5 -->
<g id="node5" class="node"><title>Node5</title>
<g id="a_node5"><a xlink:href="../../da/d31/class_movement_and_image_a_p_i_1_1src_1_1_image_updater.html#af0f2404b46ab5bd003906d97d8460654" target="_top" xlink:title="MovementAndImageAPI.src.\lImageUpdater.yOutOfBounds">
<polygon fill="white" stroke="black" points="212.5,-0 212.5,-30 369.5,-30 369.5,-0 212.5,-0"/>
<text text-anchor="start" x="220.5" y="-18" font-family="Helvetica,sans-Serif" font-size="10.00">MovementAndImageAPI.src.</text>
<text text-anchor="middle" x="291" y="-7" font-family="Helvetica,sans-Serif" font-size="10.00">ImageUpdater.yOutOfBounds</text>
</a>
</g>
</g>
<!-- Node1&#45;&gt;Node5 -->
<g id="edge4" class="edge"><title>Node1&#45;&gt;Node5</title>
<path fill="none" stroke="midnightblue" d="M125.915,-72.9052C150.227,-63.1348 182.838,-50.3525 212,-40 218.393,-37.7306 225.111,-35.439 231.812,-33.2121"/>
<polygon fill="midnightblue" stroke="midnightblue" points="233.168,-36.4507 241.578,-30.0059 230.985,-29.8 233.168,-36.4507"/>
</g>
</g>
</svg>
