<?xml version="1.0" encoding="UTF-8" standalone="no"?>
<!DOCTYPE svg PUBLIC "-//W3C//DTD SVG 1.1//EN"
 "http://www.w3.org/Graphics/SVG/1.1/DTD/svg11.dtd">
<!-- Generated by graphviz version 2.36.0 (20140111.2315)
 -->
<!-- Title: commands.CommandsRepeat Pages: 1 -->
<svg width="170pt" height="96pt"
 viewBox="0.00 0.00 170.00 96.00" xmlns="http://www.w3.org/2000/svg" xmlns:xlink="http://www.w3.org/1999/xlink">
<g id="graph0" class="graph" transform="scale(1 1) rotate(0) translate(4 92)">
<title>commands.CommandsRepeat</title>
<polygon fill="white" stroke="none" points="-4,4 -4,-92 166,-92 166,4 -4,4"/>
<!-- Node1 -->
<g id="node1" class="node"><title>Node1</title>
<polygon fill="#bfbfbf" stroke="black" points="0,-0.5 0,-19.5 162,-19.5 162,-0.5 0,-0.5"/>
<text text-anchor="middle" x="81" y="-7.5" font-family="Helvetica,sans-Serif" font-size="10.00">commands.CommandsRepeat</text>
</g>
<!-- Node2 -->
<g id="node2" class="node"><title>Node2</title>
<g id="a_node2"><a xlink:href="../../d3/de9/interfacecommands_1_1_i_command.html" target="_top" xlink:title="commands.ICommand">
<polygon fill="white" stroke="black" points="18,-68.5 18,-87.5 144,-87.5 144,-68.5 18,-68.5"/>
<text text-anchor="middle" x="81" y="-75.5" font-family="Helvetica,sans-Serif" font-size="10.00">commands.ICommand</text>
</a>
</g>
</g>
<!-- Node2&#45;&gt;Node1 -->
<g id="edge1" class="edge"><title>Node2&#45;&gt;Node1</title>
<path fill="none" stroke="midnightblue" d="M79.4399,-58.3825C79.2572,-55.5753 79.1003,-52.7126 79,-50 78.6141,-39.5663 79.4162,-27.5725 80.1167,-19.6712"/>
<polygon fill="midnightblue" stroke="midnightblue" points="75.9607,-58.7906 80.2083,-68.4967 82.9406,-58.2602 75.9607,-58.7906"/>
</g>
<!-- Node2&#45;&gt;Node1 -->
<g id="edge2" class="edge"><title>Node2&#45;&gt;Node1</title>
<path fill="none" stroke="#9a32cd" stroke-dasharray="5,2" d="M81,-58.0413C81,-45.4724 81,-29.5631 81,-19.8411"/>
<polygon fill="#9a32cd" stroke="#9a32cd" points="77.5001,-58.3716 81,-68.3717 84.5001,-58.3717 77.5001,-58.3716"/>
<text text-anchor="middle" x="107" y="-41.5" font-family="Helvetica,sans-Serif" font-size="10.00"> command</text>
</g>
</g>
</svg>
