<?xml version="1.0" encoding="UTF-8" standalone="no"?>
<!DOCTYPE svg PUBLIC "-//W3C//DTD SVG 1.1//EN"
 "http://www.w3.org/Graphics/SVG/1.1/DTD/svg11.dtd">
<!-- Generated by graphviz version 2.36.0 (20140111.2315)
 -->
<!-- Title: commands.CommandsQueue Pages: 1 -->
<svg width="332pt" height="96pt"
 viewBox="0.00 0.00 332.00 96.00" xmlns="http://www.w3.org/2000/svg" xmlns:xlink="http://www.w3.org/1999/xlink">
<g id="graph0" class="graph" transform="scale(1 1) rotate(0) translate(4 92)">
<title>commands.CommandsQueue</title>
<polygon fill="white" stroke="none" points="-4,4 -4,-92 328,-92 328,4 -4,4"/>
<!-- Node1 -->
<g id="node1" class="node"><title>Node1</title>
<polygon fill="#bfbfbf" stroke="black" points="67.5,-0.5 67.5,-19.5 228.5,-19.5 228.5,-0.5 67.5,-0.5"/>
<text text-anchor="middle" x="148" y="-7.5" font-family="Helvetica,sans-Serif" font-size="10.00">commands.CommandsQueue</text>
</g>
<!-- Node2 -->
<g id="node2" class="node"><title>Node2</title>
<g id="a_node2"><a xlink:href="../../d3/de9/interfacecommands_1_1_i_command.html" target="_top" xlink:title="commands.ICommand">
<polygon fill="white" stroke="black" points="0,-68.5 0,-87.5 126,-87.5 126,-68.5 0,-68.5"/>
<text text-anchor="middle" x="63" y="-75.5" font-family="Helvetica,sans-Serif" font-size="10.00">commands.ICommand</text>
</a>
</g>
</g>
<!-- Node2&#45;&gt;Node1 -->
<g id="edge1" class="edge"><title>Node2&#45;&gt;Node1</title>
<path fill="none" stroke="midnightblue" d="M82.1944,-62.0961C99.0591,-49.0012 123.012,-30.4028 136.885,-19.6305"/>
<polygon fill="midnightblue" stroke="midnightblue" points="79.8643,-59.4742 74.1123,-68.3717 84.1574,-65.0031 79.8643,-59.4742"/>
</g>
<!-- Node3 -->
<g id="node3" class="node"><title>Node3</title>
<polygon fill="white" stroke="#bfbfbf" points="144,-68.5 144,-87.5 324,-87.5 324,-68.5 144,-68.5"/>
<text text-anchor="middle" x="234" y="-75.5" font-family="Helvetica,sans-Serif" font-size="10.00">Queue&lt; commands.ICommand &gt;</text>
</g>
<!-- Node3&#45;&gt;Node1 -->
<g id="edge2" class="edge"><title>Node3&#45;&gt;Node1</title>
<path fill="none" stroke="#9a32cd" stroke-dasharray="5,2" d="M214.58,-62.0961C197.517,-49.0012 173.282,-30.4028 159.246,-19.6305"/>
<polygon fill="#9a32cd" stroke="#9a32cd" points="212.693,-65.06 222.757,-68.3717 216.955,-59.5068 212.693,-65.06"/>
<text text-anchor="middle" x="243.5" y="-41.5" font-family="Helvetica,sans-Serif" font-size="10.00"> commandsQueue</text>
</g>
</g>
</svg>
