<?xml version="1.0" encoding="UTF-8" standalone="no"?>
<!DOCTYPE svg PUBLIC "-//W3C//DTD SVG 1.1//EN"
 "http://www.w3.org/Graphics/SVG/1.1/DTD/svg11.dtd">
<!-- Generated by graphviz version 2.36.0 (20140111.2315)
 -->
<!-- Title: /tmp/duke&#45;compsci308&#45;fall2014/slogo_team12/repository/src Pages: 1 -->
<svg width="646pt" height="111pt"
 viewBox="0.00 0.00 646.00 111.00" xmlns="http://www.w3.org/2000/svg" xmlns:xlink="http://www.w3.org/1999/xlink">
<g id="graph0" class="graph" transform="scale(1 1) rotate(0) translate(4 107)">
<title>/tmp/duke&#45;compsci308&#45;fall2014/slogo_team12/repository/src</title>
<polygon fill="white" stroke="none" points="-4,4 -4,-107 642,-107 642,4 -4,4"/>
<g id="clust1" class="cluster"><title>clusterdir_d69562155e7d418b560116a86d0badfd</title>
<g id="a_clust1"><a xlink:href="dir_d69562155e7d418b560116a86d0badfd.html" target="_top" xlink:title="repository">
<polygon fill="#ddddee" stroke="black" points="8,-8 8,-95 630,-95 630,-8 8,-8"/>
<text text-anchor="middle" x="319" y="-83" font-family="Helvetica,sans-Serif" font-size="10.00">repository</text>
</a>
</g>
</g>
<g id="clust2" class="cluster"><title>clusterdir_37f2915e5a7a2accb2115e380784f5f7</title>
<g id="a_clust2"><a xlink:href="dir_37f2915e5a7a2accb2115e380784f5f7.html" target="_top">
<polygon fill="#eeeeff" stroke="black" points="16,-16 16,-68 622,-68 622,-16 16,-16"/>
</a>
</g>
</g>
<!-- dir_37f2915e5a7a2accb2115e380784f5f7 -->
<g id="node1" class="node"><title>dir_37f2915e5a7a2accb2115e380784f5f7</title>
<text text-anchor="middle" x="587" y="-39.5" font-family="Helvetica,sans-Serif" font-size="10.00">src</text>
</g>
<!-- dir_d24c298b3ee40408e0c5f4b59eb2f36a -->
<g id="node2" class="node"><title>dir_d24c298b3ee40408e0c5f4b59eb2f36a</title>
<g id="a_node2"><a xlink:href="dir_d24c298b3ee40408e0c5f4b59eb2f36a.html" target="_top" xlink:title="commands">
<polygon fill="white" stroke="black" points="541.25,-60 470.75,-60 470.75,-24 541.25,-24 541.25,-60"/>
<text text-anchor="middle" x="506" y="-39.5" font-family="Helvetica,sans-Serif" font-size="10.00">commands</text>
</a>
</g>
</g>
<!-- dir_77a7771c1fb403010002ad87e7082546 -->
<g id="node3" class="node"><title>dir_77a7771c1fb403010002ad87e7082546</title>
<g id="a_node3"><a xlink:href="dir_77a7771c1fb403010002ad87e7082546.html" target="_top" xlink:title="Feature">
<polygon fill="white" stroke="black" points="452,-60 398,-60 398,-24 452,-24 452,-60"/>
<text text-anchor="middle" x="425" y="-39.5" font-family="Helvetica,sans-Serif" font-size="10.00">Feature</text>
</a>
</g>
</g>
<!-- dir_efba26cdf3f3c10d3f43dd121639ffa6 -->
<g id="node4" class="node"><title>dir_efba26cdf3f3c10d3f43dd121639ffa6</title>
<g id="a_node4"><a xlink:href="dir_efba26cdf3f3c10d3f43dd121639ffa6.html" target="_top" xlink:title="HelpPage">
<polygon fill="white" stroke="black" points="379.5,-60 318.5,-60 318.5,-24 379.5,-24 379.5,-60"/>
<text text-anchor="middle" x="349" y="-39.5" font-family="Helvetica,sans-Serif" font-size="10.00">HelpPage</text>
</a>
</g>
</g>
<!-- dir_fbc760b63fc6f4cecdc10bd59df42b4e -->
<g id="node5" class="node"><title>dir_fbc760b63fc6f4cecdc10bd59df42b4e</title>
<g id="a_node5"><a xlink:href="dir_fbc760b63fc6f4cecdc10bd59df42b4e.html" target="_top" xlink:title="input">
<polygon fill="white" stroke="black" points="300,-60 246,-60 246,-24 300,-24 300,-60"/>
<text text-anchor="middle" x="273" y="-39.5" font-family="Helvetica,sans-Serif" font-size="10.00">input</text>
</a>
</g>
</g>
<!-- dir_8f21e3ae8064e04c5b466e6a3d6ea5da -->
<g id="node6" class="node"><title>dir_8f21e3ae8064e04c5b466e6a3d6ea5da</title>
<g id="a_node6"><a xlink:href="dir_8f21e3ae8064e04c5b466e6a3d6ea5da.html" target="_top" xlink:title="MovementAndImageAPI">
<polygon fill="white" stroke="red" points="227.25,-60 96.75,-60 96.75,-24 227.25,-24 227.25,-60"/>
<text text-anchor="middle" x="162" y="-39.5" font-family="Helvetica,sans-Serif" font-size="10.00">MovementAndImageAPI</text>
</a>
</g>
</g>
<!-- dir_c4e5d9a9a2aa85783dada0929b0ebbcd -->
<g id="node7" class="node"><title>dir_c4e5d9a9a2aa85783dada0929b0ebbcd</title>
<g id="a_node7"><a xlink:href="dir_c4e5d9a9a2aa85783dada0929b0ebbcd.html" target="_top" xlink:title="parser">
<polygon fill="white" stroke="black" points="78,-60 24,-60 24,-24 78,-24 78,-60"/>
<text text-anchor="middle" x="51" y="-39.5" font-family="Helvetica,sans-Serif" font-size="10.00">parser</text>
</a>
</g>
</g>
</g>
</svg>
