<?xml version="1.0" encoding="UTF-8" standalone="no"?>
<!DOCTYPE svg PUBLIC "-//W3C//DTD SVG 1.1//EN"
 "http://www.w3.org/Graphics/SVG/1.1/DTD/svg11.dtd">
<!-- Generated by graphviz version 2.36.0 (20140111.2315)
 -->
<!-- Title: Graphical Class Hierarchy Pages: 1 -->
<svg width="224pt" height="104pt"
 viewBox="0.00 0.00 224.00 104.00" xmlns="http://www.w3.org/2000/svg" xmlns:xlink="http://www.w3.org/1999/xlink">
<g id="graph0" class="graph" transform="scale(1 1) rotate(0) translate(4 100)">
<title>Graphical Class Hierarchy</title>
<polygon fill="white" stroke="none" points="-4,4 -4,-100 220,-100 220,4 -4,4"/>
<!-- Node1 -->
<g id="node1" class="node"><title>Node1</title>
<polygon fill="white" stroke="#bfbfbf" points="0.5,-38.5 0.5,-57.5 69.5,-57.5 69.5,-38.5 0.5,-38.5"/>
<text text-anchor="middle" x="35" y="-45.5" font-family="Helvetica,sans-Serif" font-size="10.00">Application</text>
</g>
<!-- Node2 -->
<g id="node2" class="node"><title>Node2</title>
<g id="a_node2"><a xlink:href="da/df5/class_help_page_1_1_help_page.html" target="_top" xlink:title="HelpPage.HelpPage">
<polygon fill="white" stroke="black" points="106,-76.5 106,-95.5 216,-95.5 216,-76.5 106,-76.5"/>
<text text-anchor="middle" x="161" y="-83.5" font-family="Helvetica,sans-Serif" font-size="10.00">HelpPage.HelpPage</text>
</a>
</g>
</g>
<!-- Node1&#45;&gt;Node2 -->
<g id="edge1" class="edge"><title>Node1&#45;&gt;Node2</title>
<path fill="none" stroke="midnightblue" d="M76.9047,-60.5353C93.7734,-65.7048 113.008,-71.5991 128.72,-76.4141"/>
<polygon fill="midnightblue" stroke="midnightblue" points="77.8771,-57.1727 67.2904,-57.589 75.826,-63.8655 77.8771,-57.1727"/>
</g>
<!-- Node3 -->
<g id="node3" class="node"><title>Node3</title>
<g id="a_node3"><a xlink:href="d0/d4b/class_main.html" target="_top" xlink:title="Main">
<polygon fill="white" stroke="black" points="141.5,-38.5 141.5,-57.5 180.5,-57.5 180.5,-38.5 141.5,-38.5"/>
<text text-anchor="middle" x="161" y="-45.5" font-family="Helvetica,sans-Serif" font-size="10.00">Main</text>
</a>
</g>
</g>
<!-- Node1&#45;&gt;Node3 -->
<g id="edge2" class="edge"><title>Node1&#45;&gt;Node3</title>
<path fill="none" stroke="midnightblue" d="M79.6495,-48C100.823,-48 125.135,-48 141.42,-48"/>
<polygon fill="midnightblue" stroke="midnightblue" points="79.5562,-44.5001 69.5562,-48 79.5562,-51.5001 79.5562,-44.5001"/>
</g>
<!-- Node4 -->
<g id="node4" class="node"><title>Node4</title>
<g id="a_node4"><a xlink:href="d4/d57/classparser_1_1_file_picker.html" target="_top" xlink:title="parser.FilePicker">
<polygon fill="white" stroke="black" points="114.5,-0.5 114.5,-19.5 207.5,-19.5 207.5,-0.5 114.5,-0.5"/>
<text text-anchor="middle" x="161" y="-7.5" font-family="Helvetica,sans-Serif" font-size="10.00">parser.FilePicker</text>
</a>
</g>
</g>
<!-- Node1&#45;&gt;Node4 -->
<g id="edge3" class="edge"><title>Node1&#45;&gt;Node4</title>
<path fill="none" stroke="midnightblue" d="M76.9047,-35.4647C93.7734,-30.2952 113.008,-24.4009 128.72,-19.5859"/>
<polygon fill="midnightblue" stroke="midnightblue" points="75.826,-32.1345 67.2904,-38.411 77.8771,-38.8273 75.826,-32.1345"/>
</g>
</g>
</svg>
