<?xml version="1.0" encoding="UTF-8" standalone="no"?>
<!DOCTYPE svg PUBLIC "-//W3C//DTD SVG 1.1//EN"
 "http://www.w3.org/Graphics/SVG/1.1/DTD/svg11.dtd">
<!-- Generated by graphviz version 2.36.0 (20140111.2315)
 -->
<!-- Title: Graphical Class Hierarchy Pages: 1 -->
<svg width="544pt" height="199pt"
 viewBox="0.00 0.00 544.00 199.00" xmlns="http://www.w3.org/2000/svg" xmlns:xlink="http://www.w3.org/1999/xlink">
<g id="graph0" class="graph" transform="scale(1 1) rotate(0) translate(4 195)">
<title>Graphical Class Hierarchy</title>
<polygon fill="white" stroke="none" points="-4,4 -4,-195 540,-195 540,4 -4,4"/>
<!-- Node1 -->
<g id="node1" class="node"><title>Node1</title>
<g id="a_node1"><a xlink:href="d3/de9/interfacecommands_1_1_i_command.html" target="_top" xlink:title="commands.ICommand">
<polygon fill="white" stroke="black" points="0,-95.5 0,-114.5 126,-114.5 126,-95.5 0,-95.5"/>
<text text-anchor="middle" x="63" y="-102.5" font-family="Helvetica,sans-Serif" font-size="10.00">commands.ICommand</text>
</a>
</g>
</g>
<!-- Node2 -->
<g id="node2" class="node"><title>Node2</title>
<g id="a_node2"><a xlink:href="d4/d14/classcommands_1_1_command_execute.html" target="_top" xlink:title="commands.CommandExecute">
<polygon fill="white" stroke="black" points="162,-171.5 162,-190.5 324,-190.5 324,-171.5 162,-171.5"/>
<text text-anchor="middle" x="243" y="-178.5" font-family="Helvetica,sans-Serif" font-size="10.00">commands.CommandExecute</text>
</a>
</g>
</g>
<!-- Node1&#45;&gt;Node2 -->
<g id="edge1" class="edge"><title>Node1&#45;&gt;Node2</title>
<path fill="none" stroke="midnightblue" d="M85.9772,-120.319C105.235,-133.108 134.386,-150.971 162,-162 171.412,-165.759 181.757,-168.895 191.794,-171.464"/>
<polygon fill="midnightblue" stroke="midnightblue" points="87.8632,-117.369 77.6176,-114.671 83.9446,-123.169 87.8632,-117.369"/>
</g>
<!-- Node3 -->
<g id="node3" class="node"><title>Node3</title>
<g id="a_node3"><a xlink:href="db/d3d/classcommands_1_1_command_make.html" target="_top" xlink:title="commands.CommandMake">
<polygon fill="white" stroke="black" points="168.5,-133.5 168.5,-152.5 317.5,-152.5 317.5,-133.5 168.5,-133.5"/>
<text text-anchor="middle" x="243" y="-140.5" font-family="Helvetica,sans-Serif" font-size="10.00">commands.CommandMake</text>
</a>
</g>
</g>
<!-- Node1&#45;&gt;Node3 -->
<g id="edge2" class="edge"><title>Node1&#45;&gt;Node3</title>
<path fill="none" stroke="midnightblue" d="M118.716,-116.681C143.959,-122.07 173.545,-128.386 197.406,-133.48"/>
<polygon fill="midnightblue" stroke="midnightblue" points="119.427,-113.254 108.917,-114.589 117.966,-120.1 119.427,-113.254"/>
</g>
<!-- Node4 -->
<g id="node4" class="node"><title>Node4</title>
<g id="a_node4"><a xlink:href="d8/d98/classcommands_1_1_commands_queue.html" target="_top" xlink:title="commands.CommandsQueue">
<polygon fill="white" stroke="black" points="162.5,-95.5 162.5,-114.5 323.5,-114.5 323.5,-95.5 162.5,-95.5"/>
<text text-anchor="middle" x="243" y="-102.5" font-family="Helvetica,sans-Serif" font-size="10.00">commands.CommandsQueue</text>
</a>
</g>
</g>
<!-- Node1&#45;&gt;Node4 -->
<g id="edge3" class="edge"><title>Node1&#45;&gt;Node4</title>
<path fill="none" stroke="midnightblue" d="M136.487,-105C144.978,-105 153.676,-105 162.258,-105"/>
<polygon fill="midnightblue" stroke="midnightblue" points="136.256,-101.5 126.256,-105 136.256,-108.5 136.256,-101.5"/>
</g>
<!-- Node5 -->
<g id="node5" class="node"><title>Node5</title>
<g id="a_node5"><a xlink:href="db/da9/classcommands_1_1_commands_repeat.html" target="_top" xlink:title="commands.CommandsRepeat">
<polygon fill="white" stroke="black" points="162,-57.5 162,-76.5 324,-76.5 324,-57.5 162,-57.5"/>
<text text-anchor="middle" x="243" y="-64.5" font-family="Helvetica,sans-Serif" font-size="10.00">commands.CommandsRepeat</text>
</a>
</g>
</g>
<!-- Node1&#45;&gt;Node5 -->
<g id="edge4" class="edge"><title>Node1&#45;&gt;Node5</title>
<path fill="none" stroke="midnightblue" d="M118.716,-93.319C143.959,-87.9301 173.545,-81.6139 197.406,-76.5201"/>
<polygon fill="midnightblue" stroke="midnightblue" points="117.966,-89.9003 108.917,-95.411 119.427,-96.746 117.966,-89.9003"/>
</g>
<!-- Node6 -->
<g id="node6" class="node"><title>Node6</title>
<g id="a_node6"><a xlink:href="d7/d15/classcommands_1_1_commands_turtle.html" target="_top" xlink:title="commands.CommandsTurtle">
<polygon fill="white" stroke="black" points="165.5,-19.5 165.5,-38.5 320.5,-38.5 320.5,-19.5 165.5,-19.5"/>
<text text-anchor="middle" x="243" y="-26.5" font-family="Helvetica,sans-Serif" font-size="10.00">commands.CommandsTurtle</text>
</a>
</g>
</g>
<!-- Node1&#45;&gt;Node6 -->
<g id="edge5" class="edge"><title>Node1&#45;&gt;Node6</title>
<path fill="none" stroke="midnightblue" d="M85.9772,-89.6813C105.235,-76.8917 134.386,-59.0292 162,-48 171.412,-44.2406 181.757,-41.1051 191.794,-38.5365"/>
<polygon fill="midnightblue" stroke="midnightblue" points="83.9446,-86.8306 77.6176,-95.3289 87.8632,-92.631 83.9446,-86.8306"/>
</g>
<!-- Node7 -->
<g id="node7" class="node"><title>Node7</title>
<g id="a_node7"><a xlink:href="dd/d12/classcommands_1_1_activity_command.html" target="_top" xlink:title="commands.ActivityCommand">
<polygon fill="white" stroke="black" points="369,-38.5 369,-57.5 527,-57.5 527,-38.5 369,-38.5"/>
<text text-anchor="middle" x="448" y="-45.5" font-family="Helvetica,sans-Serif" font-size="10.00">commands.ActivityCommand</text>
</a>
</g>
</g>
<!-- Node6&#45;&gt;Node7 -->
<g id="edge6" class="edge"><title>Node6&#45;&gt;Node7</title>
<path fill="none" stroke="midnightblue" d="M330.79,-37.1232C343.416,-38.305 356.353,-39.5158 368.796,-40.6804"/>
<polygon fill="midnightblue" stroke="midnightblue" points="331.028,-33.6303 320.746,-36.1831 330.376,-40.5998 331.028,-33.6303"/>
</g>
<!-- Node8 -->
<g id="node8" class="node"><title>Node8</title>
<g id="a_node8"><a xlink:href="d1/d7f/classcommands_1_1_movement_command.html" target="_top" xlink:title="commands.MovementCommand">
<polygon fill="white" stroke="black" points="360.5,-0.5 360.5,-19.5 535.5,-19.5 535.5,-0.5 360.5,-0.5"/>
<text text-anchor="middle" x="448" y="-7.5" font-family="Helvetica,sans-Serif" font-size="10.00">commands.MovementCommand</text>
</a>
</g>
</g>
<!-- Node6&#45;&gt;Node8 -->
<g id="edge7" class="edge"><title>Node6&#45;&gt;Node8</title>
<path fill="none" stroke="midnightblue" d="M330.83,-20.873C340.586,-19.9599 350.527,-19.0295 360.282,-18.1165"/>
<polygon fill="midnightblue" stroke="midnightblue" points="330.376,-17.4002 320.746,-21.8169 331.028,-24.3697 330.376,-17.4002"/>
</g>
</g>
</svg>
