<?xml version="1.0" encoding="UTF-8" standalone="no"?>
<!DOCTYPE svg PUBLIC "-//W3C//DTD SVG 1.1//EN"
 "http://www.w3.org/Graphics/SVG/1.1/DTD/svg11.dtd">
<!-- Generated by graphviz version 2.36.0 (20140111.2315)
 -->
<!-- Title: Graphical Class Hierarchy Pages: 1 -->
<svg width="368pt" height="66pt"
 viewBox="0.00 0.00 368.00 66.00" xmlns="http://www.w3.org/2000/svg" xmlns:xlink="http://www.w3.org/1999/xlink">
<g id="graph0" class="graph" transform="scale(1 1) rotate(0) translate(4 62)">
<title>Graphical Class Hierarchy</title>
<polygon fill="white" stroke="none" points="-4,4 -4,-62 364,-62 364,4 -4,4"/>
<!-- Node1 -->
<g id="node1" class="node"><title>Node1</title>
<g id="a_node1"><a xlink:href="de/db9/interfaceparser_1_1_logo_parser_constants.html" target="_top" xlink:title="parser.LogoParserConstants">
<polygon fill="white" stroke="black" points="0,-19.5 0,-38.5 152,-38.5 152,-19.5 0,-19.5"/>
<text text-anchor="middle" x="76" y="-26.5" font-family="Helvetica,sans-Serif" font-size="10.00">parser.LogoParserConstants</text>
</a>
</g>
</g>
<!-- Node2 -->
<g id="node2" class="node"><title>Node2</title>
<g id="a_node2"><a xlink:href="d5/d0e/classparser_1_1_logo_parser.html" target="_top" xlink:title="parser.LogoParser">
<polygon fill="white" stroke="black" points="222.5,-38.5 222.5,-57.5 325.5,-57.5 325.5,-38.5 222.5,-38.5"/>
<text text-anchor="middle" x="274" y="-45.5" font-family="Helvetica,sans-Serif" font-size="10.00">parser.LogoParser</text>
</a>
</g>
</g>
<!-- Node1&#45;&gt;Node2 -->
<g id="edge1" class="edge"><title>Node1&#45;&gt;Node2</title>
<path fill="none" stroke="midnightblue" d="M162.194,-37.2586C182.673,-39.2438 203.91,-41.3025 222.246,-43.08"/>
<polygon fill="midnightblue" stroke="midnightblue" points="162.509,-33.7728 152.218,-36.2916 161.834,-40.7402 162.509,-33.7728"/>
</g>
<!-- Node3 -->
<g id="node3" class="node"><title>Node3</title>
<g id="a_node3"><a xlink:href="d0/d8c/classparser_1_1_logo_parser_token_manager.html" target="_top" xlink:title="parser.LogoParserTokenManager">
<polygon fill="white" stroke="black" points="188,-0.5 188,-19.5 360,-19.5 360,-0.5 188,-0.5"/>
<text text-anchor="middle" x="274" y="-7.5" font-family="Helvetica,sans-Serif" font-size="10.00">parser.LogoParserTokenManager</text>
</a>
</g>
</g>
<!-- Node1&#45;&gt;Node3 -->
<g id="edge2" class="edge"><title>Node1&#45;&gt;Node3</title>
<path fill="none" stroke="midnightblue" d="M162.426,-20.7189C170.86,-19.9014 179.42,-19.0715 187.851,-18.2542"/>
<polygon fill="midnightblue" stroke="midnightblue" points="161.834,-17.2598 152.218,-21.7084 162.509,-24.2272 161.834,-17.2598"/>
</g>
</g>
</svg>
