<?xml version="1.0" encoding="UTF-8" standalone="no"?>
<!DOCTYPE svg PUBLIC "-//W3C//DTD SVG 1.1//EN"
 "http://www.w3.org/Graphics/SVG/1.1/DTD/svg11.dtd">
<!-- Generated by graphviz version 2.36.0 (20140111.2315)
 -->
<!-- Title: Graphical Class Hierarchy Pages: 1 -->
<svg width="348pt" height="87pt"
 viewBox="0.00 0.00 348.00 87.00" xmlns="http://www.w3.org/2000/svg" xmlns:xlink="http://www.w3.org/1999/xlink">
<g id="graph0" class="graph" transform="scale(1 1) rotate(0) translate(4 83)">
<title>Graphical Class Hierarchy</title>
<polygon fill="white" stroke="none" points="-4,4 -4,-83 344,-83 344,4 -4,4"/>
<!-- Node1 -->
<g id="node1" class="node"><title>Node1</title>
<g id="a_node1"><a xlink:href="d1/d2a/class_movement_and_image_a_p_i_1_1src_1_1_general_turtle_handler.html" target="_top" xlink:title="MovementAndImageAPI.src.\lGeneralTurtleHandler">
<polygon fill="white" stroke="black" points="0,-24 0,-54 152,-54 152,-24 0,-24"/>
<text text-anchor="start" x="8" y="-42" font-family="Helvetica,sans-Serif" font-size="10.00">MovementAndImageAPI.src.</text>
<text text-anchor="middle" x="76" y="-31" font-family="Helvetica,sans-Serif" font-size="10.00">GeneralTurtleHandler</text>
</a>
</g>
</g>
<!-- Node2 -->
<g id="node2" class="node"><title>Node2</title>
<g id="a_node2"><a xlink:href="d6/d0c/class_movement_and_image_a_p_i_1_1src_1_1_turtle_group.html" target="_top" xlink:title="MovementAndImageAPI.src.\lTurtleGroup">
<polygon fill="white" stroke="black" points="188,-49 188,-79 340,-79 340,-49 188,-49"/>
<text text-anchor="start" x="196" y="-67" font-family="Helvetica,sans-Serif" font-size="10.00">MovementAndImageAPI.src.</text>
<text text-anchor="middle" x="264" y="-56" font-family="Helvetica,sans-Serif" font-size="10.00">TurtleGroup</text>
</a>
</g>
</g>
<!-- Node1&#45;&gt;Node2 -->
<g id="edge1" class="edge"><title>Node1&#45;&gt;Node2</title>
<path fill="none" stroke="midnightblue" d="M162.147,-50.4445C170.742,-51.5997 179.426,-52.767 187.905,-53.9066"/>
<polygon fill="midnightblue" stroke="midnightblue" points="162.494,-46.9598 152.117,-49.0964 161.562,-53.8974 162.494,-46.9598"/>
</g>
<!-- Node3 -->
<g id="node3" class="node"><title>Node3</title>
<g id="a_node3"><a xlink:href="d4/d0f/class_movement_and_image_a_p_i_1_1src_1_1_turtle_handler.html" target="_top" xlink:title="MovementAndImageAPI.src.\lTurtleHandler">
<polygon fill="white" stroke="black" points="188,-0 188,-30 340,-30 340,-0 188,-0"/>
<text text-anchor="start" x="196" y="-18" font-family="Helvetica,sans-Serif" font-size="10.00">MovementAndImageAPI.src.</text>
<text text-anchor="middle" x="264" y="-7" font-family="Helvetica,sans-Serif" font-size="10.00">TurtleHandler</text>
</a>
</g>
</g>
<!-- Node1&#45;&gt;Node3 -->
<g id="edge2" class="edge"><title>Node1&#45;&gt;Node3</title>
<path fill="none" stroke="midnightblue" d="M162.147,-28.0133C170.742,-26.9043 179.426,-25.7837 187.905,-24.6897"/>
<polygon fill="midnightblue" stroke="midnightblue" points="161.587,-24.5564 152.117,-29.3075 162.483,-31.4989 161.587,-24.5564"/>
</g>
</g>
</svg>
