<?xml version="1.0" encoding="UTF-8" standalone="no"?>
<!DOCTYPE svg PUBLIC "-//W3C//DTD SVG 1.1//EN"
 "http://www.w3.org/Graphics/SVG/1.1/DTD/svg11.dtd">
<!-- Generated by graphviz version 2.36.0 (20140111.2315)
 -->
<!-- Title: Graphical Class Hierarchy Pages: 1 -->
<svg width="254pt" height="218pt"
 viewBox="0.00 0.00 254.00 218.00" xmlns="http://www.w3.org/2000/svg" xmlns:xlink="http://www.w3.org/1999/xlink">
<g id="graph0" class="graph" transform="scale(1 1) rotate(0) translate(4 214)">
<title>Graphical Class Hierarchy</title>
<polygon fill="white" stroke="none" points="-4,4 -4,-214 250,-214 250,4 -4,4"/>
<!-- Node1 -->
<g id="node1" class="node"><title>Node1</title>
<g id="a_node1"><a xlink:href="d8/dfb/class_feature_1_1_feature.html" target="_top" xlink:title="Feature.Feature">
<polygon fill="white" stroke="black" points="0,-95.5 0,-114.5 92,-114.5 92,-95.5 0,-95.5"/>
<text text-anchor="middle" x="46" y="-102.5" font-family="Helvetica,sans-Serif" font-size="10.00">Feature.Feature</text>
</a>
</g>
</g>
<!-- Node2 -->
<g id="node2" class="node"><title>Node2</title>
<g id="a_node2"><a xlink:href="d8/d32/class_color_feature.html" target="_top" xlink:title="ColorFeature">
<polygon fill="white" stroke="black" points="148.5,-190.5 148.5,-209.5 225.5,-209.5 225.5,-190.5 148.5,-190.5"/>
<text text-anchor="middle" x="187" y="-197.5" font-family="Helvetica,sans-Serif" font-size="10.00">ColorFeature</text>
</a>
</g>
</g>
<!-- Node1&#45;&gt;Node2 -->
<g id="edge1" class="edge"><title>Node1&#45;&gt;Node2</title>
<path fill="none" stroke="midnightblue" d="M61.2344,-122.185C76.2338,-139.287 101.342,-165.199 128,-181 134.381,-184.782 141.608,-187.916 148.743,-190.474"/>
<polygon fill="midnightblue" stroke="midnightblue" points="63.8841,-119.898 54.7206,-114.58 58.5676,-124.452 63.8841,-119.898"/>
</g>
<!-- Node3 -->
<g id="node3" class="node"><title>Node3</title>
<g id="a_node3"><a xlink:href="d9/de8/class_file_chooser_feature.html" target="_top" xlink:title="FileChooserFeature">
<polygon fill="white" stroke="black" points="133.5,-152.5 133.5,-171.5 240.5,-171.5 240.5,-152.5 133.5,-152.5"/>
<text text-anchor="middle" x="187" y="-159.5" font-family="Helvetica,sans-Serif" font-size="10.00">FileChooserFeature</text>
</a>
</g>
</g>
<!-- Node1&#45;&gt;Node3 -->
<g id="edge2" class="edge"><title>Node1&#45;&gt;Node3</title>
<path fill="none" stroke="midnightblue" d="M74.7279,-119.036C90.2018,-126.607 109.945,-135.838 128,-143 136.471,-146.36 145.795,-149.606 154.445,-152.437"/>
<polygon fill="midnightblue" stroke="midnightblue" points="76.2133,-115.866 65.6981,-114.57 73.11,-122.14 76.2133,-115.866"/>
</g>
<!-- Node4 -->
<g id="node4" class="node"><title>Node4</title>
<g id="a_node4"><a xlink:href="d1/d77/class_help_page_feature.html" target="_top" xlink:title="HelpPageFeature">
<polygon fill="white" stroke="black" points="138,-114.5 138,-133.5 236,-133.5 236,-114.5 138,-114.5"/>
<text text-anchor="middle" x="187" y="-121.5" font-family="Helvetica,sans-Serif" font-size="10.00">HelpPageFeature</text>
</a>
</g>
</g>
<!-- Node1&#45;&gt;Node4 -->
<g id="edge3" class="edge"><title>Node1&#45;&gt;Node4</title>
<path fill="none" stroke="midnightblue" d="M102.26,-112.554C113.995,-114.158 126.295,-115.839 137.744,-117.404"/>
<polygon fill="midnightblue" stroke="midnightblue" points="102.511,-109.055 92.1293,-111.169 101.563,-115.991 102.511,-109.055"/>
</g>
<!-- Node5 -->
<g id="node5" class="node"><title>Node5</title>
<g id="a_node5"><a xlink:href="d8/d1d/class_ref_grid_feature.html" target="_top" xlink:title="RefGridFeature">
<polygon fill="white" stroke="black" points="144,-76.5 144,-95.5 230,-95.5 230,-76.5 144,-76.5"/>
<text text-anchor="middle" x="187" y="-83.5" font-family="Helvetica,sans-Serif" font-size="10.00">RefGridFeature</text>
</a>
</g>
</g>
<!-- Node1&#45;&gt;Node5 -->
<g id="edge4" class="edge"><title>Node1&#45;&gt;Node5</title>
<path fill="none" stroke="midnightblue" d="M102.094,-97.4692C116.021,-95.5654 130.756,-93.5514 143.926,-91.7512"/>
<polygon fill="midnightblue" stroke="midnightblue" points="101.563,-94.0091 92.1293,-98.8312 102.511,-100.945 101.563,-94.0091"/>
</g>
<!-- Node6 -->
<g id="node6" class="node"><title>Node6</title>
<g id="a_node6"><a xlink:href="d7/daa/class_turtle_chooser_feature.html" target="_top" xlink:title="TurtleChooserFeature">
<polygon fill="white" stroke="black" points="128,-38.5 128,-57.5 246,-57.5 246,-38.5 128,-38.5"/>
<text text-anchor="middle" x="187" y="-45.5" font-family="Helvetica,sans-Serif" font-size="10.00">TurtleChooserFeature</text>
</a>
</g>
</g>
<!-- Node1&#45;&gt;Node6 -->
<g id="edge5" class="edge"><title>Node1&#45;&gt;Node6</title>
<path fill="none" stroke="midnightblue" d="M74.7279,-90.9644C90.2018,-83.3934 109.945,-74.1615 128,-67 136.471,-63.6402 145.795,-60.3935 154.445,-57.5632"/>
<polygon fill="midnightblue" stroke="midnightblue" points="73.11,-87.8598 65.6981,-95.4304 76.2133,-94.1344 73.11,-87.8598"/>
</g>
<!-- Node7 -->
<g id="node7" class="node"><title>Node7</title>
<g id="a_node7"><a xlink:href="d5/d6a/class_turtle_data_feature.html" target="_top" xlink:title="TurtleDataFeature">
<polygon fill="white" stroke="black" points="136.5,-0.5 136.5,-19.5 237.5,-19.5 237.5,-0.5 136.5,-0.5"/>
<text text-anchor="middle" x="187" y="-7.5" font-family="Helvetica,sans-Serif" font-size="10.00">TurtleDataFeature</text>
</a>
</g>
</g>
<!-- Node1&#45;&gt;Node7 -->
<g id="edge6" class="edge"><title>Node1&#45;&gt;Node7</title>
<path fill="none" stroke="midnightblue" d="M61.2344,-87.8151C76.2338,-70.7131 101.342,-44.8012 128,-29 134.381,-25.218 141.608,-22.0837 148.743,-19.5256"/>
<polygon fill="midnightblue" stroke="midnightblue" points="58.5676,-85.5482 54.7206,-95.42 63.8841,-90.1019 58.5676,-85.5482"/>
</g>
</g>
</svg>
