<?xml version="1.0" encoding="UTF-8" standalone="no"?>
<!DOCTYPE svg PUBLIC "-//W3C//DTD SVG 1.1//EN"
 "http://www.w3.org/Graphics/SVG/1.1/DTD/svg11.dtd">
<!-- Generated by graphviz version 2.36.0 (20140111.2315)
 -->
<!-- Title: ColorFeature Pages: 1 -->
<svg width="205pt" height="106pt"
 viewBox="0.00 0.00 205.00 106.00" xmlns="http://www.w3.org/2000/svg" xmlns:xlink="http://www.w3.org/1999/xlink">
<g id="graph0" class="graph" transform="scale(1 1) rotate(0) translate(4 102)">
<title>ColorFeature</title>
<polygon fill="white" stroke="none" points="-4,4 -4,-102 201,-102 201,4 -4,4"/>
<!-- Node1 -->
<g id="node1" class="node"><title>Node1</title>
<polygon fill="#bfbfbf" stroke="black" points="56.5,-0.5 56.5,-19.5 133.5,-19.5 133.5,-0.5 56.5,-0.5"/>
<text text-anchor="middle" x="95" y="-7.5" font-family="Helvetica,sans-Serif" font-size="10.00">ColorFeature</text>
</g>
<!-- Node2 -->
<g id="node2" class="node"><title>Node2</title>
<g id="a_node2"><a xlink:href="../../d8/dfb/class_feature_1_1_feature.html" target="_top" xlink:title="Feature.Feature">
<polygon fill="white" stroke="black" points="0,-78.5 0,-97.5 92,-97.5 92,-78.5 0,-78.5"/>
<text text-anchor="middle" x="46" y="-85.5" font-family="Helvetica,sans-Serif" font-size="10.00">Feature.Feature</text>
</a>
</g>
</g>
<!-- Node2&#45;&gt;Node1 -->
<g id="edge1" class="edge"><title>Node2&#45;&gt;Node1</title>
<path fill="none" stroke="midnightblue" d="M57.2407,-69.5654C67.3094,-53.9486 81.6538,-31.7002 89.4446,-19.6165"/>
<polygon fill="midnightblue" stroke="midnightblue" points="54.0981,-67.9806 51.6209,-78.2818 59.9813,-71.7738 54.0981,-67.9806"/>
</g>
<!-- Node3 -->
<g id="node3" class="node"><title>Node3</title>
<polygon fill="white" stroke="#bfbfbf" points="110,-78.5 110,-97.5 180,-97.5 180,-78.5 110,-78.5"/>
<text text-anchor="middle" x="145" y="-85.5" font-family="Helvetica,sans-Serif" font-size="10.00">ColorPicker</text>
</g>
<!-- Node3&#45;&gt;Node1 -->
<g id="edge2" class="edge"><title>Node3&#45;&gt;Node1</title>
<path fill="none" stroke="#9a32cd" stroke-dasharray="5,2" d="M133.53,-69.5654C123.256,-53.9486 108.619,-31.7002 100.669,-19.6165"/>
<polygon fill="#9a32cd" stroke="#9a32cd" points="130.844,-71.8513 139.264,-78.2818 136.692,-68.004 130.844,-71.8513"/>
<text text-anchor="middle" x="161" y="-52" font-family="Helvetica,sans-Serif" font-size="10.00"> BGColorPicker</text>
<text text-anchor="middle" x="161" y="-41" font-family="Helvetica,sans-Serif" font-size="10.00">penColorPicker</text>
</g>
</g>
</svg>
