<?xml version="1.0" encoding="UTF-8" standalone="no"?>
<!DOCTYPE svg PUBLIC "-//W3C//DTD SVG 1.1//EN"
 "http://www.w3.org/Graphics/SVG/1.1/DTD/svg11.dtd">
<!-- Generated by graphviz version 2.36.0 (20140111.2315)
 -->
<!-- Title: Workspace Pages: 1 -->
<svg width="1384pt" height="601pt"
 viewBox="0.00 0.00 1384.00 600.56" xmlns="http://www.w3.org/2000/svg" xmlns:xlink="http://www.w3.org/1999/xlink">
<g id="graph0" class="graph" transform="scale(1 1) rotate(0) translate(4 596.563)">
<title>Workspace</title>
<polygon fill="white" stroke="none" points="-4,4 -4,-596.563 1380,-596.563 1380,4 -4,4"/>
<!-- Node1 -->
<g id="node1" class="node"><title>Node1</title>
<polygon fill="#bfbfbf" stroke="black" points="1308,-195.063 1308,-214.063 1376,-214.063 1376,-195.063 1308,-195.063"/>
<text text-anchor="middle" x="1342" y="-202.063" font-family="Helvetica,sans-Serif" font-size="10.00">Workspace</text>
</g>
<!-- Node2 -->
<g id="node2" class="node"><title>Node2</title>
<g id="a_node2"><a xlink:href="../../d4/d0f/class_movement_and_image_a_p_i_1_1src_1_1_turtle_handler.html" target="_top" xlink:title="MovementAndImageAPI.src.\lTurtleHandler">
<polygon fill="white" stroke="black" points="1004,-280.563 1004,-310.563 1156,-310.563 1156,-280.563 1004,-280.563"/>
<text text-anchor="start" x="1012" y="-298.563" font-family="Helvetica,sans-Serif" font-size="10.00">MovementAndImageAPI.src.</text>
<text text-anchor="middle" x="1080" y="-287.563" font-family="Helvetica,sans-Serif" font-size="10.00">TurtleHandler</text>
</a>
</g>
</g>
<!-- Node2&#45;&gt;Node1 -->
<g id="edge1" class="edge"><title>Node2&#45;&gt;Node1</title>
<path fill="none" stroke="#9a32cd" stroke-dasharray="5,2" d="M1166.45,-297.06C1206.17,-294.418 1252.74,-286.332 1290,-265.563 1311.7,-253.466 1328.1,-228.223 1335.92,-214.301"/>
<polygon fill="#9a32cd" stroke="#9a32cd" points="1166.03,-293.578 1156.24,-297.631 1166.42,-300.567 1166.03,-293.578"/>
<text text-anchor="middle" x="1232" y="-299.563" font-family="Helvetica,sans-Serif" font-size="10.00"> myTurtleHandler</text>
</g>
<!-- Node3 -->
<g id="node3" class="node"><title>Node3</title>
<g id="a_node3"><a xlink:href="../../d1/d2a/class_movement_and_image_a_p_i_1_1src_1_1_general_turtle_handler.html" target="_top" xlink:title="MovementAndImageAPI.src.\lGeneralTurtleHandler">
<polygon fill="white" stroke="black" points="424,-324.563 424,-354.563 576,-354.563 576,-324.563 424,-324.563"/>
<text text-anchor="start" x="432" y="-342.563" font-family="Helvetica,sans-Serif" font-size="10.00">MovementAndImageAPI.src.</text>
<text text-anchor="middle" x="500" y="-331.563" font-family="Helvetica,sans-Serif" font-size="10.00">GeneralTurtleHandler</text>
</a>
</g>
</g>
<!-- Node3&#45;&gt;Node2 -->
<g id="edge2" class="edge"><title>Node3&#45;&gt;Node2</title>
<path fill="none" stroke="midnightblue" d="M586.068,-337.477C683.118,-334.402 846.444,-327.11 986,-310.563 991.847,-309.87 997.888,-309.075 1003.95,-308.221"/>
<polygon fill="midnightblue" stroke="midnightblue" points="585.904,-333.981 576.017,-337.788 586.121,-340.977 585.904,-333.981"/>
</g>
<!-- Node26 -->
<g id="node26" class="node"><title>Node26</title>
<g id="a_node26"><a xlink:href="../../d0/d4e/classcommands_1_1_commands_factory.html" target="_top" xlink:title="commands.CommandsFactory">
<polygon fill="white" stroke="black" points="704,-368.063 704,-387.063 868,-387.063 868,-368.063 704,-368.063"/>
<text text-anchor="middle" x="786" y="-375.063" font-family="Helvetica,sans-Serif" font-size="10.00">commands.CommandsFactory</text>
</a>
</g>
</g>
<!-- Node3&#45;&gt;Node26 -->
<g id="edge30" class="edge"><title>Node3&#45;&gt;Node26</title>
<path fill="none" stroke="#9a32cd" stroke-dasharray="5,2" d="M586.232,-351.17C592.245,-351.982 598.214,-352.786 604,-353.563 639.815,-358.372 679.625,-363.657 712.77,-368.041"/>
<polygon fill="#9a32cd" stroke="#9a32cd" points="586.475,-347.671 576.096,-349.799 585.537,-354.608 586.475,-347.671"/>
<text text-anchor="middle" x="645" y="-367.563" font-family="Helvetica,sans-Serif" font-size="10.00"> myTurtleHandler</text>
</g>
<!-- Node4 -->
<g id="node4" class="node"><title>Node4</title>
<g id="a_node4"><a xlink:href="../../da/d31/class_movement_and_image_a_p_i_1_1src_1_1_image_updater.html" target="_top" xlink:title="MovementAndImageAPI.src.\lImageUpdater">
<polygon fill="white" stroke="black" points="710,-280.563 710,-310.563 862,-310.563 862,-280.563 710,-280.563"/>
<text text-anchor="start" x="718" y="-298.563" font-family="Helvetica,sans-Serif" font-size="10.00">MovementAndImageAPI.src.</text>
<text text-anchor="middle" x="786" y="-287.563" font-family="Helvetica,sans-Serif" font-size="10.00">ImageUpdater</text>
</a>
</g>
</g>
<!-- Node4&#45;&gt;Node2 -->
<g id="edge3" class="edge"><title>Node4&#45;&gt;Node2</title>
<path fill="none" stroke="#9a32cd" stroke-dasharray="5,2" d="M872.323,-295.563C913.961,-295.563 963.607,-295.563 1003.8,-295.563"/>
<polygon fill="#9a32cd" stroke="#9a32cd" points="872.197,-292.063 862.197,-295.563 872.197,-299.063 872.197,-292.063"/>
<text text-anchor="middle" x="936" y="-298.563" font-family="Helvetica,sans-Serif" font-size="10.00"> mainImageUpdater</text>
</g>
<!-- Node5 -->
<g id="node5" class="node"><title>Node5</title>
<polygon fill="white" stroke="#bfbfbf" points="452,-261.063 452,-280.063 548,-280.063 548,-261.063 452,-261.063"/>
<text text-anchor="middle" x="500" y="-268.063" font-family="Helvetica,sans-Serif" font-size="10.00">GraphicsContext</text>
</g>
<!-- Node5&#45;&gt;Node1 -->
<g id="edge12" class="edge"><title>Node5&#45;&gt;Node1</title>
<path fill="none" stroke="#9a32cd" stroke-dasharray="5,2" d="M558.555,-269.364C689.21,-266.028 1017.99,-254.176 1290,-215.563 1295.83,-214.736 1301.99,-213.619 1307.93,-212.414"/>
<polygon fill="#9a32cd" stroke="#9a32cd" points="558.291,-265.869 548.381,-269.617 558.465,-272.867 558.291,-265.869"/>
<text text-anchor="middle" x="936" y="-257.563" font-family="Helvetica,sans-Serif" font-size="10.00"> gcBack</text>
</g>
<!-- Node5&#45;&gt;Node4 -->
<g id="edge4" class="edge"><title>Node5&#45;&gt;Node4</title>
<path fill="none" stroke="#9a32cd" stroke-dasharray="5,2" d="M558.368,-275.613C601.988,-279.453 662.385,-284.769 709.861,-288.949"/>
<polygon fill="#9a32cd" stroke="#9a32cd" points="558.484,-272.11 548.216,-274.719 557.87,-279.083 558.484,-272.11"/>
<text text-anchor="middle" x="645" y="-301.563" font-family="Helvetica,sans-Serif" font-size="10.00"> lineGC</text>
<text text-anchor="middle" x="645" y="-290.563" font-family="Helvetica,sans-Serif" font-size="10.00">turtleGC</text>
</g>
<!-- Node6 -->
<g id="node6" class="node"><title>Node6</title>
<polygon fill="white" stroke="#bfbfbf" points="474,-214.063 474,-233.063 526,-233.063 526,-214.063 474,-214.063"/>
<text text-anchor="middle" x="500" y="-221.063" font-family="Helvetica,sans-Serif" font-size="10.00">Canvas</text>
</g>
<!-- Node6&#45;&gt;Node1 -->
<g id="edge32" class="edge"><title>Node6&#45;&gt;Node1</title>
<path fill="none" stroke="#9a32cd" stroke-dasharray="5,2" d="M536.317,-220.255C604.056,-214.095 756.967,-201.082 886,-196.563 930.417,-195.008 941.558,-196.062 986,-196.563 1104.36,-197.897 1244.87,-201.73 1307.72,-203.563"/>
<polygon fill="#9a32cd" stroke="#9a32cd" points="535.832,-216.785 526.193,-221.183 536.471,-223.756 535.832,-216.785"/>
<text text-anchor="middle" x="936" y="-221.563" font-family="Helvetica,sans-Serif" font-size="10.00"> myBackDisplay</text>
<text text-anchor="middle" x="936" y="-210.563" font-family="Helvetica,sans-Serif" font-size="10.00">myLineCanvas</text>
<text text-anchor="middle" x="936" y="-199.563" font-family="Helvetica,sans-Serif" font-size="10.00">myTurtleCanvas</text>
</g>
<!-- Node6&#45;&gt;Node4 -->
<g id="edge5" class="edge"><title>Node6&#45;&gt;Node4</title>
<path fill="none" stroke="#9a32cd" stroke-dasharray="5,2" d="M536.194,-227.057C573.806,-231.345 634.925,-239.913 686,-254.563 709.247,-261.231 734.413,-271.7 753.555,-280.389"/>
<polygon fill="#9a32cd" stroke="#9a32cd" points="536.559,-223.576 526.236,-225.96 535.792,-230.534 536.559,-223.576"/>
<text text-anchor="middle" x="645" y="-268.563" font-family="Helvetica,sans-Serif" font-size="10.00"> myLineCanvas</text>
<text text-anchor="middle" x="645" y="-257.563" font-family="Helvetica,sans-Serif" font-size="10.00">myTurtleCanvas</text>
</g>
<!-- Node7 -->
<g id="node7" class="node"><title>Node7</title>
<g id="a_node7"><a xlink:href="../../d7/d43/class_movement_and_image_a_p_i_1_1src_1_1_turtle.html" target="_top" xlink:title="MovementAndImageAPI.src.\lTurtle">
<polygon fill="white" stroke="black" points="710,-128.563 710,-158.563 862,-158.563 862,-128.563 710,-128.563"/>
<text text-anchor="start" x="718" y="-146.563" font-family="Helvetica,sans-Serif" font-size="10.00">MovementAndImageAPI.src.</text>
<text text-anchor="middle" x="786" y="-135.563" font-family="Helvetica,sans-Serif" font-size="10.00">Turtle</text>
</a>
</g>
</g>
<!-- Node7&#45;&gt;Node2 -->
<g id="edge6" class="edge"><title>Node7&#45;&gt;Node2</title>
<path fill="none" stroke="#9a32cd" stroke-dasharray="5,2" d="M872.76,-136.243C909.809,-136.853 952.292,-142.909 986,-162.563 989.073,-164.355 1045.2,-246.127 1068.74,-280.545"/>
<polygon fill="#9a32cd" stroke="#9a32cd" points="872.478,-132.742 862.466,-136.208 872.454,-139.742 872.478,-132.742"/>
<text text-anchor="middle" x="936" y="-165.563" font-family="Helvetica,sans-Serif" font-size="10.00"> mainTurtle</text>
</g>
<!-- Node8 -->
<g id="node8" class="node"><title>Node8</title>
<g id="a_node8"><a xlink:href="../../da/d8f/class_movement_and_image_a_p_i_1_1src_1_1_pen_handler.html" target="_top" xlink:title="MovementAndImageAPI.src.\lPenHandler">
<polygon fill="white" stroke="black" points="424,-74.5631 424,-104.563 576,-104.563 576,-74.5631 424,-74.5631"/>
<text text-anchor="start" x="432" y="-92.5631" font-family="Helvetica,sans-Serif" font-size="10.00">MovementAndImageAPI.src.</text>
<text text-anchor="middle" x="500" y="-81.5631" font-family="Helvetica,sans-Serif" font-size="10.00">PenHandler</text>
</a>
</g>
</g>
<!-- Node8&#45;&gt;Node7 -->
<g id="edge7" class="edge"><title>Node8&#45;&gt;Node7</title>
<path fill="none" stroke="#9a32cd" stroke-dasharray="5,2" d="M586.43,-102.008C617.834,-106.953 653.624,-113.024 686,-119.563 699.088,-122.207 713.067,-125.378 726.273,-128.537"/>
<polygon fill="#9a32cd" stroke="#9a32cd" points="586.818,-98.5264 576.398,-100.443 585.738,-105.443 586.818,-98.5264"/>
<text text-anchor="middle" x="645" y="-122.563" font-family="Helvetica,sans-Serif" font-size="10.00"> myPenHandler</text>
</g>
<!-- Node9 -->
<g id="node9" class="node"><title>Node9</title>
<g id="a_node9"><a xlink:href="../../d2/d78/class_movement_and_image_a_p_i_1_1src_1_1_pen.html" target="_top" xlink:title="MovementAndImageAPI.src.Pen">
<polygon fill="white" stroke="black" points="140,-80.0631 140,-99.0631 310,-99.0631 310,-80.0631 140,-80.0631"/>
<text text-anchor="middle" x="225" y="-87.0631" font-family="Helvetica,sans-Serif" font-size="10.00">MovementAndImageAPI.src.Pen</text>
</a>
</g>
</g>
<!-- Node9&#45;&gt;Node8 -->
<g id="edge8" class="edge"><title>Node9&#45;&gt;Node8</title>
<path fill="none" stroke="#9a32cd" stroke-dasharray="5,2" d="M320.503,-89.5631C354.332,-89.5631 391.975,-89.5631 423.939,-89.5631"/>
<polygon fill="#9a32cd" stroke="#9a32cd" points="320.137,-86.0632 310.137,-89.5631 320.137,-93.0632 320.137,-86.0632"/>
<text text-anchor="middle" x="362" y="-92.5631" font-family="Helvetica,sans-Serif" font-size="10.00"> mainPen</text>
</g>
<!-- Node10 -->
<g id="node10" class="node"><title>Node10</title>
<polygon fill="white" stroke="#bfbfbf" points="0.5,-80.0631 0.5,-99.0631 41.5,-99.0631 41.5,-80.0631 0.5,-80.0631"/>
<text text-anchor="middle" x="21" y="-87.0631" font-family="Helvetica,sans-Serif" font-size="10.00">Color</text>
</g>
<!-- Node10&#45;&gt;Node9 -->
<g id="edge9" class="edge"><title>Node10&#45;&gt;Node9</title>
<path fill="none" stroke="#9a32cd" stroke-dasharray="5,2" d="M51.9646,-89.5631C75.2055,-89.5631 108.61,-89.5631 139.813,-89.5631"/>
<polygon fill="#9a32cd" stroke="#9a32cd" points="51.7364,-86.0632 41.7364,-89.5631 51.7364,-93.0632 51.7364,-86.0632"/>
<text text-anchor="middle" x="91" y="-92.5631" font-family="Helvetica,sans-Serif" font-size="10.00"> myPenColor</text>
</g>
<!-- Node11 -->
<g id="node11" class="node"><title>Node11</title>
<polygon fill="white" stroke="#bfbfbf" points="473,-162.063 473,-181.063 527,-181.063 527,-162.063 473,-162.063"/>
<text text-anchor="middle" x="500" y="-169.063" font-family="Helvetica,sans-Serif" font-size="10.00">Point2D</text>
</g>
<!-- Node11&#45;&gt;Node7 -->
<g id="edge10" class="edge"><title>Node11&#45;&gt;Node7</title>
<path fill="none" stroke="#9a32cd" stroke-dasharray="5,2" d="M537.278,-167.986C580.588,-163.716 654.154,-156.463 709.895,-150.968"/>
<polygon fill="#9a32cd" stroke="#9a32cd" points="536.817,-164.515 527.209,-168.979 537.504,-171.481 536.817,-164.515"/>
<text text-anchor="middle" x="645" y="-164.563" font-family="Helvetica,sans-Serif" font-size="10.00"> myLocation</text>
</g>
<!-- Node12 -->
<g id="node12" class="node"><title>Node12</title>
<polygon fill="white" stroke="#bfbfbf" points="466,-124.063 466,-143.063 534,-143.063 534,-124.063 466,-124.063"/>
<text text-anchor="middle" x="500" y="-131.063" font-family="Helvetica,sans-Serif" font-size="10.00">ImageView</text>
</g>
<!-- Node12&#45;&gt;Node7 -->
<g id="edge11" class="edge"><title>Node12&#45;&gt;Node7</title>
<path fill="none" stroke="#9a32cd" stroke-dasharray="5,2" d="M544.174,-133.6C581.68,-133.791 637.452,-134.455 686,-136.563 693.746,-136.9 701.828,-137.334 709.889,-137.822"/>
<polygon fill="#9a32cd" stroke="#9a32cd" points="544.115,-130.1 534.101,-133.558 544.086,-137.1 544.115,-130.1"/>
<text text-anchor="middle" x="645" y="-139.563" font-family="Helvetica,sans-Serif" font-size="10.00"> myImage</text>
</g>
<!-- Node13 -->
<g id="node13" class="node"><title>Node13</title>
<polygon fill="white" stroke="#bfbfbf" points="1011.5,-157.063 1011.5,-176.063 1148.5,-176.063 1148.5,-157.063 1011.5,-157.063"/>
<text text-anchor="middle" x="1080" y="-164.063" font-family="Helvetica,sans-Serif" font-size="10.00">Map&lt; Text, ICommand &gt;</text>
</g>
<!-- Node13&#45;&gt;Node1 -->
<g id="edge13" class="edge"><title>Node13&#45;&gt;Node1</title>
<path fill="none" stroke="#9a32cd" stroke-dasharray="5,2" d="M1159.07,-164.206C1198.86,-164.807 1247.65,-168.345 1290,-179.563 1302.58,-182.896 1315.75,-189.439 1325.55,-194.995"/>
<polygon fill="#9a32cd" stroke="#9a32cd" points="1158.93,-160.704 1148.9,-164.112 1158.87,-167.704 1158.93,-160.704"/>
<text text-anchor="middle" x="1232" y="-182.563" font-family="Helvetica,sans-Serif" font-size="10.00"> prevCommandMap</text>
</g>
<!-- Node14 -->
<g id="node14" class="node"><title>Node14</title>
<polygon fill="white" stroke="#bfbfbf" points="1016,-119.063 1016,-138.063 1144,-138.063 1144,-119.063 1016,-119.063"/>
<text text-anchor="middle" x="1080" y="-126.063" font-family="Helvetica,sans-Serif" font-size="10.00">ObservableList&lt; Text &gt;</text>
</g>
<!-- Node14&#45;&gt;Node1 -->
<g id="edge14" class="edge"><title>Node14&#45;&gt;Node1</title>
<path fill="none" stroke="#9a32cd" stroke-dasharray="5,2" d="M1154.15,-124.032C1195.93,-124.359 1248.16,-129.863 1290,-150.563 1310.34,-160.627 1326.82,-182.376 1335.13,-194.987"/>
<polygon fill="#9a32cd" stroke="#9a32cd" points="1154.04,-120.532 1144.05,-124.051 1154.05,-127.532 1154.04,-120.532"/>
<text text-anchor="middle" x="1232" y="-153.563" font-family="Helvetica,sans-Serif" font-size="10.00"> prevCommandObsvList</text>
</g>
<!-- Node15 -->
<g id="node15" class="node"><title>Node15</title>
<polygon fill="white" stroke="#bfbfbf" points="1055.5,-51.0631 1055.5,-70.0631 1104.5,-70.0631 1104.5,-51.0631 1055.5,-51.0631"/>
<text text-anchor="middle" x="1080" y="-58.0631" font-family="Helvetica,sans-Serif" font-size="10.00">Button</text>
</g>
<!-- Node15&#45;&gt;Node1 -->
<g id="edge15" class="edge"><title>Node15&#45;&gt;Node1</title>
<path fill="none" stroke="#9a32cd" stroke-dasharray="5,2" d="M1114.42,-51.0025C1158.96,-40.4128 1238.16,-29.3406 1290,-66.5631 1332.95,-97.4018 1339.79,-168.596 1340.83,-194.721"/>
<polygon fill="#9a32cd" stroke="#9a32cd" points="1113.52,-47.6193 1104.67,-53.4453 1115.22,-54.4093 1113.52,-47.6193"/>
<text text-anchor="middle" x="1232" y="-113.563" font-family="Helvetica,sans-Serif" font-size="10.00"> RefGridButton</text>
<text text-anchor="middle" x="1232" y="-102.563" font-family="Helvetica,sans-Serif" font-size="10.00">FileChooserButton</text>
<text text-anchor="middle" x="1232" y="-91.5631" font-family="Helvetica,sans-Serif" font-size="10.00">HelpPageButton</text>
<text text-anchor="middle" x="1232" y="-80.5631" font-family="Helvetica,sans-Serif" font-size="10.00">TurtleDataButton</text>
<text text-anchor="middle" x="1232" y="-69.5631" font-family="Helvetica,sans-Serif" font-size="10.00">TCButton</text>
</g>
<!-- Node16 -->
<g id="node16" class="node"><title>Node16</title>
<polygon fill="white" stroke="#bfbfbf" points="1030,-13.0631 1030,-32.0631 1130,-32.0631 1130,-13.0631 1030,-13.0631"/>
<text text-anchor="middle" x="1080" y="-20.0631" font-family="Helvetica,sans-Serif" font-size="10.00">ArrayList&lt; Text &gt;</text>
</g>
<!-- Node16&#45;&gt;Node1 -->
<g id="edge16" class="edge"><title>Node16&#45;&gt;Node1</title>
<path fill="none" stroke="#9a32cd" stroke-dasharray="5,2" d="M1121.13,-10.4443C1166.93,0.730695 1241.72,10.5562 1290,-26.5631 1317.65,-47.822 1335.07,-160.937 1339.73,-194.909"/>
<polygon fill="#9a32cd" stroke="#9a32cd" points="1120.08,-7.10227 1111.26,-12.9833 1121.82,-13.8816 1120.08,-7.10227"/>
<text text-anchor="middle" x="1232" y="-29.5631" font-family="Helvetica,sans-Serif" font-size="10.00"> prevCommandList</text>
</g>
<!-- Node17 -->
<g id="node17" class="node"><title>Node17</title>
<g id="a_node17"><a xlink:href="../../d6/d95/classparser_1_1_parser.html" target="_top" xlink:title="parser.Parser">
<polygon fill="white" stroke="black" points="1040,-408.063 1040,-427.063 1120,-427.063 1120,-408.063 1040,-408.063"/>
<text text-anchor="middle" x="1080" y="-415.063" font-family="Helvetica,sans-Serif" font-size="10.00">parser.Parser</text>
</a>
</g>
</g>
<!-- Node17&#45;&gt;Node1 -->
<g id="edge17" class="edge"><title>Node17&#45;&gt;Node1</title>
<path fill="none" stroke="#9a32cd" stroke-dasharray="5,2" d="M1130.37,-421.987C1177.23,-423.367 1246.73,-417.686 1290,-378.563 1339.5,-333.807 1341.99,-243.851 1341.39,-214.25"/>
<polygon fill="#9a32cd" stroke="#9a32cd" points="1130.29,-418.48 1120.15,-421.564 1130,-425.474 1130.29,-418.48"/>
<text text-anchor="middle" x="1232" y="-424.563" font-family="Helvetica,sans-Serif" font-size="10.00"> parser</text>
</g>
<!-- Node18 -->
<g id="node18" class="node"><title>Node18</title>
<polygon fill="white" stroke="#bfbfbf" points="739.5,-422.063 739.5,-441.063 832.5,-441.063 832.5,-422.063 739.5,-422.063"/>
<text text-anchor="middle" x="786" y="-429.063" font-family="Helvetica,sans-Serif" font-size="10.00">ResourceBundle</text>
</g>
<!-- Node18&#45;&gt;Node17 -->
<g id="edge18" class="edge"><title>Node18&#45;&gt;Node17</title>
<path fill="none" stroke="#9a32cd" stroke-dasharray="5,2" d="M842.666,-428.894C900.353,-426.128 989.037,-421.876 1039.77,-419.444"/>
<polygon fill="#9a32cd" stroke="#9a32cd" points="842.446,-425.401 832.625,-429.376 842.781,-432.393 842.446,-425.401"/>
<text text-anchor="middle" x="936" y="-430.563" font-family="Helvetica,sans-Serif" font-size="10.00"> ourLanguageBundle</text>
</g>
<!-- Node19 -->
<g id="node19" class="node"><title>Node19</title>
<g id="a_node19"><a xlink:href="../../d5/d0e/classparser_1_1_logo_parser.html" target="_top" xlink:title="parser.LogoParser">
<polygon fill="white" stroke="black" points="734.5,-475.063 734.5,-494.063 837.5,-494.063 837.5,-475.063 734.5,-475.063"/>
<text text-anchor="middle" x="786" y="-482.063" font-family="Helvetica,sans-Serif" font-size="10.00">parser.LogoParser</text>
</a>
</g>
</g>
<!-- Node19&#45;&gt;Node17 -->
<g id="edge19" class="edge"><title>Node19&#45;&gt;Node17</title>
<path fill="none" stroke="#9a32cd" stroke-dasharray="5,2" d="M845.87,-473.016C885.581,-465.012 939.093,-453.809 986,-442.563 1005.67,-437.847 1027.52,-432.004 1045.1,-427.153"/>
<polygon fill="#9a32cd" stroke="#9a32cd" points="844.943,-469.633 835.827,-475.032 846.32,-476.496 844.943,-469.633"/>
<text text-anchor="middle" x="936" y="-467.563" font-family="Helvetica,sans-Serif" font-size="10.00"> myLogoParser</text>
</g>
<!-- Node20 -->
<g id="node20" class="node"><title>Node20</title>
<g id="a_node20"><a xlink:href="../../de/db9/interfaceparser_1_1_logo_parser_constants.html" target="_top" xlink:title="parser.LogoParserConstants">
<polygon fill="white" stroke="black" points="149,-500.063 149,-519.063 301,-519.063 301,-500.063 149,-500.063"/>
<text text-anchor="middle" x="225" y="-507.063" font-family="Helvetica,sans-Serif" font-size="10.00">parser.LogoParserConstants</text>
</a>
</g>
</g>
<!-- Node20&#45;&gt;Node19 -->
<g id="edge20" class="edge"><title>Node20&#45;&gt;Node19</title>
<path fill="none" stroke="midnightblue" d="M311.17,-505.754C429.072,-500.481 638.315,-491.123 734.31,-486.83"/>
<polygon fill="midnightblue" stroke="midnightblue" points="310.933,-502.261 301.099,-506.204 311.245,-509.254 310.933,-502.261"/>
</g>
<!-- Node21 -->
<g id="node21" class="node"><title>Node21</title>
<g id="a_node21"><a xlink:href="../../d0/d8c/classparser_1_1_logo_parser_token_manager.html" target="_top" xlink:title="parser.LogoParserTokenManager">
<polygon fill="white" stroke="black" points="414,-528.063 414,-547.063 586,-547.063 586,-528.063 414,-528.063"/>
<text text-anchor="middle" x="500" y="-535.063" font-family="Helvetica,sans-Serif" font-size="10.00">parser.LogoParserTokenManager</text>
</a>
</g>
</g>
<!-- Node20&#45;&gt;Node21 -->
<g id="edge22" class="edge"><title>Node20&#45;&gt;Node21</title>
<path fill="none" stroke="midnightblue" d="M311.298,-518.312C343.951,-521.661 381.176,-525.479 413.818,-528.827"/>
<polygon fill="midnightblue" stroke="midnightblue" points="311.626,-514.827 301.321,-517.288 310.912,-521.79 311.626,-514.827"/>
</g>
<!-- Node21&#45;&gt;Node19 -->
<g id="edge21" class="edge"><title>Node21&#45;&gt;Node19</title>
<path fill="none" stroke="#9a32cd" stroke-dasharray="5,2" d="M596.313,-528.082C625.274,-524.429 657.08,-519.636 686,-513.563 710.188,-508.484 737.066,-500.454 756.706,-494.13"/>
<polygon fill="#9a32cd" stroke="#9a32cd" points="595.695,-524.632 586.198,-529.327 596.55,-531.58 595.695,-524.632"/>
<text text-anchor="middle" x="645" y="-530.563" font-family="Helvetica,sans-Serif" font-size="10.00"> token_source</text>
</g>
<!-- Node22 -->
<g id="node22" class="node"><title>Node22</title>
<g id="a_node22"><a xlink:href="../../d4/dad/classparser_1_1_simple_char_stream.html" target="_top" xlink:title="parser.SimpleCharStream">
<polygon fill="white" stroke="black" points="154.5,-561.063 154.5,-580.063 295.5,-580.063 295.5,-561.063 154.5,-561.063"/>
<text text-anchor="middle" x="225" y="-568.063" font-family="Helvetica,sans-Serif" font-size="10.00">parser.SimpleCharStream</text>
</a>
</g>
</g>
<!-- Node22&#45;&gt;Node19 -->
<g id="edge24" class="edge"><title>Node22&#45;&gt;Node19</title>
<path fill="none" stroke="#9a32cd" stroke-dasharray="5,2" d="M305.675,-578.487C399.463,-584.949 558.578,-586.854 686,-542.563 719.492,-530.922 754.272,-507.428 772.356,-494.193"/>
<polygon fill="#9a32cd" stroke="#9a32cd" points="305.914,-574.995 295.688,-577.764 305.409,-581.977 305.914,-574.995"/>
<text text-anchor="middle" x="500" y="-584.563" font-family="Helvetica,sans-Serif" font-size="10.00"> jj_input_stream</text>
</g>
<!-- Node22&#45;&gt;Node21 -->
<g id="edge23" class="edge"><title>Node22&#45;&gt;Node21</title>
<path fill="none" stroke="#9a32cd" stroke-dasharray="5,2" d="M305.605,-560.941C341.739,-556.573 384.351,-551.422 420.368,-547.068"/>
<polygon fill="#9a32cd" stroke="#9a32cd" points="305.103,-557.476 295.596,-562.15 305.944,-564.425 305.103,-557.476"/>
<text text-anchor="middle" x="362" y="-561.563" font-family="Helvetica,sans-Serif" font-size="10.00"> input_stream</text>
</g>
<!-- Node23 -->
<g id="node23" class="node"><title>Node23</title>
<g id="a_node23"><a xlink:href="../../db/df3/classparser_1_1_token.html" target="_top" xlink:title="parser.Token">
<polygon fill="white" stroke="black" points="461.5,-374.063 461.5,-393.063 538.5,-393.063 538.5,-374.063 461.5,-374.063"/>
<text text-anchor="middle" x="500" y="-381.063" font-family="Helvetica,sans-Serif" font-size="10.00">parser.Token</text>
</a>
</g>
</g>
<!-- Node23&#45;&gt;Node19 -->
<g id="edge25" class="edge"><title>Node23&#45;&gt;Node19</title>
<path fill="none" stroke="#9a32cd" stroke-dasharray="5,2" d="M544.476,-395.961C582.262,-407.084 638.274,-424.41 686,-442.563 694.183,-445.676 695.963,-447.091 704,-450.563 723.46,-458.971 745.668,-468.272 761.902,-475.018"/>
<polygon fill="#9a32cd" stroke="#9a32cd" points="545.382,-392.58 534.801,-393.132 543.417,-399.298 545.382,-392.58"/>
<text text-anchor="middle" x="645" y="-456.563" font-family="Helvetica,sans-Serif" font-size="10.00"> token</text>
<text text-anchor="middle" x="645" y="-445.563" font-family="Helvetica,sans-Serif" font-size="10.00">jj_nt</text>
</g>
<!-- Node23&#45;&gt;Node23 -->
<g id="edge27" class="edge"><title>Node23&#45;&gt;Node23</title>
<path fill="none" stroke="#9a32cd" stroke-dasharray="5,2" d="M474.33,-402.592C475.731,-407.691 484.287,-411.563 500,-411.563 524.527,-411.563 531.617,-402.128 521.27,-393.32"/>
<polygon fill="#9a32cd" stroke="#9a32cd" points="477.605,-403.855 478.73,-393.32 471.281,-400.854 477.605,-403.855"/>
<text text-anchor="middle" x="500" y="-425.563" font-family="Helvetica,sans-Serif" font-size="10.00"> next</text>
<text text-anchor="middle" x="500" y="-414.563" font-family="Helvetica,sans-Serif" font-size="10.00">specialToken</text>
</g>
<!-- Node24 -->
<g id="node24" class="node"><title>Node24</title>
<polygon fill="white" stroke="#bfbfbf" points="169.5,-374.063 169.5,-393.063 280.5,-393.063 280.5,-374.063 169.5,-374.063"/>
<text text-anchor="middle" x="225" y="-381.063" font-family="Helvetica,sans-Serif" font-size="10.00">java::io::Serializable</text>
</g>
<!-- Node24&#45;&gt;Node23 -->
<g id="edge26" class="edge"><title>Node24&#45;&gt;Node23</title>
<path fill="none" stroke="midnightblue" d="M290.592,-383.563C343.705,-383.563 417.148,-383.563 461.175,-383.563"/>
<polygon fill="midnightblue" stroke="midnightblue" points="290.59,-380.063 280.589,-383.563 290.589,-387.063 290.59,-380.063"/>
</g>
<!-- Node25 -->
<g id="node25" class="node"><title>Node25</title>
<polygon fill="white" stroke="#bfbfbf" points="464,-452.063 464,-471.063 536,-471.063 536,-452.063 464,-452.063"/>
<text text-anchor="middle" x="500" y="-459.063" font-family="Helvetica,sans-Serif" font-size="10.00">List&lt; int[]&gt;</text>
</g>
<!-- Node25&#45;&gt;Node19 -->
<g id="edge28" class="edge"><title>Node25&#45;&gt;Node19</title>
<path fill="none" stroke="#9a32cd" stroke-dasharray="5,2" d="M546.241,-464.355C583.714,-466.761 638.35,-470.483 686,-474.563 701.749,-475.912 718.887,-477.574 734.41,-479.153"/>
<polygon fill="#9a32cd" stroke="#9a32cd" points="546.349,-460.855 536.146,-463.713 545.904,-467.841 546.349,-460.855"/>
<text text-anchor="middle" x="645" y="-477.563" font-family="Helvetica,sans-Serif" font-size="10.00"> jj_expentries</text>
</g>
<!-- Node26&#45;&gt;Node1 -->
<g id="edge31" class="edge"><title>Node26&#45;&gt;Node1</title>
<path fill="none" stroke="#9a32cd" stroke-dasharray="5,2" d="M878.26,-375.835C1005.05,-371.742 1226.13,-357.961 1290,-311.563 1323.3,-287.374 1335.7,-235.673 1339.53,-214.211"/>
<polygon fill="#9a32cd" stroke="#9a32cd" points="878.059,-372.339 868.172,-376.146 878.275,-379.336 878.059,-372.339"/>
<text text-anchor="middle" x="1080" y="-372.563" font-family="Helvetica,sans-Serif" font-size="10.00"> commandsFactory</text>
</g>
<!-- Node26&#45;&gt;Node17 -->
<g id="edge29" class="edge"><title>Node26&#45;&gt;Node17</title>
<path fill="none" stroke="#9a32cd" stroke-dasharray="5,2" d="M866.517,-388.456C922.799,-396.166 995.841,-406.172 1039.98,-412.217"/>
<polygon fill="#9a32cd" stroke="#9a32cd" points="866.953,-384.983 856.57,-387.093 866.003,-391.918 866.953,-384.983"/>
<text text-anchor="middle" x="936" y="-408.563" font-family="Helvetica,sans-Serif" font-size="10.00"> commandsFactory</text>
</g>
</g>
</svg>
