<?xml version="1.0" encoding="UTF-8" standalone="no"?>
<!DOCTYPE svg PUBLIC "-//W3C//DTD SVG 1.1//EN"
 "http://www.w3.org/Graphics/SVG/1.1/DTD/svg11.dtd">
<!-- Generated by graphviz version 2.36.0 (20140111.2315)
 -->
<!-- Title: commands.ICommand.execute Pages: 1 -->
<svg width="882pt" height="180pt"
 viewBox="0.00 0.00 882.00 180.00" xmlns="http://www.w3.org/2000/svg" xmlns:xlink="http://www.w3.org/1999/xlink">
<g id="graph0" class="graph" transform="scale(1 1) rotate(0) translate(4 176)">
<title>commands.ICommand.execute</title>
<polygon fill="white" stroke="none" points="-4,4 -4,-176 878,-176 878,4 -4,4"/>
<!-- Node1 -->
<g id="node1" class="node"><title>Node1</title>
<polygon fill="#bfbfbf" stroke="black" points="0.5,-76.5 0.5,-95.5 167.5,-95.5 167.5,-76.5 0.5,-76.5"/>
<text text-anchor="middle" x="84" y="-83.5" font-family="Helvetica,sans-Serif" font-size="10.00">commands.ICommand.execute</text>
</g>
<!-- Node2 -->
<g id="node2" class="node"><title>Node2</title>
<g id="a_node2"><a xlink:href="../../d4/d14/classcommands_1_1_command_execute.html#a65bebd1e92d295de0536e8e09f3bffad" target="_top" xlink:title="commands.CommandExecute.execute">
<polygon fill="white" stroke="black" points="204.5,-152.5 204.5,-171.5 407.5,-171.5 407.5,-152.5 204.5,-152.5"/>
<text text-anchor="middle" x="306" y="-159.5" font-family="Helvetica,sans-Serif" font-size="10.00">commands.CommandExecute.execute</text>
</a>
</g>
</g>
<!-- Node1&#45;&gt;Node2 -->
<g id="edge1" class="edge"><title>Node1&#45;&gt;Node2</title>
<path fill="none" stroke="midnightblue" d="M110.338,-100.537C133.896,-113.464 170.323,-131.977 204,-143 215.616,-146.802 228.246,-149.93 240.518,-152.472"/>
<polygon fill="midnightblue" stroke="midnightblue" points="111.814,-97.3527 101.374,-95.5459 108.409,-103.469 111.814,-97.3527"/>
</g>
<!-- Node3 -->
<g id="node3" class="node"><title>Node3</title>
<g id="a_node3"><a xlink:href="../../db/da9/classcommands_1_1_commands_repeat.html#adb7a146ff94fdfc40f221edb3355fd41" target="_top" xlink:title="commands.CommandsRepeat.execute">
<polygon fill="white" stroke="black" points="204.5,-114.5 204.5,-133.5 407.5,-133.5 407.5,-114.5 204.5,-114.5"/>
<text text-anchor="middle" x="306" y="-121.5" font-family="Helvetica,sans-Serif" font-size="10.00">commands.CommandsRepeat.execute</text>
</a>
</g>
</g>
<!-- Node1&#45;&gt;Node3 -->
<g id="edge2" class="edge"><title>Node1&#45;&gt;Node3</title>
<path fill="none" stroke="midnightblue" d="M150.281,-97.2759C181.932,-102.743 219.536,-109.238 249.746,-114.456"/>
<polygon fill="midnightblue" stroke="midnightblue" points="150.681,-93.7932 140.231,-95.54 149.49,-100.691 150.681,-93.7932"/>
</g>
<!-- Node4 -->
<g id="node4" class="node"><title>Node4</title>
<g id="a_node4"><a xlink:href="../../db/d3d/classcommands_1_1_command_make.html#a2a80b96ef180da146e73c3f585b54e1b" target="_top" xlink:title="commands.CommandMake.execute">
<polygon fill="white" stroke="black" points="210.5,-76.5 210.5,-95.5 401.5,-95.5 401.5,-76.5 210.5,-76.5"/>
<text text-anchor="middle" x="306" y="-83.5" font-family="Helvetica,sans-Serif" font-size="10.00">commands.CommandMake.execute</text>
</a>
</g>
</g>
<!-- Node1&#45;&gt;Node4 -->
<g id="edge3" class="edge"><title>Node1&#45;&gt;Node4</title>
<path fill="none" stroke="midnightblue" d="M177.741,-86C188.46,-86 199.404,-86 210.151,-86"/>
<polygon fill="midnightblue" stroke="midnightblue" points="177.546,-82.5001 167.546,-86 177.546,-89.5001 177.546,-82.5001"/>
</g>
<!-- Node5 -->
<g id="node5" class="node"><title>Node5</title>
<g id="a_node5"><a xlink:href="../../d5/d56/class_workspace.html#a0ed8fb487512971086b6f3ed0d74e4ae" target="_top" xlink:title="Workspace.sendUserInput">
<polygon fill="white" stroke="black" points="444,-19.5 444,-38.5 584,-38.5 584,-19.5 444,-19.5"/>
<text text-anchor="middle" x="514" y="-26.5" font-family="Helvetica,sans-Serif" font-size="10.00">Workspace.sendUserInput</text>
</a>
</g>
</g>
<!-- Node1&#45;&gt;Node5 -->
<g id="edge4" class="edge"><title>Node1&#45;&gt;Node5</title>
<path fill="none" stroke="midnightblue" d="M152.178,-74.8415C169.076,-72.1538 187.188,-69.3751 204,-67 286.285,-55.3753 381.189,-44.0071 443.874,-36.7804"/>
<polygon fill="midnightblue" stroke="midnightblue" points="151.156,-71.4606 141.835,-76.4988 152.263,-78.3724 151.156,-71.4606"/>
</g>
<!-- Node8 -->
<g id="node8" class="node"><title>Node8</title>
<g id="a_node8"><a xlink:href="../../d5/d56/class_workspace.html#a3c6b1051d12cff2dfcc059993e8aae47" target="_top" xlink:title="Workspace.setUpPreviousCommands">
<polygon fill="white" stroke="black" points="208.5,-0.5 208.5,-19.5 403.5,-19.5 403.5,-0.5 208.5,-0.5"/>
<text text-anchor="middle" x="306" y="-7.5" font-family="Helvetica,sans-Serif" font-size="10.00">Workspace.setUpPreviousCommands</text>
</a>
</g>
</g>
<!-- Node1&#45;&gt;Node8 -->
<g id="edge7" class="edge"><title>Node1&#45;&gt;Node8</title>
<path fill="none" stroke="midnightblue" d="M113.093,-72.0183C136.859,-60.6076 172.051,-44.681 204,-34 221.093,-28.2855 240.244,-23.3734 257.236,-19.5087"/>
<polygon fill="midnightblue" stroke="midnightblue" points="111.427,-68.9366 103.959,-76.452 114.483,-75.2339 111.427,-68.9366"/>
</g>
<!-- Node6 -->
<g id="node6" class="node"><title>Node6</title>
<g id="a_node6"><a xlink:href="../../d5/d56/class_workspace.html#a429d535dfd8427637b7715f0b1e1df1b" target="_top" xlink:title="Workspace.createWorkspace">
<polygon fill="white" stroke="black" points="620,-19.5 620,-38.5 772,-38.5 772,-19.5 620,-19.5"/>
<text text-anchor="middle" x="696" y="-26.5" font-family="Helvetica,sans-Serif" font-size="10.00">Workspace.createWorkspace</text>
</a>
</g>
</g>
<!-- Node5&#45;&gt;Node6 -->
<g id="edge5" class="edge"><title>Node5&#45;&gt;Node6</title>
<path fill="none" stroke="midnightblue" d="M594.328,-29C602.799,-29 611.399,-29 619.821,-29"/>
<polygon fill="midnightblue" stroke="midnightblue" points="594.078,-25.5001 584.078,-29 594.078,-32.5001 594.078,-25.5001"/>
</g>
<!-- Node7 -->
<g id="node7" class="node"><title>Node7</title>
<g id="a_node7"><a xlink:href="../../d0/d4b/class_main.html#aaa75b38812324d0f17c89f139bde6ada" target="_top" xlink:title="Main.start">
<polygon fill="white" stroke="black" points="808.5,-19.5 808.5,-38.5 873.5,-38.5 873.5,-19.5 808.5,-19.5"/>
<text text-anchor="middle" x="841" y="-26.5" font-family="Helvetica,sans-Serif" font-size="10.00">Main.start</text>
</a>
</g>
</g>
<!-- Node6&#45;&gt;Node7 -->
<g id="edge6" class="edge"><title>Node6&#45;&gt;Node7</title>
<path fill="none" stroke="midnightblue" d="M782.392,-29C791.632,-29 800.551,-29 808.498,-29"/>
<polygon fill="midnightblue" stroke="midnightblue" points="782.269,-25.5001 772.269,-29 782.269,-32.5001 782.269,-25.5001"/>
</g>
<!-- Node8&#45;&gt;Node5 -->
<g id="edge8" class="edge"><title>Node8&#45;&gt;Node5</title>
<path fill="none" stroke="midnightblue" d="M413.872,-19.8571C424.075,-20.7981 434.227,-21.7345 443.927,-22.6292"/>
<polygon fill="midnightblue" stroke="midnightblue" points="413.946,-16.3492 403.667,-18.9159 413.303,-23.3196 413.946,-16.3492"/>
</g>
</g>
</svg>
