<?xml version="1.0" encoding="UTF-8" standalone="no"?>
<!DOCTYPE svg PUBLIC "-//W3C//DTD SVG 1.1//EN"
 "http://www.w3.org/Graphics/SVG/1.1/DTD/svg11.dtd">
<!-- Generated by graphviz version 2.36.0 (20140111.2315)
 -->
<!-- Title: MovementAndImageAPI.src.GeneralTurtleHandler Pages: 1 -->
<svg width="330pt" height="108pt"
 viewBox="0.00 0.00 330.00 108.00" xmlns="http://www.w3.org/2000/svg" xmlns:xlink="http://www.w3.org/1999/xlink">
<g id="graph0" class="graph" transform="scale(1 1) rotate(0) translate(4 104)">
<title>MovementAndImageAPI.src.GeneralTurtleHandler</title>
<polygon fill="white" stroke="none" points="-4,4 -4,-104 326,-104 326,4 -4,4"/>
<!-- Node1 -->
<g id="node1" class="node"><title>Node1</title>
<polygon fill="#bfbfbf" stroke="black" points="85,-69 85,-99 237,-99 237,-69 85,-69"/>
<text text-anchor="start" x="93" y="-87" font-family="Helvetica,sans-Serif" font-size="10.00">MovementAndImageAPI.src.</text>
<text text-anchor="middle" x="161" y="-76" font-family="Helvetica,sans-Serif" font-size="10.00">GeneralTurtleHandler</text>
</g>
<!-- Node2 -->
<g id="node2" class="node"><title>Node2</title>
<g id="a_node2"><a xlink:href="../../d6/d0c/class_movement_and_image_a_p_i_1_1src_1_1_turtle_group.html" target="_top" xlink:title="MovementAndImageAPI.src.\lTurtleGroup">
<polygon fill="white" stroke="black" points="0,-1 0,-31 152,-31 152,-1 0,-1"/>
<text text-anchor="start" x="8" y="-19" font-family="Helvetica,sans-Serif" font-size="10.00">MovementAndImageAPI.src.</text>
<text text-anchor="middle" x="76" y="-8" font-family="Helvetica,sans-Serif" font-size="10.00">TurtleGroup</text>
</a>
</g>
</g>
<!-- Node1&#45;&gt;Node2 -->
<g id="edge1" class="edge"><title>Node1&#45;&gt;Node2</title>
<path fill="none" stroke="midnightblue" d="M134.353,-62.3094C121.259,-52.1426 105.822,-40.1562 94.1157,-31.0663"/>
<polygon fill="midnightblue" stroke="midnightblue" points="132.511,-65.3105 142.556,-68.679 136.804,-59.7815 132.511,-65.3105"/>
</g>
<!-- Node3 -->
<g id="node3" class="node"><title>Node3</title>
<g id="a_node3"><a xlink:href="../../d4/d0f/class_movement_and_image_a_p_i_1_1src_1_1_turtle_handler.html" target="_top" xlink:title="MovementAndImageAPI.src.\lTurtleHandler">
<polygon fill="white" stroke="black" points="170,-1 170,-31 322,-31 322,-1 170,-1"/>
<text text-anchor="start" x="178" y="-19" font-family="Helvetica,sans-Serif" font-size="10.00">MovementAndImageAPI.src.</text>
<text text-anchor="middle" x="246" y="-8" font-family="Helvetica,sans-Serif" font-size="10.00">TurtleHandler</text>
</a>
</g>
</g>
<!-- Node1&#45;&gt;Node3 -->
<g id="edge2" class="edge"><title>Node1&#45;&gt;Node3</title>
<path fill="none" stroke="midnightblue" d="M187.647,-62.3094C200.741,-52.1426 216.178,-40.1562 227.884,-31.0663"/>
<polygon fill="midnightblue" stroke="midnightblue" points="185.196,-59.7815 179.444,-68.679 189.489,-65.3105 185.196,-59.7815"/>
</g>
</g>
</svg>
