<?xml version="1.0" encoding="UTF-8" standalone="no"?>
<!DOCTYPE svg PUBLIC "-//W3C//DTD SVG 1.1//EN"
 "http://www.w3.org/Graphics/SVG/1.1/DTD/svg11.dtd">
<!-- Generated by graphviz version 2.36.0 (20140111.2315)
 -->
<!-- Title: parser.LogoParserTokenManager.jjMoveStringLiteralDfa2_0 Pages: 1 -->
<svg width="2140pt" height="687pt"
 viewBox="0.00 0.00 2140.00 687.00" xmlns="http://www.w3.org/2000/svg" xmlns:xlink="http://www.w3.org/1999/xlink">
<g id="graph0" class="graph" transform="scale(1 1) rotate(0) translate(4 683)">
<title>parser.LogoParserTokenManager.jjMoveStringLiteralDfa2_0</title>
<polygon fill="white" stroke="none" points="-4,4 -4,-683 2136,-683 2136,4 -4,4"/>
<!-- Node1 -->
<g id="node1" class="node"><title>Node1</title>
<polygon fill="#bfbfbf" stroke="black" points="0.5,-196 0.5,-226 179.5,-226 179.5,-196 0.5,-196"/>
<text text-anchor="start" x="8.5" y="-214" font-family="Helvetica,sans-Serif" font-size="10.00">parser.LogoParserTokenManager.jj</text>
<text text-anchor="middle" x="90" y="-203" font-family="Helvetica,sans-Serif" font-size="10.00">MoveStringLiteralDfa2_0</text>
</g>
<!-- Node2 -->
<g id="node2" class="node"><title>Node2</title>
<g id="a_node2"><a xlink:href="../../d0/d8c/classparser_1_1_logo_parser_token_manager.html#a12bfedaecfaf646642cb1aba5b1bd6fb" target="_top" xlink:title="parser.LogoParserTokenManager.jj\lMoveStringLiteralDfa3_0">
<polygon fill="white" stroke="black" points="216.5,-275 216.5,-305 395.5,-305 395.5,-275 216.5,-275"/>
<text text-anchor="start" x="224.5" y="-293" font-family="Helvetica,sans-Serif" font-size="10.00">parser.LogoParserTokenManager.jj</text>
<text text-anchor="middle" x="306" y="-282" font-family="Helvetica,sans-Serif" font-size="10.00">MoveStringLiteralDfa3_0</text>
</a>
</g>
</g>
<!-- Node1&#45;&gt;Node2 -->
<g id="edge1" class="edge"><title>Node1&#45;&gt;Node2</title>
<path fill="none" stroke="midnightblue" d="M131.755,-226.045C166.599,-238.908 216.894,-257.475 254.326,-271.293"/>
<polygon fill="midnightblue" stroke="midnightblue" points="253.439,-274.697 264.032,-274.876 255.863,-268.13 253.439,-274.697"/>
</g>
<!-- Node3 -->
<g id="node3" class="node"><title>Node3</title>
<g id="a_node3"><a xlink:href="../../d0/d8c/classparser_1_1_logo_parser_token_manager.html#aa065c8b0c977d3c1c9d9058f96664080" target="_top" xlink:title="parser.LogoParserTokenManager.jj\lStartNfa_0">
<polygon fill="white" stroke="black" points="1080.5,-278 1080.5,-308 1259.5,-308 1259.5,-278 1080.5,-278"/>
<text text-anchor="start" x="1088.5" y="-296" font-family="Helvetica,sans-Serif" font-size="10.00">parser.LogoParserTokenManager.jj</text>
<text text-anchor="middle" x="1170" y="-285" font-family="Helvetica,sans-Serif" font-size="10.00">StartNfa_0</text>
</a>
</g>
</g>
<!-- Node1&#45;&gt;Node3 -->
<g id="edge37" class="edge"><title>Node1&#45;&gt;Node3</title>
<path fill="none" stroke="midnightblue" d="M142.112,-195.985C222.149,-173.836 382.268,-135 521,-135 521,-135 521,-135 739,-135 896.559,-135 1067.77,-229.617 1137.15,-272.413"/>
<polygon fill="midnightblue" stroke="midnightblue" points="1135.53,-275.528 1145.86,-277.85 1139.23,-269.589 1135.53,-275.528"/>
</g>
<!-- Node9 -->
<g id="node9" class="node"><title>Node9</title>
<g id="a_node9"><a xlink:href="../../d4/dad/classparser_1_1_simple_char_stream.html#a9f80cee02b99e8e200afa646e3b25e29" target="_top" xlink:title="parser.SimpleCharStream.readChar">
<polygon fill="white" stroke="black" points="1512,-480.5 1512,-499.5 1700,-499.5 1700,-480.5 1512,-480.5"/>
<text text-anchor="middle" x="1606" y="-487.5" font-family="Helvetica,sans-Serif" font-size="10.00">parser.SimpleCharStream.readChar</text>
</a>
</g>
</g>
<!-- Node1&#45;&gt;Node9 -->
<g id="edge41" class="edge"><title>Node1&#45;&gt;Node9</title>
<path fill="none" stroke="midnightblue" d="M96.0917,-226.041C124.254,-306.146 268.876,-679 521,-679 521,-679 521,-679 1171,-679 1343.75,-679 1525.43,-551.566 1584.89,-505.978"/>
<polygon fill="midnightblue" stroke="midnightblue" points="1587.31,-508.529 1593.07,-499.632 1583.02,-503 1587.31,-508.529"/>
</g>
<!-- Node15 -->
<g id="node15" class="node"><title>Node15</title>
<g id="a_node15"><a xlink:href="../../d0/d8c/classparser_1_1_logo_parser_token_manager.html#a1f212a863542f9f3993faf51bb46ae8e" target="_top" xlink:title="parser.LogoParserTokenManager.jj\lStopStringLiteralDfa_0">
<polygon fill="white" stroke="black" points="1296.5,-196 1296.5,-226 1475.5,-226 1475.5,-196 1296.5,-196"/>
<text text-anchor="start" x="1304.5" y="-214" font-family="Helvetica,sans-Serif" font-size="10.00">parser.LogoParserTokenManager.jj</text>
<text text-anchor="middle" x="1386" y="-203" font-family="Helvetica,sans-Serif" font-size="10.00">StopStringLiteralDfa_0</text>
</a>
</g>
</g>
<!-- Node1&#45;&gt;Node15 -->
<g id="edge40" class="edge"><title>Node1&#45;&gt;Node15</title>
<path fill="none" stroke="midnightblue" d="M114.088,-195.762C138.537,-180.188 178.68,-156.191 216,-141 346.011,-88.0795 380.631,-59 521,-59 521,-59 521,-59 955,-59 1092.29,-59 1134.88,-51.4848 1260,-108 1302.13,-127.031 1341.71,-164.102 1364.63,-188.191"/>
<polygon fill="midnightblue" stroke="midnightblue" points="1362.36,-190.893 1371.74,-195.818 1367.48,-186.118 1362.36,-190.893"/>
</g>
<!-- Node19 -->
<g id="node19" class="node"><title>Node19</title>
<g id="a_node19"><a xlink:href="../../d0/d8c/classparser_1_1_logo_parser_token_manager.html#a94b20a17d94554012918e876be221c46" target="_top" xlink:title="parser.LogoParserTokenManager.jj\lStartNfaWithStates_0">
<polygon fill="white" stroke="black" points="1080.5,-430 1080.5,-460 1259.5,-460 1259.5,-430 1080.5,-430"/>
<text text-anchor="start" x="1088.5" y="-448" font-family="Helvetica,sans-Serif" font-size="10.00">parser.LogoParserTokenManager.jj</text>
<text text-anchor="middle" x="1170" y="-437" font-family="Helvetica,sans-Serif" font-size="10.00">StartNfaWithStates_0</text>
</a>
</g>
</g>
<!-- Node1&#45;&gt;Node19 -->
<g id="edge38" class="edge"><title>Node1&#45;&gt;Node19</title>
<path fill="none" stroke="midnightblue" d="M105.922,-226.148C128.181,-248.042 172.176,-288.675 216,-314 304.772,-365.299 333.845,-365.375 432,-395 693.908,-474.048 770.977,-478.402 1044,-461 1052.57,-460.454 1061.44,-459.699 1070.33,-458.813"/>
<polygon fill="midnightblue" stroke="midnightblue" points="1070.78,-462.286 1080.36,-457.761 1070.05,-455.324 1070.78,-462.286"/>
</g>
<!-- Node20 -->
<g id="node20" class="node"><title>Node20</title>
<g id="a_node20"><a xlink:href="../../d0/d8c/classparser_1_1_logo_parser_token_manager.html#ab983b76c64f4c06ba9c5469d87e6eddd" target="_top" xlink:title="parser.LogoParserTokenManager.jj\lStopAtPos">
<polygon fill="white" stroke="black" points="216.5,-0 216.5,-30 395.5,-30 395.5,-0 216.5,-0"/>
<text text-anchor="start" x="224.5" y="-18" font-family="Helvetica,sans-Serif" font-size="10.00">parser.LogoParserTokenManager.jj</text>
<text text-anchor="middle" x="306" y="-7" font-family="Helvetica,sans-Serif" font-size="10.00">StopAtPos</text>
</a>
</g>
</g>
<!-- Node1&#45;&gt;Node20 -->
<g id="edge39" class="edge"><title>Node1&#45;&gt;Node20</title>
<path fill="none" stroke="midnightblue" d="M98.4227,-195.737C114.98,-163.247 158.082,-86.8084 216,-45 221.817,-40.8008 228.264,-37.1589 234.952,-34.0067"/>
<polygon fill="midnightblue" stroke="midnightblue" points="236.401,-37.1932 244.185,-30.0054 233.618,-30.7704 236.401,-37.1932"/>
</g>
<!-- Node2&#45;&gt;Node3 -->
<g id="edge2" class="edge"><title>Node2&#45;&gt;Node3</title>
<path fill="none" stroke="midnightblue" d="M395.6,-290.308C557.694,-290.872 900.866,-292.067 1070.22,-292.656"/>
<polygon fill="midnightblue" stroke="midnightblue" points="1070.37,-296.157 1080.38,-292.692 1070.39,-289.157 1070.37,-296.157"/>
</g>
<!-- Node2&#45;&gt;Node9 -->
<g id="edge17" class="edge"><title>Node2&#45;&gt;Node9</title>
<path fill="none" stroke="midnightblue" d="M389.471,-305.236C391.749,-306.69 393.933,-308.275 396,-310 427.494,-336.292 400.59,-368.607 432,-395 718.087,-635.393 886.387,-547.916 1260,-541 1356.05,-539.222 1381.48,-550.141 1476,-533 1510.04,-526.827 1547.38,-513.631 1573.09,-503.475"/>
<polygon fill="midnightblue" stroke="midnightblue" points="1574.71,-506.596 1582.68,-499.614 1572.09,-500.103 1574.71,-506.596"/>
</g>
<!-- Node2&#45;&gt;Node15 -->
<g id="edge18" class="edge"><title>Node2&#45;&gt;Node15</title>
<path fill="none" stroke="midnightblue" d="M325.368,-274.856C382.478,-229.358 563.526,-97 737,-97 737,-97 737,-97 955,-97 1101.46,-97 1266.9,-159.558 1342.82,-191.99"/>
<polygon fill="midnightblue" stroke="midnightblue" points="1341.5,-195.23 1352.06,-195.979 1344.27,-188.803 1341.5,-195.23"/>
</g>
<!-- Node16 -->
<g id="node16" class="node"><title>Node16</title>
<g id="a_node16"><a xlink:href="../../d0/d8c/classparser_1_1_logo_parser_token_manager.html#aa9aaf3af52d382735345487d2b89e0cf" target="_top" xlink:title="parser.LogoParserTokenManager.jj\lMoveStringLiteralDfa4_0">
<polygon fill="white" stroke="black" points="432.5,-313 432.5,-343 611.5,-343 611.5,-313 432.5,-313"/>
<text text-anchor="start" x="440.5" y="-331" font-family="Helvetica,sans-Serif" font-size="10.00">parser.LogoParserTokenManager.jj</text>
<text text-anchor="middle" x="522" y="-320" font-family="Helvetica,sans-Serif" font-size="10.00">MoveStringLiteralDfa4_0</text>
</a>
</g>
</g>
<!-- Node2&#45;&gt;Node16 -->
<g id="edge19" class="edge"><title>Node2&#45;&gt;Node16</title>
<path fill="none" stroke="midnightblue" d="M391.578,-305.019C402.964,-307.04 414.704,-309.125 426.251,-311.175"/>
<polygon fill="midnightblue" stroke="midnightblue" points="425.877,-314.664 436.335,-312.966 427.101,-307.772 425.877,-314.664"/>
</g>
<!-- Node2&#45;&gt;Node19 -->
<g id="edge36" class="edge"><title>Node2&#45;&gt;Node19</title>
<path fill="none" stroke="midnightblue" d="M333.617,-305.138C358.462,-318.796 396.878,-338.724 432,-352 615.801,-421.474 668.177,-429.793 864,-446 943.727,-452.598 964.001,-446.32 1044,-446 1052.51,-445.966 1061.36,-445.919 1070.22,-445.863"/>
<polygon fill="midnightblue" stroke="midnightblue" points="1070.25,-449.363 1080.23,-445.798 1070.21,-442.364 1070.25,-449.363"/>
</g>
<!-- Node4 -->
<g id="node4" class="node"><title>Node4</title>
<g id="a_node4"><a xlink:href="../../d0/d8c/classparser_1_1_logo_parser_token_manager.html#a0071f141b41b403c8ab151c8c014a709" target="_top" xlink:title="parser.LogoParserTokenManager.jj\lMoveNfa_0">
<polygon fill="white" stroke="black" points="1296.5,-340 1296.5,-370 1475.5,-370 1475.5,-340 1296.5,-340"/>
<text text-anchor="start" x="1304.5" y="-358" font-family="Helvetica,sans-Serif" font-size="10.00">parser.LogoParserTokenManager.jj</text>
<text text-anchor="middle" x="1386" y="-347" font-family="Helvetica,sans-Serif" font-size="10.00">MoveNfa_0</text>
</a>
</g>
</g>
<!-- Node3&#45;&gt;Node4 -->
<g id="edge3" class="edge"><title>Node3&#45;&gt;Node4</title>
<path fill="none" stroke="midnightblue" d="M1222.8,-308.008C1253.07,-316.778 1291.45,-327.898 1323.28,-337.119"/>
<polygon fill="midnightblue" stroke="midnightblue" points="1322.35,-340.494 1332.93,-339.915 1324.3,-333.77 1322.35,-340.494"/>
</g>
<!-- Node3&#45;&gt;Node15 -->
<g id="edge16" class="edge"><title>Node3&#45;&gt;Node15</title>
<path fill="none" stroke="midnightblue" d="M1217.87,-277.877C1231.52,-273.29 1246.42,-268.108 1260,-263 1287.17,-252.784 1317.21,-240.325 1341.03,-230.163"/>
<polygon fill="midnightblue" stroke="midnightblue" points="1342.69,-233.261 1350.5,-226.106 1339.93,-226.827 1342.69,-233.261"/>
</g>
<!-- Node5 -->
<g id="node5" class="node"><title>Node5</title>
<g id="a_node5"><a xlink:href="../../d0/d8c/classparser_1_1_logo_parser_token_manager.html#ad31cdd6db411f95b045686c2053f42fa" target="_top" xlink:title="parser.LogoParserTokenManager.jj\lAddStates">
<polygon fill="white" stroke="black" points="1516.5,-382 1516.5,-412 1695.5,-412 1695.5,-382 1516.5,-382"/>
<text text-anchor="start" x="1524.5" y="-400" font-family="Helvetica,sans-Serif" font-size="10.00">parser.LogoParserTokenManager.jj</text>
<text text-anchor="middle" x="1606" y="-389" font-family="Helvetica,sans-Serif" font-size="10.00">AddStates</text>
</a>
</g>
</g>
<!-- Node4&#45;&gt;Node5 -->
<g id="edge4" class="edge"><title>Node4&#45;&gt;Node5</title>
<path fill="none" stroke="midnightblue" d="M1465.09,-370.044C1481.94,-373.291 1499.86,-376.745 1517.06,-380.058"/>
<polygon fill="midnightblue" stroke="midnightblue" points="1516.61,-383.535 1527.09,-381.99 1517.93,-376.661 1516.61,-383.535"/>
</g>
<!-- Node6 -->
<g id="node6" class="node"><title>Node6</title>
<g id="a_node6"><a xlink:href="../../d0/d8c/classparser_1_1_logo_parser_token_manager.html#af1b1635a624926faf7741958cc140de4" target="_top" xlink:title="parser.LogoParserTokenManager.jj\lCheckNAdd">
<polygon fill="white" stroke="black" points="1736.5,-294 1736.5,-324 1915.5,-324 1915.5,-294 1736.5,-294"/>
<text text-anchor="start" x="1744.5" y="-312" font-family="Helvetica,sans-Serif" font-size="10.00">parser.LogoParserTokenManager.jj</text>
<text text-anchor="middle" x="1826" y="-301" font-family="Helvetica,sans-Serif" font-size="10.00">CheckNAdd</text>
</a>
</g>
</g>
<!-- Node4&#45;&gt;Node6 -->
<g id="edge5" class="edge"><title>Node4&#45;&gt;Node6</title>
<path fill="none" stroke="midnightblue" d="M1475.65,-351.596C1538.48,-348.494 1624.65,-342.846 1700,-333 1714.42,-331.116 1729.69,-328.614 1744.41,-325.937"/>
<polygon fill="midnightblue" stroke="midnightblue" points="1745.31,-329.33 1754.5,-324.061 1744.03,-322.448 1745.31,-329.33"/>
</g>
<!-- Node7 -->
<g id="node7" class="node"><title>Node7</title>
<g id="a_node7"><a xlink:href="../../d0/d8c/classparser_1_1_logo_parser_token_manager.html#ac4047538420e7ceceec16698b354cd62" target="_top" xlink:title="parser.LogoParserTokenManager.jj\lCheckNAddStates">
<polygon fill="white" stroke="black" points="1516.5,-294 1516.5,-324 1695.5,-324 1695.5,-294 1516.5,-294"/>
<text text-anchor="start" x="1524.5" y="-312" font-family="Helvetica,sans-Serif" font-size="10.00">parser.LogoParserTokenManager.jj</text>
<text text-anchor="middle" x="1606" y="-301" font-family="Helvetica,sans-Serif" font-size="10.00">CheckNAddStates</text>
</a>
</g>
</g>
<!-- Node4&#45;&gt;Node7 -->
<g id="edge6" class="edge"><title>Node4&#45;&gt;Node7</title>
<path fill="none" stroke="midnightblue" d="M1458.38,-339.938C1479.29,-335.527 1502.29,-330.672 1523.76,-326.142"/>
<polygon fill="midnightblue" stroke="midnightblue" points="1524.77,-329.507 1533.83,-324.017 1523.32,-322.657 1524.77,-329.507"/>
</g>
<!-- Node8 -->
<g id="node8" class="node"><title>Node8</title>
<g id="a_node8"><a xlink:href="../../d0/d8c/classparser_1_1_logo_parser_token_manager.html#a8f9adc17a4a9b201128786ca145783e8" target="_top" xlink:title="parser.LogoParserTokenManager.jj\lCheckNAddTwoStates">
<polygon fill="white" stroke="black" points="1516.5,-245 1516.5,-275 1695.5,-275 1695.5,-245 1516.5,-245"/>
<text text-anchor="start" x="1524.5" y="-263" font-family="Helvetica,sans-Serif" font-size="10.00">parser.LogoParserTokenManager.jj</text>
<text text-anchor="middle" x="1606" y="-252" font-family="Helvetica,sans-Serif" font-size="10.00">CheckNAddTwoStates</text>
</a>
</g>
</g>
<!-- Node4&#45;&gt;Node8 -->
<g id="edge8" class="edge"><title>Node4&#45;&gt;Node8</title>
<path fill="none" stroke="midnightblue" d="M1410.09,-339.762C1434.54,-324.187 1474.68,-300.19 1512,-285 1518.14,-282.501 1524.61,-280.177 1531.15,-278.033"/>
<polygon fill="midnightblue" stroke="midnightblue" points="1532.28,-281.349 1540.77,-275.022 1530.18,-274.669 1532.28,-281.349"/>
</g>
<!-- Node4&#45;&gt;Node9 -->
<g id="edge10" class="edge"><title>Node4&#45;&gt;Node9</title>
<path fill="none" stroke="midnightblue" d="M1451.46,-370.122C1460.41,-374.22 1468.94,-379.416 1476,-386 1505.7,-413.702 1480.64,-444.181 1512,-470 1514.61,-472.152 1517.4,-474.088 1520.33,-475.828"/>
<polygon fill="midnightblue" stroke="midnightblue" points="1518.95,-479.056 1529.45,-480.482 1522.14,-472.82 1518.95,-479.056"/>
</g>
<!-- Node14 -->
<g id="node14" class="node"><title>Node14</title>
<g id="a_node14"><a xlink:href="../../d0/d8c/classparser_1_1_logo_parser_token_manager.html#a5923cb696d0a55f99661625200327816" target="_top" xlink:title="parser.LogoParserTokenManager.\lReInitRounds">
<polygon fill="white" stroke="black" points="1519,-431 1519,-461 1693,-461 1693,-431 1519,-431"/>
<text text-anchor="start" x="1527" y="-449" font-family="Helvetica,sans-Serif" font-size="10.00">parser.LogoParserTokenManager.</text>
<text text-anchor="middle" x="1606" y="-438" font-family="Helvetica,sans-Serif" font-size="10.00">ReInitRounds</text>
</a>
</g>
</g>
<!-- Node4&#45;&gt;Node14 -->
<g id="edge15" class="edge"><title>Node4&#45;&gt;Node14</title>
<path fill="none" stroke="midnightblue" d="M1442.37,-370.08C1453.92,-374.364 1465.7,-379.638 1476,-386 1494.99,-397.726 1492.6,-409.971 1512,-421 1515.95,-423.245 1520.11,-425.296 1524.39,-427.167"/>
<polygon fill="midnightblue" stroke="midnightblue" points="1523.33,-430.513 1533.91,-430.984 1525.93,-424.015 1523.33,-430.513"/>
</g>
<!-- Node7&#45;&gt;Node6 -->
<g id="edge7" class="edge"><title>Node7&#45;&gt;Node6</title>
<path fill="none" stroke="midnightblue" d="M1695.67,-309C1705.75,-309 1716.07,-309 1726.27,-309"/>
<polygon fill="midnightblue" stroke="midnightblue" points="1726.41,-312.5 1736.41,-309 1726.41,-305.5 1726.41,-312.5"/>
</g>
<!-- Node8&#45;&gt;Node6 -->
<g id="edge9" class="edge"><title>Node8&#45;&gt;Node6</title>
<path fill="none" stroke="midnightblue" d="M1673.89,-275.035C1697.43,-280.326 1724.07,-286.313 1748.35,-291.771"/>
<polygon fill="midnightblue" stroke="midnightblue" points="1747.71,-295.216 1758.24,-293.994 1749.25,-288.386 1747.71,-295.216"/>
</g>
<!-- Node10 -->
<g id="node10" class="node"><title>Node10</title>
<g id="a_node10"><a xlink:href="../../d4/dad/classparser_1_1_simple_char_stream.html#aac1dcd2a238adbc951d3af740cc2aa13" target="_top" xlink:title="parser.SimpleCharStream.\lFillBuff">
<polygon fill="white" stroke="black" points="1754,-499 1754,-529 1898,-529 1898,-499 1754,-499"/>
<text text-anchor="start" x="1762" y="-517" font-family="Helvetica,sans-Serif" font-size="10.00">parser.SimpleCharStream.</text>
<text text-anchor="middle" x="1826" y="-506" font-family="Helvetica,sans-Serif" font-size="10.00">FillBuff</text>
</a>
</g>
</g>
<!-- Node9&#45;&gt;Node10 -->
<g id="edge11" class="edge"><title>Node9&#45;&gt;Node10</title>
<path fill="none" stroke="midnightblue" d="M1693.47,-499.52C1710.01,-501.341 1727.27,-503.241 1743.64,-505.043"/>
<polygon fill="midnightblue" stroke="midnightblue" points="1743.39,-508.536 1753.71,-506.151 1744.15,-501.578 1743.39,-508.536"/>
</g>
<!-- Node13 -->
<g id="node13" class="node"><title>Node13</title>
<g id="a_node13"><a xlink:href="../../d4/dad/classparser_1_1_simple_char_stream.html#ad8ca3472934b9d38c005c8885d859403" target="_top" xlink:title="parser.SimpleCharStream.\lUpdateLineColumn">
<polygon fill="white" stroke="black" points="1754,-450 1754,-480 1898,-480 1898,-450 1754,-450"/>
<text text-anchor="start" x="1762" y="-468" font-family="Helvetica,sans-Serif" font-size="10.00">parser.SimpleCharStream.</text>
<text text-anchor="middle" x="1826" y="-457" font-family="Helvetica,sans-Serif" font-size="10.00">UpdateLineColumn</text>
</a>
</g>
</g>
<!-- Node9&#45;&gt;Node13 -->
<g id="edge14" class="edge"><title>Node9&#45;&gt;Node13</title>
<path fill="none" stroke="midnightblue" d="M1690.04,-480.477C1707.64,-478.459 1726.2,-476.33 1743.74,-474.319"/>
<polygon fill="midnightblue" stroke="midnightblue" points="1744.39,-477.767 1753.93,-473.15 1743.59,-470.813 1744.39,-477.767"/>
</g>
<!-- Node11 -->
<g id="node11" class="node"><title>Node11</title>
<g id="a_node11"><a xlink:href="../../d4/dad/classparser_1_1_simple_char_stream.html#a5328cda7180ed2a180eac8af133517cf" target="_top" xlink:title="parser.SimpleCharStream.\lExpandBuff">
<polygon fill="white" stroke="black" points="1970,-521 1970,-551 2114,-551 2114,-521 1970,-521"/>
<text text-anchor="start" x="1978" y="-539" font-family="Helvetica,sans-Serif" font-size="10.00">parser.SimpleCharStream.</text>
<text text-anchor="middle" x="2042" y="-528" font-family="Helvetica,sans-Serif" font-size="10.00">ExpandBuff</text>
</a>
</g>
</g>
<!-- Node10&#45;&gt;Node11 -->
<g id="edge12" class="edge"><title>Node10&#45;&gt;Node11</title>
<path fill="none" stroke="midnightblue" d="M1898.26,-521.326C1917.92,-523.347 1939.39,-525.555 1959.58,-527.63"/>
<polygon fill="midnightblue" stroke="midnightblue" points="1959.38,-531.128 1969.69,-528.669 1960.1,-524.164 1959.38,-531.128"/>
</g>
<!-- Node12 -->
<g id="node12" class="node"><title>Node12</title>
<g id="a_node12"><a xlink:href="../../d4/dad/classparser_1_1_simple_char_stream.html#a4eacb833520fdfdb1b18be45bc3bd4ba" target="_top" xlink:title="parser.SimpleCharStream.backup">
<polygon fill="white" stroke="black" points="1952.5,-482.5 1952.5,-501.5 2131.5,-501.5 2131.5,-482.5 1952.5,-482.5"/>
<text text-anchor="middle" x="2042" y="-489.5" font-family="Helvetica,sans-Serif" font-size="10.00">parser.SimpleCharStream.backup</text>
</a>
</g>
</g>
<!-- Node10&#45;&gt;Node12 -->
<g id="edge13" class="edge"><title>Node10&#45;&gt;Node12</title>
<path fill="none" stroke="midnightblue" d="M1898.26,-506.674C1912.29,-505.232 1927.24,-503.695 1941.99,-502.178"/>
<polygon fill="midnightblue" stroke="midnightblue" points="1942.57,-505.638 1952.16,-501.133 1941.85,-498.674 1942.57,-505.638"/>
</g>
<!-- Node16&#45;&gt;Node3 -->
<g id="edge20" class="edge"><title>Node16&#45;&gt;Node3</title>
<path fill="none" stroke="midnightblue" d="M611.632,-321.339C680.435,-316.333 778.233,-309.579 864,-305 932.782,-301.328 1010.35,-298.291 1070.04,-296.191"/>
<polygon fill="midnightblue" stroke="midnightblue" points="1070.35,-299.683 1080.22,-295.836 1070.1,-292.687 1070.35,-299.683"/>
</g>
<!-- Node16&#45;&gt;Node9 -->
<g id="edge21" class="edge"><title>Node16&#45;&gt;Node9</title>
<path fill="none" stroke="midnightblue" d="M604.364,-343.11C607.017,-344.595 609.574,-346.22 612,-348 637.693,-366.847 623.743,-389.339 648,-410 758.528,-504.143 807.813,-527 953,-527 953,-527 953,-527 1171,-527 1306.7,-527 1341.14,-528.053 1476,-513 1500.42,-510.274 1527.2,-505.754 1550,-501.439"/>
<polygon fill="midnightblue" stroke="midnightblue" points="1550.68,-504.872 1559.84,-499.543 1549.36,-497.998 1550.68,-504.872"/>
</g>
<!-- Node16&#45;&gt;Node15 -->
<g id="edge22" class="edge"><title>Node16&#45;&gt;Node15</title>
<path fill="none" stroke="midnightblue" d="M597.678,-312.997C614.244,-309.687 631.715,-306.212 648,-303 839.574,-265.218 885.847,-243.802 1080,-223 1148.61,-215.649 1226.34,-212.671 1286.15,-211.52"/>
<polygon fill="midnightblue" stroke="midnightblue" points="1286.41,-215.016 1296.35,-211.338 1286.29,-208.017 1286.41,-215.016"/>
</g>
<!-- Node17 -->
<g id="node17" class="node"><title>Node17</title>
<g id="a_node17"><a xlink:href="../../d0/d8c/classparser_1_1_logo_parser_token_manager.html#a4553920ced069b9d4852f1c1020bea38" target="_top" xlink:title="parser.LogoParserTokenManager.jj\lMoveStringLiteralDfa5_0">
<polygon fill="white" stroke="black" points="648.5,-335 648.5,-365 827.5,-365 827.5,-335 648.5,-335"/>
<text text-anchor="start" x="656.5" y="-353" font-family="Helvetica,sans-Serif" font-size="10.00">parser.LogoParserTokenManager.jj</text>
<text text-anchor="middle" x="738" y="-342" font-family="Helvetica,sans-Serif" font-size="10.00">MoveStringLiteralDfa5_0</text>
</a>
</g>
</g>
<!-- Node16&#45;&gt;Node17 -->
<g id="edge23" class="edge"><title>Node16&#45;&gt;Node17</title>
<path fill="none" stroke="midnightblue" d="M611.587,-337.107C620.442,-338.017 629.472,-338.946 638.422,-339.866"/>
<polygon fill="midnightblue" stroke="midnightblue" points="638.174,-343.359 648.48,-340.9 638.89,-336.395 638.174,-343.359"/>
</g>
<!-- Node16&#45;&gt;Node19 -->
<g id="edge35" class="edge"><title>Node16&#45;&gt;Node19</title>
<path fill="none" stroke="midnightblue" d="M560.056,-343.024C584.715,-352.677 617.976,-365.039 648,-374 742.423,-402.182 766.54,-409.459 864,-424 932.358,-434.199 1010.09,-439.456 1069.97,-442.159"/>
<polygon fill="midnightblue" stroke="midnightblue" points="1070.03,-445.666 1080.18,-442.603 1070.34,-438.672 1070.03,-445.666"/>
</g>
<!-- Node17&#45;&gt;Node3 -->
<g id="edge24" class="edge"><title>Node17&#45;&gt;Node3</title>
<path fill="none" stroke="midnightblue" d="M827.575,-338.259C898.135,-328.905 996.871,-315.817 1070.02,-306.12"/>
<polygon fill="midnightblue" stroke="midnightblue" points="1070.72,-309.559 1080.17,-304.775 1069.8,-302.62 1070.72,-309.559"/>
</g>
<!-- Node17&#45;&gt;Node9 -->
<g id="edge25" class="edge"><title>Node17&#45;&gt;Node9</title>
<path fill="none" stroke="midnightblue" d="M759.582,-365.092C783.504,-381.921 824.734,-408.772 864,-424 1078.9,-507.343 1354.3,-506.559 1501.4,-498.439"/>
<polygon fill="midnightblue" stroke="midnightblue" points="1501.98,-501.912 1511.77,-497.843 1501.58,-494.923 1501.98,-501.912"/>
</g>
<!-- Node17&#45;&gt;Node15 -->
<g id="edge26" class="edge"><title>Node17&#45;&gt;Node15</title>
<path fill="none" stroke="midnightblue" d="M775.677,-334.963C800.318,-325.318 833.703,-313.126 864,-305 1008.91,-266.136 1180.85,-238.616 1286.43,-223.774"/>
<polygon fill="midnightblue" stroke="midnightblue" points="1287.02,-227.226 1296.44,-222.377 1286.05,-220.293 1287.02,-227.226"/>
</g>
<!-- Node18 -->
<g id="node18" class="node"><title>Node18</title>
<g id="a_node18"><a xlink:href="../../d0/d8c/classparser_1_1_logo_parser_token_manager.html#a1bad232a9ce95d19e7133cbee0b538b5" target="_top" xlink:title="parser.LogoParserTokenManager.jj\lMoveStringLiteralDfa6_0">
<polygon fill="white" stroke="black" points="864.5,-354 864.5,-384 1043.5,-384 1043.5,-354 864.5,-354"/>
<text text-anchor="start" x="872.5" y="-372" font-family="Helvetica,sans-Serif" font-size="10.00">parser.LogoParserTokenManager.jj</text>
<text text-anchor="middle" x="954" y="-361" font-family="Helvetica,sans-Serif" font-size="10.00">MoveStringLiteralDfa6_0</text>
</a>
</g>
</g>
<!-- Node17&#45;&gt;Node18 -->
<g id="edge27" class="edge"><title>Node17&#45;&gt;Node18</title>
<path fill="none" stroke="midnightblue" d="M827.587,-357.865C836.442,-358.651 845.472,-359.453 854.422,-360.248"/>
<polygon fill="midnightblue" stroke="midnightblue" points="854.209,-363.743 864.48,-361.141 854.828,-356.77 854.209,-363.743"/>
</g>
<!-- Node17&#45;&gt;Node19 -->
<g id="edge34" class="edge"><title>Node17&#45;&gt;Node19</title>
<path fill="none" stroke="midnightblue" d="M777.359,-365.009C801.843,-374.135 834.427,-385.446 864,-393 932.016,-410.374 1010.08,-423.561 1070.2,-432.308"/>
<polygon fill="midnightblue" stroke="midnightblue" points="1070.05,-435.823 1080.45,-433.782 1071.05,-428.894 1070.05,-435.823"/>
</g>
<!-- Node18&#45;&gt;Node3 -->
<g id="edge28" class="edge"><title>Node18&#45;&gt;Node3</title>
<path fill="none" stroke="midnightblue" d="M1000.36,-353.978C1014.38,-349.264 1029.85,-343.987 1044,-339 1068.9,-330.222 1096.46,-320.123 1119.35,-311.628"/>
<polygon fill="midnightblue" stroke="midnightblue" points="1120.7,-314.86 1128.85,-308.094 1118.26,-308.299 1120.7,-314.86"/>
</g>
<!-- Node18&#45;&gt;Node9 -->
<g id="edge29" class="edge"><title>Node18&#45;&gt;Node9</title>
<path fill="none" stroke="midnightblue" d="M1043.84,-375.673C1148.95,-385.305 1328.32,-407.234 1476,-453 1492.9,-458.238 1495.24,-464.325 1512,-470 1521.06,-473.066 1530.77,-475.769 1540.39,-478.115"/>
<polygon fill="midnightblue" stroke="midnightblue" points="1539.8,-481.573 1550.34,-480.431 1541.39,-474.755 1539.8,-481.573"/>
</g>
<!-- Node18&#45;&gt;Node15 -->
<g id="edge30" class="edge"><title>Node18&#45;&gt;Node15</title>
<path fill="none" stroke="midnightblue" d="M1043.79,-366.238C1106.71,-361.384 1191.72,-348.822 1260,-317 1302.82,-297.045 1342.68,-258.387 1365.4,-233.68"/>
<polygon fill="midnightblue" stroke="midnightblue" points="1368.06,-235.959 1372.16,-226.19 1362.86,-231.27 1368.06,-235.959"/>
</g>
<!-- Node18&#45;&gt;Node19 -->
<g id="edge31" class="edge"><title>Node18&#45;&gt;Node19</title>
<path fill="none" stroke="midnightblue" d="M1001.87,-384.118C1015.52,-388.705 1030.42,-393.888 1044,-399 1060.22,-405.105 1063.81,-407.813 1080,-414 1091.1,-418.243 1103.08,-422.575 1114.53,-426.603"/>
<polygon fill="midnightblue" stroke="midnightblue" points="1113.4,-429.916 1123.99,-429.907 1115.7,-423.307 1113.4,-429.916"/>
</g>
<!-- Node19&#45;&gt;Node4 -->
<g id="edge33" class="edge"><title>Node19&#45;&gt;Node4</title>
<path fill="none" stroke="midnightblue" d="M1206.82,-429.936C1243.31,-414.588 1300.02,-390.737 1339.64,-374.078"/>
<polygon fill="midnightblue" stroke="midnightblue" points="1341.2,-377.216 1349.06,-370.113 1338.49,-370.764 1341.2,-377.216"/>
</g>
<!-- Node19&#45;&gt;Node9 -->
<g id="edge32" class="edge"><title>Node19&#45;&gt;Node9</title>
<path fill="none" stroke="midnightblue" d="M1259.79,-453.315C1320.67,-459.119 1403.26,-467.194 1476,-475 1488.68,-476.361 1502.06,-477.853 1515.21,-479.352"/>
<polygon fill="midnightblue" stroke="midnightblue" points="1514.87,-482.836 1525.2,-480.497 1515.66,-475.881 1514.87,-482.836"/>
</g>
</g>
</svg>
