<?xml version="1.0" encoding="UTF-8" standalone="no"?>
<!DOCTYPE svg PUBLIC "-//W3C//DTD SVG 1.1//EN"
 "http://www.w3.org/Graphics/SVG/1.1/DTD/svg11.dtd">
<!-- Generated by graphviz version 2.36.0 (20140111.2315)
 -->
<!-- Title: parser.LogoParserTokenManager.jjMoveStringLiteralDfa3_0 Pages: 1 -->
<!--zoomable 469 -->
<svg id="main" version="1.1" xmlns="http://www.w3.org/2000/svg" xmlns:xlink="http://www.w3.org/1999/xlink" xml:space="preserve" onload="init(evt)">
<style type="text/css"><![CDATA[
.edge:hover path { stroke: red; }
.edge:hover polygon { stroke: red; fill: red; }
]]></style>
<script type="text/javascript"><![CDATA[
var edges = document.getElementsByTagName('g');
if (edges && edges.length) {
  for (var i=0;i<edges.length;i++) {
    if (edges[i].id.substr(0,4)=='edge') {
      edges[i].setAttribute('class','edge');
    }
  }
}
]]></script>
        <defs>
                <circle id="rim" cx="0" cy="0" r="7"/>
                <circle id="rim2" cx="0" cy="0" r="3.5"/>
                <g id="zoomPlus">
                        <use xlink:href="#rim" fill="#404040">
                                <set attributeName="fill" to="#808080" begin="zoomplus.mouseover" end="zoomplus.mouseout"/>
                        </use>
                        <path d="M-4,0h8M0,-4v8" fill="none" stroke="white" stroke-width="1.5" pointer-events="none"/>
                </g>
                <g id="zoomMin">
                        <use xlink:href="#rim" fill="#404040">
                                <set attributeName="fill" to="#808080" begin="zoomminus.mouseover" end="zoomminus.mouseout"/>
                        </use>
                        <path d="M-4,0h8" fill="none" stroke="white" stroke-width="1.5" pointer-events="none"/>
                </g>
                <g id="dirArrow">
                        <path fill="none" stroke="white" stroke-width="1.5" d="M0,-3.0v7 M-2.5,-0.5L0,-3.0L2.5,-0.5"/>
                </g>
               <g id="resetDef">
                       <use xlink:href="#rim2" fill="#404040">
                               <set attributeName="fill" to="#808080" begin="reset.mouseover" end="reset.mouseout"/>
                       </use>
               </g>
        </defs>

<script type="text/javascript">
var viewWidth = 1924;
var viewHeight = 469;
var sectionId = 'dynsection-21';
</script>
<script xlink:href="../../svgpan.js"/>
<svg id="graph" class="graph">
<g id="viewport">
<title>parser.LogoParserTokenManager.jjMoveStringLiteralDfa3_0</title>
<polygon fill="white" stroke="none" points="-4,4 -4,-465 1920,-465 1920,4 -4,4"/>
<!-- Node1 -->
<g id="node1" class="node"><title>Node1</title>
<polygon fill="#bfbfbf" stroke="black" points="0.5,-212 0.5,-242 179.5,-242 179.5,-212 0.5,-212"/>
<text text-anchor="start" x="8.5" y="-230" font-family="Helvetica,sans-Serif" font-size="10.00">parser.LogoParserTokenManager.jj</text>
<text text-anchor="middle" x="90" y="-219" font-family="Helvetica,sans-Serif" font-size="10.00">MoveStringLiteralDfa3_0</text>
</g>
<!-- Node2 -->
<g id="node2" class="node"><title>Node2</title>
<g id="a_node2"><a xlink:href="../../d0/d8c/classparser_1_1_logo_parser_token_manager.html#aa9aaf3af52d382735345487d2b89e0cf" target="_top" xlink:title="parser.LogoParserTokenManager.jj\lMoveStringLiteralDfa4_0">
<polygon fill="white" stroke="black" points="216.5,-212 216.5,-242 395.5,-242 395.5,-212 216.5,-212"/>
<text text-anchor="start" x="224.5" y="-230" font-family="Helvetica,sans-Serif" font-size="10.00">parser.LogoParserTokenManager.jj</text>
<text text-anchor="middle" x="306" y="-219" font-family="Helvetica,sans-Serif" font-size="10.00">MoveStringLiteralDfa4_0</text>
</a>
</g>
</g>
<!-- Node1&#45;&gt;Node2 -->
<g id="edge1" class="edge"><title>Node1&#45;&gt;Node2</title>
<path fill="none" stroke="midnightblue" d="M179.587,-227C188.442,-227 197.472,-227 206.422,-227"/>
<polygon fill="midnightblue" stroke="midnightblue" points="206.48,-230.5 216.48,-227 206.48,-223.5 206.48,-230.5"/>
</g>
<!-- Node3 -->
<g id="node3" class="node"><title>Node3</title>
<g id="a_node3"><a xlink:href="../../d0/d8c/classparser_1_1_logo_parser_token_manager.html#aa065c8b0c977d3c1c9d9058f96664080" target="_top" xlink:title="parser.LogoParserTokenManager.jj\lStartNfa_0">
<polygon fill="white" stroke="black" points="864.5,-133 864.5,-163 1043.5,-163 1043.5,-133 864.5,-133"/>
<text text-anchor="start" x="872.5" y="-151" font-family="Helvetica,sans-Serif" font-size="10.00">parser.LogoParserTokenManager.jj</text>
<text text-anchor="middle" x="954" y="-140" font-family="Helvetica,sans-Serif" font-size="10.00">StartNfa_0</text>
</a>
</g>
</g>
<!-- Node1&#45;&gt;Node3 -->
<g id="edge32" class="edge"><title>Node1&#45;&gt;Node3</title>
<path fill="none" stroke="midnightblue" d="M163.612,-211.951C180.764,-208.542 199.007,-205.035 216,-202 406.373,-167.995 454.809,-158.67 648,-150 716.759,-146.914 794.323,-146.446 854.025,-146.733"/>
<polygon fill="midnightblue" stroke="midnightblue" points="854.182,-150.234 864.202,-146.791 854.221,-143.234 854.182,-150.234"/>
</g>
<!-- Node9 -->
<g id="node9" class="node"><title>Node9</title>
<g id="a_node9"><a xlink:href="../../d4/dad/classparser_1_1_simple_char_stream.html#a9f80cee02b99e8e200afa646e3b25e29" target="_top" xlink:title="parser.SimpleCharStream.readChar">
<polygon fill="white" stroke="black" points="1296,-267.5 1296,-286.5 1484,-286.5 1484,-267.5 1296,-267.5"/>
<text text-anchor="middle" x="1390" y="-274.5" font-family="Helvetica,sans-Serif" font-size="10.00">parser.SimpleCharStream.readChar</text>
</a>
</g>
</g>
<!-- Node1&#45;&gt;Node9 -->
<g id="edge35" class="edge"><title>Node1&#45;&gt;Node9</title>
<path fill="none" stroke="midnightblue" d="M105.768,-242.353C157.508,-294.412 337.42,-461 521,-461 521,-461 521,-461 955,-461 1126.64,-461 1308.35,-337.498 1368.42,-292.858"/>
<polygon fill="midnightblue" stroke="midnightblue" points="1370.8,-295.443 1376.69,-286.634 1366.59,-289.849 1370.8,-295.443"/>
</g>
<!-- Node15 -->
<g id="node15" class="node"><title>Node15</title>
<g id="a_node15"><a xlink:href="../../d0/d8c/classparser_1_1_logo_parser_token_manager.html#a1f212a863542f9f3993faf51bb46ae8e" target="_top" xlink:title="parser.LogoParserTokenManager.jj\lStopStringLiteralDfa_0">
<polygon fill="white" stroke="black" points="1080.5,-250 1080.5,-280 1259.5,-280 1259.5,-250 1080.5,-250"/>
<text text-anchor="start" x="1088.5" y="-268" font-family="Helvetica,sans-Serif" font-size="10.00">parser.LogoParserTokenManager.jj</text>
<text text-anchor="middle" x="1170" y="-257" font-family="Helvetica,sans-Serif" font-size="10.00">StopStringLiteralDfa_0</text>
</a>
</g>
</g>
<!-- Node1&#45;&gt;Node15 -->
<g id="edge34" class="edge"><title>Node1&#45;&gt;Node15</title>
<path fill="none" stroke="midnightblue" d="M164.549,-242.009C181.415,-245.203 199.297,-248.395 216,-251 406.873,-280.774 455.09,-288.753 648,-299 743.866,-304.092 767.999,-299.778 864,-300 944,-300.185 964.744,-310.886 1044,-300 1068.41,-296.647 1094.76,-289.775 1116.96,-283.001"/>
<polygon fill="midnightblue" stroke="midnightblue" points="1118.01,-286.338 1126.51,-280.012 1115.92,-279.657 1118.01,-286.338"/>
</g>
<!-- Node18 -->
<g id="node18" class="node"><title>Node18</title>
<g id="a_node18"><a xlink:href="../../d0/d8c/classparser_1_1_logo_parser_token_manager.html#a94b20a17d94554012918e876be221c46" target="_top" xlink:title="parser.LogoParserTokenManager.jj\lStartNfaWithStates_0">
<polygon fill="white" stroke="black" points="864.5,-69 864.5,-99 1043.5,-99 1043.5,-69 864.5,-69"/>
<text text-anchor="start" x="872.5" y="-87" font-family="Helvetica,sans-Serif" font-size="10.00">parser.LogoParserTokenManager.jj</text>
<text text-anchor="middle" x="954" y="-76" font-family="Helvetica,sans-Serif" font-size="10.00">StartNfaWithStates_0</text>
</a>
</g>
</g>
<!-- Node1&#45;&gt;Node18 -->
<g id="edge33" class="edge"><title>Node1&#45;&gt;Node18</title>
<path fill="none" stroke="midnightblue" d="M119.147,-211.847C144.066,-198.888 181.702,-180.416 216,-168 399.758,-101.477 452.962,-98.3381 648,-86 716.816,-81.6467 794.538,-81.2047 854.301,-81.8212"/>
<polygon fill="midnightblue" stroke="midnightblue" points="854.448,-85.323 864.487,-81.9383 854.528,-78.3235 854.448,-85.323"/>
</g>
<!-- Node2&#45;&gt;Node3 -->
<g id="edge2" class="edge"><title>Node2&#45;&gt;Node3</title>
<path fill="none" stroke="midnightblue" d="M379.952,-211.941C397.008,-208.55 415.122,-205.054 432,-202 527.698,-184.683 551.351,-177.814 648,-167 716.657,-159.318 794.382,-154.535 854.186,-151.689"/>
<polygon fill="midnightblue" stroke="midnightblue" points="854.553,-155.176 864.38,-151.215 854.228,-148.184 854.553,-155.176"/>
</g>
<!-- Node2&#45;&gt;Node9 -->
<g id="edge17" class="edge"><title>Node2&#45;&gt;Node9</title>
<path fill="none" stroke="midnightblue" d="M384.489,-242.015C388.445,-243.523 392.307,-245.18 396,-247 414.682,-256.207 412.802,-268.926 432,-277 498.532,-304.982 929.781,-318.83 1080,-323 1159.97,-325.22 1181.17,-336.634 1260,-323 1295.53,-316.855 1334.22,-301.852 1359.87,-290.64"/>
<polygon fill="midnightblue" stroke="midnightblue" points="1361.32,-293.825 1369.03,-286.554 1358.47,-287.432 1361.32,-293.825"/>
</g>
<!-- Node2&#45;&gt;Node15 -->
<g id="edge18" class="edge"><title>Node2&#45;&gt;Node15</title>
<path fill="none" stroke="midnightblue" d="M379.186,-242.041C396.438,-245.308 414.831,-248.523 432,-251 701.535,-289.892 772.225,-298.323 1044,-281 1052.57,-280.454 1061.44,-279.699 1070.33,-278.813"/>
<polygon fill="midnightblue" stroke="midnightblue" points="1070.78,-282.286 1080.36,-277.761 1070.05,-275.324 1070.78,-282.286"/>
</g>
<!-- Node16 -->
<g id="node16" class="node"><title>Node16</title>
<g id="a_node16"><a xlink:href="../../d0/d8c/classparser_1_1_logo_parser_token_manager.html#a4553920ced069b9d4852f1c1020bea38" target="_top" xlink:title="parser.LogoParserTokenManager.jj\lMoveStringLiteralDfa5_0">
<polygon fill="white" stroke="black" points="432.5,-212 432.5,-242 611.5,-242 611.5,-212 432.5,-212"/>
<text text-anchor="start" x="440.5" y="-230" font-family="Helvetica,sans-Serif" font-size="10.00">parser.LogoParserTokenManager.jj</text>
<text text-anchor="middle" x="522" y="-219" font-family="Helvetica,sans-Serif" font-size="10.00">MoveStringLiteralDfa5_0</text>
</a>
</g>
</g>
<!-- Node2&#45;&gt;Node16 -->
<g id="edge19" class="edge"><title>Node2&#45;&gt;Node16</title>
<path fill="none" stroke="midnightblue" d="M395.587,-227C404.442,-227 413.472,-227 422.422,-227"/>
<polygon fill="midnightblue" stroke="midnightblue" points="422.48,-230.5 432.48,-227 422.48,-223.5 422.48,-230.5"/>
</g>
<!-- Node2&#45;&gt;Node18 -->
<g id="edge31" class="edge"><title>Node2&#45;&gt;Node18</title>
<path fill="none" stroke="midnightblue" d="M335.187,-211.957C360.132,-199.068 397.784,-180.638 432,-168 525.352,-133.519 549.99,-126.25 648,-109 716.259,-96.9865 794.152,-90.7249 854.134,-87.4726"/>
<polygon fill="midnightblue" stroke="midnightblue" points="854.556,-90.9554 864.36,-86.9379 854.19,-83.965 854.556,-90.9554"/>
</g>
<!-- Node4 -->
<g id="node4" class="node"><title>Node4</title>
<g id="a_node4"><a xlink:href="../../d0/d8c/classparser_1_1_logo_parser_token_manager.html#a0071f141b41b403c8ab151c8c014a709" target="_top" xlink:title="parser.LogoParserTokenManager.jj\lMoveNfa_0">
<polygon fill="white" stroke="black" points="1080.5,-98 1080.5,-128 1259.5,-128 1259.5,-98 1080.5,-98"/>
<text text-anchor="start" x="1088.5" y="-116" font-family="Helvetica,sans-Serif" font-size="10.00">parser.LogoParserTokenManager.jj</text>
<text text-anchor="middle" x="1170" y="-105" font-family="Helvetica,sans-Serif" font-size="10.00">MoveNfa_0</text>
</a>
</g>
</g>
<!-- Node3&#45;&gt;Node4 -->
<g id="edge3" class="edge"><title>Node3&#45;&gt;Node4</title>
<path fill="none" stroke="midnightblue" d="M1043.59,-133.512C1052.44,-132.063 1061.47,-130.586 1070.42,-129.123"/>
<polygon fill="midnightblue" stroke="midnightblue" points="1071.18,-132.546 1080.48,-127.478 1070.05,-125.638 1071.18,-132.546"/>
</g>
<!-- Node3&#45;&gt;Node15 -->
<g id="edge16" class="edge"><title>Node3&#45;&gt;Node15</title>
<path fill="none" stroke="midnightblue" d="M982.539,-163.056C1020.72,-183.928 1089.81,-221.704 1132.32,-244.947"/>
<polygon fill="midnightblue" stroke="midnightblue" points="1130.77,-248.09 1141.23,-249.816 1134.13,-241.948 1130.77,-248.09"/>
</g>
<!-- Node5 -->
<g id="node5" class="node"><title>Node5</title>
<g id="a_node5"><a xlink:href="../../d0/d8c/classparser_1_1_logo_parser_token_manager.html#ad31cdd6db411f95b045686c2053f42fa" target="_top" xlink:title="parser.LogoParserTokenManager.jj\lAddStates">
<polygon fill="white" stroke="black" points="1300.5,-186 1300.5,-216 1479.5,-216 1479.5,-186 1300.5,-186"/>
<text text-anchor="start" x="1308.5" y="-204" font-family="Helvetica,sans-Serif" font-size="10.00">parser.LogoParserTokenManager.jj</text>
<text text-anchor="middle" x="1390" y="-193" font-family="Helvetica,sans-Serif" font-size="10.00">AddStates</text>
</a>
</g>
</g>
<!-- Node4&#45;&gt;Node5 -->
<g id="edge4" class="edge"><title>Node4&#45;&gt;Node5</title>
<path fill="none" stroke="midnightblue" d="M1225.4,-128.103C1237.13,-132.24 1249.23,-137.211 1260,-143 1277.86,-152.595 1278.08,-161.522 1296,-171 1304.15,-175.311 1313.03,-179.143 1321.96,-182.506"/>
<polygon fill="midnightblue" stroke="midnightblue" points="1321.05,-185.897 1331.65,-185.972 1323.41,-179.307 1321.05,-185.897"/>
</g>
<!-- Node6 -->
<g id="node6" class="node"><title>Node6</title>
<g id="a_node6"><a xlink:href="../../d0/d8c/classparser_1_1_logo_parser_token_manager.html#af1b1635a624926faf7741958cc140de4" target="_top" xlink:title="parser.LogoParserTokenManager.jj\lCheckNAdd">
<polygon fill="white" stroke="black" points="1520.5,-98 1520.5,-128 1699.5,-128 1699.5,-98 1520.5,-98"/>
<text text-anchor="start" x="1528.5" y="-116" font-family="Helvetica,sans-Serif" font-size="10.00">parser.LogoParserTokenManager.jj</text>
<text text-anchor="middle" x="1610" y="-105" font-family="Helvetica,sans-Serif" font-size="10.00">CheckNAdd</text>
</a>
</g>
</g>
<!-- Node4&#45;&gt;Node6 -->
<g id="edge5" class="edge"><title>Node4&#45;&gt;Node6</title>
<path fill="none" stroke="midnightblue" d="M1236.83,-128.063C1255.82,-131.747 1276.64,-135.158 1296,-137 1379.18,-144.913 1400.82,-144.913 1484,-137 1500.03,-135.475 1517.06,-132.873 1533.23,-129.932"/>
<polygon fill="midnightblue" stroke="midnightblue" points="1533.99,-133.351 1543.17,-128.063 1532.69,-126.471 1533.99,-133.351"/>
</g>
<!-- Node7 -->
<g id="node7" class="node"><title>Node7</title>
<g id="a_node7"><a xlink:href="../../d0/d8c/classparser_1_1_logo_parser_token_manager.html#ac4047538420e7ceceec16698b354cd62" target="_top" xlink:title="parser.LogoParserTokenManager.jj\lCheckNAddStates">
<polygon fill="white" stroke="black" points="1300.5,-98 1300.5,-128 1479.5,-128 1479.5,-98 1300.5,-98"/>
<text text-anchor="start" x="1308.5" y="-116" font-family="Helvetica,sans-Serif" font-size="10.00">parser.LogoParserTokenManager.jj</text>
<text text-anchor="middle" x="1390" y="-105" font-family="Helvetica,sans-Serif" font-size="10.00">CheckNAddStates</text>
</a>
</g>
</g>
<!-- Node4&#45;&gt;Node7 -->
<g id="edge6" class="edge"><title>Node4&#45;&gt;Node7</title>
<path fill="none" stroke="midnightblue" d="M1259.67,-113C1269.75,-113 1280.07,-113 1290.27,-113"/>
<polygon fill="midnightblue" stroke="midnightblue" points="1290.41,-116.5 1300.41,-113 1290.41,-109.5 1290.41,-116.5"/>
</g>
<!-- Node8 -->
<g id="node8" class="node"><title>Node8</title>
<g id="a_node8"><a xlink:href="../../d0/d8c/classparser_1_1_logo_parser_token_manager.html#a8f9adc17a4a9b201128786ca145783e8" target="_top" xlink:title="parser.LogoParserTokenManager.jj\lCheckNAddTwoStates">
<polygon fill="white" stroke="black" points="1300.5,-49 1300.5,-79 1479.5,-79 1479.5,-49 1300.5,-49"/>
<text text-anchor="start" x="1308.5" y="-67" font-family="Helvetica,sans-Serif" font-size="10.00">parser.LogoParserTokenManager.jj</text>
<text text-anchor="middle" x="1390" y="-56" font-family="Helvetica,sans-Serif" font-size="10.00">CheckNAddTwoStates</text>
</a>
</g>
</g>
<!-- Node4&#45;&gt;Node8 -->
<g id="edge8" class="edge"><title>Node4&#45;&gt;Node8</title>
<path fill="none" stroke="midnightblue" d="M1237.89,-97.9654C1261.43,-92.6741 1288.07,-86.6867 1312.35,-81.2288"/>
<polygon fill="midnightblue" stroke="midnightblue" points="1313.25,-84.6141 1322.24,-79.0062 1311.71,-77.7845 1313.25,-84.6141"/>
</g>
<!-- Node4&#45;&gt;Node9 -->
<g id="edge10" class="edge"><title>Node4&#45;&gt;Node9</title>
<path fill="none" stroke="midnightblue" d="M1236.75,-128.034C1245.22,-131.932 1253.26,-136.835 1260,-143 1289.36,-169.871 1269.24,-195.536 1296,-225 1311.43,-241.986 1333.74,-254.72 1352.64,-263.334"/>
<polygon fill="midnightblue" stroke="midnightblue" points="1351.31,-266.574 1361.88,-267.348 1354.1,-260.153 1351.31,-266.574"/>
</g>
<!-- Node14 -->
<g id="node14" class="node"><title>Node14</title>
<g id="a_node14"><a xlink:href="../../d0/d8c/classparser_1_1_logo_parser_token_manager.html#a5923cb696d0a55f99661625200327816" target="_top" xlink:title="parser.LogoParserTokenManager.\lReInitRounds">
<polygon fill="white" stroke="black" points="1303,-0 1303,-30 1477,-30 1477,-0 1303,-0"/>
<text text-anchor="start" x="1311" y="-18" font-family="Helvetica,sans-Serif" font-size="10.00">parser.LogoParserTokenManager.</text>
<text text-anchor="middle" x="1390" y="-7" font-family="Helvetica,sans-Serif" font-size="10.00">ReInitRounds</text>
</a>
</g>
</g>
<!-- Node4&#45;&gt;Node14 -->
<g id="edge15" class="edge"><title>Node4&#45;&gt;Node14</title>
<path fill="none" stroke="midnightblue" d="M1192.15,-97.9447C1216.26,-81.402 1257.34,-55.0529 1296,-39 1301.01,-36.9219 1306.24,-34.9847 1311.56,-33.186"/>
<polygon fill="midnightblue" stroke="midnightblue" points="1312.75,-36.4799 1321.21,-30.0975 1310.62,-29.8132 1312.75,-36.4799"/>
</g>
<!-- Node7&#45;&gt;Node6 -->
<g id="edge7" class="edge"><title>Node7&#45;&gt;Node6</title>
<path fill="none" stroke="midnightblue" d="M1479.67,-113C1489.75,-113 1500.07,-113 1510.27,-113"/>
<polygon fill="midnightblue" stroke="midnightblue" points="1510.41,-116.5 1520.41,-113 1510.41,-109.5 1510.41,-116.5"/>
</g>
<!-- Node8&#45;&gt;Node6 -->
<g id="edge9" class="edge"><title>Node8&#45;&gt;Node6</title>
<path fill="none" stroke="midnightblue" d="M1457.89,-79.0346C1481.43,-84.3259 1508.07,-90.3133 1532.35,-95.7712"/>
<polygon fill="midnightblue" stroke="midnightblue" points="1531.71,-99.2155 1542.24,-97.9938 1533.25,-92.3859 1531.71,-99.2155"/>
</g>
<!-- Node10 -->
<g id="node10" class="node"><title>Node10</title>
<g id="a_node10"><a xlink:href="../../d4/dad/classparser_1_1_simple_char_stream.html#aac1dcd2a238adbc951d3af740cc2aa13" target="_top" xlink:title="parser.SimpleCharStream.\lFillBuff">
<polygon fill="white" stroke="black" points="1538,-237 1538,-267 1682,-267 1682,-237 1538,-237"/>
<text text-anchor="start" x="1546" y="-255" font-family="Helvetica,sans-Serif" font-size="10.00">parser.SimpleCharStream.</text>
<text text-anchor="middle" x="1610" y="-244" font-family="Helvetica,sans-Serif" font-size="10.00">FillBuff</text>
</a>
</g>
</g>
<!-- Node9&#45;&gt;Node10 -->
<g id="edge11" class="edge"><title>Node9&#45;&gt;Node10</title>
<path fill="none" stroke="midnightblue" d="M1474.04,-267.477C1491.64,-265.459 1510.2,-263.33 1527.74,-261.319"/>
<polygon fill="midnightblue" stroke="midnightblue" points="1528.39,-264.767 1537.93,-260.15 1527.59,-257.813 1528.39,-264.767"/>
</g>
<!-- Node13 -->
<g id="node13" class="node"><title>Node13</title>
<g id="a_node13"><a xlink:href="../../d4/dad/classparser_1_1_simple_char_stream.html#ad8ca3472934b9d38c005c8885d859403" target="_top" xlink:title="parser.SimpleCharStream.\lUpdateLineColumn">
<polygon fill="white" stroke="black" points="1538,-286 1538,-316 1682,-316 1682,-286 1538,-286"/>
<text text-anchor="start" x="1546" y="-304" font-family="Helvetica,sans-Serif" font-size="10.00">parser.SimpleCharStream.</text>
<text text-anchor="middle" x="1610" y="-293" font-family="Helvetica,sans-Serif" font-size="10.00">UpdateLineColumn</text>
</a>
</g>
</g>
<!-- Node9&#45;&gt;Node13 -->
<g id="edge14" class="edge"><title>Node9&#45;&gt;Node13</title>
<path fill="none" stroke="midnightblue" d="M1477.47,-286.52C1494.01,-288.341 1511.27,-290.241 1527.64,-292.043"/>
<polygon fill="midnightblue" stroke="midnightblue" points="1527.39,-295.536 1537.71,-293.151 1528.15,-288.578 1527.39,-295.536"/>
</g>
<!-- Node11 -->
<g id="node11" class="node"><title>Node11</title>
<g id="a_node11"><a xlink:href="../../d4/dad/classparser_1_1_simple_char_stream.html#a5328cda7180ed2a180eac8af133517cf" target="_top" xlink:title="parser.SimpleCharStream.\lExpandBuff">
<polygon fill="white" stroke="black" points="1754,-259 1754,-289 1898,-289 1898,-259 1754,-259"/>
<text text-anchor="start" x="1762" y="-277" font-family="Helvetica,sans-Serif" font-size="10.00">parser.SimpleCharStream.</text>
<text text-anchor="middle" x="1826" y="-266" font-family="Helvetica,sans-Serif" font-size="10.00">ExpandBuff</text>
</a>
</g>
</g>
<!-- Node10&#45;&gt;Node11 -->
<g id="edge12" class="edge"><title>Node10&#45;&gt;Node11</title>
<path fill="none" stroke="midnightblue" d="M1682.26,-259.326C1701.92,-261.347 1723.39,-263.555 1743.58,-265.63"/>
<polygon fill="midnightblue" stroke="midnightblue" points="1743.38,-269.128 1753.69,-266.669 1744.1,-262.164 1743.38,-269.128"/>
</g>
<!-- Node12 -->
<g id="node12" class="node"><title>Node12</title>
<g id="a_node12"><a xlink:href="../../d4/dad/classparser_1_1_simple_char_stream.html#a4eacb833520fdfdb1b18be45bc3bd4ba" target="_top" xlink:title="parser.SimpleCharStream.backup">
<polygon fill="white" stroke="black" points="1736.5,-220.5 1736.5,-239.5 1915.5,-239.5 1915.5,-220.5 1736.5,-220.5"/>
<text text-anchor="middle" x="1826" y="-227.5" font-family="Helvetica,sans-Serif" font-size="10.00">parser.SimpleCharStream.backup</text>
</a>
</g>
</g>
<!-- Node10&#45;&gt;Node12 -->
<g id="edge13" class="edge"><title>Node10&#45;&gt;Node12</title>
<path fill="none" stroke="midnightblue" d="M1682.26,-244.674C1696.29,-243.232 1711.24,-241.695 1725.99,-240.178"/>
<polygon fill="midnightblue" stroke="midnightblue" points="1726.57,-243.638 1736.16,-239.133 1725.85,-236.674 1726.57,-243.638"/>
</g>
<!-- Node16&#45;&gt;Node3 -->
<g id="edge20" class="edge"><title>Node16&#45;&gt;Node3</title>
<path fill="none" stroke="midnightblue" d="M596.646,-211.989C613.506,-208.63 631.363,-205.136 648,-202 717.062,-188.982 795.099,-175.182 854.948,-164.791"/>
<polygon fill="midnightblue" stroke="midnightblue" points="855.892,-168.18 865.148,-163.023 854.697,-161.283 855.892,-168.18"/>
</g>
<!-- Node16&#45;&gt;Node9 -->
<g id="edge21" class="edge"><title>Node16&#45;&gt;Node9</title>
<path fill="none" stroke="midnightblue" d="M599.378,-242.09C603.704,-243.583 607.94,-245.216 612,-247 629.834,-254.836 629.536,-265.793 648,-272 891.093,-353.724 1204.93,-311.201 1331.92,-288.379"/>
<polygon fill="midnightblue" stroke="midnightblue" points="1332.61,-291.811 1341.82,-286.571 1331.35,-284.925 1332.61,-291.811"/>
</g>
<!-- Node16&#45;&gt;Node15 -->
<g id="edge22" class="edge"><title>Node16&#45;&gt;Node15</title>
<path fill="none" stroke="midnightblue" d="M590.49,-242.029C609.039,-245.592 629.218,-248.95 648,-251 794.246,-266.964 964.877,-268.298 1069.93,-267.145"/>
<polygon fill="midnightblue" stroke="midnightblue" points="1070.25,-270.642 1080.2,-267.022 1070.16,-263.642 1070.25,-270.642"/>
</g>
<!-- Node17 -->
<g id="node17" class="node"><title>Node17</title>
<g id="a_node17"><a xlink:href="../../d0/d8c/classparser_1_1_logo_parser_token_manager.html#a1bad232a9ce95d19e7133cbee0b538b5" target="_top" xlink:title="parser.LogoParserTokenManager.jj\lMoveStringLiteralDfa6_0">
<polygon fill="white" stroke="black" points="648.5,-212 648.5,-242 827.5,-242 827.5,-212 648.5,-212"/>
<text text-anchor="start" x="656.5" y="-230" font-family="Helvetica,sans-Serif" font-size="10.00">parser.LogoParserTokenManager.jj</text>
<text text-anchor="middle" x="738" y="-219" font-family="Helvetica,sans-Serif" font-size="10.00">MoveStringLiteralDfa6_0</text>
</a>
</g>
</g>
<!-- Node16&#45;&gt;Node17 -->
<g id="edge23" class="edge"><title>Node16&#45;&gt;Node17</title>
<path fill="none" stroke="midnightblue" d="M611.587,-227C620.442,-227 629.472,-227 638.422,-227"/>
<polygon fill="midnightblue" stroke="midnightblue" points="638.48,-230.5 648.48,-227 638.48,-223.5 638.48,-230.5"/>
</g>
<!-- Node16&#45;&gt;Node18 -->
<g id="edge30" class="edge"><title>Node16&#45;&gt;Node18</title>
<path fill="none" stroke="midnightblue" d="M550.661,-211.921C575.579,-198.778 613.487,-179.857 648,-167 723.05,-139.041 811.655,-115.985 873.968,-101.329"/>
<polygon fill="midnightblue" stroke="midnightblue" points="874.794,-104.73 883.737,-99.0492 873.204,-97.9133 874.794,-104.73"/>
</g>
<!-- Node17&#45;&gt;Node3 -->
<g id="edge24" class="edge"><title>Node17&#45;&gt;Node3</title>
<path fill="none" stroke="midnightblue" d="M786.407,-211.93C799.936,-207.385 814.631,-202.211 828,-197 844.314,-190.641 847.783,-187.602 864,-181 875.923,-176.146 888.856,-171.181 901.074,-166.626"/>
<polygon fill="midnightblue" stroke="midnightblue" points="902.521,-169.822 910.685,-163.07 900.092,-163.257 902.521,-169.822"/>
</g>
<!-- Node17&#45;&gt;Node9 -->
<g id="edge25" class="edge"><title>Node17&#45;&gt;Node9</title>
<path fill="none" stroke="midnightblue" d="M827.638,-222.403C931.799,-218.569 1109.53,-216.929 1260,-240 1292.12,-244.925 1327.54,-255.467 1353.12,-264.044"/>
<polygon fill="midnightblue" stroke="midnightblue" points="1352.16,-267.415 1362.76,-267.337 1354.43,-260.792 1352.16,-267.415"/>
</g>
<!-- Node17&#45;&gt;Node15 -->
<g id="edge26" class="edge"><title>Node17&#45;&gt;Node15</title>
<path fill="none" stroke="midnightblue" d="M827.575,-234.828C898.135,-241.063 996.871,-249.789 1070.02,-256.253"/>
<polygon fill="midnightblue" stroke="midnightblue" points="1069.9,-259.756 1080.17,-257.15 1070.52,-252.783 1069.9,-259.756"/>
</g>
<!-- Node17&#45;&gt;Node18 -->
<g id="edge27" class="edge"><title>Node17&#45;&gt;Node18</title>
<path fill="none" stroke="midnightblue" d="M754.456,-211.643C777.027,-189.825 821.012,-149.562 864,-123 876.01,-115.579 889.679,-108.842 902.639,-103.135"/>
<polygon fill="midnightblue" stroke="midnightblue" points="904.099,-106.317 911.916,-99.1665 901.346,-99.8816 904.099,-106.317"/>
</g>
<!-- Node18&#45;&gt;Node4 -->
<g id="edge29" class="edge"><title>Node18&#45;&gt;Node4</title>
<path fill="none" stroke="midnightblue" d="M1043.59,-96.0047C1052.44,-97.2048 1061.47,-98.4284 1070.42,-99.6413"/>
<polygon fill="midnightblue" stroke="midnightblue" points="1070.1,-103.13 1080.48,-101.004 1071.04,-96.193 1070.1,-103.13"/>
</g>
<!-- Node18&#45;&gt;Node9 -->
<g id="edge28" class="edge"><title>Node18&#45;&gt;Node9</title>
<path fill="none" stroke="midnightblue" d="M988.744,-99.0338C1019.4,-112.559 1062.44,-131.173 1080,-137 1158.16,-162.936 1190.33,-137.086 1260,-181 1281.38,-194.473 1276.63,-208.772 1296,-225 1314.56,-240.55 1338.45,-253.793 1357.37,-263.022"/>
<polygon fill="midnightblue" stroke="midnightblue" points="1355.95,-266.222 1366.49,-267.348 1358.95,-259.898 1355.95,-266.222"/>
</g>
</g>
</svg>
        <g id="navigator" transform="translate(0 0)" fill="#404254">
                <rect fill="#f2f5e9" fill-opacity="0.5" stroke="#606060" stroke-width=".5" x="0" y="0" width="60" height="60"/>
                <use id="zoomplus" xlink:href="#zoomPlus" x="17" y="9" onmousedown="handleZoom(evt,'in')"/>
                <use id="zoomminus" xlink:href="#zoomMin" x="42" y="9" onmousedown="handleZoom(evt,'out')"/>
                <use id="reset" xlink:href="#resetDef" x="30" y="36" onmousedown="handleReset()"/>
                <g id="arrowUp" xlink:href="#dirArrow" transform="translate(30 24)" onmousedown="handlePan(0,-1)">
                  <use xlink:href="#rim" fill="#404040">
                        <set attributeName="fill" to="#808080" begin="arrowUp.mouseover" end="arrowUp.mouseout"/>
                  </use>
                  <path fill="none" stroke="white" stroke-width="1.5" d="M0,-3.0v7 M-2.5,-0.5L0,-3.0L2.5,-0.5"/>
                </g>
                <g id="arrowRight" xlink:href="#dirArrow" transform="rotate(90) translate(36 -43)" onmousedown="handlePan(1,0)">
                  <use xlink:href="#rim" fill="#404040">
                        <set attributeName="fill" to="#808080" begin="arrowRight.mouseover" end="arrowRight.mouseout"/>
                  </use>
                  <path fill="none" stroke="white" stroke-width="1.5" d="M0,-3.0v7 M-2.5,-0.5L0,-3.0L2.5,-0.5"/>
                </g>
                <g id="arrowDown" xlink:href="#dirArrow" transform="rotate(180) translate(-30 -48)" onmousedown="handlePan(0,1)">
                  <use xlink:href="#rim" fill="#404040">
                        <set attributeName="fill" to="#808080" begin="arrowDown.mouseover" end="arrowDown.mouseout"/>
                  </use>
                  <path fill="none" stroke="white" stroke-width="1.5" d="M0,-3.0v7 M-2.5,-0.5L0,-3.0L2.5,-0.5"/>
                </g>
                <g id="arrowLeft" xlink:href="#dirArrow" transform="rotate(270) translate(-36 17)" onmousedown="handlePan(-1,0)">
                  <use xlink:href="#rim" fill="#404040">
                        <set attributeName="fill" to="#808080" begin="arrowLeft.mouseover" end="arrowLeft.mouseout"/>
                  </use>
                  <path fill="none" stroke="white" stroke-width="1.5" d="M0,-3.0v7 M-2.5,-0.5L0,-3.0L2.5,-0.5"/>
                </g>
        </g>
        <svg viewBox="0 0 15 15" width="100%" height="30px" preserveAspectRatio="xMaxYMin meet">
         <g id="arrow_out" transform="scale(0.3 0.3)">
          <a xlink:href="classparser_1_1_logo_parser_token_manager_a12bfedaecfaf646642cb1aba5b1bd6fb_cgraph_org.svg" target="_base">
           <rect id="button" ry="5" rx="5" y="6" x="6" height="38" width="38"
                fill="#f2f5e9" fill-opacity="0.5" stroke="#606060" stroke-width="1.0"/>
           <path id="arrow"
             d="M 11.500037,31.436501 C 11.940474,20.09759 22.043105,11.32322 32.158766,21.979434 L 37.068811,17.246167 C 37.068811,17.246167 37.088388,32 37.088388,32 L 22.160133,31.978069 C 22.160133,31.978069 26.997745,27.140456 26.997745,27.140456 C 18.528582,18.264221 13.291696,25.230495 11.500037,31.436501 z"
             style="fill:#404040;"/>
          </a>
         </g>
        </svg>
</svg>
