<?xml version="1.0" encoding="UTF-8" standalone="no"?>
<!DOCTYPE svg PUBLIC "-//W3C//DTD SVG 1.1//EN"
 "http://www.w3.org/Graphics/SVG/1.1/DTD/svg11.dtd">
<!-- Generated by graphviz version 2.36.0 (20140111.2315)
 -->
<!-- Title: parser.LogoParserTokenManager.jjMoveStringLiteralDfa1_0 Pages: 1 -->
<!--zoomable 426 -->
<svg id="main" version="1.1" xmlns="http://www.w3.org/2000/svg" xmlns:xlink="http://www.w3.org/1999/xlink" xml:space="preserve" onload="init(evt)">
<style type="text/css"><![CDATA[
.edge:hover path { stroke: red; }
.edge:hover polygon { stroke: red; fill: red; }
]]></style>
<script type="text/javascript"><![CDATA[
var edges = document.getElementsByTagName('g');
if (edges && edges.length) {
  for (var i=0;i<edges.length;i++) {
    if (edges[i].id.substr(0,4)=='edge') {
      edges[i].setAttribute('class','edge');
    }
  }
}
]]></script>
        <defs>
                <circle id="rim" cx="0" cy="0" r="7"/>
                <circle id="rim2" cx="0" cy="0" r="3.5"/>
                <g id="zoomPlus">
                        <use xlink:href="#rim" fill="#404040">
                                <set attributeName="fill" to="#808080" begin="zoomplus.mouseover" end="zoomplus.mouseout"/>
                        </use>
                        <path d="M-4,0h8M0,-4v8" fill="none" stroke="white" stroke-width="1.5" pointer-events="none"/>
                </g>
                <g id="zoomMin">
                        <use xlink:href="#rim" fill="#404040">
                                <set attributeName="fill" to="#808080" begin="zoomminus.mouseover" end="zoomminus.mouseout"/>
                        </use>
                        <path d="M-4,0h8" fill="none" stroke="white" stroke-width="1.5" pointer-events="none"/>
                </g>
                <g id="dirArrow">
                        <path fill="none" stroke="white" stroke-width="1.5" d="M0,-3.0v7 M-2.5,-0.5L0,-3.0L2.5,-0.5"/>
                </g>
               <g id="resetDef">
                       <use xlink:href="#rim2" fill="#404040">
                               <set attributeName="fill" to="#808080" begin="reset.mouseover" end="reset.mouseout"/>
                       </use>
               </g>
        </defs>

<script type="text/javascript">
var viewWidth = 3022;
var viewHeight = 426;
var sectionId = 'dynsection-18';
</script>
<script xlink:href="../../svgpan.js"/>
<svg id="graph" class="graph">
<g id="viewport">
<title>parser.LogoParserTokenManager.jjMoveStringLiteralDfa1_0</title>
<polygon fill="white" stroke="none" points="-4,4 -4,-422.128 3018,-422.128 3018,4 -4,4"/>
<!-- Node1 -->
<g id="node1" class="node"><title>Node1</title>
<polygon fill="#bfbfbf" stroke="black" points="0.5,-308.128 0.5,-338.128 179.5,-338.128 179.5,-308.128 0.5,-308.128"/>
<text text-anchor="start" x="8.5" y="-326.128" font-family="Helvetica,sans-Serif" font-size="10.00">parser.LogoParserTokenManager.jj</text>
<text text-anchor="middle" x="90" y="-315.128" font-family="Helvetica,sans-Serif" font-size="10.00">MoveStringLiteralDfa1_0</text>
</g>
<!-- Node2 -->
<g id="node2" class="node"><title>Node2</title>
<g id="a_node2"><a xlink:href="../../d0/d8c/classparser_1_1_logo_parser_token_manager.html#a2b55f093fc0200c57a099eba2d9b37e2" target="_top" xlink:title="parser.LogoParserTokenManager.jj\lMoveStringLiteralDfa0_0">
<polygon fill="white" stroke="black" points="216.5,-308.128 216.5,-338.128 395.5,-338.128 395.5,-308.128 216.5,-308.128"/>
<text text-anchor="start" x="224.5" y="-326.128" font-family="Helvetica,sans-Serif" font-size="10.00">parser.LogoParserTokenManager.jj</text>
<text text-anchor="middle" x="306" y="-315.128" font-family="Helvetica,sans-Serif" font-size="10.00">MoveStringLiteralDfa0_0</text>
</a>
</g>
</g>
<!-- Node1&#45;&gt;Node2 -->
<g id="edge1" class="edge"><title>Node1&#45;&gt;Node2</title>
<path fill="none" stroke="midnightblue" d="M189.645,-323.128C198.596,-323.128 207.625,-323.128 216.48,-323.128"/>
<polygon fill="midnightblue" stroke="midnightblue" points="189.587,-319.628 179.587,-323.128 189.587,-326.628 189.587,-319.628"/>
</g>
<!-- Node3 -->
<g id="node3" class="node"><title>Node3</title>
<g id="a_node3"><a xlink:href="../../d0/d8c/classparser_1_1_logo_parser_token_manager.html#a3dee50e2286b70ba662519a865e63b77" target="_top" xlink:title="parser.LogoParserTokenManager.get\lNextToken">
<polygon fill="white" stroke="black" points="432,-308.128 432,-338.128 622,-338.128 622,-308.128 432,-308.128"/>
<text text-anchor="start" x="440" y="-326.128" font-family="Helvetica,sans-Serif" font-size="10.00">parser.LogoParserTokenManager.get</text>
<text text-anchor="middle" x="527" y="-315.128" font-family="Helvetica,sans-Serif" font-size="10.00">NextToken</text>
</a>
</g>
</g>
<!-- Node2&#45;&gt;Node3 -->
<g id="edge2" class="edge"><title>Node2&#45;&gt;Node3</title>
<path fill="none" stroke="midnightblue" d="M405.831,-323.128C414.456,-323.128 423.17,-323.128 431.756,-323.128"/>
<polygon fill="midnightblue" stroke="midnightblue" points="405.76,-319.628 395.76,-323.128 405.76,-326.628 405.76,-319.628"/>
</g>
<!-- Node4 -->
<g id="node4" class="node"><title>Node4</title>
<g id="a_node4"><a xlink:href="../../d5/d0e/classparser_1_1_logo_parser.html#a7477b52c4469ea43d75f88fb805e37a1" target="_top" xlink:title="parser.LogoParser.getNext\lToken">
<polygon fill="white" stroke="black" points="660.5,-371.128 660.5,-401.128 803.5,-401.128 803.5,-371.128 660.5,-371.128"/>
<text text-anchor="start" x="668.5" y="-389.128" font-family="Helvetica,sans-Serif" font-size="10.00">parser.LogoParser.getNext</text>
<text text-anchor="middle" x="732" y="-378.128" font-family="Helvetica,sans-Serif" font-size="10.00">Token</text>
</a>
</g>
</g>
<!-- Node3&#45;&gt;Node4 -->
<g id="edge3" class="edge"><title>Node3&#45;&gt;Node4</title>
<path fill="none" stroke="midnightblue" d="M586.044,-341.142C616.612,-350.629 653.662,-362.127 682.653,-371.124"/>
<polygon fill="midnightblue" stroke="midnightblue" points="586.954,-337.76 576.366,-338.138 584.879,-344.445 586.954,-337.76"/>
</g>
<!-- Node5 -->
<g id="node5" class="node"><title>Node5</title>
<g id="a_node5"><a xlink:href="../../d5/d0e/classparser_1_1_logo_parser.html#a63b7890a7d6323bcf938132f968e8157" target="_top" xlink:title="parser.LogoParser.getToken">
<polygon fill="white" stroke="black" points="658,-332.628 658,-351.628 806,-351.628 806,-332.628 658,-332.628"/>
<text text-anchor="middle" x="732" y="-339.628" font-family="Helvetica,sans-Serif" font-size="10.00">parser.LogoParser.getToken</text>
</a>
</g>
</g>
<!-- Node3&#45;&gt;Node5 -->
<g id="edge4" class="edge"><title>Node3&#45;&gt;Node5</title>
<path fill="none" stroke="midnightblue" d="M632.241,-332.885C640.906,-333.696 649.544,-334.504 657.903,-335.287"/>
<polygon fill="midnightblue" stroke="midnightblue" points="632.355,-329.38 622.072,-331.933 631.702,-336.35 632.355,-329.38"/>
</g>
<!-- Node6 -->
<g id="node6" class="node"><title>Node6</title>
<g id="a_node6"><a xlink:href="../../d5/d0e/classparser_1_1_logo_parser.html#a550039a3180ec86ef01f419aefc02edc" target="_top" xlink:title="parser.LogoParser.jj\l_consume_token">
<polygon fill="white" stroke="black" points="677,-118.128 677,-148.128 787,-148.128 787,-118.128 677,-118.128"/>
<text text-anchor="start" x="685" y="-136.128" font-family="Helvetica,sans-Serif" font-size="10.00">parser.LogoParser.jj</text>
<text text-anchor="middle" x="732" y="-125.128" font-family="Helvetica,sans-Serif" font-size="10.00">_consume_token</text>
</a>
</g>
</g>
<!-- Node3&#45;&gt;Node6 -->
<g id="edge5" class="edge"><title>Node3&#45;&gt;Node6</title>
<path fill="none" stroke="midnightblue" d="M551.787,-300.864C593.628,-261.703 679.329,-181.49 714.935,-148.164"/>
<polygon fill="midnightblue" stroke="midnightblue" points="549.178,-298.512 544.269,-307.901 553.962,-303.623 549.178,-298.512"/>
</g>
<!-- Node23 -->
<g id="node23" class="node"><title>Node23</title>
<g id="a_node23"><a xlink:href="../../d5/d0e/classparser_1_1_logo_parser.html#a2e48e3ab2c1c075beca7bcc54d891afd" target="_top" xlink:title="parser.LogoParser.jj_ntk">
<polygon fill="white" stroke="black" points="667,-294.628 667,-313.628 797,-313.628 797,-294.628 667,-294.628"/>
<text text-anchor="middle" x="732" y="-301.628" font-family="Helvetica,sans-Serif" font-size="10.00">parser.LogoParser.jj_ntk</text>
</a>
</g>
</g>
<!-- Node3&#45;&gt;Node23 -->
<g id="edge30" class="edge"><title>Node3&#45;&gt;Node23</title>
<path fill="none" stroke="midnightblue" d="M632.382,-313.359C644.117,-312.26 655.801,-311.167 666.805,-310.137"/>
<polygon fill="midnightblue" stroke="midnightblue" points="631.702,-309.907 622.072,-314.324 632.355,-316.876 631.702,-309.907"/>
</g>
<!-- Node7 -->
<g id="node7" class="node"><title>Node7</title>
<g id="a_node7"><a xlink:href="../../d5/d0e/classparser_1_1_logo_parser.html#a82acce8328e52f3b2bcb90542cc800b7" target="_top" xlink:title="parser.LogoParser.arithm">
<polygon fill="white" stroke="black" points="1166.5,-170.628 1166.5,-189.628 1303.5,-189.628 1303.5,-170.628 1166.5,-170.628"/>
<text text-anchor="middle" x="1235" y="-177.628" font-family="Helvetica,sans-Serif" font-size="10.00">parser.LogoParser.arithm</text>
</a>
</g>
</g>
<!-- Node6&#45;&gt;Node7 -->
<g id="edge6" class="edge"><title>Node6&#45;&gt;Node7</title>
<path fill="none" stroke="midnightblue" d="M797.135,-139.145C892.082,-148.052 1069.24,-164.672 1166.23,-173.771"/>
<polygon fill="midnightblue" stroke="midnightblue" points="797.375,-135.652 787.092,-138.203 796.721,-142.622 797.375,-135.652"/>
</g>
<!-- Node8 -->
<g id="node8" class="node"><title>Node8</title>
<g id="a_node8"><a xlink:href="../../d5/d0e/classparser_1_1_logo_parser.html#a397c25c39976e5a1fb689e1f0dd40160" target="_top" xlink:title="parser.LogoParser.eval">
<polygon fill="white" stroke="black" points="1340.5,-137.628 1340.5,-156.628 1465.5,-156.628 1465.5,-137.628 1340.5,-137.628"/>
<text text-anchor="middle" x="1403" y="-144.628" font-family="Helvetica,sans-Serif" font-size="10.00">parser.LogoParser.eval</text>
</a>
</g>
</g>
<!-- Node6&#45;&gt;Node8 -->
<g id="edge22" class="edge"><title>Node6&#45;&gt;Node8</title>
<path fill="none" stroke="midnightblue" d="M797.274,-134.473C925.9,-137.165 1213.46,-143.183 1340.1,-145.833"/>
<polygon fill="midnightblue" stroke="midnightblue" points="797.251,-130.972 787.18,-134.262 797.105,-137.971 797.251,-130.972"/>
</g>
<!-- Node9 -->
<g id="node9" class="node"><title>Node9</title>
<g id="a_node9"><a xlink:href="../../d5/d0e/classparser_1_1_logo_parser.html#a6b0ba0c2b5b0bc8c2ef76863fffdb6a3" target="_top" xlink:title="parser.LogoParser.list">
<polygon fill="white" stroke="black" points="1694.5,-99.6283 1694.5,-118.628 1813.5,-118.628 1813.5,-99.6283 1694.5,-99.6283"/>
<text text-anchor="middle" x="1754" y="-106.628" font-family="Helvetica,sans-Serif" font-size="10.00">parser.LogoParser.list</text>
</a>
</g>
</g>
<!-- Node6&#45;&gt;Node9 -->
<g id="edge24" class="edge"><title>Node6&#45;&gt;Node9</title>
<path fill="none" stroke="midnightblue" d="M767.871,-113.211C788.785,-102.026 816.244,-88.6456 842,-80.1283 937.754,-48.4635 964.146,-38.1283 1065,-38.1283 1065,-38.1283 1065,-38.1283 1404,-38.1283 1525.81,-38.1283 1666.82,-80.173 1725.34,-99.5529"/>
<polygon fill="midnightblue" stroke="midnightblue" points="766.158,-110.159 759.043,-118.009 769.501,-116.309 766.158,-110.159"/>
</g>
<!-- Node10 -->
<g id="node10" class="node"><title>Node10</title>
<g id="a_node10"><a xlink:href="../../d5/d0e/classparser_1_1_logo_parser.html#a4a8825534e0488215d22bcd947bc4d41" target="_top" xlink:title="parser.LogoParser.expression">
<polygon fill="white" stroke="black" points="1850.5,-26.6283 1850.5,-45.6283 2007.5,-45.6283 2007.5,-26.6283 1850.5,-26.6283"/>
<text text-anchor="middle" x="1929" y="-33.6283" font-family="Helvetica,sans-Serif" font-size="10.00">parser.LogoParser.expression</text>
</a>
</g>
</g>
<!-- Node6&#45;&gt;Node10 -->
<g id="edge23" class="edge"><title>Node6&#45;&gt;Node10</title>
<path fill="none" stroke="midnightblue" d="M752.934,-110.568C773.172,-89.1803 806.506,-57.9001 842,-41.1283 933.113,1.92439 964.228,-0.128293 1065,-0.128293 1065,-0.128293 1065,-0.128293 1581,-0.128293 1683.81,-0.128293 1802.85,-15.9569 1871.39,-26.6226"/>
<polygon fill="midnightblue" stroke="midnightblue" points="750.32,-108.241 746.091,-117.955 755.455,-112.998 750.32,-108.241"/>
</g>
<!-- Node20 -->
<g id="node20" class="node"><title>Node20</title>
<g id="a_node20"><a xlink:href="../../d5/d0e/classparser_1_1_logo_parser.html#ad6ed8e51959a6e19a2323444aa8331c8" target="_top" xlink:title="parser.LogoParser.statement">
<polygon fill="white" stroke="black" points="1502.5,-137.628 1502.5,-156.628 1657.5,-156.628 1657.5,-137.628 1502.5,-137.628"/>
<text text-anchor="middle" x="1580" y="-144.628" font-family="Helvetica,sans-Serif" font-size="10.00">parser.LogoParser.statement</text>
</a>
</g>
</g>
<!-- Node6&#45;&gt;Node20 -->
<g id="edge28" class="edge"><title>Node6&#45;&gt;Node20</title>
<path fill="none" stroke="midnightblue" d="M796.757,-115.549C863.191,-98.8025 970.574,-76.1283 1065,-76.1283 1065,-76.1283 1065,-76.1283 1236,-76.1283 1355.8,-76.1283 1494.34,-118.173 1551.83,-137.553"/>
<polygon fill="midnightblue" stroke="midnightblue" points="795.68,-112.212 786.857,-118.078 797.413,-118.994 795.68,-112.212"/>
</g>
<!-- Node21 -->
<g id="node21" class="node"><title>Node21</title>
<g id="a_node21"><a xlink:href="../../d5/d0e/classparser_1_1_logo_parser.html#a4bdaeff6df067fde6743ff07370c3b0b" target="_top" xlink:title="parser.LogoParser.pow">
<polygon fill="white" stroke="black" points="842,-218.628 842,-237.628 966,-237.628 966,-218.628 842,-218.628"/>
<text text-anchor="middle" x="904" y="-225.628" font-family="Helvetica,sans-Serif" font-size="10.00">parser.LogoParser.pow</text>
</a>
</g>
</g>
<!-- Node6&#45;&gt;Node21 -->
<g id="edge25" class="edge"><title>Node6&#45;&gt;Node21</title>
<path fill="none" stroke="midnightblue" d="M761.863,-154.242C783.29,-169.334 813.596,-189.482 842,-204.128 852.519,-209.553 864.559,-214.531 875.148,-218.53"/>
<polygon fill="midnightblue" stroke="midnightblue" points="763.717,-151.266 753.54,-148.319 759.658,-156.969 763.717,-151.266"/>
</g>
<!-- Node22 -->
<g id="node22" class="node"><title>Node22</title>
<g id="a_node22"><a xlink:href="../../d5/d0e/classparser_1_1_logo_parser.html#a34f4226672a2711ce2691162fdb2124d" target="_top" xlink:title="parser.LogoParser.term">
<polygon fill="white" stroke="black" points="1002,-199.628 1002,-218.628 1130,-218.628 1130,-199.628 1002,-199.628"/>
<text text-anchor="middle" x="1066" y="-206.628" font-family="Helvetica,sans-Serif" font-size="10.00">parser.LogoParser.term</text>
</a>
</g>
</g>
<!-- Node6&#45;&gt;Node22 -->
<g id="edge29" class="edge"><title>Node6&#45;&gt;Node22</title>
<path fill="none" stroke="midnightblue" d="M788.638,-151.185C805.662,-156.381 824.51,-161.807 842,-166.128 897.502,-179.842 961.673,-191.816 1006.89,-199.621"/>
<polygon fill="midnightblue" stroke="midnightblue" points="789.437,-147.768 778.85,-148.162 787.372,-154.457 789.437,-147.768"/>
</g>
<!-- Node7&#45;&gt;Node8 -->
<g id="edge7" class="edge"><title>Node7&#45;&gt;Node8</title>
<path fill="none" stroke="midnightblue" d="M1294.06,-168.586C1313.68,-164.686 1335.35,-160.378 1354.09,-156.652"/>
<polygon fill="midnightblue" stroke="midnightblue" points="1293.14,-165.201 1284.01,-170.583 1294.5,-172.066 1293.14,-165.201"/>
</g>
<!-- Node8&#45;&gt;Node9 -->
<g id="edge8" class="edge"><title>Node8&#45;&gt;Node9</title>
<path fill="none" stroke="midnightblue" d="M1457.06,-135.677C1471.58,-132.863 1487.35,-130.097 1502,-128.128 1567.62,-119.314 1643.48,-114.278 1694.47,-111.635"/>
<polygon fill="midnightblue" stroke="midnightblue" points="1456.37,-132.246 1447.24,-137.624 1457.73,-139.112 1456.37,-132.246"/>
</g>
<!-- Node8&#45;&gt;Node20 -->
<g id="edge20" class="edge"><title>Node8&#45;&gt;Node20</title>
<path fill="none" stroke="midnightblue" d="M1475.8,-147.128C1484.51,-147.128 1493.44,-147.128 1502.22,-147.128"/>
<polygon fill="midnightblue" stroke="midnightblue" points="1475.7,-143.628 1465.7,-147.128 1475.7,-150.628 1475.7,-143.628"/>
</g>
<!-- Node9&#45;&gt;Node10 -->
<g id="edge9" class="edge"><title>Node9&#45;&gt;Node10</title>
<path fill="none" stroke="midnightblue" d="M1787.2,-95.5422C1821.58,-81.0317 1875.2,-58.4088 1905.38,-45.6741"/>
<polygon fill="midnightblue" stroke="midnightblue" points="1785.47,-92.4724 1777.62,-99.5848 1788.19,-98.9217 1785.47,-92.4724"/>
</g>
<!-- Node11 -->
<g id="node11" class="node"><title>Node11</title>
<g id="a_node11"><a xlink:href="../../d5/d0e/classparser_1_1_logo_parser.html#adefe3b97ad0d2d7fd0dcd13f7ef2c75e" target="_top" xlink:title="parser.LogoParser.parse">
<polygon fill="white" stroke="black" points="1863,-99.6283 1863,-118.628 1995,-118.628 1995,-99.6283 1863,-99.6283"/>
<text text-anchor="middle" x="1929" y="-106.628" font-family="Helvetica,sans-Serif" font-size="10.00">parser.LogoParser.parse</text>
</a>
</g>
</g>
<!-- Node9&#45;&gt;Node11 -->
<g id="edge10" class="edge"><title>Node9&#45;&gt;Node11</title>
<path fill="none" stroke="midnightblue" d="M1823.78,-109.128C1836.7,-109.128 1850.16,-109.128 1862.95,-109.128"/>
<polygon fill="midnightblue" stroke="midnightblue" points="1823.57,-105.628 1813.57,-109.128 1823.57,-112.628 1823.57,-105.628"/>
</g>
<!-- Node12 -->
<g id="node12" class="node"><title>Node12</title>
<g id="a_node12"><a xlink:href="../../d6/d95/classparser_1_1_parser.html#af3d0cef45b9f02f1707959c08d8f3797" target="_top" xlink:title="parser.Parser.parse">
<polygon fill="white" stroke="black" points="2044.5,-99.6283 2044.5,-118.628 2153.5,-118.628 2153.5,-99.6283 2044.5,-99.6283"/>
<text text-anchor="middle" x="2099" y="-106.628" font-family="Helvetica,sans-Serif" font-size="10.00">parser.Parser.parse</text>
</a>
</g>
</g>
<!-- Node11&#45;&gt;Node12 -->
<g id="edge11" class="edge"><title>Node11&#45;&gt;Node12</title>
<path fill="none" stroke="midnightblue" d="M2005.8,-109.128C2018.83,-109.128 2032.12,-109.128 2044.41,-109.128"/>
<polygon fill="midnightblue" stroke="midnightblue" points="2005.43,-105.628 1995.43,-109.128 2005.43,-112.628 2005.43,-105.628"/>
</g>
<!-- Node13 -->
<g id="node13" class="node"><title>Node13</title>
<g id="a_node13"><a xlink:href="../../d4/d06/classinput_1_1_input_executor.html#a687a9f2cbed5d27a2c7b1336a1cab8aa" target="_top" xlink:title="input.InputExecutor.process\lInput">
<polygon fill="white" stroke="black" points="2190.5,-138.128 2190.5,-168.128 2339.5,-168.128 2339.5,-138.128 2190.5,-138.128"/>
<text text-anchor="start" x="2198.5" y="-156.128" font-family="Helvetica,sans-Serif" font-size="10.00">input.InputExecutor.process</text>
<text text-anchor="middle" x="2265" y="-145.128" font-family="Helvetica,sans-Serif" font-size="10.00">Input</text>
</a>
</g>
</g>
<!-- Node12&#45;&gt;Node13 -->
<g id="edge12" class="edge"><title>Node12&#45;&gt;Node13</title>
<path fill="none" stroke="midnightblue" d="M2145.36,-121.297C2164.7,-126.486 2187.46,-132.593 2207.85,-138.063"/>
<polygon fill="midnightblue" stroke="midnightblue" points="2146.15,-117.887 2135.59,-118.676 2144.34,-124.647 2146.15,-117.887"/>
</g>
<!-- Node14 -->
<g id="node14" class="node"><title>Node14</title>
<g id="a_node14"><a xlink:href="../../d6/d95/classparser_1_1_parser.html#ae90f8410be9931ec3f349085c8fdae71" target="_top" xlink:title="parser.Parser.parseFile">
<polygon fill="white" stroke="black" points="2203,-99.6283 2203,-118.628 2327,-118.628 2327,-99.6283 2203,-99.6283"/>
<text text-anchor="middle" x="2265" y="-106.628" font-family="Helvetica,sans-Serif" font-size="10.00">parser.Parser.parseFile</text>
</a>
</g>
</g>
<!-- Node12&#45;&gt;Node14 -->
<g id="edge13" class="edge"><title>Node12&#45;&gt;Node14</title>
<path fill="none" stroke="midnightblue" d="M2163.82,-109.128C2176.63,-109.128 2190.06,-109.128 2202.79,-109.128"/>
<polygon fill="midnightblue" stroke="midnightblue" points="2163.7,-105.628 2153.7,-109.128 2163.7,-112.628 2163.7,-105.628"/>
</g>
<!-- Node19 -->
<g id="node19" class="node"><title>Node19</title>
<g id="a_node19"><a xlink:href="../../d5/d56/class_workspace.html#a0ed8fb487512971086b6f3ed0d74e4ae" target="_top" xlink:title="Workspace.sendUserInput">
<polygon fill="white" stroke="black" points="2381,-57.6283 2381,-76.6283 2521,-76.6283 2521,-57.6283 2381,-57.6283"/>
<text text-anchor="middle" x="2451" y="-64.6283" font-family="Helvetica,sans-Serif" font-size="10.00">Workspace.sendUserInput</text>
</a>
</g>
</g>
<!-- Node12&#45;&gt;Node19 -->
<g id="edge18" class="edge"><title>Node12&#45;&gt;Node19</title>
<path fill="none" stroke="midnightblue" d="M2150.23,-97.4126C2163.14,-94.7092 2177.04,-92.0626 2190,-90.1283 2254.31,-80.5301 2328.22,-74.4655 2380.76,-70.9889"/>
<polygon fill="midnightblue" stroke="midnightblue" points="2149.18,-94.0595 2140.14,-99.5804 2150.65,-100.904 2149.18,-94.0595"/>
</g>
<!-- Node15 -->
<g id="node15" class="node"><title>Node15</title>
<g id="a_node15"><a xlink:href="../../d9/de8/class_file_chooser_feature.html#ad742b8e9d07e8151f0a9ff1972867ce8" target="_top" xlink:title="FileChooserFeature.openFile\lChooser">
<polygon fill="white" stroke="black" points="2376.5,-96.1283 2376.5,-126.128 2525.5,-126.128 2525.5,-96.1283 2376.5,-96.1283"/>
<text text-anchor="start" x="2384.5" y="-114.128" font-family="Helvetica,sans-Serif" font-size="10.00">FileChooserFeature.openFile</text>
<text text-anchor="middle" x="2451" y="-103.128" font-family="Helvetica,sans-Serif" font-size="10.00">Chooser</text>
</a>
</g>
</g>
<!-- Node14&#45;&gt;Node15 -->
<g id="edge14" class="edge"><title>Node14&#45;&gt;Node15</title>
<path fill="none" stroke="midnightblue" d="M2337.17,-109.902C2350.02,-110.042 2363.44,-110.187 2376.35,-110.328"/>
<polygon fill="midnightblue" stroke="midnightblue" points="2337.05,-106.4 2327.01,-109.791 2336.98,-113.4 2337.05,-106.4"/>
</g>
<!-- Node16 -->
<g id="node16" class="node"><title>Node16</title>
<g id="a_node16"><a xlink:href="../../d5/d56/class_workspace.html#a6babd032d9af86fbc23812272d59a2d2" target="_top" xlink:title="Workspace.addFeatureButtons">
<polygon fill="white" stroke="black" points="2562,-99.6283 2562,-118.628 2724,-118.628 2724,-99.6283 2562,-99.6283"/>
<text text-anchor="middle" x="2643" y="-106.628" font-family="Helvetica,sans-Serif" font-size="10.00">Workspace.addFeatureButtons</text>
</a>
</g>
</g>
<!-- Node15&#45;&gt;Node16 -->
<g id="edge15" class="edge"><title>Node15&#45;&gt;Node16</title>
<path fill="none" stroke="midnightblue" d="M2535.77,-110.247C2544.38,-110.156 2553.12,-110.064 2561.7,-109.974"/>
<polygon fill="midnightblue" stroke="midnightblue" points="2535.69,-106.747 2525.73,-110.352 2535.77,-113.747 2535.69,-106.747"/>
</g>
<!-- Node17 -->
<g id="node17" class="node"><title>Node17</title>
<g id="a_node17"><a xlink:href="../../d5/d56/class_workspace.html#a429d535dfd8427637b7715f0b1e1df1b" target="_top" xlink:title="Workspace.createWorkspace">
<polygon fill="white" stroke="black" points="2760,-79.6283 2760,-98.6283 2912,-98.6283 2912,-79.6283 2760,-79.6283"/>
<text text-anchor="middle" x="2836" y="-86.6283" font-family="Helvetica,sans-Serif" font-size="10.00">Workspace.createWorkspace</text>
</a>
</g>
</g>
<!-- Node16&#45;&gt;Node17 -->
<g id="edge16" class="edge"><title>Node16&#45;&gt;Node17</title>
<path fill="none" stroke="midnightblue" d="M2734.22,-99.6809C2742.82,-98.7804 2751.48,-97.874 2759.91,-96.9909"/>
<polygon fill="midnightblue" stroke="midnightblue" points="2733.75,-96.2109 2724.17,-100.733 2734.48,-103.173 2733.75,-96.2109"/>
</g>
<!-- Node18 -->
<g id="node18" class="node"><title>Node18</title>
<g id="a_node18"><a xlink:href="../../d0/d4b/class_main.html#aaa75b38812324d0f17c89f139bde6ada" target="_top" xlink:title="Main.start">
<polygon fill="white" stroke="black" points="2948.5,-79.6283 2948.5,-98.6283 3013.5,-98.6283 3013.5,-79.6283 2948.5,-79.6283"/>
<text text-anchor="middle" x="2981" y="-86.6283" font-family="Helvetica,sans-Serif" font-size="10.00">Main.start</text>
</a>
</g>
</g>
<!-- Node17&#45;&gt;Node18 -->
<g id="edge17" class="edge"><title>Node17&#45;&gt;Node18</title>
<path fill="none" stroke="midnightblue" d="M2922.39,-89.1283C2931.63,-89.1283 2940.55,-89.1283 2948.5,-89.1283"/>
<polygon fill="midnightblue" stroke="midnightblue" points="2922.27,-85.6284 2912.27,-89.1283 2922.27,-92.6284 2922.27,-85.6284"/>
</g>
<!-- Node19&#45;&gt;Node17 -->
<g id="edge19" class="edge"><title>Node19&#45;&gt;Node17</title>
<path fill="none" stroke="midnightblue" d="M2531.47,-71.6929C2598.6,-75.5494 2694.08,-81.0335 2759.94,-84.8165"/>
<polygon fill="midnightblue" stroke="midnightblue" points="2531.54,-68.1916 2521.36,-71.1123 2531.14,-75.1801 2531.54,-68.1916"/>
</g>
<!-- Node20&#45;&gt;Node9 -->
<g id="edge21" class="edge"><title>Node20&#45;&gt;Node9</title>
<path fill="none" stroke="midnightblue" d="M1634.2,-135.376C1658.52,-130.003 1686.95,-123.72 1709.91,-118.648"/>
<polygon fill="midnightblue" stroke="midnightblue" points="1633.41,-131.964 1624.4,-137.539 1634.92,-138.8 1633.41,-131.964"/>
</g>
<!-- Node21&#45;&gt;Node22 -->
<g id="edge26" class="edge"><title>Node21&#45;&gt;Node22</title>
<path fill="none" stroke="midnightblue" d="M976.604,-219.625C985.039,-218.624 993.601,-217.607 1001.91,-216.621"/>
<polygon fill="midnightblue" stroke="midnightblue" points="975.92,-216.182 966.403,-220.837 976.746,-223.133 975.92,-216.182"/>
</g>
<!-- Node22&#45;&gt;Node7 -->
<g id="edge27" class="edge"><title>Node22&#45;&gt;Node7</title>
<path fill="none" stroke="midnightblue" d="M1132.21,-197.805C1147.75,-195.106 1164.18,-192.253 1179.2,-189.645"/>
<polygon fill="midnightblue" stroke="midnightblue" points="1131.4,-194.393 1122.14,-199.552 1132.6,-201.29 1131.4,-194.393"/>
</g>
<!-- Node23&#45;&gt;Node7 -->
<g id="edge31" class="edge"><title>Node23&#45;&gt;Node7</title>
<path fill="none" stroke="midnightblue" d="M807.476,-299.342C853.489,-295.516 913.561,-288.951 966,-278.128 1040.63,-262.726 1058.8,-255.269 1130,-228.128 1160.47,-216.513 1194.58,-200.08 1215.17,-189.77"/>
<polygon fill="midnightblue" stroke="midnightblue" points="806.973,-295.871 797.287,-300.164 807.536,-302.848 806.973,-295.871"/>
</g>
<!-- Node23&#45;&gt;Node8 -->
<g id="edge32" class="edge"><title>Node23&#45;&gt;Node8</title>
<path fill="none" stroke="midnightblue" d="M807.183,-307.109C853.087,-307.98 913.148,-307.361 966,-301.128 1121.83,-282.751 1160.9,-263.494 1304,-199.128 1333.51,-185.855 1366.49,-167.608 1385.68,-156.632"/>
<polygon fill="midnightblue" stroke="midnightblue" points="807.094,-303.607 797.02,-306.888 806.941,-310.605 807.094,-303.607"/>
</g>
<!-- Node23&#45;&gt;Node9 -->
<g id="edge33" class="edge"><title>Node23&#45;&gt;Node9</title>
<path fill="none" stroke="midnightblue" d="M793.755,-317.144C798.011,-318.897 802.139,-320.882 806,-323.128 825.832,-334.665 822.167,-348.593 842,-360.128 930.525,-411.614 962.591,-418.128 1065,-418.128 1065,-418.128 1065,-418.128 1404,-418.128 1589.32,-418.128 1722.36,-170.871 1748.36,-118.715"/>
<polygon fill="midnightblue" stroke="midnightblue" points="794.883,-313.83 784.29,-313.664 792.468,-320.4 794.883,-313.83"/>
</g>
<!-- Node23&#45;&gt;Node20 -->
<g id="edge35" class="edge"><title>Node23&#45;&gt;Node20</title>
<path fill="none" stroke="midnightblue" d="M780.259,-316.182C865.016,-337.615 1036.7,-380.128 1065,-380.128 1065,-380.128 1065,-380.128 1236,-380.128 1397.61,-380.128 1539.56,-200.94 1572.04,-156.843"/>
<polygon fill="midnightblue" stroke="midnightblue" points="780.923,-312.739 770.37,-313.677 779.204,-319.525 780.923,-312.739"/>
</g>
<!-- Node23&#45;&gt;Node21 -->
<g id="edge34" class="edge"><title>Node23&#45;&gt;Node21</title>
<path fill="none" stroke="midnightblue" d="M761.161,-290.023C783.024,-279.237 814.194,-264.213 842,-252.128 853.585,-247.093 866.592,-241.912 877.61,-237.659"/>
<polygon fill="midnightblue" stroke="midnightblue" points="759.513,-286.933 752.108,-294.51 762.622,-293.205 759.513,-286.933"/>
</g>
<!-- Node23&#45;&gt;Node22 -->
<g id="edge36" class="edge"><title>Node23&#45;&gt;Node22</title>
<path fill="none" stroke="midnightblue" d="M789.248,-292.464C836.783,-282.109 906.446,-265.76 966,-247.128 992.707,-238.773 1022.6,-226.943 1042.48,-218.71"/>
<polygon fill="midnightblue" stroke="midnightblue" points="788.486,-289.048 779.452,-294.581 789.965,-295.89 788.486,-289.048"/>
</g>
</g>
</svg>
        <g id="navigator" transform="translate(0 0)" fill="#404254">
                <rect fill="#f2f5e9" fill-opacity="0.5" stroke="#606060" stroke-width=".5" x="0" y="0" width="60" height="60"/>
                <use id="zoomplus" xlink:href="#zoomPlus" x="17" y="9" onmousedown="handleZoom(evt,'in')"/>
                <use id="zoomminus" xlink:href="#zoomMin" x="42" y="9" onmousedown="handleZoom(evt,'out')"/>
                <use id="reset" xlink:href="#resetDef" x="30" y="36" onmousedown="handleReset()"/>
                <g id="arrowUp" xlink:href="#dirArrow" transform="translate(30 24)" onmousedown="handlePan(0,-1)">
                  <use xlink:href="#rim" fill="#404040">
                        <set attributeName="fill" to="#808080" begin="arrowUp.mouseover" end="arrowUp.mouseout"/>
                  </use>
                  <path fill="none" stroke="white" stroke-width="1.5" d="M0,-3.0v7 M-2.5,-0.5L0,-3.0L2.5,-0.5"/>
                </g>
                <g id="arrowRight" xlink:href="#dirArrow" transform="rotate(90) translate(36 -43)" onmousedown="handlePan(1,0)">
                  <use xlink:href="#rim" fill="#404040">
                        <set attributeName="fill" to="#808080" begin="arrowRight.mouseover" end="arrowRight.mouseout"/>
                  </use>
                  <path fill="none" stroke="white" stroke-width="1.5" d="M0,-3.0v7 M-2.5,-0.5L0,-3.0L2.5,-0.5"/>
                </g>
                <g id="arrowDown" xlink:href="#dirArrow" transform="rotate(180) translate(-30 -48)" onmousedown="handlePan(0,1)">
                  <use xlink:href="#rim" fill="#404040">
                        <set attributeName="fill" to="#808080" begin="arrowDown.mouseover" end="arrowDown.mouseout"/>
                  </use>
                  <path fill="none" stroke="white" stroke-width="1.5" d="M0,-3.0v7 M-2.5,-0.5L0,-3.0L2.5,-0.5"/>
                </g>
                <g id="arrowLeft" xlink:href="#dirArrow" transform="rotate(270) translate(-36 17)" onmousedown="handlePan(-1,0)">
                  <use xlink:href="#rim" fill="#404040">
                        <set attributeName="fill" to="#808080" begin="arrowLeft.mouseover" end="arrowLeft.mouseout"/>
                  </use>
                  <path fill="none" stroke="white" stroke-width="1.5" d="M0,-3.0v7 M-2.5,-0.5L0,-3.0L2.5,-0.5"/>
                </g>
        </g>
        <svg viewBox="0 0 15 15" width="100%" height="30px" preserveAspectRatio="xMaxYMin meet">
         <g id="arrow_out" transform="scale(0.3 0.3)">
          <a xlink:href="classparser_1_1_logo_parser_token_manager_a99a01f0b68908e628349e9f09a2cbccd_icgraph_org.svg" target="_base">
           <rect id="button" ry="5" rx="5" y="6" x="6" height="38" width="38"
                fill="#f2f5e9" fill-opacity="0.5" stroke="#606060" stroke-width="1.0"/>
           <path id="arrow"
             d="M 11.500037,31.436501 C 11.940474,20.09759 22.043105,11.32322 32.158766,21.979434 L 37.068811,17.246167 C 37.068811,17.246167 37.088388,32 37.088388,32 L 22.160133,31.978069 C 22.160133,31.978069 26.997745,27.140456 26.997745,27.140456 C 18.528582,18.264221 13.291696,25.230495 11.500037,31.436501 z"
             style="fill:#404040;"/>
          </a>
         </g>
        </svg>
</svg>
