<?xml version="1.0" encoding="UTF-8" standalone="no"?>
<!DOCTYPE svg PUBLIC "-//W3C//DTD SVG 1.1//EN"
 "http://www.w3.org/Graphics/SVG/1.1/DTD/svg11.dtd">
<!-- Generated by graphviz version 2.36.0 (20140111.2315)
 -->
<!-- Title: parser.LogoParserTokenManager.jjStartNfaWithStates_0 Pages: 1 -->
<svg width="1060pt" height="292pt"
 viewBox="0.00 0.00 1060.00 292.00" xmlns="http://www.w3.org/2000/svg" xmlns:xlink="http://www.w3.org/1999/xlink">
<g id="graph0" class="graph" transform="scale(1 1) rotate(0) translate(4 288)">
<title>parser.LogoParserTokenManager.jjStartNfaWithStates_0</title>
<polygon fill="white" stroke="none" points="-4,4 -4,-288 1056,-288 1056,4 -4,4"/>
<!-- Node1 -->
<g id="node1" class="node"><title>Node1</title>
<polygon fill="#bfbfbf" stroke="black" points="0.5,-83 0.5,-113 179.5,-113 179.5,-83 0.5,-83"/>
<text text-anchor="start" x="8.5" y="-101" font-family="Helvetica,sans-Serif" font-size="10.00">parser.LogoParserTokenManager.jj</text>
<text text-anchor="middle" x="90" y="-90" font-family="Helvetica,sans-Serif" font-size="10.00">StartNfaWithStates_0</text>
</g>
<!-- Node2 -->
<g id="node2" class="node"><title>Node2</title>
<g id="a_node2"><a xlink:href="../../d0/d8c/classparser_1_1_logo_parser_token_manager.html#a0071f141b41b403c8ab151c8c014a709" target="_top" xlink:title="parser.LogoParserTokenManager.jj\lMoveNfa_0">
<polygon fill="white" stroke="black" points="216.5,-117 216.5,-147 395.5,-147 395.5,-117 216.5,-117"/>
<text text-anchor="start" x="224.5" y="-135" font-family="Helvetica,sans-Serif" font-size="10.00">parser.LogoParserTokenManager.jj</text>
<text text-anchor="middle" x="306" y="-124" font-family="Helvetica,sans-Serif" font-size="10.00">MoveNfa_0</text>
</a>
</g>
</g>
<!-- Node1&#45;&gt;Node2 -->
<g id="edge1" class="edge"><title>Node1&#45;&gt;Node2</title>
<path fill="none" stroke="midnightblue" d="M179.587,-112.075C188.442,-113.482 197.472,-114.916 206.422,-116.338"/>
<polygon fill="midnightblue" stroke="midnightblue" points="206.054,-119.823 216.48,-117.936 207.153,-112.91 206.054,-119.823"/>
</g>
<!-- Node7 -->
<g id="node7" class="node"><title>Node7</title>
<g id="a_node7"><a xlink:href="../../d4/dad/classparser_1_1_simple_char_stream.html#a9f80cee02b99e8e200afa646e3b25e29" target="_top" xlink:title="parser.SimpleCharStream.readChar">
<polygon fill="white" stroke="black" points="432,-29.5 432,-48.5 620,-48.5 620,-29.5 432,-29.5"/>
<text text-anchor="middle" x="526" y="-36.5" font-family="Helvetica,sans-Serif" font-size="10.00">parser.SimpleCharStream.readChar</text>
</a>
</g>
</g>
<!-- Node1&#45;&gt;Node7 -->
<g id="edge14" class="edge"><title>Node1&#45;&gt;Node7</title>
<path fill="none" stroke="midnightblue" d="M179.611,-85.9537C257.394,-75.3796 369.542,-60.1336 444.732,-49.912"/>
<polygon fill="midnightblue" stroke="midnightblue" points="445.652,-53.3193 455.089,-48.504 444.709,-46.3831 445.652,-53.3193"/>
</g>
<!-- Node3 -->
<g id="node3" class="node"><title>Node3</title>
<g id="a_node3"><a xlink:href="../../d0/d8c/classparser_1_1_logo_parser_token_manager.html#ad31cdd6db411f95b045686c2053f42fa" target="_top" xlink:title="parser.LogoParserTokenManager.jj\lAddStates">
<polygon fill="white" stroke="black" points="436.5,-254 436.5,-284 615.5,-284 615.5,-254 436.5,-254"/>
<text text-anchor="start" x="444.5" y="-272" font-family="Helvetica,sans-Serif" font-size="10.00">parser.LogoParserTokenManager.jj</text>
<text text-anchor="middle" x="526" y="-261" font-family="Helvetica,sans-Serif" font-size="10.00">AddStates</text>
</a>
</g>
</g>
<!-- Node2&#45;&gt;Node3 -->
<g id="edge2" class="edge"><title>Node2&#45;&gt;Node3</title>
<path fill="none" stroke="midnightblue" d="M320.922,-147.291C342.589,-170.245 386.626,-213.619 432,-239 439.638,-243.272 447.974,-247.041 456.417,-250.336"/>
<polygon fill="midnightblue" stroke="midnightblue" points="455.369,-253.68 465.962,-253.855 457.791,-247.112 455.369,-253.68"/>
</g>
<!-- Node4 -->
<g id="node4" class="node"><title>Node4</title>
<g id="a_node4"><a xlink:href="../../d0/d8c/classparser_1_1_logo_parser_token_manager.html#af1b1635a624926faf7741958cc140de4" target="_top" xlink:title="parser.LogoParserTokenManager.jj\lCheckNAdd">
<polygon fill="white" stroke="black" points="656.5,-166 656.5,-196 835.5,-196 835.5,-166 656.5,-166"/>
<text text-anchor="start" x="664.5" y="-184" font-family="Helvetica,sans-Serif" font-size="10.00">parser.LogoParserTokenManager.jj</text>
<text text-anchor="middle" x="746" y="-173" font-family="Helvetica,sans-Serif" font-size="10.00">CheckNAdd</text>
</a>
</g>
</g>
<!-- Node2&#45;&gt;Node4 -->
<g id="edge3" class="edge"><title>Node2&#45;&gt;Node4</title>
<path fill="none" stroke="midnightblue" d="M325.471,-147.087C348.681,-164.974 390.518,-193.774 432,-205 515.893,-227.703 616.723,-212.808 680.835,-198.348"/>
<polygon fill="midnightblue" stroke="midnightblue" points="681.851,-201.705 690.802,-196.037 680.269,-194.886 681.851,-201.705"/>
</g>
<!-- Node5 -->
<g id="node5" class="node"><title>Node5</title>
<g id="a_node5"><a xlink:href="../../d0/d8c/classparser_1_1_logo_parser_token_manager.html#ac4047538420e7ceceec16698b354cd62" target="_top" xlink:title="parser.LogoParserTokenManager.jj\lCheckNAddStates">
<polygon fill="white" stroke="black" points="436.5,-166 436.5,-196 615.5,-196 615.5,-166 436.5,-166"/>
<text text-anchor="start" x="444.5" y="-184" font-family="Helvetica,sans-Serif" font-size="10.00">parser.LogoParserTokenManager.jj</text>
<text text-anchor="middle" x="526" y="-173" font-family="Helvetica,sans-Serif" font-size="10.00">CheckNAddStates</text>
</a>
</g>
</g>
<!-- Node2&#45;&gt;Node5 -->
<g id="edge4" class="edge"><title>Node2&#45;&gt;Node5</title>
<path fill="none" stroke="midnightblue" d="M373.889,-147.035C397.43,-152.326 424.067,-158.313 448.349,-163.771"/>
<polygon fill="midnightblue" stroke="midnightblue" points="447.714,-167.216 458.238,-165.994 449.249,-160.386 447.714,-167.216"/>
</g>
<!-- Node6 -->
<g id="node6" class="node"><title>Node6</title>
<g id="a_node6"><a xlink:href="../../d0/d8c/classparser_1_1_logo_parser_token_manager.html#a8f9adc17a4a9b201128786ca145783e8" target="_top" xlink:title="parser.LogoParserTokenManager.jj\lCheckNAddTwoStates">
<polygon fill="white" stroke="black" points="436.5,-117 436.5,-147 615.5,-147 615.5,-117 436.5,-117"/>
<text text-anchor="start" x="444.5" y="-135" font-family="Helvetica,sans-Serif" font-size="10.00">parser.LogoParserTokenManager.jj</text>
<text text-anchor="middle" x="526" y="-124" font-family="Helvetica,sans-Serif" font-size="10.00">CheckNAddTwoStates</text>
</a>
</g>
</g>
<!-- Node2&#45;&gt;Node6 -->
<g id="edge6" class="edge"><title>Node2&#45;&gt;Node6</title>
<path fill="none" stroke="midnightblue" d="M395.669,-132C405.748,-132 416.067,-132 426.265,-132"/>
<polygon fill="midnightblue" stroke="midnightblue" points="426.41,-135.5 436.41,-132 426.41,-128.5 426.41,-135.5"/>
</g>
<!-- Node2&#45;&gt;Node7 -->
<g id="edge8" class="edge"><title>Node2&#45;&gt;Node7</title>
<path fill="none" stroke="midnightblue" d="M332.109,-116.846C367.058,-95.7966 426.706,-60.0414 432,-58 438.949,-55.3205 446.343,-52.9949 453.809,-50.9817"/>
<polygon fill="midnightblue" stroke="midnightblue" points="454.788,-54.3446 463.632,-48.5118 453.081,-47.5559 454.788,-54.3446"/>
</g>
<!-- Node12 -->
<g id="node12" class="node"><title>Node12</title>
<g id="a_node12"><a xlink:href="../../d0/d8c/classparser_1_1_logo_parser_token_manager.html#a5923cb696d0a55f99661625200327816" target="_top" xlink:title="parser.LogoParserTokenManager.\lReInitRounds">
<polygon fill="white" stroke="black" points="439,-68 439,-98 613,-98 613,-68 439,-68"/>
<text text-anchor="start" x="447" y="-86" font-family="Helvetica,sans-Serif" font-size="10.00">parser.LogoParserTokenManager.</text>
<text text-anchor="middle" x="526" y="-75" font-family="Helvetica,sans-Serif" font-size="10.00">ReInitRounds</text>
</a>
</g>
</g>
<!-- Node2&#45;&gt;Node12 -->
<g id="edge13" class="edge"><title>Node2&#45;&gt;Node12</title>
<path fill="none" stroke="midnightblue" d="M373.889,-116.965C397.43,-111.674 424.067,-105.687 448.349,-100.229"/>
<polygon fill="midnightblue" stroke="midnightblue" points="449.249,-103.614 458.238,-98.0062 447.714,-96.7845 449.249,-103.614"/>
</g>
<!-- Node5&#45;&gt;Node4 -->
<g id="edge5" class="edge"><title>Node5&#45;&gt;Node4</title>
<path fill="none" stroke="midnightblue" d="M615.669,-181C625.748,-181 636.067,-181 646.265,-181"/>
<polygon fill="midnightblue" stroke="midnightblue" points="646.41,-184.5 656.41,-181 646.41,-177.5 646.41,-184.5"/>
</g>
<!-- Node6&#45;&gt;Node4 -->
<g id="edge7" class="edge"><title>Node6&#45;&gt;Node4</title>
<path fill="none" stroke="midnightblue" d="M593.889,-147.035C617.43,-152.326 644.067,-158.313 668.349,-163.771"/>
<polygon fill="midnightblue" stroke="midnightblue" points="667.714,-167.216 678.238,-165.994 669.249,-160.386 667.714,-167.216"/>
</g>
<!-- Node8 -->
<g id="node8" class="node"><title>Node8</title>
<g id="a_node8"><a xlink:href="../../d4/dad/classparser_1_1_simple_char_stream.html#aac1dcd2a238adbc951d3af740cc2aa13" target="_top" xlink:title="parser.SimpleCharStream.\lFillBuff">
<polygon fill="white" stroke="black" points="674,-49 674,-79 818,-79 818,-49 674,-49"/>
<text text-anchor="start" x="682" y="-67" font-family="Helvetica,sans-Serif" font-size="10.00">parser.SimpleCharStream.</text>
<text text-anchor="middle" x="746" y="-56" font-family="Helvetica,sans-Serif" font-size="10.00">FillBuff</text>
</a>
</g>
</g>
<!-- Node7&#45;&gt;Node8 -->
<g id="edge9" class="edge"><title>Node7&#45;&gt;Node8</title>
<path fill="none" stroke="midnightblue" d="M610.038,-48.5227C627.641,-50.5414 646.202,-52.67 663.737,-54.6809"/>
<polygon fill="midnightblue" stroke="midnightblue" points="663.595,-58.1874 673.929,-55.8496 664.392,-51.233 663.595,-58.1874"/>
</g>
<!-- Node11 -->
<g id="node11" class="node"><title>Node11</title>
<g id="a_node11"><a xlink:href="../../d4/dad/classparser_1_1_simple_char_stream.html#ad8ca3472934b9d38c005c8885d859403" target="_top" xlink:title="parser.SimpleCharStream.\lUpdateLineColumn">
<polygon fill="white" stroke="black" points="674,-0 674,-30 818,-30 818,-0 674,-0"/>
<text text-anchor="start" x="682" y="-18" font-family="Helvetica,sans-Serif" font-size="10.00">parser.SimpleCharStream.</text>
<text text-anchor="middle" x="746" y="-7" font-family="Helvetica,sans-Serif" font-size="10.00">UpdateLineColumn</text>
</a>
</g>
</g>
<!-- Node7&#45;&gt;Node11 -->
<g id="edge12" class="edge"><title>Node7&#45;&gt;Node11</title>
<path fill="none" stroke="midnightblue" d="M613.472,-29.4801C630.011,-27.6593 647.273,-25.7589 663.644,-23.9566"/>
<polygon fill="midnightblue" stroke="midnightblue" points="664.151,-27.422 673.708,-22.8486 663.385,-20.464 664.151,-27.422"/>
</g>
<!-- Node9 -->
<g id="node9" class="node"><title>Node9</title>
<g id="a_node9"><a xlink:href="../../d4/dad/classparser_1_1_simple_char_stream.html#a5328cda7180ed2a180eac8af133517cf" target="_top" xlink:title="parser.SimpleCharStream.\lExpandBuff">
<polygon fill="white" stroke="black" points="890,-71 890,-101 1034,-101 1034,-71 890,-71"/>
<text text-anchor="start" x="898" y="-89" font-family="Helvetica,sans-Serif" font-size="10.00">parser.SimpleCharStream.</text>
<text text-anchor="middle" x="962" y="-78" font-family="Helvetica,sans-Serif" font-size="10.00">ExpandBuff</text>
</a>
</g>
</g>
<!-- Node8&#45;&gt;Node9 -->
<g id="edge10" class="edge"><title>Node8&#45;&gt;Node9</title>
<path fill="none" stroke="midnightblue" d="M818.259,-71.3257C837.918,-73.3467 859.395,-75.5546 879.582,-77.6299"/>
<polygon fill="midnightblue" stroke="midnightblue" points="879.382,-81.1277 889.688,-78.6688 880.098,-74.1644 879.382,-81.1277"/>
</g>
<!-- Node10 -->
<g id="node10" class="node"><title>Node10</title>
<g id="a_node10"><a xlink:href="../../d4/dad/classparser_1_1_simple_char_stream.html#a4eacb833520fdfdb1b18be45bc3bd4ba" target="_top" xlink:title="parser.SimpleCharStream.backup">
<polygon fill="white" stroke="black" points="872.5,-32.5 872.5,-51.5 1051.5,-51.5 1051.5,-32.5 872.5,-32.5"/>
<text text-anchor="middle" x="962" y="-39.5" font-family="Helvetica,sans-Serif" font-size="10.00">parser.SimpleCharStream.backup</text>
</a>
</g>
</g>
<!-- Node8&#45;&gt;Node10 -->
<g id="edge11" class="edge"><title>Node8&#45;&gt;Node10</title>
<path fill="none" stroke="midnightblue" d="M818.259,-56.6743C832.287,-55.2322 847.241,-53.6948 861.992,-52.1784"/>
<polygon fill="midnightblue" stroke="midnightblue" points="862.567,-55.6378 872.157,-51.1334 861.852,-48.6745 862.567,-55.6378"/>
</g>
</g>
</svg>
