<?xml version="1.0" encoding="UTF-8" standalone="no"?>
<!DOCTYPE svg PUBLIC "-//W3C//DTD SVG 1.1//EN"
 "http://www.w3.org/Graphics/SVG/1.1/DTD/svg11.dtd">
<!-- Generated by graphviz version 2.36.0 (20140111.2315)
 -->
<!-- Title: parser.LogoParserTokenManager.jjCheckNAdd Pages: 1 -->
<!--zoomable 452 -->
<svg id="main" version="1.1" xmlns="http://www.w3.org/2000/svg" xmlns:xlink="http://www.w3.org/1999/xlink" xml:space="preserve" onload="init(evt)">
<style type="text/css"><![CDATA[
.edge:hover path { stroke: red; }
.edge:hover polygon { stroke: red; fill: red; }
]]></style>
<script type="text/javascript"><![CDATA[
var edges = document.getElementsByTagName('g');
if (edges && edges.length) {
  for (var i=0;i<edges.length;i++) {
    if (edges[i].id.substr(0,4)=='edge') {
      edges[i].setAttribute('class','edge');
    }
  }
}
]]></script>
        <defs>
                <circle id="rim" cx="0" cy="0" r="7"/>
                <circle id="rim2" cx="0" cy="0" r="3.5"/>
                <g id="zoomPlus">
                        <use xlink:href="#rim" fill="#404040">
                                <set attributeName="fill" to="#808080" begin="zoomplus.mouseover" end="zoomplus.mouseout"/>
                        </use>
                        <path d="M-4,0h8M0,-4v8" fill="none" stroke="white" stroke-width="1.5" pointer-events="none"/>
                </g>
                <g id="zoomMin">
                        <use xlink:href="#rim" fill="#404040">
                                <set attributeName="fill" to="#808080" begin="zoomminus.mouseover" end="zoomminus.mouseout"/>
                        </use>
                        <path d="M-4,0h8" fill="none" stroke="white" stroke-width="1.5" pointer-events="none"/>
                </g>
                <g id="dirArrow">
                        <path fill="none" stroke="white" stroke-width="1.5" d="M0,-3.0v7 M-2.5,-0.5L0,-3.0L2.5,-0.5"/>
                </g>
               <g id="resetDef">
                       <use xlink:href="#rim2" fill="#404040">
                               <set attributeName="fill" to="#808080" begin="reset.mouseover" end="reset.mouseout"/>
                       </use>
               </g>
        </defs>

<script type="text/javascript">
var viewWidth = 4966;
var viewHeight = 452;
var sectionId = 'dynsection-6';
</script>
<script xlink:href="../../svgpan.js"/>
<svg id="graph" class="graph">
<g id="viewport">
<title>parser.LogoParserTokenManager.jjCheckNAdd</title>
<polygon fill="white" stroke="none" points="-4,4 -4,-448 4962,-448 4962,4 -4,4"/>
<!-- Node1 -->
<g id="node1" class="node"><title>Node1</title>
<polygon fill="#bfbfbf" stroke="black" points="0.5,-282 0.5,-312 179.5,-312 179.5,-282 0.5,-282"/>
<text text-anchor="start" x="8.5" y="-300" font-family="Helvetica,sans-Serif" font-size="10.00">parser.LogoParserTokenManager.jj</text>
<text text-anchor="middle" x="90" y="-289" font-family="Helvetica,sans-Serif" font-size="10.00">CheckNAdd</text>
</g>
<!-- Node2 -->
<g id="node2" class="node"><title>Node2</title>
<g id="a_node2"><a xlink:href="../../d0/d8c/classparser_1_1_logo_parser_token_manager.html#ac4047538420e7ceceec16698b354cd62" target="_top" xlink:title="parser.LogoParserTokenManager.jj\lCheckNAddStates">
<polygon fill="white" stroke="black" points="216.5,-282 216.5,-312 395.5,-312 395.5,-282 216.5,-282"/>
<text text-anchor="start" x="224.5" y="-300" font-family="Helvetica,sans-Serif" font-size="10.00">parser.LogoParserTokenManager.jj</text>
<text text-anchor="middle" x="306" y="-289" font-family="Helvetica,sans-Serif" font-size="10.00">CheckNAddStates</text>
</a>
</g>
</g>
<!-- Node1&#45;&gt;Node2 -->
<g id="edge1" class="edge"><title>Node1&#45;&gt;Node2</title>
<path fill="none" stroke="midnightblue" d="M189.645,-297C198.596,-297 207.625,-297 216.48,-297"/>
<polygon fill="midnightblue" stroke="midnightblue" points="189.587,-293.5 179.587,-297 189.587,-300.5 189.587,-293.5"/>
</g>
<!-- Node3 -->
<g id="node3" class="node"><title>Node3</title>
<g id="a_node3"><a xlink:href="../../d0/d8c/classparser_1_1_logo_parser_token_manager.html#a0071f141b41b403c8ab151c8c014a709" target="_top" xlink:title="parser.LogoParserTokenManager.jj\lMoveNfa_0">
<polygon fill="white" stroke="black" points="432.5,-282 432.5,-312 611.5,-312 611.5,-282 432.5,-282"/>
<text text-anchor="start" x="440.5" y="-300" font-family="Helvetica,sans-Serif" font-size="10.00">parser.LogoParserTokenManager.jj</text>
<text text-anchor="middle" x="522" y="-289" font-family="Helvetica,sans-Serif" font-size="10.00">MoveNfa_0</text>
</a>
</g>
</g>
<!-- Node1&#45;&gt;Node3 -->
<g id="edge61" class="edge"><title>Node1&#45;&gt;Node3</title>
<path fill="none" stroke="midnightblue" d="M166.769,-313.932C182.935,-316.873 199.969,-319.475 216,-321 295.64,-328.576 316.36,-328.576 396,-321 415.359,-319.158 436.179,-315.747 455.168,-312.063"/>
<polygon fill="midnightblue" stroke="midnightblue" points="167.307,-310.471 156.832,-312.063 166.013,-317.351 167.307,-310.471"/>
</g>
<!-- Node34 -->
<g id="node34" class="node"><title>Node34</title>
<g id="a_node34"><a xlink:href="../../d0/d8c/classparser_1_1_logo_parser_token_manager.html#a8f9adc17a4a9b201128786ca145783e8" target="_top" xlink:title="parser.LogoParserTokenManager.jj\lCheckNAddTwoStates">
<polygon fill="white" stroke="black" points="216.5,-233 216.5,-263 395.5,-263 395.5,-233 216.5,-233"/>
<text text-anchor="start" x="224.5" y="-251" font-family="Helvetica,sans-Serif" font-size="10.00">parser.LogoParserTokenManager.jj</text>
<text text-anchor="middle" x="306" y="-240" font-family="Helvetica,sans-Serif" font-size="10.00">CheckNAddTwoStates</text>
</a>
</g>
</g>
<!-- Node1&#45;&gt;Node34 -->
<g id="edge59" class="edge"><title>Node1&#45;&gt;Node34</title>
<path fill="none" stroke="midnightblue" d="M166.69,-279.669C190.45,-274.229 216.467,-268.271 239.463,-263.006"/>
<polygon fill="midnightblue" stroke="midnightblue" points="165.628,-276.322 156.661,-281.965 167.19,-283.145 165.628,-276.322"/>
</g>
<!-- Node2&#45;&gt;Node3 -->
<g id="edge2" class="edge"><title>Node2&#45;&gt;Node3</title>
<path fill="none" stroke="midnightblue" d="M405.645,-297C414.596,-297 423.625,-297 432.48,-297"/>
<polygon fill="midnightblue" stroke="midnightblue" points="405.587,-293.5 395.587,-297 405.587,-300.5 405.587,-293.5"/>
</g>
<!-- Node4 -->
<g id="node4" class="node"><title>Node4</title>
<g id="a_node4"><a xlink:href="../../d0/d8c/classparser_1_1_logo_parser_token_manager.html#aa065c8b0c977d3c1c9d9058f96664080" target="_top" xlink:title="parser.LogoParserTokenManager.jj\lStartNfa_0">
<polygon fill="white" stroke="black" points="648.5,-282 648.5,-312 827.5,-312 827.5,-282 648.5,-282"/>
<text text-anchor="start" x="656.5" y="-300" font-family="Helvetica,sans-Serif" font-size="10.00">parser.LogoParserTokenManager.jj</text>
<text text-anchor="middle" x="738" y="-289" font-family="Helvetica,sans-Serif" font-size="10.00">StartNfa_0</text>
</a>
</g>
</g>
<!-- Node3&#45;&gt;Node4 -->
<g id="edge3" class="edge"><title>Node3&#45;&gt;Node4</title>
<path fill="none" stroke="midnightblue" d="M621.645,-297C630.596,-297 639.625,-297 648.48,-297"/>
<polygon fill="midnightblue" stroke="midnightblue" points="621.587,-293.5 611.587,-297 621.587,-300.5 621.587,-293.5"/>
</g>
<!-- Node6 -->
<g id="node6" class="node"><title>Node6</title>
<g id="a_node6"><a xlink:href="../../d0/d8c/classparser_1_1_logo_parser_token_manager.html#a2b55f093fc0200c57a099eba2d9b37e2" target="_top" xlink:title="parser.LogoParserTokenManager.jj\lMoveStringLiteralDfa0_0">
<polygon fill="white" stroke="black" points="2160.5,-334 2160.5,-364 2339.5,-364 2339.5,-334 2160.5,-334"/>
<text text-anchor="start" x="2168.5" y="-352" font-family="Helvetica,sans-Serif" font-size="10.00">parser.LogoParserTokenManager.jj</text>
<text text-anchor="middle" x="2250" y="-341" font-family="Helvetica,sans-Serif" font-size="10.00">MoveStringLiteralDfa0_0</text>
</a>
</g>
</g>
<!-- Node3&#45;&gt;Node6 -->
<g id="edge51" class="edge"><title>Node3&#45;&gt;Node6</title>
<path fill="none" stroke="midnightblue" d="M560.542,-317.015C633.813,-354.155 801.935,-430 953,-430 953,-430 953,-430 1819,-430 1959.92,-430 2122.39,-387.47 2201.19,-364.046"/>
<polygon fill="midnightblue" stroke="midnightblue" points="561.752,-313.702 551.256,-312.257 558.56,-319.932 561.752,-313.702"/>
</g>
<!-- Node33 -->
<g id="node33" class="node"><title>Node33</title>
<g id="a_node33"><a xlink:href="../../d0/d8c/classparser_1_1_logo_parser_token_manager.html#a94b20a17d94554012918e876be221c46" target="_top" xlink:title="parser.LogoParserTokenManager.jj\lStartNfaWithStates_0">
<polygon fill="white" stroke="black" points="648.5,-99 648.5,-129 827.5,-129 827.5,-99 648.5,-99"/>
<text text-anchor="start" x="656.5" y="-117" font-family="Helvetica,sans-Serif" font-size="10.00">parser.LogoParserTokenManager.jj</text>
<text text-anchor="middle" x="738" y="-106" font-family="Helvetica,sans-Serif" font-size="10.00">StartNfaWithStates_0</text>
</a>
</g>
</g>
<!-- Node3&#45;&gt;Node33 -->
<g id="edge52" class="edge"><title>Node3&#45;&gt;Node33</title>
<path fill="none" stroke="midnightblue" d="M548.545,-275.156C592.532,-237.541 681.488,-161.47 719.324,-129.116"/>
<polygon fill="midnightblue" stroke="midnightblue" points="546.203,-272.553 540.877,-281.712 550.752,-277.873 546.203,-272.553"/>
</g>
<!-- Node5 -->
<g id="node5" class="node"><title>Node5</title>
<g id="a_node5"><a xlink:href="../../d0/d8c/classparser_1_1_logo_parser_token_manager.html#a99a01f0b68908e628349e9f09a2cbccd" target="_top" xlink:title="parser.LogoParserTokenManager.jj\lMoveStringLiteralDfa1_0">
<polygon fill="white" stroke="black" points="1944.5,-334 1944.5,-364 2123.5,-364 2123.5,-334 1944.5,-334"/>
<text text-anchor="start" x="1952.5" y="-352" font-family="Helvetica,sans-Serif" font-size="10.00">parser.LogoParserTokenManager.jj</text>
<text text-anchor="middle" x="2034" y="-341" font-family="Helvetica,sans-Serif" font-size="10.00">MoveStringLiteralDfa1_0</text>
</a>
</g>
</g>
<!-- Node4&#45;&gt;Node5 -->
<g id="edge4" class="edge"><title>Node4&#45;&gt;Node5</title>
<path fill="none" stroke="midnightblue" d="M777.713,-316.559C801.933,-327.997 834.109,-341.762 864,-350 995.916,-386.358 1032.17,-392 1169,-392 1169,-392 1169,-392 1603,-392 1721.54,-392 1857.55,-375.62 1944.32,-363.08"/>
<polygon fill="midnightblue" stroke="midnightblue" points="779.042,-313.315 768.512,-312.146 776.015,-319.627 779.042,-313.315"/>
</g>
<!-- Node28 -->
<g id="node28" class="node"><title>Node28</title>
<g id="a_node28"><a xlink:href="../../d0/d8c/classparser_1_1_logo_parser_token_manager.html#a26eaeb3ef169f93c03edbb3e26128b7a" target="_top" xlink:title="parser.LogoParserTokenManager.jj\lMoveStringLiteralDfa2_0">
<polygon fill="white" stroke="black" points="1728.5,-297 1728.5,-327 1907.5,-327 1907.5,-297 1728.5,-297"/>
<text text-anchor="start" x="1736.5" y="-315" font-family="Helvetica,sans-Serif" font-size="10.00">parser.LogoParserTokenManager.jj</text>
<text text-anchor="middle" x="1818" y="-304" font-family="Helvetica,sans-Serif" font-size="10.00">MoveStringLiteralDfa2_0</text>
</a>
</g>
</g>
<!-- Node4&#45;&gt;Node28 -->
<g id="edge41" class="edge"><title>Node4&#45;&gt;Node28</title>
<path fill="none" stroke="midnightblue" d="M818.965,-314.014C904.997,-330.811 1046.04,-354 1169,-354 1169,-354 1169,-354 1387,-354 1505.51,-354 1641.53,-338.001 1728.3,-325.752"/>
<polygon fill="midnightblue" stroke="midnightblue" points="819.497,-310.552 809.009,-312.051 818.143,-317.419 819.497,-310.552"/>
</g>
<!-- Node29 -->
<g id="node29" class="node"><title>Node29</title>
<g id="a_node29"><a xlink:href="../../d0/d8c/classparser_1_1_logo_parser_token_manager.html#a12bfedaecfaf646642cb1aba5b1bd6fb" target="_top" xlink:title="parser.LogoParserTokenManager.jj\lMoveStringLiteralDfa3_0">
<polygon fill="white" stroke="black" points="1512.5,-261 1512.5,-291 1691.5,-291 1691.5,-261 1512.5,-261"/>
<text text-anchor="start" x="1520.5" y="-279" font-family="Helvetica,sans-Serif" font-size="10.00">parser.LogoParserTokenManager.jj</text>
<text text-anchor="middle" x="1602" y="-268" font-family="Helvetica,sans-Serif" font-size="10.00">MoveStringLiteralDfa3_0</text>
</a>
</g>
</g>
<!-- Node4&#45;&gt;Node29 -->
<g id="edge43" class="edge"><title>Node4&#45;&gt;Node29</title>
<path fill="none" stroke="midnightblue" d="M837.935,-296.589C897.622,-296.201 975.185,-295.45 1044,-294 1209.41,-290.514 1402.37,-283.654 1512.27,-279.483"/>
<polygon fill="midnightblue" stroke="midnightblue" points="837.738,-293.09 827.76,-296.653 837.782,-300.09 837.738,-293.09"/>
</g>
<!-- Node30 -->
<g id="node30" class="node"><title>Node30</title>
<g id="a_node30"><a xlink:href="../../d0/d8c/classparser_1_1_logo_parser_token_manager.html#aa9aaf3af52d382735345487d2b89e0cf" target="_top" xlink:title="parser.LogoParserTokenManager.jj\lMoveStringLiteralDfa4_0">
<polygon fill="white" stroke="black" points="1296.5,-228 1296.5,-258 1475.5,-258 1475.5,-228 1296.5,-228"/>
<text text-anchor="start" x="1304.5" y="-246" font-family="Helvetica,sans-Serif" font-size="10.00">parser.LogoParserTokenManager.jj</text>
<text text-anchor="middle" x="1386" y="-235" font-family="Helvetica,sans-Serif" font-size="10.00">MoveStringLiteralDfa4_0</text>
</a>
</g>
</g>
<!-- Node4&#45;&gt;Node30 -->
<g id="edge45" class="edge"><title>Node4&#45;&gt;Node30</title>
<path fill="none" stroke="midnightblue" d="M838.145,-288.712C963.25,-278.255 1176.52,-260.427 1296.41,-250.405"/>
<polygon fill="midnightblue" stroke="midnightblue" points="837.481,-285.256 827.807,-289.577 838.064,-292.231 837.481,-285.256"/>
</g>
<!-- Node31 -->
<g id="node31" class="node"><title>Node31</title>
<g id="a_node31"><a xlink:href="../../d0/d8c/classparser_1_1_logo_parser_token_manager.html#a4553920ced069b9d4852f1c1020bea38" target="_top" xlink:title="parser.LogoParserTokenManager.jj\lMoveStringLiteralDfa5_0">
<polygon fill="white" stroke="black" points="1080.5,-200 1080.5,-230 1259.5,-230 1259.5,-200 1080.5,-200"/>
<text text-anchor="start" x="1088.5" y="-218" font-family="Helvetica,sans-Serif" font-size="10.00">parser.LogoParserTokenManager.jj</text>
<text text-anchor="middle" x="1170" y="-207" font-family="Helvetica,sans-Serif" font-size="10.00">MoveStringLiteralDfa5_0</text>
</a>
</g>
</g>
<!-- Node4&#45;&gt;Node31 -->
<g id="edge47" class="edge"><title>Node4&#45;&gt;Node31</title>
<path fill="none" stroke="midnightblue" d="M801.229,-279.276C821.179,-273.943 843.431,-268.356 864,-264 936.404,-248.666 1019.38,-235.625 1080.48,-226.861"/>
<polygon fill="midnightblue" stroke="midnightblue" points="800.074,-275.963 791.333,-281.951 801.9,-282.72 800.074,-275.963"/>
</g>
<!-- Node32 -->
<g id="node32" class="node"><title>Node32</title>
<g id="a_node32"><a xlink:href="../../d0/d8c/classparser_1_1_logo_parser_token_manager.html#a1bad232a9ce95d19e7133cbee0b538b5" target="_top" xlink:title="parser.LogoParserTokenManager.jj\lMoveStringLiteralDfa6_0">
<polygon fill="white" stroke="black" points="864.5,-181 864.5,-211 1043.5,-211 1043.5,-181 864.5,-181"/>
<text text-anchor="start" x="872.5" y="-199" font-family="Helvetica,sans-Serif" font-size="10.00">parser.LogoParserTokenManager.jj</text>
<text text-anchor="middle" x="954" y="-188" font-family="Helvetica,sans-Serif" font-size="10.00">MoveStringLiteralDfa6_0</text>
</a>
</g>
</g>
<!-- Node4&#45;&gt;Node32 -->
<g id="edge49" class="edge"><title>Node4&#45;&gt;Node32</title>
<path fill="none" stroke="midnightblue" d="M770.861,-276.642C795.608,-261.392 831.133,-240.711 864,-226 876.353,-220.471 890.051,-215.374 902.924,-211.01"/>
<polygon fill="midnightblue" stroke="midnightblue" points="768.9,-273.74 762.256,-281.993 772.597,-279.684 768.9,-273.74"/>
</g>
<!-- Node5&#45;&gt;Node6 -->
<g id="edge5" class="edge"><title>Node5&#45;&gt;Node6</title>
<path fill="none" stroke="midnightblue" d="M2133.65,-349C2142.6,-349 2151.62,-349 2160.48,-349"/>
<polygon fill="midnightblue" stroke="midnightblue" points="2133.59,-345.5 2123.59,-349 2133.59,-352.5 2133.59,-345.5"/>
</g>
<!-- Node7 -->
<g id="node7" class="node"><title>Node7</title>
<g id="a_node7"><a xlink:href="../../d0/d8c/classparser_1_1_logo_parser_token_manager.html#a3dee50e2286b70ba662519a865e63b77" target="_top" xlink:title="parser.LogoParserTokenManager.get\lNextToken">
<polygon fill="white" stroke="black" points="2376,-334 2376,-364 2566,-364 2566,-334 2376,-334"/>
<text text-anchor="start" x="2384" y="-352" font-family="Helvetica,sans-Serif" font-size="10.00">parser.LogoParserTokenManager.get</text>
<text text-anchor="middle" x="2471" y="-341" font-family="Helvetica,sans-Serif" font-size="10.00">NextToken</text>
</a>
</g>
</g>
<!-- Node6&#45;&gt;Node7 -->
<g id="edge6" class="edge"><title>Node6&#45;&gt;Node7</title>
<path fill="none" stroke="midnightblue" d="M2349.83,-349C2358.46,-349 2367.17,-349 2375.76,-349"/>
<polygon fill="midnightblue" stroke="midnightblue" points="2349.76,-345.5 2339.76,-349 2349.76,-352.5 2349.76,-345.5"/>
</g>
<!-- Node8 -->
<g id="node8" class="node"><title>Node8</title>
<g id="a_node8"><a xlink:href="../../d5/d0e/classparser_1_1_logo_parser.html#a7477b52c4469ea43d75f88fb805e37a1" target="_top" xlink:title="parser.LogoParser.getNext\lToken">
<polygon fill="white" stroke="black" points="2604.5,-397 2604.5,-427 2747.5,-427 2747.5,-397 2604.5,-397"/>
<text text-anchor="start" x="2612.5" y="-415" font-family="Helvetica,sans-Serif" font-size="10.00">parser.LogoParser.getNext</text>
<text text-anchor="middle" x="2676" y="-404" font-family="Helvetica,sans-Serif" font-size="10.00">Token</text>
</a>
</g>
</g>
<!-- Node7&#45;&gt;Node8 -->
<g id="edge7" class="edge"><title>Node7&#45;&gt;Node8</title>
<path fill="none" stroke="midnightblue" d="M2530.04,-367.014C2560.61,-376.5 2597.66,-387.999 2626.65,-396.996"/>
<polygon fill="midnightblue" stroke="midnightblue" points="2530.95,-363.631 2520.37,-364.01 2528.88,-370.317 2530.95,-363.631"/>
</g>
<!-- Node9 -->
<g id="node9" class="node"><title>Node9</title>
<g id="a_node9"><a xlink:href="../../d5/d0e/classparser_1_1_logo_parser.html#a63b7890a7d6323bcf938132f968e8157" target="_top" xlink:title="parser.LogoParser.getToken">
<polygon fill="white" stroke="black" points="2602,-358.5 2602,-377.5 2750,-377.5 2750,-358.5 2602,-358.5"/>
<text text-anchor="middle" x="2676" y="-365.5" font-family="Helvetica,sans-Serif" font-size="10.00">parser.LogoParser.getToken</text>
</a>
</g>
</g>
<!-- Node7&#45;&gt;Node9 -->
<g id="edge8" class="edge"><title>Node7&#45;&gt;Node9</title>
<path fill="none" stroke="midnightblue" d="M2576.24,-358.757C2584.91,-359.568 2593.54,-360.376 2601.9,-361.158"/>
<polygon fill="midnightblue" stroke="midnightblue" points="2576.35,-355.252 2566.07,-357.805 2575.7,-362.221 2576.35,-355.252"/>
</g>
<!-- Node10 -->
<g id="node10" class="node"><title>Node10</title>
<g id="a_node10"><a xlink:href="../../d5/d0e/classparser_1_1_logo_parser.html#a550039a3180ec86ef01f419aefc02edc" target="_top" xlink:title="parser.LogoParser.jj\l_consume_token">
<polygon fill="white" stroke="black" points="2621,-144 2621,-174 2731,-174 2731,-144 2621,-144"/>
<text text-anchor="start" x="2629" y="-162" font-family="Helvetica,sans-Serif" font-size="10.00">parser.LogoParser.jj</text>
<text text-anchor="middle" x="2676" y="-151" font-family="Helvetica,sans-Serif" font-size="10.00">_consume_token</text>
</a>
</g>
</g>
<!-- Node7&#45;&gt;Node10 -->
<g id="edge9" class="edge"><title>Node7&#45;&gt;Node10</title>
<path fill="none" stroke="midnightblue" d="M2495.79,-326.736C2537.63,-287.575 2623.33,-207.362 2658.94,-174.036"/>
<polygon fill="midnightblue" stroke="midnightblue" points="2493.18,-324.384 2488.27,-333.773 2497.96,-329.495 2493.18,-324.384"/>
</g>
<!-- Node27 -->
<g id="node27" class="node"><title>Node27</title>
<g id="a_node27"><a xlink:href="../../d5/d0e/classparser_1_1_logo_parser.html#a2e48e3ab2c1c075beca7bcc54d891afd" target="_top" xlink:title="parser.LogoParser.jj_ntk">
<polygon fill="white" stroke="black" points="2611,-320.5 2611,-339.5 2741,-339.5 2741,-320.5 2611,-320.5"/>
<text text-anchor="middle" x="2676" y="-327.5" font-family="Helvetica,sans-Serif" font-size="10.00">parser.LogoParser.jj_ntk</text>
</a>
</g>
</g>
<!-- Node7&#45;&gt;Node27 -->
<g id="edge34" class="edge"><title>Node7&#45;&gt;Node27</title>
<path fill="none" stroke="midnightblue" d="M2576.38,-339.23C2588.12,-338.132 2599.8,-337.038 2610.81,-336.008"/>
<polygon fill="midnightblue" stroke="midnightblue" points="2575.7,-335.779 2566.07,-340.195 2576.35,-342.748 2575.7,-335.779"/>
</g>
<!-- Node11 -->
<g id="node11" class="node"><title>Node11</title>
<g id="a_node11"><a xlink:href="../../d5/d0e/classparser_1_1_logo_parser.html#a82acce8328e52f3b2bcb90542cc800b7" target="_top" xlink:title="parser.LogoParser.arithm">
<polygon fill="white" stroke="black" points="3110.5,-202.5 3110.5,-221.5 3247.5,-221.5 3247.5,-202.5 3110.5,-202.5"/>
<text text-anchor="middle" x="3179" y="-209.5" font-family="Helvetica,sans-Serif" font-size="10.00">parser.LogoParser.arithm</text>
</a>
</g>
</g>
<!-- Node10&#45;&gt;Node11 -->
<g id="edge10" class="edge"><title>Node10&#45;&gt;Node11</title>
<path fill="none" stroke="midnightblue" d="M2741.14,-165.785C2836.08,-175.829 3013.24,-194.57 3110.23,-204.831"/>
<polygon fill="midnightblue" stroke="midnightblue" points="2741.4,-162.294 2731.09,-164.722 2740.67,-169.255 2741.4,-162.294"/>
</g>
<!-- Node12 -->
<g id="node12" class="node"><title>Node12</title>
<g id="a_node12"><a xlink:href="../../d5/d0e/classparser_1_1_logo_parser.html#a397c25c39976e5a1fb689e1f0dd40160" target="_top" xlink:title="parser.LogoParser.eval">
<polygon fill="white" stroke="black" points="3284.5,-187.5 3284.5,-206.5 3409.5,-206.5 3409.5,-187.5 3284.5,-187.5"/>
<text text-anchor="middle" x="3347" y="-194.5" font-family="Helvetica,sans-Serif" font-size="10.00">parser.LogoParser.eval</text>
</a>
</g>
</g>
<!-- Node10&#45;&gt;Node12 -->
<g id="edge26" class="edge"><title>Node10&#45;&gt;Node12</title>
<path fill="none" stroke="midnightblue" d="M2741.16,-160.998C2787.97,-162.573 2852.94,-165.001 2910,-168 3043.52,-175.018 3199.85,-186.118 3284.3,-192.354"/>
<polygon fill="midnightblue" stroke="midnightblue" points="2741.27,-157.5 2731.16,-160.666 2741.04,-164.496 2741.27,-157.5"/>
</g>
<!-- Node13 -->
<g id="node13" class="node"><title>Node13</title>
<g id="a_node13"><a xlink:href="../../d5/d0e/classparser_1_1_logo_parser.html#a6b0ba0c2b5b0bc8c2ef76863fffdb6a3" target="_top" xlink:title="parser.LogoParser.list">
<polygon fill="white" stroke="black" points="3638.5,-149.5 3638.5,-168.5 3757.5,-168.5 3757.5,-149.5 3638.5,-149.5"/>
<text text-anchor="middle" x="3698" y="-156.5" font-family="Helvetica,sans-Serif" font-size="10.00">parser.LogoParser.list</text>
</a>
</g>
</g>
<!-- Node10&#45;&gt;Node13 -->
<g id="edge28" class="edge"><title>Node10&#45;&gt;Node13</title>
<path fill="none" stroke="midnightblue" d="M2711.87,-139.083C2732.79,-127.897 2760.24,-114.517 2786,-106 2881.75,-74.3352 2908.15,-64 3009,-64 3009,-64 3009,-64 3348,-64 3477.04,-64 3623.8,-125.216 3676.68,-149.368"/>
<polygon fill="midnightblue" stroke="midnightblue" points="2710.16,-136.03 2703.04,-143.881 2713.5,-142.18 2710.16,-136.03"/>
</g>
<!-- Node14 -->
<g id="node14" class="node"><title>Node14</title>
<g id="a_node14"><a xlink:href="../../d5/d0e/classparser_1_1_logo_parser.html#a4a8825534e0488215d22bcd947bc4d41" target="_top" xlink:title="parser.LogoParser.expression">
<polygon fill="white" stroke="black" points="3794.5,-64.5 3794.5,-83.5 3951.5,-83.5 3951.5,-64.5 3794.5,-64.5"/>
<text text-anchor="middle" x="3873" y="-71.5" font-family="Helvetica,sans-Serif" font-size="10.00">parser.LogoParser.expression</text>
</a>
</g>
</g>
<!-- Node10&#45;&gt;Node14 -->
<g id="edge27" class="edge"><title>Node10&#45;&gt;Node14</title>
<path fill="none" stroke="midnightblue" d="M2696.93,-136.44C2717.17,-115.052 2750.51,-83.7718 2786,-67 2877.11,-23.9473 2908.23,-26 3009,-26 3009,-26 3009,-26 3525,-26 3636.14,-26 3765.44,-50.4611 3830.33,-64.4594"/>
<polygon fill="midnightblue" stroke="midnightblue" points="2694.32,-134.112 2690.09,-143.827 2699.45,-138.869 2694.32,-134.112"/>
</g>
<!-- Node24 -->
<g id="node24" class="node"><title>Node24</title>
<g id="a_node24"><a xlink:href="../../d5/d0e/classparser_1_1_logo_parser.html#ad6ed8e51959a6e19a2323444aa8331c8" target="_top" xlink:title="parser.LogoParser.statement">
<polygon fill="white" stroke="black" points="3446.5,-187.5 3446.5,-206.5 3601.5,-206.5 3601.5,-187.5 3446.5,-187.5"/>
<text text-anchor="middle" x="3524" y="-194.5" font-family="Helvetica,sans-Serif" font-size="10.00">parser.LogoParser.statement</text>
</a>
</g>
</g>
<!-- Node10&#45;&gt;Node24 -->
<g id="edge32" class="edge"><title>Node10&#45;&gt;Node24</title>
<path fill="none" stroke="midnightblue" d="M2740.76,-141.421C2807.19,-124.674 2914.57,-102 3009,-102 3009,-102 3009,-102 3180,-102 3306.98,-102 3451.12,-163.216 3503.05,-187.368"/>
<polygon fill="midnightblue" stroke="midnightblue" points="2739.68,-138.084 2730.86,-143.949 2741.41,-144.866 2739.68,-138.084"/>
</g>
<!-- Node25 -->
<g id="node25" class="node"><title>Node25</title>
<g id="a_node25"><a xlink:href="../../d5/d0e/classparser_1_1_logo_parser.html#a4bdaeff6df067fde6743ff07370c3b0b" target="_top" xlink:title="parser.LogoParser.pow">
<polygon fill="white" stroke="black" points="2786,-244.5 2786,-263.5 2910,-263.5 2910,-244.5 2786,-244.5"/>
<text text-anchor="middle" x="2848" y="-251.5" font-family="Helvetica,sans-Serif" font-size="10.00">parser.LogoParser.pow</text>
</a>
</g>
</g>
<!-- Node10&#45;&gt;Node25 -->
<g id="edge29" class="edge"><title>Node10&#45;&gt;Node25</title>
<path fill="none" stroke="midnightblue" d="M2705.86,-180.114C2727.29,-195.206 2757.6,-215.354 2786,-230 2796.52,-235.424 2808.56,-240.402 2819.15,-244.401"/>
<polygon fill="midnightblue" stroke="midnightblue" points="2707.72,-177.137 2697.54,-174.191 2703.66,-182.841 2707.72,-177.137"/>
</g>
<!-- Node26 -->
<g id="node26" class="node"><title>Node26</title>
<g id="a_node26"><a xlink:href="../../d5/d0e/classparser_1_1_logo_parser.html#a34f4226672a2711ce2691162fdb2124d" target="_top" xlink:title="parser.LogoParser.term">
<polygon fill="white" stroke="black" points="2946,-230.5 2946,-249.5 3074,-249.5 3074,-230.5 2946,-230.5"/>
<text text-anchor="middle" x="3010" y="-237.5" font-family="Helvetica,sans-Serif" font-size="10.00">parser.LogoParser.term</text>
</a>
</g>
</g>
<!-- Node10&#45;&gt;Node26 -->
<g id="edge33" class="edge"><title>Node10&#45;&gt;Node26</title>
<path fill="none" stroke="midnightblue" d="M2733.4,-177.037C2750.24,-182.161 2768.8,-187.553 2786,-192 2845.05,-207.265 2913.75,-221.535 2959.13,-230.482"/>
<polygon fill="midnightblue" stroke="midnightblue" points="2734.29,-173.65 2723.71,-174.059 2732.24,-180.341 2734.29,-173.65"/>
</g>
<!-- Node11&#45;&gt;Node12 -->
<g id="edge11" class="edge"><title>Node11&#45;&gt;Node12</title>
<path fill="none" stroke="midnightblue" d="M3257.61,-204.987C3266.61,-204.174 3275.69,-203.354 3284.42,-202.564"/>
<polygon fill="midnightblue" stroke="midnightblue" points="3257.16,-201.513 3247.52,-205.899 3257.79,-208.485 3257.16,-201.513"/>
</g>
<!-- Node12&#45;&gt;Node13 -->
<g id="edge12" class="edge"><title>Node12&#45;&gt;Node13</title>
<path fill="none" stroke="midnightblue" d="M3401.06,-185.549C3415.58,-182.735 3431.35,-179.968 3446,-178 3511.62,-169.186 3587.48,-164.15 3638.47,-161.507"/>
<polygon fill="midnightblue" stroke="midnightblue" points="3400.37,-182.118 3391.24,-187.496 3401.73,-188.984 3400.37,-182.118"/>
</g>
<!-- Node12&#45;&gt;Node24 -->
<g id="edge24" class="edge"><title>Node12&#45;&gt;Node24</title>
<path fill="none" stroke="midnightblue" d="M3419.8,-197C3428.51,-197 3437.44,-197 3446.22,-197"/>
<polygon fill="midnightblue" stroke="midnightblue" points="3419.7,-193.5 3409.7,-197 3419.7,-200.5 3419.7,-193.5"/>
</g>
<!-- Node13&#45;&gt;Node14 -->
<g id="edge13" class="edge"><title>Node13&#45;&gt;Node14</title>
<path fill="none" stroke="midnightblue" d="M3727.81,-144.844C3763.17,-127.473 3822.16,-98.4901 3852.56,-83.5503"/>
<polygon fill="midnightblue" stroke="midnightblue" points="3725.94,-141.864 3718.51,-149.415 3729.03,-148.146 3725.94,-141.864"/>
</g>
<!-- Node15 -->
<g id="node15" class="node"><title>Node15</title>
<g id="a_node15"><a xlink:href="../../d5/d0e/classparser_1_1_logo_parser.html#adefe3b97ad0d2d7fd0dcd13f7ef2c75e" target="_top" xlink:title="parser.LogoParser.parse">
<polygon fill="white" stroke="black" points="3807,-149.5 3807,-168.5 3939,-168.5 3939,-149.5 3807,-149.5"/>
<text text-anchor="middle" x="3873" y="-156.5" font-family="Helvetica,sans-Serif" font-size="10.00">parser.LogoParser.parse</text>
</a>
</g>
</g>
<!-- Node13&#45;&gt;Node15 -->
<g id="edge14" class="edge"><title>Node13&#45;&gt;Node15</title>
<path fill="none" stroke="midnightblue" d="M3767.78,-159C3780.7,-159 3794.16,-159 3806.95,-159"/>
<polygon fill="midnightblue" stroke="midnightblue" points="3767.57,-155.5 3757.57,-159 3767.57,-162.5 3767.57,-155.5"/>
</g>
<!-- Node16 -->
<g id="node16" class="node"><title>Node16</title>
<g id="a_node16"><a xlink:href="../../d6/d95/classparser_1_1_parser.html#af3d0cef45b9f02f1707959c08d8f3797" target="_top" xlink:title="parser.Parser.parse">
<polygon fill="white" stroke="black" points="3988.5,-149.5 3988.5,-168.5 4097.5,-168.5 4097.5,-149.5 3988.5,-149.5"/>
<text text-anchor="middle" x="4043" y="-156.5" font-family="Helvetica,sans-Serif" font-size="10.00">parser.Parser.parse</text>
</a>
</g>
</g>
<!-- Node15&#45;&gt;Node16 -->
<g id="edge15" class="edge"><title>Node15&#45;&gt;Node16</title>
<path fill="none" stroke="midnightblue" d="M3949.8,-159C3962.83,-159 3976.12,-159 3988.41,-159"/>
<polygon fill="midnightblue" stroke="midnightblue" points="3949.43,-155.5 3939.43,-159 3949.43,-162.5 3949.43,-155.5"/>
</g>
<!-- Node17 -->
<g id="node17" class="node"><title>Node17</title>
<g id="a_node17"><a xlink:href="../../d4/d06/classinput_1_1_input_executor.html#a687a9f2cbed5d27a2c7b1336a1cab8aa" target="_top" xlink:title="input.InputExecutor.process\lInput">
<polygon fill="white" stroke="black" points="4134.5,-188 4134.5,-218 4283.5,-218 4283.5,-188 4134.5,-188"/>
<text text-anchor="start" x="4142.5" y="-206" font-family="Helvetica,sans-Serif" font-size="10.00">input.InputExecutor.process</text>
<text text-anchor="middle" x="4209" y="-195" font-family="Helvetica,sans-Serif" font-size="10.00">Input</text>
</a>
</g>
</g>
<!-- Node16&#45;&gt;Node17 -->
<g id="edge16" class="edge"><title>Node16&#45;&gt;Node17</title>
<path fill="none" stroke="midnightblue" d="M4089.36,-171.169C4108.7,-176.357 4131.46,-182.465 4151.85,-187.935"/>
<polygon fill="midnightblue" stroke="midnightblue" points="4090.15,-167.758 4079.59,-168.547 4088.34,-174.519 4090.15,-167.758"/>
</g>
<!-- Node18 -->
<g id="node18" class="node"><title>Node18</title>
<g id="a_node18"><a xlink:href="../../d6/d95/classparser_1_1_parser.html#ae90f8410be9931ec3f349085c8fdae71" target="_top" xlink:title="parser.Parser.parseFile">
<polygon fill="white" stroke="black" points="4147,-149.5 4147,-168.5 4271,-168.5 4271,-149.5 4147,-149.5"/>
<text text-anchor="middle" x="4209" y="-156.5" font-family="Helvetica,sans-Serif" font-size="10.00">parser.Parser.parseFile</text>
</a>
</g>
</g>
<!-- Node16&#45;&gt;Node18 -->
<g id="edge17" class="edge"><title>Node16&#45;&gt;Node18</title>
<path fill="none" stroke="midnightblue" d="M4107.82,-159C4120.63,-159 4134.06,-159 4146.79,-159"/>
<polygon fill="midnightblue" stroke="midnightblue" points="4107.7,-155.5 4097.7,-159 4107.7,-162.5 4107.7,-155.5"/>
</g>
<!-- Node23 -->
<g id="node23" class="node"><title>Node23</title>
<g id="a_node23"><a xlink:href="../../d5/d56/class_workspace.html#a0ed8fb487512971086b6f3ed0d74e4ae" target="_top" xlink:title="Workspace.sendUserInput">
<polygon fill="white" stroke="black" points="4325,-107.5 4325,-126.5 4465,-126.5 4465,-107.5 4325,-107.5"/>
<text text-anchor="middle" x="4395" y="-114.5" font-family="Helvetica,sans-Serif" font-size="10.00">Workspace.sendUserInput</text>
</a>
</g>
</g>
<!-- Node16&#45;&gt;Node23 -->
<g id="edge22" class="edge"><title>Node16&#45;&gt;Node23</title>
<path fill="none" stroke="midnightblue" d="M4094.23,-147.284C4107.14,-144.581 4121.04,-141.934 4134,-140 4198.31,-130.402 4272.22,-124.337 4324.76,-120.861"/>
<polygon fill="midnightblue" stroke="midnightblue" points="4093.18,-143.931 4084.14,-149.452 4094.65,-150.775 4093.18,-143.931"/>
</g>
<!-- Node19 -->
<g id="node19" class="node"><title>Node19</title>
<g id="a_node19"><a xlink:href="../../d9/de8/class_file_chooser_feature.html#ad742b8e9d07e8151f0a9ff1972867ce8" target="_top" xlink:title="FileChooserFeature.openFile\lChooser">
<polygon fill="white" stroke="black" points="4320.5,-146 4320.5,-176 4469.5,-176 4469.5,-146 4320.5,-146"/>
<text text-anchor="start" x="4328.5" y="-164" font-family="Helvetica,sans-Serif" font-size="10.00">FileChooserFeature.openFile</text>
<text text-anchor="middle" x="4395" y="-153" font-family="Helvetica,sans-Serif" font-size="10.00">Chooser</text>
</a>
</g>
</g>
<!-- Node18&#45;&gt;Node19 -->
<g id="edge18" class="edge"><title>Node18&#45;&gt;Node19</title>
<path fill="none" stroke="midnightblue" d="M4281.17,-159.774C4294.02,-159.913 4307.44,-160.059 4320.35,-160.2"/>
<polygon fill="midnightblue" stroke="midnightblue" points="4281.05,-156.272 4271.01,-159.663 4280.98,-163.272 4281.05,-156.272"/>
</g>
<!-- Node20 -->
<g id="node20" class="node"><title>Node20</title>
<g id="a_node20"><a xlink:href="../../d5/d56/class_workspace.html#a6babd032d9af86fbc23812272d59a2d2" target="_top" xlink:title="Workspace.addFeatureButtons">
<polygon fill="white" stroke="black" points="4506,-149.5 4506,-168.5 4668,-168.5 4668,-149.5 4506,-149.5"/>
<text text-anchor="middle" x="4587" y="-156.5" font-family="Helvetica,sans-Serif" font-size="10.00">Workspace.addFeatureButtons</text>
</a>
</g>
</g>
<!-- Node19&#45;&gt;Node20 -->
<g id="edge19" class="edge"><title>Node19&#45;&gt;Node20</title>
<path fill="none" stroke="midnightblue" d="M4479.77,-160.118C4488.38,-160.028 4497.12,-159.936 4505.7,-159.845"/>
<polygon fill="midnightblue" stroke="midnightblue" points="4479.69,-156.619 4469.73,-160.224 4479.77,-163.618 4479.69,-156.619"/>
</g>
<!-- Node21 -->
<g id="node21" class="node"><title>Node21</title>
<g id="a_node21"><a xlink:href="../../d5/d56/class_workspace.html#a429d535dfd8427637b7715f0b1e1df1b" target="_top" xlink:title="Workspace.createWorkspace">
<polygon fill="white" stroke="black" points="4704,-129.5 4704,-148.5 4856,-148.5 4856,-129.5 4704,-129.5"/>
<text text-anchor="middle" x="4780" y="-136.5" font-family="Helvetica,sans-Serif" font-size="10.00">Workspace.createWorkspace</text>
</a>
</g>
</g>
<!-- Node20&#45;&gt;Node21 -->
<g id="edge20" class="edge"><title>Node20&#45;&gt;Node21</title>
<path fill="none" stroke="midnightblue" d="M4678.22,-149.553C4686.82,-148.652 4695.48,-147.746 4703.91,-146.863"/>
<polygon fill="midnightblue" stroke="midnightblue" points="4677.75,-146.083 4668.17,-150.605 4678.48,-153.045 4677.75,-146.083"/>
</g>
<!-- Node22 -->
<g id="node22" class="node"><title>Node22</title>
<g id="a_node22"><a xlink:href="../../d0/d4b/class_main.html#aaa75b38812324d0f17c89f139bde6ada" target="_top" xlink:title="Main.start">
<polygon fill="white" stroke="black" points="4892.5,-129.5 4892.5,-148.5 4957.5,-148.5 4957.5,-129.5 4892.5,-129.5"/>
<text text-anchor="middle" x="4925" y="-136.5" font-family="Helvetica,sans-Serif" font-size="10.00">Main.start</text>
</a>
</g>
</g>
<!-- Node21&#45;&gt;Node22 -->
<g id="edge21" class="edge"><title>Node21&#45;&gt;Node22</title>
<path fill="none" stroke="midnightblue" d="M4866.39,-139C4875.63,-139 4884.55,-139 4892.5,-139"/>
<polygon fill="midnightblue" stroke="midnightblue" points="4866.27,-135.5 4856.27,-139 4866.27,-142.5 4866.27,-135.5"/>
</g>
<!-- Node23&#45;&gt;Node21 -->
<g id="edge23" class="edge"><title>Node23&#45;&gt;Node21</title>
<path fill="none" stroke="midnightblue" d="M4475.47,-121.565C4542.6,-125.421 4638.08,-130.905 4703.94,-134.688"/>
<polygon fill="midnightblue" stroke="midnightblue" points="4475.54,-118.063 4465.36,-120.984 4475.14,-125.052 4475.54,-118.063"/>
</g>
<!-- Node24&#45;&gt;Node13 -->
<g id="edge25" class="edge"><title>Node24&#45;&gt;Node13</title>
<path fill="none" stroke="midnightblue" d="M3578.2,-185.247C3602.52,-179.874 3630.95,-173.591 3653.91,-168.52"/>
<polygon fill="midnightblue" stroke="midnightblue" points="3577.41,-181.836 3568.4,-187.411 3578.92,-188.671 3577.41,-181.836"/>
</g>
<!-- Node25&#45;&gt;Node26 -->
<g id="edge30" class="edge"><title>Node25&#45;&gt;Node26</title>
<path fill="none" stroke="midnightblue" d="M2920.6,-247.735C2929.04,-246.997 2937.6,-246.247 2945.91,-245.521"/>
<polygon fill="midnightblue" stroke="midnightblue" points="2920.06,-244.269 2910.4,-248.627 2920.67,-251.242 2920.06,-244.269"/>
</g>
<!-- Node26&#45;&gt;Node11 -->
<g id="edge31" class="edge"><title>Node26&#45;&gt;Node11</title>
<path fill="none" stroke="midnightblue" d="M3078.25,-228.725C3092.51,-226.334 3107.43,-223.833 3121.25,-221.515"/>
<polygon fill="midnightblue" stroke="midnightblue" points="3077.29,-225.337 3068,-230.442 3078.45,-232.24 3077.29,-225.337"/>
</g>
<!-- Node27&#45;&gt;Node11 -->
<g id="edge35" class="edge"><title>Node27&#45;&gt;Node11</title>
<path fill="none" stroke="midnightblue" d="M2751.35,-324.187C2797.31,-319.902 2857.38,-313.051 2910,-303 2984.13,-288.841 3002.94,-284.401 3074,-259 3104.6,-248.063 3138.67,-231.85 3159.21,-221.61"/>
<polygon fill="midnightblue" stroke="midnightblue" points="2750.81,-320.722 2741.17,-325.116 2751.45,-327.693 2750.81,-320.722"/>
</g>
<!-- Node27&#45;&gt;Node12 -->
<g id="edge36" class="edge"><title>Node27&#45;&gt;Node12</title>
<path fill="none" stroke="midnightblue" d="M2751.64,-332.261C2797.47,-332.771 2857.29,-331.864 2910,-326 3073.97,-307.759 3260.81,-233.321 3323.89,-206.603"/>
<polygon fill="midnightblue" stroke="midnightblue" points="2751.54,-328.759 2741.49,-332.122 2751.44,-335.758 2751.54,-328.759"/>
</g>
<!-- Node27&#45;&gt;Node13 -->
<g id="edge37" class="edge"><title>Node27&#45;&gt;Node13</title>
<path fill="none" stroke="midnightblue" d="M2738.34,-343.19C2742.39,-344.9 2746.32,-346.827 2750,-349 2770.03,-360.832 2765.94,-375.212 2786,-387 2874.19,-438.832 2906.7,-444 3009,-444 3009,-444 3009,-444 3348,-444 3525.97,-444 3663.24,-218.925 3691.6,-168.81"/>
<polygon fill="midnightblue" stroke="midnightblue" points="2739.31,-339.815 2728.72,-339.584 2736.86,-346.37 2739.31,-339.815"/>
</g>
<!-- Node27&#45;&gt;Node24 -->
<g id="edge39" class="edge"><title>Node27&#45;&gt;Node24</title>
<path fill="none" stroke="midnightblue" d="M2724.26,-342.054C2809.02,-363.487 2980.7,-406 3009,-406 3009,-406 3009,-406 3180,-406 3335.5,-406 3480.36,-247.41 3515.12,-206.523"/>
<polygon fill="midnightblue" stroke="midnightblue" points="2724.92,-338.611 2714.37,-339.548 2723.2,-345.397 2724.92,-338.611"/>
</g>
<!-- Node27&#45;&gt;Node25 -->
<g id="edge38" class="edge"><title>Node27&#45;&gt;Node25</title>
<path fill="none" stroke="midnightblue" d="M2705.16,-315.895C2727.02,-305.108 2758.19,-290.085 2786,-278 2797.59,-272.965 2810.59,-267.784 2821.61,-263.53"/>
<polygon fill="midnightblue" stroke="midnightblue" points="2703.51,-312.805 2696.11,-320.382 2706.62,-319.077 2703.51,-312.805"/>
</g>
<!-- Node27&#45;&gt;Node26 -->
<g id="edge40" class="edge"><title>Node27&#45;&gt;Node26</title>
<path fill="none" stroke="midnightblue" d="M2730.7,-318.177C2778.14,-307.421 2849.05,-290.581 2910,-273 2934.72,-265.87 2962.48,-256.496 2982.29,-249.562"/>
<polygon fill="midnightblue" stroke="midnightblue" points="2729.64,-314.829 2720.65,-320.444 2731.18,-321.657 2729.64,-314.829"/>
</g>
<!-- Node28&#45;&gt;Node5 -->
<g id="edge42" class="edge"><title>Node28&#45;&gt;Node5</title>
<path fill="none" stroke="midnightblue" d="M1916,-328.771C1926.01,-330.502 1936.14,-332.254 1946.04,-333.964"/>
<polygon fill="midnightblue" stroke="midnightblue" points="1916.49,-325.304 1906.04,-327.049 1915.3,-332.202 1916.49,-325.304"/>
</g>
<!-- Node29&#45;&gt;Node28 -->
<g id="edge44" class="edge"><title>Node29&#45;&gt;Node28</title>
<path fill="none" stroke="midnightblue" d="M1701.65,-292.595C1710.6,-294.1 1719.62,-295.619 1728.48,-297.109"/>
<polygon fill="midnightblue" stroke="midnightblue" points="1702.03,-289.11 1691.59,-290.902 1700.87,-296.013 1702.03,-289.11"/>
</g>
<!-- Node30&#45;&gt;Node29 -->
<g id="edge46" class="edge"><title>Node30&#45;&gt;Node29</title>
<path fill="none" stroke="midnightblue" d="M1485.65,-258.212C1494.6,-259.592 1503.62,-260.984 1512.48,-262.35"/>
<polygon fill="midnightblue" stroke="midnightblue" points="1486,-254.726 1475.59,-256.661 1484.94,-261.644 1486,-254.726"/>
</g>
<!-- Node31&#45;&gt;Node30 -->
<g id="edge48" class="edge"><title>Node31&#45;&gt;Node30</title>
<path fill="none" stroke="midnightblue" d="M1269.65,-227.907C1278.6,-229.078 1287.62,-230.259 1296.48,-231.418"/>
<polygon fill="midnightblue" stroke="midnightblue" points="1269.96,-224.418 1259.59,-226.591 1269.05,-231.359 1269.96,-224.418"/>
</g>
<!-- Node32&#45;&gt;Node31 -->
<g id="edge50" class="edge"><title>Node32&#45;&gt;Node31</title>
<path fill="none" stroke="midnightblue" d="M1053.65,-204.758C1062.6,-205.553 1071.62,-206.355 1080.48,-207.141"/>
<polygon fill="midnightblue" stroke="midnightblue" points="1053.86,-201.263 1043.59,-203.865 1053.24,-208.236 1053.86,-201.263"/>
</g>
<!-- Node33&#45;&gt;Node6 -->
<g id="edge53" class="edge"><title>Node33&#45;&gt;Node6</title>
<path fill="none" stroke="midnightblue" d="M768.877,-93.1054C793.32,-77.0646 829.385,-55.7362 864,-44 993.707,-0.0237679 1032.04,-0 1169,-0 1169,-0 1169,-0 1819,-0 2033.89,-0 2201.31,-266.012 2240.36,-333.554"/>
<polygon fill="midnightblue" stroke="midnightblue" points="766.797,-90.2859 760.422,-98.7483 770.683,-96.1084 766.797,-90.2859"/>
</g>
<!-- Node33&#45;&gt;Node28 -->
<g id="edge54" class="edge"><title>Node33&#45;&gt;Node28</title>
<path fill="none" stroke="midnightblue" d="M799.851,-96.3162C882.625,-73.8613 1035.69,-38 1169,-38 1169,-38 1169,-38 1387,-38 1581.3,-38 1758.53,-239.437 1805.12,-296.878"/>
<polygon fill="midnightblue" stroke="midnightblue" points="798.831,-92.9667 790.112,-98.9848 800.681,-99.7179 798.831,-92.9667"/>
</g>
<!-- Node33&#45;&gt;Node29 -->
<g id="edge55" class="edge"><title>Node33&#45;&gt;Node29</title>
<path fill="none" stroke="midnightblue" d="M837.989,-110.485C897.696,-109.078 975.261,-108.508 1044,-112 1140.37,-116.895 1166.18,-111.419 1260,-134 1360.14,-158.104 1381.23,-177.636 1476,-218 1508.36,-231.781 1544.77,-248.86 1569.91,-260.905"/>
<polygon fill="midnightblue" stroke="midnightblue" points="837.722,-106.99 827.812,-110.737 837.895,-113.988 837.722,-106.99"/>
</g>
<!-- Node33&#45;&gt;Node30 -->
<g id="edge56" class="edge"><title>Node33&#45;&gt;Node30</title>
<path fill="none" stroke="midnightblue" d="M837.845,-114.246C897.821,-115.697 975.713,-119.898 1044,-131 1142.23,-146.969 1165.98,-157.392 1260,-190 1292.18,-201.161 1327.86,-216.608 1352.83,-227.947"/>
<polygon fill="midnightblue" stroke="midnightblue" points="837.696,-110.742 827.622,-114.021 837.542,-117.74 837.696,-110.742"/>
</g>
<!-- Node33&#45;&gt;Node31 -->
<g id="edge57" class="edge"><title>Node33&#45;&gt;Node31</title>
<path fill="none" stroke="midnightblue" d="M837.439,-128.453C897.614,-138.26 975.855,-152.755 1044,-171 1073.78,-178.973 1106.63,-190.655 1131.18,-199.978"/>
<polygon fill="midnightblue" stroke="midnightblue" points="837.992,-124.997 827.562,-126.859 836.877,-131.908 837.992,-124.997"/>
</g>
<!-- Node33&#45;&gt;Node32 -->
<g id="edge58" class="edge"><title>Node33&#45;&gt;Node32</title>
<path fill="none" stroke="midnightblue" d="M782.967,-133.163C806.79,-143.325 836.833,-155.784 864,-166 877.583,-171.108 892.479,-176.29 906.133,-180.877"/>
<polygon fill="midnightblue" stroke="midnightblue" points="784.068,-129.827 773.498,-129.106 781.311,-136.261 784.068,-129.827"/>
</g>
<!-- Node34&#45;&gt;Node3 -->
<g id="edge60" class="edge"><title>Node34&#45;&gt;Node3</title>
<path fill="none" stroke="midnightblue" d="M382.69,-265.331C406.45,-270.771 432.467,-276.729 455.463,-281.994"/>
<polygon fill="midnightblue" stroke="midnightblue" points="383.19,-261.855 372.661,-263.035 381.628,-268.678 383.19,-261.855"/>
</g>
</g>
</svg>
        <g id="navigator" transform="translate(0 0)" fill="#404254">
                <rect fill="#f2f5e9" fill-opacity="0.5" stroke="#606060" stroke-width=".5" x="0" y="0" width="60" height="60"/>
                <use id="zoomplus" xlink:href="#zoomPlus" x="17" y="9" onmousedown="handleZoom(evt,'in')"/>
                <use id="zoomminus" xlink:href="#zoomMin" x="42" y="9" onmousedown="handleZoom(evt,'out')"/>
                <use id="reset" xlink:href="#resetDef" x="30" y="36" onmousedown="handleReset()"/>
                <g id="arrowUp" xlink:href="#dirArrow" transform="translate(30 24)" onmousedown="handlePan(0,-1)">
                  <use xlink:href="#rim" fill="#404040">
                        <set attributeName="fill" to="#808080" begin="arrowUp.mouseover" end="arrowUp.mouseout"/>
                  </use>
                  <path fill="none" stroke="white" stroke-width="1.5" d="M0,-3.0v7 M-2.5,-0.5L0,-3.0L2.5,-0.5"/>
                </g>
                <g id="arrowRight" xlink:href="#dirArrow" transform="rotate(90) translate(36 -43)" onmousedown="handlePan(1,0)">
                  <use xlink:href="#rim" fill="#404040">
                        <set attributeName="fill" to="#808080" begin="arrowRight.mouseover" end="arrowRight.mouseout"/>
                  </use>
                  <path fill="none" stroke="white" stroke-width="1.5" d="M0,-3.0v7 M-2.5,-0.5L0,-3.0L2.5,-0.5"/>
                </g>
                <g id="arrowDown" xlink:href="#dirArrow" transform="rotate(180) translate(-30 -48)" onmousedown="handlePan(0,1)">
                  <use xlink:href="#rim" fill="#404040">
                        <set attributeName="fill" to="#808080" begin="arrowDown.mouseover" end="arrowDown.mouseout"/>
                  </use>
                  <path fill="none" stroke="white" stroke-width="1.5" d="M0,-3.0v7 M-2.5,-0.5L0,-3.0L2.5,-0.5"/>
                </g>
                <g id="arrowLeft" xlink:href="#dirArrow" transform="rotate(270) translate(-36 17)" onmousedown="handlePan(-1,0)">
                  <use xlink:href="#rim" fill="#404040">
                        <set attributeName="fill" to="#808080" begin="arrowLeft.mouseover" end="arrowLeft.mouseout"/>
                  </use>
                  <path fill="none" stroke="white" stroke-width="1.5" d="M0,-3.0v7 M-2.5,-0.5L0,-3.0L2.5,-0.5"/>
                </g>
        </g>
        <svg viewBox="0 0 15 15" width="100%" height="30px" preserveAspectRatio="xMaxYMin meet">
         <g id="arrow_out" transform="scale(0.3 0.3)">
          <a xlink:href="classparser_1_1_logo_parser_token_manager_af1b1635a624926faf7741958cc140de4_icgraph_org.svg" target="_base">
           <rect id="button" ry="5" rx="5" y="6" x="6" height="38" width="38"
                fill="#f2f5e9" fill-opacity="0.5" stroke="#606060" stroke-width="1.0"/>
           <path id="arrow"
             d="M 11.500037,31.436501 C 11.940474,20.09759 22.043105,11.32322 32.158766,21.979434 L 37.068811,17.246167 C 37.068811,17.246167 37.088388,32 37.088388,32 L 22.160133,31.978069 C 22.160133,31.978069 26.997745,27.140456 26.997745,27.140456 C 18.528582,18.264221 13.291696,25.230495 11.500037,31.436501 z"
             style="fill:#404040;"/>
          </a>
         </g>
        </svg>
</svg>
