<?xml version="1.0" encoding="UTF-8" standalone="no"?>
<!DOCTYPE svg PUBLIC "-//W3C//DTD SVG 1.1//EN"
 "http://www.w3.org/Graphics/SVG/1.1/DTD/svg11.dtd">
<!-- Generated by graphviz version 2.36.0 (20140111.2315)
 -->
<!-- Title: parser.LogoParserTokenManager.jjMoveStringLiteralDfa6_0 Pages: 1 -->
<!--zoomable 312 -->
<svg id="main" version="1.1" xmlns="http://www.w3.org/2000/svg" xmlns:xlink="http://www.w3.org/1999/xlink" xml:space="preserve" onload="init(evt)">
<style type="text/css"><![CDATA[
.edge:hover path { stroke: red; }
.edge:hover polygon { stroke: red; fill: red; }
]]></style>
<script type="text/javascript"><![CDATA[
var edges = document.getElementsByTagName('g');
if (edges && edges.length) {
  for (var i=0;i<edges.length;i++) {
    if (edges[i].id.substr(0,4)=='edge') {
      edges[i].setAttribute('class','edge');
    }
  }
}
]]></script>
        <defs>
                <circle id="rim" cx="0" cy="0" r="7"/>
                <circle id="rim2" cx="0" cy="0" r="3.5"/>
                <g id="zoomPlus">
                        <use xlink:href="#rim" fill="#404040">
                                <set attributeName="fill" to="#808080" begin="zoomplus.mouseover" end="zoomplus.mouseout"/>
                        </use>
                        <path d="M-4,0h8M0,-4v8" fill="none" stroke="white" stroke-width="1.5" pointer-events="none"/>
                </g>
                <g id="zoomMin">
                        <use xlink:href="#rim" fill="#404040">
                                <set attributeName="fill" to="#808080" begin="zoomminus.mouseover" end="zoomminus.mouseout"/>
                        </use>
                        <path d="M-4,0h8" fill="none" stroke="white" stroke-width="1.5" pointer-events="none"/>
                </g>
                <g id="dirArrow">
                        <path fill="none" stroke="white" stroke-width="1.5" d="M0,-3.0v7 M-2.5,-0.5L0,-3.0L2.5,-0.5"/>
                </g>
               <g id="resetDef">
                       <use xlink:href="#rim2" fill="#404040">
                               <set attributeName="fill" to="#808080" begin="reset.mouseover" end="reset.mouseout"/>
                       </use>
               </g>
        </defs>

<script type="text/javascript">
var viewWidth = 1276;
var viewHeight = 312;
var sectionId = 'dynsection-27';
</script>
<script xlink:href="../../svgpan.js"/>
<svg id="graph" class="graph">
<g id="viewport">
<title>parser.LogoParserTokenManager.jjMoveStringLiteralDfa6_0</title>
<polygon fill="white" stroke="none" points="-4,4 -4,-308 1272,-308 1272,4 -4,4"/>
<!-- Node1 -->
<g id="node1" class="node"><title>Node1</title>
<polygon fill="#bfbfbf" stroke="black" points="0.5,-114 0.5,-144 179.5,-144 179.5,-114 0.5,-114"/>
<text text-anchor="start" x="8.5" y="-132" font-family="Helvetica,sans-Serif" font-size="10.00">parser.LogoParserTokenManager.jj</text>
<text text-anchor="middle" x="90" y="-121" font-family="Helvetica,sans-Serif" font-size="10.00">MoveStringLiteralDfa6_0</text>
</g>
<!-- Node2 -->
<g id="node2" class="node"><title>Node2</title>
<g id="a_node2"><a xlink:href="../../d0/d8c/classparser_1_1_logo_parser_token_manager.html#aa065c8b0c977d3c1c9d9058f96664080" target="_top" xlink:title="parser.LogoParserTokenManager.jj\lStartNfa_0">
<polygon fill="white" stroke="black" points="216.5,-139 216.5,-169 395.5,-169 395.5,-139 216.5,-139"/>
<text text-anchor="start" x="224.5" y="-157" font-family="Helvetica,sans-Serif" font-size="10.00">parser.LogoParserTokenManager.jj</text>
<text text-anchor="middle" x="306" y="-146" font-family="Helvetica,sans-Serif" font-size="10.00">StartNfa_0</text>
</a>
</g>
</g>
<!-- Node1&#45;&gt;Node2 -->
<g id="edge1" class="edge"><title>Node1&#45;&gt;Node2</title>
<path fill="none" stroke="midnightblue" d="M179.587,-139.349C188.442,-140.383 197.472,-141.438 206.422,-142.484"/>
<polygon fill="midnightblue" stroke="midnightblue" points="206.141,-145.975 216.48,-143.659 206.953,-139.022 206.141,-145.975"/>
</g>
<!-- Node8 -->
<g id="node8" class="node"><title>Node8</title>
<g id="a_node8"><a xlink:href="../../d4/dad/classparser_1_1_simple_char_stream.html#a9f80cee02b99e8e200afa646e3b25e29" target="_top" xlink:title="parser.SimpleCharStream.readChar">
<polygon fill="white" stroke="black" points="648,-49.5 648,-68.5 836,-68.5 836,-49.5 648,-49.5"/>
<text text-anchor="middle" x="742" y="-56.5" font-family="Helvetica,sans-Serif" font-size="10.00">parser.SimpleCharStream.readChar</text>
</a>
</g>
</g>
<!-- Node1&#45;&gt;Node8 -->
<g id="edge20" class="edge"><title>Node1&#45;&gt;Node8</title>
<path fill="none" stroke="midnightblue" d="M120.944,-113.977C145.734,-102.353 182.237,-87.0828 216,-80 359.998,-49.7915 530.956,-49.3131 637.736,-53.0931"/>
<polygon fill="midnightblue" stroke="midnightblue" points="637.742,-56.5957 647.866,-53.4714 638.003,-49.6006 637.742,-56.5957"/>
</g>
<!-- Node14 -->
<g id="node14" class="node"><title>Node14</title>
<g id="a_node14"><a xlink:href="../../d0/d8c/classparser_1_1_logo_parser_token_manager.html#a1f212a863542f9f3993faf51bb46ae8e" target="_top" xlink:title="parser.LogoParserTokenManager.jj\lStopStringLiteralDfa_0">
<polygon fill="white" stroke="black" points="432.5,-185 432.5,-215 611.5,-215 611.5,-185 432.5,-185"/>
<text text-anchor="start" x="440.5" y="-203" font-family="Helvetica,sans-Serif" font-size="10.00">parser.LogoParserTokenManager.jj</text>
<text text-anchor="middle" x="522" y="-192" font-family="Helvetica,sans-Serif" font-size="10.00">StopStringLiteralDfa_0</text>
</a>
</g>
</g>
<!-- Node1&#45;&gt;Node14 -->
<g id="edge19" class="edge"><title>Node1&#45;&gt;Node14</title>
<path fill="none" stroke="midnightblue" d="M121.765,-144.084C146.574,-155.498 182.696,-170.455 216,-178 283.667,-193.331 361.733,-198.742 421.945,-200.366"/>
<polygon fill="midnightblue" stroke="midnightblue" points="422.13,-203.872 432.211,-200.612 422.297,-196.874 422.13,-203.872"/>
</g>
<!-- Node15 -->
<g id="node15" class="node"><title>Node15</title>
<g id="a_node15"><a xlink:href="../../d0/d8c/classparser_1_1_logo_parser_token_manager.html#a94b20a17d94554012918e876be221c46" target="_top" xlink:title="parser.LogoParserTokenManager.jj\lStartNfaWithStates_0">
<polygon fill="white" stroke="black" points="216.5,-90 216.5,-120 395.5,-120 395.5,-90 216.5,-90"/>
<text text-anchor="start" x="224.5" y="-108" font-family="Helvetica,sans-Serif" font-size="10.00">parser.LogoParserTokenManager.jj</text>
<text text-anchor="middle" x="306" y="-97" font-family="Helvetica,sans-Serif" font-size="10.00">StartNfaWithStates_0</text>
</a>
</g>
</g>
<!-- Node1&#45;&gt;Node15 -->
<g id="edge16" class="edge"><title>Node1&#45;&gt;Node15</title>
<path fill="none" stroke="midnightblue" d="M179.587,-119.065C188.442,-118.072 197.472,-117.059 206.422,-116.056"/>
<polygon fill="midnightblue" stroke="midnightblue" points="206.932,-119.52 216.48,-114.928 206.152,-112.564 206.932,-119.52"/>
</g>
<!-- Node3 -->
<g id="node3" class="node"><title>Node3</title>
<g id="a_node3"><a xlink:href="../../d0/d8c/classparser_1_1_logo_parser_token_manager.html#a0071f141b41b403c8ab151c8c014a709" target="_top" xlink:title="parser.LogoParserTokenManager.jj\lMoveNfa_0">
<polygon fill="white" stroke="black" points="432.5,-136 432.5,-166 611.5,-166 611.5,-136 432.5,-136"/>
<text text-anchor="start" x="440.5" y="-154" font-family="Helvetica,sans-Serif" font-size="10.00">parser.LogoParserTokenManager.jj</text>
<text text-anchor="middle" x="522" y="-143" font-family="Helvetica,sans-Serif" font-size="10.00">MoveNfa_0</text>
</a>
</g>
</g>
<!-- Node2&#45;&gt;Node3 -->
<g id="edge2" class="edge"><title>Node2&#45;&gt;Node3</title>
<path fill="none" stroke="midnightblue" d="M395.587,-152.758C404.442,-152.634 413.472,-152.507 422.422,-152.382"/>
<polygon fill="midnightblue" stroke="midnightblue" points="422.53,-155.881 432.48,-152.241 422.432,-148.882 422.53,-155.881"/>
</g>
<!-- Node2&#45;&gt;Node14 -->
<g id="edge15" class="edge"><title>Node2&#45;&gt;Node14</title>
<path fill="none" stroke="midnightblue" d="M377.072,-169.062C397.592,-173.473 420.177,-178.328 441.252,-182.858"/>
<polygon fill="midnightblue" stroke="midnightblue" points="440.624,-186.303 451.137,-184.983 442.096,-179.459 440.624,-186.303"/>
</g>
<!-- Node4 -->
<g id="node4" class="node"><title>Node4</title>
<g id="a_node4"><a xlink:href="../../d0/d8c/classparser_1_1_logo_parser_token_manager.html#ad31cdd6db411f95b045686c2053f42fa" target="_top" xlink:title="parser.LogoParserTokenManager.jj\lAddStates">
<polygon fill="white" stroke="black" points="652.5,-225 652.5,-255 831.5,-255 831.5,-225 652.5,-225"/>
<text text-anchor="start" x="660.5" y="-243" font-family="Helvetica,sans-Serif" font-size="10.00">parser.LogoParserTokenManager.jj</text>
<text text-anchor="middle" x="742" y="-232" font-family="Helvetica,sans-Serif" font-size="10.00">AddStates</text>
</a>
</g>
</g>
<!-- Node3&#45;&gt;Node4 -->
<g id="edge3" class="edge"><title>Node3&#45;&gt;Node4</title>
<path fill="none" stroke="midnightblue" d="M592.889,-166.128C599.536,-168.659 606.019,-171.597 612,-175 631.395,-186.037 628.879,-198.495 648,-210 655.105,-214.275 662.886,-218.011 670.828,-221.258"/>
<polygon fill="midnightblue" stroke="midnightblue" points="669.602,-224.537 680.192,-224.849 672.108,-218.001 669.602,-224.537"/>
</g>
<!-- Node5 -->
<g id="node5" class="node"><title>Node5</title>
<g id="a_node5"><a xlink:href="../../d0/d8c/classparser_1_1_logo_parser_token_manager.html#af1b1635a624926faf7741958cc140de4" target="_top" xlink:title="parser.LogoParserTokenManager.jj\lCheckNAdd">
<polygon fill="white" stroke="black" points="872.5,-137 872.5,-167 1051.5,-167 1051.5,-137 872.5,-137"/>
<text text-anchor="start" x="880.5" y="-155" font-family="Helvetica,sans-Serif" font-size="10.00">parser.LogoParserTokenManager.jj</text>
<text text-anchor="middle" x="962" y="-144" font-family="Helvetica,sans-Serif" font-size="10.00">CheckNAdd</text>
</a>
</g>
</g>
<!-- Node3&#45;&gt;Node5 -->
<g id="edge4" class="edge"><title>Node3&#45;&gt;Node5</title>
<path fill="none" stroke="midnightblue" d="M585.585,-166.033C605.421,-170.118 627.518,-173.972 648,-176 731.149,-184.233 752.82,-183.913 836,-176 852.031,-174.475 869.065,-171.873 885.231,-168.932"/>
<polygon fill="midnightblue" stroke="midnightblue" points="885.987,-172.351 895.168,-167.063 884.693,-165.471 885.987,-172.351"/>
</g>
<!-- Node6 -->
<g id="node6" class="node"><title>Node6</title>
<g id="a_node6"><a xlink:href="../../d0/d8c/classparser_1_1_logo_parser_token_manager.html#ac4047538420e7ceceec16698b354cd62" target="_top" xlink:title="parser.LogoParserTokenManager.jj\lCheckNAddStates">
<polygon fill="white" stroke="black" points="652.5,-137 652.5,-167 831.5,-167 831.5,-137 652.5,-137"/>
<text text-anchor="start" x="660.5" y="-155" font-family="Helvetica,sans-Serif" font-size="10.00">parser.LogoParserTokenManager.jj</text>
<text text-anchor="middle" x="742" y="-144" font-family="Helvetica,sans-Serif" font-size="10.00">CheckNAddStates</text>
</a>
</g>
</g>
<!-- Node3&#45;&gt;Node6 -->
<g id="edge5" class="edge"><title>Node3&#45;&gt;Node6</title>
<path fill="none" stroke="midnightblue" d="M611.669,-151.407C621.748,-151.453 632.067,-151.5 642.265,-151.547"/>
<polygon fill="midnightblue" stroke="midnightblue" points="642.394,-155.048 652.41,-151.594 642.426,-148.048 642.394,-155.048"/>
</g>
<!-- Node7 -->
<g id="node7" class="node"><title>Node7</title>
<g id="a_node7"><a xlink:href="../../d0/d8c/classparser_1_1_logo_parser_token_manager.html#a8f9adc17a4a9b201128786ca145783e8" target="_top" xlink:title="parser.LogoParserTokenManager.jj\lCheckNAddTwoStates">
<polygon fill="white" stroke="black" points="652.5,-88 652.5,-118 831.5,-118 831.5,-88 652.5,-88"/>
<text text-anchor="start" x="660.5" y="-106" font-family="Helvetica,sans-Serif" font-size="10.00">parser.LogoParserTokenManager.jj</text>
<text text-anchor="middle" x="742" y="-95" font-family="Helvetica,sans-Serif" font-size="10.00">CheckNAddTwoStates</text>
</a>
</g>
</g>
<!-- Node3&#45;&gt;Node7 -->
<g id="edge7" class="edge"><title>Node3&#45;&gt;Node7</title>
<path fill="none" stroke="midnightblue" d="M591.378,-135.944C614.104,-130.94 639.579,-125.331 662.978,-120.179"/>
<polygon fill="midnightblue" stroke="midnightblue" points="663.851,-123.571 672.864,-118.002 662.345,-116.735 663.851,-123.571"/>
</g>
<!-- Node3&#45;&gt;Node8 -->
<g id="edge9" class="edge"><title>Node3&#45;&gt;Node8</title>
<path fill="none" stroke="midnightblue" d="M570.569,-135.957C584.527,-130.455 599.411,-123.46 612,-115 631.043,-102.202 627.868,-89.0061 648,-78 652.207,-75.7001 656.659,-73.6776 661.245,-71.899"/>
<polygon fill="midnightblue" stroke="midnightblue" points="662.513,-75.1638 670.815,-68.5804 660.22,-68.5503 662.513,-75.1638"/>
</g>
<!-- Node13 -->
<g id="node13" class="node"><title>Node13</title>
<g id="a_node13"><a xlink:href="../../d0/d8c/classparser_1_1_logo_parser_token_manager.html#a5923cb696d0a55f99661625200327816" target="_top" xlink:title="parser.LogoParserTokenManager.\lReInitRounds">
<polygon fill="white" stroke="black" points="655,-274 655,-304 829,-304 829,-274 655,-274"/>
<text text-anchor="start" x="663" y="-292" font-family="Helvetica,sans-Serif" font-size="10.00">parser.LogoParserTokenManager.</text>
<text text-anchor="middle" x="742" y="-281" font-family="Helvetica,sans-Serif" font-size="10.00">ReInitRounds</text>
</a>
</g>
</g>
<!-- Node3&#45;&gt;Node13 -->
<g id="edge14" class="edge"><title>Node3&#45;&gt;Node13</title>
<path fill="none" stroke="midnightblue" d="M599.371,-166.169C603.901,-168.683 608.167,-171.604 612,-175 643.94,-203.292 616.049,-235.72 648,-264 649.78,-265.576 651.649,-267.053 653.592,-268.439"/>
<polygon fill="midnightblue" stroke="midnightblue" points="652.186,-271.683 662.537,-273.945 655.856,-265.722 652.186,-271.683"/>
</g>
<!-- Node6&#45;&gt;Node5 -->
<g id="edge6" class="edge"><title>Node6&#45;&gt;Node5</title>
<path fill="none" stroke="midnightblue" d="M831.669,-152C841.748,-152 852.067,-152 862.265,-152"/>
<polygon fill="midnightblue" stroke="midnightblue" points="862.41,-155.5 872.41,-152 862.41,-148.5 862.41,-155.5"/>
</g>
<!-- Node7&#45;&gt;Node5 -->
<g id="edge8" class="edge"><title>Node7&#45;&gt;Node5</title>
<path fill="none" stroke="midnightblue" d="M809.889,-118.035C833.43,-123.326 860.067,-129.313 884.349,-134.771"/>
<polygon fill="midnightblue" stroke="midnightblue" points="883.714,-138.216 894.238,-136.994 885.249,-131.386 883.714,-138.216"/>
</g>
<!-- Node9 -->
<g id="node9" class="node"><title>Node9</title>
<g id="a_node9"><a xlink:href="../../d4/dad/classparser_1_1_simple_char_stream.html#aac1dcd2a238adbc951d3af740cc2aa13" target="_top" xlink:title="parser.SimpleCharStream.\lFillBuff">
<polygon fill="white" stroke="black" points="890,-17 890,-47 1034,-47 1034,-17 890,-17"/>
<text text-anchor="start" x="898" y="-35" font-family="Helvetica,sans-Serif" font-size="10.00">parser.SimpleCharStream.</text>
<text text-anchor="middle" x="962" y="-24" font-family="Helvetica,sans-Serif" font-size="10.00">FillBuff</text>
</a>
</g>
</g>
<!-- Node8&#45;&gt;Node9 -->
<g id="edge10" class="edge"><title>Node8&#45;&gt;Node9</title>
<path fill="none" stroke="midnightblue" d="M819.859,-49.4808C839.275,-47.076 860.186,-44.4862 879.808,-42.0559"/>
<polygon fill="midnightblue" stroke="midnightblue" points="880.443,-45.5041 889.937,-40.8014 879.582,-38.5572 880.443,-45.5041"/>
</g>
<!-- Node12 -->
<g id="node12" class="node"><title>Node12</title>
<g id="a_node12"><a xlink:href="../../d4/dad/classparser_1_1_simple_char_stream.html#ad8ca3472934b9d38c005c8885d859403" target="_top" xlink:title="parser.SimpleCharStream.\lUpdateLineColumn">
<polygon fill="white" stroke="black" points="890,-66 890,-96 1034,-96 1034,-66 890,-66"/>
<text text-anchor="start" x="898" y="-84" font-family="Helvetica,sans-Serif" font-size="10.00">parser.SimpleCharStream.</text>
<text text-anchor="middle" x="962" y="-73" font-family="Helvetica,sans-Serif" font-size="10.00">UpdateLineColumn</text>
</a>
</g>
</g>
<!-- Node8&#45;&gt;Node12 -->
<g id="edge13" class="edge"><title>Node8&#45;&gt;Node12</title>
<path fill="none" stroke="midnightblue" d="M836.084,-68.3938C850.611,-69.8598 865.524,-71.3648 879.76,-72.8014"/>
<polygon fill="midnightblue" stroke="midnightblue" points="879.69,-76.3121 889.991,-73.8339 880.393,-69.3475 879.69,-76.3121"/>
</g>
<!-- Node10 -->
<g id="node10" class="node"><title>Node10</title>
<g id="a_node10"><a xlink:href="../../d4/dad/classparser_1_1_simple_char_stream.html#a5328cda7180ed2a180eac8af133517cf" target="_top" xlink:title="parser.SimpleCharStream.\lExpandBuff">
<polygon fill="white" stroke="black" points="1106,-39 1106,-69 1250,-69 1250,-39 1106,-39"/>
<text text-anchor="start" x="1114" y="-57" font-family="Helvetica,sans-Serif" font-size="10.00">parser.SimpleCharStream.</text>
<text text-anchor="middle" x="1178" y="-46" font-family="Helvetica,sans-Serif" font-size="10.00">ExpandBuff</text>
</a>
</g>
</g>
<!-- Node9&#45;&gt;Node10 -->
<g id="edge11" class="edge"><title>Node9&#45;&gt;Node10</title>
<path fill="none" stroke="midnightblue" d="M1034.26,-39.3257C1053.92,-41.3467 1075.39,-43.5546 1095.58,-45.6299"/>
<polygon fill="midnightblue" stroke="midnightblue" points="1095.38,-49.1277 1105.69,-46.6688 1096.1,-42.1644 1095.38,-49.1277"/>
</g>
<!-- Node11 -->
<g id="node11" class="node"><title>Node11</title>
<g id="a_node11"><a xlink:href="../../d4/dad/classparser_1_1_simple_char_stream.html#a4eacb833520fdfdb1b18be45bc3bd4ba" target="_top" xlink:title="parser.SimpleCharStream.backup">
<polygon fill="white" stroke="black" points="1088.5,-0.5 1088.5,-19.5 1267.5,-19.5 1267.5,-0.5 1088.5,-0.5"/>
<text text-anchor="middle" x="1178" y="-7.5" font-family="Helvetica,sans-Serif" font-size="10.00">parser.SimpleCharStream.backup</text>
</a>
</g>
</g>
<!-- Node9&#45;&gt;Node11 -->
<g id="edge12" class="edge"><title>Node9&#45;&gt;Node11</title>
<path fill="none" stroke="midnightblue" d="M1034.26,-24.6743C1048.29,-23.2322 1063.24,-21.6948 1077.99,-20.1784"/>
<polygon fill="midnightblue" stroke="midnightblue" points="1078.57,-23.6378 1088.16,-19.1334 1077.85,-16.6745 1078.57,-23.6378"/>
</g>
<!-- Node15&#45;&gt;Node3 -->
<g id="edge18" class="edge"><title>Node15&#45;&gt;Node3</title>
<path fill="none" stroke="midnightblue" d="M377.072,-120.062C397.592,-124.473 420.177,-129.328 441.252,-133.858"/>
<polygon fill="midnightblue" stroke="midnightblue" points="440.624,-137.303 451.137,-135.983 442.096,-130.459 440.624,-137.303"/>
</g>
<!-- Node15&#45;&gt;Node8 -->
<g id="edge17" class="edge"><title>Node15&#45;&gt;Node8</title>
<path fill="none" stroke="midnightblue" d="M395.788,-96.3177C456.659,-90.2814 539.247,-81.9267 612,-74 624.469,-72.6415 637.61,-71.1651 650.542,-69.6862"/>
<polygon fill="midnightblue" stroke="midnightblue" points="651.317,-73.1203 660.852,-68.5018 650.518,-66.166 651.317,-73.1203"/>
</g>
</g>
</svg>
        <g id="navigator" transform="translate(0 0)" fill="#404254">
                <rect fill="#f2f5e9" fill-opacity="0.5" stroke="#606060" stroke-width=".5" x="0" y="0" width="60" height="60"/>
                <use id="zoomplus" xlink:href="#zoomPlus" x="17" y="9" onmousedown="handleZoom(evt,'in')"/>
                <use id="zoomminus" xlink:href="#zoomMin" x="42" y="9" onmousedown="handleZoom(evt,'out')"/>
                <use id="reset" xlink:href="#resetDef" x="30" y="36" onmousedown="handleReset()"/>
                <g id="arrowUp" xlink:href="#dirArrow" transform="translate(30 24)" onmousedown="handlePan(0,-1)">
                  <use xlink:href="#rim" fill="#404040">
                        <set attributeName="fill" to="#808080" begin="arrowUp.mouseover" end="arrowUp.mouseout"/>
                  </use>
                  <path fill="none" stroke="white" stroke-width="1.5" d="M0,-3.0v7 M-2.5,-0.5L0,-3.0L2.5,-0.5"/>
                </g>
                <g id="arrowRight" xlink:href="#dirArrow" transform="rotate(90) translate(36 -43)" onmousedown="handlePan(1,0)">
                  <use xlink:href="#rim" fill="#404040">
                        <set attributeName="fill" to="#808080" begin="arrowRight.mouseover" end="arrowRight.mouseout"/>
                  </use>
                  <path fill="none" stroke="white" stroke-width="1.5" d="M0,-3.0v7 M-2.5,-0.5L0,-3.0L2.5,-0.5"/>
                </g>
                <g id="arrowDown" xlink:href="#dirArrow" transform="rotate(180) translate(-30 -48)" onmousedown="handlePan(0,1)">
                  <use xlink:href="#rim" fill="#404040">
                        <set attributeName="fill" to="#808080" begin="arrowDown.mouseover" end="arrowDown.mouseout"/>
                  </use>
                  <path fill="none" stroke="white" stroke-width="1.5" d="M0,-3.0v7 M-2.5,-0.5L0,-3.0L2.5,-0.5"/>
                </g>
                <g id="arrowLeft" xlink:href="#dirArrow" transform="rotate(270) translate(-36 17)" onmousedown="handlePan(-1,0)">
                  <use xlink:href="#rim" fill="#404040">
                        <set attributeName="fill" to="#808080" begin="arrowLeft.mouseover" end="arrowLeft.mouseout"/>
                  </use>
                  <path fill="none" stroke="white" stroke-width="1.5" d="M0,-3.0v7 M-2.5,-0.5L0,-3.0L2.5,-0.5"/>
                </g>
        </g>
        <svg viewBox="0 0 15 15" width="100%" height="30px" preserveAspectRatio="xMaxYMin meet">
         <g id="arrow_out" transform="scale(0.3 0.3)">
          <a xlink:href="classparser_1_1_logo_parser_token_manager_a1bad232a9ce95d19e7133cbee0b538b5_cgraph_org.svg" target="_base">
           <rect id="button" ry="5" rx="5" y="6" x="6" height="38" width="38"
                fill="#f2f5e9" fill-opacity="0.5" stroke="#606060" stroke-width="1.0"/>
           <path id="arrow"
             d="M 11.500037,31.436501 C 11.940474,20.09759 22.043105,11.32322 32.158766,21.979434 L 37.068811,17.246167 C 37.068811,17.246167 37.088388,32 37.088388,32 L 22.160133,31.978069 C 22.160133,31.978069 26.997745,27.140456 26.997745,27.140456 C 18.528582,18.264221 13.291696,25.230495 11.500037,31.436501 z"
             style="fill:#404040;"/>
          </a>
         </g>
        </svg>
</svg>
