<?xml version="1.0" encoding="UTF-8" standalone="no"?>
<!DOCTYPE svg PUBLIC "-//W3C//DTD SVG 1.1//EN"
 "http://www.w3.org/Graphics/SVG/1.1/DTD/svg11.dtd">
<!-- Generated by graphviz version 2.36.0 (20140111.2315)
 -->
<!-- Title: parser.LogoParserTokenManager.jjCheckNAddTwoStates Pages: 1 -->
<svg width="4750pt" height="452pt"
 viewBox="0.00 0.00 4750.00 452.00" xmlns="http://www.w3.org/2000/svg" xmlns:xlink="http://www.w3.org/1999/xlink">
<g id="graph0" class="graph" transform="scale(1 1) rotate(0) translate(4 448)">
<title>parser.LogoParserTokenManager.jjCheckNAddTwoStates</title>
<polygon fill="white" stroke="none" points="-4,4 -4,-448 4746,-448 4746,4 -4,4"/>
<!-- Node1 -->
<g id="node1" class="node"><title>Node1</title>
<polygon fill="#bfbfbf" stroke="black" points="0.5,-282 0.5,-312 179.5,-312 179.5,-282 0.5,-282"/>
<text text-anchor="start" x="8.5" y="-300" font-family="Helvetica,sans-Serif" font-size="10.00">parser.LogoParserTokenManager.jj</text>
<text text-anchor="middle" x="90" y="-289" font-family="Helvetica,sans-Serif" font-size="10.00">CheckNAddTwoStates</text>
</g>
<!-- Node2 -->
<g id="node2" class="node"><title>Node2</title>
<g id="a_node2"><a xlink:href="../../d0/d8c/classparser_1_1_logo_parser_token_manager.html#a0071f141b41b403c8ab151c8c014a709" target="_top" xlink:title="parser.LogoParserTokenManager.jj\lMoveNfa_0">
<polygon fill="white" stroke="black" points="216.5,-282 216.5,-312 395.5,-312 395.5,-282 216.5,-282"/>
<text text-anchor="start" x="224.5" y="-300" font-family="Helvetica,sans-Serif" font-size="10.00">parser.LogoParserTokenManager.jj</text>
<text text-anchor="middle" x="306" y="-289" font-family="Helvetica,sans-Serif" font-size="10.00">MoveNfa_0</text>
</a>
</g>
</g>
<!-- Node1&#45;&gt;Node2 -->
<g id="edge1" class="edge"><title>Node1&#45;&gt;Node2</title>
<path fill="none" stroke="midnightblue" d="M189.645,-297C198.596,-297 207.625,-297 216.48,-297"/>
<polygon fill="midnightblue" stroke="midnightblue" points="189.587,-293.5 179.587,-297 189.587,-300.5 189.587,-293.5"/>
</g>
<!-- Node3 -->
<g id="node3" class="node"><title>Node3</title>
<g id="a_node3"><a xlink:href="../../d0/d8c/classparser_1_1_logo_parser_token_manager.html#aa065c8b0c977d3c1c9d9058f96664080" target="_top" xlink:title="parser.LogoParserTokenManager.jj\lStartNfa_0">
<polygon fill="white" stroke="black" points="432.5,-282 432.5,-312 611.5,-312 611.5,-282 432.5,-282"/>
<text text-anchor="start" x="440.5" y="-300" font-family="Helvetica,sans-Serif" font-size="10.00">parser.LogoParserTokenManager.jj</text>
<text text-anchor="middle" x="522" y="-289" font-family="Helvetica,sans-Serif" font-size="10.00">StartNfa_0</text>
</a>
</g>
</g>
<!-- Node2&#45;&gt;Node3 -->
<g id="edge2" class="edge"><title>Node2&#45;&gt;Node3</title>
<path fill="none" stroke="midnightblue" d="M405.645,-297C414.596,-297 423.625,-297 432.48,-297"/>
<polygon fill="midnightblue" stroke="midnightblue" points="405.587,-293.5 395.587,-297 405.587,-300.5 405.587,-293.5"/>
</g>
<!-- Node5 -->
<g id="node5" class="node"><title>Node5</title>
<g id="a_node5"><a xlink:href="../../d0/d8c/classparser_1_1_logo_parser_token_manager.html#a2b55f093fc0200c57a099eba2d9b37e2" target="_top" xlink:title="parser.LogoParserTokenManager.jj\lMoveStringLiteralDfa0_0">
<polygon fill="white" stroke="black" points="1944.5,-334 1944.5,-364 2123.5,-364 2123.5,-334 1944.5,-334"/>
<text text-anchor="start" x="1952.5" y="-352" font-family="Helvetica,sans-Serif" font-size="10.00">parser.LogoParserTokenManager.jj</text>
<text text-anchor="middle" x="2034" y="-341" font-family="Helvetica,sans-Serif" font-size="10.00">MoveStringLiteralDfa0_0</text>
</a>
</g>
</g>
<!-- Node2&#45;&gt;Node5 -->
<g id="edge50" class="edge"><title>Node2&#45;&gt;Node5</title>
<path fill="none" stroke="midnightblue" d="M344.542,-317.015C417.813,-354.155 585.935,-430 737,-430 737,-430 737,-430 1603,-430 1743.92,-430 1906.39,-387.47 1985.19,-364.046"/>
<polygon fill="midnightblue" stroke="midnightblue" points="345.752,-313.702 335.256,-312.257 342.56,-319.932 345.752,-313.702"/>
</g>
<!-- Node32 -->
<g id="node32" class="node"><title>Node32</title>
<g id="a_node32"><a xlink:href="../../d0/d8c/classparser_1_1_logo_parser_token_manager.html#a94b20a17d94554012918e876be221c46" target="_top" xlink:title="parser.LogoParserTokenManager.jj\lStartNfaWithStates_0">
<polygon fill="white" stroke="black" points="432.5,-99 432.5,-129 611.5,-129 611.5,-99 432.5,-99"/>
<text text-anchor="start" x="440.5" y="-117" font-family="Helvetica,sans-Serif" font-size="10.00">parser.LogoParserTokenManager.jj</text>
<text text-anchor="middle" x="522" y="-106" font-family="Helvetica,sans-Serif" font-size="10.00">StartNfaWithStates_0</text>
</a>
</g>
</g>
<!-- Node2&#45;&gt;Node32 -->
<g id="edge51" class="edge"><title>Node2&#45;&gt;Node32</title>
<path fill="none" stroke="midnightblue" d="M332.545,-275.156C376.532,-237.541 465.488,-161.47 503.324,-129.116"/>
<polygon fill="midnightblue" stroke="midnightblue" points="330.203,-272.553 324.877,-281.712 334.752,-277.873 330.203,-272.553"/>
</g>
<!-- Node4 -->
<g id="node4" class="node"><title>Node4</title>
<g id="a_node4"><a xlink:href="../../d0/d8c/classparser_1_1_logo_parser_token_manager.html#a99a01f0b68908e628349e9f09a2cbccd" target="_top" xlink:title="parser.LogoParserTokenManager.jj\lMoveStringLiteralDfa1_0">
<polygon fill="white" stroke="black" points="1728.5,-334 1728.5,-364 1907.5,-364 1907.5,-334 1728.5,-334"/>
<text text-anchor="start" x="1736.5" y="-352" font-family="Helvetica,sans-Serif" font-size="10.00">parser.LogoParserTokenManager.jj</text>
<text text-anchor="middle" x="1818" y="-341" font-family="Helvetica,sans-Serif" font-size="10.00">MoveStringLiteralDfa1_0</text>
</a>
</g>
</g>
<!-- Node3&#45;&gt;Node4 -->
<g id="edge3" class="edge"><title>Node3&#45;&gt;Node4</title>
<path fill="none" stroke="midnightblue" d="M561.713,-316.559C585.933,-327.997 618.109,-341.762 648,-350 779.916,-386.358 816.165,-392 953,-392 953,-392 953,-392 1387,-392 1505.54,-392 1641.55,-375.62 1728.32,-363.08"/>
<polygon fill="midnightblue" stroke="midnightblue" points="563.042,-313.315 552.512,-312.146 560.015,-319.627 563.042,-313.315"/>
</g>
<!-- Node27 -->
<g id="node27" class="node"><title>Node27</title>
<g id="a_node27"><a xlink:href="../../d0/d8c/classparser_1_1_logo_parser_token_manager.html#a26eaeb3ef169f93c03edbb3e26128b7a" target="_top" xlink:title="parser.LogoParserTokenManager.jj\lMoveStringLiteralDfa2_0">
<polygon fill="white" stroke="black" points="1512.5,-297 1512.5,-327 1691.5,-327 1691.5,-297 1512.5,-297"/>
<text text-anchor="start" x="1520.5" y="-315" font-family="Helvetica,sans-Serif" font-size="10.00">parser.LogoParserTokenManager.jj</text>
<text text-anchor="middle" x="1602" y="-304" font-family="Helvetica,sans-Serif" font-size="10.00">MoveStringLiteralDfa2_0</text>
</a>
</g>
</g>
<!-- Node3&#45;&gt;Node27 -->
<g id="edge40" class="edge"><title>Node3&#45;&gt;Node27</title>
<path fill="none" stroke="midnightblue" d="M602.965,-314.014C688.997,-330.811 830.037,-354 953,-354 953,-354 953,-354 1171,-354 1289.51,-354 1425.53,-338.001 1512.3,-325.752"/>
<polygon fill="midnightblue" stroke="midnightblue" points="603.497,-310.552 593.009,-312.051 602.143,-317.419 603.497,-310.552"/>
</g>
<!-- Node28 -->
<g id="node28" class="node"><title>Node28</title>
<g id="a_node28"><a xlink:href="../../d0/d8c/classparser_1_1_logo_parser_token_manager.html#a12bfedaecfaf646642cb1aba5b1bd6fb" target="_top" xlink:title="parser.LogoParserTokenManager.jj\lMoveStringLiteralDfa3_0">
<polygon fill="white" stroke="black" points="1296.5,-261 1296.5,-291 1475.5,-291 1475.5,-261 1296.5,-261"/>
<text text-anchor="start" x="1304.5" y="-279" font-family="Helvetica,sans-Serif" font-size="10.00">parser.LogoParserTokenManager.jj</text>
<text text-anchor="middle" x="1386" y="-268" font-family="Helvetica,sans-Serif" font-size="10.00">MoveStringLiteralDfa3_0</text>
</a>
</g>
</g>
<!-- Node3&#45;&gt;Node28 -->
<g id="edge42" class="edge"><title>Node3&#45;&gt;Node28</title>
<path fill="none" stroke="midnightblue" d="M621.935,-296.589C681.622,-296.201 759.185,-295.45 828,-294 993.409,-290.514 1186.37,-283.654 1296.27,-279.483"/>
<polygon fill="midnightblue" stroke="midnightblue" points="621.738,-293.09 611.76,-296.653 621.782,-300.09 621.738,-293.09"/>
</g>
<!-- Node29 -->
<g id="node29" class="node"><title>Node29</title>
<g id="a_node29"><a xlink:href="../../d0/d8c/classparser_1_1_logo_parser_token_manager.html#aa9aaf3af52d382735345487d2b89e0cf" target="_top" xlink:title="parser.LogoParserTokenManager.jj\lMoveStringLiteralDfa4_0">
<polygon fill="white" stroke="black" points="1080.5,-228 1080.5,-258 1259.5,-258 1259.5,-228 1080.5,-228"/>
<text text-anchor="start" x="1088.5" y="-246" font-family="Helvetica,sans-Serif" font-size="10.00">parser.LogoParserTokenManager.jj</text>
<text text-anchor="middle" x="1170" y="-235" font-family="Helvetica,sans-Serif" font-size="10.00">MoveStringLiteralDfa4_0</text>
</a>
</g>
</g>
<!-- Node3&#45;&gt;Node29 -->
<g id="edge44" class="edge"><title>Node3&#45;&gt;Node29</title>
<path fill="none" stroke="midnightblue" d="M622.145,-288.712C747.25,-278.255 960.516,-260.427 1080.41,-250.405"/>
<polygon fill="midnightblue" stroke="midnightblue" points="621.481,-285.256 611.807,-289.577 622.064,-292.231 621.481,-285.256"/>
</g>
<!-- Node30 -->
<g id="node30" class="node"><title>Node30</title>
<g id="a_node30"><a xlink:href="../../d0/d8c/classparser_1_1_logo_parser_token_manager.html#a4553920ced069b9d4852f1c1020bea38" target="_top" xlink:title="parser.LogoParserTokenManager.jj\lMoveStringLiteralDfa5_0">
<polygon fill="white" stroke="black" points="864.5,-200 864.5,-230 1043.5,-230 1043.5,-200 864.5,-200"/>
<text text-anchor="start" x="872.5" y="-218" font-family="Helvetica,sans-Serif" font-size="10.00">parser.LogoParserTokenManager.jj</text>
<text text-anchor="middle" x="954" y="-207" font-family="Helvetica,sans-Serif" font-size="10.00">MoveStringLiteralDfa5_0</text>
</a>
</g>
</g>
<!-- Node3&#45;&gt;Node30 -->
<g id="edge46" class="edge"><title>Node3&#45;&gt;Node30</title>
<path fill="none" stroke="midnightblue" d="M585.229,-279.276C605.179,-273.943 627.431,-268.356 648,-264 720.404,-248.666 803.377,-235.625 864.484,-226.861"/>
<polygon fill="midnightblue" stroke="midnightblue" points="584.074,-275.963 575.333,-281.951 585.9,-282.72 584.074,-275.963"/>
</g>
<!-- Node31 -->
<g id="node31" class="node"><title>Node31</title>
<g id="a_node31"><a xlink:href="../../d0/d8c/classparser_1_1_logo_parser_token_manager.html#a1bad232a9ce95d19e7133cbee0b538b5" target="_top" xlink:title="parser.LogoParserTokenManager.jj\lMoveStringLiteralDfa6_0">
<polygon fill="white" stroke="black" points="648.5,-181 648.5,-211 827.5,-211 827.5,-181 648.5,-181"/>
<text text-anchor="start" x="656.5" y="-199" font-family="Helvetica,sans-Serif" font-size="10.00">parser.LogoParserTokenManager.jj</text>
<text text-anchor="middle" x="738" y="-188" font-family="Helvetica,sans-Serif" font-size="10.00">MoveStringLiteralDfa6_0</text>
</a>
</g>
</g>
<!-- Node3&#45;&gt;Node31 -->
<g id="edge48" class="edge"><title>Node3&#45;&gt;Node31</title>
<path fill="none" stroke="midnightblue" d="M554.861,-276.642C579.608,-261.392 615.133,-240.711 648,-226 660.353,-220.471 674.051,-215.374 686.924,-211.01"/>
<polygon fill="midnightblue" stroke="midnightblue" points="552.9,-273.74 546.256,-281.993 556.597,-279.684 552.9,-273.74"/>
</g>
<!-- Node4&#45;&gt;Node5 -->
<g id="edge4" class="edge"><title>Node4&#45;&gt;Node5</title>
<path fill="none" stroke="midnightblue" d="M1917.65,-349C1926.6,-349 1935.62,-349 1944.48,-349"/>
<polygon fill="midnightblue" stroke="midnightblue" points="1917.59,-345.5 1907.59,-349 1917.59,-352.5 1917.59,-345.5"/>
</g>
<!-- Node6 -->
<g id="node6" class="node"><title>Node6</title>
<g id="a_node6"><a xlink:href="../../d0/d8c/classparser_1_1_logo_parser_token_manager.html#a3dee50e2286b70ba662519a865e63b77" target="_top" xlink:title="parser.LogoParserTokenManager.get\lNextToken">
<polygon fill="white" stroke="black" points="2160,-334 2160,-364 2350,-364 2350,-334 2160,-334"/>
<text text-anchor="start" x="2168" y="-352" font-family="Helvetica,sans-Serif" font-size="10.00">parser.LogoParserTokenManager.get</text>
<text text-anchor="middle" x="2255" y="-341" font-family="Helvetica,sans-Serif" font-size="10.00">NextToken</text>
</a>
</g>
</g>
<!-- Node5&#45;&gt;Node6 -->
<g id="edge5" class="edge"><title>Node5&#45;&gt;Node6</title>
<path fill="none" stroke="midnightblue" d="M2133.83,-349C2142.46,-349 2151.17,-349 2159.76,-349"/>
<polygon fill="midnightblue" stroke="midnightblue" points="2133.76,-345.5 2123.76,-349 2133.76,-352.5 2133.76,-345.5"/>
</g>
<!-- Node7 -->
<g id="node7" class="node"><title>Node7</title>
<g id="a_node7"><a xlink:href="../../d5/d0e/classparser_1_1_logo_parser.html#a7477b52c4469ea43d75f88fb805e37a1" target="_top" xlink:title="parser.LogoParser.getNext\lToken">
<polygon fill="white" stroke="black" points="2388.5,-397 2388.5,-427 2531.5,-427 2531.5,-397 2388.5,-397"/>
<text text-anchor="start" x="2396.5" y="-415" font-family="Helvetica,sans-Serif" font-size="10.00">parser.LogoParser.getNext</text>
<text text-anchor="middle" x="2460" y="-404" font-family="Helvetica,sans-Serif" font-size="10.00">Token</text>
</a>
</g>
</g>
<!-- Node6&#45;&gt;Node7 -->
<g id="edge6" class="edge"><title>Node6&#45;&gt;Node7</title>
<path fill="none" stroke="midnightblue" d="M2314.04,-367.014C2344.61,-376.5 2381.66,-387.999 2410.65,-396.996"/>
<polygon fill="midnightblue" stroke="midnightblue" points="2314.95,-363.631 2304.37,-364.01 2312.88,-370.317 2314.95,-363.631"/>
</g>
<!-- Node8 -->
<g id="node8" class="node"><title>Node8</title>
<g id="a_node8"><a xlink:href="../../d5/d0e/classparser_1_1_logo_parser.html#a63b7890a7d6323bcf938132f968e8157" target="_top" xlink:title="parser.LogoParser.getToken">
<polygon fill="white" stroke="black" points="2386,-358.5 2386,-377.5 2534,-377.5 2534,-358.5 2386,-358.5"/>
<text text-anchor="middle" x="2460" y="-365.5" font-family="Helvetica,sans-Serif" font-size="10.00">parser.LogoParser.getToken</text>
</a>
</g>
</g>
<!-- Node6&#45;&gt;Node8 -->
<g id="edge7" class="edge"><title>Node6&#45;&gt;Node8</title>
<path fill="none" stroke="midnightblue" d="M2360.24,-358.757C2368.91,-359.568 2377.54,-360.376 2385.9,-361.158"/>
<polygon fill="midnightblue" stroke="midnightblue" points="2360.35,-355.252 2350.07,-357.805 2359.7,-362.221 2360.35,-355.252"/>
</g>
<!-- Node9 -->
<g id="node9" class="node"><title>Node9</title>
<g id="a_node9"><a xlink:href="../../d5/d0e/classparser_1_1_logo_parser.html#a550039a3180ec86ef01f419aefc02edc" target="_top" xlink:title="parser.LogoParser.jj\l_consume_token">
<polygon fill="white" stroke="black" points="2405,-144 2405,-174 2515,-174 2515,-144 2405,-144"/>
<text text-anchor="start" x="2413" y="-162" font-family="Helvetica,sans-Serif" font-size="10.00">parser.LogoParser.jj</text>
<text text-anchor="middle" x="2460" y="-151" font-family="Helvetica,sans-Serif" font-size="10.00">_consume_token</text>
</a>
</g>
</g>
<!-- Node6&#45;&gt;Node9 -->
<g id="edge8" class="edge"><title>Node6&#45;&gt;Node9</title>
<path fill="none" stroke="midnightblue" d="M2279.79,-326.736C2321.63,-287.575 2407.33,-207.362 2442.94,-174.036"/>
<polygon fill="midnightblue" stroke="midnightblue" points="2277.18,-324.384 2272.27,-333.773 2281.96,-329.495 2277.18,-324.384"/>
</g>
<!-- Node26 -->
<g id="node26" class="node"><title>Node26</title>
<g id="a_node26"><a xlink:href="../../d5/d0e/classparser_1_1_logo_parser.html#a2e48e3ab2c1c075beca7bcc54d891afd" target="_top" xlink:title="parser.LogoParser.jj_ntk">
<polygon fill="white" stroke="black" points="2395,-320.5 2395,-339.5 2525,-339.5 2525,-320.5 2395,-320.5"/>
<text text-anchor="middle" x="2460" y="-327.5" font-family="Helvetica,sans-Serif" font-size="10.00">parser.LogoParser.jj_ntk</text>
</a>
</g>
</g>
<!-- Node6&#45;&gt;Node26 -->
<g id="edge33" class="edge"><title>Node6&#45;&gt;Node26</title>
<path fill="none" stroke="midnightblue" d="M2360.38,-339.23C2372.12,-338.132 2383.8,-337.038 2394.81,-336.008"/>
<polygon fill="midnightblue" stroke="midnightblue" points="2359.7,-335.779 2350.07,-340.195 2360.35,-342.748 2359.7,-335.779"/>
</g>
<!-- Node10 -->
<g id="node10" class="node"><title>Node10</title>
<g id="a_node10"><a xlink:href="../../d5/d0e/classparser_1_1_logo_parser.html#a82acce8328e52f3b2bcb90542cc800b7" target="_top" xlink:title="parser.LogoParser.arithm">
<polygon fill="white" stroke="black" points="2894.5,-196.5 2894.5,-215.5 3031.5,-215.5 3031.5,-196.5 2894.5,-196.5"/>
<text text-anchor="middle" x="2963" y="-203.5" font-family="Helvetica,sans-Serif" font-size="10.00">parser.LogoParser.arithm</text>
</a>
</g>
</g>
<!-- Node9&#45;&gt;Node10 -->
<g id="edge9" class="edge"><title>Node9&#45;&gt;Node10</title>
<path fill="none" stroke="midnightblue" d="M2525.14,-165.017C2620.08,-173.924 2797.24,-190.543 2894.23,-199.643"/>
<polygon fill="midnightblue" stroke="midnightblue" points="2525.38,-161.524 2515.09,-164.074 2524.72,-168.493 2525.38,-161.524"/>
</g>
<!-- Node11 -->
<g id="node11" class="node"><title>Node11</title>
<g id="a_node11"><a xlink:href="../../d5/d0e/classparser_1_1_logo_parser.html#a397c25c39976e5a1fb689e1f0dd40160" target="_top" xlink:title="parser.LogoParser.eval">
<polygon fill="white" stroke="black" points="3068.5,-163.5 3068.5,-182.5 3193.5,-182.5 3193.5,-163.5 3068.5,-163.5"/>
<text text-anchor="middle" x="3131" y="-170.5" font-family="Helvetica,sans-Serif" font-size="10.00">parser.LogoParser.eval</text>
</a>
</g>
</g>
<!-- Node9&#45;&gt;Node11 -->
<g id="edge25" class="edge"><title>Node9&#45;&gt;Node11</title>
<path fill="none" stroke="midnightblue" d="M2525.27,-160.345C2653.9,-163.037 2941.46,-169.054 3068.1,-171.705"/>
<polygon fill="midnightblue" stroke="midnightblue" points="2525.25,-156.844 2515.18,-160.134 2525.1,-163.842 2525.25,-156.844"/>
</g>
<!-- Node12 -->
<g id="node12" class="node"><title>Node12</title>
<g id="a_node12"><a xlink:href="../../d5/d0e/classparser_1_1_logo_parser.html#a6b0ba0c2b5b0bc8c2ef76863fffdb6a3" target="_top" xlink:title="parser.LogoParser.list">
<polygon fill="white" stroke="black" points="3422.5,-125.5 3422.5,-144.5 3541.5,-144.5 3541.5,-125.5 3422.5,-125.5"/>
<text text-anchor="middle" x="3482" y="-132.5" font-family="Helvetica,sans-Serif" font-size="10.00">parser.LogoParser.list</text>
</a>
</g>
</g>
<!-- Node9&#45;&gt;Node12 -->
<g id="edge27" class="edge"><title>Node9&#45;&gt;Node12</title>
<path fill="none" stroke="midnightblue" d="M2495.87,-139.083C2516.79,-127.897 2544.24,-114.517 2570,-106 2665.75,-74.3352 2692.15,-64 2793,-64 2793,-64 2793,-64 3132,-64 3253.81,-64 3394.82,-106.045 3453.34,-125.425"/>
<polygon fill="midnightblue" stroke="midnightblue" points="2494.16,-136.03 2487.04,-143.881 2497.5,-142.18 2494.16,-136.03"/>
</g>
<!-- Node13 -->
<g id="node13" class="node"><title>Node13</title>
<g id="a_node13"><a xlink:href="../../d5/d0e/classparser_1_1_logo_parser.html#a4a8825534e0488215d22bcd947bc4d41" target="_top" xlink:title="parser.LogoParser.expression">
<polygon fill="white" stroke="black" points="3578.5,-52.5 3578.5,-71.5 3735.5,-71.5 3735.5,-52.5 3578.5,-52.5"/>
<text text-anchor="middle" x="3657" y="-59.5" font-family="Helvetica,sans-Serif" font-size="10.00">parser.LogoParser.expression</text>
</a>
</g>
</g>
<!-- Node9&#45;&gt;Node13 -->
<g id="edge26" class="edge"><title>Node9&#45;&gt;Node13</title>
<path fill="none" stroke="midnightblue" d="M2480.93,-136.44C2501.17,-115.052 2534.51,-83.7718 2570,-67 2661.11,-23.9473 2692.23,-26 2793,-26 2793,-26 2793,-26 3309,-26 3411.81,-26 3530.85,-41.8286 3599.39,-52.4943"/>
<polygon fill="midnightblue" stroke="midnightblue" points="2478.32,-134.112 2474.09,-143.827 2483.45,-138.869 2478.32,-134.112"/>
</g>
<!-- Node23 -->
<g id="node23" class="node"><title>Node23</title>
<g id="a_node23"><a xlink:href="../../d5/d0e/classparser_1_1_logo_parser.html#ad6ed8e51959a6e19a2323444aa8331c8" target="_top" xlink:title="parser.LogoParser.statement">
<polygon fill="white" stroke="black" points="3230.5,-163.5 3230.5,-182.5 3385.5,-182.5 3385.5,-163.5 3230.5,-163.5"/>
<text text-anchor="middle" x="3308" y="-170.5" font-family="Helvetica,sans-Serif" font-size="10.00">parser.LogoParser.statement</text>
</a>
</g>
</g>
<!-- Node9&#45;&gt;Node23 -->
<g id="edge31" class="edge"><title>Node9&#45;&gt;Node23</title>
<path fill="none" stroke="midnightblue" d="M2524.76,-141.421C2591.19,-124.674 2698.57,-102 2793,-102 2793,-102 2793,-102 2964,-102 3083.8,-102 3222.34,-144.045 3279.83,-163.425"/>
<polygon fill="midnightblue" stroke="midnightblue" points="2523.68,-138.084 2514.86,-143.949 2525.41,-144.866 2523.68,-138.084"/>
</g>
<!-- Node24 -->
<g id="node24" class="node"><title>Node24</title>
<g id="a_node24"><a xlink:href="../../d5/d0e/classparser_1_1_logo_parser.html#a4bdaeff6df067fde6743ff07370c3b0b" target="_top" xlink:title="parser.LogoParser.pow">
<polygon fill="white" stroke="black" points="2570,-244.5 2570,-263.5 2694,-263.5 2694,-244.5 2570,-244.5"/>
<text text-anchor="middle" x="2632" y="-251.5" font-family="Helvetica,sans-Serif" font-size="10.00">parser.LogoParser.pow</text>
</a>
</g>
</g>
<!-- Node9&#45;&gt;Node24 -->
<g id="edge28" class="edge"><title>Node9&#45;&gt;Node24</title>
<path fill="none" stroke="midnightblue" d="M2489.86,-180.114C2511.29,-195.206 2541.6,-215.354 2570,-230 2580.52,-235.424 2592.56,-240.402 2603.15,-244.401"/>
<polygon fill="midnightblue" stroke="midnightblue" points="2491.72,-177.137 2481.54,-174.191 2487.66,-182.841 2491.72,-177.137"/>
</g>
<!-- Node25 -->
<g id="node25" class="node"><title>Node25</title>
<g id="a_node25"><a xlink:href="../../d5/d0e/classparser_1_1_logo_parser.html#a34f4226672a2711ce2691162fdb2124d" target="_top" xlink:title="parser.LogoParser.term">
<polygon fill="white" stroke="black" points="2730,-225.5 2730,-244.5 2858,-244.5 2858,-225.5 2730,-225.5"/>
<text text-anchor="middle" x="2794" y="-232.5" font-family="Helvetica,sans-Serif" font-size="10.00">parser.LogoParser.term</text>
</a>
</g>
</g>
<!-- Node9&#45;&gt;Node25 -->
<g id="edge32" class="edge"><title>Node9&#45;&gt;Node25</title>
<path fill="none" stroke="midnightblue" d="M2516.64,-177.056C2533.66,-182.253 2552.51,-187.679 2570,-192 2625.5,-205.714 2689.67,-217.687 2734.89,-225.493"/>
<polygon fill="midnightblue" stroke="midnightblue" points="2517.44,-173.64 2506.85,-174.033 2515.37,-180.328 2517.44,-173.64"/>
</g>
<!-- Node10&#45;&gt;Node11 -->
<g id="edge10" class="edge"><title>Node10&#45;&gt;Node11</title>
<path fill="none" stroke="midnightblue" d="M3022.06,-194.458C3041.68,-190.557 3063.35,-186.25 3082.09,-182.524"/>
<polygon fill="midnightblue" stroke="midnightblue" points="3021.14,-191.072 3012.01,-196.455 3022.5,-197.938 3021.14,-191.072"/>
</g>
<!-- Node11&#45;&gt;Node12 -->
<g id="edge11" class="edge"><title>Node11&#45;&gt;Node12</title>
<path fill="none" stroke="midnightblue" d="M3185.06,-161.549C3199.58,-158.735 3215.35,-155.968 3230,-154 3295.62,-145.186 3371.48,-140.15 3422.47,-137.507"/>
<polygon fill="midnightblue" stroke="midnightblue" points="3184.37,-158.118 3175.24,-163.496 3185.73,-164.984 3184.37,-158.118"/>
</g>
<!-- Node11&#45;&gt;Node23 -->
<g id="edge23" class="edge"><title>Node11&#45;&gt;Node23</title>
<path fill="none" stroke="midnightblue" d="M3203.8,-173C3212.51,-173 3221.44,-173 3230.22,-173"/>
<polygon fill="midnightblue" stroke="midnightblue" points="3203.7,-169.5 3193.7,-173 3203.7,-176.5 3203.7,-169.5"/>
</g>
<!-- Node12&#45;&gt;Node13 -->
<g id="edge12" class="edge"><title>Node12&#45;&gt;Node13</title>
<path fill="none" stroke="midnightblue" d="M3515.2,-121.414C3549.58,-106.903 3603.2,-84.2805 3633.38,-71.5458"/>
<polygon fill="midnightblue" stroke="midnightblue" points="3513.47,-118.344 3505.62,-125.457 3516.19,-124.793 3513.47,-118.344"/>
</g>
<!-- Node14 -->
<g id="node14" class="node"><title>Node14</title>
<g id="a_node14"><a xlink:href="../../d5/d0e/classparser_1_1_logo_parser.html#adefe3b97ad0d2d7fd0dcd13f7ef2c75e" target="_top" xlink:title="parser.LogoParser.parse">
<polygon fill="white" stroke="black" points="3591,-125.5 3591,-144.5 3723,-144.5 3723,-125.5 3591,-125.5"/>
<text text-anchor="middle" x="3657" y="-132.5" font-family="Helvetica,sans-Serif" font-size="10.00">parser.LogoParser.parse</text>
</a>
</g>
</g>
<!-- Node12&#45;&gt;Node14 -->
<g id="edge13" class="edge"><title>Node12&#45;&gt;Node14</title>
<path fill="none" stroke="midnightblue" d="M3551.78,-135C3564.7,-135 3578.16,-135 3590.95,-135"/>
<polygon fill="midnightblue" stroke="midnightblue" points="3551.57,-131.5 3541.57,-135 3551.57,-138.5 3551.57,-131.5"/>
</g>
<!-- Node15 -->
<g id="node15" class="node"><title>Node15</title>
<g id="a_node15"><a xlink:href="../../d6/d95/classparser_1_1_parser.html#af3d0cef45b9f02f1707959c08d8f3797" target="_top" xlink:title="parser.Parser.parse">
<polygon fill="white" stroke="black" points="3772.5,-125.5 3772.5,-144.5 3881.5,-144.5 3881.5,-125.5 3772.5,-125.5"/>
<text text-anchor="middle" x="3827" y="-132.5" font-family="Helvetica,sans-Serif" font-size="10.00">parser.Parser.parse</text>
</a>
</g>
</g>
<!-- Node14&#45;&gt;Node15 -->
<g id="edge14" class="edge"><title>Node14&#45;&gt;Node15</title>
<path fill="none" stroke="midnightblue" d="M3733.8,-135C3746.83,-135 3760.12,-135 3772.41,-135"/>
<polygon fill="midnightblue" stroke="midnightblue" points="3733.43,-131.5 3723.43,-135 3733.43,-138.5 3733.43,-131.5"/>
</g>
<!-- Node16 -->
<g id="node16" class="node"><title>Node16</title>
<g id="a_node16"><a xlink:href="../../d4/d06/classinput_1_1_input_executor.html#a687a9f2cbed5d27a2c7b1336a1cab8aa" target="_top" xlink:title="input.InputExecutor.process\lInput">
<polygon fill="white" stroke="black" points="3918.5,-164 3918.5,-194 4067.5,-194 4067.5,-164 3918.5,-164"/>
<text text-anchor="start" x="3926.5" y="-182" font-family="Helvetica,sans-Serif" font-size="10.00">input.InputExecutor.process</text>
<text text-anchor="middle" x="3993" y="-171" font-family="Helvetica,sans-Serif" font-size="10.00">Input</text>
</a>
</g>
</g>
<!-- Node15&#45;&gt;Node16 -->
<g id="edge15" class="edge"><title>Node15&#45;&gt;Node16</title>
<path fill="none" stroke="midnightblue" d="M3873.36,-147.169C3892.7,-152.357 3915.46,-158.465 3935.85,-163.935"/>
<polygon fill="midnightblue" stroke="midnightblue" points="3874.15,-143.758 3863.59,-144.547 3872.34,-150.519 3874.15,-143.758"/>
</g>
<!-- Node17 -->
<g id="node17" class="node"><title>Node17</title>
<g id="a_node17"><a xlink:href="../../d6/d95/classparser_1_1_parser.html#ae90f8410be9931ec3f349085c8fdae71" target="_top" xlink:title="parser.Parser.parseFile">
<polygon fill="white" stroke="black" points="3931,-125.5 3931,-144.5 4055,-144.5 4055,-125.5 3931,-125.5"/>
<text text-anchor="middle" x="3993" y="-132.5" font-family="Helvetica,sans-Serif" font-size="10.00">parser.Parser.parseFile</text>
</a>
</g>
</g>
<!-- Node15&#45;&gt;Node17 -->
<g id="edge16" class="edge"><title>Node15&#45;&gt;Node17</title>
<path fill="none" stroke="midnightblue" d="M3891.82,-135C3904.63,-135 3918.06,-135 3930.79,-135"/>
<polygon fill="midnightblue" stroke="midnightblue" points="3891.7,-131.5 3881.7,-135 3891.7,-138.5 3891.7,-131.5"/>
</g>
<!-- Node22 -->
<g id="node22" class="node"><title>Node22</title>
<g id="a_node22"><a xlink:href="../../d5/d56/class_workspace.html#a0ed8fb487512971086b6f3ed0d74e4ae" target="_top" xlink:title="Workspace.sendUserInput">
<polygon fill="white" stroke="black" points="4109,-83.5 4109,-102.5 4249,-102.5 4249,-83.5 4109,-83.5"/>
<text text-anchor="middle" x="4179" y="-90.5" font-family="Helvetica,sans-Serif" font-size="10.00">Workspace.sendUserInput</text>
</a>
</g>
</g>
<!-- Node15&#45;&gt;Node22 -->
<g id="edge21" class="edge"><title>Node15&#45;&gt;Node22</title>
<path fill="none" stroke="midnightblue" d="M3878.23,-123.284C3891.14,-120.581 3905.04,-117.934 3918,-116 3982.31,-106.402 4056.22,-100.337 4108.76,-96.8606"/>
<polygon fill="midnightblue" stroke="midnightblue" points="3877.18,-119.931 3868.14,-125.452 3878.65,-126.775 3877.18,-119.931"/>
</g>
<!-- Node18 -->
<g id="node18" class="node"><title>Node18</title>
<g id="a_node18"><a xlink:href="../../d9/de8/class_file_chooser_feature.html#ad742b8e9d07e8151f0a9ff1972867ce8" target="_top" xlink:title="FileChooserFeature.openFile\lChooser">
<polygon fill="white" stroke="black" points="4104.5,-122 4104.5,-152 4253.5,-152 4253.5,-122 4104.5,-122"/>
<text text-anchor="start" x="4112.5" y="-140" font-family="Helvetica,sans-Serif" font-size="10.00">FileChooserFeature.openFile</text>
<text text-anchor="middle" x="4179" y="-129" font-family="Helvetica,sans-Serif" font-size="10.00">Chooser</text>
</a>
</g>
</g>
<!-- Node17&#45;&gt;Node18 -->
<g id="edge17" class="edge"><title>Node17&#45;&gt;Node18</title>
<path fill="none" stroke="midnightblue" d="M4065.17,-135.774C4078.02,-135.913 4091.44,-136.059 4104.35,-136.2"/>
<polygon fill="midnightblue" stroke="midnightblue" points="4065.05,-132.272 4055.01,-135.663 4064.98,-139.272 4065.05,-132.272"/>
</g>
<!-- Node19 -->
<g id="node19" class="node"><title>Node19</title>
<g id="a_node19"><a xlink:href="../../d5/d56/class_workspace.html#a6babd032d9af86fbc23812272d59a2d2" target="_top" xlink:title="Workspace.addFeatureButtons">
<polygon fill="white" stroke="black" points="4290,-125.5 4290,-144.5 4452,-144.5 4452,-125.5 4290,-125.5"/>
<text text-anchor="middle" x="4371" y="-132.5" font-family="Helvetica,sans-Serif" font-size="10.00">Workspace.addFeatureButtons</text>
</a>
</g>
</g>
<!-- Node18&#45;&gt;Node19 -->
<g id="edge18" class="edge"><title>Node18&#45;&gt;Node19</title>
<path fill="none" stroke="midnightblue" d="M4263.77,-136.118C4272.38,-136.028 4281.12,-135.936 4289.7,-135.845"/>
<polygon fill="midnightblue" stroke="midnightblue" points="4263.69,-132.619 4253.73,-136.224 4263.77,-139.618 4263.69,-132.619"/>
</g>
<!-- Node20 -->
<g id="node20" class="node"><title>Node20</title>
<g id="a_node20"><a xlink:href="../../d5/d56/class_workspace.html#a429d535dfd8427637b7715f0b1e1df1b" target="_top" xlink:title="Workspace.createWorkspace">
<polygon fill="white" stroke="black" points="4488,-105.5 4488,-124.5 4640,-124.5 4640,-105.5 4488,-105.5"/>
<text text-anchor="middle" x="4564" y="-112.5" font-family="Helvetica,sans-Serif" font-size="10.00">Workspace.createWorkspace</text>
</a>
</g>
</g>
<!-- Node19&#45;&gt;Node20 -->
<g id="edge19" class="edge"><title>Node19&#45;&gt;Node20</title>
<path fill="none" stroke="midnightblue" d="M4462.22,-125.553C4470.82,-124.652 4479.48,-123.746 4487.91,-122.863"/>
<polygon fill="midnightblue" stroke="midnightblue" points="4461.75,-122.083 4452.17,-126.605 4462.48,-129.045 4461.75,-122.083"/>
</g>
<!-- Node21 -->
<g id="node21" class="node"><title>Node21</title>
<g id="a_node21"><a xlink:href="../../d0/d4b/class_main.html#aaa75b38812324d0f17c89f139bde6ada" target="_top" xlink:title="Main.start">
<polygon fill="white" stroke="black" points="4676.5,-105.5 4676.5,-124.5 4741.5,-124.5 4741.5,-105.5 4676.5,-105.5"/>
<text text-anchor="middle" x="4709" y="-112.5" font-family="Helvetica,sans-Serif" font-size="10.00">Main.start</text>
</a>
</g>
</g>
<!-- Node20&#45;&gt;Node21 -->
<g id="edge20" class="edge"><title>Node20&#45;&gt;Node21</title>
<path fill="none" stroke="midnightblue" d="M4650.39,-115C4659.63,-115 4668.55,-115 4676.5,-115"/>
<polygon fill="midnightblue" stroke="midnightblue" points="4650.27,-111.5 4640.27,-115 4650.27,-118.5 4650.27,-111.5"/>
</g>
<!-- Node22&#45;&gt;Node20 -->
<g id="edge22" class="edge"><title>Node22&#45;&gt;Node20</title>
<path fill="none" stroke="midnightblue" d="M4259.47,-97.5646C4326.6,-101.421 4422.08,-106.905 4487.94,-110.688"/>
<polygon fill="midnightblue" stroke="midnightblue" points="4259.54,-94.0634 4249.36,-96.984 4259.14,-101.052 4259.54,-94.0634"/>
</g>
<!-- Node23&#45;&gt;Node12 -->
<g id="edge24" class="edge"><title>Node23&#45;&gt;Node12</title>
<path fill="none" stroke="midnightblue" d="M3362.2,-161.247C3386.52,-155.874 3414.95,-149.591 3437.91,-144.52"/>
<polygon fill="midnightblue" stroke="midnightblue" points="3361.41,-157.836 3352.4,-163.411 3362.92,-164.671 3361.41,-157.836"/>
</g>
<!-- Node24&#45;&gt;Node25 -->
<g id="edge29" class="edge"><title>Node24&#45;&gt;Node25</title>
<path fill="none" stroke="midnightblue" d="M2704.6,-245.497C2713.04,-244.495 2721.6,-243.479 2729.91,-242.492"/>
<polygon fill="midnightblue" stroke="midnightblue" points="2703.92,-242.054 2694.4,-246.708 2704.75,-249.005 2703.92,-242.054"/>
</g>
<!-- Node25&#45;&gt;Node10 -->
<g id="edge30" class="edge"><title>Node25&#45;&gt;Node10</title>
<path fill="none" stroke="midnightblue" d="M2860.21,-223.677C2875.75,-220.978 2892.18,-218.125 2907.2,-215.517"/>
<polygon fill="midnightblue" stroke="midnightblue" points="2859.4,-220.265 2850.14,-225.424 2860.6,-227.161 2859.4,-220.265"/>
</g>
<!-- Node26&#45;&gt;Node10 -->
<g id="edge34" class="edge"><title>Node26&#45;&gt;Node10</title>
<path fill="none" stroke="midnightblue" d="M2535.48,-325.214C2581.49,-321.388 2641.56,-314.823 2694,-304 2768.63,-288.598 2786.8,-281.141 2858,-254 2888.47,-242.384 2922.58,-225.952 2943.17,-215.641"/>
<polygon fill="midnightblue" stroke="midnightblue" points="2534.97,-321.743 2525.29,-326.035 2535.54,-328.72 2534.97,-321.743"/>
</g>
<!-- Node26&#45;&gt;Node11 -->
<g id="edge35" class="edge"><title>Node26&#45;&gt;Node11</title>
<path fill="none" stroke="midnightblue" d="M2535.18,-332.981C2581.09,-333.852 2641.15,-333.233 2694,-327 2849.83,-308.623 2888.9,-289.366 3032,-225 3061.51,-211.727 3094.49,-193.48 3113.68,-182.504"/>
<polygon fill="midnightblue" stroke="midnightblue" points="2535.09,-329.479 2525.02,-332.76 2534.94,-336.477 2535.09,-329.479"/>
</g>
<!-- Node26&#45;&gt;Node12 -->
<g id="edge36" class="edge"><title>Node26&#45;&gt;Node12</title>
<path fill="none" stroke="midnightblue" d="M2521.76,-343.016C2526.01,-344.769 2530.14,-346.754 2534,-349 2553.83,-360.537 2550.17,-374.465 2570,-386 2658.53,-437.486 2690.59,-444 2793,-444 2793,-444 2793,-444 3132,-444 3317.32,-444 3450.36,-196.742 3476.36,-144.587"/>
<polygon fill="midnightblue" stroke="midnightblue" points="2522.88,-339.702 2512.29,-339.536 2520.47,-346.272 2522.88,-339.702"/>
</g>
<!-- Node26&#45;&gt;Node23 -->
<g id="edge38" class="edge"><title>Node26&#45;&gt;Node23</title>
<path fill="none" stroke="midnightblue" d="M2508.26,-342.054C2593.02,-363.487 2764.7,-406 2793,-406 2793,-406 2793,-406 2964,-406 3125.61,-406 3267.56,-226.812 3300.04,-182.715"/>
<polygon fill="midnightblue" stroke="midnightblue" points="2508.92,-338.611 2498.37,-339.548 2507.2,-345.397 2508.92,-338.611"/>
</g>
<!-- Node26&#45;&gt;Node24 -->
<g id="edge37" class="edge"><title>Node26&#45;&gt;Node24</title>
<path fill="none" stroke="midnightblue" d="M2489.16,-315.895C2511.02,-305.108 2542.19,-290.085 2570,-278 2581.59,-272.965 2594.59,-267.784 2605.61,-263.53"/>
<polygon fill="midnightblue" stroke="midnightblue" points="2487.51,-312.805 2480.11,-320.382 2490.62,-319.077 2487.51,-312.805"/>
</g>
<!-- Node26&#45;&gt;Node25 -->
<g id="edge39" class="edge"><title>Node26&#45;&gt;Node25</title>
<path fill="none" stroke="midnightblue" d="M2517.25,-318.336C2564.78,-307.981 2634.45,-291.632 2694,-273 2720.71,-264.645 2750.6,-252.815 2770.48,-244.582"/>
<polygon fill="midnightblue" stroke="midnightblue" points="2516.49,-314.919 2507.45,-320.453 2517.97,-321.761 2516.49,-314.919"/>
</g>
<!-- Node27&#45;&gt;Node4 -->
<g id="edge41" class="edge"><title>Node27&#45;&gt;Node4</title>
<path fill="none" stroke="midnightblue" d="M1700,-328.771C1710.01,-330.502 1720.14,-332.254 1730.04,-333.964"/>
<polygon fill="midnightblue" stroke="midnightblue" points="1700.49,-325.304 1690.04,-327.049 1699.3,-332.202 1700.49,-325.304"/>
</g>
<!-- Node28&#45;&gt;Node27 -->
<g id="edge43" class="edge"><title>Node28&#45;&gt;Node27</title>
<path fill="none" stroke="midnightblue" d="M1485.65,-292.595C1494.6,-294.1 1503.62,-295.619 1512.48,-297.109"/>
<polygon fill="midnightblue" stroke="midnightblue" points="1486.03,-289.11 1475.59,-290.902 1484.87,-296.013 1486.03,-289.11"/>
</g>
<!-- Node29&#45;&gt;Node28 -->
<g id="edge45" class="edge"><title>Node29&#45;&gt;Node28</title>
<path fill="none" stroke="midnightblue" d="M1269.65,-258.212C1278.6,-259.592 1287.62,-260.984 1296.48,-262.35"/>
<polygon fill="midnightblue" stroke="midnightblue" points="1270,-254.726 1259.59,-256.661 1268.94,-261.644 1270,-254.726"/>
</g>
<!-- Node30&#45;&gt;Node29 -->
<g id="edge47" class="edge"><title>Node30&#45;&gt;Node29</title>
<path fill="none" stroke="midnightblue" d="M1053.65,-227.907C1062.6,-229.078 1071.62,-230.259 1080.48,-231.418"/>
<polygon fill="midnightblue" stroke="midnightblue" points="1053.96,-224.418 1043.59,-226.591 1053.05,-231.359 1053.96,-224.418"/>
</g>
<!-- Node31&#45;&gt;Node30 -->
<g id="edge49" class="edge"><title>Node31&#45;&gt;Node30</title>
<path fill="none" stroke="midnightblue" d="M837.645,-204.758C846.596,-205.553 855.625,-206.355 864.48,-207.141"/>
<polygon fill="midnightblue" stroke="midnightblue" points="837.857,-201.263 827.587,-203.865 837.238,-208.236 837.857,-201.263"/>
</g>
<!-- Node32&#45;&gt;Node5 -->
<g id="edge52" class="edge"><title>Node32&#45;&gt;Node5</title>
<path fill="none" stroke="midnightblue" d="M552.877,-93.1054C577.32,-77.0646 613.385,-55.7362 648,-44 777.707,-0.0237679 816.041,-0 953,-0 953,-0 953,-0 1603,-0 1817.89,-0 1985.31,-266.012 2024.36,-333.554"/>
<polygon fill="midnightblue" stroke="midnightblue" points="550.797,-90.2859 544.422,-98.7483 554.683,-96.1084 550.797,-90.2859"/>
</g>
<!-- Node32&#45;&gt;Node27 -->
<g id="edge53" class="edge"><title>Node32&#45;&gt;Node27</title>
<path fill="none" stroke="midnightblue" d="M583.851,-96.3162C666.625,-73.8613 819.687,-38 953,-38 953,-38 953,-38 1171,-38 1365.3,-38 1542.53,-239.437 1589.12,-296.878"/>
<polygon fill="midnightblue" stroke="midnightblue" points="582.831,-92.9667 574.112,-98.9848 584.681,-99.7179 582.831,-92.9667"/>
</g>
<!-- Node32&#45;&gt;Node28 -->
<g id="edge54" class="edge"><title>Node32&#45;&gt;Node28</title>
<path fill="none" stroke="midnightblue" d="M621.989,-110.485C681.696,-109.078 759.261,-108.508 828,-112 924.372,-116.895 950.183,-111.419 1044,-134 1144.14,-158.104 1165.23,-177.636 1260,-218 1292.36,-231.781 1328.77,-248.86 1353.91,-260.905"/>
<polygon fill="midnightblue" stroke="midnightblue" points="621.722,-106.99 611.812,-110.737 621.895,-113.988 621.722,-106.99"/>
</g>
<!-- Node32&#45;&gt;Node29 -->
<g id="edge55" class="edge"><title>Node32&#45;&gt;Node29</title>
<path fill="none" stroke="midnightblue" d="M621.845,-114.246C681.821,-115.697 759.713,-119.898 828,-131 926.227,-146.969 949.977,-157.392 1044,-190 1076.18,-201.161 1111.86,-216.608 1136.83,-227.947"/>
<polygon fill="midnightblue" stroke="midnightblue" points="621.696,-110.742 611.622,-114.021 621.542,-117.74 621.696,-110.742"/>
</g>
<!-- Node32&#45;&gt;Node30 -->
<g id="edge56" class="edge"><title>Node32&#45;&gt;Node30</title>
<path fill="none" stroke="midnightblue" d="M621.439,-128.453C681.614,-138.26 759.855,-152.755 828,-171 857.78,-178.973 890.632,-190.655 915.181,-199.978"/>
<polygon fill="midnightblue" stroke="midnightblue" points="621.992,-124.997 611.562,-126.859 620.877,-131.908 621.992,-124.997"/>
</g>
<!-- Node32&#45;&gt;Node31 -->
<g id="edge57" class="edge"><title>Node32&#45;&gt;Node31</title>
<path fill="none" stroke="midnightblue" d="M566.967,-133.163C590.79,-143.325 620.833,-155.784 648,-166 661.583,-171.108 676.479,-176.29 690.133,-180.877"/>
<polygon fill="midnightblue" stroke="midnightblue" points="568.068,-129.827 557.498,-129.106 565.311,-136.261 568.068,-129.827"/>
</g>
</g>
</svg>
