<?xml version="1.0" encoding="UTF-8" standalone="no"?>
<!DOCTYPE svg PUBLIC "-//W3C//DTD SVG 1.1//EN"
 "http://www.w3.org/Graphics/SVG/1.1/DTD/svg11.dtd">
<!-- Generated by graphviz version 2.36.0 (20140111.2315)
 -->
<!-- Title: parser.LogoParserTokenManager.jjMoveStringLiteralDfa5_0 Pages: 1 -->
<svg width="1492pt" height="308pt"
 viewBox="0.00 0.00 1492.00 308.00" xmlns="http://www.w3.org/2000/svg" xmlns:xlink="http://www.w3.org/1999/xlink">
<g id="graph0" class="graph" transform="scale(1 1) rotate(0) translate(4 304)">
<title>parser.LogoParserTokenManager.jjMoveStringLiteralDfa5_0</title>
<polygon fill="white" stroke="none" points="-4,4 -4,-304 1488,-304 1488,4 -4,4"/>
<!-- Node1 -->
<g id="node1" class="node"><title>Node1</title>
<polygon fill="#bfbfbf" stroke="black" points="0.5,-99 0.5,-129 179.5,-129 179.5,-99 0.5,-99"/>
<text text-anchor="start" x="8.5" y="-117" font-family="Helvetica,sans-Serif" font-size="10.00">parser.LogoParserTokenManager.jj</text>
<text text-anchor="middle" x="90" y="-106" font-family="Helvetica,sans-Serif" font-size="10.00">MoveStringLiteralDfa5_0</text>
</g>
<!-- Node2 -->
<g id="node2" class="node"><title>Node2</title>
<g id="a_node2"><a xlink:href="../../d0/d8c/classparser_1_1_logo_parser_token_manager.html#a1bad232a9ce95d19e7133cbee0b538b5" target="_top" xlink:title="parser.LogoParserTokenManager.jj\lMoveStringLiteralDfa6_0">
<polygon fill="white" stroke="black" points="216.5,-99 216.5,-129 395.5,-129 395.5,-99 216.5,-99"/>
<text text-anchor="start" x="224.5" y="-117" font-family="Helvetica,sans-Serif" font-size="10.00">parser.LogoParserTokenManager.jj</text>
<text text-anchor="middle" x="306" y="-106" font-family="Helvetica,sans-Serif" font-size="10.00">MoveStringLiteralDfa6_0</text>
</a>
</g>
</g>
<!-- Node1&#45;&gt;Node2 -->
<g id="edge1" class="edge"><title>Node1&#45;&gt;Node2</title>
<path fill="none" stroke="midnightblue" d="M179.587,-114C188.442,-114 197.472,-114 206.422,-114"/>
<polygon fill="midnightblue" stroke="midnightblue" points="206.48,-117.5 216.48,-114 206.48,-110.5 206.48,-117.5"/>
</g>
<!-- Node3 -->
<g id="node3" class="node"><title>Node3</title>
<g id="a_node3"><a xlink:href="../../d0/d8c/classparser_1_1_logo_parser_token_manager.html#aa065c8b0c977d3c1c9d9058f96664080" target="_top" xlink:title="parser.LogoParserTokenManager.jj\lStartNfa_0">
<polygon fill="white" stroke="black" points="432.5,-167 432.5,-197 611.5,-197 611.5,-167 432.5,-167"/>
<text text-anchor="start" x="440.5" y="-185" font-family="Helvetica,sans-Serif" font-size="10.00">parser.LogoParserTokenManager.jj</text>
<text text-anchor="middle" x="522" y="-174" font-family="Helvetica,sans-Serif" font-size="10.00">StartNfa_0</text>
</a>
</g>
</g>
<!-- Node1&#45;&gt;Node3 -->
<g id="edge22" class="edge"><title>Node1&#45;&gt;Node3</title>
<path fill="none" stroke="midnightblue" d="M166.252,-129.034C182.626,-132.142 199.874,-135.29 216,-138 284.702,-149.545 362.426,-160.729 422.219,-168.933"/>
<polygon fill="midnightblue" stroke="midnightblue" points="422.029,-172.439 432.411,-170.326 422.977,-165.504 422.029,-172.439"/>
</g>
<!-- Node9 -->
<g id="node9" class="node"><title>Node9</title>
<g id="a_node9"><a xlink:href="../../d4/dad/classparser_1_1_simple_char_stream.html#a9f80cee02b99e8e200afa646e3b25e29" target="_top" xlink:title="parser.SimpleCharStream.readChar">
<polygon fill="white" stroke="black" points="864,-46.5 864,-65.5 1052,-65.5 1052,-46.5 864,-46.5"/>
<text text-anchor="middle" x="958" y="-53.5" font-family="Helvetica,sans-Serif" font-size="10.00">parser.SimpleCharStream.readChar</text>
</a>
</g>
</g>
<!-- Node1&#45;&gt;Node9 -->
<g id="edge25" class="edge"><title>Node1&#45;&gt;Node9</title>
<path fill="none" stroke="midnightblue" d="M122.68,-98.977C147.542,-87.7682 183.301,-72.9109 216,-64 454.321,0.946388 751.968,-27.0259 885.9,-45.0719"/>
<polygon fill="midnightblue" stroke="midnightblue" points="885.648,-48.5699 896.031,-46.4603 886.599,-41.6348 885.648,-48.5699"/>
</g>
<!-- Node15 -->
<g id="node15" class="node"><title>Node15</title>
<g id="a_node15"><a xlink:href="../../d0/d8c/classparser_1_1_logo_parser_token_manager.html#a1f212a863542f9f3993faf51bb46ae8e" target="_top" xlink:title="parser.LogoParserTokenManager.jj\lStopStringLiteralDfa_0">
<polygon fill="white" stroke="black" points="648.5,-178 648.5,-208 827.5,-208 827.5,-178 648.5,-178"/>
<text text-anchor="start" x="656.5" y="-196" font-family="Helvetica,sans-Serif" font-size="10.00">parser.LogoParserTokenManager.jj</text>
<text text-anchor="middle" x="738" y="-185" font-family="Helvetica,sans-Serif" font-size="10.00">StopStringLiteralDfa_0</text>
</a>
</g>
</g>
<!-- Node1&#45;&gt;Node15 -->
<g id="edge24" class="edge"><title>Node1&#45;&gt;Node15</title>
<path fill="none" stroke="midnightblue" d="M121.927,-129.022C146.826,-140.585 182.991,-156.198 216,-166 385.576,-216.358 435.342,-215.162 612,-206 620.549,-205.557 629.413,-204.944 638.296,-204.224"/>
<polygon fill="midnightblue" stroke="midnightblue" points="638.65,-207.707 648.317,-203.369 638.055,-200.732 638.65,-207.707"/>
</g>
<!-- Node16 -->
<g id="node16" class="node"><title>Node16</title>
<g id="a_node16"><a xlink:href="../../d0/d8c/classparser_1_1_logo_parser_token_manager.html#a94b20a17d94554012918e876be221c46" target="_top" xlink:title="parser.LogoParserTokenManager.jj\lStartNfaWithStates_0">
<polygon fill="white" stroke="black" points="432.5,-41 432.5,-71 611.5,-71 611.5,-41 432.5,-41"/>
<text text-anchor="start" x="440.5" y="-59" font-family="Helvetica,sans-Serif" font-size="10.00">parser.LogoParserTokenManager.jj</text>
<text text-anchor="middle" x="522" y="-48" font-family="Helvetica,sans-Serif" font-size="10.00">StartNfaWithStates_0</text>
</a>
</g>
</g>
<!-- Node1&#45;&gt;Node16 -->
<g id="edge23" class="edge"><title>Node1&#45;&gt;Node16</title>
<path fill="none" stroke="midnightblue" d="M160.555,-98.9398C178.557,-95.358 197.954,-91.7752 216,-89 284.548,-78.4585 362.275,-70.1029 422.107,-64.4368"/>
<polygon fill="midnightblue" stroke="midnightblue" points="422.677,-67.8988 432.306,-63.4805 422.023,-60.9294 422.677,-67.8988"/>
</g>
<!-- Node2&#45;&gt;Node3 -->
<g id="edge2" class="edge"><title>Node2&#45;&gt;Node3</title>
<path fill="none" stroke="midnightblue" d="M354.228,-129.007C386.492,-139.259 429.432,-152.904 463.66,-163.78"/>
<polygon fill="midnightblue" stroke="midnightblue" points="462.933,-167.221 473.523,-166.914 465.053,-160.55 462.933,-167.221"/>
</g>
<!-- Node2&#45;&gt;Node9 -->
<g id="edge17" class="edge"><title>Node2&#45;&gt;Node9</title>
<path fill="none" stroke="midnightblue" d="M395.556,-107.168C499.265,-99.0174 676.206,-84.6446 828,-70 839.013,-68.9375 850.548,-67.7674 862,-66.5701"/>
<polygon fill="midnightblue" stroke="midnightblue" points="862.449,-70.0423 872.027,-65.513 861.715,-63.0809 862.449,-70.0423"/>
</g>
<!-- Node2&#45;&gt;Node15 -->
<g id="edge18" class="edge"><title>Node2&#45;&gt;Node15</title>
<path fill="none" stroke="midnightblue" d="M395.745,-122.799C456.955,-129.771 539.956,-141.018 612,-157 628.333,-160.623 631.946,-163.293 648,-168 656.081,-170.369 664.588,-172.817 673.007,-175.213"/>
<polygon fill="midnightblue" stroke="midnightblue" points="672.243,-178.634 682.819,-177.992 674.151,-171.899 672.243,-178.634"/>
</g>
<!-- Node2&#45;&gt;Node16 -->
<g id="edge19" class="edge"><title>Node2&#45;&gt;Node16</title>
<path fill="none" stroke="midnightblue" d="M362.389,-98.9881C390.872,-91.2682 425.773,-81.8093 455.577,-73.7316"/>
<polygon fill="midnightblue" stroke="midnightblue" points="456.736,-77.0437 465.472,-71.0496 454.905,-70.2875 456.736,-77.0437"/>
</g>
<!-- Node4 -->
<g id="node4" class="node"><title>Node4</title>
<g id="a_node4"><a xlink:href="../../d0/d8c/classparser_1_1_logo_parser_token_manager.html#a0071f141b41b403c8ab151c8c014a709" target="_top" xlink:title="parser.LogoParserTokenManager.jj\lMoveNfa_0">
<polygon fill="white" stroke="black" points="648.5,-129 648.5,-159 827.5,-159 827.5,-129 648.5,-129"/>
<text text-anchor="start" x="656.5" y="-147" font-family="Helvetica,sans-Serif" font-size="10.00">parser.LogoParserTokenManager.jj</text>
<text text-anchor="middle" x="738" y="-136" font-family="Helvetica,sans-Serif" font-size="10.00">MoveNfa_0</text>
</a>
</g>
</g>
<!-- Node3&#45;&gt;Node4 -->
<g id="edge3" class="edge"><title>Node3&#45;&gt;Node4</title>
<path fill="none" stroke="midnightblue" d="M607.578,-166.981C618.964,-164.96 630.704,-162.875 642.251,-160.825"/>
<polygon fill="midnightblue" stroke="midnightblue" points="643.101,-164.228 652.335,-159.034 641.877,-157.336 643.101,-164.228"/>
</g>
<!-- Node3&#45;&gt;Node15 -->
<g id="edge16" class="edge"><title>Node3&#45;&gt;Node15</title>
<path fill="none" stroke="midnightblue" d="M611.587,-186.554C620.442,-187.009 629.472,-187.473 638.422,-187.933"/>
<polygon fill="midnightblue" stroke="midnightblue" points="638.313,-191.432 648.48,-188.45 638.673,-184.441 638.313,-191.432"/>
</g>
<!-- Node5 -->
<g id="node5" class="node"><title>Node5</title>
<g id="a_node5"><a xlink:href="../../d0/d8c/classparser_1_1_logo_parser_token_manager.html#ad31cdd6db411f95b045686c2053f42fa" target="_top" xlink:title="parser.LogoParserTokenManager.jj\lAddStates">
<polygon fill="white" stroke="black" points="868.5,-123 868.5,-153 1047.5,-153 1047.5,-123 868.5,-123"/>
<text text-anchor="start" x="876.5" y="-141" font-family="Helvetica,sans-Serif" font-size="10.00">parser.LogoParserTokenManager.jj</text>
<text text-anchor="middle" x="958" y="-130" font-family="Helvetica,sans-Serif" font-size="10.00">AddStates</text>
</a>
</g>
</g>
<!-- Node4&#45;&gt;Node5 -->
<g id="edge4" class="edge"><title>Node4&#45;&gt;Node5</title>
<path fill="none" stroke="midnightblue" d="M827.669,-141.56C837.748,-141.282 848.067,-140.998 858.265,-140.717"/>
<polygon fill="midnightblue" stroke="midnightblue" points="858.51,-144.212 868.41,-140.438 858.317,-137.215 858.51,-144.212"/>
</g>
<!-- Node6 -->
<g id="node6" class="node"><title>Node6</title>
<g id="a_node6"><a xlink:href="../../d0/d8c/classparser_1_1_logo_parser_token_manager.html#af1b1635a624926faf7741958cc140de4" target="_top" xlink:title="parser.LogoParserTokenManager.jj\lCheckNAdd">
<polygon fill="white" stroke="black" points="1088.5,-221 1088.5,-251 1267.5,-251 1267.5,-221 1088.5,-221"/>
<text text-anchor="start" x="1096.5" y="-239" font-family="Helvetica,sans-Serif" font-size="10.00">parser.LogoParserTokenManager.jj</text>
<text text-anchor="middle" x="1178" y="-228" font-family="Helvetica,sans-Serif" font-size="10.00">CheckNAdd</text>
</a>
</g>
</g>
<!-- Node4&#45;&gt;Node6 -->
<g id="edge5" class="edge"><title>Node4&#45;&gt;Node6</title>
<path fill="none" stroke="midnightblue" d="M787.761,-128.984C810.66,-122.69 838.477,-116.118 864,-113 946.939,-102.869 974.676,-81.3362 1052,-113 1101.02,-133.075 1141.15,-182.684 1161.83,-212.404"/>
<polygon fill="midnightblue" stroke="midnightblue" points="1159.1,-214.62 1167.61,-220.935 1164.9,-210.693 1159.1,-214.62"/>
</g>
<!-- Node7 -->
<g id="node7" class="node"><title>Node7</title>
<g id="a_node7"><a xlink:href="../../d0/d8c/classparser_1_1_logo_parser_token_manager.html#ac4047538420e7ceceec16698b354cd62" target="_top" xlink:title="parser.LogoParserTokenManager.jj\lCheckNAddStates">
<polygon fill="white" stroke="black" points="868.5,-270 868.5,-300 1047.5,-300 1047.5,-270 868.5,-270"/>
<text text-anchor="start" x="876.5" y="-288" font-family="Helvetica,sans-Serif" font-size="10.00">parser.LogoParserTokenManager.jj</text>
<text text-anchor="middle" x="958" y="-277" font-family="Helvetica,sans-Serif" font-size="10.00">CheckNAddStates</text>
</a>
</g>
</g>
<!-- Node4&#45;&gt;Node7 -->
<g id="edge6" class="edge"><title>Node4&#45;&gt;Node7</title>
<path fill="none" stroke="midnightblue" d="M815.415,-159.119C819.935,-161.645 824.186,-164.583 828,-168 860.701,-197.301 831.287,-230.712 864,-260 865.721,-261.54 867.526,-262.987 869.403,-264.346"/>
<polygon fill="midnightblue" stroke="midnightblue" points="867.708,-267.415 878.04,-269.76 871.426,-261.484 867.708,-267.415"/>
</g>
<!-- Node8 -->
<g id="node8" class="node"><title>Node8</title>
<g id="a_node8"><a xlink:href="../../d0/d8c/classparser_1_1_logo_parser_token_manager.html#a8f9adc17a4a9b201128786ca145783e8" target="_top" xlink:title="parser.LogoParserTokenManager.jj\lCheckNAddTwoStates">
<polygon fill="white" stroke="black" points="868.5,-221 868.5,-251 1047.5,-251 1047.5,-221 868.5,-221"/>
<text text-anchor="start" x="876.5" y="-239" font-family="Helvetica,sans-Serif" font-size="10.00">parser.LogoParserTokenManager.jj</text>
<text text-anchor="middle" x="958" y="-228" font-family="Helvetica,sans-Serif" font-size="10.00">CheckNAddTwoStates</text>
</a>
</g>
</g>
<!-- Node4&#45;&gt;Node8 -->
<g id="edge8" class="edge"><title>Node4&#45;&gt;Node8</title>
<path fill="none" stroke="midnightblue" d="M810.64,-159.064C816.724,-161.598 822.606,-164.553 828,-168 849.003,-181.42 842.992,-197.588 864,-211 867.314,-213.116 870.804,-215.054 874.409,-216.828"/>
<polygon fill="midnightblue" stroke="midnightblue" points="873.016,-220.04 883.575,-220.913 875.866,-213.646 873.016,-220.04"/>
</g>
<!-- Node4&#45;&gt;Node9 -->
<g id="edge10" class="edge"><title>Node4&#45;&gt;Node9</title>
<path fill="none" stroke="midnightblue" d="M795.712,-128.983C806.811,-124.924 818.076,-119.962 828,-114 846.865,-102.667 844.736,-90.6417 864,-80 872.45,-75.3323 881.833,-71.5484 891.297,-68.4872"/>
<polygon fill="midnightblue" stroke="midnightblue" points="892.567,-71.761 901.152,-65.5521 890.569,-65.0522 892.567,-71.761"/>
</g>
<!-- Node14 -->
<g id="node14" class="node"><title>Node14</title>
<g id="a_node14"><a xlink:href="../../d0/d8c/classparser_1_1_logo_parser_token_manager.html#a5923cb696d0a55f99661625200327816" target="_top" xlink:title="parser.LogoParserTokenManager.\lReInitRounds">
<polygon fill="white" stroke="black" points="871,-172 871,-202 1045,-202 1045,-172 871,-172"/>
<text text-anchor="start" x="879" y="-190" font-family="Helvetica,sans-Serif" font-size="10.00">parser.LogoParserTokenManager.</text>
<text text-anchor="middle" x="958" y="-179" font-family="Helvetica,sans-Serif" font-size="10.00">ReInitRounds</text>
</a>
</g>
</g>
<!-- Node4&#45;&gt;Node14 -->
<g id="edge15" class="edge"><title>Node4&#45;&gt;Node14</title>
<path fill="none" stroke="midnightblue" d="M815.246,-159.039C833.251,-162.591 852.571,-166.402 870.976,-170.032"/>
<polygon fill="midnightblue" stroke="midnightblue" points="870.309,-173.468 880.797,-171.969 871.664,-166.6 870.309,-173.468"/>
</g>
<!-- Node7&#45;&gt;Node6 -->
<g id="edge7" class="edge"><title>Node7&#45;&gt;Node6</title>
<path fill="none" stroke="midnightblue" d="M1025.89,-269.965C1049.43,-264.674 1076.07,-258.687 1100.35,-253.229"/>
<polygon fill="midnightblue" stroke="midnightblue" points="1101.25,-256.614 1110.24,-251.006 1099.71,-249.784 1101.25,-256.614"/>
</g>
<!-- Node8&#45;&gt;Node6 -->
<g id="edge9" class="edge"><title>Node8&#45;&gt;Node6</title>
<path fill="none" stroke="midnightblue" d="M1047.67,-236C1057.75,-236 1068.07,-236 1078.27,-236"/>
<polygon fill="midnightblue" stroke="midnightblue" points="1078.41,-239.5 1088.41,-236 1078.41,-232.5 1078.41,-239.5"/>
</g>
<!-- Node10 -->
<g id="node10" class="node"><title>Node10</title>
<g id="a_node10"><a xlink:href="../../d4/dad/classparser_1_1_simple_char_stream.html#aac1dcd2a238adbc951d3af740cc2aa13" target="_top" xlink:title="parser.SimpleCharStream.\lFillBuff">
<polygon fill="white" stroke="black" points="1106,-17 1106,-47 1250,-47 1250,-17 1106,-17"/>
<text text-anchor="start" x="1114" y="-35" font-family="Helvetica,sans-Serif" font-size="10.00">parser.SimpleCharStream.</text>
<text text-anchor="middle" x="1178" y="-24" font-family="Helvetica,sans-Serif" font-size="10.00">FillBuff</text>
</a>
</g>
</g>
<!-- Node9&#45;&gt;Node10 -->
<g id="edge11" class="edge"><title>Node9&#45;&gt;Node10</title>
<path fill="none" stroke="midnightblue" d="M1045.47,-46.4801C1062.01,-44.6593 1079.27,-42.7589 1095.64,-40.9566"/>
<polygon fill="midnightblue" stroke="midnightblue" points="1096.15,-44.422 1105.71,-39.8486 1095.39,-37.464 1096.15,-44.422"/>
</g>
<!-- Node13 -->
<g id="node13" class="node"><title>Node13</title>
<g id="a_node13"><a xlink:href="../../d4/dad/classparser_1_1_simple_char_stream.html#ad8ca3472934b9d38c005c8885d859403" target="_top" xlink:title="parser.SimpleCharStream.\lUpdateLineColumn">
<polygon fill="white" stroke="black" points="1106,-66 1106,-96 1250,-96 1250,-66 1106,-66"/>
<text text-anchor="start" x="1114" y="-84" font-family="Helvetica,sans-Serif" font-size="10.00">parser.SimpleCharStream.</text>
<text text-anchor="middle" x="1178" y="-73" font-family="Helvetica,sans-Serif" font-size="10.00">UpdateLineColumn</text>
</a>
</g>
</g>
<!-- Node9&#45;&gt;Node13 -->
<g id="edge14" class="edge"><title>Node9&#45;&gt;Node13</title>
<path fill="none" stroke="midnightblue" d="M1042.04,-65.5227C1059.64,-67.5414 1078.2,-69.67 1095.74,-71.6809"/>
<polygon fill="midnightblue" stroke="midnightblue" points="1095.59,-75.1874 1105.93,-72.8496 1096.39,-68.233 1095.59,-75.1874"/>
</g>
<!-- Node11 -->
<g id="node11" class="node"><title>Node11</title>
<g id="a_node11"><a xlink:href="../../d4/dad/classparser_1_1_simple_char_stream.html#a5328cda7180ed2a180eac8af133517cf" target="_top" xlink:title="parser.SimpleCharStream.\lExpandBuff">
<polygon fill="white" stroke="black" points="1322,-39 1322,-69 1466,-69 1466,-39 1322,-39"/>
<text text-anchor="start" x="1330" y="-57" font-family="Helvetica,sans-Serif" font-size="10.00">parser.SimpleCharStream.</text>
<text text-anchor="middle" x="1394" y="-46" font-family="Helvetica,sans-Serif" font-size="10.00">ExpandBuff</text>
</a>
</g>
</g>
<!-- Node10&#45;&gt;Node11 -->
<g id="edge12" class="edge"><title>Node10&#45;&gt;Node11</title>
<path fill="none" stroke="midnightblue" d="M1250.26,-39.3257C1269.92,-41.3467 1291.39,-43.5546 1311.58,-45.6299"/>
<polygon fill="midnightblue" stroke="midnightblue" points="1311.38,-49.1277 1321.69,-46.6688 1312.1,-42.1644 1311.38,-49.1277"/>
</g>
<!-- Node12 -->
<g id="node12" class="node"><title>Node12</title>
<g id="a_node12"><a xlink:href="../../d4/dad/classparser_1_1_simple_char_stream.html#a4eacb833520fdfdb1b18be45bc3bd4ba" target="_top" xlink:title="parser.SimpleCharStream.backup">
<polygon fill="white" stroke="black" points="1304.5,-0.5 1304.5,-19.5 1483.5,-19.5 1483.5,-0.5 1304.5,-0.5"/>
<text text-anchor="middle" x="1394" y="-7.5" font-family="Helvetica,sans-Serif" font-size="10.00">parser.SimpleCharStream.backup</text>
</a>
</g>
</g>
<!-- Node10&#45;&gt;Node12 -->
<g id="edge13" class="edge"><title>Node10&#45;&gt;Node12</title>
<path fill="none" stroke="midnightblue" d="M1250.26,-24.6743C1264.29,-23.2322 1279.24,-21.6948 1293.99,-20.1784"/>
<polygon fill="midnightblue" stroke="midnightblue" points="1294.57,-23.6378 1304.16,-19.1334 1293.85,-16.6745 1294.57,-23.6378"/>
</g>
<!-- Node16&#45;&gt;Node4 -->
<g id="edge21" class="edge"><title>Node16&#45;&gt;Node4</title>
<path fill="none" stroke="midnightblue" d="M559.788,-71.1277C596.033,-86.0322 651.522,-108.85 690.737,-124.976"/>
<polygon fill="midnightblue" stroke="midnightblue" points="689.755,-128.356 700.335,-128.923 692.417,-121.882 689.755,-128.356"/>
</g>
<!-- Node16&#45;&gt;Node9 -->
<g id="edge20" class="edge"><title>Node16&#45;&gt;Node9</title>
<path fill="none" stroke="midnightblue" d="M611.611,-56C681.699,-56 779.688,-56 853.399,-56"/>
<polygon fill="midnightblue" stroke="midnightblue" points="853.634,-59.5001 863.634,-56 853.634,-52.5001 853.634,-59.5001"/>
</g>
</g>
</svg>
