<?xml version="1.0" encoding="UTF-8" standalone="no"?>
<!DOCTYPE svg PUBLIC "-//W3C//DTD SVG 1.1//EN"
 "http://www.w3.org/Graphics/SVG/1.1/DTD/svg11.dtd">
<!-- Generated by graphviz version 2.36.0 (20140111.2315)
 -->
<!-- Title: parser.LogoParserTokenManager.jjStartNfa_0 Pages: 1 -->
<svg width="1060pt" height="263pt"
 viewBox="0.00 0.00 1060.00 263.00" xmlns="http://www.w3.org/2000/svg" xmlns:xlink="http://www.w3.org/1999/xlink">
<g id="graph0" class="graph" transform="scale(1 1) rotate(0) translate(4 259)">
<title>parser.LogoParserTokenManager.jjStartNfa_0</title>
<polygon fill="white" stroke="none" points="-4,4 -4,-259 1056,-259 1056,4 -4,4"/>
<!-- Node1 -->
<g id="node1" class="node"><title>Node1</title>
<polygon fill="#bfbfbf" stroke="black" points="0.5,-88 0.5,-118 179.5,-118 179.5,-88 0.5,-88"/>
<text text-anchor="start" x="8.5" y="-106" font-family="Helvetica,sans-Serif" font-size="10.00">parser.LogoParserTokenManager.jj</text>
<text text-anchor="middle" x="90" y="-95" font-family="Helvetica,sans-Serif" font-size="10.00">StartNfa_0</text>
</g>
<!-- Node2 -->
<g id="node2" class="node"><title>Node2</title>
<g id="a_node2"><a xlink:href="../../d0/d8c/classparser_1_1_logo_parser_token_manager.html#a0071f141b41b403c8ab151c8c014a709" target="_top" xlink:title="parser.LogoParserTokenManager.jj\lMoveNfa_0">
<polygon fill="white" stroke="black" points="216.5,-113 216.5,-143 395.5,-143 395.5,-113 216.5,-113"/>
<text text-anchor="start" x="224.5" y="-131" font-family="Helvetica,sans-Serif" font-size="10.00">parser.LogoParserTokenManager.jj</text>
<text text-anchor="middle" x="306" y="-120" font-family="Helvetica,sans-Serif" font-size="10.00">MoveNfa_0</text>
</a>
</g>
</g>
<!-- Node1&#45;&gt;Node2 -->
<g id="edge1" class="edge"><title>Node1&#45;&gt;Node2</title>
<path fill="none" stroke="midnightblue" d="M179.587,-113.349C188.442,-114.383 197.472,-115.438 206.422,-116.484"/>
<polygon fill="midnightblue" stroke="midnightblue" points="206.141,-119.975 216.48,-117.659 206.953,-113.022 206.141,-119.975"/>
</g>
<!-- Node13 -->
<g id="node13" class="node"><title>Node13</title>
<g id="a_node13"><a xlink:href="../../d0/d8c/classparser_1_1_logo_parser_token_manager.html#a1f212a863542f9f3993faf51bb46ae8e" target="_top" xlink:title="parser.LogoParserTokenManager.jj\lStopStringLiteralDfa_0">
<polygon fill="white" stroke="black" points="216.5,-64 216.5,-94 395.5,-94 395.5,-64 216.5,-64"/>
<text text-anchor="start" x="224.5" y="-82" font-family="Helvetica,sans-Serif" font-size="10.00">parser.LogoParserTokenManager.jj</text>
<text text-anchor="middle" x="306" y="-71" font-family="Helvetica,sans-Serif" font-size="10.00">StopStringLiteralDfa_0</text>
</a>
</g>
</g>
<!-- Node1&#45;&gt;Node13 -->
<g id="edge14" class="edge"><title>Node1&#45;&gt;Node13</title>
<path fill="none" stroke="midnightblue" d="M179.587,-93.065C188.442,-92.0719 197.472,-91.0593 206.422,-90.0555"/>
<polygon fill="midnightblue" stroke="midnightblue" points="206.932,-93.5203 216.48,-88.9275 206.152,-86.5639 206.932,-93.5203"/>
</g>
<!-- Node3 -->
<g id="node3" class="node"><title>Node3</title>
<g id="a_node3"><a xlink:href="../../d0/d8c/classparser_1_1_logo_parser_token_manager.html#ad31cdd6db411f95b045686c2053f42fa" target="_top" xlink:title="parser.LogoParserTokenManager.jj\lAddStates">
<polygon fill="white" stroke="black" points="436.5,-225 436.5,-255 615.5,-255 615.5,-225 436.5,-225"/>
<text text-anchor="start" x="444.5" y="-243" font-family="Helvetica,sans-Serif" font-size="10.00">parser.LogoParserTokenManager.jj</text>
<text text-anchor="middle" x="526" y="-232" font-family="Helvetica,sans-Serif" font-size="10.00">AddStates</text>
</a>
</g>
</g>
<!-- Node2&#45;&gt;Node3 -->
<g id="edge2" class="edge"><title>Node2&#45;&gt;Node3</title>
<path fill="none" stroke="midnightblue" d="M326.367,-143.097C350.137,-161.044 392.2,-190.955 432,-210 440.952,-214.284 450.67,-218.176 460.335,-221.633"/>
<polygon fill="midnightblue" stroke="midnightblue" points="459.358,-224.998 469.952,-224.942 461.635,-218.379 459.358,-224.998"/>
</g>
<!-- Node4 -->
<g id="node4" class="node"><title>Node4</title>
<g id="a_node4"><a xlink:href="../../d0/d8c/classparser_1_1_logo_parser_token_manager.html#af1b1635a624926faf7741958cc140de4" target="_top" xlink:title="parser.LogoParserTokenManager.jj\lCheckNAdd">
<polygon fill="white" stroke="black" points="656.5,-137 656.5,-167 835.5,-167 835.5,-137 656.5,-137"/>
<text text-anchor="start" x="664.5" y="-155" font-family="Helvetica,sans-Serif" font-size="10.00">parser.LogoParserTokenManager.jj</text>
<text text-anchor="middle" x="746" y="-144" font-family="Helvetica,sans-Serif" font-size="10.00">CheckNAdd</text>
</a>
</g>
</g>
<!-- Node2&#45;&gt;Node4 -->
<g id="edge3" class="edge"><title>Node2&#45;&gt;Node4</title>
<path fill="none" stroke="midnightblue" d="M336.909,-143.072C361.679,-154.665 398.172,-169.728 432,-176 511.732,-190.782 604.515,-180.274 668.244,-168.88"/>
<polygon fill="midnightblue" stroke="midnightblue" points="669.014,-172.297 678.217,-167.047 667.749,-165.412 669.014,-172.297"/>
</g>
<!-- Node5 -->
<g id="node5" class="node"><title>Node5</title>
<g id="a_node5"><a xlink:href="../../d0/d8c/classparser_1_1_logo_parser_token_manager.html#ac4047538420e7ceceec16698b354cd62" target="_top" xlink:title="parser.LogoParserTokenManager.jj\lCheckNAddStates">
<polygon fill="white" stroke="black" points="436.5,-137 436.5,-167 615.5,-167 615.5,-137 436.5,-137"/>
<text text-anchor="start" x="444.5" y="-155" font-family="Helvetica,sans-Serif" font-size="10.00">parser.LogoParserTokenManager.jj</text>
<text text-anchor="middle" x="526" y="-144" font-family="Helvetica,sans-Serif" font-size="10.00">CheckNAddStates</text>
</a>
</g>
</g>
<!-- Node2&#45;&gt;Node5 -->
<g id="edge4" class="edge"><title>Node2&#45;&gt;Node5</title>
<path fill="none" stroke="midnightblue" d="M395.669,-137.762C405.748,-138.871 416.067,-140.007 426.265,-141.13"/>
<polygon fill="midnightblue" stroke="midnightblue" points="426.087,-144.632 436.41,-142.247 426.853,-137.674 426.087,-144.632"/>
</g>
<!-- Node6 -->
<g id="node6" class="node"><title>Node6</title>
<g id="a_node6"><a xlink:href="../../d0/d8c/classparser_1_1_logo_parser_token_manager.html#a8f9adc17a4a9b201128786ca145783e8" target="_top" xlink:title="parser.LogoParserTokenManager.jj\lCheckNAddTwoStates">
<polygon fill="white" stroke="black" points="436.5,-88 436.5,-118 615.5,-118 615.5,-88 436.5,-88"/>
<text text-anchor="start" x="444.5" y="-106" font-family="Helvetica,sans-Serif" font-size="10.00">parser.LogoParserTokenManager.jj</text>
<text text-anchor="middle" x="526" y="-95" font-family="Helvetica,sans-Serif" font-size="10.00">CheckNAddTwoStates</text>
</a>
</g>
</g>
<!-- Node2&#45;&gt;Node6 -->
<g id="edge6" class="edge"><title>Node2&#45;&gt;Node6</title>
<path fill="none" stroke="midnightblue" d="M395.669,-117.832C405.748,-116.676 416.067,-115.492 426.265,-114.323"/>
<polygon fill="midnightblue" stroke="midnightblue" points="426.874,-117.776 436.41,-113.159 426.076,-110.822 426.874,-117.776"/>
</g>
<!-- Node7 -->
<g id="node7" class="node"><title>Node7</title>
<g id="a_node7"><a xlink:href="../../d4/dad/classparser_1_1_simple_char_stream.html#a9f80cee02b99e8e200afa646e3b25e29" target="_top" xlink:title="parser.SimpleCharStream.readChar">
<polygon fill="white" stroke="black" points="432,-49.5 432,-68.5 620,-68.5 620,-49.5 432,-49.5"/>
<text text-anchor="middle" x="526" y="-56.5" font-family="Helvetica,sans-Serif" font-size="10.00">parser.SimpleCharStream.readChar</text>
</a>
</g>
</g>
<!-- Node2&#45;&gt;Node7 -->
<g id="edge8" class="edge"><title>Node2&#45;&gt;Node7</title>
<path fill="none" stroke="midnightblue" d="M370.674,-112.926C379.353,-110.063 388.015,-106.763 396,-103 413.621,-94.6955 414.091,-85.6621 432,-78 438.108,-75.387 444.598,-73.1258 451.199,-71.1703"/>
<polygon fill="midnightblue" stroke="midnightblue" points="452.191,-74.5276 460.918,-68.5189 450.349,-67.7744 452.191,-74.5276"/>
</g>
<!-- Node12 -->
<g id="node12" class="node"><title>Node12</title>
<g id="a_node12"><a xlink:href="../../d0/d8c/classparser_1_1_logo_parser_token_manager.html#a5923cb696d0a55f99661625200327816" target="_top" xlink:title="parser.LogoParserTokenManager.\lReInitRounds">
<polygon fill="white" stroke="black" points="439,-0 439,-30 613,-30 613,-0 439,-0"/>
<text text-anchor="start" x="447" y="-18" font-family="Helvetica,sans-Serif" font-size="10.00">parser.LogoParserTokenManager.</text>
<text text-anchor="middle" x="526" y="-7" font-family="Helvetica,sans-Serif" font-size="10.00">ReInitRounds</text>
</a>
</g>
</g>
<!-- Node2&#45;&gt;Node12 -->
<g id="edge13" class="edge"><title>Node2&#45;&gt;Node12</title>
<path fill="none" stroke="midnightblue" d="M379.797,-112.865C385.569,-110.109 391.066,-106.851 396,-103 421.422,-83.1577 406.467,-59.6992 432,-40 434.358,-38.1809 436.838,-36.4938 439.412,-34.9293"/>
<polygon fill="midnightblue" stroke="midnightblue" points="441.321,-37.8769 448.482,-30.0683 438.015,-31.7071 441.321,-37.8769"/>
</g>
<!-- Node5&#45;&gt;Node4 -->
<g id="edge5" class="edge"><title>Node5&#45;&gt;Node4</title>
<path fill="none" stroke="midnightblue" d="M615.669,-152C625.748,-152 636.067,-152 646.265,-152"/>
<polygon fill="midnightblue" stroke="midnightblue" points="646.41,-155.5 656.41,-152 646.41,-148.5 646.41,-155.5"/>
</g>
<!-- Node6&#45;&gt;Node4 -->
<g id="edge7" class="edge"><title>Node6&#45;&gt;Node4</title>
<path fill="none" stroke="midnightblue" d="M593.889,-118.035C617.43,-123.326 644.067,-129.313 668.349,-134.771"/>
<polygon fill="midnightblue" stroke="midnightblue" points="667.714,-138.216 678.238,-136.994 669.249,-131.386 667.714,-138.216"/>
</g>
<!-- Node8 -->
<g id="node8" class="node"><title>Node8</title>
<g id="a_node8"><a xlink:href="../../d4/dad/classparser_1_1_simple_char_stream.html#aac1dcd2a238adbc951d3af740cc2aa13" target="_top" xlink:title="parser.SimpleCharStream.\lFillBuff">
<polygon fill="white" stroke="black" points="674,-66 674,-96 818,-96 818,-66 674,-66"/>
<text text-anchor="start" x="682" y="-84" font-family="Helvetica,sans-Serif" font-size="10.00">parser.SimpleCharStream.</text>
<text text-anchor="middle" x="746" y="-73" font-family="Helvetica,sans-Serif" font-size="10.00">FillBuff</text>
</a>
</g>
</g>
<!-- Node7&#45;&gt;Node8 -->
<g id="edge9" class="edge"><title>Node7&#45;&gt;Node8</title>
<path fill="none" stroke="midnightblue" d="M620.084,-68.3938C634.611,-69.8598 649.524,-71.3648 663.76,-72.8014"/>
<polygon fill="midnightblue" stroke="midnightblue" points="663.69,-76.3121 673.991,-73.8339 664.393,-69.3475 663.69,-76.3121"/>
</g>
<!-- Node11 -->
<g id="node11" class="node"><title>Node11</title>
<g id="a_node11"><a xlink:href="../../d4/dad/classparser_1_1_simple_char_stream.html#ad8ca3472934b9d38c005c8885d859403" target="_top" xlink:title="parser.SimpleCharStream.\lUpdateLineColumn">
<polygon fill="white" stroke="black" points="674,-17 674,-47 818,-47 818,-17 674,-17"/>
<text text-anchor="start" x="682" y="-35" font-family="Helvetica,sans-Serif" font-size="10.00">parser.SimpleCharStream.</text>
<text text-anchor="middle" x="746" y="-24" font-family="Helvetica,sans-Serif" font-size="10.00">UpdateLineColumn</text>
</a>
</g>
</g>
<!-- Node7&#45;&gt;Node11 -->
<g id="edge12" class="edge"><title>Node7&#45;&gt;Node11</title>
<path fill="none" stroke="midnightblue" d="M603.859,-49.4808C623.275,-47.076 644.186,-44.4862 663.808,-42.0559"/>
<polygon fill="midnightblue" stroke="midnightblue" points="664.443,-45.5041 673.937,-40.8014 663.582,-38.5572 664.443,-45.5041"/>
</g>
<!-- Node9 -->
<g id="node9" class="node"><title>Node9</title>
<g id="a_node9"><a xlink:href="../../d4/dad/classparser_1_1_simple_char_stream.html#a5328cda7180ed2a180eac8af133517cf" target="_top" xlink:title="parser.SimpleCharStream.\lExpandBuff">
<polygon fill="white" stroke="black" points="890,-88 890,-118 1034,-118 1034,-88 890,-88"/>
<text text-anchor="start" x="898" y="-106" font-family="Helvetica,sans-Serif" font-size="10.00">parser.SimpleCharStream.</text>
<text text-anchor="middle" x="962" y="-95" font-family="Helvetica,sans-Serif" font-size="10.00">ExpandBuff</text>
</a>
</g>
</g>
<!-- Node8&#45;&gt;Node9 -->
<g id="edge10" class="edge"><title>Node8&#45;&gt;Node9</title>
<path fill="none" stroke="midnightblue" d="M818.259,-88.3257C837.918,-90.3467 859.395,-92.5546 879.582,-94.6299"/>
<polygon fill="midnightblue" stroke="midnightblue" points="879.382,-98.1277 889.688,-95.6688 880.098,-91.1644 879.382,-98.1277"/>
</g>
<!-- Node10 -->
<g id="node10" class="node"><title>Node10</title>
<g id="a_node10"><a xlink:href="../../d4/dad/classparser_1_1_simple_char_stream.html#a4eacb833520fdfdb1b18be45bc3bd4ba" target="_top" xlink:title="parser.SimpleCharStream.backup">
<polygon fill="white" stroke="black" points="872.5,-49.5 872.5,-68.5 1051.5,-68.5 1051.5,-49.5 872.5,-49.5"/>
<text text-anchor="middle" x="962" y="-56.5" font-family="Helvetica,sans-Serif" font-size="10.00">parser.SimpleCharStream.backup</text>
</a>
</g>
</g>
<!-- Node8&#45;&gt;Node10 -->
<g id="edge11" class="edge"><title>Node8&#45;&gt;Node10</title>
<path fill="none" stroke="midnightblue" d="M818.259,-73.6743C832.287,-72.2322 847.241,-70.6948 861.992,-69.1784"/>
<polygon fill="midnightblue" stroke="midnightblue" points="862.567,-72.6378 872.157,-68.1334 861.852,-65.6745 862.567,-72.6378"/>
</g>
</g>
</svg>
