<?xml version="1.0" encoding="UTF-8" standalone="no"?>
<!DOCTYPE svg PUBLIC "-//W3C//DTD SVG 1.1//EN"
 "http://www.w3.org/Graphics/SVG/1.1/DTD/svg11.dtd">
<!-- Generated by graphviz version 2.36.0 (20140111.2315)
 -->
<!-- Title: parser.LogoParserTokenManager.jjMoveStringLiteralDfa0_0 Pages: 1 -->
<svg width="2572pt" height="991pt"
 viewBox="0.00 0.00 2572.00 991.43" xmlns="http://www.w3.org/2000/svg" xmlns:xlink="http://www.w3.org/1999/xlink">
<g id="graph0" class="graph" transform="scale(1 1) rotate(0) translate(4 987.429)">
<title>parser.LogoParserTokenManager.jjMoveStringLiteralDfa0_0</title>
<polygon fill="white" stroke="none" points="-4,4 -4,-987.429 2568,-987.429 2568,4 -4,4"/>
<!-- Node1 -->
<g id="node1" class="node"><title>Node1</title>
<polygon fill="#bfbfbf" stroke="black" points="0.5,-778.429 0.5,-808.429 179.5,-808.429 179.5,-778.429 0.5,-778.429"/>
<text text-anchor="start" x="8.5" y="-796.429" font-family="Helvetica,sans-Serif" font-size="10.00">parser.LogoParserTokenManager.jj</text>
<text text-anchor="middle" x="90" y="-785.429" font-family="Helvetica,sans-Serif" font-size="10.00">MoveStringLiteralDfa0_0</text>
</g>
<!-- Node2 -->
<g id="node2" class="node"><title>Node2</title>
<g id="a_node2"><a xlink:href="../../d0/d8c/classparser_1_1_logo_parser_token_manager.html#a0071f141b41b403c8ab151c8c014a709" target="_top" xlink:title="parser.LogoParserTokenManager.jj\lMoveNfa_0">
<polygon fill="white" stroke="black" points="1728.5,-860.429 1728.5,-890.429 1907.5,-890.429 1907.5,-860.429 1728.5,-860.429"/>
<text text-anchor="start" x="1736.5" y="-878.429" font-family="Helvetica,sans-Serif" font-size="10.00">parser.LogoParserTokenManager.jj</text>
<text text-anchor="middle" x="1818" y="-867.429" font-family="Helvetica,sans-Serif" font-size="10.00">MoveNfa_0</text>
</a>
</g>
</g>
<!-- Node1&#45;&gt;Node2 -->
<g id="edge1" class="edge"><title>Node1&#45;&gt;Node2</title>
<path fill="none" stroke="midnightblue" d="M132.752,-808.435C156.818,-816.582 187.802,-826.229 216,-832.429 349.527,-861.786 384.284,-872.429 521,-872.429 521,-872.429 521,-872.429 1387,-872.429 1500.64,-872.429 1631.17,-873.489 1718.33,-874.349"/>
<polygon fill="midnightblue" stroke="midnightblue" points="1718.44,-877.85 1728.47,-874.45 1718.51,-870.851 1718.44,-877.85"/>
</g>
<!-- Node13 -->
<g id="node13" class="node"><title>Node13</title>
<g id="a_node13"><a xlink:href="../../d0/d8c/classparser_1_1_logo_parser_token_manager.html#a99a01f0b68908e628349e9f09a2cbccd" target="_top" xlink:title="parser.LogoParserTokenManager.jj\lMoveStringLiteralDfa1_0">
<polygon fill="white" stroke="black" points="216.5,-740.429 216.5,-770.429 395.5,-770.429 395.5,-740.429 216.5,-740.429"/>
<text text-anchor="start" x="224.5" y="-758.429" font-family="Helvetica,sans-Serif" font-size="10.00">parser.LogoParserTokenManager.jj</text>
<text text-anchor="middle" x="306" y="-747.429" font-family="Helvetica,sans-Serif" font-size="10.00">MoveStringLiteralDfa1_0</text>
</a>
</g>
</g>
<!-- Node1&#45;&gt;Node13 -->
<g id="edge14" class="edge"><title>Node1&#45;&gt;Node13</title>
<path fill="none" stroke="midnightblue" d="M175.578,-778.41C186.964,-776.388 198.704,-774.304 210.251,-772.253"/>
<polygon fill="midnightblue" stroke="midnightblue" points="211.101,-775.657 220.335,-770.463 209.877,-768.765 211.101,-775.657"/>
</g>
<!-- Node17 -->
<g id="node17" class="node"><title>Node17</title>
<g id="a_node17"><a xlink:href="../../d0/d8c/classparser_1_1_logo_parser_token_manager.html#ab983b76c64f4c06ba9c5469d87e6eddd" target="_top" xlink:title="parser.LogoParserTokenManager.jj\lStopAtPos">
<polygon fill="white" stroke="black" points="648.5,-0.428589 648.5,-30.4286 827.5,-30.4286 827.5,-0.428589 648.5,-0.428589"/>
<text text-anchor="start" x="656.5" y="-18.4286" font-family="Helvetica,sans-Serif" font-size="10.00">parser.LogoParserTokenManager.jj</text>
<text text-anchor="middle" x="738" y="-7.42859" font-family="Helvetica,sans-Serif" font-size="10.00">StopAtPos</text>
</a>
</g>
</g>
<!-- Node1&#45;&gt;Node17 -->
<g id="edge49" class="edge"><title>Node1&#45;&gt;Node17</title>
<path fill="none" stroke="midnightblue" d="M92.5098,-778.336C102.233,-689.943 164.366,-236.718 432,-45.4286 491.065,-3.2122 573.816,2.52374 638.222,-1.32558"/>
<polygon fill="midnightblue" stroke="midnightblue" points="638.18,-4.83076 648.395,-2.02156 638.658,2.15292 638.18,-4.83076"/>
</g>
<!-- Node22 -->
<g id="node22" class="node"><title>Node22</title>
<g id="a_node22"><a xlink:href="../../d0/d8c/classparser_1_1_logo_parser_token_manager.html#a94b20a17d94554012918e876be221c46" target="_top" xlink:title="parser.LogoParserTokenManager.jj\lStartNfaWithStates_0">
<polygon fill="white" stroke="black" points="1512.5,-569.429 1512.5,-599.429 1691.5,-599.429 1691.5,-569.429 1512.5,-569.429"/>
<text text-anchor="start" x="1520.5" y="-587.429" font-family="Helvetica,sans-Serif" font-size="10.00">parser.LogoParserTokenManager.jj</text>
<text text-anchor="middle" x="1602" y="-576.429" font-family="Helvetica,sans-Serif" font-size="10.00">StartNfaWithStates_0</text>
</a>
</g>
</g>
<!-- Node1&#45;&gt;Node22 -->
<g id="edge48" class="edge"><title>Node1&#45;&gt;Node22</title>
<path fill="none" stroke="midnightblue" d="M179.74,-805.871C266.546,-816.954 402.589,-831.429 521,-831.429 521,-831.429 521,-831.429 739,-831.429 1072.58,-831.429 1174.84,-832.87 1476,-689.429 1518.25,-669.304 1558.01,-631.454 1580.9,-607.119"/>
<polygon fill="midnightblue" stroke="midnightblue" points="1583.51,-609.453 1587.73,-599.733 1578.37,-604.703 1583.51,-609.453"/>
</g>
<!-- Node3 -->
<g id="node3" class="node"><title>Node3</title>
<g id="a_node3"><a xlink:href="../../d0/d8c/classparser_1_1_logo_parser_token_manager.html#ad31cdd6db411f95b045686c2053f42fa" target="_top" xlink:title="parser.LogoParserTokenManager.jj\lAddStates">
<polygon fill="white" stroke="black" points="1948.5,-904.429 1948.5,-934.429 2127.5,-934.429 2127.5,-904.429 1948.5,-904.429"/>
<text text-anchor="start" x="1956.5" y="-922.429" font-family="Helvetica,sans-Serif" font-size="10.00">parser.LogoParserTokenManager.jj</text>
<text text-anchor="middle" x="2038" y="-911.429" font-family="Helvetica,sans-Serif" font-size="10.00">AddStates</text>
</a>
</g>
</g>
<!-- Node2&#45;&gt;Node3 -->
<g id="edge2" class="edge"><title>Node2&#45;&gt;Node3</title>
<path fill="none" stroke="midnightblue" d="M1893.41,-890.448C1912.51,-894.303 1933.19,-898.476 1952.75,-902.424"/>
<polygon fill="midnightblue" stroke="midnightblue" points="1952.06,-905.855 1962.55,-904.402 1953.44,-898.993 1952.06,-905.855"/>
</g>
<!-- Node4 -->
<g id="node4" class="node"><title>Node4</title>
<g id="a_node4"><a xlink:href="../../d0/d8c/classparser_1_1_logo_parser_token_manager.html#af1b1635a624926faf7741958cc140de4" target="_top" xlink:title="parser.LogoParserTokenManager.jj\lCheckNAdd">
<polygon fill="white" stroke="black" points="2168.5,-816.429 2168.5,-846.429 2347.5,-846.429 2347.5,-816.429 2168.5,-816.429"/>
<text text-anchor="start" x="2176.5" y="-834.429" font-family="Helvetica,sans-Serif" font-size="10.00">parser.LogoParserTokenManager.jj</text>
<text text-anchor="middle" x="2258" y="-823.429" font-family="Helvetica,sans-Serif" font-size="10.00">CheckNAdd</text>
</a>
</g>
</g>
<!-- Node2&#45;&gt;Node4 -->
<g id="edge3" class="edge"><title>Node2&#45;&gt;Node4</title>
<path fill="none" stroke="midnightblue" d="M1907.65,-872.738C1970.48,-870.107 2056.65,-865.031 2132,-855.429 2146.6,-853.567 2162.07,-851.05 2176.97,-848.343"/>
<polygon fill="midnightblue" stroke="midnightblue" points="2177.98,-851.715 2187.17,-846.444 2176.7,-844.833 2177.98,-851.715"/>
</g>
<!-- Node5 -->
<g id="node5" class="node"><title>Node5</title>
<g id="a_node5"><a xlink:href="../../d0/d8c/classparser_1_1_logo_parser_token_manager.html#ac4047538420e7ceceec16698b354cd62" target="_top" xlink:title="parser.LogoParserTokenManager.jj\lCheckNAddStates">
<polygon fill="white" stroke="black" points="1948.5,-816.429 1948.5,-846.429 2127.5,-846.429 2127.5,-816.429 1948.5,-816.429"/>
<text text-anchor="start" x="1956.5" y="-834.429" font-family="Helvetica,sans-Serif" font-size="10.00">parser.LogoParserTokenManager.jj</text>
<text text-anchor="middle" x="2038" y="-823.429" font-family="Helvetica,sans-Serif" font-size="10.00">CheckNAddStates</text>
</a>
</g>
</g>
<!-- Node2&#45;&gt;Node5 -->
<g id="edge4" class="edge"><title>Node2&#45;&gt;Node5</title>
<path fill="none" stroke="midnightblue" d="M1893.41,-860.409C1912.51,-856.555 1933.19,-852.381 1952.75,-848.433"/>
<polygon fill="midnightblue" stroke="midnightblue" points="1953.44,-851.864 1962.55,-846.455 1952.06,-845.003 1953.44,-851.864"/>
</g>
<!-- Node6 -->
<g id="node6" class="node"><title>Node6</title>
<g id="a_node6"><a xlink:href="../../d0/d8c/classparser_1_1_logo_parser_token_manager.html#a8f9adc17a4a9b201128786ca145783e8" target="_top" xlink:title="parser.LogoParserTokenManager.jj\lCheckNAddTwoStates">
<polygon fill="white" stroke="black" points="1948.5,-767.429 1948.5,-797.429 2127.5,-797.429 2127.5,-767.429 1948.5,-767.429"/>
<text text-anchor="start" x="1956.5" y="-785.429" font-family="Helvetica,sans-Serif" font-size="10.00">parser.LogoParserTokenManager.jj</text>
<text text-anchor="middle" x="2038" y="-774.429" font-family="Helvetica,sans-Serif" font-size="10.00">CheckNAddTwoStates</text>
</a>
</g>
</g>
<!-- Node2&#45;&gt;Node6 -->
<g id="edge6" class="edge"><title>Node2&#45;&gt;Node6</title>
<path fill="none" stroke="midnightblue" d="M1877.38,-860.316C1888,-856.316 1898.66,-851.4 1908,-845.429 1927.6,-832.898 1924.02,-819.34 1944,-807.429 1947.64,-805.262 1951.46,-803.279 1955.4,-801.465"/>
<polygon fill="midnightblue" stroke="midnightblue" points="1956.91,-804.627 1964.78,-797.532 1954.21,-798.172 1956.91,-804.627"/>
</g>
<!-- Node7 -->
<g id="node7" class="node"><title>Node7</title>
<g id="a_node7"><a xlink:href="../../d4/dad/classparser_1_1_simple_char_stream.html#a9f80cee02b99e8e200afa646e3b25e29" target="_top" xlink:title="parser.SimpleCharStream.readChar">
<polygon fill="white" stroke="black" points="1944,-463.929 1944,-482.929 2132,-482.929 2132,-463.929 1944,-463.929"/>
<text text-anchor="middle" x="2038" y="-470.929" font-family="Helvetica,sans-Serif" font-size="10.00">parser.SimpleCharStream.readChar</text>
</a>
</g>
</g>
<!-- Node2&#45;&gt;Node7 -->
<g id="edge8" class="edge"><title>Node2&#45;&gt;Node7</title>
<path fill="none" stroke="midnightblue" d="M1886.56,-860.231C1894.45,-856.364 1901.86,-851.513 1908,-845.429 1921.33,-832.211 2006.81,-567.648 2030.77,-492.928"/>
<polygon fill="midnightblue" stroke="midnightblue" points="2034.23,-493.572 2033.95,-482.981 2027.57,-491.437 2034.23,-493.572"/>
</g>
<!-- Node12 -->
<g id="node12" class="node"><title>Node12</title>
<g id="a_node12"><a xlink:href="../../d0/d8c/classparser_1_1_logo_parser_token_manager.html#a5923cb696d0a55f99661625200327816" target="_top" xlink:title="parser.LogoParserTokenManager.\lReInitRounds">
<polygon fill="white" stroke="black" points="1951,-953.429 1951,-983.429 2125,-983.429 2125,-953.429 1951,-953.429"/>
<text text-anchor="start" x="1959" y="-971.429" font-family="Helvetica,sans-Serif" font-size="10.00">parser.LogoParserTokenManager.</text>
<text text-anchor="middle" x="2038" y="-960.429" font-family="Helvetica,sans-Serif" font-size="10.00">ReInitRounds</text>
</a>
</g>
</g>
<!-- Node2&#45;&gt;Node12 -->
<g id="edge13" class="edge"><title>Node2&#45;&gt;Node12</title>
<path fill="none" stroke="midnightblue" d="M1842.61,-890.47C1867.15,-905.572 1907.07,-928.66 1944,-943.429 1950.15,-945.889 1956.63,-948.188 1963.19,-950.314"/>
<polygon fill="midnightblue" stroke="midnightblue" points="1962.23,-953.681 1972.81,-953.307 1964.3,-946.997 1962.23,-953.681"/>
</g>
<!-- Node5&#45;&gt;Node4 -->
<g id="edge5" class="edge"><title>Node5&#45;&gt;Node4</title>
<path fill="none" stroke="midnightblue" d="M2127.67,-831.429C2137.75,-831.429 2148.07,-831.429 2158.27,-831.429"/>
<polygon fill="midnightblue" stroke="midnightblue" points="2158.41,-834.929 2168.41,-831.429 2158.41,-827.929 2158.41,-834.929"/>
</g>
<!-- Node6&#45;&gt;Node4 -->
<g id="edge7" class="edge"><title>Node6&#45;&gt;Node4</title>
<path fill="none" stroke="midnightblue" d="M2105.89,-797.463C2129.43,-802.755 2156.07,-808.742 2180.35,-814.2"/>
<polygon fill="midnightblue" stroke="midnightblue" points="2179.71,-817.644 2190.24,-816.422 2181.25,-810.815 2179.71,-817.644"/>
</g>
<!-- Node8 -->
<g id="node8" class="node"><title>Node8</title>
<g id="a_node8"><a xlink:href="../../d4/dad/classparser_1_1_simple_char_stream.html#aac1dcd2a238adbc951d3af740cc2aa13" target="_top" xlink:title="parser.SimpleCharStream.\lFillBuff">
<polygon fill="white" stroke="black" points="2186,-434.429 2186,-464.429 2330,-464.429 2330,-434.429 2186,-434.429"/>
<text text-anchor="start" x="2194" y="-452.429" font-family="Helvetica,sans-Serif" font-size="10.00">parser.SimpleCharStream.</text>
<text text-anchor="middle" x="2258" y="-441.429" font-family="Helvetica,sans-Serif" font-size="10.00">FillBuff</text>
</a>
</g>
</g>
<!-- Node7&#45;&gt;Node8 -->
<g id="edge9" class="edge"><title>Node7&#45;&gt;Node8</title>
<path fill="none" stroke="midnightblue" d="M2125.47,-463.909C2142.01,-462.088 2159.27,-460.188 2175.64,-458.385"/>
<polygon fill="midnightblue" stroke="midnightblue" points="2176.15,-461.851 2185.71,-457.277 2175.39,-454.893 2176.15,-461.851"/>
</g>
<!-- Node11 -->
<g id="node11" class="node"><title>Node11</title>
<g id="a_node11"><a xlink:href="../../d4/dad/classparser_1_1_simple_char_stream.html#ad8ca3472934b9d38c005c8885d859403" target="_top" xlink:title="parser.SimpleCharStream.\lUpdateLineColumn">
<polygon fill="white" stroke="black" points="2186,-483.429 2186,-513.429 2330,-513.429 2330,-483.429 2186,-483.429"/>
<text text-anchor="start" x="2194" y="-501.429" font-family="Helvetica,sans-Serif" font-size="10.00">parser.SimpleCharStream.</text>
<text text-anchor="middle" x="2258" y="-490.429" font-family="Helvetica,sans-Serif" font-size="10.00">UpdateLineColumn</text>
</a>
</g>
</g>
<!-- Node7&#45;&gt;Node11 -->
<g id="edge12" class="edge"><title>Node7&#45;&gt;Node11</title>
<path fill="none" stroke="midnightblue" d="M2122.04,-482.951C2139.64,-484.97 2158.2,-487.099 2175.74,-489.109"/>
<polygon fill="midnightblue" stroke="midnightblue" points="2175.59,-492.616 2185.93,-490.278 2176.39,-485.662 2175.59,-492.616"/>
</g>
<!-- Node9 -->
<g id="node9" class="node"><title>Node9</title>
<g id="a_node9"><a xlink:href="../../d4/dad/classparser_1_1_simple_char_stream.html#a5328cda7180ed2a180eac8af133517cf" target="_top" xlink:title="parser.SimpleCharStream.\lExpandBuff">
<polygon fill="white" stroke="black" points="2402,-456.429 2402,-486.429 2546,-486.429 2546,-456.429 2402,-456.429"/>
<text text-anchor="start" x="2410" y="-474.429" font-family="Helvetica,sans-Serif" font-size="10.00">parser.SimpleCharStream.</text>
<text text-anchor="middle" x="2474" y="-463.429" font-family="Helvetica,sans-Serif" font-size="10.00">ExpandBuff</text>
</a>
</g>
</g>
<!-- Node8&#45;&gt;Node9 -->
<g id="edge10" class="edge"><title>Node8&#45;&gt;Node9</title>
<path fill="none" stroke="midnightblue" d="M2330.26,-456.754C2349.92,-458.775 2371.39,-460.983 2391.58,-463.058"/>
<polygon fill="midnightblue" stroke="midnightblue" points="2391.38,-466.556 2401.69,-464.097 2392.1,-459.593 2391.38,-466.556"/>
</g>
<!-- Node10 -->
<g id="node10" class="node"><title>Node10</title>
<g id="a_node10"><a xlink:href="../../d4/dad/classparser_1_1_simple_char_stream.html#a4eacb833520fdfdb1b18be45bc3bd4ba" target="_top" xlink:title="parser.SimpleCharStream.backup">
<polygon fill="white" stroke="black" points="2384.5,-417.929 2384.5,-436.929 2563.5,-436.929 2563.5,-417.929 2384.5,-417.929"/>
<text text-anchor="middle" x="2474" y="-424.929" font-family="Helvetica,sans-Serif" font-size="10.00">parser.SimpleCharStream.backup</text>
</a>
</g>
</g>
<!-- Node8&#45;&gt;Node10 -->
<g id="edge11" class="edge"><title>Node8&#45;&gt;Node10</title>
<path fill="none" stroke="midnightblue" d="M2330.26,-442.103C2344.29,-440.661 2359.24,-439.123 2373.99,-437.607"/>
<polygon fill="midnightblue" stroke="midnightblue" points="2374.57,-441.066 2384.16,-436.562 2373.85,-434.103 2374.57,-441.066"/>
</g>
<!-- Node13&#45;&gt;Node7 -->
<g id="edge15" class="edge"><title>Node13&#45;&gt;Node7</title>
<path fill="none" stroke="midnightblue" d="M395.587,-765.916C579.609,-786.765 1016.8,-831.429 1385,-831.429 1385,-831.429 1385,-831.429 1603,-831.429 1818.49,-831.429 1984.9,-565.537 2026.77,-492.049"/>
<polygon fill="midnightblue" stroke="midnightblue" points="2030.01,-493.438 2031.85,-483.004 2023.9,-490.013 2030.01,-493.438"/>
</g>
<!-- Node14 -->
<g id="node14" class="node"><title>Node14</title>
<g id="a_node14"><a xlink:href="../../d0/d8c/classparser_1_1_logo_parser_token_manager.html#a1f212a863542f9f3993faf51bb46ae8e" target="_top" xlink:title="parser.LogoParserTokenManager.jj\lStopStringLiteralDfa_0">
<polygon fill="white" stroke="black" points="1728.5,-190.429 1728.5,-220.429 1907.5,-220.429 1907.5,-190.429 1728.5,-190.429"/>
<text text-anchor="start" x="1736.5" y="-208.429" font-family="Helvetica,sans-Serif" font-size="10.00">parser.LogoParserTokenManager.jj</text>
<text text-anchor="middle" x="1818" y="-197.429" font-family="Helvetica,sans-Serif" font-size="10.00">StopStringLiteralDfa_0</text>
</a>
</g>
</g>
<!-- Node13&#45;&gt;Node14 -->
<g id="edge16" class="edge"><title>Node13&#45;&gt;Node14</title>
<path fill="none" stroke="midnightblue" d="M308.695,-740.244C320.966,-638.461 405.35,-59.4286 737,-59.4286 737,-59.4286 737,-59.4286 1171,-59.4286 1404.88,-59.4286 1470.88,-57.235 1692,-133.429 1727.22,-145.564 1763.71,-167.902 1788.1,-184.491"/>
<polygon fill="midnightblue" stroke="midnightblue" points="1786.3,-187.502 1796.52,-190.313 1790.29,-181.745 1786.3,-187.502"/>
</g>
<!-- Node15 -->
<g id="node15" class="node"><title>Node15</title>
<g id="a_node15"><a xlink:href="../../d0/d8c/classparser_1_1_logo_parser_token_manager.html#a26eaeb3ef169f93c03edbb3e26128b7a" target="_top" xlink:title="parser.LogoParserTokenManager.jj\lMoveStringLiteralDfa2_0">
<polygon fill="white" stroke="black" points="432.5,-626.429 432.5,-656.429 611.5,-656.429 611.5,-626.429 432.5,-626.429"/>
<text text-anchor="start" x="440.5" y="-644.429" font-family="Helvetica,sans-Serif" font-size="10.00">parser.LogoParserTokenManager.jj</text>
<text text-anchor="middle" x="522" y="-633.429" font-family="Helvetica,sans-Serif" font-size="10.00">MoveStringLiteralDfa2_0</text>
</a>
</g>
</g>
<!-- Node13&#45;&gt;Node15 -->
<g id="edge17" class="edge"><title>Node13&#45;&gt;Node15</title>
<path fill="none" stroke="midnightblue" d="M335.418,-740.29C373.656,-719.92 441.735,-683.654 483.952,-661.164"/>
<polygon fill="midnightblue" stroke="midnightblue" points="485.626,-664.239 492.806,-656.448 482.334,-658.061 485.626,-664.239"/>
</g>
<!-- Node16 -->
<g id="node16" class="node"><title>Node16</title>
<g id="a_node16"><a xlink:href="../../d0/d8c/classparser_1_1_logo_parser_token_manager.html#aa065c8b0c977d3c1c9d9058f96664080" target="_top" xlink:title="parser.LogoParserTokenManager.jj\lStartNfa_0">
<polygon fill="white" stroke="black" points="1512.5,-464.429 1512.5,-494.429 1691.5,-494.429 1691.5,-464.429 1512.5,-464.429"/>
<text text-anchor="start" x="1520.5" y="-482.429" font-family="Helvetica,sans-Serif" font-size="10.00">parser.LogoParserTokenManager.jj</text>
<text text-anchor="middle" x="1602" y="-471.429" font-family="Helvetica,sans-Serif" font-size="10.00">StartNfa_0</text>
</a>
</g>
</g>
<!-- Node13&#45;&gt;Node16 -->
<g id="edge47" class="edge"><title>Node13&#45;&gt;Node16</title>
<path fill="none" stroke="midnightblue" d="M395.563,-750.046C564.572,-738.912 944.395,-709.733 1260,-655.429 1357.31,-638.684 1392.37,-655.934 1476,-603.429 1497.4,-589.993 1494.55,-577.705 1512,-559.429 1531.9,-538.577 1556.38,-516.828 1574.62,-501.279"/>
<polygon fill="midnightblue" stroke="midnightblue" points="1577.15,-503.726 1582.52,-494.597 1572.63,-498.38 1577.15,-503.726"/>
</g>
<!-- Node15&#45;&gt;Node7 -->
<g id="edge21" class="edge"><title>Node15&#45;&gt;Node7</title>
<path fill="none" stroke="midnightblue" d="M611.669,-652.595C623.858,-653.768 636.226,-654.771 648,-655.429 1111.75,-681.318 1236.43,-698.92 1692,-608.429 1790.08,-588.946 1815.76,-584.042 1908,-545.429 1946.77,-529.199 1988.77,-504.244 2013.97,-488.385"/>
<polygon fill="midnightblue" stroke="midnightblue" points="2015.9,-491.306 2022.46,-482.987 2012.14,-485.399 2015.9,-491.306"/>
</g>
<!-- Node15&#45;&gt;Node14 -->
<g id="edge22" class="edge"><title>Node15&#45;&gt;Node14</title>
<path fill="none" stroke="midnightblue" d="M528.601,-626.265C554.242,-559.41 667.691,-290.156 864,-196.429 1171.37,-49.6759 1600.64,-144.757 1757.01,-187.636"/>
<polygon fill="midnightblue" stroke="midnightblue" points="1756.34,-191.082 1766.91,-190.382 1758.21,-184.337 1756.34,-191.082"/>
</g>
<!-- Node15&#45;&gt;Node16 -->
<g id="edge18" class="edge"><title>Node15&#45;&gt;Node16</title>
<path fill="none" stroke="midnightblue" d="M611.53,-641.429C698.467,-641.429 834.862,-641.429 953,-641.429 953,-641.429 953,-641.429 1171,-641.429 1329.42,-641.429 1500.81,-543.947 1569.72,-500.22"/>
<polygon fill="midnightblue" stroke="midnightblue" points="1571.84,-503.015 1578.37,-494.669 1568.06,-497.124 1571.84,-503.015"/>
</g>
<!-- Node15&#45;&gt;Node17 -->
<g id="edge23" class="edge"><title>Node15&#45;&gt;Node17</title>
<path fill="none" stroke="midnightblue" d="M522.751,-626.232C522.326,-557.471 528.115,-270.724 648,-83.4286 660.612,-63.7244 681.027,-47.5216 699.125,-35.8813"/>
<polygon fill="midnightblue" stroke="midnightblue" points="701.109,-38.7698 707.78,-30.5381 697.432,-32.8136 701.109,-38.7698"/>
</g>
<!-- Node18 -->
<g id="node18" class="node"><title>Node18</title>
<g id="a_node18"><a xlink:href="../../d0/d8c/classparser_1_1_logo_parser_token_manager.html#a12bfedaecfaf646642cb1aba5b1bd6fb" target="_top" xlink:title="parser.LogoParserTokenManager.jj\lMoveStringLiteralDfa3_0">
<polygon fill="white" stroke="black" points="648.5,-414.429 648.5,-444.429 827.5,-444.429 827.5,-414.429 648.5,-414.429"/>
<text text-anchor="start" x="656.5" y="-432.429" font-family="Helvetica,sans-Serif" font-size="10.00">parser.LogoParserTokenManager.jj</text>
<text text-anchor="middle" x="738" y="-421.429" font-family="Helvetica,sans-Serif" font-size="10.00">MoveStringLiteralDfa3_0</text>
</a>
</g>
</g>
<!-- Node15&#45;&gt;Node18 -->
<g id="edge24" class="edge"><title>Node15&#45;&gt;Node18</title>
<path fill="none" stroke="midnightblue" d="M538.39,-626.182C575.639,-589.282 670.784,-495.026 714.462,-451.756"/>
<polygon fill="midnightblue" stroke="midnightblue" points="717.108,-454.061 721.749,-444.537 712.182,-449.088 717.108,-454.061"/>
</g>
<!-- Node15&#45;&gt;Node22 -->
<g id="edge46" class="edge"><title>Node15&#45;&gt;Node22</title>
<path fill="none" stroke="midnightblue" d="M550.296,-656.488C574.973,-669.187 612.735,-686.386 648,-693.429 726.451,-709.096 748.034,-695.771 828,-693.429 1116.37,-684.981 1199.35,-737.251 1476,-655.429 1511.81,-644.837 1548.46,-622.373 1572.74,-605.532"/>
<polygon fill="midnightblue" stroke="midnightblue" points="1574.96,-608.249 1581.1,-599.614 1570.91,-602.535 1574.96,-608.249"/>
</g>
<!-- Node16&#45;&gt;Node2 -->
<g id="edge19" class="edge"><title>Node16&#45;&gt;Node2</title>
<path fill="none" stroke="midnightblue" d="M1625.04,-494.614C1644.87,-509.24 1673.61,-532.99 1692,-559.429 1759.4,-656.352 1797.81,-794.825 1811.36,-850.674"/>
<polygon fill="midnightblue" stroke="midnightblue" points="1807.96,-851.489 1813.68,-860.41 1814.77,-849.871 1807.96,-851.489"/>
</g>
<!-- Node16&#45;&gt;Node14 -->
<g id="edge20" class="edge"><title>Node16&#45;&gt;Node14</title>
<path fill="none" stroke="midnightblue" d="M1617.74,-464.128C1635.86,-445.069 1667.26,-411.252 1692,-380.429 1733.83,-328.303 1778.28,-263.511 1801.23,-229.252"/>
<polygon fill="midnightblue" stroke="midnightblue" points="1804.21,-231.09 1806.85,-220.83 1798.39,-227.204 1804.21,-231.09"/>
</g>
<!-- Node18&#45;&gt;Node7 -->
<g id="edge26" class="edge"><title>Node18&#45;&gt;Node7</title>
<path fill="none" stroke="midnightblue" d="M742.093,-414.24C751.637,-371.659 784.891,-250.71 864,-196.429 1088.69,-42.2567 1203.58,-152.811 1476,-159.429 1668.17,-164.097 1749.6,-71.5219 1908,-180.429 2003.56,-246.133 2029.05,-399.382 2035.2,-453.815"/>
<polygon fill="midnightblue" stroke="midnightblue" points="2031.73,-454.276 2036.24,-463.864 2038.69,-453.557 2031.73,-454.276"/>
</g>
<!-- Node18&#45;&gt;Node14 -->
<g id="edge27" class="edge"><title>Node18&#45;&gt;Node14</title>
<path fill="none" stroke="midnightblue" d="M752.091,-414.181C800.953,-359.069 979.599,-173.429 1169,-173.429 1169,-173.429 1169,-173.429 1387,-173.429 1522.7,-173.429 1556.91,-174.632 1692,-187.429 1700.56,-188.24 1709.44,-189.225 1718.33,-190.312"/>
<polygon fill="midnightblue" stroke="midnightblue" points="1718,-193.798 1728.36,-191.579 1718.87,-186.853 1718,-193.798"/>
</g>
<!-- Node18&#45;&gt;Node16 -->
<g id="edge25" class="edge"><title>Node18&#45;&gt;Node16</title>
<path fill="none" stroke="midnightblue" d="M827.657,-437.761C937.478,-447.739 1130.36,-464.14 1296,-472.429 1364.76,-475.869 1442.32,-477.62 1502.02,-478.511"/>
<polygon fill="midnightblue" stroke="midnightblue" points="1502.15,-482.013 1512.2,-478.657 1502.25,-475.014 1502.15,-482.013"/>
</g>
<!-- Node19 -->
<g id="node19" class="node"><title>Node19</title>
<g id="a_node19"><a xlink:href="../../d0/d8c/classparser_1_1_logo_parser_token_manager.html#aa9aaf3af52d382735345487d2b89e0cf" target="_top" xlink:title="parser.LogoParserTokenManager.jj\lMoveStringLiteralDfa4_0">
<polygon fill="white" stroke="black" points="864.5,-399.429 864.5,-429.429 1043.5,-429.429 1043.5,-399.429 864.5,-399.429"/>
<text text-anchor="start" x="872.5" y="-417.429" font-family="Helvetica,sans-Serif" font-size="10.00">parser.LogoParserTokenManager.jj</text>
<text text-anchor="middle" x="954" y="-406.429" font-family="Helvetica,sans-Serif" font-size="10.00">MoveStringLiteralDfa4_0</text>
</a>
</g>
</g>
<!-- Node18&#45;&gt;Node19 -->
<g id="edge28" class="edge"><title>Node18&#45;&gt;Node19</title>
<path fill="none" stroke="midnightblue" d="M827.587,-423.219C836.442,-422.599 845.472,-421.966 854.422,-421.338"/>
<polygon fill="midnightblue" stroke="midnightblue" points="854.749,-424.824 864.48,-420.633 854.259,-417.841 854.749,-424.824"/>
</g>
<!-- Node18&#45;&gt;Node22 -->
<g id="edge45" class="edge"><title>Node18&#45;&gt;Node22</title>
<path fill="none" stroke="midnightblue" d="M790.77,-444.483C813.184,-450.748 839.784,-457.846 864,-463.429 1054.43,-507.331 1102.99,-514.799 1296,-545.429 1364.65,-556.324 1442.38,-566.225 1502.18,-573.326"/>
<polygon fill="midnightblue" stroke="midnightblue" points="1502.04,-576.833 1512.38,-574.53 1502.86,-569.881 1502.04,-576.833"/>
</g>
<!-- Node19&#45;&gt;Node7 -->
<g id="edge30" class="edge"><title>Node19&#45;&gt;Node7</title>
<path fill="none" stroke="midnightblue" d="M977.141,-399.202C1038.76,-358.354 1218.68,-249.429 1385,-249.429 1385,-249.429 1385,-249.429 1603,-249.429 1783.66,-249.429 1964.23,-404.589 2019.71,-456.638"/>
<polygon fill="midnightblue" stroke="midnightblue" points="2017.59,-459.452 2027.25,-463.804 2022.42,-454.378 2017.59,-459.452"/>
</g>
<!-- Node19&#45;&gt;Node14 -->
<g id="edge31" class="edge"><title>Node19&#45;&gt;Node14</title>
<path fill="none" stroke="midnightblue" d="M960.176,-399.34C973.455,-363.284 1012.51,-272.381 1080,-235.429 1187.03,-176.826 1543.15,-188.851 1718.18,-198.823"/>
<polygon fill="midnightblue" stroke="midnightblue" points="1718.23,-202.332 1728.42,-199.416 1718.64,-195.344 1718.23,-202.332"/>
</g>
<!-- Node19&#45;&gt;Node16 -->
<g id="edge29" class="edge"><title>Node19&#45;&gt;Node16</title>
<path fill="none" stroke="midnightblue" d="M1043.81,-423.364C1163.93,-435.451 1377.51,-456.941 1502.46,-469.513"/>
<polygon fill="midnightblue" stroke="midnightblue" points="1502.11,-472.996 1512.41,-470.515 1502.81,-466.031 1502.11,-472.996"/>
</g>
<!-- Node20 -->
<g id="node20" class="node"><title>Node20</title>
<g id="a_node20"><a xlink:href="../../d0/d8c/classparser_1_1_logo_parser_token_manager.html#a4553920ced069b9d4852f1c1020bea38" target="_top" xlink:title="parser.LogoParserTokenManager.jj\lMoveStringLiteralDfa5_0">
<polygon fill="white" stroke="black" points="1080.5,-369.429 1080.5,-399.429 1259.5,-399.429 1259.5,-369.429 1080.5,-369.429"/>
<text text-anchor="start" x="1088.5" y="-387.429" font-family="Helvetica,sans-Serif" font-size="10.00">parser.LogoParserTokenManager.jj</text>
<text text-anchor="middle" x="1170" y="-376.429" font-family="Helvetica,sans-Serif" font-size="10.00">MoveStringLiteralDfa5_0</text>
</a>
</g>
</g>
<!-- Node19&#45;&gt;Node20 -->
<g id="edge32" class="edge"><title>Node19&#45;&gt;Node20</title>
<path fill="none" stroke="midnightblue" d="M1043.59,-402.01C1052.44,-400.768 1061.47,-399.503 1070.42,-398.248"/>
<polygon fill="midnightblue" stroke="midnightblue" points="1071.06,-401.692 1080.48,-396.838 1070.09,-394.76 1071.06,-401.692"/>
</g>
<!-- Node19&#45;&gt;Node22 -->
<g id="edge44" class="edge"><title>Node19&#45;&gt;Node22</title>
<path fill="none" stroke="midnightblue" d="M1005.99,-429.473C1028.62,-436.056 1055.6,-443.778 1080,-450.429 1240.67,-494.219 1430.29,-542.017 1530.57,-566.995"/>
<polygon fill="midnightblue" stroke="midnightblue" points="1529.74,-570.395 1540.29,-569.414 1531.43,-563.602 1529.74,-570.395"/>
</g>
<!-- Node20&#45;&gt;Node7 -->
<g id="edge34" class="edge"><title>Node20&#45;&gt;Node7</title>
<path fill="none" stroke="midnightblue" d="M1207.74,-369.35C1232.26,-360.118 1265.5,-349.19 1296,-344.429 1375.04,-332.09 1396.32,-337.293 1476,-344.429 1670.33,-361.831 1720.36,-368.968 1908,-422.429 1942.91,-432.376 1981.44,-448.292 2007.22,-459.698"/>
<polygon fill="midnightblue" stroke="midnightblue" points="2005.88,-462.935 2016.44,-463.827 2008.74,-456.546 2005.88,-462.935"/>
</g>
<!-- Node20&#45;&gt;Node14 -->
<g id="edge35" class="edge"><title>Node20&#45;&gt;Node14</title>
<path fill="none" stroke="midnightblue" d="M1192.03,-369.221C1216.04,-352.583 1257.03,-326.306 1296,-311.429 1371.9,-282.455 1589.78,-243.205 1718.48,-221.513"/>
<polygon fill="midnightblue" stroke="midnightblue" points="1719.07,-224.962 1728.35,-219.854 1717.91,-218.059 1719.07,-224.962"/>
</g>
<!-- Node20&#45;&gt;Node16 -->
<g id="edge33" class="edge"><title>Node20&#45;&gt;Node16</title>
<path fill="none" stroke="midnightblue" d="M1259.51,-396.172C1320.79,-405.187 1403.97,-419.183 1476,-437.429 1501.34,-443.848 1528.95,-452.897 1551.75,-460.952"/>
<polygon fill="midnightblue" stroke="midnightblue" points="1550.62,-464.264 1561.21,-464.333 1552.97,-457.672 1550.62,-464.264"/>
</g>
<!-- Node21 -->
<g id="node21" class="node"><title>Node21</title>
<g id="a_node21"><a xlink:href="../../d0/d8c/classparser_1_1_logo_parser_token_manager.html#a1bad232a9ce95d19e7133cbee0b538b5" target="_top" xlink:title="parser.LogoParserTokenManager.jj\lMoveStringLiteralDfa6_0">
<polygon fill="white" stroke="black" points="1296.5,-354.429 1296.5,-384.429 1475.5,-384.429 1475.5,-354.429 1296.5,-354.429"/>
<text text-anchor="start" x="1304.5" y="-372.429" font-family="Helvetica,sans-Serif" font-size="10.00">parser.LogoParserTokenManager.jj</text>
<text text-anchor="middle" x="1386" y="-361.429" font-family="Helvetica,sans-Serif" font-size="10.00">MoveStringLiteralDfa6_0</text>
</a>
</g>
</g>
<!-- Node20&#45;&gt;Node21 -->
<g id="edge36" class="edge"><title>Node20&#45;&gt;Node21</title>
<path fill="none" stroke="midnightblue" d="M1259.59,-378.219C1268.44,-377.599 1277.47,-376.966 1286.42,-376.338"/>
<polygon fill="midnightblue" stroke="midnightblue" points="1286.75,-379.824 1296.48,-375.633 1286.26,-372.841 1286.75,-379.824"/>
</g>
<!-- Node20&#45;&gt;Node22 -->
<g id="edge43" class="edge"><title>Node20&#45;&gt;Node22</title>
<path fill="none" stroke="midnightblue" d="M1203.32,-399.461C1280.22,-435.23 1474.03,-525.374 1559.46,-565.108"/>
<polygon fill="midnightblue" stroke="midnightblue" points="1558.06,-568.314 1568.6,-569.358 1561.01,-561.967 1558.06,-568.314"/>
</g>
<!-- Node21&#45;&gt;Node7 -->
<g id="edge38" class="edge"><title>Node21&#45;&gt;Node7</title>
<path fill="none" stroke="midnightblue" d="M1475.68,-383.617C1606.48,-404.546 1848.47,-443.264 1967.37,-462.288"/>
<polygon fill="midnightblue" stroke="midnightblue" points="1967.02,-465.777 1977.45,-463.901 1968.13,-458.865 1967.02,-465.777"/>
</g>
<!-- Node21&#45;&gt;Node14 -->
<g id="edge39" class="edge"><title>Node21&#45;&gt;Node14</title>
<path fill="none" stroke="midnightblue" d="M1475.73,-360.002C1538.42,-350.906 1623.19,-333.583 1692,-301.429 1731.87,-282.799 1770.97,-249.69 1794.54,-227.646"/>
<polygon fill="midnightblue" stroke="midnightblue" points="1797.09,-230.059 1801.92,-220.631 1792.26,-224.987 1797.09,-230.059"/>
</g>
<!-- Node21&#45;&gt;Node16 -->
<g id="edge37" class="edge"><title>Node21&#45;&gt;Node16</title>
<path fill="none" stroke="midnightblue" d="M1445.45,-384.443C1456.06,-388.452 1466.7,-393.396 1476,-399.429 1495.79,-412.262 1492.92,-424.559 1512,-438.429 1523.63,-446.88 1537.27,-454.219 1550.34,-460.259"/>
<polygon fill="midnightblue" stroke="midnightblue" points="1549.16,-463.562 1559.72,-464.425 1552,-457.165 1549.16,-463.562"/>
</g>
<!-- Node21&#45;&gt;Node22 -->
<g id="edge40" class="edge"><title>Node21&#45;&gt;Node22</title>
<path fill="none" stroke="midnightblue" d="M1400.48,-384.679C1422.99,-409.949 1469.9,-461.844 1512,-503.429 1532.88,-524.055 1557.65,-546.436 1575.74,-562.434"/>
<polygon fill="midnightblue" stroke="midnightblue" points="1573.73,-565.327 1583.55,-569.306 1578.36,-560.072 1573.73,-565.327"/>
</g>
<!-- Node22&#45;&gt;Node2 -->
<g id="edge42" class="edge"><title>Node22&#45;&gt;Node2</title>
<path fill="none" stroke="midnightblue" d="M1614.2,-599.664C1649.38,-647.495 1757.77,-794.884 1799.95,-852.247"/>
<polygon fill="midnightblue" stroke="midnightblue" points="1797.16,-854.361 1805.91,-860.344 1802.8,-850.214 1797.16,-854.361"/>
</g>
<!-- Node22&#45;&gt;Node7 -->
<g id="edge41" class="edge"><title>Node22&#45;&gt;Node7</title>
<path fill="none" stroke="midnightblue" d="M1661.98,-569.343C1749.11,-547.06 1910.46,-505.792 1990.07,-485.431"/>
<polygon fill="midnightblue" stroke="midnightblue" points="1991.01,-488.805 1999.83,-482.936 1989.27,-482.023 1991.01,-488.805"/>
</g>
</g>
</svg>
