<?xml version="1.0" encoding="UTF-8" standalone="no"?>
<!DOCTYPE svg PUBLIC "-//W3C//DTD SVG 1.1//EN"
 "http://www.w3.org/Graphics/SVG/1.1/DTD/svg11.dtd">
<!-- Generated by graphviz version 2.36.0 (20140111.2315)
 -->
<!-- Title: parser.LogoParserTokenManager.jjMoveStringLiteralDfa4_0 Pages: 1 -->
<!--zoomable 426 -->
<svg id="main" version="1.1" xmlns="http://www.w3.org/2000/svg" xmlns:xlink="http://www.w3.org/1999/xlink" xml:space="preserve" onload="init(evt)">
<style type="text/css"><![CDATA[
.edge:hover path { stroke: red; }
.edge:hover polygon { stroke: red; fill: red; }
]]></style>
<script type="text/javascript"><![CDATA[
var edges = document.getElementsByTagName('g');
if (edges && edges.length) {
  for (var i=0;i<edges.length;i++) {
    if (edges[i].id.substr(0,4)=='edge') {
      edges[i].setAttribute('class','edge');
    }
  }
}
]]></script>
        <defs>
                <circle id="rim" cx="0" cy="0" r="7"/>
                <circle id="rim2" cx="0" cy="0" r="3.5"/>
                <g id="zoomPlus">
                        <use xlink:href="#rim" fill="#404040">
                                <set attributeName="fill" to="#808080" begin="zoomplus.mouseover" end="zoomplus.mouseout"/>
                        </use>
                        <path d="M-4,0h8M0,-4v8" fill="none" stroke="white" stroke-width="1.5" pointer-events="none"/>
                </g>
                <g id="zoomMin">
                        <use xlink:href="#rim" fill="#404040">
                                <set attributeName="fill" to="#808080" begin="zoomminus.mouseover" end="zoomminus.mouseout"/>
                        </use>
                        <path d="M-4,0h8" fill="none" stroke="white" stroke-width="1.5" pointer-events="none"/>
                </g>
                <g id="dirArrow">
                        <path fill="none" stroke="white" stroke-width="1.5" d="M0,-3.0v7 M-2.5,-0.5L0,-3.0L2.5,-0.5"/>
                </g>
               <g id="resetDef">
                       <use xlink:href="#rim2" fill="#404040">
                               <set attributeName="fill" to="#808080" begin="reset.mouseover" end="reset.mouseout"/>
                       </use>
               </g>
        </defs>

<script type="text/javascript">
var viewWidth = 3670;
var viewHeight = 426;
var sectionId = 'dynsection-24';
</script>
<script xlink:href="../../svgpan.js"/>
<svg id="graph" class="graph">
<g id="viewport">
<title>parser.LogoParserTokenManager.jjMoveStringLiteralDfa4_0</title>
<polygon fill="white" stroke="none" points="-4,4 -4,-422.128 3666,-422.128 3666,4 -4,4"/>
<!-- Node1 -->
<g id="node1" class="node"><title>Node1</title>
<polygon fill="#bfbfbf" stroke="black" points="0.5,-308.128 0.5,-338.128 179.5,-338.128 179.5,-308.128 0.5,-308.128"/>
<text text-anchor="start" x="8.5" y="-326.128" font-family="Helvetica,sans-Serif" font-size="10.00">parser.LogoParserTokenManager.jj</text>
<text text-anchor="middle" x="90" y="-315.128" font-family="Helvetica,sans-Serif" font-size="10.00">MoveStringLiteralDfa4_0</text>
</g>
<!-- Node2 -->
<g id="node2" class="node"><title>Node2</title>
<g id="a_node2"><a xlink:href="../../d0/d8c/classparser_1_1_logo_parser_token_manager.html#a12bfedaecfaf646642cb1aba5b1bd6fb" target="_top" xlink:title="parser.LogoParserTokenManager.jj\lMoveStringLiteralDfa3_0">
<polygon fill="white" stroke="black" points="216.5,-308.128 216.5,-338.128 395.5,-338.128 395.5,-308.128 216.5,-308.128"/>
<text text-anchor="start" x="224.5" y="-326.128" font-family="Helvetica,sans-Serif" font-size="10.00">parser.LogoParserTokenManager.jj</text>
<text text-anchor="middle" x="306" y="-315.128" font-family="Helvetica,sans-Serif" font-size="10.00">MoveStringLiteralDfa3_0</text>
</a>
</g>
</g>
<!-- Node1&#45;&gt;Node2 -->
<g id="edge1" class="edge"><title>Node1&#45;&gt;Node2</title>
<path fill="none" stroke="midnightblue" d="M189.645,-323.128C198.596,-323.128 207.625,-323.128 216.48,-323.128"/>
<polygon fill="midnightblue" stroke="midnightblue" points="189.587,-319.628 179.587,-323.128 189.587,-326.628 189.587,-319.628"/>
</g>
<!-- Node3 -->
<g id="node3" class="node"><title>Node3</title>
<g id="a_node3"><a xlink:href="../../d0/d8c/classparser_1_1_logo_parser_token_manager.html#a26eaeb3ef169f93c03edbb3e26128b7a" target="_top" xlink:title="parser.LogoParserTokenManager.jj\lMoveStringLiteralDfa2_0">
<polygon fill="white" stroke="black" points="432.5,-308.128 432.5,-338.128 611.5,-338.128 611.5,-308.128 432.5,-308.128"/>
<text text-anchor="start" x="440.5" y="-326.128" font-family="Helvetica,sans-Serif" font-size="10.00">parser.LogoParserTokenManager.jj</text>
<text text-anchor="middle" x="522" y="-315.128" font-family="Helvetica,sans-Serif" font-size="10.00">MoveStringLiteralDfa2_0</text>
</a>
</g>
</g>
<!-- Node2&#45;&gt;Node3 -->
<g id="edge2" class="edge"><title>Node2&#45;&gt;Node3</title>
<path fill="none" stroke="midnightblue" d="M405.645,-323.128C414.596,-323.128 423.625,-323.128 432.48,-323.128"/>
<polygon fill="midnightblue" stroke="midnightblue" points="405.587,-319.628 395.587,-323.128 405.587,-326.628 405.587,-319.628"/>
</g>
<!-- Node4 -->
<g id="node4" class="node"><title>Node4</title>
<g id="a_node4"><a xlink:href="../../d0/d8c/classparser_1_1_logo_parser_token_manager.html#a99a01f0b68908e628349e9f09a2cbccd" target="_top" xlink:title="parser.LogoParserTokenManager.jj\lMoveStringLiteralDfa1_0">
<polygon fill="white" stroke="black" points="648.5,-308.128 648.5,-338.128 827.5,-338.128 827.5,-308.128 648.5,-308.128"/>
<text text-anchor="start" x="656.5" y="-326.128" font-family="Helvetica,sans-Serif" font-size="10.00">parser.LogoParserTokenManager.jj</text>
<text text-anchor="middle" x="738" y="-315.128" font-family="Helvetica,sans-Serif" font-size="10.00">MoveStringLiteralDfa1_0</text>
</a>
</g>
</g>
<!-- Node3&#45;&gt;Node4 -->
<g id="edge3" class="edge"><title>Node3&#45;&gt;Node4</title>
<path fill="none" stroke="midnightblue" d="M621.645,-323.128C630.596,-323.128 639.625,-323.128 648.48,-323.128"/>
<polygon fill="midnightblue" stroke="midnightblue" points="621.587,-319.628 611.587,-323.128 621.587,-326.628 621.587,-319.628"/>
</g>
<!-- Node5 -->
<g id="node5" class="node"><title>Node5</title>
<g id="a_node5"><a xlink:href="../../d0/d8c/classparser_1_1_logo_parser_token_manager.html#a2b55f093fc0200c57a099eba2d9b37e2" target="_top" xlink:title="parser.LogoParserTokenManager.jj\lMoveStringLiteralDfa0_0">
<polygon fill="white" stroke="black" points="864.5,-308.128 864.5,-338.128 1043.5,-338.128 1043.5,-308.128 864.5,-308.128"/>
<text text-anchor="start" x="872.5" y="-326.128" font-family="Helvetica,sans-Serif" font-size="10.00">parser.LogoParserTokenManager.jj</text>
<text text-anchor="middle" x="954" y="-315.128" font-family="Helvetica,sans-Serif" font-size="10.00">MoveStringLiteralDfa0_0</text>
</a>
</g>
</g>
<!-- Node4&#45;&gt;Node5 -->
<g id="edge4" class="edge"><title>Node4&#45;&gt;Node5</title>
<path fill="none" stroke="midnightblue" d="M837.645,-323.128C846.596,-323.128 855.625,-323.128 864.48,-323.128"/>
<polygon fill="midnightblue" stroke="midnightblue" points="837.587,-319.628 827.587,-323.128 837.587,-326.628 837.587,-319.628"/>
</g>
<!-- Node6 -->
<g id="node6" class="node"><title>Node6</title>
<g id="a_node6"><a xlink:href="../../d0/d8c/classparser_1_1_logo_parser_token_manager.html#a3dee50e2286b70ba662519a865e63b77" target="_top" xlink:title="parser.LogoParserTokenManager.get\lNextToken">
<polygon fill="white" stroke="black" points="1080,-308.128 1080,-338.128 1270,-338.128 1270,-308.128 1080,-308.128"/>
<text text-anchor="start" x="1088" y="-326.128" font-family="Helvetica,sans-Serif" font-size="10.00">parser.LogoParserTokenManager.get</text>
<text text-anchor="middle" x="1175" y="-315.128" font-family="Helvetica,sans-Serif" font-size="10.00">NextToken</text>
</a>
</g>
</g>
<!-- Node5&#45;&gt;Node6 -->
<g id="edge5" class="edge"><title>Node5&#45;&gt;Node6</title>
<path fill="none" stroke="midnightblue" d="M1053.83,-323.128C1062.46,-323.128 1071.17,-323.128 1079.76,-323.128"/>
<polygon fill="midnightblue" stroke="midnightblue" points="1053.76,-319.628 1043.76,-323.128 1053.76,-326.628 1053.76,-319.628"/>
</g>
<!-- Node7 -->
<g id="node7" class="node"><title>Node7</title>
<g id="a_node7"><a xlink:href="../../d5/d0e/classparser_1_1_logo_parser.html#a7477b52c4469ea43d75f88fb805e37a1" target="_top" xlink:title="parser.LogoParser.getNext\lToken">
<polygon fill="white" stroke="black" points="1308.5,-371.128 1308.5,-401.128 1451.5,-401.128 1451.5,-371.128 1308.5,-371.128"/>
<text text-anchor="start" x="1316.5" y="-389.128" font-family="Helvetica,sans-Serif" font-size="10.00">parser.LogoParser.getNext</text>
<text text-anchor="middle" x="1380" y="-378.128" font-family="Helvetica,sans-Serif" font-size="10.00">Token</text>
</a>
</g>
</g>
<!-- Node6&#45;&gt;Node7 -->
<g id="edge6" class="edge"><title>Node6&#45;&gt;Node7</title>
<path fill="none" stroke="midnightblue" d="M1234.04,-341.142C1264.61,-350.629 1301.66,-362.127 1330.65,-371.124"/>
<polygon fill="midnightblue" stroke="midnightblue" points="1234.95,-337.76 1224.37,-338.138 1232.88,-344.445 1234.95,-337.76"/>
</g>
<!-- Node8 -->
<g id="node8" class="node"><title>Node8</title>
<g id="a_node8"><a xlink:href="../../d5/d0e/classparser_1_1_logo_parser.html#a63b7890a7d6323bcf938132f968e8157" target="_top" xlink:title="parser.LogoParser.getToken">
<polygon fill="white" stroke="black" points="1306,-332.628 1306,-351.628 1454,-351.628 1454,-332.628 1306,-332.628"/>
<text text-anchor="middle" x="1380" y="-339.628" font-family="Helvetica,sans-Serif" font-size="10.00">parser.LogoParser.getToken</text>
</a>
</g>
</g>
<!-- Node6&#45;&gt;Node8 -->
<g id="edge7" class="edge"><title>Node6&#45;&gt;Node8</title>
<path fill="none" stroke="midnightblue" d="M1280.24,-332.885C1288.91,-333.696 1297.54,-334.504 1305.9,-335.287"/>
<polygon fill="midnightblue" stroke="midnightblue" points="1280.35,-329.38 1270.07,-331.933 1279.7,-336.35 1280.35,-329.38"/>
</g>
<!-- Node9 -->
<g id="node9" class="node"><title>Node9</title>
<g id="a_node9"><a xlink:href="../../d5/d0e/classparser_1_1_logo_parser.html#a550039a3180ec86ef01f419aefc02edc" target="_top" xlink:title="parser.LogoParser.jj\l_consume_token">
<polygon fill="white" stroke="black" points="1325,-118.128 1325,-148.128 1435,-148.128 1435,-118.128 1325,-118.128"/>
<text text-anchor="start" x="1333" y="-136.128" font-family="Helvetica,sans-Serif" font-size="10.00">parser.LogoParser.jj</text>
<text text-anchor="middle" x="1380" y="-125.128" font-family="Helvetica,sans-Serif" font-size="10.00">_consume_token</text>
</a>
</g>
</g>
<!-- Node6&#45;&gt;Node9 -->
<g id="edge8" class="edge"><title>Node6&#45;&gt;Node9</title>
<path fill="none" stroke="midnightblue" d="M1199.79,-300.864C1241.63,-261.703 1327.33,-181.49 1362.94,-148.164"/>
<polygon fill="midnightblue" stroke="midnightblue" points="1197.18,-298.512 1192.27,-307.901 1201.96,-303.623 1197.18,-298.512"/>
</g>
<!-- Node26 -->
<g id="node26" class="node"><title>Node26</title>
<g id="a_node26"><a xlink:href="../../d5/d0e/classparser_1_1_logo_parser.html#a2e48e3ab2c1c075beca7bcc54d891afd" target="_top" xlink:title="parser.LogoParser.jj_ntk">
<polygon fill="white" stroke="black" points="1315,-294.628 1315,-313.628 1445,-313.628 1445,-294.628 1315,-294.628"/>
<text text-anchor="middle" x="1380" y="-301.628" font-family="Helvetica,sans-Serif" font-size="10.00">parser.LogoParser.jj_ntk</text>
</a>
</g>
</g>
<!-- Node6&#45;&gt;Node26 -->
<g id="edge33" class="edge"><title>Node6&#45;&gt;Node26</title>
<path fill="none" stroke="midnightblue" d="M1280.38,-313.359C1292.12,-312.26 1303.8,-311.167 1314.81,-310.137"/>
<polygon fill="midnightblue" stroke="midnightblue" points="1279.7,-309.907 1270.07,-314.324 1280.35,-316.876 1279.7,-309.907"/>
</g>
<!-- Node10 -->
<g id="node10" class="node"><title>Node10</title>
<g id="a_node10"><a xlink:href="../../d5/d0e/classparser_1_1_logo_parser.html#a82acce8328e52f3b2bcb90542cc800b7" target="_top" xlink:title="parser.LogoParser.arithm">
<polygon fill="white" stroke="black" points="1814.5,-170.628 1814.5,-189.628 1951.5,-189.628 1951.5,-170.628 1814.5,-170.628"/>
<text text-anchor="middle" x="1883" y="-177.628" font-family="Helvetica,sans-Serif" font-size="10.00">parser.LogoParser.arithm</text>
</a>
</g>
</g>
<!-- Node9&#45;&gt;Node10 -->
<g id="edge9" class="edge"><title>Node9&#45;&gt;Node10</title>
<path fill="none" stroke="midnightblue" d="M1445.14,-139.145C1540.08,-148.052 1717.24,-164.672 1814.23,-173.771"/>
<polygon fill="midnightblue" stroke="midnightblue" points="1445.38,-135.652 1435.09,-138.203 1444.72,-142.622 1445.38,-135.652"/>
</g>
<!-- Node11 -->
<g id="node11" class="node"><title>Node11</title>
<g id="a_node11"><a xlink:href="../../d5/d0e/classparser_1_1_logo_parser.html#a397c25c39976e5a1fb689e1f0dd40160" target="_top" xlink:title="parser.LogoParser.eval">
<polygon fill="white" stroke="black" points="1988.5,-137.628 1988.5,-156.628 2113.5,-156.628 2113.5,-137.628 1988.5,-137.628"/>
<text text-anchor="middle" x="2051" y="-144.628" font-family="Helvetica,sans-Serif" font-size="10.00">parser.LogoParser.eval</text>
</a>
</g>
</g>
<!-- Node9&#45;&gt;Node11 -->
<g id="edge25" class="edge"><title>Node9&#45;&gt;Node11</title>
<path fill="none" stroke="midnightblue" d="M1445.27,-134.473C1573.9,-137.165 1861.46,-143.183 1988.1,-145.833"/>
<polygon fill="midnightblue" stroke="midnightblue" points="1445.25,-130.972 1435.18,-134.262 1445.1,-137.971 1445.25,-130.972"/>
</g>
<!-- Node12 -->
<g id="node12" class="node"><title>Node12</title>
<g id="a_node12"><a xlink:href="../../d5/d0e/classparser_1_1_logo_parser.html#a6b0ba0c2b5b0bc8c2ef76863fffdb6a3" target="_top" xlink:title="parser.LogoParser.list">
<polygon fill="white" stroke="black" points="2342.5,-99.6283 2342.5,-118.628 2461.5,-118.628 2461.5,-99.6283 2342.5,-99.6283"/>
<text text-anchor="middle" x="2402" y="-106.628" font-family="Helvetica,sans-Serif" font-size="10.00">parser.LogoParser.list</text>
</a>
</g>
</g>
<!-- Node9&#45;&gt;Node12 -->
<g id="edge27" class="edge"><title>Node9&#45;&gt;Node12</title>
<path fill="none" stroke="midnightblue" d="M1415.87,-113.211C1436.79,-102.026 1464.24,-88.6456 1490,-80.1283 1585.75,-48.4635 1612.15,-38.1283 1713,-38.1283 1713,-38.1283 1713,-38.1283 2052,-38.1283 2173.81,-38.1283 2314.82,-80.173 2373.34,-99.5529"/>
<polygon fill="midnightblue" stroke="midnightblue" points="1414.16,-110.159 1407.04,-118.009 1417.5,-116.309 1414.16,-110.159"/>
</g>
<!-- Node13 -->
<g id="node13" class="node"><title>Node13</title>
<g id="a_node13"><a xlink:href="../../d5/d0e/classparser_1_1_logo_parser.html#a4a8825534e0488215d22bcd947bc4d41" target="_top" xlink:title="parser.LogoParser.expression">
<polygon fill="white" stroke="black" points="2498.5,-26.6283 2498.5,-45.6283 2655.5,-45.6283 2655.5,-26.6283 2498.5,-26.6283"/>
<text text-anchor="middle" x="2577" y="-33.6283" font-family="Helvetica,sans-Serif" font-size="10.00">parser.LogoParser.expression</text>
</a>
</g>
</g>
<!-- Node9&#45;&gt;Node13 -->
<g id="edge26" class="edge"><title>Node9&#45;&gt;Node13</title>
<path fill="none" stroke="midnightblue" d="M1400.93,-110.568C1421.17,-89.1803 1454.51,-57.9001 1490,-41.1283 1581.11,1.92439 1612.23,-0.128293 1713,-0.128293 1713,-0.128293 1713,-0.128293 2229,-0.128293 2331.81,-0.128293 2450.85,-15.9569 2519.39,-26.6226"/>
<polygon fill="midnightblue" stroke="midnightblue" points="1398.32,-108.241 1394.09,-117.955 1403.45,-112.998 1398.32,-108.241"/>
</g>
<!-- Node23 -->
<g id="node23" class="node"><title>Node23</title>
<g id="a_node23"><a xlink:href="../../d5/d0e/classparser_1_1_logo_parser.html#ad6ed8e51959a6e19a2323444aa8331c8" target="_top" xlink:title="parser.LogoParser.statement">
<polygon fill="white" stroke="black" points="2150.5,-137.628 2150.5,-156.628 2305.5,-156.628 2305.5,-137.628 2150.5,-137.628"/>
<text text-anchor="middle" x="2228" y="-144.628" font-family="Helvetica,sans-Serif" font-size="10.00">parser.LogoParser.statement</text>
</a>
</g>
</g>
<!-- Node9&#45;&gt;Node23 -->
<g id="edge31" class="edge"><title>Node9&#45;&gt;Node23</title>
<path fill="none" stroke="midnightblue" d="M1444.76,-115.549C1511.19,-98.8025 1618.57,-76.1283 1713,-76.1283 1713,-76.1283 1713,-76.1283 1884,-76.1283 2003.8,-76.1283 2142.34,-118.173 2199.83,-137.553"/>
<polygon fill="midnightblue" stroke="midnightblue" points="1443.68,-112.212 1434.86,-118.078 1445.41,-118.994 1443.68,-112.212"/>
</g>
<!-- Node24 -->
<g id="node24" class="node"><title>Node24</title>
<g id="a_node24"><a xlink:href="../../d5/d0e/classparser_1_1_logo_parser.html#a4bdaeff6df067fde6743ff07370c3b0b" target="_top" xlink:title="parser.LogoParser.pow">
<polygon fill="white" stroke="black" points="1490,-218.628 1490,-237.628 1614,-237.628 1614,-218.628 1490,-218.628"/>
<text text-anchor="middle" x="1552" y="-225.628" font-family="Helvetica,sans-Serif" font-size="10.00">parser.LogoParser.pow</text>
</a>
</g>
</g>
<!-- Node9&#45;&gt;Node24 -->
<g id="edge28" class="edge"><title>Node9&#45;&gt;Node24</title>
<path fill="none" stroke="midnightblue" d="M1409.86,-154.242C1431.29,-169.334 1461.6,-189.482 1490,-204.128 1500.52,-209.553 1512.56,-214.531 1523.15,-218.53"/>
<polygon fill="midnightblue" stroke="midnightblue" points="1411.72,-151.266 1401.54,-148.319 1407.66,-156.969 1411.72,-151.266"/>
</g>
<!-- Node25 -->
<g id="node25" class="node"><title>Node25</title>
<g id="a_node25"><a xlink:href="../../d5/d0e/classparser_1_1_logo_parser.html#a34f4226672a2711ce2691162fdb2124d" target="_top" xlink:title="parser.LogoParser.term">
<polygon fill="white" stroke="black" points="1650,-199.628 1650,-218.628 1778,-218.628 1778,-199.628 1650,-199.628"/>
<text text-anchor="middle" x="1714" y="-206.628" font-family="Helvetica,sans-Serif" font-size="10.00">parser.LogoParser.term</text>
</a>
</g>
</g>
<!-- Node9&#45;&gt;Node25 -->
<g id="edge32" class="edge"><title>Node9&#45;&gt;Node25</title>
<path fill="none" stroke="midnightblue" d="M1436.64,-151.185C1453.66,-156.381 1472.51,-161.807 1490,-166.128 1545.5,-179.842 1609.67,-191.816 1654.89,-199.621"/>
<polygon fill="midnightblue" stroke="midnightblue" points="1437.44,-147.768 1426.85,-148.162 1435.37,-154.457 1437.44,-147.768"/>
</g>
<!-- Node10&#45;&gt;Node11 -->
<g id="edge10" class="edge"><title>Node10&#45;&gt;Node11</title>
<path fill="none" stroke="midnightblue" d="M1942.06,-168.586C1961.68,-164.686 1983.35,-160.378 2002.09,-156.652"/>
<polygon fill="midnightblue" stroke="midnightblue" points="1941.14,-165.201 1932.01,-170.583 1942.5,-172.066 1941.14,-165.201"/>
</g>
<!-- Node11&#45;&gt;Node12 -->
<g id="edge11" class="edge"><title>Node11&#45;&gt;Node12</title>
<path fill="none" stroke="midnightblue" d="M2105.06,-135.677C2119.58,-132.863 2135.35,-130.097 2150,-128.128 2215.62,-119.314 2291.48,-114.278 2342.47,-111.635"/>
<polygon fill="midnightblue" stroke="midnightblue" points="2104.37,-132.246 2095.24,-137.624 2105.73,-139.112 2104.37,-132.246"/>
</g>
<!-- Node11&#45;&gt;Node23 -->
<g id="edge23" class="edge"><title>Node11&#45;&gt;Node23</title>
<path fill="none" stroke="midnightblue" d="M2123.8,-147.128C2132.51,-147.128 2141.44,-147.128 2150.22,-147.128"/>
<polygon fill="midnightblue" stroke="midnightblue" points="2123.7,-143.628 2113.7,-147.128 2123.7,-150.628 2123.7,-143.628"/>
</g>
<!-- Node12&#45;&gt;Node13 -->
<g id="edge12" class="edge"><title>Node12&#45;&gt;Node13</title>
<path fill="none" stroke="midnightblue" d="M2435.2,-95.5422C2469.58,-81.0317 2523.2,-58.4088 2553.38,-45.6741"/>
<polygon fill="midnightblue" stroke="midnightblue" points="2433.47,-92.4724 2425.62,-99.5848 2436.19,-98.9217 2433.47,-92.4724"/>
</g>
<!-- Node14 -->
<g id="node14" class="node"><title>Node14</title>
<g id="a_node14"><a xlink:href="../../d5/d0e/classparser_1_1_logo_parser.html#adefe3b97ad0d2d7fd0dcd13f7ef2c75e" target="_top" xlink:title="parser.LogoParser.parse">
<polygon fill="white" stroke="black" points="2511,-99.6283 2511,-118.628 2643,-118.628 2643,-99.6283 2511,-99.6283"/>
<text text-anchor="middle" x="2577" y="-106.628" font-family="Helvetica,sans-Serif" font-size="10.00">parser.LogoParser.parse</text>
</a>
</g>
</g>
<!-- Node12&#45;&gt;Node14 -->
<g id="edge13" class="edge"><title>Node12&#45;&gt;Node14</title>
<path fill="none" stroke="midnightblue" d="M2471.78,-109.128C2484.7,-109.128 2498.16,-109.128 2510.95,-109.128"/>
<polygon fill="midnightblue" stroke="midnightblue" points="2471.57,-105.628 2461.57,-109.128 2471.57,-112.628 2471.57,-105.628"/>
</g>
<!-- Node15 -->
<g id="node15" class="node"><title>Node15</title>
<g id="a_node15"><a xlink:href="../../d6/d95/classparser_1_1_parser.html#af3d0cef45b9f02f1707959c08d8f3797" target="_top" xlink:title="parser.Parser.parse">
<polygon fill="white" stroke="black" points="2692.5,-99.6283 2692.5,-118.628 2801.5,-118.628 2801.5,-99.6283 2692.5,-99.6283"/>
<text text-anchor="middle" x="2747" y="-106.628" font-family="Helvetica,sans-Serif" font-size="10.00">parser.Parser.parse</text>
</a>
</g>
</g>
<!-- Node14&#45;&gt;Node15 -->
<g id="edge14" class="edge"><title>Node14&#45;&gt;Node15</title>
<path fill="none" stroke="midnightblue" d="M2653.8,-109.128C2666.83,-109.128 2680.12,-109.128 2692.41,-109.128"/>
<polygon fill="midnightblue" stroke="midnightblue" points="2653.43,-105.628 2643.43,-109.128 2653.43,-112.628 2653.43,-105.628"/>
</g>
<!-- Node16 -->
<g id="node16" class="node"><title>Node16</title>
<g id="a_node16"><a xlink:href="../../d4/d06/classinput_1_1_input_executor.html#a687a9f2cbed5d27a2c7b1336a1cab8aa" target="_top" xlink:title="input.InputExecutor.process\lInput">
<polygon fill="white" stroke="black" points="2838.5,-138.128 2838.5,-168.128 2987.5,-168.128 2987.5,-138.128 2838.5,-138.128"/>
<text text-anchor="start" x="2846.5" y="-156.128" font-family="Helvetica,sans-Serif" font-size="10.00">input.InputExecutor.process</text>
<text text-anchor="middle" x="2913" y="-145.128" font-family="Helvetica,sans-Serif" font-size="10.00">Input</text>
</a>
</g>
</g>
<!-- Node15&#45;&gt;Node16 -->
<g id="edge15" class="edge"><title>Node15&#45;&gt;Node16</title>
<path fill="none" stroke="midnightblue" d="M2793.36,-121.297C2812.7,-126.486 2835.46,-132.593 2855.85,-138.063"/>
<polygon fill="midnightblue" stroke="midnightblue" points="2794.15,-117.887 2783.59,-118.676 2792.34,-124.647 2794.15,-117.887"/>
</g>
<!-- Node17 -->
<g id="node17" class="node"><title>Node17</title>
<g id="a_node17"><a xlink:href="../../d6/d95/classparser_1_1_parser.html#ae90f8410be9931ec3f349085c8fdae71" target="_top" xlink:title="parser.Parser.parseFile">
<polygon fill="white" stroke="black" points="2851,-99.6283 2851,-118.628 2975,-118.628 2975,-99.6283 2851,-99.6283"/>
<text text-anchor="middle" x="2913" y="-106.628" font-family="Helvetica,sans-Serif" font-size="10.00">parser.Parser.parseFile</text>
</a>
</g>
</g>
<!-- Node15&#45;&gt;Node17 -->
<g id="edge16" class="edge"><title>Node15&#45;&gt;Node17</title>
<path fill="none" stroke="midnightblue" d="M2811.82,-109.128C2824.63,-109.128 2838.06,-109.128 2850.79,-109.128"/>
<polygon fill="midnightblue" stroke="midnightblue" points="2811.7,-105.628 2801.7,-109.128 2811.7,-112.628 2811.7,-105.628"/>
</g>
<!-- Node22 -->
<g id="node22" class="node"><title>Node22</title>
<g id="a_node22"><a xlink:href="../../d5/d56/class_workspace.html#a0ed8fb487512971086b6f3ed0d74e4ae" target="_top" xlink:title="Workspace.sendUserInput">
<polygon fill="white" stroke="black" points="3029,-57.6283 3029,-76.6283 3169,-76.6283 3169,-57.6283 3029,-57.6283"/>
<text text-anchor="middle" x="3099" y="-64.6283" font-family="Helvetica,sans-Serif" font-size="10.00">Workspace.sendUserInput</text>
</a>
</g>
</g>
<!-- Node15&#45;&gt;Node22 -->
<g id="edge21" class="edge"><title>Node15&#45;&gt;Node22</title>
<path fill="none" stroke="midnightblue" d="M2798.23,-97.4126C2811.14,-94.7092 2825.04,-92.0626 2838,-90.1283 2902.31,-80.5301 2976.22,-74.4655 3028.76,-70.9889"/>
<polygon fill="midnightblue" stroke="midnightblue" points="2797.18,-94.0595 2788.14,-99.5804 2798.65,-100.904 2797.18,-94.0595"/>
</g>
<!-- Node18 -->
<g id="node18" class="node"><title>Node18</title>
<g id="a_node18"><a xlink:href="../../d9/de8/class_file_chooser_feature.html#ad742b8e9d07e8151f0a9ff1972867ce8" target="_top" xlink:title="FileChooserFeature.openFile\lChooser">
<polygon fill="white" stroke="black" points="3024.5,-96.1283 3024.5,-126.128 3173.5,-126.128 3173.5,-96.1283 3024.5,-96.1283"/>
<text text-anchor="start" x="3032.5" y="-114.128" font-family="Helvetica,sans-Serif" font-size="10.00">FileChooserFeature.openFile</text>
<text text-anchor="middle" x="3099" y="-103.128" font-family="Helvetica,sans-Serif" font-size="10.00">Chooser</text>
</a>
</g>
</g>
<!-- Node17&#45;&gt;Node18 -->
<g id="edge17" class="edge"><title>Node17&#45;&gt;Node18</title>
<path fill="none" stroke="midnightblue" d="M2985.17,-109.902C2998.02,-110.042 3011.44,-110.187 3024.35,-110.328"/>
<polygon fill="midnightblue" stroke="midnightblue" points="2985.05,-106.4 2975.01,-109.791 2984.98,-113.4 2985.05,-106.4"/>
</g>
<!-- Node19 -->
<g id="node19" class="node"><title>Node19</title>
<g id="a_node19"><a xlink:href="../../d5/d56/class_workspace.html#a6babd032d9af86fbc23812272d59a2d2" target="_top" xlink:title="Workspace.addFeatureButtons">
<polygon fill="white" stroke="black" points="3210,-99.6283 3210,-118.628 3372,-118.628 3372,-99.6283 3210,-99.6283"/>
<text text-anchor="middle" x="3291" y="-106.628" font-family="Helvetica,sans-Serif" font-size="10.00">Workspace.addFeatureButtons</text>
</a>
</g>
</g>
<!-- Node18&#45;&gt;Node19 -->
<g id="edge18" class="edge"><title>Node18&#45;&gt;Node19</title>
<path fill="none" stroke="midnightblue" d="M3183.77,-110.247C3192.38,-110.156 3201.12,-110.064 3209.7,-109.974"/>
<polygon fill="midnightblue" stroke="midnightblue" points="3183.69,-106.747 3173.73,-110.352 3183.77,-113.747 3183.69,-106.747"/>
</g>
<!-- Node20 -->
<g id="node20" class="node"><title>Node20</title>
<g id="a_node20"><a xlink:href="../../d5/d56/class_workspace.html#a429d535dfd8427637b7715f0b1e1df1b" target="_top" xlink:title="Workspace.createWorkspace">
<polygon fill="white" stroke="black" points="3408,-79.6283 3408,-98.6283 3560,-98.6283 3560,-79.6283 3408,-79.6283"/>
<text text-anchor="middle" x="3484" y="-86.6283" font-family="Helvetica,sans-Serif" font-size="10.00">Workspace.createWorkspace</text>
</a>
</g>
</g>
<!-- Node19&#45;&gt;Node20 -->
<g id="edge19" class="edge"><title>Node19&#45;&gt;Node20</title>
<path fill="none" stroke="midnightblue" d="M3382.22,-99.6809C3390.82,-98.7804 3399.48,-97.874 3407.91,-96.9909"/>
<polygon fill="midnightblue" stroke="midnightblue" points="3381.75,-96.2109 3372.17,-100.733 3382.48,-103.173 3381.75,-96.2109"/>
</g>
<!-- Node21 -->
<g id="node21" class="node"><title>Node21</title>
<g id="a_node21"><a xlink:href="../../d0/d4b/class_main.html#aaa75b38812324d0f17c89f139bde6ada" target="_top" xlink:title="Main.start">
<polygon fill="white" stroke="black" points="3596.5,-79.6283 3596.5,-98.6283 3661.5,-98.6283 3661.5,-79.6283 3596.5,-79.6283"/>
<text text-anchor="middle" x="3629" y="-86.6283" font-family="Helvetica,sans-Serif" font-size="10.00">Main.start</text>
</a>
</g>
</g>
<!-- Node20&#45;&gt;Node21 -->
<g id="edge20" class="edge"><title>Node20&#45;&gt;Node21</title>
<path fill="none" stroke="midnightblue" d="M3570.39,-89.1283C3579.63,-89.1283 3588.55,-89.1283 3596.5,-89.1283"/>
<polygon fill="midnightblue" stroke="midnightblue" points="3570.27,-85.6284 3560.27,-89.1283 3570.27,-92.6284 3570.27,-85.6284"/>
</g>
<!-- Node22&#45;&gt;Node20 -->
<g id="edge22" class="edge"><title>Node22&#45;&gt;Node20</title>
<path fill="none" stroke="midnightblue" d="M3179.47,-71.6929C3246.6,-75.5494 3342.08,-81.0335 3407.94,-84.8165"/>
<polygon fill="midnightblue" stroke="midnightblue" points="3179.54,-68.1916 3169.36,-71.1123 3179.14,-75.1801 3179.54,-68.1916"/>
</g>
<!-- Node23&#45;&gt;Node12 -->
<g id="edge24" class="edge"><title>Node23&#45;&gt;Node12</title>
<path fill="none" stroke="midnightblue" d="M2282.2,-135.376C2306.52,-130.003 2334.95,-123.72 2357.91,-118.648"/>
<polygon fill="midnightblue" stroke="midnightblue" points="2281.41,-131.964 2272.4,-137.539 2282.92,-138.8 2281.41,-131.964"/>
</g>
<!-- Node24&#45;&gt;Node25 -->
<g id="edge29" class="edge"><title>Node24&#45;&gt;Node25</title>
<path fill="none" stroke="midnightblue" d="M1624.6,-219.625C1633.04,-218.624 1641.6,-217.607 1649.91,-216.621"/>
<polygon fill="midnightblue" stroke="midnightblue" points="1623.92,-216.182 1614.4,-220.837 1624.75,-223.133 1623.92,-216.182"/>
</g>
<!-- Node25&#45;&gt;Node10 -->
<g id="edge30" class="edge"><title>Node25&#45;&gt;Node10</title>
<path fill="none" stroke="midnightblue" d="M1780.21,-197.805C1795.75,-195.106 1812.18,-192.253 1827.2,-189.645"/>
<polygon fill="midnightblue" stroke="midnightblue" points="1779.4,-194.393 1770.14,-199.552 1780.6,-201.29 1779.4,-194.393"/>
</g>
<!-- Node26&#45;&gt;Node10 -->
<g id="edge34" class="edge"><title>Node26&#45;&gt;Node10</title>
<path fill="none" stroke="midnightblue" d="M1455.48,-299.342C1501.49,-295.516 1561.56,-288.951 1614,-278.128 1688.63,-262.726 1706.8,-255.269 1778,-228.128 1808.47,-216.513 1842.58,-200.08 1863.17,-189.77"/>
<polygon fill="midnightblue" stroke="midnightblue" points="1454.97,-295.871 1445.29,-300.164 1455.54,-302.848 1454.97,-295.871"/>
</g>
<!-- Node26&#45;&gt;Node11 -->
<g id="edge35" class="edge"><title>Node26&#45;&gt;Node11</title>
<path fill="none" stroke="midnightblue" d="M1455.18,-307.109C1501.09,-307.98 1561.15,-307.361 1614,-301.128 1769.83,-282.751 1808.9,-263.494 1952,-199.128 1981.51,-185.855 2014.49,-167.608 2033.68,-156.632"/>
<polygon fill="midnightblue" stroke="midnightblue" points="1455.09,-303.607 1445.02,-306.888 1454.94,-310.605 1455.09,-303.607"/>
</g>
<!-- Node26&#45;&gt;Node12 -->
<g id="edge36" class="edge"><title>Node26&#45;&gt;Node12</title>
<path fill="none" stroke="midnightblue" d="M1441.76,-317.144C1446.01,-318.897 1450.14,-320.882 1454,-323.128 1473.83,-334.665 1470.17,-348.593 1490,-360.128 1578.53,-411.614 1610.59,-418.128 1713,-418.128 1713,-418.128 1713,-418.128 2052,-418.128 2237.32,-418.128 2370.36,-170.871 2396.36,-118.715"/>
<polygon fill="midnightblue" stroke="midnightblue" points="1442.88,-313.83 1432.29,-313.664 1440.47,-320.4 1442.88,-313.83"/>
</g>
<!-- Node26&#45;&gt;Node23 -->
<g id="edge38" class="edge"><title>Node26&#45;&gt;Node23</title>
<path fill="none" stroke="midnightblue" d="M1428.26,-316.182C1513.02,-337.615 1684.7,-380.128 1713,-380.128 1713,-380.128 1713,-380.128 1884,-380.128 2045.61,-380.128 2187.56,-200.94 2220.04,-156.843"/>
<polygon fill="midnightblue" stroke="midnightblue" points="1428.92,-312.739 1418.37,-313.677 1427.2,-319.525 1428.92,-312.739"/>
</g>
<!-- Node26&#45;&gt;Node24 -->
<g id="edge37" class="edge"><title>Node26&#45;&gt;Node24</title>
<path fill="none" stroke="midnightblue" d="M1409.16,-290.023C1431.02,-279.237 1462.19,-264.213 1490,-252.128 1501.59,-247.093 1514.59,-241.912 1525.61,-237.659"/>
<polygon fill="midnightblue" stroke="midnightblue" points="1407.51,-286.933 1400.11,-294.51 1410.62,-293.205 1407.51,-286.933"/>
</g>
<!-- Node26&#45;&gt;Node25 -->
<g id="edge39" class="edge"><title>Node26&#45;&gt;Node25</title>
<path fill="none" stroke="midnightblue" d="M1437.25,-292.464C1484.78,-282.109 1554.45,-265.76 1614,-247.128 1640.71,-238.773 1670.6,-226.943 1690.48,-218.71"/>
<polygon fill="midnightblue" stroke="midnightblue" points="1436.49,-289.048 1427.45,-294.581 1437.97,-295.89 1436.49,-289.048"/>
</g>
</g>
</svg>
        <g id="navigator" transform="translate(0 0)" fill="#404254">
                <rect fill="#f2f5e9" fill-opacity="0.5" stroke="#606060" stroke-width=".5" x="0" y="0" width="60" height="60"/>
                <use id="zoomplus" xlink:href="#zoomPlus" x="17" y="9" onmousedown="handleZoom(evt,'in')"/>
                <use id="zoomminus" xlink:href="#zoomMin" x="42" y="9" onmousedown="handleZoom(evt,'out')"/>
                <use id="reset" xlink:href="#resetDef" x="30" y="36" onmousedown="handleReset()"/>
                <g id="arrowUp" xlink:href="#dirArrow" transform="translate(30 24)" onmousedown="handlePan(0,-1)">
                  <use xlink:href="#rim" fill="#404040">
                        <set attributeName="fill" to="#808080" begin="arrowUp.mouseover" end="arrowUp.mouseout"/>
                  </use>
                  <path fill="none" stroke="white" stroke-width="1.5" d="M0,-3.0v7 M-2.5,-0.5L0,-3.0L2.5,-0.5"/>
                </g>
                <g id="arrowRight" xlink:href="#dirArrow" transform="rotate(90) translate(36 -43)" onmousedown="handlePan(1,0)">
                  <use xlink:href="#rim" fill="#404040">
                        <set attributeName="fill" to="#808080" begin="arrowRight.mouseover" end="arrowRight.mouseout"/>
                  </use>
                  <path fill="none" stroke="white" stroke-width="1.5" d="M0,-3.0v7 M-2.5,-0.5L0,-3.0L2.5,-0.5"/>
                </g>
                <g id="arrowDown" xlink:href="#dirArrow" transform="rotate(180) translate(-30 -48)" onmousedown="handlePan(0,1)">
                  <use xlink:href="#rim" fill="#404040">
                        <set attributeName="fill" to="#808080" begin="arrowDown.mouseover" end="arrowDown.mouseout"/>
                  </use>
                  <path fill="none" stroke="white" stroke-width="1.5" d="M0,-3.0v7 M-2.5,-0.5L0,-3.0L2.5,-0.5"/>
                </g>
                <g id="arrowLeft" xlink:href="#dirArrow" transform="rotate(270) translate(-36 17)" onmousedown="handlePan(-1,0)">
                  <use xlink:href="#rim" fill="#404040">
                        <set attributeName="fill" to="#808080" begin="arrowLeft.mouseover" end="arrowLeft.mouseout"/>
                  </use>
                  <path fill="none" stroke="white" stroke-width="1.5" d="M0,-3.0v7 M-2.5,-0.5L0,-3.0L2.5,-0.5"/>
                </g>
        </g>
        <svg viewBox="0 0 15 15" width="100%" height="30px" preserveAspectRatio="xMaxYMin meet">
         <g id="arrow_out" transform="scale(0.3 0.3)">
          <a xlink:href="classparser_1_1_logo_parser_token_manager_aa9aaf3af52d382735345487d2b89e0cf_icgraph_org.svg" target="_base">
           <rect id="button" ry="5" rx="5" y="6" x="6" height="38" width="38"
                fill="#f2f5e9" fill-opacity="0.5" stroke="#606060" stroke-width="1.0"/>
           <path id="arrow"
             d="M 11.500037,31.436501 C 11.940474,20.09759 22.043105,11.32322 32.158766,21.979434 L 37.068811,17.246167 C 37.068811,17.246167 37.088388,32 37.088388,32 L 22.160133,31.978069 C 22.160133,31.978069 26.997745,27.140456 26.997745,27.140456 C 18.528582,18.264221 13.291696,25.230495 11.500037,31.436501 z"
             style="fill:#404040;"/>
          </a>
         </g>
        </svg>
</svg>
