<?xml version="1.0" encoding="UTF-8" standalone="no"?>
<!DOCTYPE svg PUBLIC "-//W3C//DTD SVG 1.1//EN"
 "http://www.w3.org/Graphics/SVG/1.1/DTD/svg11.dtd">
<!-- Generated by graphviz version 2.36.0 (20140111.2315)
 -->
<!-- Title: parser.LogoParserTokenManager.jjStopStringLiteralDfa_0 Pages: 1 -->
<svg width="4534pt" height="457pt"
 viewBox="0.00 0.00 4534.00 457.00" xmlns="http://www.w3.org/2000/svg" xmlns:xlink="http://www.w3.org/1999/xlink">
<g id="graph0" class="graph" transform="scale(1 1) rotate(0) translate(4 453)">
<title>parser.LogoParserTokenManager.jjStopStringLiteralDfa_0</title>
<polygon fill="white" stroke="none" points="-4,4 -4,-453 4530,-453 4530,4 -4,4"/>
<!-- Node1 -->
<g id="node1" class="node"><title>Node1</title>
<polygon fill="#bfbfbf" stroke="black" points="0.5,-99 0.5,-129 179.5,-129 179.5,-99 0.5,-99"/>
<text text-anchor="start" x="8.5" y="-117" font-family="Helvetica,sans-Serif" font-size="10.00">parser.LogoParserTokenManager.jj</text>
<text text-anchor="middle" x="90" y="-106" font-family="Helvetica,sans-Serif" font-size="10.00">StopStringLiteralDfa_0</text>
</g>
<!-- Node2 -->
<g id="node2" class="node"><title>Node2</title>
<g id="a_node2"><a xlink:href="../../d0/d8c/classparser_1_1_logo_parser_token_manager.html#a99a01f0b68908e628349e9f09a2cbccd" target="_top" xlink:title="parser.LogoParserTokenManager.jj\lMoveStringLiteralDfa1_0">
<polygon fill="white" stroke="black" points="1512.5,-339 1512.5,-369 1691.5,-369 1691.5,-339 1512.5,-339"/>
<text text-anchor="start" x="1520.5" y="-357" font-family="Helvetica,sans-Serif" font-size="10.00">parser.LogoParserTokenManager.jj</text>
<text text-anchor="middle" x="1602" y="-346" font-family="Helvetica,sans-Serif" font-size="10.00">MoveStringLiteralDfa1_0</text>
</a>
</g>
</g>
<!-- Node1&#45;&gt;Node2 -->
<g id="edge1" class="edge"><title>Node1&#45;&gt;Node2</title>
<path fill="none" stroke="midnightblue" d="M105.734,-138.082C126.67,-170.558 167.873,-228.413 216,-264 334.204,-351.404 373.991,-392 521,-392 521,-392 521,-392 1171,-392 1289.41,-392 1425.45,-377.525 1512.26,-366.443"/>
<polygon fill="midnightblue" stroke="midnightblue" points="108.448,-135.827 100.14,-129.253 102.535,-139.573 108.448,-135.827"/>
</g>
<!-- Node25 -->
<g id="node25" class="node"><title>Node25</title>
<g id="a_node25"><a xlink:href="../../d0/d8c/classparser_1_1_logo_parser_token_manager.html#a26eaeb3ef169f93c03edbb3e26128b7a" target="_top" xlink:title="parser.LogoParserTokenManager.jj\lMoveStringLiteralDfa2_0">
<polygon fill="white" stroke="black" points="1296.5,-257 1296.5,-287 1475.5,-287 1475.5,-257 1296.5,-257"/>
<text text-anchor="start" x="1304.5" y="-275" font-family="Helvetica,sans-Serif" font-size="10.00">parser.LogoParserTokenManager.jj</text>
<text text-anchor="middle" x="1386" y="-264" font-family="Helvetica,sans-Serif" font-size="10.00">MoveStringLiteralDfa2_0</text>
</a>
</g>
</g>
<!-- Node1&#45;&gt;Node25 -->
<g id="edge38" class="edge"><title>Node1&#45;&gt;Node25</title>
<path fill="none" stroke="midnightblue" d="M120.877,-93.1054C145.32,-77.0646 181.385,-55.7362 216,-44 345.707,-0.0237679 384.041,-0 521,-0 521,-0 521,-0 955,-0 1148.89,-0 1326.41,-199.967 1373.09,-256.989"/>
<polygon fill="midnightblue" stroke="midnightblue" points="118.797,-90.2859 112.422,-98.7483 122.683,-96.1084 118.797,-90.2859"/>
</g>
<!-- Node26 -->
<g id="node26" class="node"><title>Node26</title>
<g id="a_node26"><a xlink:href="../../d0/d8c/classparser_1_1_logo_parser_token_manager.html#a12bfedaecfaf646642cb1aba5b1bd6fb" target="_top" xlink:title="parser.LogoParserTokenManager.jj\lMoveStringLiteralDfa3_0">
<polygon fill="white" stroke="black" points="1080.5,-219 1080.5,-249 1259.5,-249 1259.5,-219 1080.5,-219"/>
<text text-anchor="start" x="1088.5" y="-237" font-family="Helvetica,sans-Serif" font-size="10.00">parser.LogoParserTokenManager.jj</text>
<text text-anchor="middle" x="1170" y="-226" font-family="Helvetica,sans-Serif" font-size="10.00">MoveStringLiteralDfa3_0</text>
</a>
</g>
</g>
<!-- Node1&#45;&gt;Node26 -->
<g id="edge40" class="edge"><title>Node1&#45;&gt;Node26</title>
<path fill="none" stroke="midnightblue" d="M151.851,-96.3162C234.625,-73.8613 387.687,-38 521,-38 521,-38 521,-38 739,-38 913.34,-38 1094.53,-173.05 1151.07,-218.946"/>
<polygon fill="midnightblue" stroke="midnightblue" points="150.831,-92.9667 142.112,-98.9848 152.681,-99.7179 150.831,-92.9667"/>
</g>
<!-- Node27 -->
<g id="node27" class="node"><title>Node27</title>
<g id="a_node27"><a xlink:href="../../d0/d8c/classparser_1_1_logo_parser_token_manager.html#aa9aaf3af52d382735345487d2b89e0cf" target="_top" xlink:title="parser.LogoParserTokenManager.jj\lMoveStringLiteralDfa4_0">
<polygon fill="white" stroke="black" points="864.5,-181 864.5,-211 1043.5,-211 1043.5,-181 864.5,-181"/>
<text text-anchor="start" x="872.5" y="-199" font-family="Helvetica,sans-Serif" font-size="10.00">parser.LogoParserTokenManager.jj</text>
<text text-anchor="middle" x="954" y="-188" font-family="Helvetica,sans-Serif" font-size="10.00">MoveStringLiteralDfa4_0</text>
</a>
</g>
</g>
<!-- Node1&#45;&gt;Node27 -->
<g id="edge42" class="edge"><title>Node1&#45;&gt;Node27</title>
<path fill="none" stroke="midnightblue" d="M189.734,-105.366C198.61,-104.812 207.465,-104.341 216,-104 488.618,-93.1127 564.867,-79.889 828,-152 857.622,-160.118 890.342,-171.735 914.874,-180.993"/>
<polygon fill="midnightblue" stroke="midnightblue" points="189.469,-101.876 179.719,-106.023 189.927,-108.861 189.469,-101.876"/>
</g>
<!-- Node28 -->
<g id="node28" class="node"><title>Node28</title>
<g id="a_node28"><a xlink:href="../../d0/d8c/classparser_1_1_logo_parser_token_manager.html#a4553920ced069b9d4852f1c1020bea38" target="_top" xlink:title="parser.LogoParserTokenManager.jj\lMoveStringLiteralDfa5_0">
<polygon fill="white" stroke="black" points="648.5,-162 648.5,-192 827.5,-192 827.5,-162 648.5,-162"/>
<text text-anchor="start" x="656.5" y="-180" font-family="Helvetica,sans-Serif" font-size="10.00">parser.LogoParserTokenManager.jj</text>
<text text-anchor="middle" x="738" y="-169" font-family="Helvetica,sans-Serif" font-size="10.00">MoveStringLiteralDfa5_0</text>
</a>
</g>
</g>
<!-- Node1&#45;&gt;Node28 -->
<g id="edge44" class="edge"><title>Node1&#45;&gt;Node28</title>
<path fill="none" stroke="midnightblue" d="M189.944,-108.815C295.483,-105.321 467.058,-105.507 612,-133 643.871,-139.045 678.554,-151.779 703.283,-162"/>
<polygon fill="midnightblue" stroke="midnightblue" points="189.812,-105.317 179.94,-109.163 190.056,-112.313 189.812,-105.317"/>
</g>
<!-- Node29 -->
<g id="node29" class="node"><title>Node29</title>
<g id="a_node29"><a xlink:href="../../d0/d8c/classparser_1_1_logo_parser_token_manager.html#a1bad232a9ce95d19e7133cbee0b538b5" target="_top" xlink:title="parser.LogoParserTokenManager.jj\lMoveStringLiteralDfa6_0">
<polygon fill="white" stroke="black" points="432.5,-143 432.5,-173 611.5,-173 611.5,-143 432.5,-143"/>
<text text-anchor="start" x="440.5" y="-161" font-family="Helvetica,sans-Serif" font-size="10.00">parser.LogoParserTokenManager.jj</text>
<text text-anchor="middle" x="522" y="-150" font-family="Helvetica,sans-Serif" font-size="10.00">MoveStringLiteralDfa6_0</text>
</a>
</g>
</g>
<!-- Node1&#45;&gt;Node29 -->
<g id="edge46" class="edge"><title>Node1&#45;&gt;Node29</title>
<path fill="none" stroke="midnightblue" d="M189.765,-125.187C198.634,-126.154 207.479,-127.104 216,-128 288.758,-135.652 371.347,-143.739 432.216,-149.586"/>
<polygon fill="midnightblue" stroke="midnightblue" points="190.078,-121.7 179.756,-124.09 189.315,-128.659 190.078,-121.7"/>
</g>
<!-- Node30 -->
<g id="node30" class="node"><title>Node30</title>
<g id="a_node30"><a xlink:href="../../d0/d8c/classparser_1_1_logo_parser_token_manager.html#aa065c8b0c977d3c1c9d9058f96664080" target="_top" xlink:title="parser.LogoParserTokenManager.jj\lStartNfa_0">
<polygon fill="white" stroke="black" points="216.5,-225 216.5,-255 395.5,-255 395.5,-225 216.5,-225"/>
<text text-anchor="start" x="224.5" y="-243" font-family="Helvetica,sans-Serif" font-size="10.00">parser.LogoParserTokenManager.jj</text>
<text text-anchor="middle" x="306" y="-232" font-family="Helvetica,sans-Serif" font-size="10.00">StartNfa_0</text>
</a>
</g>
</g>
<!-- Node1&#45;&gt;Node30 -->
<g id="edge48" class="edge"><title>Node1&#45;&gt;Node30</title>
<path fill="none" stroke="midnightblue" d="M125.523,-134.327C168.546,-159.658 241.067,-202.357 279.428,-224.944"/>
<polygon fill="midnightblue" stroke="midnightblue" points="127.207,-131.256 116.813,-129.199 123.655,-137.288 127.207,-131.256"/>
</g>
<!-- Node3 -->
<g id="node3" class="node"><title>Node3</title>
<g id="a_node3"><a xlink:href="../../d0/d8c/classparser_1_1_logo_parser_token_manager.html#a2b55f093fc0200c57a099eba2d9b37e2" target="_top" xlink:title="parser.LogoParserTokenManager.jj\lMoveStringLiteralDfa0_0">
<polygon fill="white" stroke="black" points="1728.5,-339 1728.5,-369 1907.5,-369 1907.5,-339 1728.5,-339"/>
<text text-anchor="start" x="1736.5" y="-357" font-family="Helvetica,sans-Serif" font-size="10.00">parser.LogoParserTokenManager.jj</text>
<text text-anchor="middle" x="1818" y="-346" font-family="Helvetica,sans-Serif" font-size="10.00">MoveStringLiteralDfa0_0</text>
</a>
</g>
</g>
<!-- Node2&#45;&gt;Node3 -->
<g id="edge2" class="edge"><title>Node2&#45;&gt;Node3</title>
<path fill="none" stroke="midnightblue" d="M1701.65,-354C1710.6,-354 1719.62,-354 1728.48,-354"/>
<polygon fill="midnightblue" stroke="midnightblue" points="1701.59,-350.5 1691.59,-354 1701.59,-357.5 1701.59,-350.5"/>
</g>
<!-- Node4 -->
<g id="node4" class="node"><title>Node4</title>
<g id="a_node4"><a xlink:href="../../d0/d8c/classparser_1_1_logo_parser_token_manager.html#a3dee50e2286b70ba662519a865e63b77" target="_top" xlink:title="parser.LogoParserTokenManager.get\lNextToken">
<polygon fill="white" stroke="black" points="1944,-339 1944,-369 2134,-369 2134,-339 1944,-339"/>
<text text-anchor="start" x="1952" y="-357" font-family="Helvetica,sans-Serif" font-size="10.00">parser.LogoParserTokenManager.get</text>
<text text-anchor="middle" x="2039" y="-346" font-family="Helvetica,sans-Serif" font-size="10.00">NextToken</text>
</a>
</g>
</g>
<!-- Node3&#45;&gt;Node4 -->
<g id="edge3" class="edge"><title>Node3&#45;&gt;Node4</title>
<path fill="none" stroke="midnightblue" d="M1917.83,-354C1926.46,-354 1935.17,-354 1943.76,-354"/>
<polygon fill="midnightblue" stroke="midnightblue" points="1917.76,-350.5 1907.76,-354 1917.76,-357.5 1917.76,-350.5"/>
</g>
<!-- Node5 -->
<g id="node5" class="node"><title>Node5</title>
<g id="a_node5"><a xlink:href="../../d5/d0e/classparser_1_1_logo_parser.html#a7477b52c4469ea43d75f88fb805e37a1" target="_top" xlink:title="parser.LogoParser.getNext\lToken">
<polygon fill="white" stroke="black" points="2172.5,-402 2172.5,-432 2315.5,-432 2315.5,-402 2172.5,-402"/>
<text text-anchor="start" x="2180.5" y="-420" font-family="Helvetica,sans-Serif" font-size="10.00">parser.LogoParser.getNext</text>
<text text-anchor="middle" x="2244" y="-409" font-family="Helvetica,sans-Serif" font-size="10.00">Token</text>
</a>
</g>
</g>
<!-- Node4&#45;&gt;Node5 -->
<g id="edge4" class="edge"><title>Node4&#45;&gt;Node5</title>
<path fill="none" stroke="midnightblue" d="M2098.04,-372.014C2128.61,-381.5 2165.66,-392.999 2194.65,-401.996"/>
<polygon fill="midnightblue" stroke="midnightblue" points="2098.95,-368.631 2088.37,-369.01 2096.88,-375.317 2098.95,-368.631"/>
</g>
<!-- Node6 -->
<g id="node6" class="node"><title>Node6</title>
<g id="a_node6"><a xlink:href="../../d5/d0e/classparser_1_1_logo_parser.html#a63b7890a7d6323bcf938132f968e8157" target="_top" xlink:title="parser.LogoParser.getToken">
<polygon fill="white" stroke="black" points="2170,-363.5 2170,-382.5 2318,-382.5 2318,-363.5 2170,-363.5"/>
<text text-anchor="middle" x="2244" y="-370.5" font-family="Helvetica,sans-Serif" font-size="10.00">parser.LogoParser.getToken</text>
</a>
</g>
</g>
<!-- Node4&#45;&gt;Node6 -->
<g id="edge5" class="edge"><title>Node4&#45;&gt;Node6</title>
<path fill="none" stroke="midnightblue" d="M2144.24,-363.757C2152.91,-364.568 2161.54,-365.376 2169.9,-366.158"/>
<polygon fill="midnightblue" stroke="midnightblue" points="2144.35,-360.252 2134.07,-362.805 2143.7,-367.221 2144.35,-360.252"/>
</g>
<!-- Node7 -->
<g id="node7" class="node"><title>Node7</title>
<g id="a_node7"><a xlink:href="../../d5/d0e/classparser_1_1_logo_parser.html#a550039a3180ec86ef01f419aefc02edc" target="_top" xlink:title="parser.LogoParser.jj\l_consume_token">
<polygon fill="white" stroke="black" points="2189,-149 2189,-179 2299,-179 2299,-149 2189,-149"/>
<text text-anchor="start" x="2197" y="-167" font-family="Helvetica,sans-Serif" font-size="10.00">parser.LogoParser.jj</text>
<text text-anchor="middle" x="2244" y="-156" font-family="Helvetica,sans-Serif" font-size="10.00">_consume_token</text>
</a>
</g>
</g>
<!-- Node4&#45;&gt;Node7 -->
<g id="edge6" class="edge"><title>Node4&#45;&gt;Node7</title>
<path fill="none" stroke="midnightblue" d="M2063.79,-331.736C2105.63,-292.575 2191.33,-212.362 2226.94,-179.036"/>
<polygon fill="midnightblue" stroke="midnightblue" points="2061.18,-329.384 2056.27,-338.773 2065.96,-334.495 2061.18,-329.384"/>
</g>
<!-- Node24 -->
<g id="node24" class="node"><title>Node24</title>
<g id="a_node24"><a xlink:href="../../d5/d0e/classparser_1_1_logo_parser.html#a2e48e3ab2c1c075beca7bcc54d891afd" target="_top" xlink:title="parser.LogoParser.jj_ntk">
<polygon fill="white" stroke="black" points="2179,-325.5 2179,-344.5 2309,-344.5 2309,-325.5 2179,-325.5"/>
<text text-anchor="middle" x="2244" y="-332.5" font-family="Helvetica,sans-Serif" font-size="10.00">parser.LogoParser.jj_ntk</text>
</a>
</g>
</g>
<!-- Node4&#45;&gt;Node24 -->
<g id="edge31" class="edge"><title>Node4&#45;&gt;Node24</title>
<path fill="none" stroke="midnightblue" d="M2144.38,-344.23C2156.12,-343.132 2167.8,-342.038 2178.81,-341.008"/>
<polygon fill="midnightblue" stroke="midnightblue" points="2143.7,-340.779 2134.07,-345.195 2144.35,-347.748 2143.7,-340.779"/>
</g>
<!-- Node8 -->
<g id="node8" class="node"><title>Node8</title>
<g id="a_node8"><a xlink:href="../../d5/d0e/classparser_1_1_logo_parser.html#a82acce8328e52f3b2bcb90542cc800b7" target="_top" xlink:title="parser.LogoParser.arithm">
<polygon fill="white" stroke="black" points="2678.5,-201.5 2678.5,-220.5 2815.5,-220.5 2815.5,-201.5 2678.5,-201.5"/>
<text text-anchor="middle" x="2747" y="-208.5" font-family="Helvetica,sans-Serif" font-size="10.00">parser.LogoParser.arithm</text>
</a>
</g>
</g>
<!-- Node7&#45;&gt;Node8 -->
<g id="edge7" class="edge"><title>Node7&#45;&gt;Node8</title>
<path fill="none" stroke="midnightblue" d="M2309.14,-170.017C2404.08,-178.924 2581.24,-195.543 2678.23,-204.643"/>
<polygon fill="midnightblue" stroke="midnightblue" points="2309.38,-166.524 2299.09,-169.074 2308.72,-173.493 2309.38,-166.524"/>
</g>
<!-- Node9 -->
<g id="node9" class="node"><title>Node9</title>
<g id="a_node9"><a xlink:href="../../d5/d0e/classparser_1_1_logo_parser.html#a397c25c39976e5a1fb689e1f0dd40160" target="_top" xlink:title="parser.LogoParser.eval">
<polygon fill="white" stroke="black" points="2852.5,-168.5 2852.5,-187.5 2977.5,-187.5 2977.5,-168.5 2852.5,-168.5"/>
<text text-anchor="middle" x="2915" y="-175.5" font-family="Helvetica,sans-Serif" font-size="10.00">parser.LogoParser.eval</text>
</a>
</g>
</g>
<!-- Node7&#45;&gt;Node9 -->
<g id="edge23" class="edge"><title>Node7&#45;&gt;Node9</title>
<path fill="none" stroke="midnightblue" d="M2309.27,-165.345C2437.9,-168.037 2725.46,-174.054 2852.1,-176.705"/>
<polygon fill="midnightblue" stroke="midnightblue" points="2309.25,-161.844 2299.18,-165.134 2309.1,-168.842 2309.25,-161.844"/>
</g>
<!-- Node10 -->
<g id="node10" class="node"><title>Node10</title>
<g id="a_node10"><a xlink:href="../../d5/d0e/classparser_1_1_logo_parser.html#a6b0ba0c2b5b0bc8c2ef76863fffdb6a3" target="_top" xlink:title="parser.LogoParser.list">
<polygon fill="white" stroke="black" points="3206.5,-130.5 3206.5,-149.5 3325.5,-149.5 3325.5,-130.5 3206.5,-130.5"/>
<text text-anchor="middle" x="3266" y="-137.5" font-family="Helvetica,sans-Serif" font-size="10.00">parser.LogoParser.list</text>
</a>
</g>
</g>
<!-- Node7&#45;&gt;Node10 -->
<g id="edge25" class="edge"><title>Node7&#45;&gt;Node10</title>
<path fill="none" stroke="midnightblue" d="M2279.87,-144.083C2300.79,-132.897 2328.24,-119.517 2354,-111 2449.75,-79.3352 2476.15,-69 2577,-69 2577,-69 2577,-69 2916,-69 3037.81,-69 3178.82,-111.045 3237.34,-130.425"/>
<polygon fill="midnightblue" stroke="midnightblue" points="2278.16,-141.03 2271.04,-148.881 2281.5,-147.18 2278.16,-141.03"/>
</g>
<!-- Node11 -->
<g id="node11" class="node"><title>Node11</title>
<g id="a_node11"><a xlink:href="../../d5/d0e/classparser_1_1_logo_parser.html#a4a8825534e0488215d22bcd947bc4d41" target="_top" xlink:title="parser.LogoParser.expression">
<polygon fill="white" stroke="black" points="3362.5,-57.5 3362.5,-76.5 3519.5,-76.5 3519.5,-57.5 3362.5,-57.5"/>
<text text-anchor="middle" x="3441" y="-64.5" font-family="Helvetica,sans-Serif" font-size="10.00">parser.LogoParser.expression</text>
</a>
</g>
</g>
<!-- Node7&#45;&gt;Node11 -->
<g id="edge24" class="edge"><title>Node7&#45;&gt;Node11</title>
<path fill="none" stroke="midnightblue" d="M2264.93,-141.44C2285.17,-120.052 2318.51,-88.7718 2354,-72 2445.11,-28.9473 2476.23,-31 2577,-31 2577,-31 2577,-31 3093,-31 3195.81,-31 3314.85,-46.8286 3383.39,-57.4943"/>
<polygon fill="midnightblue" stroke="midnightblue" points="2262.32,-139.112 2258.09,-148.827 2267.45,-143.869 2262.32,-139.112"/>
</g>
<!-- Node21 -->
<g id="node21" class="node"><title>Node21</title>
<g id="a_node21"><a xlink:href="../../d5/d0e/classparser_1_1_logo_parser.html#ad6ed8e51959a6e19a2323444aa8331c8" target="_top" xlink:title="parser.LogoParser.statement">
<polygon fill="white" stroke="black" points="3014.5,-168.5 3014.5,-187.5 3169.5,-187.5 3169.5,-168.5 3014.5,-168.5"/>
<text text-anchor="middle" x="3092" y="-175.5" font-family="Helvetica,sans-Serif" font-size="10.00">parser.LogoParser.statement</text>
</a>
</g>
</g>
<!-- Node7&#45;&gt;Node21 -->
<g id="edge29" class="edge"><title>Node7&#45;&gt;Node21</title>
<path fill="none" stroke="midnightblue" d="M2308.76,-146.421C2375.19,-129.674 2482.57,-107 2577,-107 2577,-107 2577,-107 2748,-107 2867.8,-107 3006.34,-149.045 3063.83,-168.425"/>
<polygon fill="midnightblue" stroke="midnightblue" points="2307.68,-143.084 2298.86,-148.949 2309.41,-149.866 2307.68,-143.084"/>
</g>
<!-- Node22 -->
<g id="node22" class="node"><title>Node22</title>
<g id="a_node22"><a xlink:href="../../d5/d0e/classparser_1_1_logo_parser.html#a4bdaeff6df067fde6743ff07370c3b0b" target="_top" xlink:title="parser.LogoParser.pow">
<polygon fill="white" stroke="black" points="2354,-249.5 2354,-268.5 2478,-268.5 2478,-249.5 2354,-249.5"/>
<text text-anchor="middle" x="2416" y="-256.5" font-family="Helvetica,sans-Serif" font-size="10.00">parser.LogoParser.pow</text>
</a>
</g>
</g>
<!-- Node7&#45;&gt;Node22 -->
<g id="edge26" class="edge"><title>Node7&#45;&gt;Node22</title>
<path fill="none" stroke="midnightblue" d="M2273.86,-185.114C2295.29,-200.206 2325.6,-220.354 2354,-235 2364.52,-240.424 2376.56,-245.402 2387.15,-249.401"/>
<polygon fill="midnightblue" stroke="midnightblue" points="2275.72,-182.137 2265.54,-179.191 2271.66,-187.841 2275.72,-182.137"/>
</g>
<!-- Node23 -->
<g id="node23" class="node"><title>Node23</title>
<g id="a_node23"><a xlink:href="../../d5/d0e/classparser_1_1_logo_parser.html#a34f4226672a2711ce2691162fdb2124d" target="_top" xlink:title="parser.LogoParser.term">
<polygon fill="white" stroke="black" points="2514,-230.5 2514,-249.5 2642,-249.5 2642,-230.5 2514,-230.5"/>
<text text-anchor="middle" x="2578" y="-237.5" font-family="Helvetica,sans-Serif" font-size="10.00">parser.LogoParser.term</text>
</a>
</g>
</g>
<!-- Node7&#45;&gt;Node23 -->
<g id="edge30" class="edge"><title>Node7&#45;&gt;Node23</title>
<path fill="none" stroke="midnightblue" d="M2300.64,-182.056C2317.66,-187.253 2336.51,-192.679 2354,-197 2409.5,-210.714 2473.67,-222.687 2518.89,-230.493"/>
<polygon fill="midnightblue" stroke="midnightblue" points="2301.44,-178.64 2290.85,-179.033 2299.37,-185.328 2301.44,-178.64"/>
</g>
<!-- Node8&#45;&gt;Node9 -->
<g id="edge8" class="edge"><title>Node8&#45;&gt;Node9</title>
<path fill="none" stroke="midnightblue" d="M2806.06,-199.458C2825.68,-195.557 2847.35,-191.25 2866.09,-187.524"/>
<polygon fill="midnightblue" stroke="midnightblue" points="2805.14,-196.072 2796.01,-201.455 2806.5,-202.938 2805.14,-196.072"/>
</g>
<!-- Node9&#45;&gt;Node10 -->
<g id="edge9" class="edge"><title>Node9&#45;&gt;Node10</title>
<path fill="none" stroke="midnightblue" d="M2969.06,-166.549C2983.58,-163.735 2999.35,-160.968 3014,-159 3079.62,-150.186 3155.48,-145.15 3206.47,-142.507"/>
<polygon fill="midnightblue" stroke="midnightblue" points="2968.37,-163.118 2959.24,-168.496 2969.73,-169.984 2968.37,-163.118"/>
</g>
<!-- Node9&#45;&gt;Node21 -->
<g id="edge21" class="edge"><title>Node9&#45;&gt;Node21</title>
<path fill="none" stroke="midnightblue" d="M2987.8,-178C2996.51,-178 3005.44,-178 3014.22,-178"/>
<polygon fill="midnightblue" stroke="midnightblue" points="2987.7,-174.5 2977.7,-178 2987.7,-181.5 2987.7,-174.5"/>
</g>
<!-- Node10&#45;&gt;Node11 -->
<g id="edge10" class="edge"><title>Node10&#45;&gt;Node11</title>
<path fill="none" stroke="midnightblue" d="M3299.2,-126.414C3333.58,-111.903 3387.2,-89.2805 3417.38,-76.5458"/>
<polygon fill="midnightblue" stroke="midnightblue" points="3297.47,-123.344 3289.62,-130.457 3300.19,-129.793 3297.47,-123.344"/>
</g>
<!-- Node12 -->
<g id="node12" class="node"><title>Node12</title>
<g id="a_node12"><a xlink:href="../../d5/d0e/classparser_1_1_logo_parser.html#adefe3b97ad0d2d7fd0dcd13f7ef2c75e" target="_top" xlink:title="parser.LogoParser.parse">
<polygon fill="white" stroke="black" points="3375,-130.5 3375,-149.5 3507,-149.5 3507,-130.5 3375,-130.5"/>
<text text-anchor="middle" x="3441" y="-137.5" font-family="Helvetica,sans-Serif" font-size="10.00">parser.LogoParser.parse</text>
</a>
</g>
</g>
<!-- Node10&#45;&gt;Node12 -->
<g id="edge11" class="edge"><title>Node10&#45;&gt;Node12</title>
<path fill="none" stroke="midnightblue" d="M3335.78,-140C3348.7,-140 3362.16,-140 3374.95,-140"/>
<polygon fill="midnightblue" stroke="midnightblue" points="3335.57,-136.5 3325.57,-140 3335.57,-143.5 3335.57,-136.5"/>
</g>
<!-- Node13 -->
<g id="node13" class="node"><title>Node13</title>
<g id="a_node13"><a xlink:href="../../d6/d95/classparser_1_1_parser.html#af3d0cef45b9f02f1707959c08d8f3797" target="_top" xlink:title="parser.Parser.parse">
<polygon fill="white" stroke="black" points="3556.5,-130.5 3556.5,-149.5 3665.5,-149.5 3665.5,-130.5 3556.5,-130.5"/>
<text text-anchor="middle" x="3611" y="-137.5" font-family="Helvetica,sans-Serif" font-size="10.00">parser.Parser.parse</text>
</a>
</g>
</g>
<!-- Node12&#45;&gt;Node13 -->
<g id="edge12" class="edge"><title>Node12&#45;&gt;Node13</title>
<path fill="none" stroke="midnightblue" d="M3517.8,-140C3530.83,-140 3544.12,-140 3556.41,-140"/>
<polygon fill="midnightblue" stroke="midnightblue" points="3517.43,-136.5 3507.43,-140 3517.43,-143.5 3517.43,-136.5"/>
</g>
<!-- Node14 -->
<g id="node14" class="node"><title>Node14</title>
<g id="a_node14"><a xlink:href="../../d4/d06/classinput_1_1_input_executor.html#a687a9f2cbed5d27a2c7b1336a1cab8aa" target="_top" xlink:title="input.InputExecutor.process\lInput">
<polygon fill="white" stroke="black" points="3702.5,-169 3702.5,-199 3851.5,-199 3851.5,-169 3702.5,-169"/>
<text text-anchor="start" x="3710.5" y="-187" font-family="Helvetica,sans-Serif" font-size="10.00">input.InputExecutor.process</text>
<text text-anchor="middle" x="3777" y="-176" font-family="Helvetica,sans-Serif" font-size="10.00">Input</text>
</a>
</g>
</g>
<!-- Node13&#45;&gt;Node14 -->
<g id="edge13" class="edge"><title>Node13&#45;&gt;Node14</title>
<path fill="none" stroke="midnightblue" d="M3657.36,-152.169C3676.7,-157.357 3699.46,-163.465 3719.85,-168.935"/>
<polygon fill="midnightblue" stroke="midnightblue" points="3658.15,-148.758 3647.59,-149.547 3656.34,-155.519 3658.15,-148.758"/>
</g>
<!-- Node15 -->
<g id="node15" class="node"><title>Node15</title>
<g id="a_node15"><a xlink:href="../../d6/d95/classparser_1_1_parser.html#ae90f8410be9931ec3f349085c8fdae71" target="_top" xlink:title="parser.Parser.parseFile">
<polygon fill="white" stroke="black" points="3715,-130.5 3715,-149.5 3839,-149.5 3839,-130.5 3715,-130.5"/>
<text text-anchor="middle" x="3777" y="-137.5" font-family="Helvetica,sans-Serif" font-size="10.00">parser.Parser.parseFile</text>
</a>
</g>
</g>
<!-- Node13&#45;&gt;Node15 -->
<g id="edge14" class="edge"><title>Node13&#45;&gt;Node15</title>
<path fill="none" stroke="midnightblue" d="M3675.82,-140C3688.63,-140 3702.06,-140 3714.79,-140"/>
<polygon fill="midnightblue" stroke="midnightblue" points="3675.7,-136.5 3665.7,-140 3675.7,-143.5 3675.7,-136.5"/>
</g>
<!-- Node20 -->
<g id="node20" class="node"><title>Node20</title>
<g id="a_node20"><a xlink:href="../../d5/d56/class_workspace.html#a0ed8fb487512971086b6f3ed0d74e4ae" target="_top" xlink:title="Workspace.sendUserInput">
<polygon fill="white" stroke="black" points="3893,-88.5 3893,-107.5 4033,-107.5 4033,-88.5 3893,-88.5"/>
<text text-anchor="middle" x="3963" y="-95.5" font-family="Helvetica,sans-Serif" font-size="10.00">Workspace.sendUserInput</text>
</a>
</g>
</g>
<!-- Node13&#45;&gt;Node20 -->
<g id="edge19" class="edge"><title>Node13&#45;&gt;Node20</title>
<path fill="none" stroke="midnightblue" d="M3662.23,-128.284C3675.14,-125.581 3689.04,-122.934 3702,-121 3766.31,-111.402 3840.22,-105.337 3892.76,-101.861"/>
<polygon fill="midnightblue" stroke="midnightblue" points="3661.18,-124.931 3652.14,-130.452 3662.65,-131.775 3661.18,-124.931"/>
</g>
<!-- Node16 -->
<g id="node16" class="node"><title>Node16</title>
<g id="a_node16"><a xlink:href="../../d9/de8/class_file_chooser_feature.html#ad742b8e9d07e8151f0a9ff1972867ce8" target="_top" xlink:title="FileChooserFeature.openFile\lChooser">
<polygon fill="white" stroke="black" points="3888.5,-127 3888.5,-157 4037.5,-157 4037.5,-127 3888.5,-127"/>
<text text-anchor="start" x="3896.5" y="-145" font-family="Helvetica,sans-Serif" font-size="10.00">FileChooserFeature.openFile</text>
<text text-anchor="middle" x="3963" y="-134" font-family="Helvetica,sans-Serif" font-size="10.00">Chooser</text>
</a>
</g>
</g>
<!-- Node15&#45;&gt;Node16 -->
<g id="edge15" class="edge"><title>Node15&#45;&gt;Node16</title>
<path fill="none" stroke="midnightblue" d="M3849.17,-140.774C3862.02,-140.913 3875.44,-141.059 3888.35,-141.2"/>
<polygon fill="midnightblue" stroke="midnightblue" points="3849.05,-137.272 3839.01,-140.663 3848.98,-144.272 3849.05,-137.272"/>
</g>
<!-- Node17 -->
<g id="node17" class="node"><title>Node17</title>
<g id="a_node17"><a xlink:href="../../d5/d56/class_workspace.html#a6babd032d9af86fbc23812272d59a2d2" target="_top" xlink:title="Workspace.addFeatureButtons">
<polygon fill="white" stroke="black" points="4074,-130.5 4074,-149.5 4236,-149.5 4236,-130.5 4074,-130.5"/>
<text text-anchor="middle" x="4155" y="-137.5" font-family="Helvetica,sans-Serif" font-size="10.00">Workspace.addFeatureButtons</text>
</a>
</g>
</g>
<!-- Node16&#45;&gt;Node17 -->
<g id="edge16" class="edge"><title>Node16&#45;&gt;Node17</title>
<path fill="none" stroke="midnightblue" d="M4047.77,-141.118C4056.38,-141.028 4065.12,-140.936 4073.7,-140.845"/>
<polygon fill="midnightblue" stroke="midnightblue" points="4047.69,-137.619 4037.73,-141.224 4047.77,-144.618 4047.69,-137.619"/>
</g>
<!-- Node18 -->
<g id="node18" class="node"><title>Node18</title>
<g id="a_node18"><a xlink:href="../../d5/d56/class_workspace.html#a429d535dfd8427637b7715f0b1e1df1b" target="_top" xlink:title="Workspace.createWorkspace">
<polygon fill="white" stroke="black" points="4272,-110.5 4272,-129.5 4424,-129.5 4424,-110.5 4272,-110.5"/>
<text text-anchor="middle" x="4348" y="-117.5" font-family="Helvetica,sans-Serif" font-size="10.00">Workspace.createWorkspace</text>
</a>
</g>
</g>
<!-- Node17&#45;&gt;Node18 -->
<g id="edge17" class="edge"><title>Node17&#45;&gt;Node18</title>
<path fill="none" stroke="midnightblue" d="M4246.22,-130.553C4254.82,-129.652 4263.48,-128.746 4271.91,-127.863"/>
<polygon fill="midnightblue" stroke="midnightblue" points="4245.75,-127.083 4236.17,-131.605 4246.48,-134.045 4245.75,-127.083"/>
</g>
<!-- Node19 -->
<g id="node19" class="node"><title>Node19</title>
<g id="a_node19"><a xlink:href="../../d0/d4b/class_main.html#aaa75b38812324d0f17c89f139bde6ada" target="_top" xlink:title="Main.start">
<polygon fill="white" stroke="black" points="4460.5,-110.5 4460.5,-129.5 4525.5,-129.5 4525.5,-110.5 4460.5,-110.5"/>
<text text-anchor="middle" x="4493" y="-117.5" font-family="Helvetica,sans-Serif" font-size="10.00">Main.start</text>
</a>
</g>
</g>
<!-- Node18&#45;&gt;Node19 -->
<g id="edge18" class="edge"><title>Node18&#45;&gt;Node19</title>
<path fill="none" stroke="midnightblue" d="M4434.39,-120C4443.63,-120 4452.55,-120 4460.5,-120"/>
<polygon fill="midnightblue" stroke="midnightblue" points="4434.27,-116.5 4424.27,-120 4434.27,-123.5 4434.27,-116.5"/>
</g>
<!-- Node20&#45;&gt;Node18 -->
<g id="edge20" class="edge"><title>Node20&#45;&gt;Node18</title>
<path fill="none" stroke="midnightblue" d="M4043.47,-102.565C4110.6,-106.421 4206.08,-111.905 4271.94,-115.688"/>
<polygon fill="midnightblue" stroke="midnightblue" points="4043.54,-99.0634 4033.36,-101.984 4043.14,-106.052 4043.54,-99.0634"/>
</g>
<!-- Node21&#45;&gt;Node10 -->
<g id="edge22" class="edge"><title>Node21&#45;&gt;Node10</title>
<path fill="none" stroke="midnightblue" d="M3146.2,-166.247C3170.52,-160.874 3198.95,-154.591 3221.91,-149.52"/>
<polygon fill="midnightblue" stroke="midnightblue" points="3145.41,-162.836 3136.4,-168.411 3146.92,-169.671 3145.41,-162.836"/>
</g>
<!-- Node22&#45;&gt;Node23 -->
<g id="edge27" class="edge"><title>Node22&#45;&gt;Node23</title>
<path fill="none" stroke="midnightblue" d="M2488.6,-250.497C2497.04,-249.495 2505.6,-248.479 2513.91,-247.492"/>
<polygon fill="midnightblue" stroke="midnightblue" points="2487.92,-247.054 2478.4,-251.708 2488.75,-254.005 2487.92,-247.054"/>
</g>
<!-- Node23&#45;&gt;Node8 -->
<g id="edge28" class="edge"><title>Node23&#45;&gt;Node8</title>
<path fill="none" stroke="midnightblue" d="M2644.21,-228.677C2659.75,-225.978 2676.18,-223.125 2691.2,-220.517"/>
<polygon fill="midnightblue" stroke="midnightblue" points="2643.4,-225.265 2634.14,-230.424 2644.6,-232.161 2643.4,-225.265"/>
</g>
<!-- Node24&#45;&gt;Node8 -->
<g id="edge32" class="edge"><title>Node24&#45;&gt;Node8</title>
<path fill="none" stroke="midnightblue" d="M2319.48,-330.214C2365.49,-326.388 2425.56,-319.823 2478,-309 2552.63,-293.598 2570.8,-286.141 2642,-259 2672.47,-247.384 2706.58,-230.952 2727.17,-220.641"/>
<polygon fill="midnightblue" stroke="midnightblue" points="2318.97,-326.743 2309.29,-331.035 2319.54,-333.72 2318.97,-326.743"/>
</g>
<!-- Node24&#45;&gt;Node9 -->
<g id="edge33" class="edge"><title>Node24&#45;&gt;Node9</title>
<path fill="none" stroke="midnightblue" d="M2319.18,-337.981C2365.09,-338.852 2425.15,-338.233 2478,-332 2633.83,-313.623 2672.9,-294.366 2816,-230 2845.51,-216.727 2878.49,-198.48 2897.68,-187.504"/>
<polygon fill="midnightblue" stroke="midnightblue" points="2319.09,-334.479 2309.02,-337.76 2318.94,-341.477 2319.09,-334.479"/>
</g>
<!-- Node24&#45;&gt;Node10 -->
<g id="edge34" class="edge"><title>Node24&#45;&gt;Node10</title>
<path fill="none" stroke="midnightblue" d="M2306.34,-348.19C2310.39,-349.9 2314.32,-351.827 2318,-354 2338.03,-365.832 2333.94,-380.212 2354,-392 2442.19,-443.832 2474.7,-449 2577,-449 2577,-449 2577,-449 2916,-449 3101.32,-449 3234.36,-201.742 3260.36,-149.587"/>
<polygon fill="midnightblue" stroke="midnightblue" points="2307.31,-344.815 2296.72,-344.584 2304.86,-351.37 2307.31,-344.815"/>
</g>
<!-- Node24&#45;&gt;Node21 -->
<g id="edge36" class="edge"><title>Node24&#45;&gt;Node21</title>
<path fill="none" stroke="midnightblue" d="M2292.26,-347.054C2377.02,-368.487 2548.7,-411 2577,-411 2577,-411 2577,-411 2748,-411 2909.61,-411 3051.56,-231.812 3084.04,-187.715"/>
<polygon fill="midnightblue" stroke="midnightblue" points="2292.92,-343.611 2282.37,-344.548 2291.2,-350.397 2292.92,-343.611"/>
</g>
<!-- Node24&#45;&gt;Node22 -->
<g id="edge35" class="edge"><title>Node24&#45;&gt;Node22</title>
<path fill="none" stroke="midnightblue" d="M2273.16,-320.895C2295.02,-310.108 2326.19,-295.085 2354,-283 2365.59,-277.965 2378.59,-272.784 2389.61,-268.53"/>
<polygon fill="midnightblue" stroke="midnightblue" points="2271.51,-317.805 2264.11,-325.382 2274.62,-324.077 2271.51,-317.805"/>
</g>
<!-- Node24&#45;&gt;Node23 -->
<g id="edge37" class="edge"><title>Node24&#45;&gt;Node23</title>
<path fill="none" stroke="midnightblue" d="M2301.25,-323.336C2348.78,-312.981 2418.45,-296.632 2478,-278 2504.71,-269.645 2534.6,-257.815 2554.48,-249.582"/>
<polygon fill="midnightblue" stroke="midnightblue" points="2300.49,-319.919 2291.45,-325.453 2301.97,-326.761 2300.49,-319.919"/>
</g>
<!-- Node25&#45;&gt;Node2 -->
<g id="edge39" class="edge"><title>Node25&#45;&gt;Node2</title>
<path fill="none" stroke="midnightblue" d="M1435.62,-290.629C1473.74,-305.237 1526.12,-325.306 1561.64,-338.917"/>
<polygon fill="midnightblue" stroke="midnightblue" points="1436.84,-287.35 1426.25,-287.04 1434.34,-293.887 1436.84,-287.35"/>
</g>
<!-- Node26&#45;&gt;Node25 -->
<g id="edge41" class="edge"><title>Node26&#45;&gt;Node25</title>
<path fill="none" stroke="midnightblue" d="M1265.66,-250.809C1277.21,-252.859 1288.95,-254.944 1300.34,-256.966"/>
<polygon fill="midnightblue" stroke="midnightblue" points="1266.04,-247.321 1255.58,-249.019 1264.81,-254.213 1266.04,-247.321"/>
</g>
<!-- Node27&#45;&gt;Node26 -->
<g id="edge43" class="edge"><title>Node27&#45;&gt;Node26</title>
<path fill="none" stroke="midnightblue" d="M1049.66,-212.809C1061.21,-214.859 1072.95,-216.944 1084.34,-218.966"/>
<polygon fill="midnightblue" stroke="midnightblue" points="1050.04,-209.321 1039.58,-211.019 1048.81,-216.213 1050.04,-209.321"/>
</g>
<!-- Node28&#45;&gt;Node27 -->
<g id="edge45" class="edge"><title>Node28&#45;&gt;Node27</title>
<path fill="none" stroke="midnightblue" d="M837.645,-185.758C846.596,-186.553 855.625,-187.355 864.48,-188.141"/>
<polygon fill="midnightblue" stroke="midnightblue" points="837.857,-182.263 827.587,-184.865 837.238,-189.236 837.857,-182.263"/>
</g>
<!-- Node29&#45;&gt;Node28 -->
<g id="edge47" class="edge"><title>Node29&#45;&gt;Node28</title>
<path fill="none" stroke="midnightblue" d="M621.645,-166.758C630.596,-167.553 639.625,-168.355 648.48,-169.141"/>
<polygon fill="midnightblue" stroke="midnightblue" points="621.857,-163.263 611.587,-165.865 621.238,-170.236 621.857,-163.263"/>
</g>
<!-- Node30&#45;&gt;Node2 -->
<g id="edge49" class="edge"><title>Node30&#45;&gt;Node2</title>
<path fill="none" stroke="midnightblue" d="M338.443,-260.356C362.969,-275.286 398.4,-294.83 432,-306 562.217,-349.289 599.776,-354 737,-354 737,-354 737,-354 1171,-354 1289.14,-354 1425.53,-354 1512.47,-354"/>
<polygon fill="midnightblue" stroke="midnightblue" points="340.27,-257.371 329.924,-255.088 336.588,-263.324 340.27,-257.371"/>
</g>
<!-- Node30&#45;&gt;Node25 -->
<g id="edge50" class="edge"><title>Node30&#45;&gt;Node25</title>
<path fill="none" stroke="midnightblue" d="M367.851,-257.684C450.625,-280.139 603.687,-316 737,-316 737,-316 737,-316 955,-316 1073.57,-316 1209.57,-299.24 1296.33,-286.407"/>
<polygon fill="midnightblue" stroke="midnightblue" points="368.681,-254.282 358.112,-255.015 366.831,-261.033 368.681,-254.282"/>
</g>
<!-- Node30&#45;&gt;Node26 -->
<g id="edge51" class="edge"><title>Node30&#45;&gt;Node26</title>
<path fill="none" stroke="midnightblue" d="M405.774,-242.59C414.642,-242.756 423.484,-242.898 432,-243 665.992,-245.807 941.771,-240.011 1080.23,-236.471"/>
<polygon fill="midnightblue" stroke="midnightblue" points="405.834,-239.091 395.767,-242.393 405.696,-246.09 405.834,-239.091"/>
</g>
<!-- Node30&#45;&gt;Node27 -->
<g id="edge52" class="edge"><title>Node30&#45;&gt;Node27</title>
<path fill="none" stroke="midnightblue" d="M405.962,-235.07C465.659,-231.95 543.223,-227.639 612,-223 697.767,-217.215 795.565,-209.34 864.368,-203.588"/>
<polygon fill="midnightblue" stroke="midnightblue" points="405.591,-231.584 395.786,-235.599 405.954,-238.575 405.591,-231.584"/>
</g>
<!-- Node30&#45;&gt;Node28 -->
<g id="edge53" class="edge"><title>Node30&#45;&gt;Node28</title>
<path fill="none" stroke="midnightblue" d="M405.713,-225.537C478.804,-214.829 577.544,-200.362 648.171,-190.014"/>
<polygon fill="midnightblue" stroke="midnightblue" points="404.962,-222.11 395.575,-227.023 405.977,-229.036 404.962,-222.11"/>
</g>
<!-- Node30&#45;&gt;Node29 -->
<g id="edge54" class="edge"><title>Node30&#45;&gt;Node29</title>
<path fill="none" stroke="midnightblue" d="M350.967,-220.837C374.79,-210.675 404.833,-198.216 432,-188 445.583,-182.892 460.479,-177.71 474.133,-173.123"/>
<polygon fill="midnightblue" stroke="midnightblue" points="349.311,-217.739 341.498,-224.894 352.068,-224.173 349.311,-217.739"/>
</g>
</g>
</svg>
