<?xml version="1.0" encoding="UTF-8" standalone="no"?>
<!DOCTYPE svg PUBLIC "-//W3C//DTD SVG 1.1//EN"
 "http://www.w3.org/Graphics/SVG/1.1/DTD/svg11.dtd">
<!-- Generated by graphviz version 2.36.0 (20140111.2315)
 -->
<!-- Title: parser.LogoParserTokenManager.jjFillToken Pages: 1 -->
<svg width="528pt" height="273pt"
 viewBox="0.00 0.00 528.00 273.00" xmlns="http://www.w3.org/2000/svg" xmlns:xlink="http://www.w3.org/1999/xlink">
<g id="graph0" class="graph" transform="scale(1 1) rotate(0) translate(4 269)">
<title>parser.LogoParserTokenManager.jjFillToken</title>
<polygon fill="white" stroke="none" points="-4,4 -4,-269 524,-269 524,4 -4,4"/>
<!-- Node1 -->
<g id="node1" class="node"><title>Node1</title>
<polygon fill="#bfbfbf" stroke="black" points="0.5,-112 0.5,-142 179.5,-142 179.5,-112 0.5,-112"/>
<text text-anchor="start" x="8.5" y="-130" font-family="Helvetica,sans-Serif" font-size="10.00">parser.LogoParserTokenManager.jj</text>
<text text-anchor="middle" x="90" y="-119" font-family="Helvetica,sans-Serif" font-size="10.00">FillToken</text>
</g>
<!-- Node2 -->
<g id="node2" class="node"><title>Node2</title>
<g id="a_node2"><a xlink:href="../../d4/dad/classparser_1_1_simple_char_stream.html#ab206c6e9c44d1f594317a7920e6c9372" target="_top" xlink:title="parser.SimpleCharStream.get\lBeginColumn">
<polygon fill="white" stroke="black" points="216,-235 216,-265 376,-265 376,-235 216,-235"/>
<text text-anchor="start" x="224" y="-253" font-family="Helvetica,sans-Serif" font-size="10.00">parser.SimpleCharStream.get</text>
<text text-anchor="middle" x="296" y="-242" font-family="Helvetica,sans-Serif" font-size="10.00">BeginColumn</text>
</a>
</g>
</g>
<!-- Node1&#45;&gt;Node2 -->
<g id="edge1" class="edge"><title>Node1&#45;&gt;Node2</title>
<path fill="none" stroke="midnightblue" d="M106.276,-142.011C128.627,-163.225 172.348,-201.957 216,-225 220.23,-227.233 224.694,-229.308 229.26,-231.227"/>
<polygon fill="midnightblue" stroke="midnightblue" points="228.145,-234.55 238.732,-234.952 230.706,-228.035 228.145,-234.55"/>
</g>
<!-- Node3 -->
<g id="node3" class="node"><title>Node3</title>
<g id="a_node3"><a xlink:href="../../d4/dad/classparser_1_1_simple_char_stream.html#a57abeecbf653aeb71b0e7631b3a30331" target="_top" xlink:title="parser.SimpleCharStream.get\lBeginLine">
<polygon fill="white" stroke="black" points="216,-186 216,-216 376,-216 376,-186 216,-186"/>
<text text-anchor="start" x="224" y="-204" font-family="Helvetica,sans-Serif" font-size="10.00">parser.SimpleCharStream.get</text>
<text text-anchor="middle" x="296" y="-193" font-family="Helvetica,sans-Serif" font-size="10.00">BeginLine</text>
</a>
</g>
</g>
<!-- Node1&#45;&gt;Node3 -->
<g id="edge2" class="edge"><title>Node1&#45;&gt;Node3</title>
<path fill="none" stroke="midnightblue" d="M127.404,-142.016C152.213,-152.065 185.895,-165.349 216,-176 222.378,-178.257 229.079,-180.528 235.769,-182.732"/>
<polygon fill="midnightblue" stroke="midnightblue" points="234.932,-186.14 245.524,-185.904 237.097,-179.483 234.932,-186.14"/>
</g>
<!-- Node4 -->
<g id="node4" class="node"><title>Node4</title>
<g id="a_node4"><a xlink:href="../../d4/dad/classparser_1_1_simple_char_stream.html#a3481ab0706f472b64151b31a36e883ef" target="_top" xlink:title="parser.SimpleCharStream.get\lEndColumn">
<polygon fill="white" stroke="black" points="216,-137 216,-167 376,-167 376,-137 216,-137"/>
<text text-anchor="start" x="224" y="-155" font-family="Helvetica,sans-Serif" font-size="10.00">parser.SimpleCharStream.get</text>
<text text-anchor="middle" x="296" y="-144" font-family="Helvetica,sans-Serif" font-size="10.00">EndColumn</text>
</a>
</g>
</g>
<!-- Node1&#45;&gt;Node4 -->
<g id="edge3" class="edge"><title>Node1&#45;&gt;Node4</title>
<path fill="none" stroke="midnightblue" d="M179.587,-137.856C188.243,-138.917 197.03,-139.994 205.693,-141.056"/>
<polygon fill="midnightblue" stroke="midnightblue" points="205.439,-144.551 215.791,-142.293 206.291,-137.602 205.439,-144.551"/>
</g>
<!-- Node5 -->
<g id="node5" class="node"><title>Node5</title>
<g id="a_node5"><a xlink:href="../../d4/dad/classparser_1_1_simple_char_stream.html#a47d15eca0c061d9075a8e2e7a835311b" target="_top" xlink:title="parser.SimpleCharStream.get\lEndLine">
<polygon fill="white" stroke="black" points="216,-88 216,-118 376,-118 376,-88 216,-88"/>
<text text-anchor="start" x="224" y="-106" font-family="Helvetica,sans-Serif" font-size="10.00">parser.SimpleCharStream.get</text>
<text text-anchor="middle" x="296" y="-95" font-family="Helvetica,sans-Serif" font-size="10.00">EndLine</text>
</a>
</g>
</g>
<!-- Node1&#45;&gt;Node5 -->
<g id="edge4" class="edge"><title>Node1&#45;&gt;Node5</title>
<path fill="none" stroke="midnightblue" d="M179.587,-116.578C188.243,-115.56 197.03,-114.526 205.693,-113.507"/>
<polygon fill="midnightblue" stroke="midnightblue" points="206.268,-116.963 215.791,-112.319 205.45,-110.011 206.268,-116.963"/>
</g>
<!-- Node6 -->
<g id="node6" class="node"><title>Node6</title>
<g id="a_node6"><a xlink:href="../../d4/dad/classparser_1_1_simple_char_stream.html#ad220e4e4324856b29042bb7cd3f1bf5e" target="_top" xlink:title="parser.SimpleCharStream.\lGetImage">
<polygon fill="white" stroke="black" points="224,-39 224,-69 368,-69 368,-39 224,-39"/>
<text text-anchor="start" x="232" y="-57" font-family="Helvetica,sans-Serif" font-size="10.00">parser.SimpleCharStream.</text>
<text text-anchor="middle" x="296" y="-46" font-family="Helvetica,sans-Serif" font-size="10.00">GetImage</text>
</a>
</g>
</g>
<!-- Node1&#45;&gt;Node6 -->
<g id="edge5" class="edge"><title>Node1&#45;&gt;Node6</title>
<path fill="none" stroke="midnightblue" d="M128.525,-111.913C153.237,-102.146 186.378,-89.3639 216,-79 222.477,-76.7337 229.284,-74.444 236.072,-72.2182"/>
<polygon fill="midnightblue" stroke="midnightblue" points="237.529,-75.4252 245.963,-69.0132 235.372,-68.7661 237.529,-75.4252"/>
</g>
<!-- Node7 -->
<g id="node7" class="node"><title>Node7</title>
<g id="a_node7"><a xlink:href="../../db/df3/classparser_1_1_token.html#ae26c3dba3bc9315a3fc688514f51c9bf" target="_top" xlink:title="parser.Token.newToken">
<polygon fill="white" stroke="black" points="233.5,-0.5 233.5,-19.5 358.5,-19.5 358.5,-0.5 233.5,-0.5"/>
<text text-anchor="middle" x="296" y="-7.5" font-family="Helvetica,sans-Serif" font-size="10.00">parser.Token.newToken</text>
</a>
</g>
</g>
<!-- Node1&#45;&gt;Node7 -->
<g id="edge6" class="edge"><title>Node1&#45;&gt;Node7</title>
<path fill="none" stroke="midnightblue" d="M106.13,-111.804C128.304,-90.3946 171.81,-51.5615 216,-30 221.758,-27.1907 227.95,-24.7495 234.243,-22.6341"/>
<polygon fill="midnightblue" stroke="midnightblue" points="235.644,-25.8647 244.168,-19.5719 233.58,-19.1759 235.644,-25.8647"/>
</g>
<!-- Node8 -->
<g id="node8" class="node"><title>Node8</title>
<g id="a_node8"><a xlink:href="../../db/df3/classparser_1_1_token.html#aee7a764d984c5f071e40e215c400fc3d" target="_top" xlink:title="parser.Token.Token">
<polygon fill="white" stroke="black" points="412.5,-0.5 412.5,-19.5 519.5,-19.5 519.5,-0.5 412.5,-0.5"/>
<text text-anchor="middle" x="466" y="-7.5" font-family="Helvetica,sans-Serif" font-size="10.00">parser.Token.Token</text>
</a>
</g>
</g>
<!-- Node7&#45;&gt;Node8 -->
<g id="edge7" class="edge"><title>Node7&#45;&gt;Node8</title>
<path fill="none" stroke="midnightblue" d="M358.603,-10C372.77,-10 387.854,-10 402.076,-10"/>
<polygon fill="midnightblue" stroke="midnightblue" points="402.254,-13.5001 412.254,-10 402.254,-6.5001 402.254,-13.5001"/>
</g>
</g>
</svg>
