<?xml version="1.0" encoding="UTF-8" standalone="no"?>
<!DOCTYPE svg PUBLIC "-//W3C//DTD SVG 1.1//EN"
 "http://www.w3.org/Graphics/SVG/1.1/DTD/svg11.dtd">
<!-- Generated by graphviz version 2.36.0 (20140111.2315)
 -->
<!-- Title: parser.LogoParserTokenManager.jjMoveStringLiteralDfa2_0 Pages: 1 -->
<svg width="3238pt" height="426pt"
 viewBox="0.00 0.00 3238.00 426.13" xmlns="http://www.w3.org/2000/svg" xmlns:xlink="http://www.w3.org/1999/xlink">
<g id="graph0" class="graph" transform="scale(1 1) rotate(0) translate(4 422.128)">
<title>parser.LogoParserTokenManager.jjMoveStringLiteralDfa2_0</title>
<polygon fill="white" stroke="none" points="-4,4 -4,-422.128 3234,-422.128 3234,4 -4,4"/>
<!-- Node1 -->
<g id="node1" class="node"><title>Node1</title>
<polygon fill="#bfbfbf" stroke="black" points="0.5,-308.128 0.5,-338.128 179.5,-338.128 179.5,-308.128 0.5,-308.128"/>
<text text-anchor="start" x="8.5" y="-326.128" font-family="Helvetica,sans-Serif" font-size="10.00">parser.LogoParserTokenManager.jj</text>
<text text-anchor="middle" x="90" y="-315.128" font-family="Helvetica,sans-Serif" font-size="10.00">MoveStringLiteralDfa2_0</text>
</g>
<!-- Node2 -->
<g id="node2" class="node"><title>Node2</title>
<g id="a_node2"><a xlink:href="../../d0/d8c/classparser_1_1_logo_parser_token_manager.html#a99a01f0b68908e628349e9f09a2cbccd" target="_top" xlink:title="parser.LogoParserTokenManager.jj\lMoveStringLiteralDfa1_0">
<polygon fill="white" stroke="black" points="216.5,-308.128 216.5,-338.128 395.5,-338.128 395.5,-308.128 216.5,-308.128"/>
<text text-anchor="start" x="224.5" y="-326.128" font-family="Helvetica,sans-Serif" font-size="10.00">parser.LogoParserTokenManager.jj</text>
<text text-anchor="middle" x="306" y="-315.128" font-family="Helvetica,sans-Serif" font-size="10.00">MoveStringLiteralDfa1_0</text>
</a>
</g>
</g>
<!-- Node1&#45;&gt;Node2 -->
<g id="edge1" class="edge"><title>Node1&#45;&gt;Node2</title>
<path fill="none" stroke="midnightblue" d="M189.645,-323.128C198.596,-323.128 207.625,-323.128 216.48,-323.128"/>
<polygon fill="midnightblue" stroke="midnightblue" points="189.587,-319.628 179.587,-323.128 189.587,-326.628 189.587,-319.628"/>
</g>
<!-- Node3 -->
<g id="node3" class="node"><title>Node3</title>
<g id="a_node3"><a xlink:href="../../d0/d8c/classparser_1_1_logo_parser_token_manager.html#a2b55f093fc0200c57a099eba2d9b37e2" target="_top" xlink:title="parser.LogoParserTokenManager.jj\lMoveStringLiteralDfa0_0">
<polygon fill="white" stroke="black" points="432.5,-308.128 432.5,-338.128 611.5,-338.128 611.5,-308.128 432.5,-308.128"/>
<text text-anchor="start" x="440.5" y="-326.128" font-family="Helvetica,sans-Serif" font-size="10.00">parser.LogoParserTokenManager.jj</text>
<text text-anchor="middle" x="522" y="-315.128" font-family="Helvetica,sans-Serif" font-size="10.00">MoveStringLiteralDfa0_0</text>
</a>
</g>
</g>
<!-- Node2&#45;&gt;Node3 -->
<g id="edge2" class="edge"><title>Node2&#45;&gt;Node3</title>
<path fill="none" stroke="midnightblue" d="M405.645,-323.128C414.596,-323.128 423.625,-323.128 432.48,-323.128"/>
<polygon fill="midnightblue" stroke="midnightblue" points="405.587,-319.628 395.587,-323.128 405.587,-326.628 405.587,-319.628"/>
</g>
<!-- Node4 -->
<g id="node4" class="node"><title>Node4</title>
<g id="a_node4"><a xlink:href="../../d0/d8c/classparser_1_1_logo_parser_token_manager.html#a3dee50e2286b70ba662519a865e63b77" target="_top" xlink:title="parser.LogoParserTokenManager.get\lNextToken">
<polygon fill="white" stroke="black" points="648,-308.128 648,-338.128 838,-338.128 838,-308.128 648,-308.128"/>
<text text-anchor="start" x="656" y="-326.128" font-family="Helvetica,sans-Serif" font-size="10.00">parser.LogoParserTokenManager.get</text>
<text text-anchor="middle" x="743" y="-315.128" font-family="Helvetica,sans-Serif" font-size="10.00">NextToken</text>
</a>
</g>
</g>
<!-- Node3&#45;&gt;Node4 -->
<g id="edge3" class="edge"><title>Node3&#45;&gt;Node4</title>
<path fill="none" stroke="midnightblue" d="M621.831,-323.128C630.456,-323.128 639.17,-323.128 647.756,-323.128"/>
<polygon fill="midnightblue" stroke="midnightblue" points="621.76,-319.628 611.76,-323.128 621.76,-326.628 621.76,-319.628"/>
</g>
<!-- Node5 -->
<g id="node5" class="node"><title>Node5</title>
<g id="a_node5"><a xlink:href="../../d5/d0e/classparser_1_1_logo_parser.html#a7477b52c4469ea43d75f88fb805e37a1" target="_top" xlink:title="parser.LogoParser.getNext\lToken">
<polygon fill="white" stroke="black" points="876.5,-371.128 876.5,-401.128 1019.5,-401.128 1019.5,-371.128 876.5,-371.128"/>
<text text-anchor="start" x="884.5" y="-389.128" font-family="Helvetica,sans-Serif" font-size="10.00">parser.LogoParser.getNext</text>
<text text-anchor="middle" x="948" y="-378.128" font-family="Helvetica,sans-Serif" font-size="10.00">Token</text>
</a>
</g>
</g>
<!-- Node4&#45;&gt;Node5 -->
<g id="edge4" class="edge"><title>Node4&#45;&gt;Node5</title>
<path fill="none" stroke="midnightblue" d="M802.044,-341.142C832.612,-350.629 869.662,-362.127 898.653,-371.124"/>
<polygon fill="midnightblue" stroke="midnightblue" points="802.954,-337.76 792.366,-338.138 800.879,-344.445 802.954,-337.76"/>
</g>
<!-- Node6 -->
<g id="node6" class="node"><title>Node6</title>
<g id="a_node6"><a xlink:href="../../d5/d0e/classparser_1_1_logo_parser.html#a63b7890a7d6323bcf938132f968e8157" target="_top" xlink:title="parser.LogoParser.getToken">
<polygon fill="white" stroke="black" points="874,-332.628 874,-351.628 1022,-351.628 1022,-332.628 874,-332.628"/>
<text text-anchor="middle" x="948" y="-339.628" font-family="Helvetica,sans-Serif" font-size="10.00">parser.LogoParser.getToken</text>
</a>
</g>
</g>
<!-- Node4&#45;&gt;Node6 -->
<g id="edge5" class="edge"><title>Node4&#45;&gt;Node6</title>
<path fill="none" stroke="midnightblue" d="M848.241,-332.885C856.906,-333.696 865.544,-334.504 873.903,-335.287"/>
<polygon fill="midnightblue" stroke="midnightblue" points="848.355,-329.38 838.072,-331.933 847.702,-336.35 848.355,-329.38"/>
</g>
<!-- Node7 -->
<g id="node7" class="node"><title>Node7</title>
<g id="a_node7"><a xlink:href="../../d5/d0e/classparser_1_1_logo_parser.html#a550039a3180ec86ef01f419aefc02edc" target="_top" xlink:title="parser.LogoParser.jj\l_consume_token">
<polygon fill="white" stroke="black" points="893,-118.128 893,-148.128 1003,-148.128 1003,-118.128 893,-118.128"/>
<text text-anchor="start" x="901" y="-136.128" font-family="Helvetica,sans-Serif" font-size="10.00">parser.LogoParser.jj</text>
<text text-anchor="middle" x="948" y="-125.128" font-family="Helvetica,sans-Serif" font-size="10.00">_consume_token</text>
</a>
</g>
</g>
<!-- Node4&#45;&gt;Node7 -->
<g id="edge6" class="edge"><title>Node4&#45;&gt;Node7</title>
<path fill="none" stroke="midnightblue" d="M767.787,-300.864C809.628,-261.703 895.329,-181.49 930.935,-148.164"/>
<polygon fill="midnightblue" stroke="midnightblue" points="765.178,-298.512 760.269,-307.901 769.962,-303.623 765.178,-298.512"/>
</g>
<!-- Node24 -->
<g id="node24" class="node"><title>Node24</title>
<g id="a_node24"><a xlink:href="../../d5/d0e/classparser_1_1_logo_parser.html#a2e48e3ab2c1c075beca7bcc54d891afd" target="_top" xlink:title="parser.LogoParser.jj_ntk">
<polygon fill="white" stroke="black" points="883,-294.628 883,-313.628 1013,-313.628 1013,-294.628 883,-294.628"/>
<text text-anchor="middle" x="948" y="-301.628" font-family="Helvetica,sans-Serif" font-size="10.00">parser.LogoParser.jj_ntk</text>
</a>
</g>
</g>
<!-- Node4&#45;&gt;Node24 -->
<g id="edge31" class="edge"><title>Node4&#45;&gt;Node24</title>
<path fill="none" stroke="midnightblue" d="M848.382,-313.359C860.117,-312.26 871.801,-311.167 882.805,-310.137"/>
<polygon fill="midnightblue" stroke="midnightblue" points="847.702,-309.907 838.072,-314.324 848.355,-316.876 847.702,-309.907"/>
</g>
<!-- Node8 -->
<g id="node8" class="node"><title>Node8</title>
<g id="a_node8"><a xlink:href="../../d5/d0e/classparser_1_1_logo_parser.html#a82acce8328e52f3b2bcb90542cc800b7" target="_top" xlink:title="parser.LogoParser.arithm">
<polygon fill="white" stroke="black" points="1382.5,-170.628 1382.5,-189.628 1519.5,-189.628 1519.5,-170.628 1382.5,-170.628"/>
<text text-anchor="middle" x="1451" y="-177.628" font-family="Helvetica,sans-Serif" font-size="10.00">parser.LogoParser.arithm</text>
</a>
</g>
</g>
<!-- Node7&#45;&gt;Node8 -->
<g id="edge7" class="edge"><title>Node7&#45;&gt;Node8</title>
<path fill="none" stroke="midnightblue" d="M1013.14,-139.145C1108.08,-148.052 1285.24,-164.672 1382.23,-173.771"/>
<polygon fill="midnightblue" stroke="midnightblue" points="1013.38,-135.652 1003.09,-138.203 1012.72,-142.622 1013.38,-135.652"/>
</g>
<!-- Node9 -->
<g id="node9" class="node"><title>Node9</title>
<g id="a_node9"><a xlink:href="../../d5/d0e/classparser_1_1_logo_parser.html#a397c25c39976e5a1fb689e1f0dd40160" target="_top" xlink:title="parser.LogoParser.eval">
<polygon fill="white" stroke="black" points="1556.5,-137.628 1556.5,-156.628 1681.5,-156.628 1681.5,-137.628 1556.5,-137.628"/>
<text text-anchor="middle" x="1619" y="-144.628" font-family="Helvetica,sans-Serif" font-size="10.00">parser.LogoParser.eval</text>
</a>
</g>
</g>
<!-- Node7&#45;&gt;Node9 -->
<g id="edge23" class="edge"><title>Node7&#45;&gt;Node9</title>
<path fill="none" stroke="midnightblue" d="M1013.27,-134.473C1141.9,-137.165 1429.46,-143.183 1556.1,-145.833"/>
<polygon fill="midnightblue" stroke="midnightblue" points="1013.25,-130.972 1003.18,-134.262 1013.1,-137.971 1013.25,-130.972"/>
</g>
<!-- Node10 -->
<g id="node10" class="node"><title>Node10</title>
<g id="a_node10"><a xlink:href="../../d5/d0e/classparser_1_1_logo_parser.html#a6b0ba0c2b5b0bc8c2ef76863fffdb6a3" target="_top" xlink:title="parser.LogoParser.list">
<polygon fill="white" stroke="black" points="1910.5,-99.6283 1910.5,-118.628 2029.5,-118.628 2029.5,-99.6283 1910.5,-99.6283"/>
<text text-anchor="middle" x="1970" y="-106.628" font-family="Helvetica,sans-Serif" font-size="10.00">parser.LogoParser.list</text>
</a>
</g>
</g>
<!-- Node7&#45;&gt;Node10 -->
<g id="edge25" class="edge"><title>Node7&#45;&gt;Node10</title>
<path fill="none" stroke="midnightblue" d="M983.871,-113.211C1004.79,-102.026 1032.24,-88.6456 1058,-80.1283 1153.75,-48.4635 1180.15,-38.1283 1281,-38.1283 1281,-38.1283 1281,-38.1283 1620,-38.1283 1741.81,-38.1283 1882.82,-80.173 1941.34,-99.5529"/>
<polygon fill="midnightblue" stroke="midnightblue" points="982.158,-110.159 975.043,-118.009 985.501,-116.309 982.158,-110.159"/>
</g>
<!-- Node11 -->
<g id="node11" class="node"><title>Node11</title>
<g id="a_node11"><a xlink:href="../../d5/d0e/classparser_1_1_logo_parser.html#a4a8825534e0488215d22bcd947bc4d41" target="_top" xlink:title="parser.LogoParser.expression">
<polygon fill="white" stroke="black" points="2066.5,-26.6283 2066.5,-45.6283 2223.5,-45.6283 2223.5,-26.6283 2066.5,-26.6283"/>
<text text-anchor="middle" x="2145" y="-33.6283" font-family="Helvetica,sans-Serif" font-size="10.00">parser.LogoParser.expression</text>
</a>
</g>
</g>
<!-- Node7&#45;&gt;Node11 -->
<g id="edge24" class="edge"><title>Node7&#45;&gt;Node11</title>
<path fill="none" stroke="midnightblue" d="M968.934,-110.568C989.172,-89.1803 1022.51,-57.9001 1058,-41.1283 1149.11,1.92439 1180.23,-0.128293 1281,-0.128293 1281,-0.128293 1281,-0.128293 1797,-0.128293 1899.81,-0.128293 2018.85,-15.9569 2087.39,-26.6226"/>
<polygon fill="midnightblue" stroke="midnightblue" points="966.32,-108.241 962.091,-117.955 971.455,-112.998 966.32,-108.241"/>
</g>
<!-- Node21 -->
<g id="node21" class="node"><title>Node21</title>
<g id="a_node21"><a xlink:href="../../d5/d0e/classparser_1_1_logo_parser.html#ad6ed8e51959a6e19a2323444aa8331c8" target="_top" xlink:title="parser.LogoParser.statement">
<polygon fill="white" stroke="black" points="1718.5,-137.628 1718.5,-156.628 1873.5,-156.628 1873.5,-137.628 1718.5,-137.628"/>
<text text-anchor="middle" x="1796" y="-144.628" font-family="Helvetica,sans-Serif" font-size="10.00">parser.LogoParser.statement</text>
</a>
</g>
</g>
<!-- Node7&#45;&gt;Node21 -->
<g id="edge29" class="edge"><title>Node7&#45;&gt;Node21</title>
<path fill="none" stroke="midnightblue" d="M1012.76,-115.549C1079.19,-98.8025 1186.57,-76.1283 1281,-76.1283 1281,-76.1283 1281,-76.1283 1452,-76.1283 1571.8,-76.1283 1710.34,-118.173 1767.83,-137.553"/>
<polygon fill="midnightblue" stroke="midnightblue" points="1011.68,-112.212 1002.86,-118.078 1013.41,-118.994 1011.68,-112.212"/>
</g>
<!-- Node22 -->
<g id="node22" class="node"><title>Node22</title>
<g id="a_node22"><a xlink:href="../../d5/d0e/classparser_1_1_logo_parser.html#a4bdaeff6df067fde6743ff07370c3b0b" target="_top" xlink:title="parser.LogoParser.pow">
<polygon fill="white" stroke="black" points="1058,-218.628 1058,-237.628 1182,-237.628 1182,-218.628 1058,-218.628"/>
<text text-anchor="middle" x="1120" y="-225.628" font-family="Helvetica,sans-Serif" font-size="10.00">parser.LogoParser.pow</text>
</a>
</g>
</g>
<!-- Node7&#45;&gt;Node22 -->
<g id="edge26" class="edge"><title>Node7&#45;&gt;Node22</title>
<path fill="none" stroke="midnightblue" d="M977.863,-154.242C999.29,-169.334 1029.6,-189.482 1058,-204.128 1068.52,-209.553 1080.56,-214.531 1091.15,-218.53"/>
<polygon fill="midnightblue" stroke="midnightblue" points="979.717,-151.266 969.54,-148.319 975.658,-156.969 979.717,-151.266"/>
</g>
<!-- Node23 -->
<g id="node23" class="node"><title>Node23</title>
<g id="a_node23"><a xlink:href="../../d5/d0e/classparser_1_1_logo_parser.html#a34f4226672a2711ce2691162fdb2124d" target="_top" xlink:title="parser.LogoParser.term">
<polygon fill="white" stroke="black" points="1218,-199.628 1218,-218.628 1346,-218.628 1346,-199.628 1218,-199.628"/>
<text text-anchor="middle" x="1282" y="-206.628" font-family="Helvetica,sans-Serif" font-size="10.00">parser.LogoParser.term</text>
</a>
</g>
</g>
<!-- Node7&#45;&gt;Node23 -->
<g id="edge30" class="edge"><title>Node7&#45;&gt;Node23</title>
<path fill="none" stroke="midnightblue" d="M1004.64,-151.185C1021.66,-156.381 1040.51,-161.807 1058,-166.128 1113.5,-179.842 1177.67,-191.816 1222.89,-199.621"/>
<polygon fill="midnightblue" stroke="midnightblue" points="1005.44,-147.768 994.85,-148.162 1003.37,-154.457 1005.44,-147.768"/>
</g>
<!-- Node8&#45;&gt;Node9 -->
<g id="edge8" class="edge"><title>Node8&#45;&gt;Node9</title>
<path fill="none" stroke="midnightblue" d="M1510.06,-168.586C1529.68,-164.686 1551.35,-160.378 1570.09,-156.652"/>
<polygon fill="midnightblue" stroke="midnightblue" points="1509.14,-165.201 1500.01,-170.583 1510.5,-172.066 1509.14,-165.201"/>
</g>
<!-- Node9&#45;&gt;Node10 -->
<g id="edge9" class="edge"><title>Node9&#45;&gt;Node10</title>
<path fill="none" stroke="midnightblue" d="M1673.06,-135.677C1687.58,-132.863 1703.35,-130.097 1718,-128.128 1783.62,-119.314 1859.48,-114.278 1910.47,-111.635"/>
<polygon fill="midnightblue" stroke="midnightblue" points="1672.37,-132.246 1663.24,-137.624 1673.73,-139.112 1672.37,-132.246"/>
</g>
<!-- Node9&#45;&gt;Node21 -->
<g id="edge21" class="edge"><title>Node9&#45;&gt;Node21</title>
<path fill="none" stroke="midnightblue" d="M1691.8,-147.128C1700.51,-147.128 1709.44,-147.128 1718.22,-147.128"/>
<polygon fill="midnightblue" stroke="midnightblue" points="1691.7,-143.628 1681.7,-147.128 1691.7,-150.628 1691.7,-143.628"/>
</g>
<!-- Node10&#45;&gt;Node11 -->
<g id="edge10" class="edge"><title>Node10&#45;&gt;Node11</title>
<path fill="none" stroke="midnightblue" d="M2003.2,-95.5422C2037.58,-81.0317 2091.2,-58.4088 2121.38,-45.6741"/>
<polygon fill="midnightblue" stroke="midnightblue" points="2001.47,-92.4724 1993.62,-99.5848 2004.19,-98.9217 2001.47,-92.4724"/>
</g>
<!-- Node12 -->
<g id="node12" class="node"><title>Node12</title>
<g id="a_node12"><a xlink:href="../../d5/d0e/classparser_1_1_logo_parser.html#adefe3b97ad0d2d7fd0dcd13f7ef2c75e" target="_top" xlink:title="parser.LogoParser.parse">
<polygon fill="white" stroke="black" points="2079,-99.6283 2079,-118.628 2211,-118.628 2211,-99.6283 2079,-99.6283"/>
<text text-anchor="middle" x="2145" y="-106.628" font-family="Helvetica,sans-Serif" font-size="10.00">parser.LogoParser.parse</text>
</a>
</g>
</g>
<!-- Node10&#45;&gt;Node12 -->
<g id="edge11" class="edge"><title>Node10&#45;&gt;Node12</title>
<path fill="none" stroke="midnightblue" d="M2039.78,-109.128C2052.7,-109.128 2066.16,-109.128 2078.95,-109.128"/>
<polygon fill="midnightblue" stroke="midnightblue" points="2039.57,-105.628 2029.57,-109.128 2039.57,-112.628 2039.57,-105.628"/>
</g>
<!-- Node13 -->
<g id="node13" class="node"><title>Node13</title>
<g id="a_node13"><a xlink:href="../../d6/d95/classparser_1_1_parser.html#af3d0cef45b9f02f1707959c08d8f3797" target="_top" xlink:title="parser.Parser.parse">
<polygon fill="white" stroke="black" points="2260.5,-99.6283 2260.5,-118.628 2369.5,-118.628 2369.5,-99.6283 2260.5,-99.6283"/>
<text text-anchor="middle" x="2315" y="-106.628" font-family="Helvetica,sans-Serif" font-size="10.00">parser.Parser.parse</text>
</a>
</g>
</g>
<!-- Node12&#45;&gt;Node13 -->
<g id="edge12" class="edge"><title>Node12&#45;&gt;Node13</title>
<path fill="none" stroke="midnightblue" d="M2221.8,-109.128C2234.83,-109.128 2248.12,-109.128 2260.41,-109.128"/>
<polygon fill="midnightblue" stroke="midnightblue" points="2221.43,-105.628 2211.43,-109.128 2221.43,-112.628 2221.43,-105.628"/>
</g>
<!-- Node14 -->
<g id="node14" class="node"><title>Node14</title>
<g id="a_node14"><a xlink:href="../../d4/d06/classinput_1_1_input_executor.html#a687a9f2cbed5d27a2c7b1336a1cab8aa" target="_top" xlink:title="input.InputExecutor.process\lInput">
<polygon fill="white" stroke="black" points="2406.5,-138.128 2406.5,-168.128 2555.5,-168.128 2555.5,-138.128 2406.5,-138.128"/>
<text text-anchor="start" x="2414.5" y="-156.128" font-family="Helvetica,sans-Serif" font-size="10.00">input.InputExecutor.process</text>
<text text-anchor="middle" x="2481" y="-145.128" font-family="Helvetica,sans-Serif" font-size="10.00">Input</text>
</a>
</g>
</g>
<!-- Node13&#45;&gt;Node14 -->
<g id="edge13" class="edge"><title>Node13&#45;&gt;Node14</title>
<path fill="none" stroke="midnightblue" d="M2361.36,-121.297C2380.7,-126.486 2403.46,-132.593 2423.85,-138.063"/>
<polygon fill="midnightblue" stroke="midnightblue" points="2362.15,-117.887 2351.59,-118.676 2360.34,-124.647 2362.15,-117.887"/>
</g>
<!-- Node15 -->
<g id="node15" class="node"><title>Node15</title>
<g id="a_node15"><a xlink:href="../../d6/d95/classparser_1_1_parser.html#ae90f8410be9931ec3f349085c8fdae71" target="_top" xlink:title="parser.Parser.parseFile">
<polygon fill="white" stroke="black" points="2419,-99.6283 2419,-118.628 2543,-118.628 2543,-99.6283 2419,-99.6283"/>
<text text-anchor="middle" x="2481" y="-106.628" font-family="Helvetica,sans-Serif" font-size="10.00">parser.Parser.parseFile</text>
</a>
</g>
</g>
<!-- Node13&#45;&gt;Node15 -->
<g id="edge14" class="edge"><title>Node13&#45;&gt;Node15</title>
<path fill="none" stroke="midnightblue" d="M2379.82,-109.128C2392.63,-109.128 2406.06,-109.128 2418.79,-109.128"/>
<polygon fill="midnightblue" stroke="midnightblue" points="2379.7,-105.628 2369.7,-109.128 2379.7,-112.628 2379.7,-105.628"/>
</g>
<!-- Node20 -->
<g id="node20" class="node"><title>Node20</title>
<g id="a_node20"><a xlink:href="../../d5/d56/class_workspace.html#a0ed8fb487512971086b6f3ed0d74e4ae" target="_top" xlink:title="Workspace.sendUserInput">
<polygon fill="white" stroke="black" points="2597,-57.6283 2597,-76.6283 2737,-76.6283 2737,-57.6283 2597,-57.6283"/>
<text text-anchor="middle" x="2667" y="-64.6283" font-family="Helvetica,sans-Serif" font-size="10.00">Workspace.sendUserInput</text>
</a>
</g>
</g>
<!-- Node13&#45;&gt;Node20 -->
<g id="edge19" class="edge"><title>Node13&#45;&gt;Node20</title>
<path fill="none" stroke="midnightblue" d="M2366.23,-97.4126C2379.14,-94.7092 2393.04,-92.0626 2406,-90.1283 2470.31,-80.5301 2544.22,-74.4655 2596.76,-70.9889"/>
<polygon fill="midnightblue" stroke="midnightblue" points="2365.18,-94.0595 2356.14,-99.5804 2366.65,-100.904 2365.18,-94.0595"/>
</g>
<!-- Node16 -->
<g id="node16" class="node"><title>Node16</title>
<g id="a_node16"><a xlink:href="../../d9/de8/class_file_chooser_feature.html#ad742b8e9d07e8151f0a9ff1972867ce8" target="_top" xlink:title="FileChooserFeature.openFile\lChooser">
<polygon fill="white" stroke="black" points="2592.5,-96.1283 2592.5,-126.128 2741.5,-126.128 2741.5,-96.1283 2592.5,-96.1283"/>
<text text-anchor="start" x="2600.5" y="-114.128" font-family="Helvetica,sans-Serif" font-size="10.00">FileChooserFeature.openFile</text>
<text text-anchor="middle" x="2667" y="-103.128" font-family="Helvetica,sans-Serif" font-size="10.00">Chooser</text>
</a>
</g>
</g>
<!-- Node15&#45;&gt;Node16 -->
<g id="edge15" class="edge"><title>Node15&#45;&gt;Node16</title>
<path fill="none" stroke="midnightblue" d="M2553.17,-109.902C2566.02,-110.042 2579.44,-110.187 2592.35,-110.328"/>
<polygon fill="midnightblue" stroke="midnightblue" points="2553.05,-106.4 2543.01,-109.791 2552.98,-113.4 2553.05,-106.4"/>
</g>
<!-- Node17 -->
<g id="node17" class="node"><title>Node17</title>
<g id="a_node17"><a xlink:href="../../d5/d56/class_workspace.html#a6babd032d9af86fbc23812272d59a2d2" target="_top" xlink:title="Workspace.addFeatureButtons">
<polygon fill="white" stroke="black" points="2778,-99.6283 2778,-118.628 2940,-118.628 2940,-99.6283 2778,-99.6283"/>
<text text-anchor="middle" x="2859" y="-106.628" font-family="Helvetica,sans-Serif" font-size="10.00">Workspace.addFeatureButtons</text>
</a>
</g>
</g>
<!-- Node16&#45;&gt;Node17 -->
<g id="edge16" class="edge"><title>Node16&#45;&gt;Node17</title>
<path fill="none" stroke="midnightblue" d="M2751.77,-110.247C2760.38,-110.156 2769.12,-110.064 2777.7,-109.974"/>
<polygon fill="midnightblue" stroke="midnightblue" points="2751.69,-106.747 2741.73,-110.352 2751.77,-113.747 2751.69,-106.747"/>
</g>
<!-- Node18 -->
<g id="node18" class="node"><title>Node18</title>
<g id="a_node18"><a xlink:href="../../d5/d56/class_workspace.html#a429d535dfd8427637b7715f0b1e1df1b" target="_top" xlink:title="Workspace.createWorkspace">
<polygon fill="white" stroke="black" points="2976,-79.6283 2976,-98.6283 3128,-98.6283 3128,-79.6283 2976,-79.6283"/>
<text text-anchor="middle" x="3052" y="-86.6283" font-family="Helvetica,sans-Serif" font-size="10.00">Workspace.createWorkspace</text>
</a>
</g>
</g>
<!-- Node17&#45;&gt;Node18 -->
<g id="edge17" class="edge"><title>Node17&#45;&gt;Node18</title>
<path fill="none" stroke="midnightblue" d="M2950.22,-99.6809C2958.82,-98.7804 2967.48,-97.874 2975.91,-96.9909"/>
<polygon fill="midnightblue" stroke="midnightblue" points="2949.75,-96.2109 2940.17,-100.733 2950.48,-103.173 2949.75,-96.2109"/>
</g>
<!-- Node19 -->
<g id="node19" class="node"><title>Node19</title>
<g id="a_node19"><a xlink:href="../../d0/d4b/class_main.html#aaa75b38812324d0f17c89f139bde6ada" target="_top" xlink:title="Main.start">
<polygon fill="white" stroke="black" points="3164.5,-79.6283 3164.5,-98.6283 3229.5,-98.6283 3229.5,-79.6283 3164.5,-79.6283"/>
<text text-anchor="middle" x="3197" y="-86.6283" font-family="Helvetica,sans-Serif" font-size="10.00">Main.start</text>
</a>
</g>
</g>
<!-- Node18&#45;&gt;Node19 -->
<g id="edge18" class="edge"><title>Node18&#45;&gt;Node19</title>
<path fill="none" stroke="midnightblue" d="M3138.39,-89.1283C3147.63,-89.1283 3156.55,-89.1283 3164.5,-89.1283"/>
<polygon fill="midnightblue" stroke="midnightblue" points="3138.27,-85.6284 3128.27,-89.1283 3138.27,-92.6284 3138.27,-85.6284"/>
</g>
<!-- Node20&#45;&gt;Node18 -->
<g id="edge20" class="edge"><title>Node20&#45;&gt;Node18</title>
<path fill="none" stroke="midnightblue" d="M2747.47,-71.6929C2814.6,-75.5494 2910.08,-81.0335 2975.94,-84.8165"/>
<polygon fill="midnightblue" stroke="midnightblue" points="2747.54,-68.1916 2737.36,-71.1123 2747.14,-75.1801 2747.54,-68.1916"/>
</g>
<!-- Node21&#45;&gt;Node10 -->
<g id="edge22" class="edge"><title>Node21&#45;&gt;Node10</title>
<path fill="none" stroke="midnightblue" d="M1850.2,-135.376C1874.52,-130.003 1902.95,-123.72 1925.91,-118.648"/>
<polygon fill="midnightblue" stroke="midnightblue" points="1849.41,-131.964 1840.4,-137.539 1850.92,-138.8 1849.41,-131.964"/>
</g>
<!-- Node22&#45;&gt;Node23 -->
<g id="edge27" class="edge"><title>Node22&#45;&gt;Node23</title>
<path fill="none" stroke="midnightblue" d="M1192.6,-219.625C1201.04,-218.624 1209.6,-217.607 1217.91,-216.621"/>
<polygon fill="midnightblue" stroke="midnightblue" points="1191.92,-216.182 1182.4,-220.837 1192.75,-223.133 1191.92,-216.182"/>
</g>
<!-- Node23&#45;&gt;Node8 -->
<g id="edge28" class="edge"><title>Node23&#45;&gt;Node8</title>
<path fill="none" stroke="midnightblue" d="M1348.21,-197.805C1363.75,-195.106 1380.18,-192.253 1395.2,-189.645"/>
<polygon fill="midnightblue" stroke="midnightblue" points="1347.4,-194.393 1338.14,-199.552 1348.6,-201.29 1347.4,-194.393"/>
</g>
<!-- Node24&#45;&gt;Node8 -->
<g id="edge32" class="edge"><title>Node24&#45;&gt;Node8</title>
<path fill="none" stroke="midnightblue" d="M1023.48,-299.342C1069.49,-295.516 1129.56,-288.951 1182,-278.128 1256.63,-262.726 1274.8,-255.269 1346,-228.128 1376.47,-216.513 1410.58,-200.08 1431.17,-189.77"/>
<polygon fill="midnightblue" stroke="midnightblue" points="1022.97,-295.871 1013.29,-300.164 1023.54,-302.848 1022.97,-295.871"/>
</g>
<!-- Node24&#45;&gt;Node9 -->
<g id="edge33" class="edge"><title>Node24&#45;&gt;Node9</title>
<path fill="none" stroke="midnightblue" d="M1023.18,-307.109C1069.09,-307.98 1129.15,-307.361 1182,-301.128 1337.83,-282.751 1376.9,-263.494 1520,-199.128 1549.51,-185.855 1582.49,-167.608 1601.68,-156.632"/>
<polygon fill="midnightblue" stroke="midnightblue" points="1023.09,-303.607 1013.02,-306.888 1022.94,-310.605 1023.09,-303.607"/>
</g>
<!-- Node24&#45;&gt;Node10 -->
<g id="edge34" class="edge"><title>Node24&#45;&gt;Node10</title>
<path fill="none" stroke="midnightblue" d="M1009.76,-317.144C1014.01,-318.897 1018.14,-320.882 1022,-323.128 1041.83,-334.665 1038.17,-348.593 1058,-360.128 1146.53,-411.614 1178.59,-418.128 1281,-418.128 1281,-418.128 1281,-418.128 1620,-418.128 1805.32,-418.128 1938.36,-170.871 1964.36,-118.715"/>
<polygon fill="midnightblue" stroke="midnightblue" points="1010.88,-313.83 1000.29,-313.664 1008.47,-320.4 1010.88,-313.83"/>
</g>
<!-- Node24&#45;&gt;Node21 -->
<g id="edge36" class="edge"><title>Node24&#45;&gt;Node21</title>
<path fill="none" stroke="midnightblue" d="M996.259,-316.182C1081.02,-337.615 1252.7,-380.128 1281,-380.128 1281,-380.128 1281,-380.128 1452,-380.128 1613.61,-380.128 1755.56,-200.94 1788.04,-156.843"/>
<polygon fill="midnightblue" stroke="midnightblue" points="996.923,-312.739 986.37,-313.677 995.204,-319.525 996.923,-312.739"/>
</g>
<!-- Node24&#45;&gt;Node22 -->
<g id="edge35" class="edge"><title>Node24&#45;&gt;Node22</title>
<path fill="none" stroke="midnightblue" d="M977.161,-290.023C999.024,-279.237 1030.19,-264.213 1058,-252.128 1069.59,-247.093 1082.59,-241.912 1093.61,-237.659"/>
<polygon fill="midnightblue" stroke="midnightblue" points="975.513,-286.933 968.108,-294.51 978.622,-293.205 975.513,-286.933"/>
</g>
<!-- Node24&#45;&gt;Node23 -->
<g id="edge37" class="edge"><title>Node24&#45;&gt;Node23</title>
<path fill="none" stroke="midnightblue" d="M1005.25,-292.464C1052.78,-282.109 1122.45,-265.76 1182,-247.128 1208.71,-238.773 1238.6,-226.943 1258.48,-218.71"/>
<polygon fill="midnightblue" stroke="midnightblue" points="1004.49,-289.048 995.452,-294.581 1005.97,-295.89 1004.49,-289.048"/>
</g>
</g>
</svg>
