<?xml version="1.0" encoding="UTF-8" standalone="no"?>
<!DOCTYPE svg PUBLIC "-//W3C//DTD SVG 1.1//EN"
 "http://www.w3.org/Graphics/SVG/1.1/DTD/svg11.dtd">
<!-- Generated by graphviz version 2.36.0 (20140111.2315)
 -->
<!-- Title: parser.LogoParserTokenManager.jjMoveNfa_0 Pages: 1 -->
<svg width="844pt" height="263pt"
 viewBox="0.00 0.00 844.00 263.00" xmlns="http://www.w3.org/2000/svg" xmlns:xlink="http://www.w3.org/1999/xlink">
<g id="graph0" class="graph" transform="scale(1 1) rotate(0) translate(4 259)">
<title>parser.LogoParserTokenManager.jjMoveNfa_0</title>
<polygon fill="white" stroke="none" points="-4,4 -4,-259 840,-259 840,4 -4,4"/>
<!-- Node1 -->
<g id="node1" class="node"><title>Node1</title>
<polygon fill="#bfbfbf" stroke="black" points="0.5,-112 0.5,-142 179.5,-142 179.5,-112 0.5,-112"/>
<text text-anchor="start" x="8.5" y="-130" font-family="Helvetica,sans-Serif" font-size="10.00">parser.LogoParserTokenManager.jj</text>
<text text-anchor="middle" x="90" y="-119" font-family="Helvetica,sans-Serif" font-size="10.00">MoveNfa_0</text>
</g>
<!-- Node2 -->
<g id="node2" class="node"><title>Node2</title>
<g id="a_node2"><a xlink:href="../../d0/d8c/classparser_1_1_logo_parser_token_manager.html#ad31cdd6db411f95b045686c2053f42fa" target="_top" xlink:title="parser.LogoParserTokenManager.jj\lAddStates">
<polygon fill="white" stroke="black" points="220.5,-225 220.5,-255 399.5,-255 399.5,-225 220.5,-225"/>
<text text-anchor="start" x="228.5" y="-243" font-family="Helvetica,sans-Serif" font-size="10.00">parser.LogoParserTokenManager.jj</text>
<text text-anchor="middle" x="310" y="-232" font-family="Helvetica,sans-Serif" font-size="10.00">AddStates</text>
</a>
</g>
</g>
<!-- Node1&#45;&gt;Node2 -->
<g id="edge1" class="edge"><title>Node1&#45;&gt;Node2</title>
<path fill="none" stroke="midnightblue" d="M110.336,-142.298C134.074,-160.481 176.107,-190.774 216,-210 224.94,-214.309 234.651,-218.215 244.313,-221.677"/>
<polygon fill="midnightblue" stroke="midnightblue" points="243.334,-225.042 253.929,-224.99 245.615,-218.424 243.334,-225.042"/>
</g>
<!-- Node3 -->
<g id="node3" class="node"><title>Node3</title>
<g id="a_node3"><a xlink:href="../../d0/d8c/classparser_1_1_logo_parser_token_manager.html#af1b1635a624926faf7741958cc140de4" target="_top" xlink:title="parser.LogoParserTokenManager.jj\lCheckNAdd">
<polygon fill="white" stroke="black" points="440.5,-137 440.5,-167 619.5,-167 619.5,-137 440.5,-137"/>
<text text-anchor="start" x="448.5" y="-155" font-family="Helvetica,sans-Serif" font-size="10.00">parser.LogoParserTokenManager.jj</text>
<text text-anchor="middle" x="530" y="-144" font-family="Helvetica,sans-Serif" font-size="10.00">CheckNAdd</text>
</a>
</g>
</g>
<!-- Node1&#45;&gt;Node3 -->
<g id="edge2" class="edge"><title>Node1&#45;&gt;Node3</title>
<path fill="none" stroke="midnightblue" d="M120.372,-142.144C145.127,-154.009 181.873,-169.55 216,-176 296.061,-191.131 389.36,-180.404 453.13,-168.861"/>
<polygon fill="midnightblue" stroke="midnightblue" points="453.914,-172.275 463.105,-167.005 452.633,-165.393 453.914,-172.275"/>
</g>
<!-- Node4 -->
<g id="node4" class="node"><title>Node4</title>
<g id="a_node4"><a xlink:href="../../d0/d8c/classparser_1_1_logo_parser_token_manager.html#ac4047538420e7ceceec16698b354cd62" target="_top" xlink:title="parser.LogoParserTokenManager.jj\lCheckNAddStates">
<polygon fill="white" stroke="black" points="220.5,-137 220.5,-167 399.5,-167 399.5,-137 220.5,-137"/>
<text text-anchor="start" x="228.5" y="-155" font-family="Helvetica,sans-Serif" font-size="10.00">parser.LogoParserTokenManager.jj</text>
<text text-anchor="middle" x="310" y="-144" font-family="Helvetica,sans-Serif" font-size="10.00">CheckNAddStates</text>
</a>
</g>
</g>
<!-- Node1&#45;&gt;Node4 -->
<g id="edge3" class="edge"><title>Node1&#45;&gt;Node4</title>
<path fill="none" stroke="midnightblue" d="M179.669,-137.168C189.748,-138.324 200.067,-139.508 210.265,-140.677"/>
<polygon fill="midnightblue" stroke="midnightblue" points="210.076,-144.178 220.41,-141.841 210.874,-137.224 210.076,-144.178"/>
</g>
<!-- Node5 -->
<g id="node5" class="node"><title>Node5</title>
<g id="a_node5"><a xlink:href="../../d0/d8c/classparser_1_1_logo_parser_token_manager.html#a8f9adc17a4a9b201128786ca145783e8" target="_top" xlink:title="parser.LogoParserTokenManager.jj\lCheckNAddTwoStates">
<polygon fill="white" stroke="black" points="220.5,-88 220.5,-118 399.5,-118 399.5,-88 220.5,-88"/>
<text text-anchor="start" x="228.5" y="-106" font-family="Helvetica,sans-Serif" font-size="10.00">parser.LogoParserTokenManager.jj</text>
<text text-anchor="middle" x="310" y="-95" font-family="Helvetica,sans-Serif" font-size="10.00">CheckNAddTwoStates</text>
</a>
</g>
</g>
<!-- Node1&#45;&gt;Node5 -->
<g id="edge5" class="edge"><title>Node1&#45;&gt;Node5</title>
<path fill="none" stroke="midnightblue" d="M179.669,-117.238C189.748,-116.129 200.067,-114.993 210.265,-113.87"/>
<polygon fill="midnightblue" stroke="midnightblue" points="210.853,-117.326 220.41,-112.753 210.087,-110.368 210.853,-117.326"/>
</g>
<!-- Node6 -->
<g id="node6" class="node"><title>Node6</title>
<g id="a_node6"><a xlink:href="../../d4/dad/classparser_1_1_simple_char_stream.html#a9f80cee02b99e8e200afa646e3b25e29" target="_top" xlink:title="parser.SimpleCharStream.readChar">
<polygon fill="white" stroke="black" points="216,-49.5 216,-68.5 404,-68.5 404,-49.5 216,-49.5"/>
<text text-anchor="middle" x="310" y="-56.5" font-family="Helvetica,sans-Serif" font-size="10.00">parser.SimpleCharStream.readChar</text>
</a>
</g>
</g>
<!-- Node1&#45;&gt;Node6 -->
<g id="edge7" class="edge"><title>Node1&#45;&gt;Node6</title>
<path fill="none" stroke="midnightblue" d="M124.668,-111.975C149.518,-101.338 184.372,-87.3543 216,-78 225.031,-75.329 234.664,-72.9037 244.181,-70.7475"/>
<polygon fill="midnightblue" stroke="midnightblue" points="245.003,-74.1507 254.027,-68.5989 243.51,-67.3116 245.003,-74.1507"/>
</g>
<!-- Node11 -->
<g id="node11" class="node"><title>Node11</title>
<g id="a_node11"><a xlink:href="../../d0/d8c/classparser_1_1_logo_parser_token_manager.html#a5923cb696d0a55f99661625200327816" target="_top" xlink:title="parser.LogoParserTokenManager.\lReInitRounds">
<polygon fill="white" stroke="black" points="223,-0 223,-30 397,-30 397,-0 223,-0"/>
<text text-anchor="start" x="231" y="-18" font-family="Helvetica,sans-Serif" font-size="10.00">parser.LogoParserTokenManager.</text>
<text text-anchor="middle" x="310" y="-7" font-family="Helvetica,sans-Serif" font-size="10.00">ReInitRounds</text>
</a>
</g>
</g>
<!-- Node1&#45;&gt;Node11 -->
<g id="edge12" class="edge"><title>Node1&#45;&gt;Node11</title>
<path fill="none" stroke="midnightblue" d="M108.419,-111.911C131.529,-92.6205 174.285,-59.4009 216,-40 221.244,-37.561 226.77,-35.3246 232.404,-33.2807"/>
<polygon fill="midnightblue" stroke="midnightblue" points="233.625,-36.5623 241.959,-30.0208 231.365,-29.9373 233.625,-36.5623"/>
</g>
<!-- Node4&#45;&gt;Node3 -->
<g id="edge4" class="edge"><title>Node4&#45;&gt;Node3</title>
<path fill="none" stroke="midnightblue" d="M399.669,-152C409.748,-152 420.067,-152 430.265,-152"/>
<polygon fill="midnightblue" stroke="midnightblue" points="430.41,-155.5 440.41,-152 430.41,-148.5 430.41,-155.5"/>
</g>
<!-- Node5&#45;&gt;Node3 -->
<g id="edge6" class="edge"><title>Node5&#45;&gt;Node3</title>
<path fill="none" stroke="midnightblue" d="M377.889,-118.035C401.43,-123.326 428.067,-129.313 452.349,-134.771"/>
<polygon fill="midnightblue" stroke="midnightblue" points="451.714,-138.216 462.238,-136.994 453.249,-131.386 451.714,-138.216"/>
</g>
<!-- Node7 -->
<g id="node7" class="node"><title>Node7</title>
<g id="a_node7"><a xlink:href="../../d4/dad/classparser_1_1_simple_char_stream.html#aac1dcd2a238adbc951d3af740cc2aa13" target="_top" xlink:title="parser.SimpleCharStream.\lFillBuff">
<polygon fill="white" stroke="black" points="458,-66 458,-96 602,-96 602,-66 458,-66"/>
<text text-anchor="start" x="466" y="-84" font-family="Helvetica,sans-Serif" font-size="10.00">parser.SimpleCharStream.</text>
<text text-anchor="middle" x="530" y="-73" font-family="Helvetica,sans-Serif" font-size="10.00">FillBuff</text>
</a>
</g>
</g>
<!-- Node6&#45;&gt;Node7 -->
<g id="edge8" class="edge"><title>Node6&#45;&gt;Node7</title>
<path fill="none" stroke="midnightblue" d="M404.084,-68.3938C418.611,-69.8598 433.524,-71.3648 447.76,-72.8014"/>
<polygon fill="midnightblue" stroke="midnightblue" points="447.69,-76.3121 457.991,-73.8339 448.393,-69.3475 447.69,-76.3121"/>
</g>
<!-- Node10 -->
<g id="node10" class="node"><title>Node10</title>
<g id="a_node10"><a xlink:href="../../d4/dad/classparser_1_1_simple_char_stream.html#ad8ca3472934b9d38c005c8885d859403" target="_top" xlink:title="parser.SimpleCharStream.\lUpdateLineColumn">
<polygon fill="white" stroke="black" points="458,-17 458,-47 602,-47 602,-17 458,-17"/>
<text text-anchor="start" x="466" y="-35" font-family="Helvetica,sans-Serif" font-size="10.00">parser.SimpleCharStream.</text>
<text text-anchor="middle" x="530" y="-24" font-family="Helvetica,sans-Serif" font-size="10.00">UpdateLineColumn</text>
</a>
</g>
</g>
<!-- Node6&#45;&gt;Node10 -->
<g id="edge11" class="edge"><title>Node6&#45;&gt;Node10</title>
<path fill="none" stroke="midnightblue" d="M387.859,-49.4808C407.275,-47.076 428.186,-44.4862 447.808,-42.0559"/>
<polygon fill="midnightblue" stroke="midnightblue" points="448.443,-45.5041 457.937,-40.8014 447.582,-38.5572 448.443,-45.5041"/>
</g>
<!-- Node8 -->
<g id="node8" class="node"><title>Node8</title>
<g id="a_node8"><a xlink:href="../../d4/dad/classparser_1_1_simple_char_stream.html#a5328cda7180ed2a180eac8af133517cf" target="_top" xlink:title="parser.SimpleCharStream.\lExpandBuff">
<polygon fill="white" stroke="black" points="674,-88 674,-118 818,-118 818,-88 674,-88"/>
<text text-anchor="start" x="682" y="-106" font-family="Helvetica,sans-Serif" font-size="10.00">parser.SimpleCharStream.</text>
<text text-anchor="middle" x="746" y="-95" font-family="Helvetica,sans-Serif" font-size="10.00">ExpandBuff</text>
</a>
</g>
</g>
<!-- Node7&#45;&gt;Node8 -->
<g id="edge9" class="edge"><title>Node7&#45;&gt;Node8</title>
<path fill="none" stroke="midnightblue" d="M602.259,-88.3257C621.918,-90.3467 643.395,-92.5546 663.582,-94.6299"/>
<polygon fill="midnightblue" stroke="midnightblue" points="663.382,-98.1277 673.688,-95.6688 664.098,-91.1644 663.382,-98.1277"/>
</g>
<!-- Node9 -->
<g id="node9" class="node"><title>Node9</title>
<g id="a_node9"><a xlink:href="../../d4/dad/classparser_1_1_simple_char_stream.html#a4eacb833520fdfdb1b18be45bc3bd4ba" target="_top" xlink:title="parser.SimpleCharStream.backup">
<polygon fill="white" stroke="black" points="656.5,-49.5 656.5,-68.5 835.5,-68.5 835.5,-49.5 656.5,-49.5"/>
<text text-anchor="middle" x="746" y="-56.5" font-family="Helvetica,sans-Serif" font-size="10.00">parser.SimpleCharStream.backup</text>
</a>
</g>
</g>
<!-- Node7&#45;&gt;Node9 -->
<g id="edge10" class="edge"><title>Node7&#45;&gt;Node9</title>
<path fill="none" stroke="midnightblue" d="M602.259,-73.6743C616.287,-72.2322 631.241,-70.6948 645.992,-69.1784"/>
<polygon fill="midnightblue" stroke="midnightblue" points="646.567,-72.6378 656.157,-68.1334 645.852,-65.6745 646.567,-72.6378"/>
</g>
</g>
</svg>
