<?xml version="1.0" encoding="UTF-8" standalone="no"?>
<!DOCTYPE svg PUBLIC "-//W3C//DTD SVG 1.1//EN"
 "http://www.w3.org/Graphics/SVG/1.1/DTD/svg11.dtd">
<!-- Generated by graphviz version 2.36.0 (20140111.2315)
 -->
<!-- Title: parser.LogoParserTokenManager.ReInitRounds Pages: 1 -->
<!--zoomable 680 -->
<svg id="main" version="1.1" xmlns="http://www.w3.org/2000/svg" xmlns:xlink="http://www.w3.org/1999/xlink" xml:space="preserve" onload="init(evt)">
<style type="text/css"><![CDATA[
.edge:hover path { stroke: red; }
.edge:hover polygon { stroke: red; fill: red; }
]]></style>
<script type="text/javascript"><![CDATA[
var edges = document.getElementsByTagName('g');
if (edges && edges.length) {
  for (var i=0;i<edges.length;i++) {
    if (edges[i].id.substr(0,4)=='edge') {
      edges[i].setAttribute('class','edge');
    }
  }
}
]]></script>
        <defs>
                <circle id="rim" cx="0" cy="0" r="7"/>
                <circle id="rim2" cx="0" cy="0" r="3.5"/>
                <g id="zoomPlus">
                        <use xlink:href="#rim" fill="#404040">
                                <set attributeName="fill" to="#808080" begin="zoomplus.mouseover" end="zoomplus.mouseout"/>
                        </use>
                        <path d="M-4,0h8M0,-4v8" fill="none" stroke="white" stroke-width="1.5" pointer-events="none"/>
                </g>
                <g id="zoomMin">
                        <use xlink:href="#rim" fill="#404040">
                                <set attributeName="fill" to="#808080" begin="zoomminus.mouseover" end="zoomminus.mouseout"/>
                        </use>
                        <path d="M-4,0h8" fill="none" stroke="white" stroke-width="1.5" pointer-events="none"/>
                </g>
                <g id="dirArrow">
                        <path fill="none" stroke="white" stroke-width="1.5" d="M0,-3.0v7 M-2.5,-0.5L0,-3.0L2.5,-0.5"/>
                </g>
               <g id="resetDef">
                       <use xlink:href="#rim2" fill="#404040">
                               <set attributeName="fill" to="#808080" begin="reset.mouseover" end="reset.mouseout"/>
                       </use>
               </g>
        </defs>

<script type="text/javascript">
var viewWidth = 4744;
var viewHeight = 680;
var sectionId = 'dynsection-38';
</script>
<script xlink:href="../../svgpan.js"/>
<svg id="graph" class="graph">
<g id="viewport">
<title>parser.LogoParserTokenManager.ReInitRounds</title>
<polygon fill="white" stroke="none" points="-4,4 -4,-676.128 4740,-676.128 4740,4 -4,4"/>
<!-- Node1 -->
<g id="node1" class="node"><title>Node1</title>
<polygon fill="#bfbfbf" stroke="black" points="0,-234.128 0,-264.128 174,-264.128 174,-234.128 0,-234.128"/>
<text text-anchor="start" x="8" y="-252.128" font-family="Helvetica,sans-Serif" font-size="10.00">parser.LogoParserTokenManager.</text>
<text text-anchor="middle" x="87" y="-241.128" font-family="Helvetica,sans-Serif" font-size="10.00">ReInitRounds</text>
</g>
<!-- Node2 -->
<g id="node2" class="node"><title>Node2</title>
<g id="a_node2"><a xlink:href="../../d0/d8c/classparser_1_1_logo_parser_token_manager.html#a0071f141b41b403c8ab151c8c014a709" target="_top" xlink:title="parser.LogoParserTokenManager.jj\lMoveNfa_0">
<polygon fill="white" stroke="black" points="210.5,-286.128 210.5,-316.128 389.5,-316.128 389.5,-286.128 210.5,-286.128"/>
<text text-anchor="start" x="218.5" y="-304.128" font-family="Helvetica,sans-Serif" font-size="10.00">parser.LogoParserTokenManager.jj</text>
<text text-anchor="middle" x="300" y="-293.128" font-family="Helvetica,sans-Serif" font-size="10.00">MoveNfa_0</text>
</a>
</g>
</g>
<!-- Node1&#45;&gt;Node2 -->
<g id="edge1" class="edge"><title>Node1&#45;&gt;Node2</title>
<path fill="none" stroke="midnightblue" d="M159.066,-266.642C184.713,-272.963 213.409,-280.035 238.107,-286.122"/>
<polygon fill="midnightblue" stroke="midnightblue" points="159.577,-263.163 149.03,-264.169 157.902,-269.96 159.577,-263.163"/>
</g>
<!-- Node33 -->
<g id="node33" class="node"><title>Node33</title>
<g id="a_node33"><a xlink:href="../../d0/d8c/classparser_1_1_logo_parser_token_manager.html#a27d2bf5d91d27141ec3923c89284e1bc" target="_top" xlink:title="parser.LogoParserTokenManager.\lReInit">
<polygon fill="white" stroke="black" points="213,-183.128 213,-213.128 387,-213.128 387,-183.128 213,-183.128"/>
<text text-anchor="start" x="221" y="-201.128" font-family="Helvetica,sans-Serif" font-size="10.00">parser.LogoParserTokenManager.</text>
<text text-anchor="middle" x="300" y="-190.128" font-family="Helvetica,sans-Serif" font-size="10.00">ReInit</text>
</a>
</g>
</g>
<!-- Node1&#45;&gt;Node33 -->
<g id="edge58" class="edge"><title>Node1&#45;&gt;Node33</title>
<path fill="none" stroke="midnightblue" d="M159.96,-231.735C184.965,-225.691 212.776,-218.969 236.914,-213.135"/>
<polygon fill="midnightblue" stroke="midnightblue" points="159.064,-228.351 150.166,-234.102 160.708,-235.155 159.064,-228.351"/>
</g>
<!-- Node3 -->
<g id="node3" class="node"><title>Node3</title>
<g id="a_node3"><a xlink:href="../../d0/d8c/classparser_1_1_logo_parser_token_manager.html#a2b55f093fc0200c57a099eba2d9b37e2" target="_top" xlink:title="parser.LogoParserTokenManager.jj\lMoveStringLiteralDfa0_0">
<polygon fill="white" stroke="black" points="1938.5,-308.128 1938.5,-338.128 2117.5,-338.128 2117.5,-308.128 1938.5,-308.128"/>
<text text-anchor="start" x="1946.5" y="-326.128" font-family="Helvetica,sans-Serif" font-size="10.00">parser.LogoParserTokenManager.jj</text>
<text text-anchor="middle" x="2028" y="-315.128" font-family="Helvetica,sans-Serif" font-size="10.00">MoveStringLiteralDfa0_0</text>
</a>
</g>
</g>
<!-- Node2&#45;&gt;Node3 -->
<g id="edge2" class="edge"><title>Node2&#45;&gt;Node3</title>
<path fill="none" stroke="midnightblue" d="M378.293,-284.053C464.032,-266.629 606.693,-242.128 731,-242.128 731,-242.128 731,-242.128 1597,-242.128 1737.92,-242.128 1900.39,-284.658 1979.19,-308.083"/>
<polygon fill="midnightblue" stroke="midnightblue" points="377.473,-280.648 368.381,-286.087 378.88,-287.505 377.473,-280.648"/>
</g>
<!-- Node25 -->
<g id="node25" class="node"><title>Node25</title>
<g id="a_node25"><a xlink:href="../../d0/d8c/classparser_1_1_logo_parser_token_manager.html#aa065c8b0c977d3c1c9d9058f96664080" target="_top" xlink:title="parser.LogoParserTokenManager.jj\lStartNfa_0">
<polygon fill="white" stroke="black" points="426.5,-341.128 426.5,-371.128 605.5,-371.128 605.5,-341.128 426.5,-341.128"/>
<text text-anchor="start" x="434.5" y="-359.128" font-family="Helvetica,sans-Serif" font-size="10.00">parser.LogoParserTokenManager.jj</text>
<text text-anchor="middle" x="516" y="-348.128" font-family="Helvetica,sans-Serif" font-size="10.00">StartNfa_0</text>
</a>
</g>
</g>
<!-- Node2&#45;&gt;Node25 -->
<g id="edge38" class="edge"><title>Node2&#45;&gt;Node25</title>
<path fill="none" stroke="midnightblue" d="M369.233,-318.665C397.348,-325.891 429.592,-334.178 456.594,-341.117"/>
<polygon fill="midnightblue" stroke="midnightblue" points="370.033,-315.257 359.476,-316.157 368.29,-322.036 370.033,-315.257"/>
</g>
<!-- Node32 -->
<g id="node32" class="node"><title>Node32</title>
<g id="a_node32"><a xlink:href="../../d0/d8c/classparser_1_1_logo_parser_token_manager.html#a94b20a17d94554012918e876be221c46" target="_top" xlink:title="parser.LogoParserTokenManager.jj\lStartNfaWithStates_0">
<polygon fill="white" stroke="black" points="426.5,-543.128 426.5,-573.128 605.5,-573.128 605.5,-543.128 426.5,-543.128"/>
<text text-anchor="start" x="434.5" y="-561.128" font-family="Helvetica,sans-Serif" font-size="10.00">parser.LogoParserTokenManager.jj</text>
<text text-anchor="middle" x="516" y="-550.128" font-family="Helvetica,sans-Serif" font-size="10.00">StartNfaWithStates_0</text>
</a>
</g>
</g>
<!-- Node2&#45;&gt;Node32 -->
<g id="edge51" class="edge"><title>Node2&#45;&gt;Node32</title>
<path fill="none" stroke="midnightblue" d="M320.367,-324.387C363.47,-376.15 466.349,-499.702 502.321,-542.902"/>
<polygon fill="midnightblue" stroke="midnightblue" points="322.834,-321.88 313.746,-316.435 317.455,-326.359 322.834,-321.88"/>
</g>
<!-- Node4 -->
<g id="node4" class="node"><title>Node4</title>
<g id="a_node4"><a xlink:href="../../d0/d8c/classparser_1_1_logo_parser_token_manager.html#a3dee50e2286b70ba662519a865e63b77" target="_top" xlink:title="parser.LogoParserTokenManager.get\lNextToken">
<polygon fill="white" stroke="black" points="2154,-308.128 2154,-338.128 2344,-338.128 2344,-308.128 2154,-308.128"/>
<text text-anchor="start" x="2162" y="-326.128" font-family="Helvetica,sans-Serif" font-size="10.00">parser.LogoParserTokenManager.get</text>
<text text-anchor="middle" x="2249" y="-315.128" font-family="Helvetica,sans-Serif" font-size="10.00">NextToken</text>
</a>
</g>
</g>
<!-- Node3&#45;&gt;Node4 -->
<g id="edge3" class="edge"><title>Node3&#45;&gt;Node4</title>
<path fill="none" stroke="midnightblue" d="M2127.83,-323.128C2136.46,-323.128 2145.17,-323.128 2153.76,-323.128"/>
<polygon fill="midnightblue" stroke="midnightblue" points="2127.76,-319.628 2117.76,-323.128 2127.76,-326.628 2127.76,-319.628"/>
</g>
<!-- Node5 -->
<g id="node5" class="node"><title>Node5</title>
<g id="a_node5"><a xlink:href="../../d5/d0e/classparser_1_1_logo_parser.html#a7477b52c4469ea43d75f88fb805e37a1" target="_top" xlink:title="parser.LogoParser.getNext\lToken">
<polygon fill="white" stroke="black" points="2382.5,-371.128 2382.5,-401.128 2525.5,-401.128 2525.5,-371.128 2382.5,-371.128"/>
<text text-anchor="start" x="2390.5" y="-389.128" font-family="Helvetica,sans-Serif" font-size="10.00">parser.LogoParser.getNext</text>
<text text-anchor="middle" x="2454" y="-378.128" font-family="Helvetica,sans-Serif" font-size="10.00">Token</text>
</a>
</g>
</g>
<!-- Node4&#45;&gt;Node5 -->
<g id="edge4" class="edge"><title>Node4&#45;&gt;Node5</title>
<path fill="none" stroke="midnightblue" d="M2308.04,-341.142C2338.61,-350.629 2375.66,-362.127 2404.65,-371.124"/>
<polygon fill="midnightblue" stroke="midnightblue" points="2308.95,-337.76 2298.37,-338.138 2306.88,-344.445 2308.95,-337.76"/>
</g>
<!-- Node6 -->
<g id="node6" class="node"><title>Node6</title>
<g id="a_node6"><a xlink:href="../../d5/d0e/classparser_1_1_logo_parser.html#a63b7890a7d6323bcf938132f968e8157" target="_top" xlink:title="parser.LogoParser.getToken">
<polygon fill="white" stroke="black" points="2380,-332.628 2380,-351.628 2528,-351.628 2528,-332.628 2380,-332.628"/>
<text text-anchor="middle" x="2454" y="-339.628" font-family="Helvetica,sans-Serif" font-size="10.00">parser.LogoParser.getToken</text>
</a>
</g>
</g>
<!-- Node4&#45;&gt;Node6 -->
<g id="edge5" class="edge"><title>Node4&#45;&gt;Node6</title>
<path fill="none" stroke="midnightblue" d="M2354.24,-332.885C2362.91,-333.696 2371.54,-334.504 2379.9,-335.287"/>
<polygon fill="midnightblue" stroke="midnightblue" points="2354.35,-329.38 2344.07,-331.933 2353.7,-336.35 2354.35,-329.38"/>
</g>
<!-- Node7 -->
<g id="node7" class="node"><title>Node7</title>
<g id="a_node7"><a xlink:href="../../d5/d0e/classparser_1_1_logo_parser.html#a550039a3180ec86ef01f419aefc02edc" target="_top" xlink:title="parser.LogoParser.jj\l_consume_token">
<polygon fill="white" stroke="black" points="2399,-118.128 2399,-148.128 2509,-148.128 2509,-118.128 2399,-118.128"/>
<text text-anchor="start" x="2407" y="-136.128" font-family="Helvetica,sans-Serif" font-size="10.00">parser.LogoParser.jj</text>
<text text-anchor="middle" x="2454" y="-125.128" font-family="Helvetica,sans-Serif" font-size="10.00">_consume_token</text>
</a>
</g>
</g>
<!-- Node4&#45;&gt;Node7 -->
<g id="edge6" class="edge"><title>Node4&#45;&gt;Node7</title>
<path fill="none" stroke="midnightblue" d="M2273.79,-300.864C2315.63,-261.703 2401.33,-181.49 2436.94,-148.164"/>
<polygon fill="midnightblue" stroke="midnightblue" points="2271.18,-298.512 2266.27,-307.901 2275.96,-303.623 2271.18,-298.512"/>
</g>
<!-- Node24 -->
<g id="node24" class="node"><title>Node24</title>
<g id="a_node24"><a xlink:href="../../d5/d0e/classparser_1_1_logo_parser.html#a2e48e3ab2c1c075beca7bcc54d891afd" target="_top" xlink:title="parser.LogoParser.jj_ntk">
<polygon fill="white" stroke="black" points="2389,-294.628 2389,-313.628 2519,-313.628 2519,-294.628 2389,-294.628"/>
<text text-anchor="middle" x="2454" y="-301.628" font-family="Helvetica,sans-Serif" font-size="10.00">parser.LogoParser.jj_ntk</text>
</a>
</g>
</g>
<!-- Node4&#45;&gt;Node24 -->
<g id="edge31" class="edge"><title>Node4&#45;&gt;Node24</title>
<path fill="none" stroke="midnightblue" d="M2354.38,-313.359C2366.12,-312.26 2377.8,-311.167 2388.81,-310.137"/>
<polygon fill="midnightblue" stroke="midnightblue" points="2353.7,-309.907 2344.07,-314.324 2354.35,-316.876 2353.7,-309.907"/>
</g>
<!-- Node8 -->
<g id="node8" class="node"><title>Node8</title>
<g id="a_node8"><a xlink:href="../../d5/d0e/classparser_1_1_logo_parser.html#a82acce8328e52f3b2bcb90542cc800b7" target="_top" xlink:title="parser.LogoParser.arithm">
<polygon fill="white" stroke="black" points="2888.5,-170.628 2888.5,-189.628 3025.5,-189.628 3025.5,-170.628 2888.5,-170.628"/>
<text text-anchor="middle" x="2957" y="-177.628" font-family="Helvetica,sans-Serif" font-size="10.00">parser.LogoParser.arithm</text>
</a>
</g>
</g>
<!-- Node7&#45;&gt;Node8 -->
<g id="edge7" class="edge"><title>Node7&#45;&gt;Node8</title>
<path fill="none" stroke="midnightblue" d="M2519.14,-139.145C2614.08,-148.052 2791.24,-164.672 2888.23,-173.771"/>
<polygon fill="midnightblue" stroke="midnightblue" points="2519.38,-135.652 2509.09,-138.203 2518.72,-142.622 2519.38,-135.652"/>
</g>
<!-- Node9 -->
<g id="node9" class="node"><title>Node9</title>
<g id="a_node9"><a xlink:href="../../d5/d0e/classparser_1_1_logo_parser.html#a397c25c39976e5a1fb689e1f0dd40160" target="_top" xlink:title="parser.LogoParser.eval">
<polygon fill="white" stroke="black" points="3062.5,-137.628 3062.5,-156.628 3187.5,-156.628 3187.5,-137.628 3062.5,-137.628"/>
<text text-anchor="middle" x="3125" y="-144.628" font-family="Helvetica,sans-Serif" font-size="10.00">parser.LogoParser.eval</text>
</a>
</g>
</g>
<!-- Node7&#45;&gt;Node9 -->
<g id="edge23" class="edge"><title>Node7&#45;&gt;Node9</title>
<path fill="none" stroke="midnightblue" d="M2519.27,-134.473C2647.9,-137.165 2935.46,-143.183 3062.1,-145.833"/>
<polygon fill="midnightblue" stroke="midnightblue" points="2519.25,-130.972 2509.18,-134.262 2519.1,-137.971 2519.25,-130.972"/>
</g>
<!-- Node10 -->
<g id="node10" class="node"><title>Node10</title>
<g id="a_node10"><a xlink:href="../../d5/d0e/classparser_1_1_logo_parser.html#a6b0ba0c2b5b0bc8c2ef76863fffdb6a3" target="_top" xlink:title="parser.LogoParser.list">
<polygon fill="white" stroke="black" points="3416.5,-99.6283 3416.5,-118.628 3535.5,-118.628 3535.5,-99.6283 3416.5,-99.6283"/>
<text text-anchor="middle" x="3476" y="-106.628" font-family="Helvetica,sans-Serif" font-size="10.00">parser.LogoParser.list</text>
</a>
</g>
</g>
<!-- Node7&#45;&gt;Node10 -->
<g id="edge25" class="edge"><title>Node7&#45;&gt;Node10</title>
<path fill="none" stroke="midnightblue" d="M2489.87,-113.211C2510.79,-102.026 2538.24,-88.6456 2564,-80.1283 2659.75,-48.4635 2686.15,-38.1283 2787,-38.1283 2787,-38.1283 2787,-38.1283 3126,-38.1283 3247.81,-38.1283 3388.82,-80.173 3447.34,-99.5529"/>
<polygon fill="midnightblue" stroke="midnightblue" points="2488.16,-110.159 2481.04,-118.009 2491.5,-116.309 2488.16,-110.159"/>
</g>
<!-- Node11 -->
<g id="node11" class="node"><title>Node11</title>
<g id="a_node11"><a xlink:href="../../d5/d0e/classparser_1_1_logo_parser.html#a4a8825534e0488215d22bcd947bc4d41" target="_top" xlink:title="parser.LogoParser.expression">
<polygon fill="white" stroke="black" points="3572.5,-26.6283 3572.5,-45.6283 3729.5,-45.6283 3729.5,-26.6283 3572.5,-26.6283"/>
<text text-anchor="middle" x="3651" y="-33.6283" font-family="Helvetica,sans-Serif" font-size="10.00">parser.LogoParser.expression</text>
</a>
</g>
</g>
<!-- Node7&#45;&gt;Node11 -->
<g id="edge24" class="edge"><title>Node7&#45;&gt;Node11</title>
<path fill="none" stroke="midnightblue" d="M2474.93,-110.568C2495.17,-89.1803 2528.51,-57.9001 2564,-41.1283 2655.11,1.92439 2686.23,-0.128293 2787,-0.128293 2787,-0.128293 2787,-0.128293 3303,-0.128293 3405.81,-0.128293 3524.85,-15.9569 3593.39,-26.6226"/>
<polygon fill="midnightblue" stroke="midnightblue" points="2472.32,-108.241 2468.09,-117.955 2477.45,-112.998 2472.32,-108.241"/>
</g>
<!-- Node21 -->
<g id="node21" class="node"><title>Node21</title>
<g id="a_node21"><a xlink:href="../../d5/d0e/classparser_1_1_logo_parser.html#ad6ed8e51959a6e19a2323444aa8331c8" target="_top" xlink:title="parser.LogoParser.statement">
<polygon fill="white" stroke="black" points="3224.5,-137.628 3224.5,-156.628 3379.5,-156.628 3379.5,-137.628 3224.5,-137.628"/>
<text text-anchor="middle" x="3302" y="-144.628" font-family="Helvetica,sans-Serif" font-size="10.00">parser.LogoParser.statement</text>
</a>
</g>
</g>
<!-- Node7&#45;&gt;Node21 -->
<g id="edge29" class="edge"><title>Node7&#45;&gt;Node21</title>
<path fill="none" stroke="midnightblue" d="M2518.76,-115.549C2585.19,-98.8025 2692.57,-76.1283 2787,-76.1283 2787,-76.1283 2787,-76.1283 2958,-76.1283 3077.8,-76.1283 3216.34,-118.173 3273.83,-137.553"/>
<polygon fill="midnightblue" stroke="midnightblue" points="2517.68,-112.212 2508.86,-118.078 2519.41,-118.994 2517.68,-112.212"/>
</g>
<!-- Node22 -->
<g id="node22" class="node"><title>Node22</title>
<g id="a_node22"><a xlink:href="../../d5/d0e/classparser_1_1_logo_parser.html#a4bdaeff6df067fde6743ff07370c3b0b" target="_top" xlink:title="parser.LogoParser.pow">
<polygon fill="white" stroke="black" points="2564,-218.628 2564,-237.628 2688,-237.628 2688,-218.628 2564,-218.628"/>
<text text-anchor="middle" x="2626" y="-225.628" font-family="Helvetica,sans-Serif" font-size="10.00">parser.LogoParser.pow</text>
</a>
</g>
</g>
<!-- Node7&#45;&gt;Node22 -->
<g id="edge26" class="edge"><title>Node7&#45;&gt;Node22</title>
<path fill="none" stroke="midnightblue" d="M2483.86,-154.242C2505.29,-169.334 2535.6,-189.482 2564,-204.128 2574.52,-209.553 2586.56,-214.531 2597.15,-218.53"/>
<polygon fill="midnightblue" stroke="midnightblue" points="2485.72,-151.266 2475.54,-148.319 2481.66,-156.969 2485.72,-151.266"/>
</g>
<!-- Node23 -->
<g id="node23" class="node"><title>Node23</title>
<g id="a_node23"><a xlink:href="../../d5/d0e/classparser_1_1_logo_parser.html#a34f4226672a2711ce2691162fdb2124d" target="_top" xlink:title="parser.LogoParser.term">
<polygon fill="white" stroke="black" points="2724,-199.628 2724,-218.628 2852,-218.628 2852,-199.628 2724,-199.628"/>
<text text-anchor="middle" x="2788" y="-206.628" font-family="Helvetica,sans-Serif" font-size="10.00">parser.LogoParser.term</text>
</a>
</g>
</g>
<!-- Node7&#45;&gt;Node23 -->
<g id="edge30" class="edge"><title>Node7&#45;&gt;Node23</title>
<path fill="none" stroke="midnightblue" d="M2510.64,-151.185C2527.66,-156.381 2546.51,-161.807 2564,-166.128 2619.5,-179.842 2683.67,-191.816 2728.89,-199.621"/>
<polygon fill="midnightblue" stroke="midnightblue" points="2511.44,-147.768 2500.85,-148.162 2509.37,-154.457 2511.44,-147.768"/>
</g>
<!-- Node8&#45;&gt;Node9 -->
<g id="edge8" class="edge"><title>Node8&#45;&gt;Node9</title>
<path fill="none" stroke="midnightblue" d="M3016.06,-168.586C3035.68,-164.686 3057.35,-160.378 3076.09,-156.652"/>
<polygon fill="midnightblue" stroke="midnightblue" points="3015.14,-165.201 3006.01,-170.583 3016.5,-172.066 3015.14,-165.201"/>
</g>
<!-- Node9&#45;&gt;Node10 -->
<g id="edge9" class="edge"><title>Node9&#45;&gt;Node10</title>
<path fill="none" stroke="midnightblue" d="M3179.06,-135.677C3193.58,-132.863 3209.35,-130.097 3224,-128.128 3289.62,-119.314 3365.48,-114.278 3416.47,-111.635"/>
<polygon fill="midnightblue" stroke="midnightblue" points="3178.37,-132.246 3169.24,-137.624 3179.73,-139.112 3178.37,-132.246"/>
</g>
<!-- Node9&#45;&gt;Node21 -->
<g id="edge21" class="edge"><title>Node9&#45;&gt;Node21</title>
<path fill="none" stroke="midnightblue" d="M3197.8,-147.128C3206.51,-147.128 3215.44,-147.128 3224.22,-147.128"/>
<polygon fill="midnightblue" stroke="midnightblue" points="3197.7,-143.628 3187.7,-147.128 3197.7,-150.628 3197.7,-143.628"/>
</g>
<!-- Node10&#45;&gt;Node11 -->
<g id="edge10" class="edge"><title>Node10&#45;&gt;Node11</title>
<path fill="none" stroke="midnightblue" d="M3509.2,-95.5422C3543.58,-81.0317 3597.2,-58.4088 3627.38,-45.6741"/>
<polygon fill="midnightblue" stroke="midnightblue" points="3507.47,-92.4724 3499.62,-99.5848 3510.19,-98.9217 3507.47,-92.4724"/>
</g>
<!-- Node12 -->
<g id="node12" class="node"><title>Node12</title>
<g id="a_node12"><a xlink:href="../../d5/d0e/classparser_1_1_logo_parser.html#adefe3b97ad0d2d7fd0dcd13f7ef2c75e" target="_top" xlink:title="parser.LogoParser.parse">
<polygon fill="white" stroke="black" points="3585,-99.6283 3585,-118.628 3717,-118.628 3717,-99.6283 3585,-99.6283"/>
<text text-anchor="middle" x="3651" y="-106.628" font-family="Helvetica,sans-Serif" font-size="10.00">parser.LogoParser.parse</text>
</a>
</g>
</g>
<!-- Node10&#45;&gt;Node12 -->
<g id="edge11" class="edge"><title>Node10&#45;&gt;Node12</title>
<path fill="none" stroke="midnightblue" d="M3545.78,-109.128C3558.7,-109.128 3572.16,-109.128 3584.95,-109.128"/>
<polygon fill="midnightblue" stroke="midnightblue" points="3545.57,-105.628 3535.57,-109.128 3545.57,-112.628 3545.57,-105.628"/>
</g>
<!-- Node13 -->
<g id="node13" class="node"><title>Node13</title>
<g id="a_node13"><a xlink:href="../../d6/d95/classparser_1_1_parser.html#af3d0cef45b9f02f1707959c08d8f3797" target="_top" xlink:title="parser.Parser.parse">
<polygon fill="white" stroke="black" points="3766.5,-99.6283 3766.5,-118.628 3875.5,-118.628 3875.5,-99.6283 3766.5,-99.6283"/>
<text text-anchor="middle" x="3821" y="-106.628" font-family="Helvetica,sans-Serif" font-size="10.00">parser.Parser.parse</text>
</a>
</g>
</g>
<!-- Node12&#45;&gt;Node13 -->
<g id="edge12" class="edge"><title>Node12&#45;&gt;Node13</title>
<path fill="none" stroke="midnightblue" d="M3727.8,-109.128C3740.83,-109.128 3754.12,-109.128 3766.41,-109.128"/>
<polygon fill="midnightblue" stroke="midnightblue" points="3727.43,-105.628 3717.43,-109.128 3727.43,-112.628 3727.43,-105.628"/>
</g>
<!-- Node14 -->
<g id="node14" class="node"><title>Node14</title>
<g id="a_node14"><a xlink:href="../../d4/d06/classinput_1_1_input_executor.html#a687a9f2cbed5d27a2c7b1336a1cab8aa" target="_top" xlink:title="input.InputExecutor.process\lInput">
<polygon fill="white" stroke="black" points="3912.5,-138.128 3912.5,-168.128 4061.5,-168.128 4061.5,-138.128 3912.5,-138.128"/>
<text text-anchor="start" x="3920.5" y="-156.128" font-family="Helvetica,sans-Serif" font-size="10.00">input.InputExecutor.process</text>
<text text-anchor="middle" x="3987" y="-145.128" font-family="Helvetica,sans-Serif" font-size="10.00">Input</text>
</a>
</g>
</g>
<!-- Node13&#45;&gt;Node14 -->
<g id="edge13" class="edge"><title>Node13&#45;&gt;Node14</title>
<path fill="none" stroke="midnightblue" d="M3867.36,-121.297C3886.7,-126.486 3909.46,-132.593 3929.85,-138.063"/>
<polygon fill="midnightblue" stroke="midnightblue" points="3868.15,-117.887 3857.59,-118.676 3866.34,-124.647 3868.15,-117.887"/>
</g>
<!-- Node15 -->
<g id="node15" class="node"><title>Node15</title>
<g id="a_node15"><a xlink:href="../../d6/d95/classparser_1_1_parser.html#ae90f8410be9931ec3f349085c8fdae71" target="_top" xlink:title="parser.Parser.parseFile">
<polygon fill="white" stroke="black" points="3925,-99.6283 3925,-118.628 4049,-118.628 4049,-99.6283 3925,-99.6283"/>
<text text-anchor="middle" x="3987" y="-106.628" font-family="Helvetica,sans-Serif" font-size="10.00">parser.Parser.parseFile</text>
</a>
</g>
</g>
<!-- Node13&#45;&gt;Node15 -->
<g id="edge14" class="edge"><title>Node13&#45;&gt;Node15</title>
<path fill="none" stroke="midnightblue" d="M3885.82,-109.128C3898.63,-109.128 3912.06,-109.128 3924.79,-109.128"/>
<polygon fill="midnightblue" stroke="midnightblue" points="3885.7,-105.628 3875.7,-109.128 3885.7,-112.628 3885.7,-105.628"/>
</g>
<!-- Node20 -->
<g id="node20" class="node"><title>Node20</title>
<g id="a_node20"><a xlink:href="../../d5/d56/class_workspace.html#a0ed8fb487512971086b6f3ed0d74e4ae" target="_top" xlink:title="Workspace.sendUserInput">
<polygon fill="white" stroke="black" points="4103,-57.6283 4103,-76.6283 4243,-76.6283 4243,-57.6283 4103,-57.6283"/>
<text text-anchor="middle" x="4173" y="-64.6283" font-family="Helvetica,sans-Serif" font-size="10.00">Workspace.sendUserInput</text>
</a>
</g>
</g>
<!-- Node13&#45;&gt;Node20 -->
<g id="edge19" class="edge"><title>Node13&#45;&gt;Node20</title>
<path fill="none" stroke="midnightblue" d="M3872.23,-97.4126C3885.14,-94.7092 3899.04,-92.0626 3912,-90.1283 3976.31,-80.5301 4050.22,-74.4655 4102.76,-70.9889"/>
<polygon fill="midnightblue" stroke="midnightblue" points="3871.18,-94.0595 3862.14,-99.5804 3872.65,-100.904 3871.18,-94.0595"/>
</g>
<!-- Node16 -->
<g id="node16" class="node"><title>Node16</title>
<g id="a_node16"><a xlink:href="../../d9/de8/class_file_chooser_feature.html#ad742b8e9d07e8151f0a9ff1972867ce8" target="_top" xlink:title="FileChooserFeature.openFile\lChooser">
<polygon fill="white" stroke="black" points="4098.5,-96.1283 4098.5,-126.128 4247.5,-126.128 4247.5,-96.1283 4098.5,-96.1283"/>
<text text-anchor="start" x="4106.5" y="-114.128" font-family="Helvetica,sans-Serif" font-size="10.00">FileChooserFeature.openFile</text>
<text text-anchor="middle" x="4173" y="-103.128" font-family="Helvetica,sans-Serif" font-size="10.00">Chooser</text>
</a>
</g>
</g>
<!-- Node15&#45;&gt;Node16 -->
<g id="edge15" class="edge"><title>Node15&#45;&gt;Node16</title>
<path fill="none" stroke="midnightblue" d="M4059.17,-109.902C4072.02,-110.042 4085.44,-110.187 4098.35,-110.328"/>
<polygon fill="midnightblue" stroke="midnightblue" points="4059.05,-106.4 4049.01,-109.791 4058.98,-113.4 4059.05,-106.4"/>
</g>
<!-- Node17 -->
<g id="node17" class="node"><title>Node17</title>
<g id="a_node17"><a xlink:href="../../d5/d56/class_workspace.html#a6babd032d9af86fbc23812272d59a2d2" target="_top" xlink:title="Workspace.addFeatureButtons">
<polygon fill="white" stroke="black" points="4284,-99.6283 4284,-118.628 4446,-118.628 4446,-99.6283 4284,-99.6283"/>
<text text-anchor="middle" x="4365" y="-106.628" font-family="Helvetica,sans-Serif" font-size="10.00">Workspace.addFeatureButtons</text>
</a>
</g>
</g>
<!-- Node16&#45;&gt;Node17 -->
<g id="edge16" class="edge"><title>Node16&#45;&gt;Node17</title>
<path fill="none" stroke="midnightblue" d="M4257.77,-110.247C4266.38,-110.156 4275.12,-110.064 4283.7,-109.974"/>
<polygon fill="midnightblue" stroke="midnightblue" points="4257.69,-106.747 4247.73,-110.352 4257.77,-113.747 4257.69,-106.747"/>
</g>
<!-- Node18 -->
<g id="node18" class="node"><title>Node18</title>
<g id="a_node18"><a xlink:href="../../d5/d56/class_workspace.html#a429d535dfd8427637b7715f0b1e1df1b" target="_top" xlink:title="Workspace.createWorkspace">
<polygon fill="white" stroke="black" points="4482,-79.6283 4482,-98.6283 4634,-98.6283 4634,-79.6283 4482,-79.6283"/>
<text text-anchor="middle" x="4558" y="-86.6283" font-family="Helvetica,sans-Serif" font-size="10.00">Workspace.createWorkspace</text>
</a>
</g>
</g>
<!-- Node17&#45;&gt;Node18 -->
<g id="edge17" class="edge"><title>Node17&#45;&gt;Node18</title>
<path fill="none" stroke="midnightblue" d="M4456.22,-99.6809C4464.82,-98.7804 4473.48,-97.874 4481.91,-96.9909"/>
<polygon fill="midnightblue" stroke="midnightblue" points="4455.75,-96.2109 4446.17,-100.733 4456.48,-103.173 4455.75,-96.2109"/>
</g>
<!-- Node19 -->
<g id="node19" class="node"><title>Node19</title>
<g id="a_node19"><a xlink:href="../../d0/d4b/class_main.html#aaa75b38812324d0f17c89f139bde6ada" target="_top" xlink:title="Main.start">
<polygon fill="white" stroke="black" points="4670.5,-79.6283 4670.5,-98.6283 4735.5,-98.6283 4735.5,-79.6283 4670.5,-79.6283"/>
<text text-anchor="middle" x="4703" y="-86.6283" font-family="Helvetica,sans-Serif" font-size="10.00">Main.start</text>
</a>
</g>
</g>
<!-- Node18&#45;&gt;Node19 -->
<g id="edge18" class="edge"><title>Node18&#45;&gt;Node19</title>
<path fill="none" stroke="midnightblue" d="M4644.39,-89.1283C4653.63,-89.1283 4662.55,-89.1283 4670.5,-89.1283"/>
<polygon fill="midnightblue" stroke="midnightblue" points="4644.27,-85.6284 4634.27,-89.1283 4644.27,-92.6284 4644.27,-85.6284"/>
</g>
<!-- Node20&#45;&gt;Node18 -->
<g id="edge20" class="edge"><title>Node20&#45;&gt;Node18</title>
<path fill="none" stroke="midnightblue" d="M4253.47,-71.6929C4320.6,-75.5494 4416.08,-81.0335 4481.94,-84.8165"/>
<polygon fill="midnightblue" stroke="midnightblue" points="4253.54,-68.1916 4243.36,-71.1123 4253.14,-75.1801 4253.54,-68.1916"/>
</g>
<!-- Node21&#45;&gt;Node10 -->
<g id="edge22" class="edge"><title>Node21&#45;&gt;Node10</title>
<path fill="none" stroke="midnightblue" d="M3356.2,-135.376C3380.52,-130.003 3408.95,-123.72 3431.91,-118.648"/>
<polygon fill="midnightblue" stroke="midnightblue" points="3355.41,-131.964 3346.4,-137.539 3356.92,-138.8 3355.41,-131.964"/>
</g>
<!-- Node22&#45;&gt;Node23 -->
<g id="edge27" class="edge"><title>Node22&#45;&gt;Node23</title>
<path fill="none" stroke="midnightblue" d="M2698.6,-219.625C2707.04,-218.624 2715.6,-217.607 2723.91,-216.621"/>
<polygon fill="midnightblue" stroke="midnightblue" points="2697.92,-216.182 2688.4,-220.837 2698.75,-223.133 2697.92,-216.182"/>
</g>
<!-- Node23&#45;&gt;Node8 -->
<g id="edge28" class="edge"><title>Node23&#45;&gt;Node8</title>
<path fill="none" stroke="midnightblue" d="M2854.21,-197.805C2869.75,-195.106 2886.18,-192.253 2901.2,-189.645"/>
<polygon fill="midnightblue" stroke="midnightblue" points="2853.4,-194.393 2844.14,-199.552 2854.6,-201.29 2853.4,-194.393"/>
</g>
<!-- Node24&#45;&gt;Node8 -->
<g id="edge32" class="edge"><title>Node24&#45;&gt;Node8</title>
<path fill="none" stroke="midnightblue" d="M2529.48,-299.342C2575.49,-295.516 2635.56,-288.951 2688,-278.128 2762.63,-262.726 2780.8,-255.269 2852,-228.128 2882.47,-216.513 2916.58,-200.08 2937.17,-189.77"/>
<polygon fill="midnightblue" stroke="midnightblue" points="2528.97,-295.871 2519.29,-300.164 2529.54,-302.848 2528.97,-295.871"/>
</g>
<!-- Node24&#45;&gt;Node9 -->
<g id="edge33" class="edge"><title>Node24&#45;&gt;Node9</title>
<path fill="none" stroke="midnightblue" d="M2529.18,-307.109C2575.09,-307.98 2635.15,-307.361 2688,-301.128 2843.83,-282.751 2882.9,-263.494 3026,-199.128 3055.51,-185.855 3088.49,-167.608 3107.68,-156.632"/>
<polygon fill="midnightblue" stroke="midnightblue" points="2529.09,-303.607 2519.02,-306.888 2528.94,-310.605 2529.09,-303.607"/>
</g>
<!-- Node24&#45;&gt;Node10 -->
<g id="edge34" class="edge"><title>Node24&#45;&gt;Node10</title>
<path fill="none" stroke="midnightblue" d="M2516.34,-317.318C2520.39,-319.028 2524.32,-320.955 2528,-323.128 2548.03,-334.96 2543.94,-349.341 2564,-361.128 2652.19,-412.961 2684.7,-418.128 2787,-418.128 2787,-418.128 2787,-418.128 3126,-418.128 3311.32,-418.128 3444.36,-170.871 3470.36,-118.715"/>
<polygon fill="midnightblue" stroke="midnightblue" points="2517.31,-313.944 2506.72,-313.712 2514.86,-320.499 2517.31,-313.944"/>
</g>
<!-- Node24&#45;&gt;Node21 -->
<g id="edge36" class="edge"><title>Node24&#45;&gt;Node21</title>
<path fill="none" stroke="midnightblue" d="M2502.26,-316.182C2587.02,-337.615 2758.7,-380.128 2787,-380.128 2787,-380.128 2787,-380.128 2958,-380.128 3119.61,-380.128 3261.56,-200.94 3294.04,-156.843"/>
<polygon fill="midnightblue" stroke="midnightblue" points="2502.92,-312.739 2492.37,-313.677 2501.2,-319.525 2502.92,-312.739"/>
</g>
<!-- Node24&#45;&gt;Node22 -->
<g id="edge35" class="edge"><title>Node24&#45;&gt;Node22</title>
<path fill="none" stroke="midnightblue" d="M2483.16,-290.023C2505.02,-279.237 2536.19,-264.213 2564,-252.128 2575.59,-247.093 2588.59,-241.912 2599.61,-237.659"/>
<polygon fill="midnightblue" stroke="midnightblue" points="2481.51,-286.933 2474.11,-294.51 2484.62,-293.205 2481.51,-286.933"/>
</g>
<!-- Node24&#45;&gt;Node23 -->
<g id="edge37" class="edge"><title>Node24&#45;&gt;Node23</title>
<path fill="none" stroke="midnightblue" d="M2511.25,-292.464C2558.78,-282.109 2628.45,-265.76 2688,-247.128 2714.71,-238.773 2744.6,-226.943 2764.48,-218.71"/>
<polygon fill="midnightblue" stroke="midnightblue" points="2510.49,-289.048 2501.45,-294.581 2511.97,-295.89 2510.49,-289.048"/>
</g>
<!-- Node26 -->
<g id="node26" class="node"><title>Node26</title>
<g id="a_node26"><a xlink:href="../../d0/d8c/classparser_1_1_logo_parser_token_manager.html#a99a01f0b68908e628349e9f09a2cbccd" target="_top" xlink:title="parser.LogoParserTokenManager.jj\lMoveStringLiteralDfa1_0">
<polygon fill="white" stroke="black" points="1722.5,-308.128 1722.5,-338.128 1901.5,-338.128 1901.5,-308.128 1722.5,-308.128"/>
<text text-anchor="start" x="1730.5" y="-326.128" font-family="Helvetica,sans-Serif" font-size="10.00">parser.LogoParserTokenManager.jj</text>
<text text-anchor="middle" x="1812" y="-315.128" font-family="Helvetica,sans-Serif" font-size="10.00">MoveStringLiteralDfa1_0</text>
</a>
</g>
</g>
<!-- Node25&#45;&gt;Node26 -->
<g id="edge39" class="edge"><title>Node25&#45;&gt;Node26</title>
<path fill="none" stroke="midnightblue" d="M571.134,-338.04C592.948,-331.294 618.473,-324.081 642,-319.128 775.728,-290.977 810.341,-280.128 947,-280.128 947,-280.128 947,-280.128 1381,-280.128 1499.54,-280.128 1635.55,-296.508 1722.32,-309.048"/>
<polygon fill="midnightblue" stroke="midnightblue" points="569.886,-334.763 561.392,-341.096 571.982,-341.442 569.886,-334.763"/>
</g>
<!-- Node27 -->
<g id="node27" class="node"><title>Node27</title>
<g id="a_node27"><a xlink:href="../../d0/d8c/classparser_1_1_logo_parser_token_manager.html#a26eaeb3ef169f93c03edbb3e26128b7a" target="_top" xlink:title="parser.LogoParserTokenManager.jj\lMoveStringLiteralDfa2_0">
<polygon fill="white" stroke="black" points="1506.5,-345.128 1506.5,-375.128 1685.5,-375.128 1685.5,-345.128 1506.5,-345.128"/>
<text text-anchor="start" x="1514.5" y="-363.128" font-family="Helvetica,sans-Serif" font-size="10.00">parser.LogoParserTokenManager.jj</text>
<text text-anchor="middle" x="1596" y="-352.128" font-family="Helvetica,sans-Serif" font-size="10.00">MoveStringLiteralDfa2_0</text>
</a>
</g>
</g>
<!-- Node25&#45;&gt;Node27 -->
<g id="edge41" class="edge"><title>Node25&#45;&gt;Node27</title>
<path fill="none" stroke="midnightblue" d="M615.869,-342.406C702.883,-331.522 833.099,-318.128 947,-318.128 947,-318.128 947,-318.128 1165,-318.128 1283.51,-318.128 1419.53,-334.127 1506.3,-346.376"/>
<polygon fill="midnightblue" stroke="midnightblue" points="615.223,-338.959 605.74,-343.686 616.1,-345.904 615.223,-338.959"/>
</g>
<!-- Node28 -->
<g id="node28" class="node"><title>Node28</title>
<g id="a_node28"><a xlink:href="../../d0/d8c/classparser_1_1_logo_parser_token_manager.html#a12bfedaecfaf646642cb1aba5b1bd6fb" target="_top" xlink:title="parser.LogoParserTokenManager.jj\lMoveStringLiteralDfa3_0">
<polygon fill="white" stroke="black" points="1290.5,-381.128 1290.5,-411.128 1469.5,-411.128 1469.5,-381.128 1290.5,-381.128"/>
<text text-anchor="start" x="1298.5" y="-399.128" font-family="Helvetica,sans-Serif" font-size="10.00">parser.LogoParserTokenManager.jj</text>
<text text-anchor="middle" x="1380" y="-388.128" font-family="Helvetica,sans-Serif" font-size="10.00">MoveStringLiteralDfa3_0</text>
</a>
</g>
</g>
<!-- Node25&#45;&gt;Node28 -->
<g id="edge43" class="edge"><title>Node25&#45;&gt;Node28</title>
<path fill="none" stroke="midnightblue" d="M615.927,-360.65C675.612,-363.383 753.175,-366.942 822,-370.128 987.362,-377.783 1180.33,-386.812 1290.25,-391.964"/>
<polygon fill="midnightblue" stroke="midnightblue" points="615.903,-357.145 605.753,-360.184 615.583,-364.138 615.903,-357.145"/>
</g>
<!-- Node29 -->
<g id="node29" class="node"><title>Node29</title>
<g id="a_node29"><a xlink:href="../../d0/d8c/classparser_1_1_logo_parser_token_manager.html#aa9aaf3af52d382735345487d2b89e0cf" target="_top" xlink:title="parser.LogoParserTokenManager.jj\lMoveStringLiteralDfa4_0">
<polygon fill="white" stroke="black" points="1074.5,-414.128 1074.5,-444.128 1253.5,-444.128 1253.5,-414.128 1074.5,-414.128"/>
<text text-anchor="start" x="1082.5" y="-432.128" font-family="Helvetica,sans-Serif" font-size="10.00">parser.LogoParserTokenManager.jj</text>
<text text-anchor="middle" x="1164" y="-421.128" font-family="Helvetica,sans-Serif" font-size="10.00">MoveStringLiteralDfa4_0</text>
</a>
</g>
</g>
<!-- Node25&#45;&gt;Node29 -->
<g id="edge45" class="edge"><title>Node25&#45;&gt;Node29</title>
<path fill="none" stroke="midnightblue" d="M615.768,-367.289C740.821,-381.421 954.395,-405.555 1074.41,-419.117"/>
<polygon fill="midnightblue" stroke="midnightblue" points="616.137,-363.809 605.807,-366.164 615.351,-370.765 616.137,-363.809"/>
</g>
<!-- Node30 -->
<g id="node30" class="node"><title>Node30</title>
<g id="a_node30"><a xlink:href="../../d0/d8c/classparser_1_1_logo_parser_token_manager.html#a4553920ced069b9d4852f1c1020bea38" target="_top" xlink:title="parser.LogoParserTokenManager.jj\lMoveStringLiteralDfa5_0">
<polygon fill="white" stroke="black" points="858.5,-442.128 858.5,-472.128 1037.5,-472.128 1037.5,-442.128 858.5,-442.128"/>
<text text-anchor="start" x="866.5" y="-460.128" font-family="Helvetica,sans-Serif" font-size="10.00">parser.LogoParserTokenManager.jj</text>
<text text-anchor="middle" x="948" y="-449.128" font-family="Helvetica,sans-Serif" font-size="10.00">MoveStringLiteralDfa5_0</text>
</a>
</g>
</g>
<!-- Node25&#45;&gt;Node30 -->
<g id="edge47" class="edge"><title>Node25&#45;&gt;Node30</title>
<path fill="none" stroke="midnightblue" d="M556.801,-375.509C580.943,-386.547 612.658,-399.794 642,-408.128 713.452,-428.424 796.863,-441.101 858.38,-448.463"/>
<polygon fill="midnightblue" stroke="midnightblue" points="558.154,-372.279 547.61,-371.247 555.209,-378.629 558.154,-372.279"/>
</g>
<!-- Node31 -->
<g id="node31" class="node"><title>Node31</title>
<g id="a_node31"><a xlink:href="../../d0/d8c/classparser_1_1_logo_parser_token_manager.html#a1bad232a9ce95d19e7133cbee0b538b5" target="_top" xlink:title="parser.LogoParserTokenManager.jj\lMoveStringLiteralDfa6_0">
<polygon fill="white" stroke="black" points="642.5,-461.128 642.5,-491.128 821.5,-491.128 821.5,-461.128 642.5,-461.128"/>
<text text-anchor="start" x="650.5" y="-479.128" font-family="Helvetica,sans-Serif" font-size="10.00">parser.LogoParserTokenManager.jj</text>
<text text-anchor="middle" x="732" y="-468.128" font-family="Helvetica,sans-Serif" font-size="10.00">MoveStringLiteralDfa6_0</text>
</a>
</g>
</g>
<!-- Node25&#45;&gt;Node31 -->
<g id="edge49" class="edge"><title>Node25&#45;&gt;Node31</title>
<path fill="none" stroke="midnightblue" d="M542.498,-378.007C566.766,-397.947 604.977,-427.109 642,-446.128 653.168,-451.866 665.669,-456.866 677.692,-461.053"/>
<polygon fill="midnightblue" stroke="midnightblue" points="544.446,-375.075 534.52,-371.37 539.969,-380.456 544.446,-375.075"/>
</g>
<!-- Node26&#45;&gt;Node3 -->
<g id="edge40" class="edge"><title>Node26&#45;&gt;Node3</title>
<path fill="none" stroke="midnightblue" d="M1911.65,-323.128C1920.6,-323.128 1929.62,-323.128 1938.48,-323.128"/>
<polygon fill="midnightblue" stroke="midnightblue" points="1911.59,-319.628 1901.59,-323.128 1911.59,-326.628 1911.59,-319.628"/>
</g>
<!-- Node27&#45;&gt;Node26 -->
<g id="edge42" class="edge"><title>Node27&#45;&gt;Node26</title>
<path fill="none" stroke="midnightblue" d="M1694,-343.357C1704.01,-341.626 1714.14,-339.875 1724.04,-338.164"/>
<polygon fill="midnightblue" stroke="midnightblue" points="1693.3,-339.926 1684.04,-345.079 1694.49,-346.824 1693.3,-339.926"/>
</g>
<!-- Node28&#45;&gt;Node27 -->
<g id="edge44" class="edge"><title>Node28&#45;&gt;Node27</title>
<path fill="none" stroke="midnightblue" d="M1479.65,-379.534C1488.6,-378.028 1497.62,-376.509 1506.48,-375.02"/>
<polygon fill="midnightblue" stroke="midnightblue" points="1478.87,-376.115 1469.59,-381.226 1480.03,-383.018 1478.87,-376.115"/>
</g>
<!-- Node29&#45;&gt;Node28 -->
<g id="edge46" class="edge"><title>Node29&#45;&gt;Node28</title>
<path fill="none" stroke="midnightblue" d="M1263.65,-413.917C1272.6,-412.536 1281.62,-411.144 1290.48,-409.779"/>
<polygon fill="midnightblue" stroke="midnightblue" points="1262.94,-410.484 1253.59,-415.468 1264,-417.403 1262.94,-410.484"/>
</g>
<!-- Node30&#45;&gt;Node29 -->
<g id="edge48" class="edge"><title>Node30&#45;&gt;Node29</title>
<path fill="none" stroke="midnightblue" d="M1047.65,-444.221C1056.6,-443.05 1065.62,-441.869 1074.48,-440.71"/>
<polygon fill="midnightblue" stroke="midnightblue" points="1047.05,-440.77 1037.59,-445.538 1047.96,-447.71 1047.05,-440.77"/>
</g>
<!-- Node31&#45;&gt;Node30 -->
<g id="edge50" class="edge"><title>Node31&#45;&gt;Node30</title>
<path fill="none" stroke="midnightblue" d="M831.645,-467.37C840.596,-466.575 849.625,-465.774 858.48,-464.988"/>
<polygon fill="midnightblue" stroke="midnightblue" points="831.238,-463.892 821.587,-468.263 831.857,-470.865 831.238,-463.892"/>
</g>
<!-- Node32&#45;&gt;Node3 -->
<g id="edge52" class="edge"><title>Node32&#45;&gt;Node3</title>
<path fill="none" stroke="midnightblue" d="M548.443,-578.484C572.969,-593.415 608.4,-612.958 642,-624.128 772.217,-667.418 809.776,-672.128 947,-672.128 947,-672.128 947,-672.128 1597,-672.128 1811.89,-672.128 1979.31,-406.117 2018.36,-338.575"/>
<polygon fill="midnightblue" stroke="midnightblue" points="550.27,-575.499 539.924,-573.216 546.588,-581.453 550.27,-575.499"/>
</g>
<!-- Node32&#45;&gt;Node27 -->
<g id="edge53" class="edge"><title>Node32&#45;&gt;Node27</title>
<path fill="none" stroke="midnightblue" d="M577.851,-575.812C660.625,-598.267 813.687,-634.128 947,-634.128 947,-634.128 947,-634.128 1165,-634.128 1359.3,-634.128 1536.53,-432.691 1583.12,-375.25"/>
<polygon fill="midnightblue" stroke="midnightblue" points="578.681,-572.41 568.112,-573.143 576.831,-579.162 578.681,-572.41"/>
</g>
<!-- Node32&#45;&gt;Node28 -->
<g id="edge54" class="edge"><title>Node32&#45;&gt;Node28</title>
<path fill="none" stroke="midnightblue" d="M615.807,-562.177C675.608,-563.541 753.333,-563.391 822,-557.128 1018.67,-539.191 1069.18,-522.71 1254,-453.128 1287.15,-440.649 1323.9,-423.468 1348.92,-411.238"/>
<polygon fill="midnightblue" stroke="midnightblue" points="615.697,-558.673 605.613,-561.926 615.524,-565.671 615.697,-558.673"/>
</g>
<!-- Node32&#45;&gt;Node29 -->
<g id="edge55" class="edge"><title>Node32&#45;&gt;Node29</title>
<path fill="none" stroke="midnightblue" d="M615.739,-553.906C675.677,-550.384 753.566,-544.103 822,-533.128 919.497,-517.493 944.123,-511.742 1038,-481.128 1070.29,-470.598 1105.95,-455.388 1130.89,-444.136"/>
<polygon fill="midnightblue" stroke="midnightblue" points="615.307,-550.425 605.523,-554.49 615.706,-557.414 615.307,-550.425"/>
</g>
<!-- Node32&#45;&gt;Node30 -->
<g id="edge56" class="edge"><title>Node32&#45;&gt;Node30</title>
<path fill="none" stroke="midnightblue" d="M615.384,-543.103C675.539,-533.008 753.778,-518.249 822,-500.128 851.278,-492.352 883.597,-481.162 908.036,-472.147"/>
<polygon fill="midnightblue" stroke="midnightblue" points="614.801,-539.652 605.511,-544.746 615.95,-546.557 614.801,-539.652"/>
</g>
<!-- Node32&#45;&gt;Node31 -->
<g id="edge57" class="edge"><title>Node32&#45;&gt;Node31</title>
<path fill="none" stroke="midnightblue" d="M560.967,-538.965C584.79,-528.804 614.833,-516.344 642,-506.128 655.583,-501.021 670.479,-495.838 684.133,-491.251"/>
<polygon fill="midnightblue" stroke="midnightblue" points="559.311,-535.867 551.498,-543.023 562.068,-542.301 559.311,-535.867"/>
</g>
<!-- Node34 -->
<g id="node34" class="node"><title>Node34</title>
<g id="a_node34"><a xlink:href="../../d5/d0e/classparser_1_1_logo_parser.html#ad67ba6e3a9b52b58bf08ea2ff3617c0b" target="_top" xlink:title="parser.LogoParser.ReInit">
<polygon fill="white" stroke="black" points="450.5,-144.628 450.5,-163.628 581.5,-163.628 581.5,-144.628 450.5,-144.628"/>
<text text-anchor="middle" x="516" y="-151.628" font-family="Helvetica,sans-Serif" font-size="10.00">parser.LogoParser.ReInit</text>
</a>
</g>
</g>
<!-- Node33&#45;&gt;Node34 -->
<g id="edge59" class="edge"><title>Node33&#45;&gt;Node34</title>
<path fill="none" stroke="midnightblue" d="M384.101,-181.042C412.849,-175.131 444.023,-168.722 468.735,-163.641"/>
<polygon fill="midnightblue" stroke="midnightblue" points="383.138,-177.667 374.048,-183.109 384.548,-184.523 383.138,-177.667"/>
</g>
<!-- Node35 -->
<g id="node35" class="node"><title>Node35</title>
<g id="a_node35"><a xlink:href="../../d0/d8c/classparser_1_1_logo_parser_token_manager.html#aa93f80cf1b3b2423102d17bced08c48b" target="_top" xlink:title="parser.LogoParserTokenManager.\lReInit">
<polygon fill="white" stroke="black" points="429,-183.128 429,-213.128 603,-213.128 603,-183.128 429,-183.128"/>
<text text-anchor="start" x="437" y="-201.128" font-family="Helvetica,sans-Serif" font-size="10.00">parser.LogoParserTokenManager.</text>
<text text-anchor="middle" x="516" y="-190.128" font-family="Helvetica,sans-Serif" font-size="10.00">ReInit</text>
</a>
</g>
</g>
<!-- Node33&#45;&gt;Node35 -->
<g id="edge60" class="edge"><title>Node33&#45;&gt;Node35</title>
<path fill="none" stroke="midnightblue" d="M397.145,-198.128C407.663,-198.128 418.322,-198.128 428.711,-198.128"/>
<polygon fill="midnightblue" stroke="midnightblue" points="397.117,-194.628 387.117,-198.128 397.117,-201.628 397.117,-194.628"/>
</g>
</g>
</svg>
        <g id="navigator" transform="translate(0 0)" fill="#404254">
                <rect fill="#f2f5e9" fill-opacity="0.5" stroke="#606060" stroke-width=".5" x="0" y="0" width="60" height="60"/>
                <use id="zoomplus" xlink:href="#zoomPlus" x="17" y="9" onmousedown="handleZoom(evt,'in')"/>
                <use id="zoomminus" xlink:href="#zoomMin" x="42" y="9" onmousedown="handleZoom(evt,'out')"/>
                <use id="reset" xlink:href="#resetDef" x="30" y="36" onmousedown="handleReset()"/>
                <g id="arrowUp" xlink:href="#dirArrow" transform="translate(30 24)" onmousedown="handlePan(0,-1)">
                  <use xlink:href="#rim" fill="#404040">
                        <set attributeName="fill" to="#808080" begin="arrowUp.mouseover" end="arrowUp.mouseout"/>
                  </use>
                  <path fill="none" stroke="white" stroke-width="1.5" d="M0,-3.0v7 M-2.5,-0.5L0,-3.0L2.5,-0.5"/>
                </g>
                <g id="arrowRight" xlink:href="#dirArrow" transform="rotate(90) translate(36 -43)" onmousedown="handlePan(1,0)">
                  <use xlink:href="#rim" fill="#404040">
                        <set attributeName="fill" to="#808080" begin="arrowRight.mouseover" end="arrowRight.mouseout"/>
                  </use>
                  <path fill="none" stroke="white" stroke-width="1.5" d="M0,-3.0v7 M-2.5,-0.5L0,-3.0L2.5,-0.5"/>
                </g>
                <g id="arrowDown" xlink:href="#dirArrow" transform="rotate(180) translate(-30 -48)" onmousedown="handlePan(0,1)">
                  <use xlink:href="#rim" fill="#404040">
                        <set attributeName="fill" to="#808080" begin="arrowDown.mouseover" end="arrowDown.mouseout"/>
                  </use>
                  <path fill="none" stroke="white" stroke-width="1.5" d="M0,-3.0v7 M-2.5,-0.5L0,-3.0L2.5,-0.5"/>
                </g>
                <g id="arrowLeft" xlink:href="#dirArrow" transform="rotate(270) translate(-36 17)" onmousedown="handlePan(-1,0)">
                  <use xlink:href="#rim" fill="#404040">
                        <set attributeName="fill" to="#808080" begin="arrowLeft.mouseover" end="arrowLeft.mouseout"/>
                  </use>
                  <path fill="none" stroke="white" stroke-width="1.5" d="M0,-3.0v7 M-2.5,-0.5L0,-3.0L2.5,-0.5"/>
                </g>
        </g>
        <svg viewBox="0 0 15 15" width="100%" height="30px" preserveAspectRatio="xMaxYMin meet">
         <g id="arrow_out" transform="scale(0.3 0.3)">
          <a xlink:href="classparser_1_1_logo_parser_token_manager_a5923cb696d0a55f99661625200327816_icgraph_org.svg" target="_base">
           <rect id="button" ry="5" rx="5" y="6" x="6" height="38" width="38"
                fill="#f2f5e9" fill-opacity="0.5" stroke="#606060" stroke-width="1.0"/>
           <path id="arrow"
             d="M 11.500037,31.436501 C 11.940474,20.09759 22.043105,11.32322 32.158766,21.979434 L 37.068811,17.246167 C 37.068811,17.246167 37.088388,32 37.088388,32 L 22.160133,31.978069 C 22.160133,31.978069 26.997745,27.140456 26.997745,27.140456 C 18.528582,18.264221 13.291696,25.230495 11.500037,31.436501 z"
             style="fill:#404040;"/>
          </a>
         </g>
        </svg>
</svg>
