<?xml version="1.0" encoding="UTF-8" standalone="no"?>
<!DOCTYPE svg PUBLIC "-//W3C//DTD SVG 1.1//EN"
 "http://www.w3.org/Graphics/SVG/1.1/DTD/svg11.dtd">
<!-- Generated by graphviz version 2.36.0 (20140111.2315)
 -->
<!-- Title: parser.LogoParserTokenManager.getNextToken Pages: 1 -->
<svg width="2798pt" height="1287pt"
 viewBox="0.00 0.00 2798.00 1287.00" xmlns="http://www.w3.org/2000/svg" xmlns:xlink="http://www.w3.org/1999/xlink">
<g id="graph0" class="graph" transform="scale(1 1) rotate(0) translate(4 1283)">
<title>parser.LogoParserTokenManager.getNextToken</title>
<polygon fill="white" stroke="none" points="-4,4 -4,-1283 2794,-1283 2794,4 -4,4"/>
<!-- Node1 -->
<g id="node1" class="node"><title>Node1</title>
<polygon fill="#bfbfbf" stroke="black" points="0,-258 0,-288 190,-288 190,-258 0,-258"/>
<text text-anchor="start" x="8" y="-276" font-family="Helvetica,sans-Serif" font-size="10.00">parser.LogoParserTokenManager.get</text>
<text text-anchor="middle" x="95" y="-265" font-family="Helvetica,sans-Serif" font-size="10.00">NextToken</text>
</g>
<!-- Node2 -->
<g id="node2" class="node"><title>Node2</title>
<g id="a_node2"><a xlink:href="../../d4/dad/classparser_1_1_simple_char_stream.html#a4eacb833520fdfdb1b18be45bc3bd4ba" target="_top" xlink:title="parser.SimpleCharStream.backup">
<polygon fill="white" stroke="black" points="2610.5,-1127.5 2610.5,-1146.5 2789.5,-1146.5 2789.5,-1127.5 2610.5,-1127.5"/>
<text text-anchor="middle" x="2700" y="-1134.5" font-family="Helvetica,sans-Serif" font-size="10.00">parser.SimpleCharStream.backup</text>
</a>
</g>
</g>
<!-- Node1&#45;&gt;Node2 -->
<g id="edge1" class="edge"><title>Node1&#45;&gt;Node2</title>
<path fill="none" stroke="midnightblue" d="M96.2517,-288.224C98.2728,-393.271 114.809,-1010.57 226,-1153 316.254,-1268.61 384.333,-1279 531,-1279 531,-1279 531,-1279 2265,-1279 2427.84,-1279 2608.76,-1187.59 2673.92,-1151.45"/>
<polygon fill="midnightblue" stroke="midnightblue" points="2675.67,-1154.48 2682.68,-1146.54 2672.24,-1148.38 2675.67,-1154.48"/>
</g>
<!-- Node3 -->
<g id="node3" class="node"><title>Node3</title>
<g id="a_node3"><a xlink:href="../../d4/dad/classparser_1_1_simple_char_stream.html#ad35e1457d139a5986c04f7975065d03d" target="_top" xlink:title="parser.SimpleCharStream.\lBeginToken">
<polygon fill="white" stroke="black" points="1108,-1133 1108,-1163 1252,-1163 1252,-1133 1108,-1133"/>
<text text-anchor="start" x="1116" y="-1151" font-family="Helvetica,sans-Serif" font-size="10.00">parser.SimpleCharStream.</text>
<text text-anchor="middle" x="1180" y="-1140" font-family="Helvetica,sans-Serif" font-size="10.00">BeginToken</text>
</a>
</g>
</g>
<!-- Node1&#45;&gt;Node3 -->
<g id="edge2" class="edge"><title>Node1&#45;&gt;Node3</title>
<path fill="none" stroke="midnightblue" d="M96.839,-288.027C102.516,-385.483 137.778,-928.18 226,-1064 310.069,-1193.43 376.668,-1230 531,-1230 531,-1230 531,-1230 749,-1230 884.835,-1230 1040.6,-1190.03 1122.25,-1165.9"/>
<polygon fill="midnightblue" stroke="midnightblue" points="1123.26,-1169.25 1131.84,-1163.04 1121.25,-1162.55 1123.26,-1169.25"/>
</g>
<!-- Node4 -->
<g id="node4" class="node"><title>Node4</title>
<g id="a_node4"><a xlink:href="../../d4/dad/classparser_1_1_simple_char_stream.html#a9f80cee02b99e8e200afa646e3b25e29" target="_top" xlink:title="parser.SimpleCharStream.readChar">
<polygon fill="white" stroke="black" points="2170,-942.5 2170,-961.5 2358,-961.5 2358,-942.5 2170,-942.5"/>
<text text-anchor="middle" x="2264" y="-949.5" font-family="Helvetica,sans-Serif" font-size="10.00">parser.SimpleCharStream.readChar</text>
</a>
</g>
</g>
<!-- Node1&#45;&gt;Node4 -->
<g id="edge65" class="edge"><title>Node1&#45;&gt;Node4</title>
<path fill="none" stroke="midnightblue" d="M190.126,-280.168C278.19,-286.252 413.428,-294 531,-294 531,-294 531,-294 1829,-294 1967.88,-294 2036,-263.593 2134,-362 2217.28,-445.62 2253.84,-838.389 2261.46,-931.956"/>
<polygon fill="midnightblue" stroke="midnightblue" points="2257.98,-932.366 2262.26,-942.058 2264.96,-931.812 2257.98,-932.366"/>
</g>
<!-- Node8 -->
<g id="node8" class="node"><title>Node8</title>
<g id="a_node8"><a xlink:href="../../d4/dad/classparser_1_1_simple_char_stream.html#a3481ab0706f472b64151b31a36e883ef" target="_top" xlink:title="parser.SimpleCharStream.get\lEndColumn">
<polygon fill="white" stroke="black" points="452,-235 452,-265 612,-265 612,-235 452,-235"/>
<text text-anchor="start" x="460" y="-253" font-family="Helvetica,sans-Serif" font-size="10.00">parser.SimpleCharStream.get</text>
<text text-anchor="middle" x="532" y="-242" font-family="Helvetica,sans-Serif" font-size="10.00">EndColumn</text>
</a>
</g>
</g>
<!-- Node1&#45;&gt;Node8 -->
<g id="edge8" class="edge"><title>Node1&#45;&gt;Node8</title>
<path fill="none" stroke="midnightblue" d="M190.121,-268.024C264.802,-264.075 368.481,-258.593 441.837,-254.714"/>
<polygon fill="midnightblue" stroke="midnightblue" points="442.18,-258.201 451.981,-254.178 441.81,-251.211 442.18,-258.201"/>
</g>
<!-- Node9 -->
<g id="node9" class="node"><title>Node9</title>
<g id="a_node9"><a xlink:href="../../d4/dad/classparser_1_1_simple_char_stream.html#a47d15eca0c061d9075a8e2e7a835311b" target="_top" xlink:title="parser.SimpleCharStream.get\lEndLine">
<polygon fill="white" stroke="black" points="452,-186 452,-216 612,-216 612,-186 452,-186"/>
<text text-anchor="start" x="460" y="-204" font-family="Helvetica,sans-Serif" font-size="10.00">parser.SimpleCharStream.get</text>
<text text-anchor="middle" x="532" y="-193" font-family="Helvetica,sans-Serif" font-size="10.00">EndLine</text>
</a>
</g>
</g>
<!-- Node1&#45;&gt;Node9 -->
<g id="edge9" class="edge"><title>Node1&#45;&gt;Node9</title>
<path fill="none" stroke="midnightblue" d="M186.661,-257.994C261.452,-245.615 367.002,-228.145 441.479,-215.817"/>
<polygon fill="midnightblue" stroke="midnightblue" points="442.481,-219.199 451.775,-214.113 441.338,-212.293 442.481,-219.199"/>
</g>
<!-- Node10 -->
<g id="node10" class="node"><title>Node10</title>
<g id="a_node10"><a xlink:href="../../d4/dad/classparser_1_1_simple_char_stream.html#ad220e4e4324856b29042bb7cd3f1bf5e" target="_top" xlink:title="parser.SimpleCharStream.\lGetImage">
<polygon fill="white" stroke="black" points="460,-0 460,-30 604,-30 604,-0 460,-0"/>
<text text-anchor="start" x="468" y="-18" font-family="Helvetica,sans-Serif" font-size="10.00">parser.SimpleCharStream.</text>
<text text-anchor="middle" x="532" y="-7" font-family="Helvetica,sans-Serif" font-size="10.00">GetImage</text>
</a>
</g>
</g>
<!-- Node1&#45;&gt;Node10 -->
<g id="edge10" class="edge"><title>Node1&#45;&gt;Node10</title>
<path fill="none" stroke="midnightblue" d="M106.011,-257.674C125.744,-228.534 172.428,-164.691 226,-127 294.127,-79.0696 385.143,-49.1684 449.973,-32.4449"/>
<polygon fill="midnightblue" stroke="midnightblue" points="450.908,-35.8188 459.744,-29.9729 449.191,-29.0326 450.908,-35.8188"/>
</g>
<!-- Node11 -->
<g id="node11" class="node"><title>Node11</title>
<g id="a_node11"><a xlink:href="../../d0/d8c/classparser_1_1_logo_parser_token_manager.html#a105d12f62ad67eda0850987aedc48f4d" target="_top" xlink:title="parser.LogoParserTokenManager.jj\lFillToken">
<polygon fill="white" stroke="black" points="226.5,-137 226.5,-167 405.5,-167 405.5,-137 226.5,-137"/>
<text text-anchor="start" x="234.5" y="-155" font-family="Helvetica,sans-Serif" font-size="10.00">parser.LogoParserTokenManager.jj</text>
<text text-anchor="middle" x="316" y="-144" font-family="Helvetica,sans-Serif" font-size="10.00">FillToken</text>
</a>
</g>
</g>
<!-- Node1&#45;&gt;Node11 -->
<g id="edge11" class="edge"><title>Node1&#45;&gt;Node11</title>
<path fill="none" stroke="midnightblue" d="M119.054,-257.975C144.712,-241.494 187.623,-214.642 226,-194 240.565,-186.166 256.84,-178.251 271.449,-171.437"/>
<polygon fill="midnightblue" stroke="midnightblue" points="273.163,-174.501 280.774,-167.13 270.228,-168.146 273.163,-174.501"/>
</g>
<!-- Node16 -->
<g id="node16" class="node"><title>Node16</title>
<g id="a_node16"><a xlink:href="../../d0/d8c/classparser_1_1_logo_parser_token_manager.html#a2b55f093fc0200c57a099eba2d9b37e2" target="_top" xlink:title="parser.LogoParserTokenManager.jj\lMoveStringLiteralDfa0_0">
<polygon fill="white" stroke="black" points="226.5,-1025 226.5,-1055 405.5,-1055 405.5,-1025 226.5,-1025"/>
<text text-anchor="start" x="234.5" y="-1043" font-family="Helvetica,sans-Serif" font-size="10.00">parser.LogoParserTokenManager.jj</text>
<text text-anchor="middle" x="316" y="-1032" font-family="Helvetica,sans-Serif" font-size="10.00">MoveStringLiteralDfa0_0</text>
</a>
</g>
</g>
<!-- Node1&#45;&gt;Node16 -->
<g id="edge19" class="edge"><title>Node1&#45;&gt;Node16</title>
<path fill="none" stroke="midnightblue" d="M100.375,-288.321C127.615,-383.725 273.942,-896.203 307.94,-1015.27"/>
<polygon fill="midnightblue" stroke="midnightblue" points="304.594,-1016.3 310.705,-1024.96 311.325,-1014.38 304.594,-1016.3"/>
</g>
<!-- Node3&#45;&gt;Node4 -->
<g id="edge3" class="edge"><title>Node3&#45;&gt;Node4</title>
<path fill="none" stroke="midnightblue" d="M1252.14,-1146.4C1337.41,-1144.62 1484.64,-1142 1611,-1142 1611,-1142 1611,-1142 1829,-1142 1964.97,-1142 2024.93,-1199.2 2134,-1118 2169.55,-1091.53 2143.63,-1060.62 2170,-1025 2188.09,-1000.57 2216.37,-979.977 2237,-966.956"/>
<polygon fill="midnightblue" stroke="midnightblue" points="2238.9,-969.896 2245.6,-961.685 2235.24,-963.928 2238.9,-969.896"/>
</g>
<!-- Node5 -->
<g id="node5" class="node"><title>Node5</title>
<g id="a_node5"><a xlink:href="../../d4/dad/classparser_1_1_simple_char_stream.html#aac1dcd2a238adbc951d3af740cc2aa13" target="_top" xlink:title="parser.SimpleCharStream.\lFillBuff">
<polygon fill="white" stroke="black" points="2412,-937 2412,-967 2556,-967 2556,-937 2412,-937"/>
<text text-anchor="start" x="2420" y="-955" font-family="Helvetica,sans-Serif" font-size="10.00">parser.SimpleCharStream.</text>
<text text-anchor="middle" x="2484" y="-944" font-family="Helvetica,sans-Serif" font-size="10.00">FillBuff</text>
</a>
</g>
</g>
<!-- Node4&#45;&gt;Node5 -->
<g id="edge4" class="edge"><title>Node4&#45;&gt;Node5</title>
<path fill="none" stroke="midnightblue" d="M2358.08,-952C2372.61,-952 2387.52,-952 2401.76,-952"/>
<polygon fill="midnightblue" stroke="midnightblue" points="2401.99,-955.5 2411.99,-952 2401.99,-948.5 2401.99,-955.5"/>
</g>
<!-- Node7 -->
<g id="node7" class="node"><title>Node7</title>
<g id="a_node7"><a xlink:href="../../d4/dad/classparser_1_1_simple_char_stream.html#ad8ca3472934b9d38c005c8885d859403" target="_top" xlink:title="parser.SimpleCharStream.\lUpdateLineColumn">
<polygon fill="white" stroke="black" points="2412,-986 2412,-1016 2556,-1016 2556,-986 2412,-986"/>
<text text-anchor="start" x="2420" y="-1004" font-family="Helvetica,sans-Serif" font-size="10.00">parser.SimpleCharStream.</text>
<text text-anchor="middle" x="2484" y="-993" font-family="Helvetica,sans-Serif" font-size="10.00">UpdateLineColumn</text>
</a>
</g>
</g>
<!-- Node4&#45;&gt;Node7 -->
<g id="edge7" class="edge"><title>Node4&#45;&gt;Node7</title>
<path fill="none" stroke="midnightblue" d="M2307.29,-961.506C2335.23,-967.786 2372.67,-976.202 2405.82,-983.651"/>
<polygon fill="midnightblue" stroke="midnightblue" points="2405.42,-987.15 2415.95,-985.929 2406.96,-980.321 2405.42,-987.15"/>
</g>
<!-- Node5&#45;&gt;Node2 -->
<g id="edge6" class="edge"><title>Node5&#45;&gt;Node2</title>
<path fill="none" stroke="midnightblue" d="M2555.41,-967.138C2561.95,-969.899 2568.27,-973.156 2574,-977 2629.72,-1014.36 2671.67,-1084.6 2689.54,-1118.18"/>
<polygon fill="midnightblue" stroke="midnightblue" points="2686.58,-1120.09 2694.3,-1127.35 2692.8,-1116.86 2686.58,-1120.09"/>
</g>
<!-- Node6 -->
<g id="node6" class="node"><title>Node6</title>
<g id="a_node6"><a xlink:href="../../d4/dad/classparser_1_1_simple_char_stream.html#a5328cda7180ed2a180eac8af133517cf" target="_top" xlink:title="parser.SimpleCharStream.\lExpandBuff">
<polygon fill="white" stroke="black" points="2628,-937 2628,-967 2772,-967 2772,-937 2628,-937"/>
<text text-anchor="start" x="2636" y="-955" font-family="Helvetica,sans-Serif" font-size="10.00">parser.SimpleCharStream.</text>
<text text-anchor="middle" x="2700" y="-944" font-family="Helvetica,sans-Serif" font-size="10.00">ExpandBuff</text>
</a>
</g>
</g>
<!-- Node5&#45;&gt;Node6 -->
<g id="edge5" class="edge"><title>Node5&#45;&gt;Node6</title>
<path fill="none" stroke="midnightblue" d="M2556.26,-952C2575.92,-952 2597.39,-952 2617.58,-952"/>
<polygon fill="midnightblue" stroke="midnightblue" points="2617.69,-955.5 2627.69,-952 2617.69,-948.5 2617.69,-955.5"/>
</g>
<!-- Node11&#45;&gt;Node8 -->
<g id="edge16" class="edge"><title>Node11&#45;&gt;Node8</title>
<path fill="none" stroke="midnightblue" d="M339.127,-167.271C363.429,-183.472 404.058,-208.904 442,-225 447.721,-227.427 453.747,-229.691 459.855,-231.787"/>
<polygon fill="midnightblue" stroke="midnightblue" points="458.897,-235.156 469.489,-234.941 461.075,-228.504 458.897,-235.156"/>
</g>
<!-- Node11&#45;&gt;Node9 -->
<g id="edge15" class="edge"><title>Node11&#45;&gt;Node9</title>
<path fill="none" stroke="midnightblue" d="M382.661,-167.035C405.668,-172.302 431.687,-178.26 455.438,-183.698"/>
<polygon fill="midnightblue" stroke="midnightblue" points="454.934,-187.173 465.463,-185.994 456.496,-180.35 454.934,-187.173"/>
</g>
<!-- Node11&#45;&gt;Node10 -->
<g id="edge12" class="edge"><title>Node11&#45;&gt;Node10</title>
<path fill="none" stroke="midnightblue" d="M335.432,-136.98C353.689,-121.935 382.276,-97.9285 406,-76 422.616,-60.6412 422.473,-51.4315 442,-40 445.662,-37.8564 449.516,-35.8889 453.485,-34.084"/>
<polygon fill="midnightblue" stroke="midnightblue" points="455.026,-37.2337 462.915,-30.1613 452.338,-30.7706 455.026,-37.2337"/>
</g>
<!-- Node12 -->
<g id="node12" class="node"><title>Node12</title>
<g id="a_node12"><a xlink:href="../../d4/dad/classparser_1_1_simple_char_stream.html#a57abeecbf653aeb71b0e7631b3a30331" target="_top" xlink:title="parser.SimpleCharStream.get\lBeginLine">
<polygon fill="white" stroke="black" points="452,-137 452,-167 612,-167 612,-137 452,-137"/>
<text text-anchor="start" x="460" y="-155" font-family="Helvetica,sans-Serif" font-size="10.00">parser.SimpleCharStream.get</text>
<text text-anchor="middle" x="532" y="-144" font-family="Helvetica,sans-Serif" font-size="10.00">BeginLine</text>
</a>
</g>
</g>
<!-- Node11&#45;&gt;Node12 -->
<g id="edge13" class="edge"><title>Node11&#45;&gt;Node12</title>
<path fill="none" stroke="midnightblue" d="M405.587,-152C417.415,-152 429.553,-152 441.398,-152"/>
<polygon fill="midnightblue" stroke="midnightblue" points="441.718,-155.5 451.718,-152 441.718,-148.5 441.718,-155.5"/>
</g>
<!-- Node13 -->
<g id="node13" class="node"><title>Node13</title>
<g id="a_node13"><a xlink:href="../../d4/dad/classparser_1_1_simple_char_stream.html#ab206c6e9c44d1f594317a7920e6c9372" target="_top" xlink:title="parser.SimpleCharStream.get\lBeginColumn">
<polygon fill="white" stroke="black" points="452,-88 452,-118 612,-118 612,-88 452,-88"/>
<text text-anchor="start" x="460" y="-106" font-family="Helvetica,sans-Serif" font-size="10.00">parser.SimpleCharStream.get</text>
<text text-anchor="middle" x="532" y="-95" font-family="Helvetica,sans-Serif" font-size="10.00">BeginColumn</text>
</a>
</g>
</g>
<!-- Node11&#45;&gt;Node13 -->
<g id="edge14" class="edge"><title>Node11&#45;&gt;Node13</title>
<path fill="none" stroke="midnightblue" d="M382.661,-136.965C405.668,-131.698 431.687,-125.74 455.438,-120.302"/>
<polygon fill="midnightblue" stroke="midnightblue" points="456.496,-123.65 465.463,-118.006 454.934,-116.827 456.496,-123.65"/>
</g>
<!-- Node14 -->
<g id="node14" class="node"><title>Node14</title>
<g id="a_node14"><a xlink:href="../../db/df3/classparser_1_1_token.html#ae26c3dba3bc9315a3fc688514f51c9bf" target="_top" xlink:title="parser.Token.newToken">
<polygon fill="white" stroke="black" points="469.5,-49.5 469.5,-68.5 594.5,-68.5 594.5,-49.5 469.5,-49.5"/>
<text text-anchor="middle" x="532" y="-56.5" font-family="Helvetica,sans-Serif" font-size="10.00">parser.Token.newToken</text>
</a>
</g>
</g>
<!-- Node11&#45;&gt;Node14 -->
<g id="edge17" class="edge"><title>Node11&#45;&gt;Node14</title>
<path fill="none" stroke="midnightblue" d="M337.595,-136.944C361.53,-120.146 402.771,-93.3248 442,-78 448.678,-75.3914 455.784,-73.1106 462.958,-71.1234"/>
<polygon fill="midnightblue" stroke="midnightblue" points="463.942,-74.4841 472.747,-68.5923 462.19,-67.7069 463.942,-74.4841"/>
</g>
<!-- Node15 -->
<g id="node15" class="node"><title>Node15</title>
<g id="a_node15"><a xlink:href="../../db/df3/classparser_1_1_token.html#aee7a764d984c5f071e40e215c400fc3d" target="_top" xlink:title="parser.Token.Token">
<polygon fill="white" stroke="black" points="694.5,-49.5 694.5,-68.5 801.5,-68.5 801.5,-49.5 694.5,-49.5"/>
<text text-anchor="middle" x="748" y="-56.5" font-family="Helvetica,sans-Serif" font-size="10.00">parser.Token.Token</text>
</a>
</g>
</g>
<!-- Node14&#45;&gt;Node15 -->
<g id="edge18" class="edge"><title>Node14&#45;&gt;Node15</title>
<path fill="none" stroke="midnightblue" d="M594.611,-59C622.653,-59 655.802,-59 684.009,-59"/>
<polygon fill="midnightblue" stroke="midnightblue" points="684.159,-62.5001 694.159,-59 684.158,-55.5001 684.159,-62.5001"/>
</g>
<!-- Node17 -->
<g id="node17" class="node"><title>Node17</title>
<g id="a_node17"><a xlink:href="../../d0/d8c/classparser_1_1_logo_parser_token_manager.html#a94b20a17d94554012918e876be221c46" target="_top" xlink:title="parser.LogoParserTokenManager.jj\lStartNfaWithStates_0">
<polygon fill="white" stroke="black" points="1738.5,-937 1738.5,-967 1917.5,-967 1917.5,-937 1738.5,-937"/>
<text text-anchor="start" x="1746.5" y="-955" font-family="Helvetica,sans-Serif" font-size="10.00">parser.LogoParserTokenManager.jj</text>
<text text-anchor="middle" x="1828" y="-944" font-family="Helvetica,sans-Serif" font-size="10.00">StartNfaWithStates_0</text>
</a>
</g>
</g>
<!-- Node16&#45;&gt;Node17 -->
<g id="edge20" class="edge"><title>Node16&#45;&gt;Node17</title>
<path fill="none" stroke="midnightblue" d="M405.704,-1049.42C417.887,-1050.45 430.245,-1051.36 442,-1052 633.73,-1062.52 681.986,-1056.67 874,-1058 953.998,-1058.56 974.186,-1063.45 1054,-1058 1301.29,-1041.12 1590,-994.217 1734.57,-968.832"/>
<polygon fill="midnightblue" stroke="midnightblue" points="1735.49,-972.224 1744.73,-967.042 1734.27,-965.331 1735.49,-972.224"/>
</g>
<!-- Node18 -->
<g id="node18" class="node"><title>Node18</title>
<g id="a_node18"><a xlink:href="../../d0/d8c/classparser_1_1_logo_parser_token_manager.html#a0071f141b41b403c8ab151c8c014a709" target="_top" xlink:title="parser.LogoParserTokenManager.jj\lMoveNfa_0">
<polygon fill="white" stroke="black" points="1954.5,-1171 1954.5,-1201 2133.5,-1201 2133.5,-1171 1954.5,-1171"/>
<text text-anchor="start" x="1962.5" y="-1189" font-family="Helvetica,sans-Serif" font-size="10.00">parser.LogoParserTokenManager.jj</text>
<text text-anchor="middle" x="2044" y="-1178" font-family="Helvetica,sans-Serif" font-size="10.00">MoveNfa_0</text>
</a>
</g>
</g>
<!-- Node16&#45;&gt;Node18 -->
<g id="edge64" class="edge"><title>Node16&#45;&gt;Node18</title>
<path fill="none" stroke="midnightblue" d="M388.174,-1055C394.233,-1056.58 400.242,-1058.25 406,-1060 561.485,-1107.28 584.486,-1192 747,-1192 747,-1192 747,-1192 1613,-1192 1726.65,-1192 1857.18,-1189.88 1944.33,-1188.16"/>
<polygon fill="midnightblue" stroke="midnightblue" points="1944.55,-1191.66 1954.48,-1187.96 1944.41,-1184.66 1944.55,-1191.66"/>
</g>
<!-- Node24 -->
<g id="node24" class="node"><title>Node24</title>
<g id="a_node24"><a xlink:href="../../d0/d8c/classparser_1_1_logo_parser_token_manager.html#a99a01f0b68908e628349e9f09a2cbccd" target="_top" xlink:title="parser.LogoParserTokenManager.jj\lMoveStringLiteralDfa1_0">
<polygon fill="white" stroke="black" points="442.5,-921 442.5,-951 621.5,-951 621.5,-921 442.5,-921"/>
<text text-anchor="start" x="450.5" y="-939" font-family="Helvetica,sans-Serif" font-size="10.00">parser.LogoParserTokenManager.jj</text>
<text text-anchor="middle" x="532" y="-928" font-family="Helvetica,sans-Serif" font-size="10.00">MoveStringLiteralDfa1_0</text>
</a>
</g>
</g>
<!-- Node16&#45;&gt;Node24 -->
<g id="edge31" class="edge"><title>Node16&#45;&gt;Node24</title>
<path fill="none" stroke="midnightblue" d="M348.117,-1024.88C385.758,-1006.58 449.212,-975.748 490.598,-955.635"/>
<polygon fill="midnightblue" stroke="midnightblue" points="492.381,-958.66 499.845,-951.141 489.321,-952.364 492.381,-958.66"/>
</g>
<!-- Node28 -->
<g id="node28" class="node"><title>Node28</title>
<g id="a_node28"><a xlink:href="../../d0/d8c/classparser_1_1_logo_parser_token_manager.html#ab983b76c64f4c06ba9c5469d87e6eddd" target="_top" xlink:title="parser.LogoParserTokenManager.jj\lStopAtPos">
<polygon fill="white" stroke="black" points="874.5,-1019 874.5,-1049 1053.5,-1049 1053.5,-1019 874.5,-1019"/>
<text text-anchor="start" x="882.5" y="-1037" font-family="Helvetica,sans-Serif" font-size="10.00">parser.LogoParserTokenManager.jj</text>
<text text-anchor="middle" x="964" y="-1026" font-family="Helvetica,sans-Serif" font-size="10.00">StopAtPos</text>
</a>
</g>
</g>
<!-- Node16&#45;&gt;Node28 -->
<g id="edge63" class="edge"><title>Node16&#45;&gt;Node28</title>
<path fill="none" stroke="midnightblue" d="M405.807,-1039.18C525.811,-1038.06 739.081,-1036.08 864.08,-1034.92"/>
<polygon fill="midnightblue" stroke="midnightblue" points="864.441,-1038.42 874.408,-1034.82 864.376,-1031.42 864.441,-1038.42"/>
</g>
<!-- Node17&#45;&gt;Node4 -->
<g id="edge21" class="edge"><title>Node17&#45;&gt;Node4</title>
<path fill="none" stroke="midnightblue" d="M1917.61,-952C1987.7,-952 2085.69,-952 2159.4,-952"/>
<polygon fill="midnightblue" stroke="midnightblue" points="2159.63,-955.5 2169.63,-952 2159.63,-948.5 2159.63,-955.5"/>
</g>
<!-- Node17&#45;&gt;Node18 -->
<g id="edge22" class="edge"><title>Node17&#45;&gt;Node18</title>
<path fill="none" stroke="midnightblue" d="M1843.04,-967.353C1879.78,-1007.53 1978.91,-1115.92 2022.25,-1163.31"/>
<polygon fill="midnightblue" stroke="midnightblue" points="2019.85,-1165.88 2029.19,-1170.89 2025.02,-1161.15 2019.85,-1165.88"/>
</g>
<!-- Node18&#45;&gt;Node4 -->
<g id="edge30" class="edge"><title>Node18&#45;&gt;Node4</title>
<path fill="none" stroke="midnightblue" d="M2113.38,-1170.95C2121.05,-1167.06 2128.18,-1162.16 2134,-1156 2175.46,-1112.11 2136.57,-1075.28 2170,-1025 2186.73,-999.837 2214.97,-979.474 2235.95,-966.711"/>
<polygon fill="midnightblue" stroke="midnightblue" points="2237.88,-969.638 2244.73,-961.554 2234.34,-963.602 2237.88,-969.638"/>
</g>
<!-- Node19 -->
<g id="node19" class="node"><title>Node19</title>
<g id="a_node19"><a xlink:href="../../d0/d8c/classparser_1_1_logo_parser_token_manager.html#a5923cb696d0a55f99661625200327816" target="_top" xlink:title="parser.LogoParserTokenManager.\lReInitRounds">
<polygon fill="white" stroke="black" points="2177,-1171 2177,-1201 2351,-1201 2351,-1171 2177,-1171"/>
<text text-anchor="start" x="2185" y="-1189" font-family="Helvetica,sans-Serif" font-size="10.00">parser.LogoParserTokenManager.</text>
<text text-anchor="middle" x="2264" y="-1178" font-family="Helvetica,sans-Serif" font-size="10.00">ReInitRounds</text>
</a>
</g>
</g>
<!-- Node18&#45;&gt;Node19 -->
<g id="edge23" class="edge"><title>Node18&#45;&gt;Node19</title>
<path fill="none" stroke="midnightblue" d="M2133.67,-1186C2144.59,-1186 2155.79,-1186 2166.82,-1186"/>
<polygon fill="midnightblue" stroke="midnightblue" points="2166.88,-1189.5 2176.88,-1186 2166.88,-1182.5 2166.88,-1189.5"/>
</g>
<!-- Node20 -->
<g id="node20" class="node"><title>Node20</title>
<g id="a_node20"><a xlink:href="../../d0/d8c/classparser_1_1_logo_parser_token_manager.html#af1b1635a624926faf7741958cc140de4" target="_top" xlink:title="parser.LogoParserTokenManager.jj\lCheckNAdd">
<polygon fill="white" stroke="black" points="2394.5,-1083 2394.5,-1113 2573.5,-1113 2573.5,-1083 2394.5,-1083"/>
<text text-anchor="start" x="2402.5" y="-1101" font-family="Helvetica,sans-Serif" font-size="10.00">parser.LogoParserTokenManager.jj</text>
<text text-anchor="middle" x="2484" y="-1090" font-family="Helvetica,sans-Serif" font-size="10.00">CheckNAdd</text>
</a>
</g>
</g>
<!-- Node18&#45;&gt;Node20 -->
<g id="edge24" class="edge"><title>Node18&#45;&gt;Node20</title>
<path fill="none" stroke="midnightblue" d="M2119.8,-1170.97C2197,-1155.46 2317.25,-1131.3 2398.01,-1115.08"/>
<polygon fill="midnightblue" stroke="midnightblue" points="2399.03,-1118.44 2408.15,-1113.04 2397.65,-1111.58 2399.03,-1118.44"/>
</g>
<!-- Node21 -->
<g id="node21" class="node"><title>Node21</title>
<g id="a_node21"><a xlink:href="../../d0/d8c/classparser_1_1_logo_parser_token_manager.html#ad31cdd6db411f95b045686c2053f42fa" target="_top" xlink:title="parser.LogoParserTokenManager.jj\lAddStates">
<polygon fill="white" stroke="black" points="2174.5,-1220 2174.5,-1250 2353.5,-1250 2353.5,-1220 2174.5,-1220"/>
<text text-anchor="start" x="2182.5" y="-1238" font-family="Helvetica,sans-Serif" font-size="10.00">parser.LogoParserTokenManager.jj</text>
<text text-anchor="middle" x="2264" y="-1227" font-family="Helvetica,sans-Serif" font-size="10.00">AddStates</text>
</a>
</g>
</g>
<!-- Node18&#45;&gt;Node21 -->
<g id="edge25" class="edge"><title>Node18&#45;&gt;Node21</title>
<path fill="none" stroke="midnightblue" d="M2111.89,-1201.03C2135.43,-1206.33 2162.07,-1212.31 2186.35,-1217.77"/>
<polygon fill="midnightblue" stroke="midnightblue" points="2185.71,-1221.22 2196.24,-1219.99 2187.25,-1214.39 2185.71,-1221.22"/>
</g>
<!-- Node22 -->
<g id="node22" class="node"><title>Node22</title>
<g id="a_node22"><a xlink:href="../../d0/d8c/classparser_1_1_logo_parser_token_manager.html#a8f9adc17a4a9b201128786ca145783e8" target="_top" xlink:title="parser.LogoParserTokenManager.jj\lCheckNAddTwoStates">
<polygon fill="white" stroke="black" points="2174.5,-1083 2174.5,-1113 2353.5,-1113 2353.5,-1083 2174.5,-1083"/>
<text text-anchor="start" x="2182.5" y="-1101" font-family="Helvetica,sans-Serif" font-size="10.00">parser.LogoParserTokenManager.jj</text>
<text text-anchor="middle" x="2264" y="-1090" font-family="Helvetica,sans-Serif" font-size="10.00">CheckNAddTwoStates</text>
</a>
</g>
</g>
<!-- Node18&#45;&gt;Node22 -->
<g id="edge26" class="edge"><title>Node18&#45;&gt;Node22</title>
<path fill="none" stroke="midnightblue" d="M2099.4,-1170.9C2111.13,-1166.76 2123.23,-1161.79 2134,-1156 2151.86,-1146.41 2152.08,-1137.48 2170,-1128 2178.15,-1123.69 2187.03,-1119.86 2195.96,-1116.49"/>
<polygon fill="midnightblue" stroke="midnightblue" points="2197.41,-1119.69 2205.65,-1113.03 2195.05,-1113.1 2197.41,-1119.69"/>
</g>
<!-- Node23 -->
<g id="node23" class="node"><title>Node23</title>
<g id="a_node23"><a xlink:href="../../d0/d8c/classparser_1_1_logo_parser_token_manager.html#ac4047538420e7ceceec16698b354cd62" target="_top" xlink:title="parser.LogoParserTokenManager.jj\lCheckNAddStates">
<polygon fill="white" stroke="black" points="2174.5,-1034 2174.5,-1064 2353.5,-1064 2353.5,-1034 2174.5,-1034"/>
<text text-anchor="start" x="2182.5" y="-1052" font-family="Helvetica,sans-Serif" font-size="10.00">parser.LogoParserTokenManager.jj</text>
<text text-anchor="middle" x="2264" y="-1041" font-family="Helvetica,sans-Serif" font-size="10.00">CheckNAddStates</text>
</a>
</g>
</g>
<!-- Node18&#45;&gt;Node23 -->
<g id="edge28" class="edge"><title>Node18&#45;&gt;Node23</title>
<path fill="none" stroke="midnightblue" d="M2110.75,-1170.97C2119.22,-1167.07 2127.26,-1162.16 2134,-1156 2163.36,-1129.13 2139.81,-1099.94 2170,-1074 2171.8,-1072.45 2173.69,-1071 2175.65,-1069.63"/>
<polygon fill="midnightblue" stroke="midnightblue" points="2177.91,-1072.36 2184.66,-1064.2 2174.29,-1066.37 2177.91,-1072.36"/>
</g>
<!-- Node22&#45;&gt;Node20 -->
<g id="edge27" class="edge"><title>Node22&#45;&gt;Node20</title>
<path fill="none" stroke="midnightblue" d="M2353.67,-1098C2363.75,-1098 2374.07,-1098 2384.27,-1098"/>
<polygon fill="midnightblue" stroke="midnightblue" points="2384.41,-1101.5 2394.41,-1098 2384.41,-1094.5 2384.41,-1101.5"/>
</g>
<!-- Node23&#45;&gt;Node20 -->
<g id="edge29" class="edge"><title>Node23&#45;&gt;Node20</title>
<path fill="none" stroke="midnightblue" d="M2331.89,-1064.03C2355.43,-1069.33 2382.07,-1075.31 2406.35,-1080.77"/>
<polygon fill="midnightblue" stroke="midnightblue" points="2405.71,-1084.22 2416.24,-1082.99 2407.25,-1077.39 2405.71,-1084.22"/>
</g>
<!-- Node24&#45;&gt;Node4 -->
<g id="edge32" class="edge"><title>Node24&#45;&gt;Node4</title>
<path fill="none" stroke="midnightblue" d="M566.04,-951.044C625.993,-977.606 757.307,-1032.42 874,-1058 1101.06,-1107.78 1162.54,-1104 1395,-1104 1395,-1104 1395,-1104 1829,-1104 1967.33,-1104 2006.85,-1096.49 2134,-1042 2177.37,-1023.42 2220.96,-988.92 2244.72,-968.457"/>
<polygon fill="midnightblue" stroke="midnightblue" points="2247.32,-970.83 2252.53,-961.608 2242.71,-965.565 2247.32,-970.83"/>
</g>
<!-- Node25 -->
<g id="node25" class="node"><title>Node25</title>
<g id="a_node25"><a xlink:href="../../d0/d8c/classparser_1_1_logo_parser_token_manager.html#a1f212a863542f9f3993faf51bb46ae8e" target="_top" xlink:title="parser.LogoParserTokenManager.jj\lStopStringLiteralDfa_0">
<polygon fill="white" stroke="black" points="1954.5,-463 1954.5,-493 2133.5,-493 2133.5,-463 1954.5,-463"/>
<text text-anchor="start" x="1962.5" y="-481" font-family="Helvetica,sans-Serif" font-size="10.00">parser.LogoParserTokenManager.jj</text>
<text text-anchor="middle" x="2044" y="-470" font-family="Helvetica,sans-Serif" font-size="10.00">StopStringLiteralDfa_0</text>
</a>
</g>
</g>
<!-- Node24&#45;&gt;Node25 -->
<g id="edge33" class="edge"><title>Node24&#45;&gt;Node25</title>
<path fill="none" stroke="midnightblue" d="M538.396,-920.579C563.555,-851.172 676.531,-565.69 874,-440 1184.93,-242.094 1333.63,-382.074 1702,-394 1798.15,-397.113 1825.75,-380.712 1918,-408 1936.89,-413.587 1980.24,-439.05 2010.57,-457.659"/>
<polygon fill="midnightblue" stroke="midnightblue" points="2008.78,-460.67 2019.13,-462.944 2012.46,-454.714 2008.78,-460.67"/>
</g>
<!-- Node26 -->
<g id="node26" class="node"><title>Node26</title>
<g id="a_node26"><a xlink:href="../../d0/d8c/classparser_1_1_logo_parser_token_manager.html#a26eaeb3ef169f93c03edbb3e26128b7a" target="_top" xlink:title="parser.LogoParserTokenManager.jj\lMoveStringLiteralDfa2_0">
<polygon fill="white" stroke="black" points="658.5,-921 658.5,-951 837.5,-951 837.5,-921 658.5,-921"/>
<text text-anchor="start" x="666.5" y="-939" font-family="Helvetica,sans-Serif" font-size="10.00">parser.LogoParserTokenManager.jj</text>
<text text-anchor="middle" x="748" y="-928" font-family="Helvetica,sans-Serif" font-size="10.00">MoveStringLiteralDfa2_0</text>
</a>
</g>
</g>
<!-- Node24&#45;&gt;Node26 -->
<g id="edge34" class="edge"><title>Node24&#45;&gt;Node26</title>
<path fill="none" stroke="midnightblue" d="M621.587,-936C630.442,-936 639.472,-936 648.422,-936"/>
<polygon fill="midnightblue" stroke="midnightblue" points="648.48,-939.5 658.48,-936 648.48,-932.5 648.48,-939.5"/>
</g>
<!-- Node27 -->
<g id="node27" class="node"><title>Node27</title>
<g id="a_node27"><a xlink:href="../../d0/d8c/classparser_1_1_logo_parser_token_manager.html#aa065c8b0c977d3c1c9d9058f96664080" target="_top" xlink:title="parser.LogoParserTokenManager.jj\lStartNfa_0">
<polygon fill="white" stroke="black" points="1738.5,-794 1738.5,-824 1917.5,-824 1917.5,-794 1738.5,-794"/>
<text text-anchor="start" x="1746.5" y="-812" font-family="Helvetica,sans-Serif" font-size="10.00">parser.LogoParserTokenManager.jj</text>
<text text-anchor="middle" x="1828" y="-801" font-family="Helvetica,sans-Serif" font-size="10.00">StartNfa_0</text>
</a>
</g>
</g>
<!-- Node24&#45;&gt;Node27 -->
<g id="edge62" class="edge"><title>Node24&#45;&gt;Node27</title>
<path fill="none" stroke="midnightblue" d="M599.265,-920.937C683.376,-903.164 833.165,-876 963,-876 963,-876 963,-876 1397,-876 1525.87,-876 1673.9,-846.257 1758.35,-826.405"/>
<polygon fill="midnightblue" stroke="midnightblue" points="1759.41,-829.752 1768.33,-824.036 1757.79,-822.941 1759.41,-829.752"/>
</g>
<!-- Node26&#45;&gt;Node4 -->
<g id="edge38" class="edge"><title>Node26&#45;&gt;Node4</title>
<path fill="none" stroke="midnightblue" d="M807.588,-951.04C946.218,-985.26 1305.66,-1066 1611,-1066 1611,-1066 1611,-1066 1829,-1066 1985.3,-1066 2163.18,-995.979 2232.81,-965.691"/>
<polygon fill="midnightblue" stroke="midnightblue" points="2234.54,-968.754 2242.28,-961.523 2231.72,-962.347 2234.54,-968.754"/>
</g>
<!-- Node26&#45;&gt;Node17 -->
<g id="edge61" class="edge"><title>Node26&#45;&gt;Node17</title>
<path fill="none" stroke="midnightblue" d="M837.675,-937.316C1037.13,-940.276 1519.9,-947.442 1728.4,-950.537"/>
<polygon fill="midnightblue" stroke="midnightblue" points="1728.37,-954.036 1738.42,-950.685 1728.47,-947.037 1728.37,-954.036"/>
</g>
<!-- Node26&#45;&gt;Node25 -->
<g id="edge39" class="edge"><title>Node26&#45;&gt;Node25</title>
<path fill="none" stroke="midnightblue" d="M752.991,-920.767C776.678,-834.196 907.095,-408 1179,-408 1179,-408 1179,-408 1613,-408 1749.45,-408 1784.1,-416.745 1918,-443 1940.53,-447.417 1964.92,-453.861 1986.12,-460.019"/>
<polygon fill="midnightblue" stroke="midnightblue" points="1985.36,-463.442 1995.94,-462.914 1987.34,-456.728 1985.36,-463.442"/>
</g>
<!-- Node26&#45;&gt;Node27 -->
<g id="edge35" class="edge"><title>Node26&#45;&gt;Node27</title>
<path fill="none" stroke="midnightblue" d="M837.875,-928.796C924.78,-922.38 1060.89,-914 1179,-914 1179,-914 1179,-914 1397,-914 1532.97,-914 1573.22,-933.643 1702,-890 1740.12,-877.081 1778.09,-849.929 1802.01,-830.627"/>
<polygon fill="midnightblue" stroke="midnightblue" points="1804.36,-833.221 1809.86,-824.163 1799.91,-827.818 1804.36,-833.221"/>
</g>
<!-- Node26&#45;&gt;Node28 -->
<g id="edge40" class="edge"><title>Node26&#45;&gt;Node28</title>
<path fill="none" stroke="midnightblue" d="M773.734,-951.12C798.5,-965.857 838.001,-988.282 874,-1004 883.512,-1008.15 893.797,-1012.1 903.882,-1015.68"/>
<polygon fill="midnightblue" stroke="midnightblue" points="902.863,-1019.03 913.457,-1018.99 905.154,-1012.41 902.863,-1019.03"/>
</g>
<!-- Node29 -->
<g id="node29" class="node"><title>Node29</title>
<g id="a_node29"><a xlink:href="../../d0/d8c/classparser_1_1_logo_parser_token_manager.html#a12bfedaecfaf646642cb1aba5b1bd6fb" target="_top" xlink:title="parser.LogoParserTokenManager.jj\lMoveStringLiteralDfa3_0">
<polygon fill="white" stroke="black" points="874.5,-727 874.5,-757 1053.5,-757 1053.5,-727 874.5,-727"/>
<text text-anchor="start" x="882.5" y="-745" font-family="Helvetica,sans-Serif" font-size="10.00">parser.LogoParserTokenManager.jj</text>
<text text-anchor="middle" x="964" y="-734" font-family="Helvetica,sans-Serif" font-size="10.00">MoveStringLiteralDfa3_0</text>
</a>
</g>
</g>
<!-- Node26&#45;&gt;Node29 -->
<g id="edge41" class="edge"><title>Node26&#45;&gt;Node29</title>
<path fill="none" stroke="midnightblue" d="M765.792,-920.777C803.452,-886.637 894.784,-803.841 938.667,-764.058"/>
<polygon fill="midnightblue" stroke="midnightblue" points="941.228,-766.462 946.286,-757.152 936.526,-761.275 941.228,-766.462"/>
</g>
<!-- Node27&#45;&gt;Node18 -->
<g id="edge36" class="edge"><title>Node27&#45;&gt;Node18</title>
<path fill="none" stroke="midnightblue" d="M1841.8,-824.114C1860.05,-846.089 1893.99,-888.55 1918,-928 1967.9,-1010 2013.55,-1114.87 2033.04,-1161.62"/>
<polygon fill="midnightblue" stroke="midnightblue" points="2029.84,-1163.03 2036.9,-1170.94 2036.31,-1160.36 2029.84,-1163.03"/>
</g>
<!-- Node27&#45;&gt;Node25 -->
<g id="edge37" class="edge"><title>Node27&#45;&gt;Node25</title>
<path fill="none" stroke="midnightblue" d="M1838.75,-793.918C1872.73,-741.361 1986.1,-566.002 2027.61,-501.808"/>
<polygon fill="midnightblue" stroke="midnightblue" points="2030.7,-503.469 2033.19,-493.171 2024.82,-499.669 2030.7,-503.469"/>
</g>
<!-- Node29&#45;&gt;Node4 -->
<g id="edge43" class="edge"><title>Node29&#45;&gt;Node4</title>
<path fill="none" stroke="midnightblue" d="M967.443,-726.74C975.627,-680.756 1006.43,-542.369 1090,-472 1273.41,-317.561 1371.23,-332 1611,-332 1611,-332 1611,-332 1829,-332 1921.27,-332 2129.48,-448.627 2134,-454 2259.23,-602.931 2264.74,-859.066 2263.6,-932.06"/>
<polygon fill="midnightblue" stroke="midnightblue" points="2260.09,-932.423 2263.37,-942.498 2267.09,-932.578 2260.09,-932.423"/>
</g>
<!-- Node29&#45;&gt;Node17 -->
<g id="edge60" class="edge"><title>Node29&#45;&gt;Node17</title>
<path fill="none" stroke="midnightblue" d="M1026.65,-757.018C1182.05,-794.879 1589.24,-894.076 1755.12,-934.487"/>
<polygon fill="midnightblue" stroke="midnightblue" points="1754.67,-937.981 1765.21,-936.947 1756.33,-931.18 1754.67,-937.981"/>
</g>
<!-- Node29&#45;&gt;Node25 -->
<g id="edge44" class="edge"><title>Node29&#45;&gt;Node25</title>
<path fill="none" stroke="midnightblue" d="M975.683,-726.914C1019.77,-666.595 1194.71,-446 1395,-446 1395,-446 1395,-446 1613,-446 1748.7,-446 1782.91,-447.203 1918,-460 1926.56,-460.811 1935.44,-461.797 1944.33,-462.884"/>
<polygon fill="midnightblue" stroke="midnightblue" points="1944,-466.369 1954.36,-464.15 1944.87,-459.425 1944,-466.369"/>
</g>
<!-- Node29&#45;&gt;Node27 -->
<g id="edge42" class="edge"><title>Node29&#45;&gt;Node27</title>
<path fill="none" stroke="midnightblue" d="M1053.6,-748.887C1215.69,-761.485 1558.87,-788.159 1728.22,-801.322"/>
<polygon fill="midnightblue" stroke="midnightblue" points="1728.14,-804.827 1738.38,-802.112 1728.68,-797.848 1728.14,-804.827"/>
</g>
<!-- Node30 -->
<g id="node30" class="node"><title>Node30</title>
<g id="a_node30"><a xlink:href="../../d0/d8c/classparser_1_1_logo_parser_token_manager.html#aa9aaf3af52d382735345487d2b89e0cf" target="_top" xlink:title="parser.LogoParserTokenManager.jj\lMoveStringLiteralDfa4_0">
<polygon fill="white" stroke="black" points="1090.5,-668 1090.5,-698 1269.5,-698 1269.5,-668 1090.5,-668"/>
<text text-anchor="start" x="1098.5" y="-686" font-family="Helvetica,sans-Serif" font-size="10.00">parser.LogoParserTokenManager.jj</text>
<text text-anchor="middle" x="1180" y="-675" font-family="Helvetica,sans-Serif" font-size="10.00">MoveStringLiteralDfa4_0</text>
</a>
</g>
</g>
<!-- Node29&#45;&gt;Node30 -->
<g id="edge45" class="edge"><title>Node29&#45;&gt;Node30</title>
<path fill="none" stroke="midnightblue" d="M1019.55,-726.959C1048.61,-718.949 1084.51,-709.05 1114.89,-700.675"/>
<polygon fill="midnightblue" stroke="midnightblue" points="1115.83,-704.045 1124.54,-698.013 1113.97,-697.297 1115.83,-704.045"/>
</g>
<!-- Node30&#45;&gt;Node4 -->
<g id="edge47" class="edge"><title>Node30&#45;&gt;Node4</title>
<path fill="none" stroke="midnightblue" d="M1203.64,-667.854C1265.82,-627.775 1445.59,-522 1611,-522 1611,-522 1611,-522 1829,-522 1978.9,-522 2028.93,-559.085 2134,-666 2212.44,-745.82 2248.07,-881.739 2259.07,-932.294"/>
<polygon fill="midnightblue" stroke="midnightblue" points="2255.68,-933.169 2261.16,-942.239 2262.53,-931.733 2255.68,-933.169"/>
</g>
<!-- Node30&#45;&gt;Node17 -->
<g id="edge59" class="edge"><title>Node30&#45;&gt;Node17</title>
<path fill="none" stroke="midnightblue" d="M1214.59,-698.05C1239.7,-709.233 1274.91,-724.777 1306,-738 1479.86,-811.942 1688.05,-896.169 1779.72,-933.038"/>
<polygon fill="midnightblue" stroke="midnightblue" points="1778.69,-936.394 1789.27,-936.877 1781.3,-929.899 1778.69,-936.394"/>
</g>
<!-- Node30&#45;&gt;Node25 -->
<g id="edge48" class="edge"><title>Node30&#45;&gt;Node25</title>
<path fill="none" stroke="midnightblue" d="M1186.38,-667.977C1199.99,-632.527 1239.49,-543.956 1306,-508 1413.34,-449.968 1769.31,-461.714 1944.24,-471.507"/>
<polygon fill="midnightblue" stroke="midnightblue" points="1944.29,-475.015 1954.47,-472.089 1944.69,-468.026 1944.29,-475.015"/>
</g>
<!-- Node30&#45;&gt;Node27 -->
<g id="edge46" class="edge"><title>Node30&#45;&gt;Node27</title>
<path fill="none" stroke="midnightblue" d="M1257.96,-698.011C1378.97,-721.614 1613,-767.26 1739.97,-792.025"/>
<polygon fill="midnightblue" stroke="midnightblue" points="1739.56,-795.511 1750.04,-793.99 1740.9,-788.64 1739.56,-795.511"/>
</g>
<!-- Node31 -->
<g id="node31" class="node"><title>Node31</title>
<g id="a_node31"><a xlink:href="../../d0/d8c/classparser_1_1_logo_parser_token_manager.html#a4553920ced069b9d4852f1c1020bea38" target="_top" xlink:title="parser.LogoParserTokenManager.jj\lMoveStringLiteralDfa5_0">
<polygon fill="white" stroke="black" points="1306.5,-646 1306.5,-676 1485.5,-676 1485.5,-646 1306.5,-646"/>
<text text-anchor="start" x="1314.5" y="-664" font-family="Helvetica,sans-Serif" font-size="10.00">parser.LogoParserTokenManager.jj</text>
<text text-anchor="middle" x="1396" y="-653" font-family="Helvetica,sans-Serif" font-size="10.00">MoveStringLiteralDfa5_0</text>
</a>
</g>
</g>
<!-- Node30&#45;&gt;Node31 -->
<g id="edge49" class="edge"><title>Node30&#45;&gt;Node31</title>
<path fill="none" stroke="midnightblue" d="M1269.59,-673.893C1278.44,-672.983 1287.47,-672.054 1296.42,-671.134"/>
<polygon fill="midnightblue" stroke="midnightblue" points="1296.89,-674.605 1306.48,-670.1 1296.17,-667.641 1296.89,-674.605"/>
</g>
<!-- Node31&#45;&gt;Node4 -->
<g id="edge51" class="edge"><title>Node31&#45;&gt;Node4</title>
<path fill="none" stroke="midnightblue" d="M1430.69,-645.995C1455.41,-635.839 1490.08,-623.336 1522,-618 1600.9,-604.808 1622.85,-606.349 1702,-618 1905.18,-647.909 1973.76,-653.55 2134,-782 2189.25,-826.291 2233.91,-899.209 2252.99,-933.318"/>
<polygon fill="midnightblue" stroke="midnightblue" points="2250,-935.14 2257.88,-942.219 2256.14,-931.77 2250,-935.14"/>
</g>
<!-- Node31&#45;&gt;Node17 -->
<g id="edge58" class="edge"><title>Node31&#45;&gt;Node17</title>
<path fill="none" stroke="midnightblue" d="M1436.94,-676.007C1514.51,-705.352 1679.91,-768.958 1702,-786 1703.74,-787.346 1775.66,-883.355 1809.6,-928.729"/>
<polygon fill="midnightblue" stroke="midnightblue" points="1806.87,-930.92 1815.66,-936.832 1812.47,-926.728 1806.87,-930.92"/>
</g>
<!-- Node31&#45;&gt;Node25 -->
<g id="edge52" class="edge"><title>Node31&#45;&gt;Node25</title>
<path fill="none" stroke="midnightblue" d="M1416.62,-645.852C1440.3,-628.319 1481.94,-599.834 1522,-584 1597.56,-554.135 1815.56,-515.22 1944.38,-493.823"/>
<polygon fill="midnightblue" stroke="midnightblue" points="1944.97,-497.274 1954.26,-492.187 1943.82,-490.368 1944.97,-497.274"/>
</g>
<!-- Node31&#45;&gt;Node27 -->
<g id="edge50" class="edge"><title>Node31&#45;&gt;Node27</title>
<path fill="none" stroke="midnightblue" d="M1485.6,-668.765C1561.96,-676.624 1665.49,-690.417 1702,-710 1722.79,-721.15 1720.1,-733.637 1738,-749 1754.98,-763.572 1775.61,-777.674 1792.73,-788.541"/>
<polygon fill="midnightblue" stroke="midnightblue" points="1790.99,-791.582 1801.33,-793.914 1794.7,-785.646 1790.99,-791.582"/>
</g>
<!-- Node32 -->
<g id="node32" class="node"><title>Node32</title>
<g id="a_node32"><a xlink:href="../../d0/d8c/classparser_1_1_logo_parser_token_manager.html#a1bad232a9ce95d19e7133cbee0b538b5" target="_top" xlink:title="parser.LogoParserTokenManager.jj\lMoveStringLiteralDfa6_0">
<polygon fill="white" stroke="black" points="1522.5,-627 1522.5,-657 1701.5,-657 1701.5,-627 1522.5,-627"/>
<text text-anchor="start" x="1530.5" y="-645" font-family="Helvetica,sans-Serif" font-size="10.00">parser.LogoParserTokenManager.jj</text>
<text text-anchor="middle" x="1612" y="-634" font-family="Helvetica,sans-Serif" font-size="10.00">MoveStringLiteralDfa6_0</text>
</a>
</g>
</g>
<!-- Node31&#45;&gt;Node32 -->
<g id="edge53" class="edge"><title>Node31&#45;&gt;Node32</title>
<path fill="none" stroke="midnightblue" d="M1485.59,-653.135C1494.44,-652.349 1503.47,-651.547 1512.42,-650.752"/>
<polygon fill="midnightblue" stroke="midnightblue" points="1512.83,-654.23 1522.48,-649.859 1512.21,-647.257 1512.83,-654.23"/>
</g>
<!-- Node32&#45;&gt;Node4 -->
<g id="edge55" class="edge"><title>Node32&#45;&gt;Node4</title>
<path fill="none" stroke="midnightblue" d="M1668.11,-657.096C1679.45,-660.652 1691.21,-664.678 1702,-669 1916.14,-754.748 2159.28,-891.924 2237.41,-937.066"/>
<polygon fill="midnightblue" stroke="midnightblue" points="2236.1,-940.356 2246.51,-942.341 2239.61,-934.299 2236.1,-940.356"/>
</g>
<!-- Node32&#45;&gt;Node17 -->
<g id="edge57" class="edge"><title>Node32&#45;&gt;Node17</title>
<path fill="none" stroke="midnightblue" d="M1628.15,-657.023C1647.28,-676.605 1680.29,-712.55 1702,-748 1723.43,-782.986 1717.57,-797.425 1738,-833 1758.37,-868.465 1787.64,-905.64 1806.98,-928.808"/>
<polygon fill="midnightblue" stroke="midnightblue" points="1804.5,-931.292 1813.62,-936.68 1809.85,-926.779 1804.5,-931.292"/>
</g>
<!-- Node32&#45;&gt;Node25 -->
<g id="edge56" class="edge"><title>Node32&#45;&gt;Node25</title>
<path fill="none" stroke="midnightblue" d="M1701.73,-632.573C1764.42,-623.477 1849.19,-606.154 1918,-574 1957.87,-555.37 1996.97,-522.262 2020.54,-500.218"/>
<polygon fill="midnightblue" stroke="midnightblue" points="2023.09,-502.63 2027.92,-493.203 2018.26,-497.558 2023.09,-502.63"/>
</g>
<!-- Node32&#45;&gt;Node27 -->
<g id="edge54" class="edge"><title>Node32&#45;&gt;Node27</title>
<path fill="none" stroke="midnightblue" d="M1678.62,-657.18C1687.1,-661.058 1695.19,-665.916 1702,-672 1730.17,-697.173 1713.45,-720.289 1738,-749 1751.59,-764.893 1770.37,-778.382 1787.17,-788.52"/>
<polygon fill="midnightblue" stroke="midnightblue" points="1785.86,-791.803 1796.26,-793.802 1789.37,-785.751 1785.86,-791.803"/>
</g>
</g>
</svg>
