<?xml version="1.0" encoding="UTF-8" standalone="no"?>
<!DOCTYPE svg PUBLIC "-//W3C//DTD SVG 1.1//EN"
 "http://www.w3.org/Graphics/SVG/1.1/DTD/svg11.dtd">
<!-- Generated by graphviz version 2.36.0 (20140111.2315)
 -->
<!-- Title: parser.LogoParserTokenManager.SwitchTo Pages: 1 -->
<svg width="392pt" height="87pt"
 viewBox="0.00 0.00 392.00 87.00" xmlns="http://www.w3.org/2000/svg" xmlns:xlink="http://www.w3.org/1999/xlink">
<g id="graph0" class="graph" transform="scale(1 1) rotate(0) translate(4 83)">
<title>parser.LogoParserTokenManager.SwitchTo</title>
<polygon fill="white" stroke="none" points="-4,4 -4,-83 388,-83 388,4 -4,4"/>
<!-- Node1 -->
<g id="node1" class="node"><title>Node1</title>
<polygon fill="#bfbfbf" stroke="black" points="0,-24 0,-54 174,-54 174,-24 0,-24"/>
<text text-anchor="start" x="8" y="-42" font-family="Helvetica,sans-Serif" font-size="10.00">parser.LogoParserTokenManager.</text>
<text text-anchor="middle" x="87" y="-31" font-family="Helvetica,sans-Serif" font-size="10.00">SwitchTo</text>
</g>
<!-- Node2 -->
<g id="node2" class="node"><title>Node2</title>
<g id="a_node2"><a xlink:href="../../d0/d8c/classparser_1_1_logo_parser_token_manager.html#a587998cfe69d821d0331d2f67c2a7661" target="_top" xlink:title="parser.LogoParserTokenManager.\lLogoParserTokenManager">
<polygon fill="white" stroke="black" points="210,-49 210,-79 384,-79 384,-49 210,-49"/>
<text text-anchor="start" x="218" y="-67" font-family="Helvetica,sans-Serif" font-size="10.00">parser.LogoParserTokenManager.</text>
<text text-anchor="middle" x="297" y="-56" font-family="Helvetica,sans-Serif" font-size="10.00">LogoParserTokenManager</text>
</a>
</g>
</g>
<!-- Node1&#45;&gt;Node2 -->
<g id="edge1" class="edge"><title>Node1&#45;&gt;Node2</title>
<path fill="none" stroke="midnightblue" d="M184.16,-50.5577C192.768,-51.5923 201.448,-52.6355 209.962,-53.6588"/>
<polygon fill="midnightblue" stroke="midnightblue" points="184.449,-47.0674 174.103,-49.3489 183.614,-54.0173 184.449,-47.0674"/>
</g>
<!-- Node3 -->
<g id="node3" class="node"><title>Node3</title>
<g id="a_node3"><a xlink:href="../../d0/d8c/classparser_1_1_logo_parser_token_manager.html#aa93f80cf1b3b2423102d17bced08c48b" target="_top" xlink:title="parser.LogoParserTokenManager.\lReInit">
<polygon fill="white" stroke="black" points="210,-0 210,-30 384,-30 384,-0 210,-0"/>
<text text-anchor="start" x="218" y="-18" font-family="Helvetica,sans-Serif" font-size="10.00">parser.LogoParserTokenManager.</text>
<text text-anchor="middle" x="297" y="-7" font-family="Helvetica,sans-Serif" font-size="10.00">ReInit</text>
</a>
</g>
</g>
<!-- Node1&#45;&gt;Node3 -->
<g id="edge2" class="edge"><title>Node1&#45;&gt;Node3</title>
<path fill="none" stroke="midnightblue" d="M184.16,-27.9046C192.768,-26.9114 201.448,-25.9099 209.962,-24.9275"/>
<polygon fill="midnightblue" stroke="midnightblue" points="183.636,-24.4418 174.103,-29.065 184.438,-31.3956 183.636,-24.4418"/>
</g>
</g>
</svg>
