<?xml version="1.0" encoding="UTF-8" standalone="no"?>
<!DOCTYPE svg PUBLIC "-//W3C//DTD SVG 1.1//EN"
 "http://www.w3.org/Graphics/SVG/1.1/DTD/svg11.dtd">
<!-- Generated by graphviz version 2.36.0 (20140111.2315)
 -->
<!-- Title: parser.LogoParserTokenManager.jjMoveStringLiteralDfa6_0 Pages: 1 -->
<!--zoomable 426 -->
<svg id="main" version="1.1" xmlns="http://www.w3.org/2000/svg" xmlns:xlink="http://www.w3.org/1999/xlink" xml:space="preserve" onload="init(evt)">
<style type="text/css"><![CDATA[
.edge:hover path { stroke: red; }
.edge:hover polygon { stroke: red; fill: red; }
]]></style>
<script type="text/javascript"><![CDATA[
var edges = document.getElementsByTagName('g');
if (edges && edges.length) {
  for (var i=0;i<edges.length;i++) {
    if (edges[i].id.substr(0,4)=='edge') {
      edges[i].setAttribute('class','edge');
    }
  }
}
]]></script>
        <defs>
                <circle id="rim" cx="0" cy="0" r="7"/>
                <circle id="rim2" cx="0" cy="0" r="3.5"/>
                <g id="zoomPlus">
                        <use xlink:href="#rim" fill="#404040">
                                <set attributeName="fill" to="#808080" begin="zoomplus.mouseover" end="zoomplus.mouseout"/>
                        </use>
                        <path d="M-4,0h8M0,-4v8" fill="none" stroke="white" stroke-width="1.5" pointer-events="none"/>
                </g>
                <g id="zoomMin">
                        <use xlink:href="#rim" fill="#404040">
                                <set attributeName="fill" to="#808080" begin="zoomminus.mouseover" end="zoomminus.mouseout"/>
                        </use>
                        <path d="M-4,0h8" fill="none" stroke="white" stroke-width="1.5" pointer-events="none"/>
                </g>
                <g id="dirArrow">
                        <path fill="none" stroke="white" stroke-width="1.5" d="M0,-3.0v7 M-2.5,-0.5L0,-3.0L2.5,-0.5"/>
                </g>
               <g id="resetDef">
                       <use xlink:href="#rim2" fill="#404040">
                               <set attributeName="fill" to="#808080" begin="reset.mouseover" end="reset.mouseout"/>
                       </use>
               </g>
        </defs>

<script type="text/javascript">
var viewWidth = 4102;
var viewHeight = 426;
var sectionId = 'dynsection-28';
</script>
<script xlink:href="../../svgpan.js"/>
<svg id="graph" class="graph">
<g id="viewport">
<title>parser.LogoParserTokenManager.jjMoveStringLiteralDfa6_0</title>
<polygon fill="white" stroke="none" points="-4,4 -4,-422.128 4098,-422.128 4098,4 -4,4"/>
<!-- Node1 -->
<g id="node1" class="node"><title>Node1</title>
<polygon fill="#bfbfbf" stroke="black" points="0.5,-308.128 0.5,-338.128 179.5,-338.128 179.5,-308.128 0.5,-308.128"/>
<text text-anchor="start" x="8.5" y="-326.128" font-family="Helvetica,sans-Serif" font-size="10.00">parser.LogoParserTokenManager.jj</text>
<text text-anchor="middle" x="90" y="-315.128" font-family="Helvetica,sans-Serif" font-size="10.00">MoveStringLiteralDfa6_0</text>
</g>
<!-- Node2 -->
<g id="node2" class="node"><title>Node2</title>
<g id="a_node2"><a xlink:href="../../d0/d8c/classparser_1_1_logo_parser_token_manager.html#a4553920ced069b9d4852f1c1020bea38" target="_top" xlink:title="parser.LogoParserTokenManager.jj\lMoveStringLiteralDfa5_0">
<polygon fill="white" stroke="black" points="216.5,-308.128 216.5,-338.128 395.5,-338.128 395.5,-308.128 216.5,-308.128"/>
<text text-anchor="start" x="224.5" y="-326.128" font-family="Helvetica,sans-Serif" font-size="10.00">parser.LogoParserTokenManager.jj</text>
<text text-anchor="middle" x="306" y="-315.128" font-family="Helvetica,sans-Serif" font-size="10.00">MoveStringLiteralDfa5_0</text>
</a>
</g>
</g>
<!-- Node1&#45;&gt;Node2 -->
<g id="edge1" class="edge"><title>Node1&#45;&gt;Node2</title>
<path fill="none" stroke="midnightblue" d="M189.645,-323.128C198.596,-323.128 207.625,-323.128 216.48,-323.128"/>
<polygon fill="midnightblue" stroke="midnightblue" points="189.587,-319.628 179.587,-323.128 189.587,-326.628 189.587,-319.628"/>
</g>
<!-- Node3 -->
<g id="node3" class="node"><title>Node3</title>
<g id="a_node3"><a xlink:href="../../d0/d8c/classparser_1_1_logo_parser_token_manager.html#aa9aaf3af52d382735345487d2b89e0cf" target="_top" xlink:title="parser.LogoParserTokenManager.jj\lMoveStringLiteralDfa4_0">
<polygon fill="white" stroke="black" points="432.5,-308.128 432.5,-338.128 611.5,-338.128 611.5,-308.128 432.5,-308.128"/>
<text text-anchor="start" x="440.5" y="-326.128" font-family="Helvetica,sans-Serif" font-size="10.00">parser.LogoParserTokenManager.jj</text>
<text text-anchor="middle" x="522" y="-315.128" font-family="Helvetica,sans-Serif" font-size="10.00">MoveStringLiteralDfa4_0</text>
</a>
</g>
</g>
<!-- Node2&#45;&gt;Node3 -->
<g id="edge2" class="edge"><title>Node2&#45;&gt;Node3</title>
<path fill="none" stroke="midnightblue" d="M405.645,-323.128C414.596,-323.128 423.625,-323.128 432.48,-323.128"/>
<polygon fill="midnightblue" stroke="midnightblue" points="405.587,-319.628 395.587,-323.128 405.587,-326.628 405.587,-319.628"/>
</g>
<!-- Node4 -->
<g id="node4" class="node"><title>Node4</title>
<g id="a_node4"><a xlink:href="../../d0/d8c/classparser_1_1_logo_parser_token_manager.html#a12bfedaecfaf646642cb1aba5b1bd6fb" target="_top" xlink:title="parser.LogoParserTokenManager.jj\lMoveStringLiteralDfa3_0">
<polygon fill="white" stroke="black" points="648.5,-308.128 648.5,-338.128 827.5,-338.128 827.5,-308.128 648.5,-308.128"/>
<text text-anchor="start" x="656.5" y="-326.128" font-family="Helvetica,sans-Serif" font-size="10.00">parser.LogoParserTokenManager.jj</text>
<text text-anchor="middle" x="738" y="-315.128" font-family="Helvetica,sans-Serif" font-size="10.00">MoveStringLiteralDfa3_0</text>
</a>
</g>
</g>
<!-- Node3&#45;&gt;Node4 -->
<g id="edge3" class="edge"><title>Node3&#45;&gt;Node4</title>
<path fill="none" stroke="midnightblue" d="M621.645,-323.128C630.596,-323.128 639.625,-323.128 648.48,-323.128"/>
<polygon fill="midnightblue" stroke="midnightblue" points="621.587,-319.628 611.587,-323.128 621.587,-326.628 621.587,-319.628"/>
</g>
<!-- Node5 -->
<g id="node5" class="node"><title>Node5</title>
<g id="a_node5"><a xlink:href="../../d0/d8c/classparser_1_1_logo_parser_token_manager.html#a26eaeb3ef169f93c03edbb3e26128b7a" target="_top" xlink:title="parser.LogoParserTokenManager.jj\lMoveStringLiteralDfa2_0">
<polygon fill="white" stroke="black" points="864.5,-308.128 864.5,-338.128 1043.5,-338.128 1043.5,-308.128 864.5,-308.128"/>
<text text-anchor="start" x="872.5" y="-326.128" font-family="Helvetica,sans-Serif" font-size="10.00">parser.LogoParserTokenManager.jj</text>
<text text-anchor="middle" x="954" y="-315.128" font-family="Helvetica,sans-Serif" font-size="10.00">MoveStringLiteralDfa2_0</text>
</a>
</g>
</g>
<!-- Node4&#45;&gt;Node5 -->
<g id="edge4" class="edge"><title>Node4&#45;&gt;Node5</title>
<path fill="none" stroke="midnightblue" d="M837.645,-323.128C846.596,-323.128 855.625,-323.128 864.48,-323.128"/>
<polygon fill="midnightblue" stroke="midnightblue" points="837.587,-319.628 827.587,-323.128 837.587,-326.628 837.587,-319.628"/>
</g>
<!-- Node6 -->
<g id="node6" class="node"><title>Node6</title>
<g id="a_node6"><a xlink:href="../../d0/d8c/classparser_1_1_logo_parser_token_manager.html#a99a01f0b68908e628349e9f09a2cbccd" target="_top" xlink:title="parser.LogoParserTokenManager.jj\lMoveStringLiteralDfa1_0">
<polygon fill="white" stroke="black" points="1080.5,-308.128 1080.5,-338.128 1259.5,-338.128 1259.5,-308.128 1080.5,-308.128"/>
<text text-anchor="start" x="1088.5" y="-326.128" font-family="Helvetica,sans-Serif" font-size="10.00">parser.LogoParserTokenManager.jj</text>
<text text-anchor="middle" x="1170" y="-315.128" font-family="Helvetica,sans-Serif" font-size="10.00">MoveStringLiteralDfa1_0</text>
</a>
</g>
</g>
<!-- Node5&#45;&gt;Node6 -->
<g id="edge5" class="edge"><title>Node5&#45;&gt;Node6</title>
<path fill="none" stroke="midnightblue" d="M1053.65,-323.128C1062.6,-323.128 1071.62,-323.128 1080.48,-323.128"/>
<polygon fill="midnightblue" stroke="midnightblue" points="1053.59,-319.628 1043.59,-323.128 1053.59,-326.628 1053.59,-319.628"/>
</g>
<!-- Node7 -->
<g id="node7" class="node"><title>Node7</title>
<g id="a_node7"><a xlink:href="../../d0/d8c/classparser_1_1_logo_parser_token_manager.html#a2b55f093fc0200c57a099eba2d9b37e2" target="_top" xlink:title="parser.LogoParserTokenManager.jj\lMoveStringLiteralDfa0_0">
<polygon fill="white" stroke="black" points="1296.5,-308.128 1296.5,-338.128 1475.5,-338.128 1475.5,-308.128 1296.5,-308.128"/>
<text text-anchor="start" x="1304.5" y="-326.128" font-family="Helvetica,sans-Serif" font-size="10.00">parser.LogoParserTokenManager.jj</text>
<text text-anchor="middle" x="1386" y="-315.128" font-family="Helvetica,sans-Serif" font-size="10.00">MoveStringLiteralDfa0_0</text>
</a>
</g>
</g>
<!-- Node6&#45;&gt;Node7 -->
<g id="edge6" class="edge"><title>Node6&#45;&gt;Node7</title>
<path fill="none" stroke="midnightblue" d="M1269.65,-323.128C1278.6,-323.128 1287.62,-323.128 1296.48,-323.128"/>
<polygon fill="midnightblue" stroke="midnightblue" points="1269.59,-319.628 1259.59,-323.128 1269.59,-326.628 1269.59,-319.628"/>
</g>
<!-- Node8 -->
<g id="node8" class="node"><title>Node8</title>
<g id="a_node8"><a xlink:href="../../d0/d8c/classparser_1_1_logo_parser_token_manager.html#a3dee50e2286b70ba662519a865e63b77" target="_top" xlink:title="parser.LogoParserTokenManager.get\lNextToken">
<polygon fill="white" stroke="black" points="1512,-308.128 1512,-338.128 1702,-338.128 1702,-308.128 1512,-308.128"/>
<text text-anchor="start" x="1520" y="-326.128" font-family="Helvetica,sans-Serif" font-size="10.00">parser.LogoParserTokenManager.get</text>
<text text-anchor="middle" x="1607" y="-315.128" font-family="Helvetica,sans-Serif" font-size="10.00">NextToken</text>
</a>
</g>
</g>
<!-- Node7&#45;&gt;Node8 -->
<g id="edge7" class="edge"><title>Node7&#45;&gt;Node8</title>
<path fill="none" stroke="midnightblue" d="M1485.83,-323.128C1494.46,-323.128 1503.17,-323.128 1511.76,-323.128"/>
<polygon fill="midnightblue" stroke="midnightblue" points="1485.76,-319.628 1475.76,-323.128 1485.76,-326.628 1485.76,-319.628"/>
</g>
<!-- Node9 -->
<g id="node9" class="node"><title>Node9</title>
<g id="a_node9"><a xlink:href="../../d5/d0e/classparser_1_1_logo_parser.html#a7477b52c4469ea43d75f88fb805e37a1" target="_top" xlink:title="parser.LogoParser.getNext\lToken">
<polygon fill="white" stroke="black" points="1740.5,-371.128 1740.5,-401.128 1883.5,-401.128 1883.5,-371.128 1740.5,-371.128"/>
<text text-anchor="start" x="1748.5" y="-389.128" font-family="Helvetica,sans-Serif" font-size="10.00">parser.LogoParser.getNext</text>
<text text-anchor="middle" x="1812" y="-378.128" font-family="Helvetica,sans-Serif" font-size="10.00">Token</text>
</a>
</g>
</g>
<!-- Node8&#45;&gt;Node9 -->
<g id="edge8" class="edge"><title>Node8&#45;&gt;Node9</title>
<path fill="none" stroke="midnightblue" d="M1666.04,-341.142C1696.61,-350.629 1733.66,-362.127 1762.65,-371.124"/>
<polygon fill="midnightblue" stroke="midnightblue" points="1666.95,-337.76 1656.37,-338.138 1664.88,-344.445 1666.95,-337.76"/>
</g>
<!-- Node10 -->
<g id="node10" class="node"><title>Node10</title>
<g id="a_node10"><a xlink:href="../../d5/d0e/classparser_1_1_logo_parser.html#a63b7890a7d6323bcf938132f968e8157" target="_top" xlink:title="parser.LogoParser.getToken">
<polygon fill="white" stroke="black" points="1738,-332.628 1738,-351.628 1886,-351.628 1886,-332.628 1738,-332.628"/>
<text text-anchor="middle" x="1812" y="-339.628" font-family="Helvetica,sans-Serif" font-size="10.00">parser.LogoParser.getToken</text>
</a>
</g>
</g>
<!-- Node8&#45;&gt;Node10 -->
<g id="edge9" class="edge"><title>Node8&#45;&gt;Node10</title>
<path fill="none" stroke="midnightblue" d="M1712.24,-332.885C1720.91,-333.696 1729.54,-334.504 1737.9,-335.287"/>
<polygon fill="midnightblue" stroke="midnightblue" points="1712.35,-329.38 1702.07,-331.933 1711.7,-336.35 1712.35,-329.38"/>
</g>
<!-- Node11 -->
<g id="node11" class="node"><title>Node11</title>
<g id="a_node11"><a xlink:href="../../d5/d0e/classparser_1_1_logo_parser.html#a550039a3180ec86ef01f419aefc02edc" target="_top" xlink:title="parser.LogoParser.jj\l_consume_token">
<polygon fill="white" stroke="black" points="1757,-118.128 1757,-148.128 1867,-148.128 1867,-118.128 1757,-118.128"/>
<text text-anchor="start" x="1765" y="-136.128" font-family="Helvetica,sans-Serif" font-size="10.00">parser.LogoParser.jj</text>
<text text-anchor="middle" x="1812" y="-125.128" font-family="Helvetica,sans-Serif" font-size="10.00">_consume_token</text>
</a>
</g>
</g>
<!-- Node8&#45;&gt;Node11 -->
<g id="edge10" class="edge"><title>Node8&#45;&gt;Node11</title>
<path fill="none" stroke="midnightblue" d="M1631.79,-300.864C1673.63,-261.703 1759.33,-181.49 1794.94,-148.164"/>
<polygon fill="midnightblue" stroke="midnightblue" points="1629.18,-298.512 1624.27,-307.901 1633.96,-303.623 1629.18,-298.512"/>
</g>
<!-- Node28 -->
<g id="node28" class="node"><title>Node28</title>
<g id="a_node28"><a xlink:href="../../d5/d0e/classparser_1_1_logo_parser.html#a2e48e3ab2c1c075beca7bcc54d891afd" target="_top" xlink:title="parser.LogoParser.jj_ntk">
<polygon fill="white" stroke="black" points="1747,-294.628 1747,-313.628 1877,-313.628 1877,-294.628 1747,-294.628"/>
<text text-anchor="middle" x="1812" y="-301.628" font-family="Helvetica,sans-Serif" font-size="10.00">parser.LogoParser.jj_ntk</text>
</a>
</g>
</g>
<!-- Node8&#45;&gt;Node28 -->
<g id="edge35" class="edge"><title>Node8&#45;&gt;Node28</title>
<path fill="none" stroke="midnightblue" d="M1712.38,-313.359C1724.12,-312.26 1735.8,-311.167 1746.81,-310.137"/>
<polygon fill="midnightblue" stroke="midnightblue" points="1711.7,-309.907 1702.07,-314.324 1712.35,-316.876 1711.7,-309.907"/>
</g>
<!-- Node12 -->
<g id="node12" class="node"><title>Node12</title>
<g id="a_node12"><a xlink:href="../../d5/d0e/classparser_1_1_logo_parser.html#a82acce8328e52f3b2bcb90542cc800b7" target="_top" xlink:title="parser.LogoParser.arithm">
<polygon fill="white" stroke="black" points="2246.5,-170.628 2246.5,-189.628 2383.5,-189.628 2383.5,-170.628 2246.5,-170.628"/>
<text text-anchor="middle" x="2315" y="-177.628" font-family="Helvetica,sans-Serif" font-size="10.00">parser.LogoParser.arithm</text>
</a>
</g>
</g>
<!-- Node11&#45;&gt;Node12 -->
<g id="edge11" class="edge"><title>Node11&#45;&gt;Node12</title>
<path fill="none" stroke="midnightblue" d="M1877.14,-139.145C1972.08,-148.052 2149.24,-164.672 2246.23,-173.771"/>
<polygon fill="midnightblue" stroke="midnightblue" points="1877.38,-135.652 1867.09,-138.203 1876.72,-142.622 1877.38,-135.652"/>
</g>
<!-- Node13 -->
<g id="node13" class="node"><title>Node13</title>
<g id="a_node13"><a xlink:href="../../d5/d0e/classparser_1_1_logo_parser.html#a397c25c39976e5a1fb689e1f0dd40160" target="_top" xlink:title="parser.LogoParser.eval">
<polygon fill="white" stroke="black" points="2420.5,-137.628 2420.5,-156.628 2545.5,-156.628 2545.5,-137.628 2420.5,-137.628"/>
<text text-anchor="middle" x="2483" y="-144.628" font-family="Helvetica,sans-Serif" font-size="10.00">parser.LogoParser.eval</text>
</a>
</g>
</g>
<!-- Node11&#45;&gt;Node13 -->
<g id="edge27" class="edge"><title>Node11&#45;&gt;Node13</title>
<path fill="none" stroke="midnightblue" d="M1877.27,-134.473C2005.9,-137.165 2293.46,-143.183 2420.1,-145.833"/>
<polygon fill="midnightblue" stroke="midnightblue" points="1877.25,-130.972 1867.18,-134.262 1877.1,-137.971 1877.25,-130.972"/>
</g>
<!-- Node14 -->
<g id="node14" class="node"><title>Node14</title>
<g id="a_node14"><a xlink:href="../../d5/d0e/classparser_1_1_logo_parser.html#a6b0ba0c2b5b0bc8c2ef76863fffdb6a3" target="_top" xlink:title="parser.LogoParser.list">
<polygon fill="white" stroke="black" points="2774.5,-99.6283 2774.5,-118.628 2893.5,-118.628 2893.5,-99.6283 2774.5,-99.6283"/>
<text text-anchor="middle" x="2834" y="-106.628" font-family="Helvetica,sans-Serif" font-size="10.00">parser.LogoParser.list</text>
</a>
</g>
</g>
<!-- Node11&#45;&gt;Node14 -->
<g id="edge29" class="edge"><title>Node11&#45;&gt;Node14</title>
<path fill="none" stroke="midnightblue" d="M1847.87,-113.211C1868.79,-102.026 1896.24,-88.6456 1922,-80.1283 2017.75,-48.4635 2044.15,-38.1283 2145,-38.1283 2145,-38.1283 2145,-38.1283 2484,-38.1283 2605.81,-38.1283 2746.82,-80.173 2805.34,-99.5529"/>
<polygon fill="midnightblue" stroke="midnightblue" points="1846.16,-110.159 1839.04,-118.009 1849.5,-116.309 1846.16,-110.159"/>
</g>
<!-- Node15 -->
<g id="node15" class="node"><title>Node15</title>
<g id="a_node15"><a xlink:href="../../d5/d0e/classparser_1_1_logo_parser.html#a4a8825534e0488215d22bcd947bc4d41" target="_top" xlink:title="parser.LogoParser.expression">
<polygon fill="white" stroke="black" points="2930.5,-26.6283 2930.5,-45.6283 3087.5,-45.6283 3087.5,-26.6283 2930.5,-26.6283"/>
<text text-anchor="middle" x="3009" y="-33.6283" font-family="Helvetica,sans-Serif" font-size="10.00">parser.LogoParser.expression</text>
</a>
</g>
</g>
<!-- Node11&#45;&gt;Node15 -->
<g id="edge28" class="edge"><title>Node11&#45;&gt;Node15</title>
<path fill="none" stroke="midnightblue" d="M1832.93,-110.568C1853.17,-89.1803 1886.51,-57.9001 1922,-41.1283 2013.11,1.92439 2044.23,-0.128293 2145,-0.128293 2145,-0.128293 2145,-0.128293 2661,-0.128293 2763.81,-0.128293 2882.85,-15.9569 2951.39,-26.6226"/>
<polygon fill="midnightblue" stroke="midnightblue" points="1830.32,-108.241 1826.09,-117.955 1835.45,-112.998 1830.32,-108.241"/>
</g>
<!-- Node25 -->
<g id="node25" class="node"><title>Node25</title>
<g id="a_node25"><a xlink:href="../../d5/d0e/classparser_1_1_logo_parser.html#ad6ed8e51959a6e19a2323444aa8331c8" target="_top" xlink:title="parser.LogoParser.statement">
<polygon fill="white" stroke="black" points="2582.5,-137.628 2582.5,-156.628 2737.5,-156.628 2737.5,-137.628 2582.5,-137.628"/>
<text text-anchor="middle" x="2660" y="-144.628" font-family="Helvetica,sans-Serif" font-size="10.00">parser.LogoParser.statement</text>
</a>
</g>
</g>
<!-- Node11&#45;&gt;Node25 -->
<g id="edge33" class="edge"><title>Node11&#45;&gt;Node25</title>
<path fill="none" stroke="midnightblue" d="M1876.76,-115.549C1943.19,-98.8025 2050.57,-76.1283 2145,-76.1283 2145,-76.1283 2145,-76.1283 2316,-76.1283 2435.8,-76.1283 2574.34,-118.173 2631.83,-137.553"/>
<polygon fill="midnightblue" stroke="midnightblue" points="1875.68,-112.212 1866.86,-118.078 1877.41,-118.994 1875.68,-112.212"/>
</g>
<!-- Node26 -->
<g id="node26" class="node"><title>Node26</title>
<g id="a_node26"><a xlink:href="../../d5/d0e/classparser_1_1_logo_parser.html#a4bdaeff6df067fde6743ff07370c3b0b" target="_top" xlink:title="parser.LogoParser.pow">
<polygon fill="white" stroke="black" points="1922,-218.628 1922,-237.628 2046,-237.628 2046,-218.628 1922,-218.628"/>
<text text-anchor="middle" x="1984" y="-225.628" font-family="Helvetica,sans-Serif" font-size="10.00">parser.LogoParser.pow</text>
</a>
</g>
</g>
<!-- Node11&#45;&gt;Node26 -->
<g id="edge30" class="edge"><title>Node11&#45;&gt;Node26</title>
<path fill="none" stroke="midnightblue" d="M1841.86,-154.242C1863.29,-169.334 1893.6,-189.482 1922,-204.128 1932.52,-209.553 1944.56,-214.531 1955.15,-218.53"/>
<polygon fill="midnightblue" stroke="midnightblue" points="1843.72,-151.266 1833.54,-148.319 1839.66,-156.969 1843.72,-151.266"/>
</g>
<!-- Node27 -->
<g id="node27" class="node"><title>Node27</title>
<g id="a_node27"><a xlink:href="../../d5/d0e/classparser_1_1_logo_parser.html#a34f4226672a2711ce2691162fdb2124d" target="_top" xlink:title="parser.LogoParser.term">
<polygon fill="white" stroke="black" points="2082,-199.628 2082,-218.628 2210,-218.628 2210,-199.628 2082,-199.628"/>
<text text-anchor="middle" x="2146" y="-206.628" font-family="Helvetica,sans-Serif" font-size="10.00">parser.LogoParser.term</text>
</a>
</g>
</g>
<!-- Node11&#45;&gt;Node27 -->
<g id="edge34" class="edge"><title>Node11&#45;&gt;Node27</title>
<path fill="none" stroke="midnightblue" d="M1868.64,-151.185C1885.66,-156.381 1904.51,-161.807 1922,-166.128 1977.5,-179.842 2041.67,-191.816 2086.89,-199.621"/>
<polygon fill="midnightblue" stroke="midnightblue" points="1869.44,-147.768 1858.85,-148.162 1867.37,-154.457 1869.44,-147.768"/>
</g>
<!-- Node12&#45;&gt;Node13 -->
<g id="edge12" class="edge"><title>Node12&#45;&gt;Node13</title>
<path fill="none" stroke="midnightblue" d="M2374.06,-168.586C2393.68,-164.686 2415.35,-160.378 2434.09,-156.652"/>
<polygon fill="midnightblue" stroke="midnightblue" points="2373.14,-165.201 2364.01,-170.583 2374.5,-172.066 2373.14,-165.201"/>
</g>
<!-- Node13&#45;&gt;Node14 -->
<g id="edge13" class="edge"><title>Node13&#45;&gt;Node14</title>
<path fill="none" stroke="midnightblue" d="M2537.06,-135.677C2551.58,-132.863 2567.35,-130.097 2582,-128.128 2647.62,-119.314 2723.48,-114.278 2774.47,-111.635"/>
<polygon fill="midnightblue" stroke="midnightblue" points="2536.37,-132.246 2527.24,-137.624 2537.73,-139.112 2536.37,-132.246"/>
</g>
<!-- Node13&#45;&gt;Node25 -->
<g id="edge25" class="edge"><title>Node13&#45;&gt;Node25</title>
<path fill="none" stroke="midnightblue" d="M2555.8,-147.128C2564.51,-147.128 2573.44,-147.128 2582.22,-147.128"/>
<polygon fill="midnightblue" stroke="midnightblue" points="2555.7,-143.628 2545.7,-147.128 2555.7,-150.628 2555.7,-143.628"/>
</g>
<!-- Node14&#45;&gt;Node15 -->
<g id="edge14" class="edge"><title>Node14&#45;&gt;Node15</title>
<path fill="none" stroke="midnightblue" d="M2867.2,-95.5422C2901.58,-81.0317 2955.2,-58.4088 2985.38,-45.6741"/>
<polygon fill="midnightblue" stroke="midnightblue" points="2865.47,-92.4724 2857.62,-99.5848 2868.19,-98.9217 2865.47,-92.4724"/>
</g>
<!-- Node16 -->
<g id="node16" class="node"><title>Node16</title>
<g id="a_node16"><a xlink:href="../../d5/d0e/classparser_1_1_logo_parser.html#adefe3b97ad0d2d7fd0dcd13f7ef2c75e" target="_top" xlink:title="parser.LogoParser.parse">
<polygon fill="white" stroke="black" points="2943,-99.6283 2943,-118.628 3075,-118.628 3075,-99.6283 2943,-99.6283"/>
<text text-anchor="middle" x="3009" y="-106.628" font-family="Helvetica,sans-Serif" font-size="10.00">parser.LogoParser.parse</text>
</a>
</g>
</g>
<!-- Node14&#45;&gt;Node16 -->
<g id="edge15" class="edge"><title>Node14&#45;&gt;Node16</title>
<path fill="none" stroke="midnightblue" d="M2903.78,-109.128C2916.7,-109.128 2930.16,-109.128 2942.95,-109.128"/>
<polygon fill="midnightblue" stroke="midnightblue" points="2903.57,-105.628 2893.57,-109.128 2903.57,-112.628 2903.57,-105.628"/>
</g>
<!-- Node17 -->
<g id="node17" class="node"><title>Node17</title>
<g id="a_node17"><a xlink:href="../../d6/d95/classparser_1_1_parser.html#af3d0cef45b9f02f1707959c08d8f3797" target="_top" xlink:title="parser.Parser.parse">
<polygon fill="white" stroke="black" points="3124.5,-99.6283 3124.5,-118.628 3233.5,-118.628 3233.5,-99.6283 3124.5,-99.6283"/>
<text text-anchor="middle" x="3179" y="-106.628" font-family="Helvetica,sans-Serif" font-size="10.00">parser.Parser.parse</text>
</a>
</g>
</g>
<!-- Node16&#45;&gt;Node17 -->
<g id="edge16" class="edge"><title>Node16&#45;&gt;Node17</title>
<path fill="none" stroke="midnightblue" d="M3085.8,-109.128C3098.83,-109.128 3112.12,-109.128 3124.41,-109.128"/>
<polygon fill="midnightblue" stroke="midnightblue" points="3085.43,-105.628 3075.43,-109.128 3085.43,-112.628 3085.43,-105.628"/>
</g>
<!-- Node18 -->
<g id="node18" class="node"><title>Node18</title>
<g id="a_node18"><a xlink:href="../../d4/d06/classinput_1_1_input_executor.html#a687a9f2cbed5d27a2c7b1336a1cab8aa" target="_top" xlink:title="input.InputExecutor.process\lInput">
<polygon fill="white" stroke="black" points="3270.5,-138.128 3270.5,-168.128 3419.5,-168.128 3419.5,-138.128 3270.5,-138.128"/>
<text text-anchor="start" x="3278.5" y="-156.128" font-family="Helvetica,sans-Serif" font-size="10.00">input.InputExecutor.process</text>
<text text-anchor="middle" x="3345" y="-145.128" font-family="Helvetica,sans-Serif" font-size="10.00">Input</text>
</a>
</g>
</g>
<!-- Node17&#45;&gt;Node18 -->
<g id="edge17" class="edge"><title>Node17&#45;&gt;Node18</title>
<path fill="none" stroke="midnightblue" d="M3225.36,-121.297C3244.7,-126.486 3267.46,-132.593 3287.85,-138.063"/>
<polygon fill="midnightblue" stroke="midnightblue" points="3226.15,-117.887 3215.59,-118.676 3224.34,-124.647 3226.15,-117.887"/>
</g>
<!-- Node19 -->
<g id="node19" class="node"><title>Node19</title>
<g id="a_node19"><a xlink:href="../../d6/d95/classparser_1_1_parser.html#ae90f8410be9931ec3f349085c8fdae71" target="_top" xlink:title="parser.Parser.parseFile">
<polygon fill="white" stroke="black" points="3283,-99.6283 3283,-118.628 3407,-118.628 3407,-99.6283 3283,-99.6283"/>
<text text-anchor="middle" x="3345" y="-106.628" font-family="Helvetica,sans-Serif" font-size="10.00">parser.Parser.parseFile</text>
</a>
</g>
</g>
<!-- Node17&#45;&gt;Node19 -->
<g id="edge18" class="edge"><title>Node17&#45;&gt;Node19</title>
<path fill="none" stroke="midnightblue" d="M3243.82,-109.128C3256.63,-109.128 3270.06,-109.128 3282.79,-109.128"/>
<polygon fill="midnightblue" stroke="midnightblue" points="3243.7,-105.628 3233.7,-109.128 3243.7,-112.628 3243.7,-105.628"/>
</g>
<!-- Node24 -->
<g id="node24" class="node"><title>Node24</title>
<g id="a_node24"><a xlink:href="../../d5/d56/class_workspace.html#a0ed8fb487512971086b6f3ed0d74e4ae" target="_top" xlink:title="Workspace.sendUserInput">
<polygon fill="white" stroke="black" points="3461,-57.6283 3461,-76.6283 3601,-76.6283 3601,-57.6283 3461,-57.6283"/>
<text text-anchor="middle" x="3531" y="-64.6283" font-family="Helvetica,sans-Serif" font-size="10.00">Workspace.sendUserInput</text>
</a>
</g>
</g>
<!-- Node17&#45;&gt;Node24 -->
<g id="edge23" class="edge"><title>Node17&#45;&gt;Node24</title>
<path fill="none" stroke="midnightblue" d="M3230.23,-97.4126C3243.14,-94.7092 3257.04,-92.0626 3270,-90.1283 3334.31,-80.5301 3408.22,-74.4655 3460.76,-70.9889"/>
<polygon fill="midnightblue" stroke="midnightblue" points="3229.18,-94.0595 3220.14,-99.5804 3230.65,-100.904 3229.18,-94.0595"/>
</g>
<!-- Node20 -->
<g id="node20" class="node"><title>Node20</title>
<g id="a_node20"><a xlink:href="../../d9/de8/class_file_chooser_feature.html#ad742b8e9d07e8151f0a9ff1972867ce8" target="_top" xlink:title="FileChooserFeature.openFile\lChooser">
<polygon fill="white" stroke="black" points="3456.5,-96.1283 3456.5,-126.128 3605.5,-126.128 3605.5,-96.1283 3456.5,-96.1283"/>
<text text-anchor="start" x="3464.5" y="-114.128" font-family="Helvetica,sans-Serif" font-size="10.00">FileChooserFeature.openFile</text>
<text text-anchor="middle" x="3531" y="-103.128" font-family="Helvetica,sans-Serif" font-size="10.00">Chooser</text>
</a>
</g>
</g>
<!-- Node19&#45;&gt;Node20 -->
<g id="edge19" class="edge"><title>Node19&#45;&gt;Node20</title>
<path fill="none" stroke="midnightblue" d="M3417.17,-109.902C3430.02,-110.042 3443.44,-110.187 3456.35,-110.328"/>
<polygon fill="midnightblue" stroke="midnightblue" points="3417.05,-106.4 3407.01,-109.791 3416.98,-113.4 3417.05,-106.4"/>
</g>
<!-- Node21 -->
<g id="node21" class="node"><title>Node21</title>
<g id="a_node21"><a xlink:href="../../d5/d56/class_workspace.html#a6babd032d9af86fbc23812272d59a2d2" target="_top" xlink:title="Workspace.addFeatureButtons">
<polygon fill="white" stroke="black" points="3642,-99.6283 3642,-118.628 3804,-118.628 3804,-99.6283 3642,-99.6283"/>
<text text-anchor="middle" x="3723" y="-106.628" font-family="Helvetica,sans-Serif" font-size="10.00">Workspace.addFeatureButtons</text>
</a>
</g>
</g>
<!-- Node20&#45;&gt;Node21 -->
<g id="edge20" class="edge"><title>Node20&#45;&gt;Node21</title>
<path fill="none" stroke="midnightblue" d="M3615.77,-110.247C3624.38,-110.156 3633.12,-110.064 3641.7,-109.974"/>
<polygon fill="midnightblue" stroke="midnightblue" points="3615.69,-106.747 3605.73,-110.352 3615.77,-113.747 3615.69,-106.747"/>
</g>
<!-- Node22 -->
<g id="node22" class="node"><title>Node22</title>
<g id="a_node22"><a xlink:href="../../d5/d56/class_workspace.html#a429d535dfd8427637b7715f0b1e1df1b" target="_top" xlink:title="Workspace.createWorkspace">
<polygon fill="white" stroke="black" points="3840,-79.6283 3840,-98.6283 3992,-98.6283 3992,-79.6283 3840,-79.6283"/>
<text text-anchor="middle" x="3916" y="-86.6283" font-family="Helvetica,sans-Serif" font-size="10.00">Workspace.createWorkspace</text>
</a>
</g>
</g>
<!-- Node21&#45;&gt;Node22 -->
<g id="edge21" class="edge"><title>Node21&#45;&gt;Node22</title>
<path fill="none" stroke="midnightblue" d="M3814.22,-99.6809C3822.82,-98.7804 3831.48,-97.874 3839.91,-96.9909"/>
<polygon fill="midnightblue" stroke="midnightblue" points="3813.75,-96.2109 3804.17,-100.733 3814.48,-103.173 3813.75,-96.2109"/>
</g>
<!-- Node23 -->
<g id="node23" class="node"><title>Node23</title>
<g id="a_node23"><a xlink:href="../../d0/d4b/class_main.html#aaa75b38812324d0f17c89f139bde6ada" target="_top" xlink:title="Main.start">
<polygon fill="white" stroke="black" points="4028.5,-79.6283 4028.5,-98.6283 4093.5,-98.6283 4093.5,-79.6283 4028.5,-79.6283"/>
<text text-anchor="middle" x="4061" y="-86.6283" font-family="Helvetica,sans-Serif" font-size="10.00">Main.start</text>
</a>
</g>
</g>
<!-- Node22&#45;&gt;Node23 -->
<g id="edge22" class="edge"><title>Node22&#45;&gt;Node23</title>
<path fill="none" stroke="midnightblue" d="M4002.39,-89.1283C4011.63,-89.1283 4020.55,-89.1283 4028.5,-89.1283"/>
<polygon fill="midnightblue" stroke="midnightblue" points="4002.27,-85.6284 3992.27,-89.1283 4002.27,-92.6284 4002.27,-85.6284"/>
</g>
<!-- Node24&#45;&gt;Node22 -->
<g id="edge24" class="edge"><title>Node24&#45;&gt;Node22</title>
<path fill="none" stroke="midnightblue" d="M3611.47,-71.6929C3678.6,-75.5494 3774.08,-81.0335 3839.94,-84.8165"/>
<polygon fill="midnightblue" stroke="midnightblue" points="3611.54,-68.1916 3601.36,-71.1123 3611.14,-75.1801 3611.54,-68.1916"/>
</g>
<!-- Node25&#45;&gt;Node14 -->
<g id="edge26" class="edge"><title>Node25&#45;&gt;Node14</title>
<path fill="none" stroke="midnightblue" d="M2714.2,-135.376C2738.52,-130.003 2766.95,-123.72 2789.91,-118.648"/>
<polygon fill="midnightblue" stroke="midnightblue" points="2713.41,-131.964 2704.4,-137.539 2714.92,-138.8 2713.41,-131.964"/>
</g>
<!-- Node26&#45;&gt;Node27 -->
<g id="edge31" class="edge"><title>Node26&#45;&gt;Node27</title>
<path fill="none" stroke="midnightblue" d="M2056.6,-219.625C2065.04,-218.624 2073.6,-217.607 2081.91,-216.621"/>
<polygon fill="midnightblue" stroke="midnightblue" points="2055.92,-216.182 2046.4,-220.837 2056.75,-223.133 2055.92,-216.182"/>
</g>
<!-- Node27&#45;&gt;Node12 -->
<g id="edge32" class="edge"><title>Node27&#45;&gt;Node12</title>
<path fill="none" stroke="midnightblue" d="M2212.21,-197.805C2227.75,-195.106 2244.18,-192.253 2259.2,-189.645"/>
<polygon fill="midnightblue" stroke="midnightblue" points="2211.4,-194.393 2202.14,-199.552 2212.6,-201.29 2211.4,-194.393"/>
</g>
<!-- Node28&#45;&gt;Node12 -->
<g id="edge36" class="edge"><title>Node28&#45;&gt;Node12</title>
<path fill="none" stroke="midnightblue" d="M1887.48,-299.342C1933.49,-295.516 1993.56,-288.951 2046,-278.128 2120.63,-262.726 2138.8,-255.269 2210,-228.128 2240.47,-216.513 2274.58,-200.08 2295.17,-189.77"/>
<polygon fill="midnightblue" stroke="midnightblue" points="1886.97,-295.871 1877.29,-300.164 1887.54,-302.848 1886.97,-295.871"/>
</g>
<!-- Node28&#45;&gt;Node13 -->
<g id="edge37" class="edge"><title>Node28&#45;&gt;Node13</title>
<path fill="none" stroke="midnightblue" d="M1887.18,-307.109C1933.09,-307.98 1993.15,-307.361 2046,-301.128 2201.83,-282.751 2240.9,-263.494 2384,-199.128 2413.51,-185.855 2446.49,-167.608 2465.68,-156.632"/>
<polygon fill="midnightblue" stroke="midnightblue" points="1887.09,-303.607 1877.02,-306.888 1886.94,-310.605 1887.09,-303.607"/>
</g>
<!-- Node28&#45;&gt;Node14 -->
<g id="edge38" class="edge"><title>Node28&#45;&gt;Node14</title>
<path fill="none" stroke="midnightblue" d="M1873.76,-317.144C1878.01,-318.897 1882.14,-320.882 1886,-323.128 1905.83,-334.665 1902.17,-348.593 1922,-360.128 2010.53,-411.614 2042.59,-418.128 2145,-418.128 2145,-418.128 2145,-418.128 2484,-418.128 2669.32,-418.128 2802.36,-170.871 2828.36,-118.715"/>
<polygon fill="midnightblue" stroke="midnightblue" points="1874.88,-313.83 1864.29,-313.664 1872.47,-320.4 1874.88,-313.83"/>
</g>
<!-- Node28&#45;&gt;Node25 -->
<g id="edge40" class="edge"><title>Node28&#45;&gt;Node25</title>
<path fill="none" stroke="midnightblue" d="M1860.26,-316.182C1945.02,-337.615 2116.7,-380.128 2145,-380.128 2145,-380.128 2145,-380.128 2316,-380.128 2477.61,-380.128 2619.56,-200.94 2652.04,-156.843"/>
<polygon fill="midnightblue" stroke="midnightblue" points="1860.92,-312.739 1850.37,-313.677 1859.2,-319.525 1860.92,-312.739"/>
</g>
<!-- Node28&#45;&gt;Node26 -->
<g id="edge39" class="edge"><title>Node28&#45;&gt;Node26</title>
<path fill="none" stroke="midnightblue" d="M1841.16,-290.023C1863.02,-279.237 1894.19,-264.213 1922,-252.128 1933.59,-247.093 1946.59,-241.912 1957.61,-237.659"/>
<polygon fill="midnightblue" stroke="midnightblue" points="1839.51,-286.933 1832.11,-294.51 1842.62,-293.205 1839.51,-286.933"/>
</g>
<!-- Node28&#45;&gt;Node27 -->
<g id="edge41" class="edge"><title>Node28&#45;&gt;Node27</title>
<path fill="none" stroke="midnightblue" d="M1869.25,-292.464C1916.78,-282.109 1986.45,-265.76 2046,-247.128 2072.71,-238.773 2102.6,-226.943 2122.48,-218.71"/>
<polygon fill="midnightblue" stroke="midnightblue" points="1868.49,-289.048 1859.45,-294.581 1869.97,-295.89 1868.49,-289.048"/>
</g>
</g>
</svg>
        <g id="navigator" transform="translate(0 0)" fill="#404254">
                <rect fill="#f2f5e9" fill-opacity="0.5" stroke="#606060" stroke-width=".5" x="0" y="0" width="60" height="60"/>
                <use id="zoomplus" xlink:href="#zoomPlus" x="17" y="9" onmousedown="handleZoom(evt,'in')"/>
                <use id="zoomminus" xlink:href="#zoomMin" x="42" y="9" onmousedown="handleZoom(evt,'out')"/>
                <use id="reset" xlink:href="#resetDef" x="30" y="36" onmousedown="handleReset()"/>
                <g id="arrowUp" xlink:href="#dirArrow" transform="translate(30 24)" onmousedown="handlePan(0,-1)">
                  <use xlink:href="#rim" fill="#404040">
                        <set attributeName="fill" to="#808080" begin="arrowUp.mouseover" end="arrowUp.mouseout"/>
                  </use>
                  <path fill="none" stroke="white" stroke-width="1.5" d="M0,-3.0v7 M-2.5,-0.5L0,-3.0L2.5,-0.5"/>
                </g>
                <g id="arrowRight" xlink:href="#dirArrow" transform="rotate(90) translate(36 -43)" onmousedown="handlePan(1,0)">
                  <use xlink:href="#rim" fill="#404040">
                        <set attributeName="fill" to="#808080" begin="arrowRight.mouseover" end="arrowRight.mouseout"/>
                  </use>
                  <path fill="none" stroke="white" stroke-width="1.5" d="M0,-3.0v7 M-2.5,-0.5L0,-3.0L2.5,-0.5"/>
                </g>
                <g id="arrowDown" xlink:href="#dirArrow" transform="rotate(180) translate(-30 -48)" onmousedown="handlePan(0,1)">
                  <use xlink:href="#rim" fill="#404040">
                        <set attributeName="fill" to="#808080" begin="arrowDown.mouseover" end="arrowDown.mouseout"/>
                  </use>
                  <path fill="none" stroke="white" stroke-width="1.5" d="M0,-3.0v7 M-2.5,-0.5L0,-3.0L2.5,-0.5"/>
                </g>
                <g id="arrowLeft" xlink:href="#dirArrow" transform="rotate(270) translate(-36 17)" onmousedown="handlePan(-1,0)">
                  <use xlink:href="#rim" fill="#404040">
                        <set attributeName="fill" to="#808080" begin="arrowLeft.mouseover" end="arrowLeft.mouseout"/>
                  </use>
                  <path fill="none" stroke="white" stroke-width="1.5" d="M0,-3.0v7 M-2.5,-0.5L0,-3.0L2.5,-0.5"/>
                </g>
        </g>
        <svg viewBox="0 0 15 15" width="100%" height="30px" preserveAspectRatio="xMaxYMin meet">
         <g id="arrow_out" transform="scale(0.3 0.3)">
          <a xlink:href="classparser_1_1_logo_parser_token_manager_a1bad232a9ce95d19e7133cbee0b538b5_icgraph_org.svg" target="_base">
           <rect id="button" ry="5" rx="5" y="6" x="6" height="38" width="38"
                fill="#f2f5e9" fill-opacity="0.5" stroke="#606060" stroke-width="1.0"/>
           <path id="arrow"
             d="M 11.500037,31.436501 C 11.940474,20.09759 22.043105,11.32322 32.158766,21.979434 L 37.068811,17.246167 C 37.068811,17.246167 37.088388,32 37.088388,32 L 22.160133,31.978069 C 22.160133,31.978069 26.997745,27.140456 26.997745,27.140456 C 18.528582,18.264221 13.291696,25.230495 11.500037,31.436501 z"
             style="fill:#404040;"/>
          </a>
         </g>
        </svg>
</svg>
