<?xml version="1.0" encoding="UTF-8" standalone="no"?>
<!DOCTYPE svg PUBLIC "-//W3C//DTD SVG 1.1//EN"
 "http://www.w3.org/Graphics/SVG/1.1/DTD/svg11.dtd">
<!-- Generated by graphviz version 2.36.0 (20140111.2315)
 -->
<!-- Title: parser.LogoParserTokenManager.jjMoveStringLiteralDfa1_0 Pages: 1 -->
<!--zoomable 742 -->
<svg id="main" version="1.1" xmlns="http://www.w3.org/2000/svg" xmlns:xlink="http://www.w3.org/1999/xlink" xml:space="preserve" onload="init(evt)">
<style type="text/css"><![CDATA[
.edge:hover path { stroke: red; }
.edge:hover polygon { stroke: red; fill: red; }
]]></style>
<script type="text/javascript"><![CDATA[
var edges = document.getElementsByTagName('g');
if (edges && edges.length) {
  for (var i=0;i<edges.length;i++) {
    if (edges[i].id.substr(0,4)=='edge') {
      edges[i].setAttribute('class','edge');
    }
  }
}
]]></script>
        <defs>
                <circle id="rim" cx="0" cy="0" r="7"/>
                <circle id="rim2" cx="0" cy="0" r="3.5"/>
                <g id="zoomPlus">
                        <use xlink:href="#rim" fill="#404040">
                                <set attributeName="fill" to="#808080" begin="zoomplus.mouseover" end="zoomplus.mouseout"/>
                        </use>
                        <path d="M-4,0h8M0,-4v8" fill="none" stroke="white" stroke-width="1.5" pointer-events="none"/>
                </g>
                <g id="zoomMin">
                        <use xlink:href="#rim" fill="#404040">
                                <set attributeName="fill" to="#808080" begin="zoomminus.mouseover" end="zoomminus.mouseout"/>
                        </use>
                        <path d="M-4,0h8" fill="none" stroke="white" stroke-width="1.5" pointer-events="none"/>
                </g>
                <g id="dirArrow">
                        <path fill="none" stroke="white" stroke-width="1.5" d="M0,-3.0v7 M-2.5,-0.5L0,-3.0L2.5,-0.5"/>
                </g>
               <g id="resetDef">
                       <use xlink:href="#rim2" fill="#404040">
                               <set attributeName="fill" to="#808080" begin="reset.mouseover" end="reset.mouseout"/>
                       </use>
               </g>
        </defs>

<script type="text/javascript">
var viewWidth = 2356;
var viewHeight = 742;
var sectionId = 'dynsection-17';
</script>
<script xlink:href="../../svgpan.js"/>
<svg id="graph" class="graph">
<g id="viewport">
<title>parser.LogoParserTokenManager.jjMoveStringLiteralDfa1_0</title>
<polygon fill="white" stroke="none" points="-4,4 -4,-738 2352,-738 2352,4 -4,4"/>
<!-- Node1 -->
<g id="node1" class="node"><title>Node1</title>
<polygon fill="#bfbfbf" stroke="black" points="0.5,-671 0.5,-701 179.5,-701 179.5,-671 0.5,-671"/>
<text text-anchor="start" x="8.5" y="-689" font-family="Helvetica,sans-Serif" font-size="10.00">parser.LogoParserTokenManager.jj</text>
<text text-anchor="middle" x="90" y="-678" font-family="Helvetica,sans-Serif" font-size="10.00">MoveStringLiteralDfa1_0</text>
</g>
<!-- Node2 -->
<g id="node2" class="node"><title>Node2</title>
<g id="a_node2"><a xlink:href="../../d0/d8c/classparser_1_1_logo_parser_token_manager.html#a26eaeb3ef169f93c03edbb3e26128b7a" target="_top" xlink:title="parser.LogoParserTokenManager.jj\lMoveStringLiteralDfa2_0">
<polygon fill="white" stroke="black" points="216.5,-522 216.5,-552 395.5,-552 395.5,-522 216.5,-522"/>
<text text-anchor="start" x="224.5" y="-540" font-family="Helvetica,sans-Serif" font-size="10.00">parser.LogoParserTokenManager.jj</text>
<text text-anchor="middle" x="306" y="-529" font-family="Helvetica,sans-Serif" font-size="10.00">MoveStringLiteralDfa2_0</text>
</a>
</g>
</g>
<!-- Node1&#45;&gt;Node2 -->
<g id="edge1" class="edge"><title>Node1&#45;&gt;Node2</title>
<path fill="none" stroke="midnightblue" d="M112.697,-670.893C151.15,-644.12 231.311,-588.307 275.014,-557.878"/>
<polygon fill="midnightblue" stroke="midnightblue" points="277.039,-560.733 283.245,-552.147 273.039,-554.989 277.039,-560.733"/>
</g>
<!-- Node3 -->
<g id="node3" class="node"><title>Node3</title>
<g id="a_node3"><a xlink:href="../../d0/d8c/classparser_1_1_logo_parser_token_manager.html#aa065c8b0c977d3c1c9d9058f96664080" target="_top" xlink:title="parser.LogoParserTokenManager.jj\lStartNfa_0">
<polygon fill="white" stroke="black" points="1296.5,-434 1296.5,-464 1475.5,-464 1475.5,-434 1296.5,-434"/>
<text text-anchor="start" x="1304.5" y="-452" font-family="Helvetica,sans-Serif" font-size="10.00">parser.LogoParserTokenManager.jj</text>
<text text-anchor="middle" x="1386" y="-441" font-family="Helvetica,sans-Serif" font-size="10.00">StartNfa_0</text>
</a>
</g>
</g>
<!-- Node1&#45;&gt;Node3 -->
<g id="edge43" class="edge"><title>Node1&#45;&gt;Node3</title>
<path fill="none" stroke="midnightblue" d="M179.516,-689.261C266.442,-692.179 402.83,-696 521,-696 521,-696 521,-696 739,-696 976.323,-696 1069.62,-720.7 1260,-579 1284.95,-560.432 1275.44,-542.331 1296,-519 1312.53,-500.242 1334.6,-482.845 1352.63,-470.086"/>
<polygon fill="midnightblue" stroke="midnightblue" points="1354.89,-472.781 1361.12,-464.209 1350.9,-467.027 1354.89,-472.781"/>
</g>
<!-- Node9 -->
<g id="node9" class="node"><title>Node9</title>
<g id="a_node9"><a xlink:href="../../d4/dad/classparser_1_1_simple_char_stream.html#a9f80cee02b99e8e200afa646e3b25e29" target="_top" xlink:title="parser.SimpleCharStream.readChar">
<polygon fill="white" stroke="black" points="1728,-332.5 1728,-351.5 1916,-351.5 1916,-332.5 1728,-332.5"/>
<text text-anchor="middle" x="1822" y="-339.5" font-family="Helvetica,sans-Serif" font-size="10.00">parser.SimpleCharStream.readChar</text>
</a>
</g>
</g>
<!-- Node1&#45;&gt;Node9 -->
<g id="edge45" class="edge"><title>Node1&#45;&gt;Node9</title>
<path fill="none" stroke="midnightblue" d="M175.541,-701.056C262.029,-715.133 400.438,-734 521,-734 521,-734 521,-734 955,-734 1198.02,-734 1256.22,-671.72 1476,-568 1573.07,-522.193 1603.55,-520.805 1692,-460 1736.94,-429.103 1782.35,-383.444 1805.43,-358.969"/>
<polygon fill="midnightblue" stroke="midnightblue" points="1808.1,-361.232 1812.36,-351.532 1802.98,-356.457 1808.1,-361.232"/>
</g>
<!-- Node15 -->
<g id="node15" class="node"><title>Node15</title>
<g id="a_node15"><a xlink:href="../../d0/d8c/classparser_1_1_logo_parser_token_manager.html#a1f212a863542f9f3993faf51bb46ae8e" target="_top" xlink:title="parser.LogoParserTokenManager.jj\lStopStringLiteralDfa_0">
<polygon fill="white" stroke="black" points="1512.5,-213 1512.5,-243 1691.5,-243 1691.5,-213 1512.5,-213"/>
<text text-anchor="start" x="1520.5" y="-231" font-family="Helvetica,sans-Serif" font-size="10.00">parser.LogoParserTokenManager.jj</text>
<text text-anchor="middle" x="1602" y="-220" font-family="Helvetica,sans-Serif" font-size="10.00">StopStringLiteralDfa_0</text>
</a>
</g>
</g>
<!-- Node1&#45;&gt;Node15 -->
<g id="edge44" class="edge"><title>Node1&#45;&gt;Node15</title>
<path fill="none" stroke="midnightblue" d="M93.22,-670.936C108.478,-573.642 206.751,-38 521,-38 521,-38 521,-38 1171,-38 1311.96,-38 1351.2,-59.4648 1476,-125 1516.49,-146.259 1555.97,-182.071 1579.4,-205.369"/>
<polygon fill="midnightblue" stroke="midnightblue" points="1577.18,-208.105 1586.7,-212.751 1582.16,-203.181 1577.18,-208.105"/>
</g>
<!-- Node2&#45;&gt;Node3 -->
<g id="edge2" class="edge"><title>Node2&#45;&gt;Node3</title>
<path fill="none" stroke="midnightblue" d="M353.517,-552.031C431.792,-575.949 595.203,-620 737,-620 737,-620 737,-620 955,-620 1115.69,-620 1287.78,-515.609 1355.36,-469.955"/>
<polygon fill="midnightblue" stroke="midnightblue" points="1357.54,-472.706 1363.82,-464.175 1353.59,-466.926 1357.54,-472.706"/>
</g>
<!-- Node2&#45;&gt;Node9 -->
<g id="edge17" class="edge"><title>Node2&#45;&gt;Node9</title>
<path fill="none" stroke="midnightblue" d="M307.697,-521.892C311.067,-465.451 330.038,-264.214 432,-147 530.761,-33.4659 586.522,-0 737,-0 737,-0 737,-0 1387,-0 1462.03,-0 1662.4,-78.3299 1692,-104 1763.51,-166.013 1802.34,-277.752 1815.66,-322.598"/>
<polygon fill="midnightblue" stroke="midnightblue" points="1812.31,-323.617 1818.43,-332.262 1819.04,-321.684 1812.31,-323.617"/>
</g>
<!-- Node2&#45;&gt;Node15 -->
<g id="edge18" class="edge"><title>Node2&#45;&gt;Node15</title>
<path fill="none" stroke="midnightblue" d="M313.152,-521.945C345.047,-446.592 499.287,-114 737,-114 737,-114 737,-114 1171,-114 1317.46,-114 1482.9,-176.558 1558.82,-208.99"/>
<polygon fill="midnightblue" stroke="midnightblue" points="1557.5,-212.23 1568.06,-212.979 1560.27,-205.803 1557.5,-212.23"/>
</g>
<!-- Node16 -->
<g id="node16" class="node"><title>Node16</title>
<g id="a_node16"><a xlink:href="../../d0/d8c/classparser_1_1_logo_parser_token_manager.html#ab983b76c64f4c06ba9c5469d87e6eddd" target="_top" xlink:title="parser.LogoParserTokenManager.jj\lStopAtPos">
<polygon fill="white" stroke="black" points="432.5,-522 432.5,-552 611.5,-552 611.5,-522 432.5,-522"/>
<text text-anchor="start" x="440.5" y="-540" font-family="Helvetica,sans-Serif" font-size="10.00">parser.LogoParserTokenManager.jj</text>
<text text-anchor="middle" x="522" y="-529" font-family="Helvetica,sans-Serif" font-size="10.00">StopAtPos</text>
</a>
</g>
</g>
<!-- Node2&#45;&gt;Node16 -->
<g id="edge19" class="edge"><title>Node2&#45;&gt;Node16</title>
<path fill="none" stroke="midnightblue" d="M395.587,-537C404.442,-537 413.472,-537 422.422,-537"/>
<polygon fill="midnightblue" stroke="midnightblue" points="422.48,-540.5 432.48,-537 422.48,-533.5 422.48,-540.5"/>
</g>
<!-- Node17 -->
<g id="node17" class="node"><title>Node17</title>
<g id="a_node17"><a xlink:href="../../d0/d8c/classparser_1_1_logo_parser_token_manager.html#a12bfedaecfaf646642cb1aba5b1bd6fb" target="_top" xlink:title="parser.LogoParserTokenManager.jj\lMoveStringLiteralDfa3_0">
<polygon fill="white" stroke="black" points="432.5,-398 432.5,-428 611.5,-428 611.5,-398 432.5,-398"/>
<text text-anchor="start" x="440.5" y="-416" font-family="Helvetica,sans-Serif" font-size="10.00">parser.LogoParserTokenManager.jj</text>
<text text-anchor="middle" x="522" y="-405" font-family="Helvetica,sans-Serif" font-size="10.00">MoveStringLiteralDfa3_0</text>
</a>
</g>
</g>
<!-- Node2&#45;&gt;Node17 -->
<g id="edge20" class="edge"><title>Node2&#45;&gt;Node17</title>
<path fill="none" stroke="midnightblue" d="M333.241,-521.795C371.69,-499.516 443.401,-457.964 486.207,-433.161"/>
<polygon fill="midnightblue" stroke="midnightblue" points="487.982,-436.177 494.88,-428.135 484.473,-430.12 487.982,-436.177"/>
</g>
<!-- Node21 -->
<g id="node21" class="node"><title>Node21</title>
<g id="a_node21"><a xlink:href="../../d0/d8c/classparser_1_1_logo_parser_token_manager.html#a94b20a17d94554012918e876be221c46" target="_top" xlink:title="parser.LogoParserTokenManager.jj\lStartNfaWithStates_0">
<polygon fill="white" stroke="black" points="1296.5,-529 1296.5,-559 1475.5,-559 1475.5,-529 1296.5,-529"/>
<text text-anchor="start" x="1304.5" y="-547" font-family="Helvetica,sans-Serif" font-size="10.00">parser.LogoParserTokenManager.jj</text>
<text text-anchor="middle" x="1386" y="-536" font-family="Helvetica,sans-Serif" font-size="10.00">StartNfaWithStates_0</text>
</a>
</g>
</g>
<!-- Node2&#45;&gt;Node21 -->
<g id="edge42" class="edge"><title>Node2&#45;&gt;Node21</title>
<path fill="none" stroke="midnightblue" d="M320.095,-552.191C341.003,-575.144 384.444,-617.712 432,-634 606.074,-693.618 1084.88,-690.483 1260,-634 1301.16,-620.725 1340.2,-588.306 1363.37,-566.228"/>
<polygon fill="midnightblue" stroke="midnightblue" points="1365.89,-568.666 1370.6,-559.18 1361,-563.654 1365.89,-568.666"/>
</g>
<!-- Node4 -->
<g id="node4" class="node"><title>Node4</title>
<g id="a_node4"><a xlink:href="../../d0/d8c/classparser_1_1_logo_parser_token_manager.html#a0071f141b41b403c8ab151c8c014a709" target="_top" xlink:title="parser.LogoParserTokenManager.jj\lMoveNfa_0">
<polygon fill="white" stroke="black" points="1512.5,-581 1512.5,-611 1691.5,-611 1691.5,-581 1512.5,-581"/>
<text text-anchor="start" x="1520.5" y="-599" font-family="Helvetica,sans-Serif" font-size="10.00">parser.LogoParserTokenManager.jj</text>
<text text-anchor="middle" x="1602" y="-588" font-family="Helvetica,sans-Serif" font-size="10.00">MoveNfa_0</text>
</a>
</g>
</g>
<!-- Node3&#45;&gt;Node4 -->
<g id="edge3" class="edge"><title>Node3&#45;&gt;Node4</title>
<path fill="none" stroke="midnightblue" d="M1409.1,-464.178C1447.56,-490.6 1526.88,-545.085 1570.53,-575.073"/>
<polygon fill="midnightblue" stroke="midnightblue" points="1568.8,-578.128 1579.02,-580.905 1572.76,-572.358 1568.8,-578.128"/>
</g>
<!-- Node3&#45;&gt;Node15 -->
<g id="edge16" class="edge"><title>Node3&#45;&gt;Node15</title>
<path fill="none" stroke="midnightblue" d="M1401.71,-433.81C1438.75,-395.552 1536.03,-295.093 1579.49,-250.213"/>
<polygon fill="midnightblue" stroke="midnightblue" points="1582.03,-252.623 1586.47,-243.004 1577,-247.754 1582.03,-252.623"/>
</g>
<!-- Node5 -->
<g id="node5" class="node"><title>Node5</title>
<g id="a_node5"><a xlink:href="../../d0/d8c/classparser_1_1_logo_parser_token_manager.html#ad31cdd6db411f95b045686c2053f42fa" target="_top" xlink:title="parser.LogoParserTokenManager.jj\lAddStates">
<polygon fill="white" stroke="black" points="1732.5,-625 1732.5,-655 1911.5,-655 1911.5,-625 1732.5,-625"/>
<text text-anchor="start" x="1740.5" y="-643" font-family="Helvetica,sans-Serif" font-size="10.00">parser.LogoParserTokenManager.jj</text>
<text text-anchor="middle" x="1822" y="-632" font-family="Helvetica,sans-Serif" font-size="10.00">AddStates</text>
</a>
</g>
</g>
<!-- Node4&#45;&gt;Node5 -->
<g id="edge4" class="edge"><title>Node4&#45;&gt;Node5</title>
<path fill="none" stroke="midnightblue" d="M1677.41,-611.019C1696.51,-614.874 1717.19,-619.048 1736.75,-622.995"/>
<polygon fill="midnightblue" stroke="midnightblue" points="1736.06,-626.426 1746.55,-624.974 1737.44,-619.564 1736.06,-626.426"/>
</g>
<!-- Node6 -->
<g id="node6" class="node"><title>Node6</title>
<g id="a_node6"><a xlink:href="../../d0/d8c/classparser_1_1_logo_parser_token_manager.html#af1b1635a624926faf7741958cc140de4" target="_top" xlink:title="parser.LogoParserTokenManager.jj\lCheckNAdd">
<polygon fill="white" stroke="black" points="1952.5,-537 1952.5,-567 2131.5,-567 2131.5,-537 1952.5,-537"/>
<text text-anchor="start" x="1960.5" y="-555" font-family="Helvetica,sans-Serif" font-size="10.00">parser.LogoParserTokenManager.jj</text>
<text text-anchor="middle" x="2042" y="-544" font-family="Helvetica,sans-Serif" font-size="10.00">CheckNAdd</text>
</a>
</g>
</g>
<!-- Node4&#45;&gt;Node6 -->
<g id="edge5" class="edge"><title>Node4&#45;&gt;Node6</title>
<path fill="none" stroke="midnightblue" d="M1691.65,-593.31C1754.48,-590.678 1840.65,-585.602 1916,-576 1930.6,-574.139 1946.07,-571.621 1960.97,-568.914"/>
<polygon fill="midnightblue" stroke="midnightblue" points="1961.98,-572.286 1971.17,-567.016 1960.7,-565.404 1961.98,-572.286"/>
</g>
<!-- Node7 -->
<g id="node7" class="node"><title>Node7</title>
<g id="a_node7"><a xlink:href="../../d0/d8c/classparser_1_1_logo_parser_token_manager.html#ac4047538420e7ceceec16698b354cd62" target="_top" xlink:title="parser.LogoParserTokenManager.jj\lCheckNAddStates">
<polygon fill="white" stroke="black" points="1732.5,-537 1732.5,-567 1911.5,-567 1911.5,-537 1732.5,-537"/>
<text text-anchor="start" x="1740.5" y="-555" font-family="Helvetica,sans-Serif" font-size="10.00">parser.LogoParserTokenManager.jj</text>
<text text-anchor="middle" x="1822" y="-544" font-family="Helvetica,sans-Serif" font-size="10.00">CheckNAddStates</text>
</a>
</g>
</g>
<!-- Node4&#45;&gt;Node7 -->
<g id="edge6" class="edge"><title>Node4&#45;&gt;Node7</title>
<path fill="none" stroke="midnightblue" d="M1677.41,-580.981C1696.51,-577.126 1717.19,-572.952 1736.75,-569.005"/>
<polygon fill="midnightblue" stroke="midnightblue" points="1737.44,-572.436 1746.55,-567.026 1736.06,-565.574 1737.44,-572.436"/>
</g>
<!-- Node8 -->
<g id="node8" class="node"><title>Node8</title>
<g id="a_node8"><a xlink:href="../../d0/d8c/classparser_1_1_logo_parser_token_manager.html#a8f9adc17a4a9b201128786ca145783e8" target="_top" xlink:title="parser.LogoParserTokenManager.jj\lCheckNAddTwoStates">
<polygon fill="white" stroke="black" points="1732.5,-488 1732.5,-518 1911.5,-518 1911.5,-488 1732.5,-488"/>
<text text-anchor="start" x="1740.5" y="-506" font-family="Helvetica,sans-Serif" font-size="10.00">parser.LogoParserTokenManager.jj</text>
<text text-anchor="middle" x="1822" y="-495" font-family="Helvetica,sans-Serif" font-size="10.00">CheckNAddTwoStates</text>
</a>
</g>
</g>
<!-- Node4&#45;&gt;Node8 -->
<g id="edge8" class="edge"><title>Node4&#45;&gt;Node8</title>
<path fill="none" stroke="midnightblue" d="M1661.45,-580.985C1672.06,-576.977 1682.7,-572.032 1692,-566 1711.79,-553.167 1707.75,-539.107 1728,-527 1730.86,-525.288 1733.84,-523.698 1736.91,-522.219"/>
<polygon fill="midnightblue" stroke="midnightblue" points="1738.56,-525.319 1746.33,-518.114 1735.76,-518.902 1738.56,-525.319"/>
</g>
<!-- Node4&#45;&gt;Node9 -->
<g id="edge10" class="edge"><title>Node4&#45;&gt;Node9</title>
<path fill="none" stroke="midnightblue" d="M1669.35,-580.911C1677.62,-577.023 1685.46,-572.138 1692,-566 1722.81,-537.079 1707.96,-515.204 1728,-478 1752.15,-433.171 1787.68,-384.927 1807.09,-359.694"/>
<polygon fill="midnightblue" stroke="midnightblue" points="1809.87,-361.817 1813.24,-351.771 1804.34,-357.526 1809.87,-361.817"/>
</g>
<!-- Node14 -->
<g id="node14" class="node"><title>Node14</title>
<g id="a_node14"><a xlink:href="../../d0/d8c/classparser_1_1_logo_parser_token_manager.html#a5923cb696d0a55f99661625200327816" target="_top" xlink:title="parser.LogoParserTokenManager.\lReInitRounds">
<polygon fill="white" stroke="black" points="1735,-674 1735,-704 1909,-704 1909,-674 1735,-674"/>
<text text-anchor="start" x="1743" y="-692" font-family="Helvetica,sans-Serif" font-size="10.00">parser.LogoParserTokenManager.</text>
<text text-anchor="middle" x="1822" y="-681" font-family="Helvetica,sans-Serif" font-size="10.00">ReInitRounds</text>
</a>
</g>
</g>
<!-- Node4&#45;&gt;Node14 -->
<g id="edge15" class="edge"><title>Node4&#45;&gt;Node14</title>
<path fill="none" stroke="midnightblue" d="M1626.61,-611.042C1651.15,-626.143 1691.07,-649.231 1728,-664 1734.15,-666.461 1740.63,-668.759 1747.19,-670.886"/>
<polygon fill="midnightblue" stroke="midnightblue" points="1746.23,-674.253 1756.81,-673.878 1748.3,-667.568 1746.23,-674.253"/>
</g>
<!-- Node7&#45;&gt;Node6 -->
<g id="edge7" class="edge"><title>Node7&#45;&gt;Node6</title>
<path fill="none" stroke="midnightblue" d="M1911.67,-552C1921.75,-552 1932.07,-552 1942.27,-552"/>
<polygon fill="midnightblue" stroke="midnightblue" points="1942.41,-555.5 1952.41,-552 1942.41,-548.5 1942.41,-555.5"/>
</g>
<!-- Node8&#45;&gt;Node6 -->
<g id="edge9" class="edge"><title>Node8&#45;&gt;Node6</title>
<path fill="none" stroke="midnightblue" d="M1889.89,-518.035C1913.43,-523.326 1940.07,-529.313 1964.35,-534.771"/>
<polygon fill="midnightblue" stroke="midnightblue" points="1963.71,-538.216 1974.24,-536.994 1965.25,-531.386 1963.71,-538.216"/>
</g>
<!-- Node10 -->
<g id="node10" class="node"><title>Node10</title>
<g id="a_node10"><a xlink:href="../../d4/dad/classparser_1_1_simple_char_stream.html#aac1dcd2a238adbc951d3af740cc2aa13" target="_top" xlink:title="parser.SimpleCharStream.\lFillBuff">
<polygon fill="white" stroke="black" points="1970,-303 1970,-333 2114,-333 2114,-303 1970,-303"/>
<text text-anchor="start" x="1978" y="-321" font-family="Helvetica,sans-Serif" font-size="10.00">parser.SimpleCharStream.</text>
<text text-anchor="middle" x="2042" y="-310" font-family="Helvetica,sans-Serif" font-size="10.00">FillBuff</text>
</a>
</g>
</g>
<!-- Node9&#45;&gt;Node10 -->
<g id="edge11" class="edge"><title>Node9&#45;&gt;Node10</title>
<path fill="none" stroke="midnightblue" d="M1909.47,-332.48C1926.01,-330.659 1943.27,-328.759 1959.64,-326.957"/>
<polygon fill="midnightblue" stroke="midnightblue" points="1960.15,-330.422 1969.71,-325.849 1959.39,-323.464 1960.15,-330.422"/>
</g>
<!-- Node13 -->
<g id="node13" class="node"><title>Node13</title>
<g id="a_node13"><a xlink:href="../../d4/dad/classparser_1_1_simple_char_stream.html#ad8ca3472934b9d38c005c8885d859403" target="_top" xlink:title="parser.SimpleCharStream.\lUpdateLineColumn">
<polygon fill="white" stroke="black" points="1970,-352 1970,-382 2114,-382 2114,-352 1970,-352"/>
<text text-anchor="start" x="1978" y="-370" font-family="Helvetica,sans-Serif" font-size="10.00">parser.SimpleCharStream.</text>
<text text-anchor="middle" x="2042" y="-359" font-family="Helvetica,sans-Serif" font-size="10.00">UpdateLineColumn</text>
</a>
</g>
</g>
<!-- Node9&#45;&gt;Node13 -->
<g id="edge14" class="edge"><title>Node9&#45;&gt;Node13</title>
<path fill="none" stroke="midnightblue" d="M1906.04,-351.523C1923.64,-353.541 1942.2,-355.67 1959.74,-357.681"/>
<polygon fill="midnightblue" stroke="midnightblue" points="1959.59,-361.187 1969.93,-358.85 1960.39,-354.233 1959.59,-361.187"/>
</g>
<!-- Node11 -->
<g id="node11" class="node"><title>Node11</title>
<g id="a_node11"><a xlink:href="../../d4/dad/classparser_1_1_simple_char_stream.html#a5328cda7180ed2a180eac8af133517cf" target="_top" xlink:title="parser.SimpleCharStream.\lExpandBuff">
<polygon fill="white" stroke="black" points="2186,-325 2186,-355 2330,-355 2330,-325 2186,-325"/>
<text text-anchor="start" x="2194" y="-343" font-family="Helvetica,sans-Serif" font-size="10.00">parser.SimpleCharStream.</text>
<text text-anchor="middle" x="2258" y="-332" font-family="Helvetica,sans-Serif" font-size="10.00">ExpandBuff</text>
</a>
</g>
</g>
<!-- Node10&#45;&gt;Node11 -->
<g id="edge12" class="edge"><title>Node10&#45;&gt;Node11</title>
<path fill="none" stroke="midnightblue" d="M2114.26,-325.326C2133.92,-327.347 2155.39,-329.555 2175.58,-331.63"/>
<polygon fill="midnightblue" stroke="midnightblue" points="2175.38,-335.128 2185.69,-332.669 2176.1,-328.164 2175.38,-335.128"/>
</g>
<!-- Node12 -->
<g id="node12" class="node"><title>Node12</title>
<g id="a_node12"><a xlink:href="../../d4/dad/classparser_1_1_simple_char_stream.html#a4eacb833520fdfdb1b18be45bc3bd4ba" target="_top" xlink:title="parser.SimpleCharStream.backup">
<polygon fill="white" stroke="black" points="2168.5,-286.5 2168.5,-305.5 2347.5,-305.5 2347.5,-286.5 2168.5,-286.5"/>
<text text-anchor="middle" x="2258" y="-293.5" font-family="Helvetica,sans-Serif" font-size="10.00">parser.SimpleCharStream.backup</text>
</a>
</g>
</g>
<!-- Node10&#45;&gt;Node12 -->
<g id="edge13" class="edge"><title>Node10&#45;&gt;Node12</title>
<path fill="none" stroke="midnightblue" d="M2114.26,-310.674C2128.29,-309.232 2143.24,-307.695 2157.99,-306.178"/>
<polygon fill="midnightblue" stroke="midnightblue" points="2158.57,-309.638 2168.16,-305.133 2157.85,-302.674 2158.57,-309.638"/>
</g>
<!-- Node17&#45;&gt;Node3 -->
<g id="edge21" class="edge"><title>Node17&#45;&gt;Node3</title>
<path fill="none" stroke="midnightblue" d="M611.729,-417.82C721.622,-423.67 914.572,-433.55 1080,-440 1148.8,-442.683 1226.37,-444.961 1286.06,-446.555"/>
<polygon fill="midnightblue" stroke="midnightblue" points="1286.14,-450.058 1296.23,-446.824 1286.33,-443.06 1286.14,-450.058"/>
</g>
<!-- Node17&#45;&gt;Node9 -->
<g id="edge22" class="edge"><title>Node17&#45;&gt;Node9</title>
<path fill="none" stroke="midnightblue" d="M532.05,-397.644C572.184,-331.717 741.489,-76 953,-76 953,-76 953,-76 1387,-76 1463.87,-76 1663.06,-162.967 1692,-184 1746.26,-223.434 1790.84,-291.006 1810.37,-323.493"/>
<polygon fill="midnightblue" stroke="midnightblue" points="1807.51,-325.541 1815.61,-332.379 1813.54,-321.987 1807.51,-325.541"/>
</g>
<!-- Node17&#45;&gt;Node15 -->
<g id="edge23" class="edge"><title>Node17&#45;&gt;Node15</title>
<path fill="none" stroke="midnightblue" d="M550.716,-397.797C607.534,-367.434 742.143,-299.579 864,-269 1086.89,-213.068 1359.14,-215.376 1502.24,-221.777"/>
<polygon fill="midnightblue" stroke="midnightblue" points="1502.16,-225.278 1512.31,-222.245 1502.49,-218.285 1502.16,-225.278"/>
</g>
<!-- Node18 -->
<g id="node18" class="node"><title>Node18</title>
<g id="a_node18"><a xlink:href="../../d0/d8c/classparser_1_1_logo_parser_token_manager.html#aa9aaf3af52d382735345487d2b89e0cf" target="_top" xlink:title="parser.LogoParserTokenManager.jj\lMoveStringLiteralDfa4_0">
<polygon fill="white" stroke="black" points="648.5,-361 648.5,-391 827.5,-391 827.5,-361 648.5,-361"/>
<text text-anchor="start" x="656.5" y="-379" font-family="Helvetica,sans-Serif" font-size="10.00">parser.LogoParserTokenManager.jj</text>
<text text-anchor="middle" x="738" y="-368" font-family="Helvetica,sans-Serif" font-size="10.00">MoveStringLiteralDfa4_0</text>
</a>
</g>
</g>
<!-- Node17&#45;&gt;Node18 -->
<g id="edge24" class="edge"><title>Node17&#45;&gt;Node18</title>
<path fill="none" stroke="midnightblue" d="M610.042,-397.951C619.936,-396.24 630.066,-394.489 640.077,-392.758"/>
<polygon fill="midnightblue" stroke="midnightblue" points="640.778,-396.189 650.035,-391.036 639.585,-389.291 640.778,-396.189"/>
</g>
<!-- Node17&#45;&gt;Node21 -->
<g id="edge41" class="edge"><title>Node17&#45;&gt;Node21</title>
<path fill="none" stroke="midnightblue" d="M592.306,-428.046C610.399,-431.801 629.902,-435.695 648,-439 839.203,-473.912 887.495,-480.181 1080,-507 1148.79,-516.584 1226.52,-525.991 1286.28,-532.922"/>
<polygon fill="midnightblue" stroke="midnightblue" points="1286.14,-536.428 1296.47,-534.099 1286.94,-529.474 1286.14,-536.428"/>
</g>
<!-- Node18&#45;&gt;Node3 -->
<g id="edge25" class="edge"><title>Node18&#45;&gt;Node3</title>
<path fill="none" stroke="midnightblue" d="M827.807,-386.035C947.932,-399.61 1161.51,-423.745 1286.46,-437.864"/>
<polygon fill="midnightblue" stroke="midnightblue" points="1286.08,-441.344 1296.41,-438.989 1286.86,-434.388 1286.08,-441.344"/>
</g>
<!-- Node18&#45;&gt;Node9 -->
<g id="edge26" class="edge"><title>Node18&#45;&gt;Node9</title>
<path fill="none" stroke="midnightblue" d="M751.369,-360.829C771.936,-336.79 815.712,-290.474 864,-269 929.359,-239.935 1360.56,-209.648 1512,-203 1591.92,-199.492 1618.67,-171.012 1692,-203 1749.16,-227.934 1792.35,-292.061 1810.96,-323.737"/>
<polygon fill="midnightblue" stroke="midnightblue" points="1807.93,-325.498 1815.93,-332.447 1814.01,-322.027 1807.93,-325.498"/>
</g>
<!-- Node18&#45;&gt;Node15 -->
<g id="edge27" class="edge"><title>Node18&#45;&gt;Node15</title>
<path fill="none" stroke="midnightblue" d="M780.547,-360.984C804.813,-352.312 836.063,-341.312 864,-332 959.481,-300.176 981.427,-284.315 1080,-264 1174.51,-244.522 1199.77,-249.104 1296,-242 1364.71,-236.928 1442.28,-233.397 1501.99,-231.15"/>
<polygon fill="midnightblue" stroke="midnightblue" points="1502.31,-234.641 1512.17,-230.773 1502.05,-227.646 1502.31,-234.641"/>
</g>
<!-- Node19 -->
<g id="node19" class="node"><title>Node19</title>
<g id="a_node19"><a xlink:href="../../d0/d8c/classparser_1_1_logo_parser_token_manager.html#a4553920ced069b9d4852f1c1020bea38" target="_top" xlink:title="parser.LogoParserTokenManager.jj\lMoveStringLiteralDfa5_0">
<polygon fill="white" stroke="black" points="864.5,-342 864.5,-372 1043.5,-372 1043.5,-342 864.5,-342"/>
<text text-anchor="start" x="872.5" y="-360" font-family="Helvetica,sans-Serif" font-size="10.00">parser.LogoParserTokenManager.jj</text>
<text text-anchor="middle" x="954" y="-349" font-family="Helvetica,sans-Serif" font-size="10.00">MoveStringLiteralDfa5_0</text>
</a>
</g>
</g>
<!-- Node18&#45;&gt;Node19 -->
<g id="edge28" class="edge"><title>Node18&#45;&gt;Node19</title>
<path fill="none" stroke="midnightblue" d="M827.587,-368.135C836.442,-367.349 845.472,-366.547 854.422,-365.752"/>
<polygon fill="midnightblue" stroke="midnightblue" points="854.828,-369.23 864.48,-364.859 854.209,-362.257 854.828,-369.23"/>
</g>
<!-- Node18&#45;&gt;Node21 -->
<g id="edge40" class="edge"><title>Node18&#45;&gt;Node21</title>
<path fill="none" stroke="midnightblue" d="M786.321,-391.002C809.63,-398.235 838.204,-406.866 864,-414 1022.04,-457.71 1208.86,-502.726 1310.31,-526.618"/>
<polygon fill="midnightblue" stroke="midnightblue" points="1309.62,-530.052 1320.15,-528.934 1311.22,-523.237 1309.62,-530.052"/>
</g>
<!-- Node19&#45;&gt;Node3 -->
<g id="edge29" class="edge"><title>Node19&#45;&gt;Node3</title>
<path fill="none" stroke="midnightblue" d="M1040.78,-372.005C1102.07,-383.115 1186.39,-399.184 1260,-416 1280.12,-420.597 1301.92,-426.15 1321.59,-431.378"/>
<polygon fill="midnightblue" stroke="midnightblue" points="1320.79,-434.789 1331.36,-433.995 1322.6,-428.027 1320.79,-434.789"/>
</g>
<!-- Node19&#45;&gt;Node9 -->
<g id="edge30" class="edge"><title>Node19&#45;&gt;Node9</title>
<path fill="none" stroke="midnightblue" d="M998.958,-341.97C1022.65,-334.654 1052.58,-326.662 1080,-323 1316.9,-291.356 1600.08,-315.628 1737.7,-331.338"/>
<polygon fill="midnightblue" stroke="midnightblue" points="1737.42,-334.828 1747.76,-332.5 1738.22,-327.875 1737.42,-334.828"/>
</g>
<!-- Node19&#45;&gt;Node15 -->
<g id="edge31" class="edge"><title>Node19&#45;&gt;Node15</title>
<path fill="none" stroke="midnightblue" d="M976.906,-341.962C1001.02,-326.219 1041.49,-302.135 1080,-290 1089.98,-286.856 1354.13,-256.274 1502.38,-239.269"/>
<polygon fill="midnightblue" stroke="midnightblue" points="1502.87,-242.735 1512.41,-238.119 1502.08,-235.781 1502.87,-242.735"/>
</g>
<!-- Node20 -->
<g id="node20" class="node"><title>Node20</title>
<g id="a_node20"><a xlink:href="../../d0/d8c/classparser_1_1_logo_parser_token_manager.html#a1bad232a9ce95d19e7133cbee0b538b5" target="_top" xlink:title="parser.LogoParserTokenManager.jj\lMoveStringLiteralDfa6_0">
<polygon fill="white" stroke="black" points="1080.5,-333 1080.5,-363 1259.5,-363 1259.5,-333 1080.5,-333"/>
<text text-anchor="start" x="1088.5" y="-351" font-family="Helvetica,sans-Serif" font-size="10.00">parser.LogoParserTokenManager.jj</text>
<text text-anchor="middle" x="1170" y="-340" font-family="Helvetica,sans-Serif" font-size="10.00">MoveStringLiteralDfa6_0</text>
</a>
</g>
</g>
<!-- Node19&#45;&gt;Node20 -->
<g id="edge32" class="edge"><title>Node19&#45;&gt;Node20</title>
<path fill="none" stroke="midnightblue" d="M1043.59,-353.274C1052.44,-352.902 1061.47,-352.522 1070.42,-352.146"/>
<polygon fill="midnightblue" stroke="midnightblue" points="1070.64,-355.64 1080.48,-351.723 1070.34,-348.646 1070.64,-355.64"/>
</g>
<!-- Node19&#45;&gt;Node21 -->
<g id="edge39" class="edge"><title>Node19&#45;&gt;Node21</title>
<path fill="none" stroke="midnightblue" d="M988.362,-372.115C1013.51,-383.466 1048.86,-399.338 1080,-413 1171.98,-453.355 1280.1,-499.484 1339.74,-524.818"/>
<polygon fill="midnightblue" stroke="midnightblue" points="1338.66,-528.165 1349.24,-528.851 1341.4,-521.721 1338.66,-528.165"/>
</g>
<!-- Node20&#45;&gt;Node3 -->
<g id="edge33" class="edge"><title>Node20&#45;&gt;Node3</title>
<path fill="none" stroke="midnightblue" d="M1221.08,-363.01C1233.95,-367.374 1247.65,-372.471 1260,-378 1292.87,-392.711 1328.39,-413.392 1353.14,-428.642"/>
<polygon fill="midnightblue" stroke="midnightblue" points="1351.4,-431.684 1361.74,-433.993 1355.1,-425.74 1351.4,-431.684"/>
</g>
<!-- Node20&#45;&gt;Node9 -->
<g id="edge34" class="edge"><title>Node20&#45;&gt;Node9</title>
<path fill="none" stroke="midnightblue" d="M1259.68,-347.181C1379.16,-346.079 1591.41,-344.119 1717.88,-342.952"/>
<polygon fill="midnightblue" stroke="midnightblue" points="1718,-346.451 1727.97,-342.859 1717.93,-339.451 1718,-346.451"/>
</g>
<!-- Node20&#45;&gt;Node15 -->
<g id="edge35" class="edge"><title>Node20&#45;&gt;Node15</title>
<path fill="none" stroke="midnightblue" d="M1257.19,-332.959C1318.86,-321.189 1403.47,-302.979 1476,-280 1504.68,-270.914 1535.93,-257.913 1560.01,-247.184"/>
<polygon fill="midnightblue" stroke="midnightblue" points="1561.52,-250.344 1569.2,-243.046 1558.65,-243.961 1561.52,-250.344"/>
</g>
<!-- Node20&#45;&gt;Node21 -->
<g id="edge36" class="edge"><title>Node20&#45;&gt;Node21</title>
<path fill="none" stroke="midnightblue" d="M1185.11,-363.171C1207.74,-387.257 1253.9,-435.368 1296,-473 1315.5,-490.432 1338.63,-508.816 1356.42,-522.508"/>
<polygon fill="midnightblue" stroke="midnightblue" points="1354.61,-525.534 1364.68,-528.829 1358.86,-519.974 1354.61,-525.534"/>
</g>
<!-- Node21&#45;&gt;Node4 -->
<g id="edge38" class="edge"><title>Node21&#45;&gt;Node4</title>
<path fill="none" stroke="midnightblue" d="M1448.9,-559.041C1474.07,-565.158 1503.33,-572.266 1529.41,-578.605"/>
<polygon fill="midnightblue" stroke="midnightblue" points="1528.7,-582.033 1539.24,-580.993 1530.35,-575.231 1528.7,-582.033"/>
</g>
<!-- Node21&#45;&gt;Node9 -->
<g id="edge37" class="edge"><title>Node21&#45;&gt;Node9</title>
<path fill="none" stroke="midnightblue" d="M1419.27,-528.982C1500.46,-491.191 1712.37,-392.562 1791.03,-355.948"/>
<polygon fill="midnightblue" stroke="midnightblue" points="1792.79,-358.993 1800.37,-351.6 1789.83,-352.646 1792.79,-358.993"/>
</g>
</g>
</svg>
        <g id="navigator" transform="translate(0 0)" fill="#404254">
                <rect fill="#f2f5e9" fill-opacity="0.5" stroke="#606060" stroke-width=".5" x="0" y="0" width="60" height="60"/>
                <use id="zoomplus" xlink:href="#zoomPlus" x="17" y="9" onmousedown="handleZoom(evt,'in')"/>
                <use id="zoomminus" xlink:href="#zoomMin" x="42" y="9" onmousedown="handleZoom(evt,'out')"/>
                <use id="reset" xlink:href="#resetDef" x="30" y="36" onmousedown="handleReset()"/>
                <g id="arrowUp" xlink:href="#dirArrow" transform="translate(30 24)" onmousedown="handlePan(0,-1)">
                  <use xlink:href="#rim" fill="#404040">
                        <set attributeName="fill" to="#808080" begin="arrowUp.mouseover" end="arrowUp.mouseout"/>
                  </use>
                  <path fill="none" stroke="white" stroke-width="1.5" d="M0,-3.0v7 M-2.5,-0.5L0,-3.0L2.5,-0.5"/>
                </g>
                <g id="arrowRight" xlink:href="#dirArrow" transform="rotate(90) translate(36 -43)" onmousedown="handlePan(1,0)">
                  <use xlink:href="#rim" fill="#404040">
                        <set attributeName="fill" to="#808080" begin="arrowRight.mouseover" end="arrowRight.mouseout"/>
                  </use>
                  <path fill="none" stroke="white" stroke-width="1.5" d="M0,-3.0v7 M-2.5,-0.5L0,-3.0L2.5,-0.5"/>
                </g>
                <g id="arrowDown" xlink:href="#dirArrow" transform="rotate(180) translate(-30 -48)" onmousedown="handlePan(0,1)">
                  <use xlink:href="#rim" fill="#404040">
                        <set attributeName="fill" to="#808080" begin="arrowDown.mouseover" end="arrowDown.mouseout"/>
                  </use>
                  <path fill="none" stroke="white" stroke-width="1.5" d="M0,-3.0v7 M-2.5,-0.5L0,-3.0L2.5,-0.5"/>
                </g>
                <g id="arrowLeft" xlink:href="#dirArrow" transform="rotate(270) translate(-36 17)" onmousedown="handlePan(-1,0)">
                  <use xlink:href="#rim" fill="#404040">
                        <set attributeName="fill" to="#808080" begin="arrowLeft.mouseover" end="arrowLeft.mouseout"/>
                  </use>
                  <path fill="none" stroke="white" stroke-width="1.5" d="M0,-3.0v7 M-2.5,-0.5L0,-3.0L2.5,-0.5"/>
                </g>
        </g>
        <svg viewBox="0 0 15 15" width="100%" height="30px" preserveAspectRatio="xMaxYMin meet">
         <g id="arrow_out" transform="scale(0.3 0.3)">
          <a xlink:href="classparser_1_1_logo_parser_token_manager_a99a01f0b68908e628349e9f09a2cbccd_cgraph_org.svg" target="_base">
           <rect id="button" ry="5" rx="5" y="6" x="6" height="38" width="38"
                fill="#f2f5e9" fill-opacity="0.5" stroke="#606060" stroke-width="1.0"/>
           <path id="arrow"
             d="M 11.500037,31.436501 C 11.940474,20.09759 22.043105,11.32322 32.158766,21.979434 L 37.068811,17.246167 C 37.068811,17.246167 37.088388,32 37.088388,32 L 22.160133,31.978069 C 22.160133,31.978069 26.997745,27.140456 26.997745,27.140456 C 18.528582,18.264221 13.291696,25.230495 11.500037,31.436501 z"
             style="fill:#404040;"/>
          </a>
         </g>
        </svg>
</svg>
