<?xml version="1.0" encoding="UTF-8" standalone="no"?>
<!DOCTYPE svg PUBLIC "-//W3C//DTD SVG 1.1//EN"
 "http://www.w3.org/Graphics/SVG/1.1/DTD/svg11.dtd">
<!-- Generated by graphviz version 2.36.0 (20140111.2315)
 -->
<!-- Title: parser.LogoParserTokenManager.jjFillToken Pages: 1 -->
<!--zoomable 426 -->
<svg id="main" version="1.1" xmlns="http://www.w3.org/2000/svg" xmlns:xlink="http://www.w3.org/1999/xlink" xml:space="preserve" onload="init(evt)">
<style type="text/css"><![CDATA[
.edge:hover path { stroke: red; }
.edge:hover polygon { stroke: red; fill: red; }
]]></style>
<script type="text/javascript"><![CDATA[
var edges = document.getElementsByTagName('g');
if (edges && edges.length) {
  for (var i=0;i<edges.length;i++) {
    if (edges[i].id.substr(0,4)=='edge') {
      edges[i].setAttribute('class','edge');
    }
  }
}
]]></script>
        <defs>
                <circle id="rim" cx="0" cy="0" r="7"/>
                <circle id="rim2" cx="0" cy="0" r="3.5"/>
                <g id="zoomPlus">
                        <use xlink:href="#rim" fill="#404040">
                                <set attributeName="fill" to="#808080" begin="zoomplus.mouseover" end="zoomplus.mouseout"/>
                        </use>
                        <path d="M-4,0h8M0,-4v8" fill="none" stroke="white" stroke-width="1.5" pointer-events="none"/>
                </g>
                <g id="zoomMin">
                        <use xlink:href="#rim" fill="#404040">
                                <set attributeName="fill" to="#808080" begin="zoomminus.mouseover" end="zoomminus.mouseout"/>
                        </use>
                        <path d="M-4,0h8" fill="none" stroke="white" stroke-width="1.5" pointer-events="none"/>
                </g>
                <g id="dirArrow">
                        <path fill="none" stroke="white" stroke-width="1.5" d="M0,-3.0v7 M-2.5,-0.5L0,-3.0L2.5,-0.5"/>
                </g>
               <g id="resetDef">
                       <use xlink:href="#rim2" fill="#404040">
                               <set attributeName="fill" to="#808080" begin="reset.mouseover" end="reset.mouseout"/>
                       </use>
               </g>
        </defs>

<script type="text/javascript">
var viewWidth = 2806;
var viewHeight = 426;
var sectionId = 'dynsection-12';
</script>
<script xlink:href="../../svgpan.js"/>
<svg id="graph" class="graph">
<g id="viewport">
<title>parser.LogoParserTokenManager.jjFillToken</title>
<polygon fill="white" stroke="none" points="-4,4 -4,-422.128 2802,-422.128 2802,4 -4,4"/>
<!-- Node1 -->
<g id="node1" class="node"><title>Node1</title>
<polygon fill="#bfbfbf" stroke="black" points="0.5,-308.128 0.5,-338.128 179.5,-338.128 179.5,-308.128 0.5,-308.128"/>
<text text-anchor="start" x="8.5" y="-326.128" font-family="Helvetica,sans-Serif" font-size="10.00">parser.LogoParserTokenManager.jj</text>
<text text-anchor="middle" x="90" y="-315.128" font-family="Helvetica,sans-Serif" font-size="10.00">FillToken</text>
</g>
<!-- Node2 -->
<g id="node2" class="node"><title>Node2</title>
<g id="a_node2"><a xlink:href="../../d0/d8c/classparser_1_1_logo_parser_token_manager.html#a3dee50e2286b70ba662519a865e63b77" target="_top" xlink:title="parser.LogoParserTokenManager.get\lNextToken">
<polygon fill="white" stroke="black" points="216,-308.128 216,-338.128 406,-338.128 406,-308.128 216,-308.128"/>
<text text-anchor="start" x="224" y="-326.128" font-family="Helvetica,sans-Serif" font-size="10.00">parser.LogoParserTokenManager.get</text>
<text text-anchor="middle" x="311" y="-315.128" font-family="Helvetica,sans-Serif" font-size="10.00">NextToken</text>
</a>
</g>
</g>
<!-- Node1&#45;&gt;Node2 -->
<g id="edge1" class="edge"><title>Node1&#45;&gt;Node2</title>
<path fill="none" stroke="midnightblue" d="M189.831,-323.128C198.456,-323.128 207.17,-323.128 215.756,-323.128"/>
<polygon fill="midnightblue" stroke="midnightblue" points="189.76,-319.628 179.76,-323.128 189.76,-326.628 189.76,-319.628"/>
</g>
<!-- Node3 -->
<g id="node3" class="node"><title>Node3</title>
<g id="a_node3"><a xlink:href="../../d5/d0e/classparser_1_1_logo_parser.html#a7477b52c4469ea43d75f88fb805e37a1" target="_top" xlink:title="parser.LogoParser.getNext\lToken">
<polygon fill="white" stroke="black" points="444.5,-371.128 444.5,-401.128 587.5,-401.128 587.5,-371.128 444.5,-371.128"/>
<text text-anchor="start" x="452.5" y="-389.128" font-family="Helvetica,sans-Serif" font-size="10.00">parser.LogoParser.getNext</text>
<text text-anchor="middle" x="516" y="-378.128" font-family="Helvetica,sans-Serif" font-size="10.00">Token</text>
</a>
</g>
</g>
<!-- Node2&#45;&gt;Node3 -->
<g id="edge2" class="edge"><title>Node2&#45;&gt;Node3</title>
<path fill="none" stroke="midnightblue" d="M370.044,-341.142C400.612,-350.629 437.662,-362.127 466.653,-371.124"/>
<polygon fill="midnightblue" stroke="midnightblue" points="370.954,-337.76 360.366,-338.138 368.879,-344.445 370.954,-337.76"/>
</g>
<!-- Node4 -->
<g id="node4" class="node"><title>Node4</title>
<g id="a_node4"><a xlink:href="../../d5/d0e/classparser_1_1_logo_parser.html#a63b7890a7d6323bcf938132f968e8157" target="_top" xlink:title="parser.LogoParser.getToken">
<polygon fill="white" stroke="black" points="442,-332.628 442,-351.628 590,-351.628 590,-332.628 442,-332.628"/>
<text text-anchor="middle" x="516" y="-339.628" font-family="Helvetica,sans-Serif" font-size="10.00">parser.LogoParser.getToken</text>
</a>
</g>
</g>
<!-- Node2&#45;&gt;Node4 -->
<g id="edge3" class="edge"><title>Node2&#45;&gt;Node4</title>
<path fill="none" stroke="midnightblue" d="M416.241,-332.885C424.906,-333.696 433.544,-334.504 441.903,-335.287"/>
<polygon fill="midnightblue" stroke="midnightblue" points="416.355,-329.38 406.072,-331.933 415.702,-336.35 416.355,-329.38"/>
</g>
<!-- Node5 -->
<g id="node5" class="node"><title>Node5</title>
<g id="a_node5"><a xlink:href="../../d5/d0e/classparser_1_1_logo_parser.html#a550039a3180ec86ef01f419aefc02edc" target="_top" xlink:title="parser.LogoParser.jj\l_consume_token">
<polygon fill="white" stroke="black" points="461,-118.128 461,-148.128 571,-148.128 571,-118.128 461,-118.128"/>
<text text-anchor="start" x="469" y="-136.128" font-family="Helvetica,sans-Serif" font-size="10.00">parser.LogoParser.jj</text>
<text text-anchor="middle" x="516" y="-125.128" font-family="Helvetica,sans-Serif" font-size="10.00">_consume_token</text>
</a>
</g>
</g>
<!-- Node2&#45;&gt;Node5 -->
<g id="edge4" class="edge"><title>Node2&#45;&gt;Node5</title>
<path fill="none" stroke="midnightblue" d="M335.787,-300.864C377.628,-261.703 463.329,-181.49 498.935,-148.164"/>
<polygon fill="midnightblue" stroke="midnightblue" points="333.178,-298.512 328.269,-307.901 337.962,-303.623 333.178,-298.512"/>
</g>
<!-- Node22 -->
<g id="node22" class="node"><title>Node22</title>
<g id="a_node22"><a xlink:href="../../d5/d0e/classparser_1_1_logo_parser.html#a2e48e3ab2c1c075beca7bcc54d891afd" target="_top" xlink:title="parser.LogoParser.jj_ntk">
<polygon fill="white" stroke="black" points="451,-294.628 451,-313.628 581,-313.628 581,-294.628 451,-294.628"/>
<text text-anchor="middle" x="516" y="-301.628" font-family="Helvetica,sans-Serif" font-size="10.00">parser.LogoParser.jj_ntk</text>
</a>
</g>
</g>
<!-- Node2&#45;&gt;Node22 -->
<g id="edge29" class="edge"><title>Node2&#45;&gt;Node22</title>
<path fill="none" stroke="midnightblue" d="M416.382,-313.359C428.117,-312.26 439.801,-311.167 450.805,-310.137"/>
<polygon fill="midnightblue" stroke="midnightblue" points="415.702,-309.907 406.072,-314.324 416.355,-316.876 415.702,-309.907"/>
</g>
<!-- Node6 -->
<g id="node6" class="node"><title>Node6</title>
<g id="a_node6"><a xlink:href="../../d5/d0e/classparser_1_1_logo_parser.html#a82acce8328e52f3b2bcb90542cc800b7" target="_top" xlink:title="parser.LogoParser.arithm">
<polygon fill="white" stroke="black" points="950.5,-170.628 950.5,-189.628 1087.5,-189.628 1087.5,-170.628 950.5,-170.628"/>
<text text-anchor="middle" x="1019" y="-177.628" font-family="Helvetica,sans-Serif" font-size="10.00">parser.LogoParser.arithm</text>
</a>
</g>
</g>
<!-- Node5&#45;&gt;Node6 -->
<g id="edge5" class="edge"><title>Node5&#45;&gt;Node6</title>
<path fill="none" stroke="midnightblue" d="M581.135,-139.145C676.082,-148.052 853.24,-164.672 950.234,-173.771"/>
<polygon fill="midnightblue" stroke="midnightblue" points="581.375,-135.652 571.092,-138.203 580.721,-142.622 581.375,-135.652"/>
</g>
<!-- Node7 -->
<g id="node7" class="node"><title>Node7</title>
<g id="a_node7"><a xlink:href="../../d5/d0e/classparser_1_1_logo_parser.html#a397c25c39976e5a1fb689e1f0dd40160" target="_top" xlink:title="parser.LogoParser.eval">
<polygon fill="white" stroke="black" points="1124.5,-137.628 1124.5,-156.628 1249.5,-156.628 1249.5,-137.628 1124.5,-137.628"/>
<text text-anchor="middle" x="1187" y="-144.628" font-family="Helvetica,sans-Serif" font-size="10.00">parser.LogoParser.eval</text>
</a>
</g>
</g>
<!-- Node5&#45;&gt;Node7 -->
<g id="edge21" class="edge"><title>Node5&#45;&gt;Node7</title>
<path fill="none" stroke="midnightblue" d="M581.274,-134.473C709.9,-137.165 997.457,-143.183 1124.1,-145.833"/>
<polygon fill="midnightblue" stroke="midnightblue" points="581.251,-130.972 571.18,-134.262 581.105,-137.971 581.251,-130.972"/>
</g>
<!-- Node8 -->
<g id="node8" class="node"><title>Node8</title>
<g id="a_node8"><a xlink:href="../../d5/d0e/classparser_1_1_logo_parser.html#a6b0ba0c2b5b0bc8c2ef76863fffdb6a3" target="_top" xlink:title="parser.LogoParser.list">
<polygon fill="white" stroke="black" points="1478.5,-99.6283 1478.5,-118.628 1597.5,-118.628 1597.5,-99.6283 1478.5,-99.6283"/>
<text text-anchor="middle" x="1538" y="-106.628" font-family="Helvetica,sans-Serif" font-size="10.00">parser.LogoParser.list</text>
</a>
</g>
</g>
<!-- Node5&#45;&gt;Node8 -->
<g id="edge23" class="edge"><title>Node5&#45;&gt;Node8</title>
<path fill="none" stroke="midnightblue" d="M551.871,-113.211C572.785,-102.026 600.244,-88.6456 626,-80.1283 721.754,-48.4635 748.146,-38.1283 849,-38.1283 849,-38.1283 849,-38.1283 1188,-38.1283 1309.81,-38.1283 1450.82,-80.173 1509.34,-99.5529"/>
<polygon fill="midnightblue" stroke="midnightblue" points="550.158,-110.159 543.043,-118.009 553.501,-116.309 550.158,-110.159"/>
</g>
<!-- Node9 -->
<g id="node9" class="node"><title>Node9</title>
<g id="a_node9"><a xlink:href="../../d5/d0e/classparser_1_1_logo_parser.html#a4a8825534e0488215d22bcd947bc4d41" target="_top" xlink:title="parser.LogoParser.expression">
<polygon fill="white" stroke="black" points="1634.5,-26.6283 1634.5,-45.6283 1791.5,-45.6283 1791.5,-26.6283 1634.5,-26.6283"/>
<text text-anchor="middle" x="1713" y="-33.6283" font-family="Helvetica,sans-Serif" font-size="10.00">parser.LogoParser.expression</text>
</a>
</g>
</g>
<!-- Node5&#45;&gt;Node9 -->
<g id="edge22" class="edge"><title>Node5&#45;&gt;Node9</title>
<path fill="none" stroke="midnightblue" d="M536.934,-110.568C557.172,-89.1803 590.506,-57.9001 626,-41.1283 717.113,1.92439 748.228,-0.128293 849,-0.128293 849,-0.128293 849,-0.128293 1365,-0.128293 1467.81,-0.128293 1586.85,-15.9569 1655.39,-26.6226"/>
<polygon fill="midnightblue" stroke="midnightblue" points="534.32,-108.241 530.091,-117.955 539.455,-112.998 534.32,-108.241"/>
</g>
<!-- Node19 -->
<g id="node19" class="node"><title>Node19</title>
<g id="a_node19"><a xlink:href="../../d5/d0e/classparser_1_1_logo_parser.html#ad6ed8e51959a6e19a2323444aa8331c8" target="_top" xlink:title="parser.LogoParser.statement">
<polygon fill="white" stroke="black" points="1286.5,-137.628 1286.5,-156.628 1441.5,-156.628 1441.5,-137.628 1286.5,-137.628"/>
<text text-anchor="middle" x="1364" y="-144.628" font-family="Helvetica,sans-Serif" font-size="10.00">parser.LogoParser.statement</text>
</a>
</g>
</g>
<!-- Node5&#45;&gt;Node19 -->
<g id="edge27" class="edge"><title>Node5&#45;&gt;Node19</title>
<path fill="none" stroke="midnightblue" d="M580.757,-115.549C647.191,-98.8025 754.574,-76.1283 849,-76.1283 849,-76.1283 849,-76.1283 1020,-76.1283 1139.8,-76.1283 1278.34,-118.173 1335.83,-137.553"/>
<polygon fill="midnightblue" stroke="midnightblue" points="579.68,-112.212 570.857,-118.078 581.413,-118.994 579.68,-112.212"/>
</g>
<!-- Node20 -->
<g id="node20" class="node"><title>Node20</title>
<g id="a_node20"><a xlink:href="../../d5/d0e/classparser_1_1_logo_parser.html#a4bdaeff6df067fde6743ff07370c3b0b" target="_top" xlink:title="parser.LogoParser.pow">
<polygon fill="white" stroke="black" points="626,-218.628 626,-237.628 750,-237.628 750,-218.628 626,-218.628"/>
<text text-anchor="middle" x="688" y="-225.628" font-family="Helvetica,sans-Serif" font-size="10.00">parser.LogoParser.pow</text>
</a>
</g>
</g>
<!-- Node5&#45;&gt;Node20 -->
<g id="edge24" class="edge"><title>Node5&#45;&gt;Node20</title>
<path fill="none" stroke="midnightblue" d="M545.863,-154.242C567.29,-169.334 597.596,-189.482 626,-204.128 636.519,-209.553 648.559,-214.531 659.148,-218.53"/>
<polygon fill="midnightblue" stroke="midnightblue" points="547.717,-151.266 537.54,-148.319 543.658,-156.969 547.717,-151.266"/>
</g>
<!-- Node21 -->
<g id="node21" class="node"><title>Node21</title>
<g id="a_node21"><a xlink:href="../../d5/d0e/classparser_1_1_logo_parser.html#a34f4226672a2711ce2691162fdb2124d" target="_top" xlink:title="parser.LogoParser.term">
<polygon fill="white" stroke="black" points="786,-199.628 786,-218.628 914,-218.628 914,-199.628 786,-199.628"/>
<text text-anchor="middle" x="850" y="-206.628" font-family="Helvetica,sans-Serif" font-size="10.00">parser.LogoParser.term</text>
</a>
</g>
</g>
<!-- Node5&#45;&gt;Node21 -->
<g id="edge28" class="edge"><title>Node5&#45;&gt;Node21</title>
<path fill="none" stroke="midnightblue" d="M572.638,-151.185C589.662,-156.381 608.51,-161.807 626,-166.128 681.502,-179.842 745.673,-191.816 790.886,-199.621"/>
<polygon fill="midnightblue" stroke="midnightblue" points="573.437,-147.768 562.85,-148.162 571.372,-154.457 573.437,-147.768"/>
</g>
<!-- Node6&#45;&gt;Node7 -->
<g id="edge6" class="edge"><title>Node6&#45;&gt;Node7</title>
<path fill="none" stroke="midnightblue" d="M1078.06,-168.586C1097.68,-164.686 1119.35,-160.378 1138.09,-156.652"/>
<polygon fill="midnightblue" stroke="midnightblue" points="1077.14,-165.201 1068.01,-170.583 1078.5,-172.066 1077.14,-165.201"/>
</g>
<!-- Node7&#45;&gt;Node8 -->
<g id="edge7" class="edge"><title>Node7&#45;&gt;Node8</title>
<path fill="none" stroke="midnightblue" d="M1241.06,-135.677C1255.58,-132.863 1271.35,-130.097 1286,-128.128 1351.62,-119.314 1427.48,-114.278 1478.47,-111.635"/>
<polygon fill="midnightblue" stroke="midnightblue" points="1240.37,-132.246 1231.24,-137.624 1241.73,-139.112 1240.37,-132.246"/>
</g>
<!-- Node7&#45;&gt;Node19 -->
<g id="edge19" class="edge"><title>Node7&#45;&gt;Node19</title>
<path fill="none" stroke="midnightblue" d="M1259.8,-147.128C1268.51,-147.128 1277.44,-147.128 1286.22,-147.128"/>
<polygon fill="midnightblue" stroke="midnightblue" points="1259.7,-143.628 1249.7,-147.128 1259.7,-150.628 1259.7,-143.628"/>
</g>
<!-- Node8&#45;&gt;Node9 -->
<g id="edge8" class="edge"><title>Node8&#45;&gt;Node9</title>
<path fill="none" stroke="midnightblue" d="M1571.2,-95.5422C1605.58,-81.0317 1659.2,-58.4088 1689.38,-45.6741"/>
<polygon fill="midnightblue" stroke="midnightblue" points="1569.47,-92.4724 1561.62,-99.5848 1572.19,-98.9217 1569.47,-92.4724"/>
</g>
<!-- Node10 -->
<g id="node10" class="node"><title>Node10</title>
<g id="a_node10"><a xlink:href="../../d5/d0e/classparser_1_1_logo_parser.html#adefe3b97ad0d2d7fd0dcd13f7ef2c75e" target="_top" xlink:title="parser.LogoParser.parse">
<polygon fill="white" stroke="black" points="1647,-99.6283 1647,-118.628 1779,-118.628 1779,-99.6283 1647,-99.6283"/>
<text text-anchor="middle" x="1713" y="-106.628" font-family="Helvetica,sans-Serif" font-size="10.00">parser.LogoParser.parse</text>
</a>
</g>
</g>
<!-- Node8&#45;&gt;Node10 -->
<g id="edge9" class="edge"><title>Node8&#45;&gt;Node10</title>
<path fill="none" stroke="midnightblue" d="M1607.78,-109.128C1620.7,-109.128 1634.16,-109.128 1646.95,-109.128"/>
<polygon fill="midnightblue" stroke="midnightblue" points="1607.57,-105.628 1597.57,-109.128 1607.57,-112.628 1607.57,-105.628"/>
</g>
<!-- Node11 -->
<g id="node11" class="node"><title>Node11</title>
<g id="a_node11"><a xlink:href="../../d6/d95/classparser_1_1_parser.html#af3d0cef45b9f02f1707959c08d8f3797" target="_top" xlink:title="parser.Parser.parse">
<polygon fill="white" stroke="black" points="1828.5,-99.6283 1828.5,-118.628 1937.5,-118.628 1937.5,-99.6283 1828.5,-99.6283"/>
<text text-anchor="middle" x="1883" y="-106.628" font-family="Helvetica,sans-Serif" font-size="10.00">parser.Parser.parse</text>
</a>
</g>
</g>
<!-- Node10&#45;&gt;Node11 -->
<g id="edge10" class="edge"><title>Node10&#45;&gt;Node11</title>
<path fill="none" stroke="midnightblue" d="M1789.8,-109.128C1802.83,-109.128 1816.12,-109.128 1828.41,-109.128"/>
<polygon fill="midnightblue" stroke="midnightblue" points="1789.43,-105.628 1779.43,-109.128 1789.43,-112.628 1789.43,-105.628"/>
</g>
<!-- Node12 -->
<g id="node12" class="node"><title>Node12</title>
<g id="a_node12"><a xlink:href="../../d4/d06/classinput_1_1_input_executor.html#a687a9f2cbed5d27a2c7b1336a1cab8aa" target="_top" xlink:title="input.InputExecutor.process\lInput">
<polygon fill="white" stroke="black" points="1974.5,-138.128 1974.5,-168.128 2123.5,-168.128 2123.5,-138.128 1974.5,-138.128"/>
<text text-anchor="start" x="1982.5" y="-156.128" font-family="Helvetica,sans-Serif" font-size="10.00">input.InputExecutor.process</text>
<text text-anchor="middle" x="2049" y="-145.128" font-family="Helvetica,sans-Serif" font-size="10.00">Input</text>
</a>
</g>
</g>
<!-- Node11&#45;&gt;Node12 -->
<g id="edge11" class="edge"><title>Node11&#45;&gt;Node12</title>
<path fill="none" stroke="midnightblue" d="M1929.36,-121.297C1948.7,-126.486 1971.46,-132.593 1991.85,-138.063"/>
<polygon fill="midnightblue" stroke="midnightblue" points="1930.15,-117.887 1919.59,-118.676 1928.34,-124.647 1930.15,-117.887"/>
</g>
<!-- Node13 -->
<g id="node13" class="node"><title>Node13</title>
<g id="a_node13"><a xlink:href="../../d6/d95/classparser_1_1_parser.html#ae90f8410be9931ec3f349085c8fdae71" target="_top" xlink:title="parser.Parser.parseFile">
<polygon fill="white" stroke="black" points="1987,-99.6283 1987,-118.628 2111,-118.628 2111,-99.6283 1987,-99.6283"/>
<text text-anchor="middle" x="2049" y="-106.628" font-family="Helvetica,sans-Serif" font-size="10.00">parser.Parser.parseFile</text>
</a>
</g>
</g>
<!-- Node11&#45;&gt;Node13 -->
<g id="edge12" class="edge"><title>Node11&#45;&gt;Node13</title>
<path fill="none" stroke="midnightblue" d="M1947.82,-109.128C1960.63,-109.128 1974.06,-109.128 1986.79,-109.128"/>
<polygon fill="midnightblue" stroke="midnightblue" points="1947.7,-105.628 1937.7,-109.128 1947.7,-112.628 1947.7,-105.628"/>
</g>
<!-- Node18 -->
<g id="node18" class="node"><title>Node18</title>
<g id="a_node18"><a xlink:href="../../d5/d56/class_workspace.html#a0ed8fb487512971086b6f3ed0d74e4ae" target="_top" xlink:title="Workspace.sendUserInput">
<polygon fill="white" stroke="black" points="2165,-57.6283 2165,-76.6283 2305,-76.6283 2305,-57.6283 2165,-57.6283"/>
<text text-anchor="middle" x="2235" y="-64.6283" font-family="Helvetica,sans-Serif" font-size="10.00">Workspace.sendUserInput</text>
</a>
</g>
</g>
<!-- Node11&#45;&gt;Node18 -->
<g id="edge17" class="edge"><title>Node11&#45;&gt;Node18</title>
<path fill="none" stroke="midnightblue" d="M1934.23,-97.4126C1947.14,-94.7092 1961.04,-92.0626 1974,-90.1283 2038.31,-80.5301 2112.22,-74.4655 2164.76,-70.9889"/>
<polygon fill="midnightblue" stroke="midnightblue" points="1933.18,-94.0595 1924.14,-99.5804 1934.65,-100.904 1933.18,-94.0595"/>
</g>
<!-- Node14 -->
<g id="node14" class="node"><title>Node14</title>
<g id="a_node14"><a xlink:href="../../d9/de8/class_file_chooser_feature.html#ad742b8e9d07e8151f0a9ff1972867ce8" target="_top" xlink:title="FileChooserFeature.openFile\lChooser">
<polygon fill="white" stroke="black" points="2160.5,-96.1283 2160.5,-126.128 2309.5,-126.128 2309.5,-96.1283 2160.5,-96.1283"/>
<text text-anchor="start" x="2168.5" y="-114.128" font-family="Helvetica,sans-Serif" font-size="10.00">FileChooserFeature.openFile</text>
<text text-anchor="middle" x="2235" y="-103.128" font-family="Helvetica,sans-Serif" font-size="10.00">Chooser</text>
</a>
</g>
</g>
<!-- Node13&#45;&gt;Node14 -->
<g id="edge13" class="edge"><title>Node13&#45;&gt;Node14</title>
<path fill="none" stroke="midnightblue" d="M2121.17,-109.902C2134.02,-110.042 2147.44,-110.187 2160.35,-110.328"/>
<polygon fill="midnightblue" stroke="midnightblue" points="2121.05,-106.4 2111.01,-109.791 2120.98,-113.4 2121.05,-106.4"/>
</g>
<!-- Node15 -->
<g id="node15" class="node"><title>Node15</title>
<g id="a_node15"><a xlink:href="../../d5/d56/class_workspace.html#a6babd032d9af86fbc23812272d59a2d2" target="_top" xlink:title="Workspace.addFeatureButtons">
<polygon fill="white" stroke="black" points="2346,-99.6283 2346,-118.628 2508,-118.628 2508,-99.6283 2346,-99.6283"/>
<text text-anchor="middle" x="2427" y="-106.628" font-family="Helvetica,sans-Serif" font-size="10.00">Workspace.addFeatureButtons</text>
</a>
</g>
</g>
<!-- Node14&#45;&gt;Node15 -->
<g id="edge14" class="edge"><title>Node14&#45;&gt;Node15</title>
<path fill="none" stroke="midnightblue" d="M2319.77,-110.247C2328.38,-110.156 2337.12,-110.064 2345.7,-109.974"/>
<polygon fill="midnightblue" stroke="midnightblue" points="2319.69,-106.747 2309.73,-110.352 2319.77,-113.747 2319.69,-106.747"/>
</g>
<!-- Node16 -->
<g id="node16" class="node"><title>Node16</title>
<g id="a_node16"><a xlink:href="../../d5/d56/class_workspace.html#a429d535dfd8427637b7715f0b1e1df1b" target="_top" xlink:title="Workspace.createWorkspace">
<polygon fill="white" stroke="black" points="2544,-79.6283 2544,-98.6283 2696,-98.6283 2696,-79.6283 2544,-79.6283"/>
<text text-anchor="middle" x="2620" y="-86.6283" font-family="Helvetica,sans-Serif" font-size="10.00">Workspace.createWorkspace</text>
</a>
</g>
</g>
<!-- Node15&#45;&gt;Node16 -->
<g id="edge15" class="edge"><title>Node15&#45;&gt;Node16</title>
<path fill="none" stroke="midnightblue" d="M2518.22,-99.6809C2526.82,-98.7804 2535.48,-97.874 2543.91,-96.9909"/>
<polygon fill="midnightblue" stroke="midnightblue" points="2517.75,-96.2109 2508.17,-100.733 2518.48,-103.173 2517.75,-96.2109"/>
</g>
<!-- Node17 -->
<g id="node17" class="node"><title>Node17</title>
<g id="a_node17"><a xlink:href="../../d0/d4b/class_main.html#aaa75b38812324d0f17c89f139bde6ada" target="_top" xlink:title="Main.start">
<polygon fill="white" stroke="black" points="2732.5,-79.6283 2732.5,-98.6283 2797.5,-98.6283 2797.5,-79.6283 2732.5,-79.6283"/>
<text text-anchor="middle" x="2765" y="-86.6283" font-family="Helvetica,sans-Serif" font-size="10.00">Main.start</text>
</a>
</g>
</g>
<!-- Node16&#45;&gt;Node17 -->
<g id="edge16" class="edge"><title>Node16&#45;&gt;Node17</title>
<path fill="none" stroke="midnightblue" d="M2706.39,-89.1283C2715.63,-89.1283 2724.55,-89.1283 2732.5,-89.1283"/>
<polygon fill="midnightblue" stroke="midnightblue" points="2706.27,-85.6284 2696.27,-89.1283 2706.27,-92.6284 2706.27,-85.6284"/>
</g>
<!-- Node18&#45;&gt;Node16 -->
<g id="edge18" class="edge"><title>Node18&#45;&gt;Node16</title>
<path fill="none" stroke="midnightblue" d="M2315.47,-71.6929C2382.6,-75.5494 2478.08,-81.0335 2543.94,-84.8165"/>
<polygon fill="midnightblue" stroke="midnightblue" points="2315.54,-68.1916 2305.36,-71.1123 2315.14,-75.1801 2315.54,-68.1916"/>
</g>
<!-- Node19&#45;&gt;Node8 -->
<g id="edge20" class="edge"><title>Node19&#45;&gt;Node8</title>
<path fill="none" stroke="midnightblue" d="M1418.2,-135.376C1442.52,-130.003 1470.95,-123.72 1493.91,-118.648"/>
<polygon fill="midnightblue" stroke="midnightblue" points="1417.41,-131.964 1408.4,-137.539 1418.92,-138.8 1417.41,-131.964"/>
</g>
<!-- Node20&#45;&gt;Node21 -->
<g id="edge25" class="edge"><title>Node20&#45;&gt;Node21</title>
<path fill="none" stroke="midnightblue" d="M760.604,-219.625C769.039,-218.624 777.601,-217.607 785.907,-216.621"/>
<polygon fill="midnightblue" stroke="midnightblue" points="759.92,-216.182 750.403,-220.837 760.746,-223.133 759.92,-216.182"/>
</g>
<!-- Node21&#45;&gt;Node6 -->
<g id="edge26" class="edge"><title>Node21&#45;&gt;Node6</title>
<path fill="none" stroke="midnightblue" d="M916.206,-197.805C931.747,-195.106 948.178,-192.253 963.198,-189.645"/>
<polygon fill="midnightblue" stroke="midnightblue" points="915.399,-194.393 906.145,-199.552 916.596,-201.29 915.399,-194.393"/>
</g>
<!-- Node22&#45;&gt;Node6 -->
<g id="edge30" class="edge"><title>Node22&#45;&gt;Node6</title>
<path fill="none" stroke="midnightblue" d="M591.476,-299.342C637.489,-295.516 697.561,-288.951 750,-278.128 824.628,-262.726 842.796,-255.269 914,-228.128 944.474,-216.513 978.585,-200.08 999.166,-189.77"/>
<polygon fill="midnightblue" stroke="midnightblue" points="590.973,-295.871 581.287,-300.164 591.536,-302.848 590.973,-295.871"/>
</g>
<!-- Node22&#45;&gt;Node7 -->
<g id="edge31" class="edge"><title>Node22&#45;&gt;Node7</title>
<path fill="none" stroke="midnightblue" d="M591.183,-307.109C637.087,-307.98 697.148,-307.361 750,-301.128 905.834,-282.751 944.896,-263.494 1088,-199.128 1117.51,-185.855 1150.49,-167.608 1169.68,-156.632"/>
<polygon fill="midnightblue" stroke="midnightblue" points="591.094,-303.607 581.02,-306.888 590.941,-310.605 591.094,-303.607"/>
</g>
<!-- Node22&#45;&gt;Node8 -->
<g id="edge32" class="edge"><title>Node22&#45;&gt;Node8</title>
<path fill="none" stroke="midnightblue" d="M577.755,-317.144C582.011,-318.897 586.139,-320.882 590,-323.128 609.832,-334.665 606.167,-348.593 626,-360.128 714.525,-411.614 746.591,-418.128 849,-418.128 849,-418.128 849,-418.128 1188,-418.128 1373.32,-418.128 1506.36,-170.871 1532.36,-118.715"/>
<polygon fill="midnightblue" stroke="midnightblue" points="578.883,-313.83 568.29,-313.664 576.468,-320.4 578.883,-313.83"/>
</g>
<!-- Node22&#45;&gt;Node19 -->
<g id="edge34" class="edge"><title>Node22&#45;&gt;Node19</title>
<path fill="none" stroke="midnightblue" d="M564.259,-316.182C649.016,-337.615 820.697,-380.128 849,-380.128 849,-380.128 849,-380.128 1020,-380.128 1181.61,-380.128 1323.56,-200.94 1356.04,-156.843"/>
<polygon fill="midnightblue" stroke="midnightblue" points="564.923,-312.739 554.37,-313.677 563.204,-319.525 564.923,-312.739"/>
</g>
<!-- Node22&#45;&gt;Node20 -->
<g id="edge33" class="edge"><title>Node22&#45;&gt;Node20</title>
<path fill="none" stroke="midnightblue" d="M545.161,-290.023C567.024,-279.237 598.194,-264.213 626,-252.128 637.585,-247.093 650.592,-241.912 661.61,-237.659"/>
<polygon fill="midnightblue" stroke="midnightblue" points="543.513,-286.933 536.108,-294.51 546.622,-293.205 543.513,-286.933"/>
</g>
<!-- Node22&#45;&gt;Node21 -->
<g id="edge35" class="edge"><title>Node22&#45;&gt;Node21</title>
<path fill="none" stroke="midnightblue" d="M573.248,-292.464C620.783,-282.109 690.446,-265.76 750,-247.128 776.707,-238.773 806.601,-226.943 826.482,-218.71"/>
<polygon fill="midnightblue" stroke="midnightblue" points="572.486,-289.048 563.452,-294.581 573.965,-295.89 572.486,-289.048"/>
</g>
</g>
</svg>
        <g id="navigator" transform="translate(0 0)" fill="#404254">
                <rect fill="#f2f5e9" fill-opacity="0.5" stroke="#606060" stroke-width=".5" x="0" y="0" width="60" height="60"/>
                <use id="zoomplus" xlink:href="#zoomPlus" x="17" y="9" onmousedown="handleZoom(evt,'in')"/>
                <use id="zoomminus" xlink:href="#zoomMin" x="42" y="9" onmousedown="handleZoom(evt,'out')"/>
                <use id="reset" xlink:href="#resetDef" x="30" y="36" onmousedown="handleReset()"/>
                <g id="arrowUp" xlink:href="#dirArrow" transform="translate(30 24)" onmousedown="handlePan(0,-1)">
                  <use xlink:href="#rim" fill="#404040">
                        <set attributeName="fill" to="#808080" begin="arrowUp.mouseover" end="arrowUp.mouseout"/>
                  </use>
                  <path fill="none" stroke="white" stroke-width="1.5" d="M0,-3.0v7 M-2.5,-0.5L0,-3.0L2.5,-0.5"/>
                </g>
                <g id="arrowRight" xlink:href="#dirArrow" transform="rotate(90) translate(36 -43)" onmousedown="handlePan(1,0)">
                  <use xlink:href="#rim" fill="#404040">
                        <set attributeName="fill" to="#808080" begin="arrowRight.mouseover" end="arrowRight.mouseout"/>
                  </use>
                  <path fill="none" stroke="white" stroke-width="1.5" d="M0,-3.0v7 M-2.5,-0.5L0,-3.0L2.5,-0.5"/>
                </g>
                <g id="arrowDown" xlink:href="#dirArrow" transform="rotate(180) translate(-30 -48)" onmousedown="handlePan(0,1)">
                  <use xlink:href="#rim" fill="#404040">
                        <set attributeName="fill" to="#808080" begin="arrowDown.mouseover" end="arrowDown.mouseout"/>
                  </use>
                  <path fill="none" stroke="white" stroke-width="1.5" d="M0,-3.0v7 M-2.5,-0.5L0,-3.0L2.5,-0.5"/>
                </g>
                <g id="arrowLeft" xlink:href="#dirArrow" transform="rotate(270) translate(-36 17)" onmousedown="handlePan(-1,0)">
                  <use xlink:href="#rim" fill="#404040">
                        <set attributeName="fill" to="#808080" begin="arrowLeft.mouseover" end="arrowLeft.mouseout"/>
                  </use>
                  <path fill="none" stroke="white" stroke-width="1.5" d="M0,-3.0v7 M-2.5,-0.5L0,-3.0L2.5,-0.5"/>
                </g>
        </g>
        <svg viewBox="0 0 15 15" width="100%" height="30px" preserveAspectRatio="xMaxYMin meet">
         <g id="arrow_out" transform="scale(0.3 0.3)">
          <a xlink:href="classparser_1_1_logo_parser_token_manager_a105d12f62ad67eda0850987aedc48f4d_icgraph_org.svg" target="_base">
           <rect id="button" ry="5" rx="5" y="6" x="6" height="38" width="38"
                fill="#f2f5e9" fill-opacity="0.5" stroke="#606060" stroke-width="1.0"/>
           <path id="arrow"
             d="M 11.500037,31.436501 C 11.940474,20.09759 22.043105,11.32322 32.158766,21.979434 L 37.068811,17.246167 C 37.068811,17.246167 37.088388,32 37.088388,32 L 22.160133,31.978069 C 22.160133,31.978069 26.997745,27.140456 26.997745,27.140456 C 18.528582,18.264221 13.291696,25.230495 11.500037,31.436501 z"
             style="fill:#404040;"/>
          </a>
         </g>
        </svg>
</svg>
