<?xml version="1.0" encoding="UTF-8" standalone="no"?>
<!DOCTYPE svg PUBLIC "-//W3C//DTD SVG 1.1//EN"
 "http://www.w3.org/Graphics/SVG/1.1/DTD/svg11.dtd">
<!-- Generated by graphviz version 2.36.0 (20140111.2315)
 -->
<!-- Title: parser.LogoParserTokenManager.ReInit Pages: 1 -->
<svg width="392pt" height="77pt"
 viewBox="0.00 0.00 392.00 77.00" xmlns="http://www.w3.org/2000/svg" xmlns:xlink="http://www.w3.org/1999/xlink">
<g id="graph0" class="graph" transform="scale(1 1) rotate(0) translate(4 73)">
<title>parser.LogoParserTokenManager.ReInit</title>
<polygon fill="white" stroke="none" points="-4,4 -4,-73 388,-73 388,4 -4,4"/>
<!-- Node1 -->
<g id="node1" class="node"><title>Node1</title>
<polygon fill="#bfbfbf" stroke="black" points="0,-22 0,-52 174,-52 174,-22 0,-22"/>
<text text-anchor="start" x="8" y="-40" font-family="Helvetica,sans-Serif" font-size="10.00">parser.LogoParserTokenManager.</text>
<text text-anchor="middle" x="87" y="-29" font-family="Helvetica,sans-Serif" font-size="10.00">ReInit</text>
</g>
<!-- Node2 -->
<g id="node2" class="node"><title>Node2</title>
<g id="a_node2"><a xlink:href="../../d5/d0e/classparser_1_1_logo_parser.html#ad67ba6e3a9b52b58bf08ea2ff3617c0b" target="_top" xlink:title="parser.LogoParser.ReInit">
<polygon fill="white" stroke="black" points="231.5,-49.5 231.5,-68.5 362.5,-68.5 362.5,-49.5 231.5,-49.5"/>
<text text-anchor="middle" x="297" y="-56.5" font-family="Helvetica,sans-Serif" font-size="10.00">parser.LogoParser.ReInit</text>
</a>
</g>
</g>
<!-- Node1&#45;&gt;Node2 -->
<g id="edge1" class="edge"><title>Node1&#45;&gt;Node2</title>
<path fill="none" stroke="midnightblue" d="M184.47,-47.2036C200.321,-48.8801 216.407,-50.5815 231.244,-52.1508"/>
<polygon fill="midnightblue" stroke="midnightblue" points="184.416,-43.6784 174.103,-46.107 183.679,-50.6395 184.416,-43.6784"/>
</g>
<!-- Node3 -->
<g id="node3" class="node"><title>Node3</title>
<g id="a_node3"><a xlink:href="../../d0/d8c/classparser_1_1_logo_parser_token_manager.html#aa93f80cf1b3b2423102d17bced08c48b" target="_top" xlink:title="parser.LogoParserTokenManager.\lReInit">
<polygon fill="white" stroke="black" points="210,-0 210,-30 384,-30 384,-0 210,-0"/>
<text text-anchor="start" x="218" y="-18" font-family="Helvetica,sans-Serif" font-size="10.00">parser.LogoParserTokenManager.</text>
<text text-anchor="middle" x="297" y="-7" font-family="Helvetica,sans-Serif" font-size="10.00">ReInit</text>
</a>
</g>
</g>
<!-- Node1&#45;&gt;Node3 -->
<g id="edge2" class="edge"><title>Node1&#45;&gt;Node3</title>
<path fill="none" stroke="midnightblue" d="M184.16,-26.8292C192.768,-25.9188 201.448,-25.0007 209.962,-24.1002"/>
<polygon fill="midnightblue" stroke="midnightblue" points="183.679,-23.3605 174.103,-27.893 184.416,-30.3216 183.679,-23.3605"/>
</g>
</g>
</svg>
