<?xml version="1.0" encoding="UTF-8" standalone="no"?>
<!DOCTYPE svg PUBLIC "-//W3C//DTD SVG 1.1//EN"
 "http://www.w3.org/Graphics/SVG/1.1/DTD/svg11.dtd">
<!-- Generated by graphviz version 2.36.0 (20140111.2315)
 -->
<!-- Title: FileChooserFeature Pages: 1 -->
<svg width="168pt" height="96pt"
 viewBox="0.00 0.00 168.00 96.00" xmlns="http://www.w3.org/2000/svg" xmlns:xlink="http://www.w3.org/1999/xlink">
<g id="graph0" class="graph" transform="scale(1 1) rotate(0) translate(4 92)">
<title>FileChooserFeature</title>
<polygon fill="white" stroke="none" points="-4,4 -4,-92 164,-92 164,4 -4,4"/>
<!-- Node1 -->
<g id="node1" class="node"><title>Node1</title>
<polygon fill="#bfbfbf" stroke="black" points="32.5,-0.5 32.5,-19.5 139.5,-19.5 139.5,-0.5 32.5,-0.5"/>
<text text-anchor="middle" x="86" y="-7.5" font-family="Helvetica,sans-Serif" font-size="10.00">FileChooserFeature</text>
</g>
<!-- Node2 -->
<g id="node2" class="node"><title>Node2</title>
<g id="a_node2"><a xlink:href="../../d8/dfb/class_feature_1_1_feature.html" target="_top" xlink:title="Feature.Feature">
<polygon fill="white" stroke="black" points="0,-68.5 0,-87.5 92,-87.5 92,-68.5 0,-68.5"/>
<text text-anchor="middle" x="46" y="-75.5" font-family="Helvetica,sans-Serif" font-size="10.00">Feature.Feature</text>
</a>
</g>
</g>
<!-- Node2&#45;&gt;Node1 -->
<g id="edge1" class="edge"><title>Node2&#45;&gt;Node1</title>
<path fill="none" stroke="midnightblue" d="M56.5679,-59.563C64.3143,-46.7815 74.5091,-29.9599 80.6417,-19.8411"/>
<polygon fill="midnightblue" stroke="midnightblue" points="53.4192,-58.0056 51.2293,-68.3717 59.4056,-61.6337 53.4192,-58.0056"/>
</g>
<!-- Node3 -->
<g id="node3" class="node"><title>Node3</title>
<polygon fill="white" stroke="#bfbfbf" points="110,-68.5 110,-87.5 142,-87.5 142,-68.5 110,-68.5"/>
<text text-anchor="middle" x="126" y="-75.5" font-family="Helvetica,sans-Serif" font-size="10.00">File</text>
</g>
<!-- Node3&#45;&gt;Node1 -->
<g id="edge2" class="edge"><title>Node3&#45;&gt;Node1</title>
<path fill="none" stroke="#9a32cd" stroke-dasharray="5,2" d="M115.432,-59.563C107.686,-46.7815 97.4909,-29.9599 91.3583,-19.8411"/>
<polygon fill="#9a32cd" stroke="#9a32cd" points="112.594,-61.6337 120.771,-68.3717 118.581,-58.0056 112.594,-61.6337"/>
<text text-anchor="middle" x="134.5" y="-41.5" font-family="Helvetica,sans-Serif" font-size="10.00"> loadedFile</text>
</g>
</g>
</svg>
