<?xml version="1.0" encoding="UTF-8" standalone="no"?>
<!DOCTYPE svg PUBLIC "-//W3C//DTD SVG 1.1//EN"
 "http://www.w3.org/Graphics/SVG/1.1/DTD/svg11.dtd">
<!-- Generated by graphviz version 2.36.0 (20140111.2315)
 -->
<!-- Title: parser.LogoParserTokenManager.jjMoveStringLiteralDfa4_0 Pages: 1 -->
<svg width="1708pt" height="331pt"
 viewBox="0.00 0.00 1708.00 331.00" xmlns="http://www.w3.org/2000/svg" xmlns:xlink="http://www.w3.org/1999/xlink">
<g id="graph0" class="graph" transform="scale(1 1) rotate(0) translate(4 327)">
<title>parser.LogoParserTokenManager.jjMoveStringLiteralDfa4_0</title>
<polygon fill="white" stroke="none" points="-4,4 -4,-327 1704,-327 1704,4 -4,4"/>
<!-- Node1 -->
<g id="node1" class="node"><title>Node1</title>
<polygon fill="#bfbfbf" stroke="black" points="0.5,-143 0.5,-173 179.5,-173 179.5,-143 0.5,-143"/>
<text text-anchor="start" x="8.5" y="-161" font-family="Helvetica,sans-Serif" font-size="10.00">parser.LogoParserTokenManager.jj</text>
<text text-anchor="middle" x="90" y="-150" font-family="Helvetica,sans-Serif" font-size="10.00">MoveStringLiteralDfa4_0</text>
</g>
<!-- Node2 -->
<g id="node2" class="node"><title>Node2</title>
<g id="a_node2"><a xlink:href="../../d0/d8c/classparser_1_1_logo_parser_token_manager.html#a4553920ced069b9d4852f1c1020bea38" target="_top" xlink:title="parser.LogoParserTokenManager.jj\lMoveStringLiteralDfa5_0">
<polygon fill="white" stroke="black" points="216.5,-143 216.5,-173 395.5,-173 395.5,-143 216.5,-143"/>
<text text-anchor="start" x="224.5" y="-161" font-family="Helvetica,sans-Serif" font-size="10.00">parser.LogoParserTokenManager.jj</text>
<text text-anchor="middle" x="306" y="-150" font-family="Helvetica,sans-Serif" font-size="10.00">MoveStringLiteralDfa5_0</text>
</a>
</g>
</g>
<!-- Node1&#45;&gt;Node2 -->
<g id="edge1" class="edge"><title>Node1&#45;&gt;Node2</title>
<path fill="none" stroke="midnightblue" d="M179.587,-158C188.442,-158 197.472,-158 206.422,-158"/>
<polygon fill="midnightblue" stroke="midnightblue" points="206.48,-161.5 216.48,-158 206.48,-154.5 206.48,-161.5"/>
</g>
<!-- Node3 -->
<g id="node3" class="node"><title>Node3</title>
<g id="a_node3"><a xlink:href="../../d0/d8c/classparser_1_1_logo_parser_token_manager.html#aa065c8b0c977d3c1c9d9058f96664080" target="_top" xlink:title="parser.LogoParserTokenManager.jj\lStartNfa_0">
<polygon fill="white" stroke="black" points="648.5,-206 648.5,-236 827.5,-236 827.5,-206 648.5,-206"/>
<text text-anchor="start" x="656.5" y="-224" font-family="Helvetica,sans-Serif" font-size="10.00">parser.LogoParserTokenManager.jj</text>
<text text-anchor="middle" x="738" y="-213" font-family="Helvetica,sans-Serif" font-size="10.00">StartNfa_0</text>
</a>
</g>
</g>
<!-- Node1&#45;&gt;Node3 -->
<g id="edge27" class="edge"><title>Node1&#45;&gt;Node3</title>
<path fill="none" stroke="midnightblue" d="M164.549,-173.009C181.415,-176.203 199.297,-179.395 216,-182 311.538,-196.903 335.626,-200.158 432,-208 500.787,-213.597 578.51,-216.864 638.28,-218.723"/>
<polygon fill="midnightblue" stroke="midnightblue" points="638.366,-222.227 648.468,-219.031 638.578,-215.23 638.366,-222.227"/>
</g>
<!-- Node9 -->
<g id="node9" class="node"><title>Node9</title>
<g id="a_node9"><a xlink:href="../../d4/dad/classparser_1_1_simple_char_stream.html#a9f80cee02b99e8e200afa646e3b25e29" target="_top" xlink:title="parser.SimpleCharStream.readChar">
<polygon fill="white" stroke="black" points="1080,-68.5 1080,-87.5 1268,-87.5 1268,-68.5 1080,-68.5"/>
<text text-anchor="middle" x="1174" y="-75.5" font-family="Helvetica,sans-Serif" font-size="10.00">parser.SimpleCharStream.readChar</text>
</a>
</g>
</g>
<!-- Node1&#45;&gt;Node9 -->
<g id="edge30" class="edge"><title>Node1&#45;&gt;Node9</title>
<path fill="none" stroke="midnightblue" d="M114.136,-142.85C176.832,-103.304 356.367,-0 521,-0 521,-0 521,-0 739,-0 885.53,-0 1055.56,-43.6041 1132.04,-65.6084"/>
<polygon fill="midnightblue" stroke="midnightblue" points="1131.18,-69.0046 1141.76,-68.4357 1133.14,-62.2829 1131.18,-69.0046"/>
</g>
<!-- Node15 -->
<g id="node15" class="node"><title>Node15</title>
<g id="a_node15"><a xlink:href="../../d0/d8c/classparser_1_1_logo_parser_token_manager.html#a1f212a863542f9f3993faf51bb46ae8e" target="_top" xlink:title="parser.LogoParserTokenManager.jj\lStopStringLiteralDfa_0">
<polygon fill="white" stroke="black" points="864.5,-249 864.5,-279 1043.5,-279 1043.5,-249 864.5,-249"/>
<text text-anchor="start" x="872.5" y="-267" font-family="Helvetica,sans-Serif" font-size="10.00">parser.LogoParserTokenManager.jj</text>
<text text-anchor="middle" x="954" y="-256" font-family="Helvetica,sans-Serif" font-size="10.00">StopStringLiteralDfa_0</text>
</a>
</g>
</g>
<!-- Node1&#45;&gt;Node15 -->
<g id="edge29" class="edge"><title>Node1&#45;&gt;Node15</title>
<path fill="none" stroke="midnightblue" d="M122.668,-173.065C147.525,-184.296 183.281,-199.163 216,-208 479.935,-279.285 554.686,-276.556 828,-270 836.522,-269.796 845.367,-269.513 854.238,-269.181"/>
<polygon fill="midnightblue" stroke="midnightblue" points="854.393,-272.677 864.247,-268.786 854.117,-265.683 854.393,-272.677"/>
</g>
<!-- Node17 -->
<g id="node17" class="node"><title>Node17</title>
<g id="a_node17"><a xlink:href="../../d0/d8c/classparser_1_1_logo_parser_token_manager.html#a94b20a17d94554012918e876be221c46" target="_top" xlink:title="parser.LogoParserTokenManager.jj\lStartNfaWithStates_0">
<polygon fill="white" stroke="black" points="648.5,-80 648.5,-110 827.5,-110 827.5,-80 648.5,-80"/>
<text text-anchor="start" x="656.5" y="-98" font-family="Helvetica,sans-Serif" font-size="10.00">parser.LogoParserTokenManager.jj</text>
<text text-anchor="middle" x="738" y="-87" font-family="Helvetica,sans-Serif" font-size="10.00">StartNfaWithStates_0</text>
</a>
</g>
</g>
<!-- Node1&#45;&gt;Node17 -->
<g id="edge28" class="edge"><title>Node1&#45;&gt;Node17</title>
<path fill="none" stroke="midnightblue" d="M161.57,-142.95C179.294,-139.429 198.305,-135.871 216,-133 311.498,-117.503 335.564,-113.751 432,-106 500.775,-100.472 578.498,-97.7219 638.271,-96.3537"/>
<polygon fill="midnightblue" stroke="midnightblue" points="638.539,-99.8487 648.46,-96.1298 638.385,-92.8504 638.539,-99.8487"/>
</g>
<!-- Node2&#45;&gt;Node3 -->
<g id="edge2" class="edge"><title>Node2&#45;&gt;Node3</title>
<path fill="none" stroke="midnightblue" d="M381.225,-173.043C397.896,-176.201 415.525,-179.368 432,-182 500.642,-192.967 578.368,-202.868 638.175,-209.95"/>
<polygon fill="midnightblue" stroke="midnightblue" points="638.029,-213.456 648.37,-211.15 638.848,-206.504 638.029,-213.456"/>
</g>
<!-- Node2&#45;&gt;Node9 -->
<g id="edge17" class="edge"><title>Node2&#45;&gt;Node9</title>
<path fill="none" stroke="midnightblue" d="M337.625,-142.934C362.505,-131.268 398.791,-115.538 432,-106 657.811,-41.144 938.239,-54.5268 1080.66,-67.5589"/>
<polygon fill="midnightblue" stroke="midnightblue" points="1080.39,-71.0488 1090.67,-68.4955 1081.04,-64.0793 1080.39,-71.0488"/>
</g>
<!-- Node2&#45;&gt;Node15 -->
<g id="edge18" class="edge"><title>Node2&#45;&gt;Node15</title>
<path fill="none" stroke="midnightblue" d="M339.242,-173.087C364.106,-184.18 399.608,-198.858 432,-208 575.127,-248.395 747.914,-260.035 854.115,-263.172"/>
<polygon fill="midnightblue" stroke="midnightblue" points="854.089,-266.673 864.181,-263.45 854.282,-259.676 854.089,-266.673"/>
</g>
<!-- Node16 -->
<g id="node16" class="node"><title>Node16</title>
<g id="a_node16"><a xlink:href="../../d0/d8c/classparser_1_1_logo_parser_token_manager.html#a1bad232a9ce95d19e7133cbee0b538b5" target="_top" xlink:title="parser.LogoParserTokenManager.jj\lMoveStringLiteralDfa6_0">
<polygon fill="white" stroke="black" points="432.5,-143 432.5,-173 611.5,-173 611.5,-143 432.5,-143"/>
<text text-anchor="start" x="440.5" y="-161" font-family="Helvetica,sans-Serif" font-size="10.00">parser.LogoParserTokenManager.jj</text>
<text text-anchor="middle" x="522" y="-150" font-family="Helvetica,sans-Serif" font-size="10.00">MoveStringLiteralDfa6_0</text>
</a>
</g>
</g>
<!-- Node2&#45;&gt;Node16 -->
<g id="edge19" class="edge"><title>Node2&#45;&gt;Node16</title>
<path fill="none" stroke="midnightblue" d="M395.587,-158C404.442,-158 413.472,-158 422.422,-158"/>
<polygon fill="midnightblue" stroke="midnightblue" points="422.48,-161.5 432.48,-158 422.48,-154.5 422.48,-161.5"/>
</g>
<!-- Node2&#45;&gt;Node17 -->
<g id="edge26" class="edge"><title>Node2&#45;&gt;Node17</title>
<path fill="none" stroke="midnightblue" d="M377.57,-142.945C395.293,-139.424 414.305,-135.868 432,-133 500.59,-121.884 578.316,-112.244 638.137,-105.455"/>
<polygon fill="midnightblue" stroke="midnightblue" points="638.789,-108.904 648.334,-104.306 638.005,-101.948 638.789,-108.904"/>
</g>
<!-- Node4 -->
<g id="node4" class="node"><title>Node4</title>
<g id="a_node4"><a xlink:href="../../d0/d8c/classparser_1_1_logo_parser_token_manager.html#a0071f141b41b403c8ab151c8c014a709" target="_top" xlink:title="parser.LogoParserTokenManager.jj\lMoveNfa_0">
<polygon fill="white" stroke="black" points="864.5,-187 864.5,-217 1043.5,-217 1043.5,-187 864.5,-187"/>
<text text-anchor="start" x="872.5" y="-205" font-family="Helvetica,sans-Serif" font-size="10.00">parser.LogoParserTokenManager.jj</text>
<text text-anchor="middle" x="954" y="-194" font-family="Helvetica,sans-Serif" font-size="10.00">MoveNfa_0</text>
</a>
</g>
</g>
<!-- Node3&#45;&gt;Node4 -->
<g id="edge3" class="edge"><title>Node3&#45;&gt;Node4</title>
<path fill="none" stroke="midnightblue" d="M827.587,-213.135C836.442,-212.349 845.472,-211.547 854.422,-210.752"/>
<polygon fill="midnightblue" stroke="midnightblue" points="854.828,-214.23 864.48,-209.859 854.209,-207.257 854.828,-214.23"/>
</g>
<!-- Node3&#45;&gt;Node15 -->
<g id="edge16" class="edge"><title>Node3&#45;&gt;Node15</title>
<path fill="none" stroke="midnightblue" d="M813.847,-236.039C831.44,-239.574 850.313,-243.367 868.304,-246.982"/>
<polygon fill="midnightblue" stroke="midnightblue" points="867.702,-250.431 878.195,-248.969 869.081,-243.568 867.702,-250.431"/>
</g>
<!-- Node5 -->
<g id="node5" class="node"><title>Node5</title>
<g id="a_node5"><a xlink:href="../../d0/d8c/classparser_1_1_logo_parser_token_manager.html#ad31cdd6db411f95b045686c2053f42fa" target="_top" xlink:title="parser.LogoParserTokenManager.jj\lAddStates">
<polygon fill="white" stroke="black" points="1084.5,-145 1084.5,-175 1263.5,-175 1263.5,-145 1084.5,-145"/>
<text text-anchor="start" x="1092.5" y="-163" font-family="Helvetica,sans-Serif" font-size="10.00">parser.LogoParserTokenManager.jj</text>
<text text-anchor="middle" x="1174" y="-152" font-family="Helvetica,sans-Serif" font-size="10.00">AddStates</text>
</a>
</g>
</g>
<!-- Node4&#45;&gt;Node5 -->
<g id="edge4" class="edge"><title>Node4&#45;&gt;Node5</title>
<path fill="none" stroke="midnightblue" d="M1033.09,-186.956C1049.94,-183.709 1067.86,-180.255 1085.06,-176.942"/>
<polygon fill="midnightblue" stroke="midnightblue" points="1085.93,-180.339 1095.09,-175.01 1084.61,-173.465 1085.93,-180.339"/>
</g>
<!-- Node6 -->
<g id="node6" class="node"><title>Node6</title>
<g id="a_node6"><a xlink:href="../../d0/d8c/classparser_1_1_logo_parser_token_manager.html#af1b1635a624926faf7741958cc140de4" target="_top" xlink:title="parser.LogoParserTokenManager.jj\lCheckNAdd">
<polygon fill="white" stroke="black" points="1304.5,-243 1304.5,-273 1483.5,-273 1483.5,-243 1304.5,-243"/>
<text text-anchor="start" x="1312.5" y="-261" font-family="Helvetica,sans-Serif" font-size="10.00">parser.LogoParserTokenManager.jj</text>
<text text-anchor="middle" x="1394" y="-250" font-family="Helvetica,sans-Serif" font-size="10.00">CheckNAdd</text>
</a>
</g>
</g>
<!-- Node4&#45;&gt;Node6 -->
<g id="edge5" class="edge"><title>Node4&#45;&gt;Node6</title>
<path fill="none" stroke="midnightblue" d="M982.453,-186.847C1017.63,-167.492 1074.75,-136.319 1080,-135 1161.04,-114.651 1190.68,-103.336 1268,-135 1317.02,-155.075 1357.15,-204.684 1377.83,-234.404"/>
<polygon fill="midnightblue" stroke="midnightblue" points="1375.1,-236.62 1383.61,-242.935 1380.9,-232.693 1375.1,-236.62"/>
</g>
<!-- Node7 -->
<g id="node7" class="node"><title>Node7</title>
<g id="a_node7"><a xlink:href="../../d0/d8c/classparser_1_1_logo_parser_token_manager.html#ac4047538420e7ceceec16698b354cd62" target="_top" xlink:title="parser.LogoParserTokenManager.jj\lCheckNAddStates">
<polygon fill="white" stroke="black" points="1084.5,-292 1084.5,-322 1263.5,-322 1263.5,-292 1084.5,-292"/>
<text text-anchor="start" x="1092.5" y="-310" font-family="Helvetica,sans-Serif" font-size="10.00">parser.LogoParserTokenManager.jj</text>
<text text-anchor="middle" x="1174" y="-299" font-family="Helvetica,sans-Serif" font-size="10.00">CheckNAddStates</text>
</a>
</g>
</g>
<!-- Node4&#45;&gt;Node7 -->
<g id="edge6" class="edge"><title>Node4&#45;&gt;Node7</title>
<path fill="none" stroke="midnightblue" d="M1002.97,-217.058C1016.94,-222.699 1031.73,-229.981 1044,-239 1064.08,-253.762 1058.99,-268.588 1080,-282 1083.31,-284.116 1086.8,-286.054 1090.41,-287.828"/>
<polygon fill="midnightblue" stroke="midnightblue" points="1089.02,-291.04 1099.57,-291.913 1091.87,-284.646 1089.02,-291.04"/>
</g>
<!-- Node8 -->
<g id="node8" class="node"><title>Node8</title>
<g id="a_node8"><a xlink:href="../../d0/d8c/classparser_1_1_logo_parser_token_manager.html#a8f9adc17a4a9b201128786ca145783e8" target="_top" xlink:title="parser.LogoParserTokenManager.jj\lCheckNAddTwoStates">
<polygon fill="white" stroke="black" points="1084.5,-243 1084.5,-273 1263.5,-273 1263.5,-243 1084.5,-243"/>
<text text-anchor="start" x="1092.5" y="-261" font-family="Helvetica,sans-Serif" font-size="10.00">parser.LogoParserTokenManager.jj</text>
<text text-anchor="middle" x="1174" y="-250" font-family="Helvetica,sans-Serif" font-size="10.00">CheckNAddTwoStates</text>
</a>
</g>
</g>
<!-- Node4&#45;&gt;Node8 -->
<g id="edge8" class="edge"><title>Node4&#45;&gt;Node8</title>
<path fill="none" stroke="midnightblue" d="M1013.42,-217.007C1041.52,-224.226 1075.39,-232.925 1104.68,-240.449"/>
<polygon fill="midnightblue" stroke="midnightblue" points="1103.86,-243.853 1114.42,-242.952 1105.6,-237.074 1103.86,-243.853"/>
</g>
<!-- Node4&#45;&gt;Node9 -->
<g id="edge10" class="edge"><title>Node4&#45;&gt;Node9</title>
<path fill="none" stroke="midnightblue" d="M990.744,-186.943C1008.02,-178.565 1028.35,-166.993 1044,-153 1064.68,-134.504 1057.17,-117.765 1080,-102 1086.46,-97.5364 1093.7,-93.9028 1101.2,-90.945"/>
<polygon fill="midnightblue" stroke="midnightblue" points="1102.55,-94.1813 1110.81,-87.5482 1100.21,-87.5816 1102.55,-94.1813"/>
</g>
<!-- Node14 -->
<g id="node14" class="node"><title>Node14</title>
<g id="a_node14"><a xlink:href="../../d0/d8c/classparser_1_1_logo_parser_token_manager.html#a5923cb696d0a55f99661625200327816" target="_top" xlink:title="parser.LogoParserTokenManager.\lReInitRounds">
<polygon fill="white" stroke="black" points="1087,-194 1087,-224 1261,-224 1261,-194 1087,-194"/>
<text text-anchor="start" x="1095" y="-212" font-family="Helvetica,sans-Serif" font-size="10.00">parser.LogoParserTokenManager.</text>
<text text-anchor="middle" x="1174" y="-201" font-family="Helvetica,sans-Serif" font-size="10.00">ReInitRounds</text>
</a>
</g>
</g>
<!-- Node4&#45;&gt;Node14 -->
<g id="edge15" class="edge"><title>Node4&#45;&gt;Node14</title>
<path fill="none" stroke="midnightblue" d="M1043.67,-204.847C1054.59,-205.198 1065.79,-205.558 1076.82,-205.912"/>
<polygon fill="midnightblue" stroke="midnightblue" points="1076.77,-209.412 1086.88,-206.235 1077,-202.415 1076.77,-209.412"/>
</g>
<!-- Node7&#45;&gt;Node6 -->
<g id="edge7" class="edge"><title>Node7&#45;&gt;Node6</title>
<path fill="none" stroke="midnightblue" d="M1241.89,-291.965C1265.43,-286.674 1292.07,-280.687 1316.35,-275.229"/>
<polygon fill="midnightblue" stroke="midnightblue" points="1317.25,-278.614 1326.24,-273.006 1315.71,-271.784 1317.25,-278.614"/>
</g>
<!-- Node8&#45;&gt;Node6 -->
<g id="edge9" class="edge"><title>Node8&#45;&gt;Node6</title>
<path fill="none" stroke="midnightblue" d="M1263.67,-258C1273.75,-258 1284.07,-258 1294.27,-258"/>
<polygon fill="midnightblue" stroke="midnightblue" points="1294.41,-261.5 1304.41,-258 1294.41,-254.5 1294.41,-261.5"/>
</g>
<!-- Node10 -->
<g id="node10" class="node"><title>Node10</title>
<g id="a_node10"><a xlink:href="../../d4/dad/classparser_1_1_simple_char_stream.html#aac1dcd2a238adbc951d3af740cc2aa13" target="_top" xlink:title="parser.SimpleCharStream.\lFillBuff">
<polygon fill="white" stroke="black" points="1322,-39 1322,-69 1466,-69 1466,-39 1322,-39"/>
<text text-anchor="start" x="1330" y="-57" font-family="Helvetica,sans-Serif" font-size="10.00">parser.SimpleCharStream.</text>
<text text-anchor="middle" x="1394" y="-46" font-family="Helvetica,sans-Serif" font-size="10.00">FillBuff</text>
</a>
</g>
</g>
<!-- Node9&#45;&gt;Node10 -->
<g id="edge11" class="edge"><title>Node9&#45;&gt;Node10</title>
<path fill="none" stroke="midnightblue" d="M1261.47,-68.4801C1278.01,-66.6593 1295.27,-64.7589 1311.64,-62.9566"/>
<polygon fill="midnightblue" stroke="midnightblue" points="1312.15,-66.422 1321.71,-61.8486 1311.39,-59.464 1312.15,-66.422"/>
</g>
<!-- Node13 -->
<g id="node13" class="node"><title>Node13</title>
<g id="a_node13"><a xlink:href="../../d4/dad/classparser_1_1_simple_char_stream.html#ad8ca3472934b9d38c005c8885d859403" target="_top" xlink:title="parser.SimpleCharStream.\lUpdateLineColumn">
<polygon fill="white" stroke="black" points="1322,-88 1322,-118 1466,-118 1466,-88 1322,-88"/>
<text text-anchor="start" x="1330" y="-106" font-family="Helvetica,sans-Serif" font-size="10.00">parser.SimpleCharStream.</text>
<text text-anchor="middle" x="1394" y="-95" font-family="Helvetica,sans-Serif" font-size="10.00">UpdateLineColumn</text>
</a>
</g>
</g>
<!-- Node9&#45;&gt;Node13 -->
<g id="edge14" class="edge"><title>Node9&#45;&gt;Node13</title>
<path fill="none" stroke="midnightblue" d="M1258.04,-87.5227C1275.64,-89.5414 1294.2,-91.67 1311.74,-93.6809"/>
<polygon fill="midnightblue" stroke="midnightblue" points="1311.59,-97.1874 1321.93,-94.8496 1312.39,-90.233 1311.59,-97.1874"/>
</g>
<!-- Node11 -->
<g id="node11" class="node"><title>Node11</title>
<g id="a_node11"><a xlink:href="../../d4/dad/classparser_1_1_simple_char_stream.html#a5328cda7180ed2a180eac8af133517cf" target="_top" xlink:title="parser.SimpleCharStream.\lExpandBuff">
<polygon fill="white" stroke="black" points="1538,-61 1538,-91 1682,-91 1682,-61 1538,-61"/>
<text text-anchor="start" x="1546" y="-79" font-family="Helvetica,sans-Serif" font-size="10.00">parser.SimpleCharStream.</text>
<text text-anchor="middle" x="1610" y="-68" font-family="Helvetica,sans-Serif" font-size="10.00">ExpandBuff</text>
</a>
</g>
</g>
<!-- Node10&#45;&gt;Node11 -->
<g id="edge12" class="edge"><title>Node10&#45;&gt;Node11</title>
<path fill="none" stroke="midnightblue" d="M1466.26,-61.3257C1485.92,-63.3467 1507.39,-65.5546 1527.58,-67.6299"/>
<polygon fill="midnightblue" stroke="midnightblue" points="1527.38,-71.1277 1537.69,-68.6688 1528.1,-64.1644 1527.38,-71.1277"/>
</g>
<!-- Node12 -->
<g id="node12" class="node"><title>Node12</title>
<g id="a_node12"><a xlink:href="../../d4/dad/classparser_1_1_simple_char_stream.html#a4eacb833520fdfdb1b18be45bc3bd4ba" target="_top" xlink:title="parser.SimpleCharStream.backup">
<polygon fill="white" stroke="black" points="1520.5,-22.5 1520.5,-41.5 1699.5,-41.5 1699.5,-22.5 1520.5,-22.5"/>
<text text-anchor="middle" x="1610" y="-29.5" font-family="Helvetica,sans-Serif" font-size="10.00">parser.SimpleCharStream.backup</text>
</a>
</g>
</g>
<!-- Node10&#45;&gt;Node12 -->
<g id="edge13" class="edge"><title>Node10&#45;&gt;Node12</title>
<path fill="none" stroke="midnightblue" d="M1466.26,-46.6743C1480.29,-45.2322 1495.24,-43.6948 1509.99,-42.1784"/>
<polygon fill="midnightblue" stroke="midnightblue" points="1510.57,-45.6378 1520.16,-41.1334 1509.85,-38.6745 1510.57,-45.6378"/>
</g>
<!-- Node16&#45;&gt;Node3 -->
<g id="edge20" class="edge"><title>Node16&#45;&gt;Node3</title>
<path fill="none" stroke="midnightblue" d="M573.986,-173.01C604.684,-182.047 643.949,-193.606 676.25,-203.116"/>
<polygon fill="midnightblue" stroke="midnightblue" points="675.452,-206.529 686.034,-205.996 677.429,-199.814 675.452,-206.529"/>
</g>
<!-- Node16&#45;&gt;Node9 -->
<g id="edge21" class="edge"><title>Node16&#45;&gt;Node9</title>
<path fill="none" stroke="midnightblue" d="M611.727,-150.131C715.598,-140.495 892.689,-122.741 1044,-101 1067.04,-97.6893 1092.27,-93.3504 1114.26,-89.3344"/>
<polygon fill="midnightblue" stroke="midnightblue" points="1114.92,-92.7724 1124.12,-87.5167 1113.65,-85.8885 1114.92,-92.7724"/>
</g>
<!-- Node16&#45;&gt;Node15 -->
<g id="edge22" class="edge"><title>Node16&#45;&gt;Node15</title>
<path fill="none" stroke="midnightblue" d="M611.567,-156.012C674.372,-157.659 759.345,-166.214 828,-196 847.107,-204.289 846.235,-215.129 864,-226 875.534,-233.058 888.613,-239.434 901.124,-244.859"/>
<polygon fill="midnightblue" stroke="midnightblue" points="899.972,-248.171 910.547,-248.818 902.683,-241.718 899.972,-248.171"/>
</g>
<!-- Node16&#45;&gt;Node17 -->
<g id="edge23" class="edge"><title>Node16&#45;&gt;Node17</title>
<path fill="none" stroke="midnightblue" d="M573.986,-142.99C604.684,-133.953 643.949,-122.394 676.25,-112.884"/>
<polygon fill="midnightblue" stroke="midnightblue" points="677.429,-116.186 686.034,-110.004 675.452,-109.471 677.429,-116.186"/>
</g>
<!-- Node17&#45;&gt;Node4 -->
<g id="edge25" class="edge"><title>Node17&#45;&gt;Node4</title>
<path fill="none" stroke="midnightblue" d="M769.207,-110.104C807.125,-129.062 872.236,-161.618 913.914,-182.457"/>
<polygon fill="midnightblue" stroke="midnightblue" points="912.437,-185.632 922.947,-186.973 915.568,-179.371 912.437,-185.632"/>
</g>
<!-- Node17&#45;&gt;Node9 -->
<g id="edge24" class="edge"><title>Node17&#45;&gt;Node9</title>
<path fill="none" stroke="midnightblue" d="M827.611,-91.529C897.699,-88.7837 995.688,-84.9454 1069.4,-82.0581"/>
<polygon fill="midnightblue" stroke="midnightblue" points="1069.78,-85.546 1079.63,-81.6572 1069.5,-78.5514 1069.78,-85.546"/>
</g>
</g>
</svg>
