<?xml version="1.0" encoding="UTF-8" standalone="no"?>
<!DOCTYPE svg PUBLIC "-//W3C//DTD SVG 1.1//EN"
 "http://www.w3.org/Graphics/SVG/1.1/DTD/svg11.dtd">
<!-- Generated by graphviz version 2.36.0 (20140111.2315)
 -->
<!-- Title: parser.LogoParserTokenManager.jjStartNfaWithStates_0 Pages: 1 -->
<!--zoomable 426 -->
<svg id="main" version="1.1" xmlns="http://www.w3.org/2000/svg" xmlns:xlink="http://www.w3.org/1999/xlink" xml:space="preserve" onload="init(evt)">
<style type="text/css"><![CDATA[
.edge:hover path { stroke: red; }
.edge:hover polygon { stroke: red; fill: red; }
]]></style>
<script type="text/javascript"><![CDATA[
var edges = document.getElementsByTagName('g');
if (edges && edges.length) {
  for (var i=0;i<edges.length;i++) {
    if (edges[i].id.substr(0,4)=='edge') {
      edges[i].setAttribute('class','edge');
    }
  }
}
]]></script>
        <defs>
                <circle id="rim" cx="0" cy="0" r="7"/>
                <circle id="rim2" cx="0" cy="0" r="3.5"/>
                <g id="zoomPlus">
                        <use xlink:href="#rim" fill="#404040">
                                <set attributeName="fill" to="#808080" begin="zoomplus.mouseover" end="zoomplus.mouseout"/>
                        </use>
                        <path d="M-4,0h8M0,-4v8" fill="none" stroke="white" stroke-width="1.5" pointer-events="none"/>
                </g>
                <g id="zoomMin">
                        <use xlink:href="#rim" fill="#404040">
                                <set attributeName="fill" to="#808080" begin="zoomminus.mouseover" end="zoomminus.mouseout"/>
                        </use>
                        <path d="M-4,0h8" fill="none" stroke="white" stroke-width="1.5" pointer-events="none"/>
                </g>
                <g id="dirArrow">
                        <path fill="none" stroke="white" stroke-width="1.5" d="M0,-3.0v7 M-2.5,-0.5L0,-3.0L2.5,-0.5"/>
                </g>
               <g id="resetDef">
                       <use xlink:href="#rim2" fill="#404040">
                               <set attributeName="fill" to="#808080" begin="reset.mouseover" end="reset.mouseout"/>
                       </use>
               </g>
        </defs>

<script type="text/javascript">
var viewWidth = 4318;
var viewHeight = 426;
var sectionId = 'dynsection-32';
</script>
<script xlink:href="../../svgpan.js"/>
<svg id="graph" class="graph">
<g id="viewport">
<title>parser.LogoParserTokenManager.jjStartNfaWithStates_0</title>
<polygon fill="white" stroke="none" points="-4,4 -4,-422.128 4314,-422.128 4314,4 -4,4"/>
<!-- Node1 -->
<g id="node1" class="node"><title>Node1</title>
<polygon fill="#bfbfbf" stroke="black" points="0.5,-256.128 0.5,-286.128 179.5,-286.128 179.5,-256.128 0.5,-256.128"/>
<text text-anchor="start" x="8.5" y="-274.128" font-family="Helvetica,sans-Serif" font-size="10.00">parser.LogoParserTokenManager.jj</text>
<text text-anchor="middle" x="90" y="-263.128" font-family="Helvetica,sans-Serif" font-size="10.00">StartNfaWithStates_0</text>
</g>
<!-- Node2 -->
<g id="node2" class="node"><title>Node2</title>
<g id="a_node2"><a xlink:href="../../d0/d8c/classparser_1_1_logo_parser_token_manager.html#a2b55f093fc0200c57a099eba2d9b37e2" target="_top" xlink:title="parser.LogoParserTokenManager.jj\lMoveStringLiteralDfa0_0">
<polygon fill="white" stroke="black" points="1512.5,-308.128 1512.5,-338.128 1691.5,-338.128 1691.5,-308.128 1512.5,-308.128"/>
<text text-anchor="start" x="1520.5" y="-326.128" font-family="Helvetica,sans-Serif" font-size="10.00">parser.LogoParserTokenManager.jj</text>
<text text-anchor="middle" x="1602" y="-315.128" font-family="Helvetica,sans-Serif" font-size="10.00">MoveStringLiteralDfa0_0</text>
</a>
</g>
</g>
<!-- Node1&#45;&gt;Node2 -->
<g id="edge1" class="edge"><title>Node1&#45;&gt;Node2</title>
<path fill="none" stroke="midnightblue" d="M139.699,-289.744C218.56,-318.168 379.654,-369.128 521,-369.128 521,-369.128 521,-369.128 1171,-369.128 1289.62,-369.128 1425.62,-351.606 1512.35,-338.19"/>
<polygon fill="midnightblue" stroke="midnightblue" points="140.633,-286.359 130.039,-286.226 138.238,-292.937 140.633,-286.359"/>
</g>
<!-- Node24 -->
<g id="node24" class="node"><title>Node24</title>
<g id="a_node24"><a xlink:href="../../d0/d8c/classparser_1_1_logo_parser_token_manager.html#a26eaeb3ef169f93c03edbb3e26128b7a" target="_top" xlink:title="parser.LogoParserTokenManager.jj\lMoveStringLiteralDfa2_0">
<polygon fill="white" stroke="black" points="1080.5,-215.128 1080.5,-245.128 1259.5,-245.128 1259.5,-215.128 1080.5,-215.128"/>
<text text-anchor="start" x="1088.5" y="-233.128" font-family="Helvetica,sans-Serif" font-size="10.00">parser.LogoParserTokenManager.jj</text>
<text text-anchor="middle" x="1170" y="-222.128" font-family="Helvetica,sans-Serif" font-size="10.00">MoveStringLiteralDfa2_0</text>
</a>
</g>
</g>
<!-- Node1&#45;&gt;Node24 -->
<g id="edge37" class="edge"><title>Node1&#45;&gt;Node24</title>
<path fill="none" stroke="midnightblue" d="M119.84,-250.183C144.202,-233.648 180.673,-211.529 216,-200.128 345.757,-158.253 384.653,-167.128 521,-167.128 521,-167.128 521,-167.128 739,-167.128 870.848,-167.128 1023.06,-196.484 1106.39,-215.118"/>
<polygon fill="midnightblue" stroke="midnightblue" points="117.673,-247.427 111.437,-255.992 121.653,-253.185 117.673,-247.427"/>
</g>
<!-- Node26 -->
<g id="node26" class="node"><title>Node26</title>
<g id="a_node26"><a xlink:href="../../d0/d8c/classparser_1_1_logo_parser_token_manager.html#a12bfedaecfaf646642cb1aba5b1bd6fb" target="_top" xlink:title="parser.LogoParserTokenManager.jj\lMoveStringLiteralDfa3_0">
<polygon fill="white" stroke="black" points="864.5,-215.128 864.5,-245.128 1043.5,-245.128 1043.5,-215.128 864.5,-215.128"/>
<text text-anchor="start" x="872.5" y="-233.128" font-family="Helvetica,sans-Serif" font-size="10.00">parser.LogoParserTokenManager.jj</text>
<text text-anchor="middle" x="954" y="-222.128" font-family="Helvetica,sans-Serif" font-size="10.00">MoveStringLiteralDfa3_0</text>
</a>
</g>
</g>
<!-- Node1&#45;&gt;Node26 -->
<g id="edge40" class="edge"><title>Node1&#45;&gt;Node26</title>
<path fill="none" stroke="midnightblue" d="M130.856,-251.934C154.901,-241.431 186.498,-229.491 216,-224.128 446.855,-182.162 725.136,-203.396 864.449,-218.821"/>
<polygon fill="midnightblue" stroke="midnightblue" points="129.406,-248.748 121.702,-256.022 132.261,-255.14 129.406,-248.748"/>
</g>
<!-- Node27 -->
<g id="node27" class="node"><title>Node27</title>
<g id="a_node27"><a xlink:href="../../d0/d8c/classparser_1_1_logo_parser_token_manager.html#aa9aaf3af52d382735345487d2b89e0cf" target="_top" xlink:title="parser.LogoParserTokenManager.jj\lMoveStringLiteralDfa4_0">
<polygon fill="white" stroke="black" points="648.5,-253.128 648.5,-283.128 827.5,-283.128 827.5,-253.128 648.5,-253.128"/>
<text text-anchor="start" x="656.5" y="-271.128" font-family="Helvetica,sans-Serif" font-size="10.00">parser.LogoParserTokenManager.jj</text>
<text text-anchor="middle" x="738" y="-260.128" font-family="Helvetica,sans-Serif" font-size="10.00">MoveStringLiteralDfa4_0</text>
</a>
</g>
</g>
<!-- Node1&#45;&gt;Node27 -->
<g id="edge42" class="edge"><title>Node1&#45;&gt;Node27</title>
<path fill="none" stroke="midnightblue" d="M189.664,-285.634C198.555,-286.612 207.433,-287.469 216,-288.128 391.49,-301.64 436.782,-308.797 612,-292.128 631.359,-290.287 652.179,-286.875 671.168,-283.191"/>
<polygon fill="midnightblue" stroke="midnightblue" points="189.97,-282.146 179.636,-284.482 189.171,-289.1 189.97,-282.146"/>
</g>
<!-- Node28 -->
<g id="node28" class="node"><title>Node28</title>
<g id="a_node28"><a xlink:href="../../d0/d8c/classparser_1_1_logo_parser_token_manager.html#a4553920ced069b9d4852f1c1020bea38" target="_top" xlink:title="parser.LogoParserTokenManager.jj\lMoveStringLiteralDfa5_0">
<polygon fill="white" stroke="black" points="432.5,-253.128 432.5,-283.128 611.5,-283.128 611.5,-253.128 432.5,-253.128"/>
<text text-anchor="start" x="440.5" y="-271.128" font-family="Helvetica,sans-Serif" font-size="10.00">parser.LogoParserTokenManager.jj</text>
<text text-anchor="middle" x="522" y="-260.128" font-family="Helvetica,sans-Serif" font-size="10.00">MoveStringLiteralDfa5_0</text>
</a>
</g>
</g>
<!-- Node1&#45;&gt;Node28 -->
<g id="edge44" class="edge"><title>Node1&#45;&gt;Node28</title>
<path fill="none" stroke="midnightblue" d="M189.935,-273.105C249.623,-273.967 327.186,-274.504 396,-273.128 407.726,-272.894 420.067,-272.536 432.241,-272.117"/>
<polygon fill="midnightblue" stroke="midnightblue" points="189.812,-269.603 179.761,-272.953 189.707,-276.602 189.812,-269.603"/>
</g>
<!-- Node29 -->
<g id="node29" class="node"><title>Node29</title>
<g id="a_node29"><a xlink:href="../../d0/d8c/classparser_1_1_logo_parser_token_manager.html#a1bad232a9ce95d19e7133cbee0b538b5" target="_top" xlink:title="parser.LogoParserTokenManager.jj\lMoveStringLiteralDfa6_0">
<polygon fill="white" stroke="black" points="216.5,-234.128 216.5,-264.128 395.5,-264.128 395.5,-234.128 216.5,-234.128"/>
<text text-anchor="start" x="224.5" y="-252.128" font-family="Helvetica,sans-Serif" font-size="10.00">parser.LogoParserTokenManager.jj</text>
<text text-anchor="middle" x="306" y="-241.128" font-family="Helvetica,sans-Serif" font-size="10.00">MoveStringLiteralDfa6_0</text>
</a>
</g>
</g>
<!-- Node1&#45;&gt;Node29 -->
<g id="edge46" class="edge"><title>Node1&#45;&gt;Node29</title>
<path fill="none" stroke="midnightblue" d="M189.645,-260.987C198.596,-260.067 207.625,-259.139 216.48,-258.229"/>
<polygon fill="midnightblue" stroke="midnightblue" points="189.176,-257.517 179.587,-262.021 189.892,-264.48 189.176,-257.517"/>
</g>
<!-- Node3 -->
<g id="node3" class="node"><title>Node3</title>
<g id="a_node3"><a xlink:href="../../d0/d8c/classparser_1_1_logo_parser_token_manager.html#a3dee50e2286b70ba662519a865e63b77" target="_top" xlink:title="parser.LogoParserTokenManager.get\lNextToken">
<polygon fill="white" stroke="black" points="1728,-308.128 1728,-338.128 1918,-338.128 1918,-308.128 1728,-308.128"/>
<text text-anchor="start" x="1736" y="-326.128" font-family="Helvetica,sans-Serif" font-size="10.00">parser.LogoParserTokenManager.get</text>
<text text-anchor="middle" x="1823" y="-315.128" font-family="Helvetica,sans-Serif" font-size="10.00">NextToken</text>
</a>
</g>
</g>
<!-- Node2&#45;&gt;Node3 -->
<g id="edge2" class="edge"><title>Node2&#45;&gt;Node3</title>
<path fill="none" stroke="midnightblue" d="M1701.83,-323.128C1710.46,-323.128 1719.17,-323.128 1727.76,-323.128"/>
<polygon fill="midnightblue" stroke="midnightblue" points="1701.76,-319.628 1691.76,-323.128 1701.76,-326.628 1701.76,-319.628"/>
</g>
<!-- Node4 -->
<g id="node4" class="node"><title>Node4</title>
<g id="a_node4"><a xlink:href="../../d5/d0e/classparser_1_1_logo_parser.html#a7477b52c4469ea43d75f88fb805e37a1" target="_top" xlink:title="parser.LogoParser.getNext\lToken">
<polygon fill="white" stroke="black" points="1956.5,-371.128 1956.5,-401.128 2099.5,-401.128 2099.5,-371.128 1956.5,-371.128"/>
<text text-anchor="start" x="1964.5" y="-389.128" font-family="Helvetica,sans-Serif" font-size="10.00">parser.LogoParser.getNext</text>
<text text-anchor="middle" x="2028" y="-378.128" font-family="Helvetica,sans-Serif" font-size="10.00">Token</text>
</a>
</g>
</g>
<!-- Node3&#45;&gt;Node4 -->
<g id="edge3" class="edge"><title>Node3&#45;&gt;Node4</title>
<path fill="none" stroke="midnightblue" d="M1882.04,-341.142C1912.61,-350.629 1949.66,-362.127 1978.65,-371.124"/>
<polygon fill="midnightblue" stroke="midnightblue" points="1882.95,-337.76 1872.37,-338.138 1880.88,-344.445 1882.95,-337.76"/>
</g>
<!-- Node5 -->
<g id="node5" class="node"><title>Node5</title>
<g id="a_node5"><a xlink:href="../../d5/d0e/classparser_1_1_logo_parser.html#a63b7890a7d6323bcf938132f968e8157" target="_top" xlink:title="parser.LogoParser.getToken">
<polygon fill="white" stroke="black" points="1954,-332.628 1954,-351.628 2102,-351.628 2102,-332.628 1954,-332.628"/>
<text text-anchor="middle" x="2028" y="-339.628" font-family="Helvetica,sans-Serif" font-size="10.00">parser.LogoParser.getToken</text>
</a>
</g>
</g>
<!-- Node3&#45;&gt;Node5 -->
<g id="edge4" class="edge"><title>Node3&#45;&gt;Node5</title>
<path fill="none" stroke="midnightblue" d="M1928.24,-332.885C1936.91,-333.696 1945.54,-334.504 1953.9,-335.287"/>
<polygon fill="midnightblue" stroke="midnightblue" points="1928.35,-329.38 1918.07,-331.933 1927.7,-336.35 1928.35,-329.38"/>
</g>
<!-- Node6 -->
<g id="node6" class="node"><title>Node6</title>
<g id="a_node6"><a xlink:href="../../d5/d0e/classparser_1_1_logo_parser.html#a550039a3180ec86ef01f419aefc02edc" target="_top" xlink:title="parser.LogoParser.jj\l_consume_token">
<polygon fill="white" stroke="black" points="1973,-118.128 1973,-148.128 2083,-148.128 2083,-118.128 1973,-118.128"/>
<text text-anchor="start" x="1981" y="-136.128" font-family="Helvetica,sans-Serif" font-size="10.00">parser.LogoParser.jj</text>
<text text-anchor="middle" x="2028" y="-125.128" font-family="Helvetica,sans-Serif" font-size="10.00">_consume_token</text>
</a>
</g>
</g>
<!-- Node3&#45;&gt;Node6 -->
<g id="edge5" class="edge"><title>Node3&#45;&gt;Node6</title>
<path fill="none" stroke="midnightblue" d="M1847.79,-300.864C1889.63,-261.703 1975.33,-181.49 2010.94,-148.164"/>
<polygon fill="midnightblue" stroke="midnightblue" points="1845.18,-298.512 1840.27,-307.901 1849.96,-303.623 1845.18,-298.512"/>
</g>
<!-- Node23 -->
<g id="node23" class="node"><title>Node23</title>
<g id="a_node23"><a xlink:href="../../d5/d0e/classparser_1_1_logo_parser.html#a2e48e3ab2c1c075beca7bcc54d891afd" target="_top" xlink:title="parser.LogoParser.jj_ntk">
<polygon fill="white" stroke="black" points="1963,-294.628 1963,-313.628 2093,-313.628 2093,-294.628 1963,-294.628"/>
<text text-anchor="middle" x="2028" y="-301.628" font-family="Helvetica,sans-Serif" font-size="10.00">parser.LogoParser.jj_ntk</text>
</a>
</g>
</g>
<!-- Node3&#45;&gt;Node23 -->
<g id="edge30" class="edge"><title>Node3&#45;&gt;Node23</title>
<path fill="none" stroke="midnightblue" d="M1928.38,-313.359C1940.12,-312.26 1951.8,-311.167 1962.81,-310.137"/>
<polygon fill="midnightblue" stroke="midnightblue" points="1927.7,-309.907 1918.07,-314.324 1928.35,-316.876 1927.7,-309.907"/>
</g>
<!-- Node7 -->
<g id="node7" class="node"><title>Node7</title>
<g id="a_node7"><a xlink:href="../../d5/d0e/classparser_1_1_logo_parser.html#a82acce8328e52f3b2bcb90542cc800b7" target="_top" xlink:title="parser.LogoParser.arithm">
<polygon fill="white" stroke="black" points="2462.5,-170.628 2462.5,-189.628 2599.5,-189.628 2599.5,-170.628 2462.5,-170.628"/>
<text text-anchor="middle" x="2531" y="-177.628" font-family="Helvetica,sans-Serif" font-size="10.00">parser.LogoParser.arithm</text>
</a>
</g>
</g>
<!-- Node6&#45;&gt;Node7 -->
<g id="edge6" class="edge"><title>Node6&#45;&gt;Node7</title>
<path fill="none" stroke="midnightblue" d="M2093.14,-139.145C2188.08,-148.052 2365.24,-164.672 2462.23,-173.771"/>
<polygon fill="midnightblue" stroke="midnightblue" points="2093.38,-135.652 2083.09,-138.203 2092.72,-142.622 2093.38,-135.652"/>
</g>
<!-- Node8 -->
<g id="node8" class="node"><title>Node8</title>
<g id="a_node8"><a xlink:href="../../d5/d0e/classparser_1_1_logo_parser.html#a397c25c39976e5a1fb689e1f0dd40160" target="_top" xlink:title="parser.LogoParser.eval">
<polygon fill="white" stroke="black" points="2636.5,-137.628 2636.5,-156.628 2761.5,-156.628 2761.5,-137.628 2636.5,-137.628"/>
<text text-anchor="middle" x="2699" y="-144.628" font-family="Helvetica,sans-Serif" font-size="10.00">parser.LogoParser.eval</text>
</a>
</g>
</g>
<!-- Node6&#45;&gt;Node8 -->
<g id="edge22" class="edge"><title>Node6&#45;&gt;Node8</title>
<path fill="none" stroke="midnightblue" d="M2093.27,-134.473C2221.9,-137.165 2509.46,-143.183 2636.1,-145.833"/>
<polygon fill="midnightblue" stroke="midnightblue" points="2093.25,-130.972 2083.18,-134.262 2093.1,-137.971 2093.25,-130.972"/>
</g>
<!-- Node9 -->
<g id="node9" class="node"><title>Node9</title>
<g id="a_node9"><a xlink:href="../../d5/d0e/classparser_1_1_logo_parser.html#a6b0ba0c2b5b0bc8c2ef76863fffdb6a3" target="_top" xlink:title="parser.LogoParser.list">
<polygon fill="white" stroke="black" points="2990.5,-99.6283 2990.5,-118.628 3109.5,-118.628 3109.5,-99.6283 2990.5,-99.6283"/>
<text text-anchor="middle" x="3050" y="-106.628" font-family="Helvetica,sans-Serif" font-size="10.00">parser.LogoParser.list</text>
</a>
</g>
</g>
<!-- Node6&#45;&gt;Node9 -->
<g id="edge24" class="edge"><title>Node6&#45;&gt;Node9</title>
<path fill="none" stroke="midnightblue" d="M2063.87,-113.211C2084.79,-102.026 2112.24,-88.6456 2138,-80.1283 2233.75,-48.4635 2260.15,-38.1283 2361,-38.1283 2361,-38.1283 2361,-38.1283 2700,-38.1283 2821.81,-38.1283 2962.82,-80.173 3021.34,-99.5529"/>
<polygon fill="midnightblue" stroke="midnightblue" points="2062.16,-110.159 2055.04,-118.009 2065.5,-116.309 2062.16,-110.159"/>
</g>
<!-- Node10 -->
<g id="node10" class="node"><title>Node10</title>
<g id="a_node10"><a xlink:href="../../d5/d0e/classparser_1_1_logo_parser.html#a4a8825534e0488215d22bcd947bc4d41" target="_top" xlink:title="parser.LogoParser.expression">
<polygon fill="white" stroke="black" points="3146.5,-26.6283 3146.5,-45.6283 3303.5,-45.6283 3303.5,-26.6283 3146.5,-26.6283"/>
<text text-anchor="middle" x="3225" y="-33.6283" font-family="Helvetica,sans-Serif" font-size="10.00">parser.LogoParser.expression</text>
</a>
</g>
</g>
<!-- Node6&#45;&gt;Node10 -->
<g id="edge23" class="edge"><title>Node6&#45;&gt;Node10</title>
<path fill="none" stroke="midnightblue" d="M2048.93,-110.568C2069.17,-89.1803 2102.51,-57.9001 2138,-41.1283 2229.11,1.92439 2260.23,-0.128293 2361,-0.128293 2361,-0.128293 2361,-0.128293 2877,-0.128293 2979.81,-0.128293 3098.85,-15.9569 3167.39,-26.6226"/>
<polygon fill="midnightblue" stroke="midnightblue" points="2046.32,-108.241 2042.09,-117.955 2051.45,-112.998 2046.32,-108.241"/>
</g>
<!-- Node20 -->
<g id="node20" class="node"><title>Node20</title>
<g id="a_node20"><a xlink:href="../../d5/d0e/classparser_1_1_logo_parser.html#ad6ed8e51959a6e19a2323444aa8331c8" target="_top" xlink:title="parser.LogoParser.statement">
<polygon fill="white" stroke="black" points="2798.5,-137.628 2798.5,-156.628 2953.5,-156.628 2953.5,-137.628 2798.5,-137.628"/>
<text text-anchor="middle" x="2876" y="-144.628" font-family="Helvetica,sans-Serif" font-size="10.00">parser.LogoParser.statement</text>
</a>
</g>
</g>
<!-- Node6&#45;&gt;Node20 -->
<g id="edge28" class="edge"><title>Node6&#45;&gt;Node20</title>
<path fill="none" stroke="midnightblue" d="M2092.76,-115.549C2159.19,-98.8025 2266.57,-76.1283 2361,-76.1283 2361,-76.1283 2361,-76.1283 2532,-76.1283 2651.8,-76.1283 2790.34,-118.173 2847.83,-137.553"/>
<polygon fill="midnightblue" stroke="midnightblue" points="2091.68,-112.212 2082.86,-118.078 2093.41,-118.994 2091.68,-112.212"/>
</g>
<!-- Node21 -->
<g id="node21" class="node"><title>Node21</title>
<g id="a_node21"><a xlink:href="../../d5/d0e/classparser_1_1_logo_parser.html#a4bdaeff6df067fde6743ff07370c3b0b" target="_top" xlink:title="parser.LogoParser.pow">
<polygon fill="white" stroke="black" points="2138,-218.628 2138,-237.628 2262,-237.628 2262,-218.628 2138,-218.628"/>
<text text-anchor="middle" x="2200" y="-225.628" font-family="Helvetica,sans-Serif" font-size="10.00">parser.LogoParser.pow</text>
</a>
</g>
</g>
<!-- Node6&#45;&gt;Node21 -->
<g id="edge25" class="edge"><title>Node6&#45;&gt;Node21</title>
<path fill="none" stroke="midnightblue" d="M2057.86,-154.242C2079.29,-169.334 2109.6,-189.482 2138,-204.128 2148.52,-209.553 2160.56,-214.531 2171.15,-218.53"/>
<polygon fill="midnightblue" stroke="midnightblue" points="2059.72,-151.266 2049.54,-148.319 2055.66,-156.969 2059.72,-151.266"/>
</g>
<!-- Node22 -->
<g id="node22" class="node"><title>Node22</title>
<g id="a_node22"><a xlink:href="../../d5/d0e/classparser_1_1_logo_parser.html#a34f4226672a2711ce2691162fdb2124d" target="_top" xlink:title="parser.LogoParser.term">
<polygon fill="white" stroke="black" points="2298,-199.628 2298,-218.628 2426,-218.628 2426,-199.628 2298,-199.628"/>
<text text-anchor="middle" x="2362" y="-206.628" font-family="Helvetica,sans-Serif" font-size="10.00">parser.LogoParser.term</text>
</a>
</g>
</g>
<!-- Node6&#45;&gt;Node22 -->
<g id="edge29" class="edge"><title>Node6&#45;&gt;Node22</title>
<path fill="none" stroke="midnightblue" d="M2084.64,-151.185C2101.66,-156.381 2120.51,-161.807 2138,-166.128 2193.5,-179.842 2257.67,-191.816 2302.89,-199.621"/>
<polygon fill="midnightblue" stroke="midnightblue" points="2085.44,-147.768 2074.85,-148.162 2083.37,-154.457 2085.44,-147.768"/>
</g>
<!-- Node7&#45;&gt;Node8 -->
<g id="edge7" class="edge"><title>Node7&#45;&gt;Node8</title>
<path fill="none" stroke="midnightblue" d="M2590.06,-168.586C2609.68,-164.686 2631.35,-160.378 2650.09,-156.652"/>
<polygon fill="midnightblue" stroke="midnightblue" points="2589.14,-165.201 2580.01,-170.583 2590.5,-172.066 2589.14,-165.201"/>
</g>
<!-- Node8&#45;&gt;Node9 -->
<g id="edge8" class="edge"><title>Node8&#45;&gt;Node9</title>
<path fill="none" stroke="midnightblue" d="M2753.06,-135.677C2767.58,-132.863 2783.35,-130.097 2798,-128.128 2863.62,-119.314 2939.48,-114.278 2990.47,-111.635"/>
<polygon fill="midnightblue" stroke="midnightblue" points="2752.37,-132.246 2743.24,-137.624 2753.73,-139.112 2752.37,-132.246"/>
</g>
<!-- Node8&#45;&gt;Node20 -->
<g id="edge20" class="edge"><title>Node8&#45;&gt;Node20</title>
<path fill="none" stroke="midnightblue" d="M2771.8,-147.128C2780.51,-147.128 2789.44,-147.128 2798.22,-147.128"/>
<polygon fill="midnightblue" stroke="midnightblue" points="2771.7,-143.628 2761.7,-147.128 2771.7,-150.628 2771.7,-143.628"/>
</g>
<!-- Node9&#45;&gt;Node10 -->
<g id="edge9" class="edge"><title>Node9&#45;&gt;Node10</title>
<path fill="none" stroke="midnightblue" d="M3083.2,-95.5422C3117.58,-81.0317 3171.2,-58.4088 3201.38,-45.6741"/>
<polygon fill="midnightblue" stroke="midnightblue" points="3081.47,-92.4724 3073.62,-99.5848 3084.19,-98.9217 3081.47,-92.4724"/>
</g>
<!-- Node11 -->
<g id="node11" class="node"><title>Node11</title>
<g id="a_node11"><a xlink:href="../../d5/d0e/classparser_1_1_logo_parser.html#adefe3b97ad0d2d7fd0dcd13f7ef2c75e" target="_top" xlink:title="parser.LogoParser.parse">
<polygon fill="white" stroke="black" points="3159,-99.6283 3159,-118.628 3291,-118.628 3291,-99.6283 3159,-99.6283"/>
<text text-anchor="middle" x="3225" y="-106.628" font-family="Helvetica,sans-Serif" font-size="10.00">parser.LogoParser.parse</text>
</a>
</g>
</g>
<!-- Node9&#45;&gt;Node11 -->
<g id="edge10" class="edge"><title>Node9&#45;&gt;Node11</title>
<path fill="none" stroke="midnightblue" d="M3119.78,-109.128C3132.7,-109.128 3146.16,-109.128 3158.95,-109.128"/>
<polygon fill="midnightblue" stroke="midnightblue" points="3119.57,-105.628 3109.57,-109.128 3119.57,-112.628 3119.57,-105.628"/>
</g>
<!-- Node12 -->
<g id="node12" class="node"><title>Node12</title>
<g id="a_node12"><a xlink:href="../../d6/d95/classparser_1_1_parser.html#af3d0cef45b9f02f1707959c08d8f3797" target="_top" xlink:title="parser.Parser.parse">
<polygon fill="white" stroke="black" points="3340.5,-99.6283 3340.5,-118.628 3449.5,-118.628 3449.5,-99.6283 3340.5,-99.6283"/>
<text text-anchor="middle" x="3395" y="-106.628" font-family="Helvetica,sans-Serif" font-size="10.00">parser.Parser.parse</text>
</a>
</g>
</g>
<!-- Node11&#45;&gt;Node12 -->
<g id="edge11" class="edge"><title>Node11&#45;&gt;Node12</title>
<path fill="none" stroke="midnightblue" d="M3301.8,-109.128C3314.83,-109.128 3328.12,-109.128 3340.41,-109.128"/>
<polygon fill="midnightblue" stroke="midnightblue" points="3301.43,-105.628 3291.43,-109.128 3301.43,-112.628 3301.43,-105.628"/>
</g>
<!-- Node13 -->
<g id="node13" class="node"><title>Node13</title>
<g id="a_node13"><a xlink:href="../../d4/d06/classinput_1_1_input_executor.html#a687a9f2cbed5d27a2c7b1336a1cab8aa" target="_top" xlink:title="input.InputExecutor.process\lInput">
<polygon fill="white" stroke="black" points="3486.5,-138.128 3486.5,-168.128 3635.5,-168.128 3635.5,-138.128 3486.5,-138.128"/>
<text text-anchor="start" x="3494.5" y="-156.128" font-family="Helvetica,sans-Serif" font-size="10.00">input.InputExecutor.process</text>
<text text-anchor="middle" x="3561" y="-145.128" font-family="Helvetica,sans-Serif" font-size="10.00">Input</text>
</a>
</g>
</g>
<!-- Node12&#45;&gt;Node13 -->
<g id="edge12" class="edge"><title>Node12&#45;&gt;Node13</title>
<path fill="none" stroke="midnightblue" d="M3441.36,-121.297C3460.7,-126.486 3483.46,-132.593 3503.85,-138.063"/>
<polygon fill="midnightblue" stroke="midnightblue" points="3442.15,-117.887 3431.59,-118.676 3440.34,-124.647 3442.15,-117.887"/>
</g>
<!-- Node14 -->
<g id="node14" class="node"><title>Node14</title>
<g id="a_node14"><a xlink:href="../../d6/d95/classparser_1_1_parser.html#ae90f8410be9931ec3f349085c8fdae71" target="_top" xlink:title="parser.Parser.parseFile">
<polygon fill="white" stroke="black" points="3499,-99.6283 3499,-118.628 3623,-118.628 3623,-99.6283 3499,-99.6283"/>
<text text-anchor="middle" x="3561" y="-106.628" font-family="Helvetica,sans-Serif" font-size="10.00">parser.Parser.parseFile</text>
</a>
</g>
</g>
<!-- Node12&#45;&gt;Node14 -->
<g id="edge13" class="edge"><title>Node12&#45;&gt;Node14</title>
<path fill="none" stroke="midnightblue" d="M3459.82,-109.128C3472.63,-109.128 3486.06,-109.128 3498.79,-109.128"/>
<polygon fill="midnightblue" stroke="midnightblue" points="3459.7,-105.628 3449.7,-109.128 3459.7,-112.628 3459.7,-105.628"/>
</g>
<!-- Node19 -->
<g id="node19" class="node"><title>Node19</title>
<g id="a_node19"><a xlink:href="../../d5/d56/class_workspace.html#a0ed8fb487512971086b6f3ed0d74e4ae" target="_top" xlink:title="Workspace.sendUserInput">
<polygon fill="white" stroke="black" points="3677,-57.6283 3677,-76.6283 3817,-76.6283 3817,-57.6283 3677,-57.6283"/>
<text text-anchor="middle" x="3747" y="-64.6283" font-family="Helvetica,sans-Serif" font-size="10.00">Workspace.sendUserInput</text>
</a>
</g>
</g>
<!-- Node12&#45;&gt;Node19 -->
<g id="edge18" class="edge"><title>Node12&#45;&gt;Node19</title>
<path fill="none" stroke="midnightblue" d="M3446.23,-97.4126C3459.14,-94.7092 3473.04,-92.0626 3486,-90.1283 3550.31,-80.5301 3624.22,-74.4655 3676.76,-70.9889"/>
<polygon fill="midnightblue" stroke="midnightblue" points="3445.18,-94.0595 3436.14,-99.5804 3446.65,-100.904 3445.18,-94.0595"/>
</g>
<!-- Node15 -->
<g id="node15" class="node"><title>Node15</title>
<g id="a_node15"><a xlink:href="../../d9/de8/class_file_chooser_feature.html#ad742b8e9d07e8151f0a9ff1972867ce8" target="_top" xlink:title="FileChooserFeature.openFile\lChooser">
<polygon fill="white" stroke="black" points="3672.5,-96.1283 3672.5,-126.128 3821.5,-126.128 3821.5,-96.1283 3672.5,-96.1283"/>
<text text-anchor="start" x="3680.5" y="-114.128" font-family="Helvetica,sans-Serif" font-size="10.00">FileChooserFeature.openFile</text>
<text text-anchor="middle" x="3747" y="-103.128" font-family="Helvetica,sans-Serif" font-size="10.00">Chooser</text>
</a>
</g>
</g>
<!-- Node14&#45;&gt;Node15 -->
<g id="edge14" class="edge"><title>Node14&#45;&gt;Node15</title>
<path fill="none" stroke="midnightblue" d="M3633.17,-109.902C3646.02,-110.042 3659.44,-110.187 3672.35,-110.328"/>
<polygon fill="midnightblue" stroke="midnightblue" points="3633.05,-106.4 3623.01,-109.791 3632.98,-113.4 3633.05,-106.4"/>
</g>
<!-- Node16 -->
<g id="node16" class="node"><title>Node16</title>
<g id="a_node16"><a xlink:href="../../d5/d56/class_workspace.html#a6babd032d9af86fbc23812272d59a2d2" target="_top" xlink:title="Workspace.addFeatureButtons">
<polygon fill="white" stroke="black" points="3858,-99.6283 3858,-118.628 4020,-118.628 4020,-99.6283 3858,-99.6283"/>
<text text-anchor="middle" x="3939" y="-106.628" font-family="Helvetica,sans-Serif" font-size="10.00">Workspace.addFeatureButtons</text>
</a>
</g>
</g>
<!-- Node15&#45;&gt;Node16 -->
<g id="edge15" class="edge"><title>Node15&#45;&gt;Node16</title>
<path fill="none" stroke="midnightblue" d="M3831.77,-110.247C3840.38,-110.156 3849.12,-110.064 3857.7,-109.974"/>
<polygon fill="midnightblue" stroke="midnightblue" points="3831.69,-106.747 3821.73,-110.352 3831.77,-113.747 3831.69,-106.747"/>
</g>
<!-- Node17 -->
<g id="node17" class="node"><title>Node17</title>
<g id="a_node17"><a xlink:href="../../d5/d56/class_workspace.html#a429d535dfd8427637b7715f0b1e1df1b" target="_top" xlink:title="Workspace.createWorkspace">
<polygon fill="white" stroke="black" points="4056,-79.6283 4056,-98.6283 4208,-98.6283 4208,-79.6283 4056,-79.6283"/>
<text text-anchor="middle" x="4132" y="-86.6283" font-family="Helvetica,sans-Serif" font-size="10.00">Workspace.createWorkspace</text>
</a>
</g>
</g>
<!-- Node16&#45;&gt;Node17 -->
<g id="edge16" class="edge"><title>Node16&#45;&gt;Node17</title>
<path fill="none" stroke="midnightblue" d="M4030.22,-99.6809C4038.82,-98.7804 4047.48,-97.874 4055.91,-96.9909"/>
<polygon fill="midnightblue" stroke="midnightblue" points="4029.75,-96.2109 4020.17,-100.733 4030.48,-103.173 4029.75,-96.2109"/>
</g>
<!-- Node18 -->
<g id="node18" class="node"><title>Node18</title>
<g id="a_node18"><a xlink:href="../../d0/d4b/class_main.html#aaa75b38812324d0f17c89f139bde6ada" target="_top" xlink:title="Main.start">
<polygon fill="white" stroke="black" points="4244.5,-79.6283 4244.5,-98.6283 4309.5,-98.6283 4309.5,-79.6283 4244.5,-79.6283"/>
<text text-anchor="middle" x="4277" y="-86.6283" font-family="Helvetica,sans-Serif" font-size="10.00">Main.start</text>
</a>
</g>
</g>
<!-- Node17&#45;&gt;Node18 -->
<g id="edge17" class="edge"><title>Node17&#45;&gt;Node18</title>
<path fill="none" stroke="midnightblue" d="M4218.39,-89.1283C4227.63,-89.1283 4236.55,-89.1283 4244.5,-89.1283"/>
<polygon fill="midnightblue" stroke="midnightblue" points="4218.27,-85.6284 4208.27,-89.1283 4218.27,-92.6284 4218.27,-85.6284"/>
</g>
<!-- Node19&#45;&gt;Node17 -->
<g id="edge19" class="edge"><title>Node19&#45;&gt;Node17</title>
<path fill="none" stroke="midnightblue" d="M3827.47,-71.6929C3894.6,-75.5494 3990.08,-81.0335 4055.94,-84.8165"/>
<polygon fill="midnightblue" stroke="midnightblue" points="3827.54,-68.1916 3817.36,-71.1123 3827.14,-75.1801 3827.54,-68.1916"/>
</g>
<!-- Node20&#45;&gt;Node9 -->
<g id="edge21" class="edge"><title>Node20&#45;&gt;Node9</title>
<path fill="none" stroke="midnightblue" d="M2930.2,-135.376C2954.52,-130.003 2982.95,-123.72 3005.91,-118.648"/>
<polygon fill="midnightblue" stroke="midnightblue" points="2929.41,-131.964 2920.4,-137.539 2930.92,-138.8 2929.41,-131.964"/>
</g>
<!-- Node21&#45;&gt;Node22 -->
<g id="edge26" class="edge"><title>Node21&#45;&gt;Node22</title>
<path fill="none" stroke="midnightblue" d="M2272.6,-219.625C2281.04,-218.624 2289.6,-217.607 2297.91,-216.621"/>
<polygon fill="midnightblue" stroke="midnightblue" points="2271.92,-216.182 2262.4,-220.837 2272.75,-223.133 2271.92,-216.182"/>
</g>
<!-- Node22&#45;&gt;Node7 -->
<g id="edge27" class="edge"><title>Node22&#45;&gt;Node7</title>
<path fill="none" stroke="midnightblue" d="M2428.21,-197.805C2443.75,-195.106 2460.18,-192.253 2475.2,-189.645"/>
<polygon fill="midnightblue" stroke="midnightblue" points="2427.4,-194.393 2418.14,-199.552 2428.6,-201.29 2427.4,-194.393"/>
</g>
<!-- Node23&#45;&gt;Node7 -->
<g id="edge31" class="edge"><title>Node23&#45;&gt;Node7</title>
<path fill="none" stroke="midnightblue" d="M2103.48,-299.342C2149.49,-295.516 2209.56,-288.951 2262,-278.128 2336.63,-262.726 2354.8,-255.269 2426,-228.128 2456.47,-216.513 2490.58,-200.08 2511.17,-189.77"/>
<polygon fill="midnightblue" stroke="midnightblue" points="2102.97,-295.871 2093.29,-300.164 2103.54,-302.848 2102.97,-295.871"/>
</g>
<!-- Node23&#45;&gt;Node8 -->
<g id="edge32" class="edge"><title>Node23&#45;&gt;Node8</title>
<path fill="none" stroke="midnightblue" d="M2103.18,-307.109C2149.09,-307.98 2209.15,-307.361 2262,-301.128 2417.83,-282.751 2456.9,-263.494 2600,-199.128 2629.51,-185.855 2662.49,-167.608 2681.68,-156.632"/>
<polygon fill="midnightblue" stroke="midnightblue" points="2103.09,-303.607 2093.02,-306.888 2102.94,-310.605 2103.09,-303.607"/>
</g>
<!-- Node23&#45;&gt;Node9 -->
<g id="edge33" class="edge"><title>Node23&#45;&gt;Node9</title>
<path fill="none" stroke="midnightblue" d="M2090.34,-317.318C2094.39,-319.028 2098.32,-320.955 2102,-323.128 2122.03,-334.96 2117.94,-349.341 2138,-361.128 2226.19,-412.961 2258.7,-418.128 2361,-418.128 2361,-418.128 2361,-418.128 2700,-418.128 2885.32,-418.128 3018.36,-170.871 3044.36,-118.715"/>
<polygon fill="midnightblue" stroke="midnightblue" points="2091.31,-313.944 2080.72,-313.712 2088.86,-320.499 2091.31,-313.944"/>
</g>
<!-- Node23&#45;&gt;Node20 -->
<g id="edge35" class="edge"><title>Node23&#45;&gt;Node20</title>
<path fill="none" stroke="midnightblue" d="M2076.26,-316.182C2161.02,-337.615 2332.7,-380.128 2361,-380.128 2361,-380.128 2361,-380.128 2532,-380.128 2693.61,-380.128 2835.56,-200.94 2868.04,-156.843"/>
<polygon fill="midnightblue" stroke="midnightblue" points="2076.92,-312.739 2066.37,-313.677 2075.2,-319.525 2076.92,-312.739"/>
</g>
<!-- Node23&#45;&gt;Node21 -->
<g id="edge34" class="edge"><title>Node23&#45;&gt;Node21</title>
<path fill="none" stroke="midnightblue" d="M2057.16,-290.023C2079.02,-279.237 2110.19,-264.213 2138,-252.128 2149.59,-247.093 2162.59,-241.912 2173.61,-237.659"/>
<polygon fill="midnightblue" stroke="midnightblue" points="2055.51,-286.933 2048.11,-294.51 2058.62,-293.205 2055.51,-286.933"/>
</g>
<!-- Node23&#45;&gt;Node22 -->
<g id="edge36" class="edge"><title>Node23&#45;&gt;Node22</title>
<path fill="none" stroke="midnightblue" d="M2085.25,-292.464C2132.78,-282.109 2202.45,-265.76 2262,-247.128 2288.71,-238.773 2318.6,-226.943 2338.48,-218.71"/>
<polygon fill="midnightblue" stroke="midnightblue" points="2084.49,-289.048 2075.45,-294.581 2085.97,-295.89 2084.49,-289.048"/>
</g>
<!-- Node25 -->
<g id="node25" class="node"><title>Node25</title>
<g id="a_node25"><a xlink:href="../../d0/d8c/classparser_1_1_logo_parser_token_manager.html#a99a01f0b68908e628349e9f09a2cbccd" target="_top" xlink:title="parser.LogoParserTokenManager.jj\lMoveStringLiteralDfa1_0">
<polygon fill="white" stroke="black" points="1296.5,-263.128 1296.5,-293.128 1475.5,-293.128 1475.5,-263.128 1296.5,-263.128"/>
<text text-anchor="start" x="1304.5" y="-281.128" font-family="Helvetica,sans-Serif" font-size="10.00">parser.LogoParserTokenManager.jj</text>
<text text-anchor="middle" x="1386" y="-270.128" font-family="Helvetica,sans-Serif" font-size="10.00">MoveStringLiteralDfa1_0</text>
</a>
</g>
</g>
<!-- Node24&#45;&gt;Node25 -->
<g id="edge38" class="edge"><title>Node24&#45;&gt;Node25</title>
<path fill="none" stroke="midnightblue" d="M1248.14,-247.432C1271.04,-252.568 1295.92,-258.149 1318.11,-263.126"/>
<polygon fill="midnightblue" stroke="midnightblue" points="1248.65,-243.958 1238.12,-245.184 1247.12,-250.788 1248.65,-243.958"/>
</g>
<!-- Node25&#45;&gt;Node2 -->
<g id="edge39" class="edge"><title>Node25&#45;&gt;Node2</title>
<path fill="none" stroke="midnightblue" d="M1468.6,-295.287C1488.65,-299.504 1509.97,-303.987 1529.51,-308.096"/>
<polygon fill="midnightblue" stroke="midnightblue" points="1469.06,-291.808 1458.56,-293.175 1467.62,-298.658 1469.06,-291.808"/>
</g>
<!-- Node26&#45;&gt;Node24 -->
<g id="edge41" class="edge"><title>Node26&#45;&gt;Node24</title>
<path fill="none" stroke="midnightblue" d="M1053.65,-230.128C1062.6,-230.128 1071.62,-230.128 1080.48,-230.128"/>
<polygon fill="midnightblue" stroke="midnightblue" points="1053.59,-226.628 1043.59,-230.128 1053.59,-233.628 1053.59,-226.628"/>
</g>
<!-- Node27&#45;&gt;Node26 -->
<g id="edge43" class="edge"><title>Node27&#45;&gt;Node26</title>
<path fill="none" stroke="midnightblue" d="M833.661,-251.319C845.208,-249.269 856.948,-247.184 868.335,-245.162"/>
<polygon fill="midnightblue" stroke="midnightblue" points="832.812,-247.915 823.578,-253.11 834.036,-254.807 832.812,-247.915"/>
</g>
<!-- Node28&#45;&gt;Node27 -->
<g id="edge45" class="edge"><title>Node28&#45;&gt;Node27</title>
<path fill="none" stroke="midnightblue" d="M621.645,-268.128C630.596,-268.128 639.625,-268.128 648.48,-268.128"/>
<polygon fill="midnightblue" stroke="midnightblue" points="621.587,-264.628 611.587,-268.128 621.587,-271.628 621.587,-264.628"/>
</g>
<!-- Node29&#45;&gt;Node28 -->
<g id="edge47" class="edge"><title>Node29&#45;&gt;Node28</title>
<path fill="none" stroke="midnightblue" d="M405.645,-257.887C414.596,-258.681 423.625,-259.483 432.48,-260.269"/>
<polygon fill="midnightblue" stroke="midnightblue" points="405.857,-254.392 395.587,-256.993 405.238,-261.364 405.857,-254.392"/>
</g>
</g>
</svg>
        <g id="navigator" transform="translate(0 0)" fill="#404254">
                <rect fill="#f2f5e9" fill-opacity="0.5" stroke="#606060" stroke-width=".5" x="0" y="0" width="60" height="60"/>
                <use id="zoomplus" xlink:href="#zoomPlus" x="17" y="9" onmousedown="handleZoom(evt,'in')"/>
                <use id="zoomminus" xlink:href="#zoomMin" x="42" y="9" onmousedown="handleZoom(evt,'out')"/>
                <use id="reset" xlink:href="#resetDef" x="30" y="36" onmousedown="handleReset()"/>
                <g id="arrowUp" xlink:href="#dirArrow" transform="translate(30 24)" onmousedown="handlePan(0,-1)">
                  <use xlink:href="#rim" fill="#404040">
                        <set attributeName="fill" to="#808080" begin="arrowUp.mouseover" end="arrowUp.mouseout"/>
                  </use>
                  <path fill="none" stroke="white" stroke-width="1.5" d="M0,-3.0v7 M-2.5,-0.5L0,-3.0L2.5,-0.5"/>
                </g>
                <g id="arrowRight" xlink:href="#dirArrow" transform="rotate(90) translate(36 -43)" onmousedown="handlePan(1,0)">
                  <use xlink:href="#rim" fill="#404040">
                        <set attributeName="fill" to="#808080" begin="arrowRight.mouseover" end="arrowRight.mouseout"/>
                  </use>
                  <path fill="none" stroke="white" stroke-width="1.5" d="M0,-3.0v7 M-2.5,-0.5L0,-3.0L2.5,-0.5"/>
                </g>
                <g id="arrowDown" xlink:href="#dirArrow" transform="rotate(180) translate(-30 -48)" onmousedown="handlePan(0,1)">
                  <use xlink:href="#rim" fill="#404040">
                        <set attributeName="fill" to="#808080" begin="arrowDown.mouseover" end="arrowDown.mouseout"/>
                  </use>
                  <path fill="none" stroke="white" stroke-width="1.5" d="M0,-3.0v7 M-2.5,-0.5L0,-3.0L2.5,-0.5"/>
                </g>
                <g id="arrowLeft" xlink:href="#dirArrow" transform="rotate(270) translate(-36 17)" onmousedown="handlePan(-1,0)">
                  <use xlink:href="#rim" fill="#404040">
                        <set attributeName="fill" to="#808080" begin="arrowLeft.mouseover" end="arrowLeft.mouseout"/>
                  </use>
                  <path fill="none" stroke="white" stroke-width="1.5" d="M0,-3.0v7 M-2.5,-0.5L0,-3.0L2.5,-0.5"/>
                </g>
        </g>
        <svg viewBox="0 0 15 15" width="100%" height="30px" preserveAspectRatio="xMaxYMin meet">
         <g id="arrow_out" transform="scale(0.3 0.3)">
          <a xlink:href="classparser_1_1_logo_parser_token_manager_a94b20a17d94554012918e876be221c46_icgraph_org.svg" target="_base">
           <rect id="button" ry="5" rx="5" y="6" x="6" height="38" width="38"
                fill="#f2f5e9" fill-opacity="0.5" stroke="#606060" stroke-width="1.0"/>
           <path id="arrow"
             d="M 11.500037,31.436501 C 11.940474,20.09759 22.043105,11.32322 32.158766,21.979434 L 37.068811,17.246167 C 37.068811,17.246167 37.088388,32 37.088388,32 L 22.160133,31.978069 C 22.160133,31.978069 26.997745,27.140456 26.997745,27.140456 C 18.528582,18.264221 13.291696,25.230495 11.500037,31.436501 z"
             style="fill:#404040;"/>
          </a>
         </g>
        </svg>
</svg>
