<?xml version="1.0" encoding="UTF-8" standalone="no"?>
<!DOCTYPE svg PUBLIC "-//W3C//DTD SVG 1.1//EN"
 "http://www.w3.org/Graphics/SVG/1.1/DTD/svg11.dtd">
<!-- Generated by graphviz version 2.36.0 (20140111.2315)
 -->
<!-- Title: parser.LogoParserTokenManager.jjMoveStringLiteralDfa5_0 Pages: 1 -->
<svg width="3886pt" height="426pt"
 viewBox="0.00 0.00 3886.00 426.13" xmlns="http://www.w3.org/2000/svg" xmlns:xlink="http://www.w3.org/1999/xlink">
<g id="graph0" class="graph" transform="scale(1 1) rotate(0) translate(4 422.128)">
<title>parser.LogoParserTokenManager.jjMoveStringLiteralDfa5_0</title>
<polygon fill="white" stroke="none" points="-4,4 -4,-422.128 3882,-422.128 3882,4 -4,4"/>
<!-- Node1 -->
<g id="node1" class="node"><title>Node1</title>
<polygon fill="#bfbfbf" stroke="black" points="0.5,-308.128 0.5,-338.128 179.5,-338.128 179.5,-308.128 0.5,-308.128"/>
<text text-anchor="start" x="8.5" y="-326.128" font-family="Helvetica,sans-Serif" font-size="10.00">parser.LogoParserTokenManager.jj</text>
<text text-anchor="middle" x="90" y="-315.128" font-family="Helvetica,sans-Serif" font-size="10.00">MoveStringLiteralDfa5_0</text>
</g>
<!-- Node2 -->
<g id="node2" class="node"><title>Node2</title>
<g id="a_node2"><a xlink:href="../../d0/d8c/classparser_1_1_logo_parser_token_manager.html#aa9aaf3af52d382735345487d2b89e0cf" target="_top" xlink:title="parser.LogoParserTokenManager.jj\lMoveStringLiteralDfa4_0">
<polygon fill="white" stroke="black" points="216.5,-308.128 216.5,-338.128 395.5,-338.128 395.5,-308.128 216.5,-308.128"/>
<text text-anchor="start" x="224.5" y="-326.128" font-family="Helvetica,sans-Serif" font-size="10.00">parser.LogoParserTokenManager.jj</text>
<text text-anchor="middle" x="306" y="-315.128" font-family="Helvetica,sans-Serif" font-size="10.00">MoveStringLiteralDfa4_0</text>
</a>
</g>
</g>
<!-- Node1&#45;&gt;Node2 -->
<g id="edge1" class="edge"><title>Node1&#45;&gt;Node2</title>
<path fill="none" stroke="midnightblue" d="M189.645,-323.128C198.596,-323.128 207.625,-323.128 216.48,-323.128"/>
<polygon fill="midnightblue" stroke="midnightblue" points="189.587,-319.628 179.587,-323.128 189.587,-326.628 189.587,-319.628"/>
</g>
<!-- Node3 -->
<g id="node3" class="node"><title>Node3</title>
<g id="a_node3"><a xlink:href="../../d0/d8c/classparser_1_1_logo_parser_token_manager.html#a12bfedaecfaf646642cb1aba5b1bd6fb" target="_top" xlink:title="parser.LogoParserTokenManager.jj\lMoveStringLiteralDfa3_0">
<polygon fill="white" stroke="black" points="432.5,-308.128 432.5,-338.128 611.5,-338.128 611.5,-308.128 432.5,-308.128"/>
<text text-anchor="start" x="440.5" y="-326.128" font-family="Helvetica,sans-Serif" font-size="10.00">parser.LogoParserTokenManager.jj</text>
<text text-anchor="middle" x="522" y="-315.128" font-family="Helvetica,sans-Serif" font-size="10.00">MoveStringLiteralDfa3_0</text>
</a>
</g>
</g>
<!-- Node2&#45;&gt;Node3 -->
<g id="edge2" class="edge"><title>Node2&#45;&gt;Node3</title>
<path fill="none" stroke="midnightblue" d="M405.645,-323.128C414.596,-323.128 423.625,-323.128 432.48,-323.128"/>
<polygon fill="midnightblue" stroke="midnightblue" points="405.587,-319.628 395.587,-323.128 405.587,-326.628 405.587,-319.628"/>
</g>
<!-- Node4 -->
<g id="node4" class="node"><title>Node4</title>
<g id="a_node4"><a xlink:href="../../d0/d8c/classparser_1_1_logo_parser_token_manager.html#a26eaeb3ef169f93c03edbb3e26128b7a" target="_top" xlink:title="parser.LogoParserTokenManager.jj\lMoveStringLiteralDfa2_0">
<polygon fill="white" stroke="black" points="648.5,-308.128 648.5,-338.128 827.5,-338.128 827.5,-308.128 648.5,-308.128"/>
<text text-anchor="start" x="656.5" y="-326.128" font-family="Helvetica,sans-Serif" font-size="10.00">parser.LogoParserTokenManager.jj</text>
<text text-anchor="middle" x="738" y="-315.128" font-family="Helvetica,sans-Serif" font-size="10.00">MoveStringLiteralDfa2_0</text>
</a>
</g>
</g>
<!-- Node3&#45;&gt;Node4 -->
<g id="edge3" class="edge"><title>Node3&#45;&gt;Node4</title>
<path fill="none" stroke="midnightblue" d="M621.645,-323.128C630.596,-323.128 639.625,-323.128 648.48,-323.128"/>
<polygon fill="midnightblue" stroke="midnightblue" points="621.587,-319.628 611.587,-323.128 621.587,-326.628 621.587,-319.628"/>
</g>
<!-- Node5 -->
<g id="node5" class="node"><title>Node5</title>
<g id="a_node5"><a xlink:href="../../d0/d8c/classparser_1_1_logo_parser_token_manager.html#a99a01f0b68908e628349e9f09a2cbccd" target="_top" xlink:title="parser.LogoParserTokenManager.jj\lMoveStringLiteralDfa1_0">
<polygon fill="white" stroke="black" points="864.5,-308.128 864.5,-338.128 1043.5,-338.128 1043.5,-308.128 864.5,-308.128"/>
<text text-anchor="start" x="872.5" y="-326.128" font-family="Helvetica,sans-Serif" font-size="10.00">parser.LogoParserTokenManager.jj</text>
<text text-anchor="middle" x="954" y="-315.128" font-family="Helvetica,sans-Serif" font-size="10.00">MoveStringLiteralDfa1_0</text>
</a>
</g>
</g>
<!-- Node4&#45;&gt;Node5 -->
<g id="edge4" class="edge"><title>Node4&#45;&gt;Node5</title>
<path fill="none" stroke="midnightblue" d="M837.645,-323.128C846.596,-323.128 855.625,-323.128 864.48,-323.128"/>
<polygon fill="midnightblue" stroke="midnightblue" points="837.587,-319.628 827.587,-323.128 837.587,-326.628 837.587,-319.628"/>
</g>
<!-- Node6 -->
<g id="node6" class="node"><title>Node6</title>
<g id="a_node6"><a xlink:href="../../d0/d8c/classparser_1_1_logo_parser_token_manager.html#a2b55f093fc0200c57a099eba2d9b37e2" target="_top" xlink:title="parser.LogoParserTokenManager.jj\lMoveStringLiteralDfa0_0">
<polygon fill="white" stroke="black" points="1080.5,-308.128 1080.5,-338.128 1259.5,-338.128 1259.5,-308.128 1080.5,-308.128"/>
<text text-anchor="start" x="1088.5" y="-326.128" font-family="Helvetica,sans-Serif" font-size="10.00">parser.LogoParserTokenManager.jj</text>
<text text-anchor="middle" x="1170" y="-315.128" font-family="Helvetica,sans-Serif" font-size="10.00">MoveStringLiteralDfa0_0</text>
</a>
</g>
</g>
<!-- Node5&#45;&gt;Node6 -->
<g id="edge5" class="edge"><title>Node5&#45;&gt;Node6</title>
<path fill="none" stroke="midnightblue" d="M1053.65,-323.128C1062.6,-323.128 1071.62,-323.128 1080.48,-323.128"/>
<polygon fill="midnightblue" stroke="midnightblue" points="1053.59,-319.628 1043.59,-323.128 1053.59,-326.628 1053.59,-319.628"/>
</g>
<!-- Node7 -->
<g id="node7" class="node"><title>Node7</title>
<g id="a_node7"><a xlink:href="../../d0/d8c/classparser_1_1_logo_parser_token_manager.html#a3dee50e2286b70ba662519a865e63b77" target="_top" xlink:title="parser.LogoParserTokenManager.get\lNextToken">
<polygon fill="white" stroke="black" points="1296,-308.128 1296,-338.128 1486,-338.128 1486,-308.128 1296,-308.128"/>
<text text-anchor="start" x="1304" y="-326.128" font-family="Helvetica,sans-Serif" font-size="10.00">parser.LogoParserTokenManager.get</text>
<text text-anchor="middle" x="1391" y="-315.128" font-family="Helvetica,sans-Serif" font-size="10.00">NextToken</text>
</a>
</g>
</g>
<!-- Node6&#45;&gt;Node7 -->
<g id="edge6" class="edge"><title>Node6&#45;&gt;Node7</title>
<path fill="none" stroke="midnightblue" d="M1269.83,-323.128C1278.46,-323.128 1287.17,-323.128 1295.76,-323.128"/>
<polygon fill="midnightblue" stroke="midnightblue" points="1269.76,-319.628 1259.76,-323.128 1269.76,-326.628 1269.76,-319.628"/>
</g>
<!-- Node8 -->
<g id="node8" class="node"><title>Node8</title>
<g id="a_node8"><a xlink:href="../../d5/d0e/classparser_1_1_logo_parser.html#a7477b52c4469ea43d75f88fb805e37a1" target="_top" xlink:title="parser.LogoParser.getNext\lToken">
<polygon fill="white" stroke="black" points="1524.5,-371.128 1524.5,-401.128 1667.5,-401.128 1667.5,-371.128 1524.5,-371.128"/>
<text text-anchor="start" x="1532.5" y="-389.128" font-family="Helvetica,sans-Serif" font-size="10.00">parser.LogoParser.getNext</text>
<text text-anchor="middle" x="1596" y="-378.128" font-family="Helvetica,sans-Serif" font-size="10.00">Token</text>
</a>
</g>
</g>
<!-- Node7&#45;&gt;Node8 -->
<g id="edge7" class="edge"><title>Node7&#45;&gt;Node8</title>
<path fill="none" stroke="midnightblue" d="M1450.04,-341.142C1480.61,-350.629 1517.66,-362.127 1546.65,-371.124"/>
<polygon fill="midnightblue" stroke="midnightblue" points="1450.95,-337.76 1440.37,-338.138 1448.88,-344.445 1450.95,-337.76"/>
</g>
<!-- Node9 -->
<g id="node9" class="node"><title>Node9</title>
<g id="a_node9"><a xlink:href="../../d5/d0e/classparser_1_1_logo_parser.html#a63b7890a7d6323bcf938132f968e8157" target="_top" xlink:title="parser.LogoParser.getToken">
<polygon fill="white" stroke="black" points="1522,-332.628 1522,-351.628 1670,-351.628 1670,-332.628 1522,-332.628"/>
<text text-anchor="middle" x="1596" y="-339.628" font-family="Helvetica,sans-Serif" font-size="10.00">parser.LogoParser.getToken</text>
</a>
</g>
</g>
<!-- Node7&#45;&gt;Node9 -->
<g id="edge8" class="edge"><title>Node7&#45;&gt;Node9</title>
<path fill="none" stroke="midnightblue" d="M1496.24,-332.885C1504.91,-333.696 1513.54,-334.504 1521.9,-335.287"/>
<polygon fill="midnightblue" stroke="midnightblue" points="1496.35,-329.38 1486.07,-331.933 1495.7,-336.35 1496.35,-329.38"/>
</g>
<!-- Node10 -->
<g id="node10" class="node"><title>Node10</title>
<g id="a_node10"><a xlink:href="../../d5/d0e/classparser_1_1_logo_parser.html#a550039a3180ec86ef01f419aefc02edc" target="_top" xlink:title="parser.LogoParser.jj\l_consume_token">
<polygon fill="white" stroke="black" points="1541,-118.128 1541,-148.128 1651,-148.128 1651,-118.128 1541,-118.128"/>
<text text-anchor="start" x="1549" y="-136.128" font-family="Helvetica,sans-Serif" font-size="10.00">parser.LogoParser.jj</text>
<text text-anchor="middle" x="1596" y="-125.128" font-family="Helvetica,sans-Serif" font-size="10.00">_consume_token</text>
</a>
</g>
</g>
<!-- Node7&#45;&gt;Node10 -->
<g id="edge9" class="edge"><title>Node7&#45;&gt;Node10</title>
<path fill="none" stroke="midnightblue" d="M1415.79,-300.864C1457.63,-261.703 1543.33,-181.49 1578.94,-148.164"/>
<polygon fill="midnightblue" stroke="midnightblue" points="1413.18,-298.512 1408.27,-307.901 1417.96,-303.623 1413.18,-298.512"/>
</g>
<!-- Node27 -->
<g id="node27" class="node"><title>Node27</title>
<g id="a_node27"><a xlink:href="../../d5/d0e/classparser_1_1_logo_parser.html#a2e48e3ab2c1c075beca7bcc54d891afd" target="_top" xlink:title="parser.LogoParser.jj_ntk">
<polygon fill="white" stroke="black" points="1531,-294.628 1531,-313.628 1661,-313.628 1661,-294.628 1531,-294.628"/>
<text text-anchor="middle" x="1596" y="-301.628" font-family="Helvetica,sans-Serif" font-size="10.00">parser.LogoParser.jj_ntk</text>
</a>
</g>
</g>
<!-- Node7&#45;&gt;Node27 -->
<g id="edge34" class="edge"><title>Node7&#45;&gt;Node27</title>
<path fill="none" stroke="midnightblue" d="M1496.38,-313.359C1508.12,-312.26 1519.8,-311.167 1530.81,-310.137"/>
<polygon fill="midnightblue" stroke="midnightblue" points="1495.7,-309.907 1486.07,-314.324 1496.35,-316.876 1495.7,-309.907"/>
</g>
<!-- Node11 -->
<g id="node11" class="node"><title>Node11</title>
<g id="a_node11"><a xlink:href="../../d5/d0e/classparser_1_1_logo_parser.html#a82acce8328e52f3b2bcb90542cc800b7" target="_top" xlink:title="parser.LogoParser.arithm">
<polygon fill="white" stroke="black" points="2030.5,-170.628 2030.5,-189.628 2167.5,-189.628 2167.5,-170.628 2030.5,-170.628"/>
<text text-anchor="middle" x="2099" y="-177.628" font-family="Helvetica,sans-Serif" font-size="10.00">parser.LogoParser.arithm</text>
</a>
</g>
</g>
<!-- Node10&#45;&gt;Node11 -->
<g id="edge10" class="edge"><title>Node10&#45;&gt;Node11</title>
<path fill="none" stroke="midnightblue" d="M1661.14,-139.145C1756.08,-148.052 1933.24,-164.672 2030.23,-173.771"/>
<polygon fill="midnightblue" stroke="midnightblue" points="1661.38,-135.652 1651.09,-138.203 1660.72,-142.622 1661.38,-135.652"/>
</g>
<!-- Node12 -->
<g id="node12" class="node"><title>Node12</title>
<g id="a_node12"><a xlink:href="../../d5/d0e/classparser_1_1_logo_parser.html#a397c25c39976e5a1fb689e1f0dd40160" target="_top" xlink:title="parser.LogoParser.eval">
<polygon fill="white" stroke="black" points="2204.5,-137.628 2204.5,-156.628 2329.5,-156.628 2329.5,-137.628 2204.5,-137.628"/>
<text text-anchor="middle" x="2267" y="-144.628" font-family="Helvetica,sans-Serif" font-size="10.00">parser.LogoParser.eval</text>
</a>
</g>
</g>
<!-- Node10&#45;&gt;Node12 -->
<g id="edge26" class="edge"><title>Node10&#45;&gt;Node12</title>
<path fill="none" stroke="midnightblue" d="M1661.27,-134.473C1789.9,-137.165 2077.46,-143.183 2204.1,-145.833"/>
<polygon fill="midnightblue" stroke="midnightblue" points="1661.25,-130.972 1651.18,-134.262 1661.1,-137.971 1661.25,-130.972"/>
</g>
<!-- Node13 -->
<g id="node13" class="node"><title>Node13</title>
<g id="a_node13"><a xlink:href="../../d5/d0e/classparser_1_1_logo_parser.html#a6b0ba0c2b5b0bc8c2ef76863fffdb6a3" target="_top" xlink:title="parser.LogoParser.list">
<polygon fill="white" stroke="black" points="2558.5,-99.6283 2558.5,-118.628 2677.5,-118.628 2677.5,-99.6283 2558.5,-99.6283"/>
<text text-anchor="middle" x="2618" y="-106.628" font-family="Helvetica,sans-Serif" font-size="10.00">parser.LogoParser.list</text>
</a>
</g>
</g>
<!-- Node10&#45;&gt;Node13 -->
<g id="edge28" class="edge"><title>Node10&#45;&gt;Node13</title>
<path fill="none" stroke="midnightblue" d="M1631.87,-113.211C1652.79,-102.026 1680.24,-88.6456 1706,-80.1283 1801.75,-48.4635 1828.15,-38.1283 1929,-38.1283 1929,-38.1283 1929,-38.1283 2268,-38.1283 2389.81,-38.1283 2530.82,-80.173 2589.34,-99.5529"/>
<polygon fill="midnightblue" stroke="midnightblue" points="1630.16,-110.159 1623.04,-118.009 1633.5,-116.309 1630.16,-110.159"/>
</g>
<!-- Node14 -->
<g id="node14" class="node"><title>Node14</title>
<g id="a_node14"><a xlink:href="../../d5/d0e/classparser_1_1_logo_parser.html#a4a8825534e0488215d22bcd947bc4d41" target="_top" xlink:title="parser.LogoParser.expression">
<polygon fill="white" stroke="black" points="2714.5,-26.6283 2714.5,-45.6283 2871.5,-45.6283 2871.5,-26.6283 2714.5,-26.6283"/>
<text text-anchor="middle" x="2793" y="-33.6283" font-family="Helvetica,sans-Serif" font-size="10.00">parser.LogoParser.expression</text>
</a>
</g>
</g>
<!-- Node10&#45;&gt;Node14 -->
<g id="edge27" class="edge"><title>Node10&#45;&gt;Node14</title>
<path fill="none" stroke="midnightblue" d="M1616.93,-110.568C1637.17,-89.1803 1670.51,-57.9001 1706,-41.1283 1797.11,1.92439 1828.23,-0.128293 1929,-0.128293 1929,-0.128293 1929,-0.128293 2445,-0.128293 2547.81,-0.128293 2666.85,-15.9569 2735.39,-26.6226"/>
<polygon fill="midnightblue" stroke="midnightblue" points="1614.32,-108.241 1610.09,-117.955 1619.45,-112.998 1614.32,-108.241"/>
</g>
<!-- Node24 -->
<g id="node24" class="node"><title>Node24</title>
<g id="a_node24"><a xlink:href="../../d5/d0e/classparser_1_1_logo_parser.html#ad6ed8e51959a6e19a2323444aa8331c8" target="_top" xlink:title="parser.LogoParser.statement">
<polygon fill="white" stroke="black" points="2366.5,-137.628 2366.5,-156.628 2521.5,-156.628 2521.5,-137.628 2366.5,-137.628"/>
<text text-anchor="middle" x="2444" y="-144.628" font-family="Helvetica,sans-Serif" font-size="10.00">parser.LogoParser.statement</text>
</a>
</g>
</g>
<!-- Node10&#45;&gt;Node24 -->
<g id="edge32" class="edge"><title>Node10&#45;&gt;Node24</title>
<path fill="none" stroke="midnightblue" d="M1660.76,-115.549C1727.19,-98.8025 1834.57,-76.1283 1929,-76.1283 1929,-76.1283 1929,-76.1283 2100,-76.1283 2219.8,-76.1283 2358.34,-118.173 2415.83,-137.553"/>
<polygon fill="midnightblue" stroke="midnightblue" points="1659.68,-112.212 1650.86,-118.078 1661.41,-118.994 1659.68,-112.212"/>
</g>
<!-- Node25 -->
<g id="node25" class="node"><title>Node25</title>
<g id="a_node25"><a xlink:href="../../d5/d0e/classparser_1_1_logo_parser.html#a4bdaeff6df067fde6743ff07370c3b0b" target="_top" xlink:title="parser.LogoParser.pow">
<polygon fill="white" stroke="black" points="1706,-218.628 1706,-237.628 1830,-237.628 1830,-218.628 1706,-218.628"/>
<text text-anchor="middle" x="1768" y="-225.628" font-family="Helvetica,sans-Serif" font-size="10.00">parser.LogoParser.pow</text>
</a>
</g>
</g>
<!-- Node10&#45;&gt;Node25 -->
<g id="edge29" class="edge"><title>Node10&#45;&gt;Node25</title>
<path fill="none" stroke="midnightblue" d="M1625.86,-154.242C1647.29,-169.334 1677.6,-189.482 1706,-204.128 1716.52,-209.553 1728.56,-214.531 1739.15,-218.53"/>
<polygon fill="midnightblue" stroke="midnightblue" points="1627.72,-151.266 1617.54,-148.319 1623.66,-156.969 1627.72,-151.266"/>
</g>
<!-- Node26 -->
<g id="node26" class="node"><title>Node26</title>
<g id="a_node26"><a xlink:href="../../d5/d0e/classparser_1_1_logo_parser.html#a34f4226672a2711ce2691162fdb2124d" target="_top" xlink:title="parser.LogoParser.term">
<polygon fill="white" stroke="black" points="1866,-199.628 1866,-218.628 1994,-218.628 1994,-199.628 1866,-199.628"/>
<text text-anchor="middle" x="1930" y="-206.628" font-family="Helvetica,sans-Serif" font-size="10.00">parser.LogoParser.term</text>
</a>
</g>
</g>
<!-- Node10&#45;&gt;Node26 -->
<g id="edge33" class="edge"><title>Node10&#45;&gt;Node26</title>
<path fill="none" stroke="midnightblue" d="M1652.64,-151.185C1669.66,-156.381 1688.51,-161.807 1706,-166.128 1761.5,-179.842 1825.67,-191.816 1870.89,-199.621"/>
<polygon fill="midnightblue" stroke="midnightblue" points="1653.44,-147.768 1642.85,-148.162 1651.37,-154.457 1653.44,-147.768"/>
</g>
<!-- Node11&#45;&gt;Node12 -->
<g id="edge11" class="edge"><title>Node11&#45;&gt;Node12</title>
<path fill="none" stroke="midnightblue" d="M2158.06,-168.586C2177.68,-164.686 2199.35,-160.378 2218.09,-156.652"/>
<polygon fill="midnightblue" stroke="midnightblue" points="2157.14,-165.201 2148.01,-170.583 2158.5,-172.066 2157.14,-165.201"/>
</g>
<!-- Node12&#45;&gt;Node13 -->
<g id="edge12" class="edge"><title>Node12&#45;&gt;Node13</title>
<path fill="none" stroke="midnightblue" d="M2321.06,-135.677C2335.58,-132.863 2351.35,-130.097 2366,-128.128 2431.62,-119.314 2507.48,-114.278 2558.47,-111.635"/>
<polygon fill="midnightblue" stroke="midnightblue" points="2320.37,-132.246 2311.24,-137.624 2321.73,-139.112 2320.37,-132.246"/>
</g>
<!-- Node12&#45;&gt;Node24 -->
<g id="edge24" class="edge"><title>Node12&#45;&gt;Node24</title>
<path fill="none" stroke="midnightblue" d="M2339.8,-147.128C2348.51,-147.128 2357.44,-147.128 2366.22,-147.128"/>
<polygon fill="midnightblue" stroke="midnightblue" points="2339.7,-143.628 2329.7,-147.128 2339.7,-150.628 2339.7,-143.628"/>
</g>
<!-- Node13&#45;&gt;Node14 -->
<g id="edge13" class="edge"><title>Node13&#45;&gt;Node14</title>
<path fill="none" stroke="midnightblue" d="M2651.2,-95.5422C2685.58,-81.0317 2739.2,-58.4088 2769.38,-45.6741"/>
<polygon fill="midnightblue" stroke="midnightblue" points="2649.47,-92.4724 2641.62,-99.5848 2652.19,-98.9217 2649.47,-92.4724"/>
</g>
<!-- Node15 -->
<g id="node15" class="node"><title>Node15</title>
<g id="a_node15"><a xlink:href="../../d5/d0e/classparser_1_1_logo_parser.html#adefe3b97ad0d2d7fd0dcd13f7ef2c75e" target="_top" xlink:title="parser.LogoParser.parse">
<polygon fill="white" stroke="black" points="2727,-99.6283 2727,-118.628 2859,-118.628 2859,-99.6283 2727,-99.6283"/>
<text text-anchor="middle" x="2793" y="-106.628" font-family="Helvetica,sans-Serif" font-size="10.00">parser.LogoParser.parse</text>
</a>
</g>
</g>
<!-- Node13&#45;&gt;Node15 -->
<g id="edge14" class="edge"><title>Node13&#45;&gt;Node15</title>
<path fill="none" stroke="midnightblue" d="M2687.78,-109.128C2700.7,-109.128 2714.16,-109.128 2726.95,-109.128"/>
<polygon fill="midnightblue" stroke="midnightblue" points="2687.57,-105.628 2677.57,-109.128 2687.57,-112.628 2687.57,-105.628"/>
</g>
<!-- Node16 -->
<g id="node16" class="node"><title>Node16</title>
<g id="a_node16"><a xlink:href="../../d6/d95/classparser_1_1_parser.html#af3d0cef45b9f02f1707959c08d8f3797" target="_top" xlink:title="parser.Parser.parse">
<polygon fill="white" stroke="black" points="2908.5,-99.6283 2908.5,-118.628 3017.5,-118.628 3017.5,-99.6283 2908.5,-99.6283"/>
<text text-anchor="middle" x="2963" y="-106.628" font-family="Helvetica,sans-Serif" font-size="10.00">parser.Parser.parse</text>
</a>
</g>
</g>
<!-- Node15&#45;&gt;Node16 -->
<g id="edge15" class="edge"><title>Node15&#45;&gt;Node16</title>
<path fill="none" stroke="midnightblue" d="M2869.8,-109.128C2882.83,-109.128 2896.12,-109.128 2908.41,-109.128"/>
<polygon fill="midnightblue" stroke="midnightblue" points="2869.43,-105.628 2859.43,-109.128 2869.43,-112.628 2869.43,-105.628"/>
</g>
<!-- Node17 -->
<g id="node17" class="node"><title>Node17</title>
<g id="a_node17"><a xlink:href="../../d4/d06/classinput_1_1_input_executor.html#a687a9f2cbed5d27a2c7b1336a1cab8aa" target="_top" xlink:title="input.InputExecutor.process\lInput">
<polygon fill="white" stroke="black" points="3054.5,-138.128 3054.5,-168.128 3203.5,-168.128 3203.5,-138.128 3054.5,-138.128"/>
<text text-anchor="start" x="3062.5" y="-156.128" font-family="Helvetica,sans-Serif" font-size="10.00">input.InputExecutor.process</text>
<text text-anchor="middle" x="3129" y="-145.128" font-family="Helvetica,sans-Serif" font-size="10.00">Input</text>
</a>
</g>
</g>
<!-- Node16&#45;&gt;Node17 -->
<g id="edge16" class="edge"><title>Node16&#45;&gt;Node17</title>
<path fill="none" stroke="midnightblue" d="M3009.36,-121.297C3028.7,-126.486 3051.46,-132.593 3071.85,-138.063"/>
<polygon fill="midnightblue" stroke="midnightblue" points="3010.15,-117.887 2999.59,-118.676 3008.34,-124.647 3010.15,-117.887"/>
</g>
<!-- Node18 -->
<g id="node18" class="node"><title>Node18</title>
<g id="a_node18"><a xlink:href="../../d6/d95/classparser_1_1_parser.html#ae90f8410be9931ec3f349085c8fdae71" target="_top" xlink:title="parser.Parser.parseFile">
<polygon fill="white" stroke="black" points="3067,-99.6283 3067,-118.628 3191,-118.628 3191,-99.6283 3067,-99.6283"/>
<text text-anchor="middle" x="3129" y="-106.628" font-family="Helvetica,sans-Serif" font-size="10.00">parser.Parser.parseFile</text>
</a>
</g>
</g>
<!-- Node16&#45;&gt;Node18 -->
<g id="edge17" class="edge"><title>Node16&#45;&gt;Node18</title>
<path fill="none" stroke="midnightblue" d="M3027.82,-109.128C3040.63,-109.128 3054.06,-109.128 3066.79,-109.128"/>
<polygon fill="midnightblue" stroke="midnightblue" points="3027.7,-105.628 3017.7,-109.128 3027.7,-112.628 3027.7,-105.628"/>
</g>
<!-- Node23 -->
<g id="node23" class="node"><title>Node23</title>
<g id="a_node23"><a xlink:href="../../d5/d56/class_workspace.html#a0ed8fb487512971086b6f3ed0d74e4ae" target="_top" xlink:title="Workspace.sendUserInput">
<polygon fill="white" stroke="black" points="3245,-57.6283 3245,-76.6283 3385,-76.6283 3385,-57.6283 3245,-57.6283"/>
<text text-anchor="middle" x="3315" y="-64.6283" font-family="Helvetica,sans-Serif" font-size="10.00">Workspace.sendUserInput</text>
</a>
</g>
</g>
<!-- Node16&#45;&gt;Node23 -->
<g id="edge22" class="edge"><title>Node16&#45;&gt;Node23</title>
<path fill="none" stroke="midnightblue" d="M3014.23,-97.4126C3027.14,-94.7092 3041.04,-92.0626 3054,-90.1283 3118.31,-80.5301 3192.22,-74.4655 3244.76,-70.9889"/>
<polygon fill="midnightblue" stroke="midnightblue" points="3013.18,-94.0595 3004.14,-99.5804 3014.65,-100.904 3013.18,-94.0595"/>
</g>
<!-- Node19 -->
<g id="node19" class="node"><title>Node19</title>
<g id="a_node19"><a xlink:href="../../d9/de8/class_file_chooser_feature.html#ad742b8e9d07e8151f0a9ff1972867ce8" target="_top" xlink:title="FileChooserFeature.openFile\lChooser">
<polygon fill="white" stroke="black" points="3240.5,-96.1283 3240.5,-126.128 3389.5,-126.128 3389.5,-96.1283 3240.5,-96.1283"/>
<text text-anchor="start" x="3248.5" y="-114.128" font-family="Helvetica,sans-Serif" font-size="10.00">FileChooserFeature.openFile</text>
<text text-anchor="middle" x="3315" y="-103.128" font-family="Helvetica,sans-Serif" font-size="10.00">Chooser</text>
</a>
</g>
</g>
<!-- Node18&#45;&gt;Node19 -->
<g id="edge18" class="edge"><title>Node18&#45;&gt;Node19</title>
<path fill="none" stroke="midnightblue" d="M3201.17,-109.902C3214.02,-110.042 3227.44,-110.187 3240.35,-110.328"/>
<polygon fill="midnightblue" stroke="midnightblue" points="3201.05,-106.4 3191.01,-109.791 3200.98,-113.4 3201.05,-106.4"/>
</g>
<!-- Node20 -->
<g id="node20" class="node"><title>Node20</title>
<g id="a_node20"><a xlink:href="../../d5/d56/class_workspace.html#a6babd032d9af86fbc23812272d59a2d2" target="_top" xlink:title="Workspace.addFeatureButtons">
<polygon fill="white" stroke="black" points="3426,-99.6283 3426,-118.628 3588,-118.628 3588,-99.6283 3426,-99.6283"/>
<text text-anchor="middle" x="3507" y="-106.628" font-family="Helvetica,sans-Serif" font-size="10.00">Workspace.addFeatureButtons</text>
</a>
</g>
</g>
<!-- Node19&#45;&gt;Node20 -->
<g id="edge19" class="edge"><title>Node19&#45;&gt;Node20</title>
<path fill="none" stroke="midnightblue" d="M3399.77,-110.247C3408.38,-110.156 3417.12,-110.064 3425.7,-109.974"/>
<polygon fill="midnightblue" stroke="midnightblue" points="3399.69,-106.747 3389.73,-110.352 3399.77,-113.747 3399.69,-106.747"/>
</g>
<!-- Node21 -->
<g id="node21" class="node"><title>Node21</title>
<g id="a_node21"><a xlink:href="../../d5/d56/class_workspace.html#a429d535dfd8427637b7715f0b1e1df1b" target="_top" xlink:title="Workspace.createWorkspace">
<polygon fill="white" stroke="black" points="3624,-79.6283 3624,-98.6283 3776,-98.6283 3776,-79.6283 3624,-79.6283"/>
<text text-anchor="middle" x="3700" y="-86.6283" font-family="Helvetica,sans-Serif" font-size="10.00">Workspace.createWorkspace</text>
</a>
</g>
</g>
<!-- Node20&#45;&gt;Node21 -->
<g id="edge20" class="edge"><title>Node20&#45;&gt;Node21</title>
<path fill="none" stroke="midnightblue" d="M3598.22,-99.6809C3606.82,-98.7804 3615.48,-97.874 3623.91,-96.9909"/>
<polygon fill="midnightblue" stroke="midnightblue" points="3597.75,-96.2109 3588.17,-100.733 3598.48,-103.173 3597.75,-96.2109"/>
</g>
<!-- Node22 -->
<g id="node22" class="node"><title>Node22</title>
<g id="a_node22"><a xlink:href="../../d0/d4b/class_main.html#aaa75b38812324d0f17c89f139bde6ada" target="_top" xlink:title="Main.start">
<polygon fill="white" stroke="black" points="3812.5,-79.6283 3812.5,-98.6283 3877.5,-98.6283 3877.5,-79.6283 3812.5,-79.6283"/>
<text text-anchor="middle" x="3845" y="-86.6283" font-family="Helvetica,sans-Serif" font-size="10.00">Main.start</text>
</a>
</g>
</g>
<!-- Node21&#45;&gt;Node22 -->
<g id="edge21" class="edge"><title>Node21&#45;&gt;Node22</title>
<path fill="none" stroke="midnightblue" d="M3786.39,-89.1283C3795.63,-89.1283 3804.55,-89.1283 3812.5,-89.1283"/>
<polygon fill="midnightblue" stroke="midnightblue" points="3786.27,-85.6284 3776.27,-89.1283 3786.27,-92.6284 3786.27,-85.6284"/>
</g>
<!-- Node23&#45;&gt;Node21 -->
<g id="edge23" class="edge"><title>Node23&#45;&gt;Node21</title>
<path fill="none" stroke="midnightblue" d="M3395.47,-71.6929C3462.6,-75.5494 3558.08,-81.0335 3623.94,-84.8165"/>
<polygon fill="midnightblue" stroke="midnightblue" points="3395.54,-68.1916 3385.36,-71.1123 3395.14,-75.1801 3395.54,-68.1916"/>
</g>
<!-- Node24&#45;&gt;Node13 -->
<g id="edge25" class="edge"><title>Node24&#45;&gt;Node13</title>
<path fill="none" stroke="midnightblue" d="M2498.2,-135.376C2522.52,-130.003 2550.95,-123.72 2573.91,-118.648"/>
<polygon fill="midnightblue" stroke="midnightblue" points="2497.41,-131.964 2488.4,-137.539 2498.92,-138.8 2497.41,-131.964"/>
</g>
<!-- Node25&#45;&gt;Node26 -->
<g id="edge30" class="edge"><title>Node25&#45;&gt;Node26</title>
<path fill="none" stroke="midnightblue" d="M1840.6,-219.625C1849.04,-218.624 1857.6,-217.607 1865.91,-216.621"/>
<polygon fill="midnightblue" stroke="midnightblue" points="1839.92,-216.182 1830.4,-220.837 1840.75,-223.133 1839.92,-216.182"/>
</g>
<!-- Node26&#45;&gt;Node11 -->
<g id="edge31" class="edge"><title>Node26&#45;&gt;Node11</title>
<path fill="none" stroke="midnightblue" d="M1996.21,-197.805C2011.75,-195.106 2028.18,-192.253 2043.2,-189.645"/>
<polygon fill="midnightblue" stroke="midnightblue" points="1995.4,-194.393 1986.14,-199.552 1996.6,-201.29 1995.4,-194.393"/>
</g>
<!-- Node27&#45;&gt;Node11 -->
<g id="edge35" class="edge"><title>Node27&#45;&gt;Node11</title>
<path fill="none" stroke="midnightblue" d="M1671.48,-299.342C1717.49,-295.516 1777.56,-288.951 1830,-278.128 1904.63,-262.726 1922.8,-255.269 1994,-228.128 2024.47,-216.513 2058.58,-200.08 2079.17,-189.77"/>
<polygon fill="midnightblue" stroke="midnightblue" points="1670.97,-295.871 1661.29,-300.164 1671.54,-302.848 1670.97,-295.871"/>
</g>
<!-- Node27&#45;&gt;Node12 -->
<g id="edge36" class="edge"><title>Node27&#45;&gt;Node12</title>
<path fill="none" stroke="midnightblue" d="M1671.18,-307.109C1717.09,-307.98 1777.15,-307.361 1830,-301.128 1985.83,-282.751 2024.9,-263.494 2168,-199.128 2197.51,-185.855 2230.49,-167.608 2249.68,-156.632"/>
<polygon fill="midnightblue" stroke="midnightblue" points="1671.09,-303.607 1661.02,-306.888 1670.94,-310.605 1671.09,-303.607"/>
</g>
<!-- Node27&#45;&gt;Node13 -->
<g id="edge37" class="edge"><title>Node27&#45;&gt;Node13</title>
<path fill="none" stroke="midnightblue" d="M1657.76,-317.144C1662.01,-318.897 1666.14,-320.882 1670,-323.128 1689.83,-334.665 1686.17,-348.593 1706,-360.128 1794.53,-411.614 1826.59,-418.128 1929,-418.128 1929,-418.128 1929,-418.128 2268,-418.128 2453.32,-418.128 2586.36,-170.871 2612.36,-118.715"/>
<polygon fill="midnightblue" stroke="midnightblue" points="1658.88,-313.83 1648.29,-313.664 1656.47,-320.4 1658.88,-313.83"/>
</g>
<!-- Node27&#45;&gt;Node24 -->
<g id="edge39" class="edge"><title>Node27&#45;&gt;Node24</title>
<path fill="none" stroke="midnightblue" d="M1644.26,-316.182C1729.02,-337.615 1900.7,-380.128 1929,-380.128 1929,-380.128 1929,-380.128 2100,-380.128 2261.61,-380.128 2403.56,-200.94 2436.04,-156.843"/>
<polygon fill="midnightblue" stroke="midnightblue" points="1644.92,-312.739 1634.37,-313.677 1643.2,-319.525 1644.92,-312.739"/>
</g>
<!-- Node27&#45;&gt;Node25 -->
<g id="edge38" class="edge"><title>Node27&#45;&gt;Node25</title>
<path fill="none" stroke="midnightblue" d="M1625.16,-290.023C1647.02,-279.237 1678.19,-264.213 1706,-252.128 1717.59,-247.093 1730.59,-241.912 1741.61,-237.659"/>
<polygon fill="midnightblue" stroke="midnightblue" points="1623.51,-286.933 1616.11,-294.51 1626.62,-293.205 1623.51,-286.933"/>
</g>
<!-- Node27&#45;&gt;Node26 -->
<g id="edge40" class="edge"><title>Node27&#45;&gt;Node26</title>
<path fill="none" stroke="midnightblue" d="M1653.25,-292.464C1700.78,-282.109 1770.45,-265.76 1830,-247.128 1856.71,-238.773 1886.6,-226.943 1906.48,-218.71"/>
<polygon fill="midnightblue" stroke="midnightblue" points="1652.49,-289.048 1643.45,-294.581 1653.97,-295.89 1652.49,-289.048"/>
</g>
</g>
</svg>
