<?xml version="1.0" encoding="UTF-8" standalone="no"?>
<!DOCTYPE svg PUBLIC "-//W3C//DTD SVG 1.1//EN"
 "http://www.w3.org/Graphics/SVG/1.1/DTD/svg11.dtd">
<!-- Generated by graphviz version 2.36.0 (20140111.2315)
 -->
<!-- Title: parser.LogoParserTokenManager.jjMoveNfa_0 Pages: 1 -->
<svg width="4534pt" height="452pt"
 viewBox="0.00 0.00 4534.00 452.00" xmlns="http://www.w3.org/2000/svg" xmlns:xlink="http://www.w3.org/1999/xlink">
<g id="graph0" class="graph" transform="scale(1 1) rotate(0) translate(4 448)">
<title>parser.LogoParserTokenManager.jjMoveNfa_0</title>
<polygon fill="white" stroke="none" points="-4,4 -4,-448 4530,-448 4530,4 -4,4"/>
<!-- Node1 -->
<g id="node1" class="node"><title>Node1</title>
<polygon fill="#bfbfbf" stroke="black" points="0.5,-282 0.5,-312 179.5,-312 179.5,-282 0.5,-282"/>
<text text-anchor="start" x="8.5" y="-300" font-family="Helvetica,sans-Serif" font-size="10.00">parser.LogoParserTokenManager.jj</text>
<text text-anchor="middle" x="90" y="-289" font-family="Helvetica,sans-Serif" font-size="10.00">MoveNfa_0</text>
</g>
<!-- Node2 -->
<g id="node2" class="node"><title>Node2</title>
<g id="a_node2"><a xlink:href="../../d0/d8c/classparser_1_1_logo_parser_token_manager.html#a2b55f093fc0200c57a099eba2d9b37e2" target="_top" xlink:title="parser.LogoParserTokenManager.jj\lMoveStringLiteralDfa0_0">
<polygon fill="white" stroke="black" points="1728.5,-334 1728.5,-364 1907.5,-364 1907.5,-334 1728.5,-334"/>
<text text-anchor="start" x="1736.5" y="-352" font-family="Helvetica,sans-Serif" font-size="10.00">parser.LogoParserTokenManager.jj</text>
<text text-anchor="middle" x="1818" y="-341" font-family="Helvetica,sans-Serif" font-size="10.00">MoveStringLiteralDfa0_0</text>
</a>
</g>
</g>
<!-- Node1&#45;&gt;Node2 -->
<g id="edge1" class="edge"><title>Node1&#45;&gt;Node2</title>
<path fill="none" stroke="midnightblue" d="M128.542,-317.015C201.813,-354.155 369.935,-430 521,-430 521,-430 521,-430 1387,-430 1527.92,-430 1690.39,-387.47 1769.19,-364.046"/>
<polygon fill="midnightblue" stroke="midnightblue" points="129.752,-313.702 119.256,-312.257 126.56,-319.932 129.752,-313.702"/>
</g>
<!-- Node24 -->
<g id="node24" class="node"><title>Node24</title>
<g id="a_node24"><a xlink:href="../../d0/d8c/classparser_1_1_logo_parser_token_manager.html#aa065c8b0c977d3c1c9d9058f96664080" target="_top" xlink:title="parser.LogoParserTokenManager.jj\lStartNfa_0">
<polygon fill="white" stroke="black" points="216.5,-282 216.5,-312 395.5,-312 395.5,-282 216.5,-282"/>
<text text-anchor="start" x="224.5" y="-300" font-family="Helvetica,sans-Serif" font-size="10.00">parser.LogoParserTokenManager.jj</text>
<text text-anchor="middle" x="306" y="-289" font-family="Helvetica,sans-Serif" font-size="10.00">StartNfa_0</text>
</a>
</g>
</g>
<!-- Node1&#45;&gt;Node24 -->
<g id="edge37" class="edge"><title>Node1&#45;&gt;Node24</title>
<path fill="none" stroke="midnightblue" d="M189.645,-297C198.596,-297 207.625,-297 216.48,-297"/>
<polygon fill="midnightblue" stroke="midnightblue" points="189.587,-293.5 179.587,-297 189.587,-300.5 189.587,-293.5"/>
</g>
<!-- Node31 -->
<g id="node31" class="node"><title>Node31</title>
<g id="a_node31"><a xlink:href="../../d0/d8c/classparser_1_1_logo_parser_token_manager.html#a94b20a17d94554012918e876be221c46" target="_top" xlink:title="parser.LogoParserTokenManager.jj\lStartNfaWithStates_0">
<polygon fill="white" stroke="black" points="216.5,-99 216.5,-129 395.5,-129 395.5,-99 216.5,-99"/>
<text text-anchor="start" x="224.5" y="-117" font-family="Helvetica,sans-Serif" font-size="10.00">parser.LogoParserTokenManager.jj</text>
<text text-anchor="middle" x="306" y="-106" font-family="Helvetica,sans-Serif" font-size="10.00">StartNfaWithStates_0</text>
</a>
</g>
</g>
<!-- Node1&#45;&gt;Node31 -->
<g id="edge50" class="edge"><title>Node1&#45;&gt;Node31</title>
<path fill="none" stroke="midnightblue" d="M116.545,-275.156C160.532,-237.541 249.488,-161.47 287.324,-129.116"/>
<polygon fill="midnightblue" stroke="midnightblue" points="114.203,-272.553 108.877,-281.712 118.752,-277.873 114.203,-272.553"/>
</g>
<!-- Node3 -->
<g id="node3" class="node"><title>Node3</title>
<g id="a_node3"><a xlink:href="../../d0/d8c/classparser_1_1_logo_parser_token_manager.html#a3dee50e2286b70ba662519a865e63b77" target="_top" xlink:title="parser.LogoParserTokenManager.get\lNextToken">
<polygon fill="white" stroke="black" points="1944,-334 1944,-364 2134,-364 2134,-334 1944,-334"/>
<text text-anchor="start" x="1952" y="-352" font-family="Helvetica,sans-Serif" font-size="10.00">parser.LogoParserTokenManager.get</text>
<text text-anchor="middle" x="2039" y="-341" font-family="Helvetica,sans-Serif" font-size="10.00">NextToken</text>
</a>
</g>
</g>
<!-- Node2&#45;&gt;Node3 -->
<g id="edge2" class="edge"><title>Node2&#45;&gt;Node3</title>
<path fill="none" stroke="midnightblue" d="M1917.83,-349C1926.46,-349 1935.17,-349 1943.76,-349"/>
<polygon fill="midnightblue" stroke="midnightblue" points="1917.76,-345.5 1907.76,-349 1917.76,-352.5 1917.76,-345.5"/>
</g>
<!-- Node4 -->
<g id="node4" class="node"><title>Node4</title>
<g id="a_node4"><a xlink:href="../../d5/d0e/classparser_1_1_logo_parser.html#a7477b52c4469ea43d75f88fb805e37a1" target="_top" xlink:title="parser.LogoParser.getNext\lToken">
<polygon fill="white" stroke="black" points="2172.5,-397 2172.5,-427 2315.5,-427 2315.5,-397 2172.5,-397"/>
<text text-anchor="start" x="2180.5" y="-415" font-family="Helvetica,sans-Serif" font-size="10.00">parser.LogoParser.getNext</text>
<text text-anchor="middle" x="2244" y="-404" font-family="Helvetica,sans-Serif" font-size="10.00">Token</text>
</a>
</g>
</g>
<!-- Node3&#45;&gt;Node4 -->
<g id="edge3" class="edge"><title>Node3&#45;&gt;Node4</title>
<path fill="none" stroke="midnightblue" d="M2098.04,-367.014C2128.61,-376.5 2165.66,-387.999 2194.65,-396.996"/>
<polygon fill="midnightblue" stroke="midnightblue" points="2098.95,-363.631 2088.37,-364.01 2096.88,-370.317 2098.95,-363.631"/>
</g>
<!-- Node5 -->
<g id="node5" class="node"><title>Node5</title>
<g id="a_node5"><a xlink:href="../../d5/d0e/classparser_1_1_logo_parser.html#a63b7890a7d6323bcf938132f968e8157" target="_top" xlink:title="parser.LogoParser.getToken">
<polygon fill="white" stroke="black" points="2170,-358.5 2170,-377.5 2318,-377.5 2318,-358.5 2170,-358.5"/>
<text text-anchor="middle" x="2244" y="-365.5" font-family="Helvetica,sans-Serif" font-size="10.00">parser.LogoParser.getToken</text>
</a>
</g>
</g>
<!-- Node3&#45;&gt;Node5 -->
<g id="edge4" class="edge"><title>Node3&#45;&gt;Node5</title>
<path fill="none" stroke="midnightblue" d="M2144.24,-358.757C2152.91,-359.568 2161.54,-360.376 2169.9,-361.158"/>
<polygon fill="midnightblue" stroke="midnightblue" points="2144.35,-355.252 2134.07,-357.805 2143.7,-362.221 2144.35,-355.252"/>
</g>
<!-- Node6 -->
<g id="node6" class="node"><title>Node6</title>
<g id="a_node6"><a xlink:href="../../d5/d0e/classparser_1_1_logo_parser.html#a550039a3180ec86ef01f419aefc02edc" target="_top" xlink:title="parser.LogoParser.jj\l_consume_token">
<polygon fill="white" stroke="black" points="2189,-144 2189,-174 2299,-174 2299,-144 2189,-144"/>
<text text-anchor="start" x="2197" y="-162" font-family="Helvetica,sans-Serif" font-size="10.00">parser.LogoParser.jj</text>
<text text-anchor="middle" x="2244" y="-151" font-family="Helvetica,sans-Serif" font-size="10.00">_consume_token</text>
</a>
</g>
</g>
<!-- Node3&#45;&gt;Node6 -->
<g id="edge5" class="edge"><title>Node3&#45;&gt;Node6</title>
<path fill="none" stroke="midnightblue" d="M2063.79,-326.736C2105.63,-287.575 2191.33,-207.362 2226.94,-174.036"/>
<polygon fill="midnightblue" stroke="midnightblue" points="2061.18,-324.384 2056.27,-333.773 2065.96,-329.495 2061.18,-324.384"/>
</g>
<!-- Node23 -->
<g id="node23" class="node"><title>Node23</title>
<g id="a_node23"><a xlink:href="../../d5/d0e/classparser_1_1_logo_parser.html#a2e48e3ab2c1c075beca7bcc54d891afd" target="_top" xlink:title="parser.LogoParser.jj_ntk">
<polygon fill="white" stroke="black" points="2179,-320.5 2179,-339.5 2309,-339.5 2309,-320.5 2179,-320.5"/>
<text text-anchor="middle" x="2244" y="-327.5" font-family="Helvetica,sans-Serif" font-size="10.00">parser.LogoParser.jj_ntk</text>
</a>
</g>
</g>
<!-- Node3&#45;&gt;Node23 -->
<g id="edge30" class="edge"><title>Node3&#45;&gt;Node23</title>
<path fill="none" stroke="midnightblue" d="M2144.38,-339.23C2156.12,-338.132 2167.8,-337.038 2178.81,-336.008"/>
<polygon fill="midnightblue" stroke="midnightblue" points="2143.7,-335.779 2134.07,-340.195 2144.35,-342.748 2143.7,-335.779"/>
</g>
<!-- Node7 -->
<g id="node7" class="node"><title>Node7</title>
<g id="a_node7"><a xlink:href="../../d5/d0e/classparser_1_1_logo_parser.html#a82acce8328e52f3b2bcb90542cc800b7" target="_top" xlink:title="parser.LogoParser.arithm">
<polygon fill="white" stroke="black" points="2678.5,-196.5 2678.5,-215.5 2815.5,-215.5 2815.5,-196.5 2678.5,-196.5"/>
<text text-anchor="middle" x="2747" y="-203.5" font-family="Helvetica,sans-Serif" font-size="10.00">parser.LogoParser.arithm</text>
</a>
</g>
</g>
<!-- Node6&#45;&gt;Node7 -->
<g id="edge6" class="edge"><title>Node6&#45;&gt;Node7</title>
<path fill="none" stroke="midnightblue" d="M2309.14,-165.017C2404.08,-173.924 2581.24,-190.543 2678.23,-199.643"/>
<polygon fill="midnightblue" stroke="midnightblue" points="2309.38,-161.524 2299.09,-164.074 2308.72,-168.493 2309.38,-161.524"/>
</g>
<!-- Node8 -->
<g id="node8" class="node"><title>Node8</title>
<g id="a_node8"><a xlink:href="../../d5/d0e/classparser_1_1_logo_parser.html#a397c25c39976e5a1fb689e1f0dd40160" target="_top" xlink:title="parser.LogoParser.eval">
<polygon fill="white" stroke="black" points="2852.5,-163.5 2852.5,-182.5 2977.5,-182.5 2977.5,-163.5 2852.5,-163.5"/>
<text text-anchor="middle" x="2915" y="-170.5" font-family="Helvetica,sans-Serif" font-size="10.00">parser.LogoParser.eval</text>
</a>
</g>
</g>
<!-- Node6&#45;&gt;Node8 -->
<g id="edge22" class="edge"><title>Node6&#45;&gt;Node8</title>
<path fill="none" stroke="midnightblue" d="M2309.27,-160.345C2437.9,-163.037 2725.46,-169.054 2852.1,-171.705"/>
<polygon fill="midnightblue" stroke="midnightblue" points="2309.25,-156.844 2299.18,-160.134 2309.1,-163.842 2309.25,-156.844"/>
</g>
<!-- Node9 -->
<g id="node9" class="node"><title>Node9</title>
<g id="a_node9"><a xlink:href="../../d5/d0e/classparser_1_1_logo_parser.html#a6b0ba0c2b5b0bc8c2ef76863fffdb6a3" target="_top" xlink:title="parser.LogoParser.list">
<polygon fill="white" stroke="black" points="3206.5,-125.5 3206.5,-144.5 3325.5,-144.5 3325.5,-125.5 3206.5,-125.5"/>
<text text-anchor="middle" x="3266" y="-132.5" font-family="Helvetica,sans-Serif" font-size="10.00">parser.LogoParser.list</text>
</a>
</g>
</g>
<!-- Node6&#45;&gt;Node9 -->
<g id="edge24" class="edge"><title>Node6&#45;&gt;Node9</title>
<path fill="none" stroke="midnightblue" d="M2279.87,-139.083C2300.79,-127.897 2328.24,-114.517 2354,-106 2449.75,-74.3352 2476.15,-64 2577,-64 2577,-64 2577,-64 2916,-64 3037.81,-64 3178.82,-106.045 3237.34,-125.425"/>
<polygon fill="midnightblue" stroke="midnightblue" points="2278.16,-136.03 2271.04,-143.881 2281.5,-142.18 2278.16,-136.03"/>
</g>
<!-- Node10 -->
<g id="node10" class="node"><title>Node10</title>
<g id="a_node10"><a xlink:href="../../d5/d0e/classparser_1_1_logo_parser.html#a4a8825534e0488215d22bcd947bc4d41" target="_top" xlink:title="parser.LogoParser.expression">
<polygon fill="white" stroke="black" points="3362.5,-52.5 3362.5,-71.5 3519.5,-71.5 3519.5,-52.5 3362.5,-52.5"/>
<text text-anchor="middle" x="3441" y="-59.5" font-family="Helvetica,sans-Serif" font-size="10.00">parser.LogoParser.expression</text>
</a>
</g>
</g>
<!-- Node6&#45;&gt;Node10 -->
<g id="edge23" class="edge"><title>Node6&#45;&gt;Node10</title>
<path fill="none" stroke="midnightblue" d="M2264.93,-136.44C2285.17,-115.052 2318.51,-83.7718 2354,-67 2445.11,-23.9473 2476.23,-26 2577,-26 2577,-26 2577,-26 3093,-26 3195.81,-26 3314.85,-41.8286 3383.39,-52.4943"/>
<polygon fill="midnightblue" stroke="midnightblue" points="2262.32,-134.112 2258.09,-143.827 2267.45,-138.869 2262.32,-134.112"/>
</g>
<!-- Node20 -->
<g id="node20" class="node"><title>Node20</title>
<g id="a_node20"><a xlink:href="../../d5/d0e/classparser_1_1_logo_parser.html#ad6ed8e51959a6e19a2323444aa8331c8" target="_top" xlink:title="parser.LogoParser.statement">
<polygon fill="white" stroke="black" points="3014.5,-163.5 3014.5,-182.5 3169.5,-182.5 3169.5,-163.5 3014.5,-163.5"/>
<text text-anchor="middle" x="3092" y="-170.5" font-family="Helvetica,sans-Serif" font-size="10.00">parser.LogoParser.statement</text>
</a>
</g>
</g>
<!-- Node6&#45;&gt;Node20 -->
<g id="edge28" class="edge"><title>Node6&#45;&gt;Node20</title>
<path fill="none" stroke="midnightblue" d="M2308.76,-141.421C2375.19,-124.674 2482.57,-102 2577,-102 2577,-102 2577,-102 2748,-102 2867.8,-102 3006.34,-144.045 3063.83,-163.425"/>
<polygon fill="midnightblue" stroke="midnightblue" points="2307.68,-138.084 2298.86,-143.949 2309.41,-144.866 2307.68,-138.084"/>
</g>
<!-- Node21 -->
<g id="node21" class="node"><title>Node21</title>
<g id="a_node21"><a xlink:href="../../d5/d0e/classparser_1_1_logo_parser.html#a4bdaeff6df067fde6743ff07370c3b0b" target="_top" xlink:title="parser.LogoParser.pow">
<polygon fill="white" stroke="black" points="2354,-244.5 2354,-263.5 2478,-263.5 2478,-244.5 2354,-244.5"/>
<text text-anchor="middle" x="2416" y="-251.5" font-family="Helvetica,sans-Serif" font-size="10.00">parser.LogoParser.pow</text>
</a>
</g>
</g>
<!-- Node6&#45;&gt;Node21 -->
<g id="edge25" class="edge"><title>Node6&#45;&gt;Node21</title>
<path fill="none" stroke="midnightblue" d="M2273.86,-180.114C2295.29,-195.206 2325.6,-215.354 2354,-230 2364.52,-235.424 2376.56,-240.402 2387.15,-244.401"/>
<polygon fill="midnightblue" stroke="midnightblue" points="2275.72,-177.137 2265.54,-174.191 2271.66,-182.841 2275.72,-177.137"/>
</g>
<!-- Node22 -->
<g id="node22" class="node"><title>Node22</title>
<g id="a_node22"><a xlink:href="../../d5/d0e/classparser_1_1_logo_parser.html#a34f4226672a2711ce2691162fdb2124d" target="_top" xlink:title="parser.LogoParser.term">
<polygon fill="white" stroke="black" points="2514,-225.5 2514,-244.5 2642,-244.5 2642,-225.5 2514,-225.5"/>
<text text-anchor="middle" x="2578" y="-232.5" font-family="Helvetica,sans-Serif" font-size="10.00">parser.LogoParser.term</text>
</a>
</g>
</g>
<!-- Node6&#45;&gt;Node22 -->
<g id="edge29" class="edge"><title>Node6&#45;&gt;Node22</title>
<path fill="none" stroke="midnightblue" d="M2300.64,-177.056C2317.66,-182.253 2336.51,-187.679 2354,-192 2409.5,-205.714 2473.67,-217.687 2518.89,-225.493"/>
<polygon fill="midnightblue" stroke="midnightblue" points="2301.44,-173.64 2290.85,-174.033 2299.37,-180.328 2301.44,-173.64"/>
</g>
<!-- Node7&#45;&gt;Node8 -->
<g id="edge7" class="edge"><title>Node7&#45;&gt;Node8</title>
<path fill="none" stroke="midnightblue" d="M2806.06,-194.458C2825.68,-190.557 2847.35,-186.25 2866.09,-182.524"/>
<polygon fill="midnightblue" stroke="midnightblue" points="2805.14,-191.072 2796.01,-196.455 2806.5,-197.938 2805.14,-191.072"/>
</g>
<!-- Node8&#45;&gt;Node9 -->
<g id="edge8" class="edge"><title>Node8&#45;&gt;Node9</title>
<path fill="none" stroke="midnightblue" d="M2969.06,-161.549C2983.58,-158.735 2999.35,-155.968 3014,-154 3079.62,-145.186 3155.48,-140.15 3206.47,-137.507"/>
<polygon fill="midnightblue" stroke="midnightblue" points="2968.37,-158.118 2959.24,-163.496 2969.73,-164.984 2968.37,-158.118"/>
</g>
<!-- Node8&#45;&gt;Node20 -->
<g id="edge20" class="edge"><title>Node8&#45;&gt;Node20</title>
<path fill="none" stroke="midnightblue" d="M2987.8,-173C2996.51,-173 3005.44,-173 3014.22,-173"/>
<polygon fill="midnightblue" stroke="midnightblue" points="2987.7,-169.5 2977.7,-173 2987.7,-176.5 2987.7,-169.5"/>
</g>
<!-- Node9&#45;&gt;Node10 -->
<g id="edge9" class="edge"><title>Node9&#45;&gt;Node10</title>
<path fill="none" stroke="midnightblue" d="M3299.2,-121.414C3333.58,-106.903 3387.2,-84.2805 3417.38,-71.5458"/>
<polygon fill="midnightblue" stroke="midnightblue" points="3297.47,-118.344 3289.62,-125.457 3300.19,-124.793 3297.47,-118.344"/>
</g>
<!-- Node11 -->
<g id="node11" class="node"><title>Node11</title>
<g id="a_node11"><a xlink:href="../../d5/d0e/classparser_1_1_logo_parser.html#adefe3b97ad0d2d7fd0dcd13f7ef2c75e" target="_top" xlink:title="parser.LogoParser.parse">
<polygon fill="white" stroke="black" points="3375,-125.5 3375,-144.5 3507,-144.5 3507,-125.5 3375,-125.5"/>
<text text-anchor="middle" x="3441" y="-132.5" font-family="Helvetica,sans-Serif" font-size="10.00">parser.LogoParser.parse</text>
</a>
</g>
</g>
<!-- Node9&#45;&gt;Node11 -->
<g id="edge10" class="edge"><title>Node9&#45;&gt;Node11</title>
<path fill="none" stroke="midnightblue" d="M3335.78,-135C3348.7,-135 3362.16,-135 3374.95,-135"/>
<polygon fill="midnightblue" stroke="midnightblue" points="3335.57,-131.5 3325.57,-135 3335.57,-138.5 3335.57,-131.5"/>
</g>
<!-- Node12 -->
<g id="node12" class="node"><title>Node12</title>
<g id="a_node12"><a xlink:href="../../d6/d95/classparser_1_1_parser.html#af3d0cef45b9f02f1707959c08d8f3797" target="_top" xlink:title="parser.Parser.parse">
<polygon fill="white" stroke="black" points="3556.5,-125.5 3556.5,-144.5 3665.5,-144.5 3665.5,-125.5 3556.5,-125.5"/>
<text text-anchor="middle" x="3611" y="-132.5" font-family="Helvetica,sans-Serif" font-size="10.00">parser.Parser.parse</text>
</a>
</g>
</g>
<!-- Node11&#45;&gt;Node12 -->
<g id="edge11" class="edge"><title>Node11&#45;&gt;Node12</title>
<path fill="none" stroke="midnightblue" d="M3517.8,-135C3530.83,-135 3544.12,-135 3556.41,-135"/>
<polygon fill="midnightblue" stroke="midnightblue" points="3517.43,-131.5 3507.43,-135 3517.43,-138.5 3517.43,-131.5"/>
</g>
<!-- Node13 -->
<g id="node13" class="node"><title>Node13</title>
<g id="a_node13"><a xlink:href="../../d4/d06/classinput_1_1_input_executor.html#a687a9f2cbed5d27a2c7b1336a1cab8aa" target="_top" xlink:title="input.InputExecutor.process\lInput">
<polygon fill="white" stroke="black" points="3702.5,-164 3702.5,-194 3851.5,-194 3851.5,-164 3702.5,-164"/>
<text text-anchor="start" x="3710.5" y="-182" font-family="Helvetica,sans-Serif" font-size="10.00">input.InputExecutor.process</text>
<text text-anchor="middle" x="3777" y="-171" font-family="Helvetica,sans-Serif" font-size="10.00">Input</text>
</a>
</g>
</g>
<!-- Node12&#45;&gt;Node13 -->
<g id="edge12" class="edge"><title>Node12&#45;&gt;Node13</title>
<path fill="none" stroke="midnightblue" d="M3657.36,-147.169C3676.7,-152.357 3699.46,-158.465 3719.85,-163.935"/>
<polygon fill="midnightblue" stroke="midnightblue" points="3658.15,-143.758 3647.59,-144.547 3656.34,-150.519 3658.15,-143.758"/>
</g>
<!-- Node14 -->
<g id="node14" class="node"><title>Node14</title>
<g id="a_node14"><a xlink:href="../../d6/d95/classparser_1_1_parser.html#ae90f8410be9931ec3f349085c8fdae71" target="_top" xlink:title="parser.Parser.parseFile">
<polygon fill="white" stroke="black" points="3715,-125.5 3715,-144.5 3839,-144.5 3839,-125.5 3715,-125.5"/>
<text text-anchor="middle" x="3777" y="-132.5" font-family="Helvetica,sans-Serif" font-size="10.00">parser.Parser.parseFile</text>
</a>
</g>
</g>
<!-- Node12&#45;&gt;Node14 -->
<g id="edge13" class="edge"><title>Node12&#45;&gt;Node14</title>
<path fill="none" stroke="midnightblue" d="M3675.82,-135C3688.63,-135 3702.06,-135 3714.79,-135"/>
<polygon fill="midnightblue" stroke="midnightblue" points="3675.7,-131.5 3665.7,-135 3675.7,-138.5 3675.7,-131.5"/>
</g>
<!-- Node19 -->
<g id="node19" class="node"><title>Node19</title>
<g id="a_node19"><a xlink:href="../../d5/d56/class_workspace.html#a0ed8fb487512971086b6f3ed0d74e4ae" target="_top" xlink:title="Workspace.sendUserInput">
<polygon fill="white" stroke="black" points="3893,-83.5 3893,-102.5 4033,-102.5 4033,-83.5 3893,-83.5"/>
<text text-anchor="middle" x="3963" y="-90.5" font-family="Helvetica,sans-Serif" font-size="10.00">Workspace.sendUserInput</text>
</a>
</g>
</g>
<!-- Node12&#45;&gt;Node19 -->
<g id="edge18" class="edge"><title>Node12&#45;&gt;Node19</title>
<path fill="none" stroke="midnightblue" d="M3662.23,-123.284C3675.14,-120.581 3689.04,-117.934 3702,-116 3766.31,-106.402 3840.22,-100.337 3892.76,-96.8606"/>
<polygon fill="midnightblue" stroke="midnightblue" points="3661.18,-119.931 3652.14,-125.452 3662.65,-126.775 3661.18,-119.931"/>
</g>
<!-- Node15 -->
<g id="node15" class="node"><title>Node15</title>
<g id="a_node15"><a xlink:href="../../d9/de8/class_file_chooser_feature.html#ad742b8e9d07e8151f0a9ff1972867ce8" target="_top" xlink:title="FileChooserFeature.openFile\lChooser">
<polygon fill="white" stroke="black" points="3888.5,-122 3888.5,-152 4037.5,-152 4037.5,-122 3888.5,-122"/>
<text text-anchor="start" x="3896.5" y="-140" font-family="Helvetica,sans-Serif" font-size="10.00">FileChooserFeature.openFile</text>
<text text-anchor="middle" x="3963" y="-129" font-family="Helvetica,sans-Serif" font-size="10.00">Chooser</text>
</a>
</g>
</g>
<!-- Node14&#45;&gt;Node15 -->
<g id="edge14" class="edge"><title>Node14&#45;&gt;Node15</title>
<path fill="none" stroke="midnightblue" d="M3849.17,-135.774C3862.02,-135.913 3875.44,-136.059 3888.35,-136.2"/>
<polygon fill="midnightblue" stroke="midnightblue" points="3849.05,-132.272 3839.01,-135.663 3848.98,-139.272 3849.05,-132.272"/>
</g>
<!-- Node16 -->
<g id="node16" class="node"><title>Node16</title>
<g id="a_node16"><a xlink:href="../../d5/d56/class_workspace.html#a6babd032d9af86fbc23812272d59a2d2" target="_top" xlink:title="Workspace.addFeatureButtons">
<polygon fill="white" stroke="black" points="4074,-125.5 4074,-144.5 4236,-144.5 4236,-125.5 4074,-125.5"/>
<text text-anchor="middle" x="4155" y="-132.5" font-family="Helvetica,sans-Serif" font-size="10.00">Workspace.addFeatureButtons</text>
</a>
</g>
</g>
<!-- Node15&#45;&gt;Node16 -->
<g id="edge15" class="edge"><title>Node15&#45;&gt;Node16</title>
<path fill="none" stroke="midnightblue" d="M4047.77,-136.118C4056.38,-136.028 4065.12,-135.936 4073.7,-135.845"/>
<polygon fill="midnightblue" stroke="midnightblue" points="4047.69,-132.619 4037.73,-136.224 4047.77,-139.618 4047.69,-132.619"/>
</g>
<!-- Node17 -->
<g id="node17" class="node"><title>Node17</title>
<g id="a_node17"><a xlink:href="../../d5/d56/class_workspace.html#a429d535dfd8427637b7715f0b1e1df1b" target="_top" xlink:title="Workspace.createWorkspace">
<polygon fill="white" stroke="black" points="4272,-105.5 4272,-124.5 4424,-124.5 4424,-105.5 4272,-105.5"/>
<text text-anchor="middle" x="4348" y="-112.5" font-family="Helvetica,sans-Serif" font-size="10.00">Workspace.createWorkspace</text>
</a>
</g>
</g>
<!-- Node16&#45;&gt;Node17 -->
<g id="edge16" class="edge"><title>Node16&#45;&gt;Node17</title>
<path fill="none" stroke="midnightblue" d="M4246.22,-125.553C4254.82,-124.652 4263.48,-123.746 4271.91,-122.863"/>
<polygon fill="midnightblue" stroke="midnightblue" points="4245.75,-122.083 4236.17,-126.605 4246.48,-129.045 4245.75,-122.083"/>
</g>
<!-- Node18 -->
<g id="node18" class="node"><title>Node18</title>
<g id="a_node18"><a xlink:href="../../d0/d4b/class_main.html#aaa75b38812324d0f17c89f139bde6ada" target="_top" xlink:title="Main.start">
<polygon fill="white" stroke="black" points="4460.5,-105.5 4460.5,-124.5 4525.5,-124.5 4525.5,-105.5 4460.5,-105.5"/>
<text text-anchor="middle" x="4493" y="-112.5" font-family="Helvetica,sans-Serif" font-size="10.00">Main.start</text>
</a>
</g>
</g>
<!-- Node17&#45;&gt;Node18 -->
<g id="edge17" class="edge"><title>Node17&#45;&gt;Node18</title>
<path fill="none" stroke="midnightblue" d="M4434.39,-115C4443.63,-115 4452.55,-115 4460.5,-115"/>
<polygon fill="midnightblue" stroke="midnightblue" points="4434.27,-111.5 4424.27,-115 4434.27,-118.5 4434.27,-111.5"/>
</g>
<!-- Node19&#45;&gt;Node17 -->
<g id="edge19" class="edge"><title>Node19&#45;&gt;Node17</title>
<path fill="none" stroke="midnightblue" d="M4043.47,-97.5646C4110.6,-101.421 4206.08,-106.905 4271.94,-110.688"/>
<polygon fill="midnightblue" stroke="midnightblue" points="4043.54,-94.0634 4033.36,-96.984 4043.14,-101.052 4043.54,-94.0634"/>
</g>
<!-- Node20&#45;&gt;Node9 -->
<g id="edge21" class="edge"><title>Node20&#45;&gt;Node9</title>
<path fill="none" stroke="midnightblue" d="M3146.2,-161.247C3170.52,-155.874 3198.95,-149.591 3221.91,-144.52"/>
<polygon fill="midnightblue" stroke="midnightblue" points="3145.41,-157.836 3136.4,-163.411 3146.92,-164.671 3145.41,-157.836"/>
</g>
<!-- Node21&#45;&gt;Node22 -->
<g id="edge26" class="edge"><title>Node21&#45;&gt;Node22</title>
<path fill="none" stroke="midnightblue" d="M2488.6,-245.497C2497.04,-244.495 2505.6,-243.479 2513.91,-242.492"/>
<polygon fill="midnightblue" stroke="midnightblue" points="2487.92,-242.054 2478.4,-246.708 2488.75,-249.005 2487.92,-242.054"/>
</g>
<!-- Node22&#45;&gt;Node7 -->
<g id="edge27" class="edge"><title>Node22&#45;&gt;Node7</title>
<path fill="none" stroke="midnightblue" d="M2644.21,-223.677C2659.75,-220.978 2676.18,-218.125 2691.2,-215.517"/>
<polygon fill="midnightblue" stroke="midnightblue" points="2643.4,-220.265 2634.14,-225.424 2644.6,-227.161 2643.4,-220.265"/>
</g>
<!-- Node23&#45;&gt;Node7 -->
<g id="edge31" class="edge"><title>Node23&#45;&gt;Node7</title>
<path fill="none" stroke="midnightblue" d="M2319.48,-325.214C2365.49,-321.388 2425.56,-314.823 2478,-304 2552.63,-288.598 2570.8,-281.141 2642,-254 2672.47,-242.384 2706.58,-225.952 2727.17,-215.641"/>
<polygon fill="midnightblue" stroke="midnightblue" points="2318.97,-321.743 2309.29,-326.035 2319.54,-328.72 2318.97,-321.743"/>
</g>
<!-- Node23&#45;&gt;Node8 -->
<g id="edge32" class="edge"><title>Node23&#45;&gt;Node8</title>
<path fill="none" stroke="midnightblue" d="M2319.18,-332.981C2365.09,-333.852 2425.15,-333.233 2478,-327 2633.83,-308.623 2672.9,-289.366 2816,-225 2845.51,-211.727 2878.49,-193.48 2897.68,-182.504"/>
<polygon fill="midnightblue" stroke="midnightblue" points="2319.09,-329.479 2309.02,-332.76 2318.94,-336.477 2319.09,-329.479"/>
</g>
<!-- Node23&#45;&gt;Node9 -->
<g id="edge33" class="edge"><title>Node23&#45;&gt;Node9</title>
<path fill="none" stroke="midnightblue" d="M2305.76,-343.016C2310.01,-344.769 2314.14,-346.754 2318,-349 2337.83,-360.537 2334.17,-374.465 2354,-386 2442.53,-437.486 2474.59,-444 2577,-444 2577,-444 2577,-444 2916,-444 3101.32,-444 3234.36,-196.742 3260.36,-144.587"/>
<polygon fill="midnightblue" stroke="midnightblue" points="2306.88,-339.702 2296.29,-339.536 2304.47,-346.272 2306.88,-339.702"/>
</g>
<!-- Node23&#45;&gt;Node20 -->
<g id="edge35" class="edge"><title>Node23&#45;&gt;Node20</title>
<path fill="none" stroke="midnightblue" d="M2292.26,-342.054C2377.02,-363.487 2548.7,-406 2577,-406 2577,-406 2577,-406 2748,-406 2909.61,-406 3051.56,-226.812 3084.04,-182.715"/>
<polygon fill="midnightblue" stroke="midnightblue" points="2292.92,-338.611 2282.37,-339.548 2291.2,-345.397 2292.92,-338.611"/>
</g>
<!-- Node23&#45;&gt;Node21 -->
<g id="edge34" class="edge"><title>Node23&#45;&gt;Node21</title>
<path fill="none" stroke="midnightblue" d="M2273.16,-315.895C2295.02,-305.108 2326.19,-290.085 2354,-278 2365.59,-272.965 2378.59,-267.784 2389.61,-263.53"/>
<polygon fill="midnightblue" stroke="midnightblue" points="2271.51,-312.805 2264.11,-320.382 2274.62,-319.077 2271.51,-312.805"/>
</g>
<!-- Node23&#45;&gt;Node22 -->
<g id="edge36" class="edge"><title>Node23&#45;&gt;Node22</title>
<path fill="none" stroke="midnightblue" d="M2301.25,-318.336C2348.78,-307.981 2418.45,-291.632 2478,-273 2504.71,-264.645 2534.6,-252.815 2554.48,-244.582"/>
<polygon fill="midnightblue" stroke="midnightblue" points="2300.49,-314.919 2291.45,-320.453 2301.97,-321.761 2300.49,-314.919"/>
</g>
<!-- Node25 -->
<g id="node25" class="node"><title>Node25</title>
<g id="a_node25"><a xlink:href="../../d0/d8c/classparser_1_1_logo_parser_token_manager.html#a99a01f0b68908e628349e9f09a2cbccd" target="_top" xlink:title="parser.LogoParserTokenManager.jj\lMoveStringLiteralDfa1_0">
<polygon fill="white" stroke="black" points="1512.5,-334 1512.5,-364 1691.5,-364 1691.5,-334 1512.5,-334"/>
<text text-anchor="start" x="1520.5" y="-352" font-family="Helvetica,sans-Serif" font-size="10.00">parser.LogoParserTokenManager.jj</text>
<text text-anchor="middle" x="1602" y="-341" font-family="Helvetica,sans-Serif" font-size="10.00">MoveStringLiteralDfa1_0</text>
</a>
</g>
</g>
<!-- Node24&#45;&gt;Node25 -->
<g id="edge38" class="edge"><title>Node24&#45;&gt;Node25</title>
<path fill="none" stroke="midnightblue" d="M345.713,-316.559C369.933,-327.997 402.109,-341.762 432,-350 563.916,-386.358 600.165,-392 737,-392 737,-392 737,-392 1171,-392 1289.54,-392 1425.55,-375.62 1512.32,-363.08"/>
<polygon fill="midnightblue" stroke="midnightblue" points="347.042,-313.315 336.512,-312.146 344.015,-319.627 347.042,-313.315"/>
</g>
<!-- Node26 -->
<g id="node26" class="node"><title>Node26</title>
<g id="a_node26"><a xlink:href="../../d0/d8c/classparser_1_1_logo_parser_token_manager.html#a26eaeb3ef169f93c03edbb3e26128b7a" target="_top" xlink:title="parser.LogoParserTokenManager.jj\lMoveStringLiteralDfa2_0">
<polygon fill="white" stroke="black" points="1296.5,-297 1296.5,-327 1475.5,-327 1475.5,-297 1296.5,-297"/>
<text text-anchor="start" x="1304.5" y="-315" font-family="Helvetica,sans-Serif" font-size="10.00">parser.LogoParserTokenManager.jj</text>
<text text-anchor="middle" x="1386" y="-304" font-family="Helvetica,sans-Serif" font-size="10.00">MoveStringLiteralDfa2_0</text>
</a>
</g>
</g>
<!-- Node24&#45;&gt;Node26 -->
<g id="edge40" class="edge"><title>Node24&#45;&gt;Node26</title>
<path fill="none" stroke="midnightblue" d="M386.965,-314.014C472.997,-330.811 614.037,-354 737,-354 737,-354 737,-354 955,-354 1073.51,-354 1209.53,-338.001 1296.3,-325.752"/>
<polygon fill="midnightblue" stroke="midnightblue" points="387.497,-310.552 377.009,-312.051 386.143,-317.419 387.497,-310.552"/>
</g>
<!-- Node27 -->
<g id="node27" class="node"><title>Node27</title>
<g id="a_node27"><a xlink:href="../../d0/d8c/classparser_1_1_logo_parser_token_manager.html#a12bfedaecfaf646642cb1aba5b1bd6fb" target="_top" xlink:title="parser.LogoParserTokenManager.jj\lMoveStringLiteralDfa3_0">
<polygon fill="white" stroke="black" points="1080.5,-261 1080.5,-291 1259.5,-291 1259.5,-261 1080.5,-261"/>
<text text-anchor="start" x="1088.5" y="-279" font-family="Helvetica,sans-Serif" font-size="10.00">parser.LogoParserTokenManager.jj</text>
<text text-anchor="middle" x="1170" y="-268" font-family="Helvetica,sans-Serif" font-size="10.00">MoveStringLiteralDfa3_0</text>
</a>
</g>
</g>
<!-- Node24&#45;&gt;Node27 -->
<g id="edge42" class="edge"><title>Node24&#45;&gt;Node27</title>
<path fill="none" stroke="midnightblue" d="M405.935,-296.589C465.622,-296.201 543.185,-295.45 612,-294 777.409,-290.514 970.365,-283.654 1080.27,-279.483"/>
<polygon fill="midnightblue" stroke="midnightblue" points="405.738,-293.09 395.76,-296.653 405.782,-300.09 405.738,-293.09"/>
</g>
<!-- Node28 -->
<g id="node28" class="node"><title>Node28</title>
<g id="a_node28"><a xlink:href="../../d0/d8c/classparser_1_1_logo_parser_token_manager.html#aa9aaf3af52d382735345487d2b89e0cf" target="_top" xlink:title="parser.LogoParserTokenManager.jj\lMoveStringLiteralDfa4_0">
<polygon fill="white" stroke="black" points="864.5,-228 864.5,-258 1043.5,-258 1043.5,-228 864.5,-228"/>
<text text-anchor="start" x="872.5" y="-246" font-family="Helvetica,sans-Serif" font-size="10.00">parser.LogoParserTokenManager.jj</text>
<text text-anchor="middle" x="954" y="-235" font-family="Helvetica,sans-Serif" font-size="10.00">MoveStringLiteralDfa4_0</text>
</a>
</g>
</g>
<!-- Node24&#45;&gt;Node28 -->
<g id="edge44" class="edge"><title>Node24&#45;&gt;Node28</title>
<path fill="none" stroke="midnightblue" d="M406.145,-288.712C531.25,-278.255 744.516,-260.427 864.408,-250.405"/>
<polygon fill="midnightblue" stroke="midnightblue" points="405.481,-285.256 395.807,-289.577 406.064,-292.231 405.481,-285.256"/>
</g>
<!-- Node29 -->
<g id="node29" class="node"><title>Node29</title>
<g id="a_node29"><a xlink:href="../../d0/d8c/classparser_1_1_logo_parser_token_manager.html#a4553920ced069b9d4852f1c1020bea38" target="_top" xlink:title="parser.LogoParserTokenManager.jj\lMoveStringLiteralDfa5_0">
<polygon fill="white" stroke="black" points="648.5,-200 648.5,-230 827.5,-230 827.5,-200 648.5,-200"/>
<text text-anchor="start" x="656.5" y="-218" font-family="Helvetica,sans-Serif" font-size="10.00">parser.LogoParserTokenManager.jj</text>
<text text-anchor="middle" x="738" y="-207" font-family="Helvetica,sans-Serif" font-size="10.00">MoveStringLiteralDfa5_0</text>
</a>
</g>
</g>
<!-- Node24&#45;&gt;Node29 -->
<g id="edge46" class="edge"><title>Node24&#45;&gt;Node29</title>
<path fill="none" stroke="midnightblue" d="M369.229,-279.276C389.179,-273.943 411.431,-268.356 432,-264 504.404,-248.666 587.377,-235.625 648.484,-226.861"/>
<polygon fill="midnightblue" stroke="midnightblue" points="368.074,-275.963 359.333,-281.951 369.9,-282.72 368.074,-275.963"/>
</g>
<!-- Node30 -->
<g id="node30" class="node"><title>Node30</title>
<g id="a_node30"><a xlink:href="../../d0/d8c/classparser_1_1_logo_parser_token_manager.html#a1bad232a9ce95d19e7133cbee0b538b5" target="_top" xlink:title="parser.LogoParserTokenManager.jj\lMoveStringLiteralDfa6_0">
<polygon fill="white" stroke="black" points="432.5,-181 432.5,-211 611.5,-211 611.5,-181 432.5,-181"/>
<text text-anchor="start" x="440.5" y="-199" font-family="Helvetica,sans-Serif" font-size="10.00">parser.LogoParserTokenManager.jj</text>
<text text-anchor="middle" x="522" y="-188" font-family="Helvetica,sans-Serif" font-size="10.00">MoveStringLiteralDfa6_0</text>
</a>
</g>
</g>
<!-- Node24&#45;&gt;Node30 -->
<g id="edge48" class="edge"><title>Node24&#45;&gt;Node30</title>
<path fill="none" stroke="midnightblue" d="M338.861,-276.642C363.608,-261.392 399.133,-240.711 432,-226 444.353,-220.471 458.051,-215.374 470.924,-211.01"/>
<polygon fill="midnightblue" stroke="midnightblue" points="336.9,-273.74 330.256,-281.993 340.597,-279.684 336.9,-273.74"/>
</g>
<!-- Node25&#45;&gt;Node2 -->
<g id="edge39" class="edge"><title>Node25&#45;&gt;Node2</title>
<path fill="none" stroke="midnightblue" d="M1701.65,-349C1710.6,-349 1719.62,-349 1728.48,-349"/>
<polygon fill="midnightblue" stroke="midnightblue" points="1701.59,-345.5 1691.59,-349 1701.59,-352.5 1701.59,-345.5"/>
</g>
<!-- Node26&#45;&gt;Node25 -->
<g id="edge41" class="edge"><title>Node26&#45;&gt;Node25</title>
<path fill="none" stroke="midnightblue" d="M1484,-328.771C1494.01,-330.502 1504.14,-332.254 1514.04,-333.964"/>
<polygon fill="midnightblue" stroke="midnightblue" points="1484.49,-325.304 1474.04,-327.049 1483.3,-332.202 1484.49,-325.304"/>
</g>
<!-- Node27&#45;&gt;Node26 -->
<g id="edge43" class="edge"><title>Node27&#45;&gt;Node26</title>
<path fill="none" stroke="midnightblue" d="M1269.65,-292.595C1278.6,-294.1 1287.62,-295.619 1296.48,-297.109"/>
<polygon fill="midnightblue" stroke="midnightblue" points="1270.03,-289.11 1259.59,-290.902 1268.87,-296.013 1270.03,-289.11"/>
</g>
<!-- Node28&#45;&gt;Node27 -->
<g id="edge45" class="edge"><title>Node28&#45;&gt;Node27</title>
<path fill="none" stroke="midnightblue" d="M1053.65,-258.212C1062.6,-259.592 1071.62,-260.984 1080.48,-262.35"/>
<polygon fill="midnightblue" stroke="midnightblue" points="1054,-254.726 1043.59,-256.661 1052.94,-261.644 1054,-254.726"/>
</g>
<!-- Node29&#45;&gt;Node28 -->
<g id="edge47" class="edge"><title>Node29&#45;&gt;Node28</title>
<path fill="none" stroke="midnightblue" d="M837.645,-227.907C846.596,-229.078 855.625,-230.259 864.48,-231.418"/>
<polygon fill="midnightblue" stroke="midnightblue" points="837.956,-224.418 827.587,-226.591 837.048,-231.359 837.956,-224.418"/>
</g>
<!-- Node30&#45;&gt;Node29 -->
<g id="edge49" class="edge"><title>Node30&#45;&gt;Node29</title>
<path fill="none" stroke="midnightblue" d="M621.645,-204.758C630.596,-205.553 639.625,-206.355 648.48,-207.141"/>
<polygon fill="midnightblue" stroke="midnightblue" points="621.857,-201.263 611.587,-203.865 621.238,-208.236 621.857,-201.263"/>
</g>
<!-- Node31&#45;&gt;Node2 -->
<g id="edge51" class="edge"><title>Node31&#45;&gt;Node2</title>
<path fill="none" stroke="midnightblue" d="M336.877,-93.1054C361.32,-77.0646 397.385,-55.7362 432,-44 561.707,-0.0237679 600.041,-0 737,-0 737,-0 737,-0 1387,-0 1601.89,-0 1769.31,-266.012 1808.36,-333.554"/>
<polygon fill="midnightblue" stroke="midnightblue" points="334.797,-90.2859 328.422,-98.7483 338.683,-96.1084 334.797,-90.2859"/>
</g>
<!-- Node31&#45;&gt;Node26 -->
<g id="edge52" class="edge"><title>Node31&#45;&gt;Node26</title>
<path fill="none" stroke="midnightblue" d="M367.851,-96.3162C450.625,-73.8613 603.687,-38 737,-38 737,-38 737,-38 955,-38 1149.3,-38 1326.53,-239.437 1373.12,-296.878"/>
<polygon fill="midnightblue" stroke="midnightblue" points="366.831,-92.9667 358.112,-98.9848 368.681,-99.7179 366.831,-92.9667"/>
</g>
<!-- Node31&#45;&gt;Node27 -->
<g id="edge53" class="edge"><title>Node31&#45;&gt;Node27</title>
<path fill="none" stroke="midnightblue" d="M405.989,-110.485C465.696,-109.078 543.261,-108.508 612,-112 708.372,-116.895 734.183,-111.419 828,-134 928.144,-158.104 949.234,-177.636 1044,-218 1076.36,-231.781 1112.77,-248.86 1137.91,-260.905"/>
<polygon fill="midnightblue" stroke="midnightblue" points="405.722,-106.99 395.812,-110.737 405.895,-113.988 405.722,-106.99"/>
</g>
<!-- Node31&#45;&gt;Node28 -->
<g id="edge54" class="edge"><title>Node31&#45;&gt;Node28</title>
<path fill="none" stroke="midnightblue" d="M405.845,-114.246C465.821,-115.697 543.713,-119.898 612,-131 710.227,-146.969 733.977,-157.392 828,-190 860.18,-201.161 895.858,-216.608 920.832,-227.947"/>
<polygon fill="midnightblue" stroke="midnightblue" points="405.696,-110.742 395.622,-114.021 405.542,-117.74 405.696,-110.742"/>
</g>
<!-- Node31&#45;&gt;Node29 -->
<g id="edge55" class="edge"><title>Node31&#45;&gt;Node29</title>
<path fill="none" stroke="midnightblue" d="M405.439,-128.453C465.614,-138.26 543.855,-152.755 612,-171 641.78,-178.973 674.632,-190.655 699.181,-199.978"/>
<polygon fill="midnightblue" stroke="midnightblue" points="405.992,-124.997 395.562,-126.859 404.877,-131.908 405.992,-124.997"/>
</g>
<!-- Node31&#45;&gt;Node30 -->
<g id="edge56" class="edge"><title>Node31&#45;&gt;Node30</title>
<path fill="none" stroke="midnightblue" d="M350.967,-133.163C374.79,-143.325 404.833,-155.784 432,-166 445.583,-171.108 460.479,-176.29 474.133,-180.877"/>
<polygon fill="midnightblue" stroke="midnightblue" points="352.068,-129.827 341.498,-129.106 349.311,-136.261 352.068,-129.827"/>
</g>
</g>
</svg>
