<?xml version="1.0" encoding="UTF-8" standalone="no"?>
<!DOCTYPE svg PUBLIC "-//W3C//DTD SVG 1.1//EN"
 "http://www.w3.org/Graphics/SVG/1.1/DTD/svg11.dtd">
<!-- Generated by graphviz version 2.36.0 (20140111.2315)
 -->
<!-- Title: parser.LogoParserTokenManager.getNextToken Pages: 1 -->
<!--zoomable 426 -->
<svg id="main" version="1.1" xmlns="http://www.w3.org/2000/svg" xmlns:xlink="http://www.w3.org/1999/xlink" xml:space="preserve" onload="init(evt)">
<style type="text/css"><![CDATA[
.edge:hover path { stroke: red; }
.edge:hover polygon { stroke: red; fill: red; }
]]></style>
<script type="text/javascript"><![CDATA[
var edges = document.getElementsByTagName('g');
if (edges && edges.length) {
  for (var i=0;i<edges.length;i++) {
    if (edges[i].id.substr(0,4)=='edge') {
      edges[i].setAttribute('class','edge');
    }
  }
}
]]></script>
        <defs>
                <circle id="rim" cx="0" cy="0" r="7"/>
                <circle id="rim2" cx="0" cy="0" r="3.5"/>
                <g id="zoomPlus">
                        <use xlink:href="#rim" fill="#404040">
                                <set attributeName="fill" to="#808080" begin="zoomplus.mouseover" end="zoomplus.mouseout"/>
                        </use>
                        <path d="M-4,0h8M0,-4v8" fill="none" stroke="white" stroke-width="1.5" pointer-events="none"/>
                </g>
                <g id="zoomMin">
                        <use xlink:href="#rim" fill="#404040">
                                <set attributeName="fill" to="#808080" begin="zoomminus.mouseover" end="zoomminus.mouseout"/>
                        </use>
                        <path d="M-4,0h8" fill="none" stroke="white" stroke-width="1.5" pointer-events="none"/>
                </g>
                <g id="dirArrow">
                        <path fill="none" stroke="white" stroke-width="1.5" d="M0,-3.0v7 M-2.5,-0.5L0,-3.0L2.5,-0.5"/>
                </g>
               <g id="resetDef">
                       <use xlink:href="#rim2" fill="#404040">
                               <set attributeName="fill" to="#808080" begin="reset.mouseover" end="reset.mouseout"/>
                       </use>
               </g>
        </defs>

<script type="text/javascript">
var viewWidth = 2590;
var viewHeight = 426;
var sectionId = 'dynsection-4';
</script>
<script xlink:href="../../svgpan.js"/>
<svg id="graph" class="graph">
<g id="viewport">
<title>parser.LogoParserTokenManager.getNextToken</title>
<polygon fill="white" stroke="none" points="-4,4 -4,-422.128 2586,-422.128 2586,4 -4,4"/>
<!-- Node1 -->
<g id="node1" class="node"><title>Node1</title>
<polygon fill="#bfbfbf" stroke="black" points="0,-308.128 0,-338.128 190,-338.128 190,-308.128 0,-308.128"/>
<text text-anchor="start" x="8" y="-326.128" font-family="Helvetica,sans-Serif" font-size="10.00">parser.LogoParserTokenManager.get</text>
<text text-anchor="middle" x="95" y="-315.128" font-family="Helvetica,sans-Serif" font-size="10.00">NextToken</text>
</g>
<!-- Node2 -->
<g id="node2" class="node"><title>Node2</title>
<g id="a_node2"><a xlink:href="../../d5/d0e/classparser_1_1_logo_parser.html#a7477b52c4469ea43d75f88fb805e37a1" target="_top" xlink:title="parser.LogoParser.getNext\lToken">
<polygon fill="white" stroke="black" points="228.5,-371.128 228.5,-401.128 371.5,-401.128 371.5,-371.128 228.5,-371.128"/>
<text text-anchor="start" x="236.5" y="-389.128" font-family="Helvetica,sans-Serif" font-size="10.00">parser.LogoParser.getNext</text>
<text text-anchor="middle" x="300" y="-378.128" font-family="Helvetica,sans-Serif" font-size="10.00">Token</text>
</a>
</g>
</g>
<!-- Node1&#45;&gt;Node2 -->
<g id="edge1" class="edge"><title>Node1&#45;&gt;Node2</title>
<path fill="none" stroke="midnightblue" d="M154.044,-341.142C184.612,-350.629 221.662,-362.127 250.653,-371.124"/>
<polygon fill="midnightblue" stroke="midnightblue" points="154.954,-337.76 144.366,-338.138 152.879,-344.445 154.954,-337.76"/>
</g>
<!-- Node3 -->
<g id="node3" class="node"><title>Node3</title>
<g id="a_node3"><a xlink:href="../../d5/d0e/classparser_1_1_logo_parser.html#a63b7890a7d6323bcf938132f968e8157" target="_top" xlink:title="parser.LogoParser.getToken">
<polygon fill="white" stroke="black" points="226,-332.628 226,-351.628 374,-351.628 374,-332.628 226,-332.628"/>
<text text-anchor="middle" x="300" y="-339.628" font-family="Helvetica,sans-Serif" font-size="10.00">parser.LogoParser.getToken</text>
</a>
</g>
</g>
<!-- Node1&#45;&gt;Node3 -->
<g id="edge2" class="edge"><title>Node1&#45;&gt;Node3</title>
<path fill="none" stroke="midnightblue" d="M200.241,-332.885C208.906,-333.696 217.544,-334.504 225.903,-335.287"/>
<polygon fill="midnightblue" stroke="midnightblue" points="200.355,-329.38 190.072,-331.933 199.702,-336.35 200.355,-329.38"/>
</g>
<!-- Node4 -->
<g id="node4" class="node"><title>Node4</title>
<g id="a_node4"><a xlink:href="../../d5/d0e/classparser_1_1_logo_parser.html#a550039a3180ec86ef01f419aefc02edc" target="_top" xlink:title="parser.LogoParser.jj\l_consume_token">
<polygon fill="white" stroke="black" points="245,-118.128 245,-148.128 355,-148.128 355,-118.128 245,-118.128"/>
<text text-anchor="start" x="253" y="-136.128" font-family="Helvetica,sans-Serif" font-size="10.00">parser.LogoParser.jj</text>
<text text-anchor="middle" x="300" y="-125.128" font-family="Helvetica,sans-Serif" font-size="10.00">_consume_token</text>
</a>
</g>
</g>
<!-- Node1&#45;&gt;Node4 -->
<g id="edge3" class="edge"><title>Node1&#45;&gt;Node4</title>
<path fill="none" stroke="midnightblue" d="M119.787,-300.864C161.628,-261.703 247.329,-181.49 282.935,-148.164"/>
<polygon fill="midnightblue" stroke="midnightblue" points="117.178,-298.512 112.269,-307.901 121.962,-303.623 117.178,-298.512"/>
</g>
<!-- Node21 -->
<g id="node21" class="node"><title>Node21</title>
<g id="a_node21"><a xlink:href="../../d5/d0e/classparser_1_1_logo_parser.html#a2e48e3ab2c1c075beca7bcc54d891afd" target="_top" xlink:title="parser.LogoParser.jj_ntk">
<polygon fill="white" stroke="black" points="235,-294.628 235,-313.628 365,-313.628 365,-294.628 235,-294.628"/>
<text text-anchor="middle" x="300" y="-301.628" font-family="Helvetica,sans-Serif" font-size="10.00">parser.LogoParser.jj_ntk</text>
</a>
</g>
</g>
<!-- Node1&#45;&gt;Node21 -->
<g id="edge28" class="edge"><title>Node1&#45;&gt;Node21</title>
<path fill="none" stroke="midnightblue" d="M200.382,-313.359C212.117,-312.26 223.801,-311.167 234.805,-310.137"/>
<polygon fill="midnightblue" stroke="midnightblue" points="199.702,-309.907 190.072,-314.324 200.355,-316.876 199.702,-309.907"/>
</g>
<!-- Node5 -->
<g id="node5" class="node"><title>Node5</title>
<g id="a_node5"><a xlink:href="../../d5/d0e/classparser_1_1_logo_parser.html#a82acce8328e52f3b2bcb90542cc800b7" target="_top" xlink:title="parser.LogoParser.arithm">
<polygon fill="white" stroke="black" points="734.5,-170.628 734.5,-189.628 871.5,-189.628 871.5,-170.628 734.5,-170.628"/>
<text text-anchor="middle" x="803" y="-177.628" font-family="Helvetica,sans-Serif" font-size="10.00">parser.LogoParser.arithm</text>
</a>
</g>
</g>
<!-- Node4&#45;&gt;Node5 -->
<g id="edge4" class="edge"><title>Node4&#45;&gt;Node5</title>
<path fill="none" stroke="midnightblue" d="M365.135,-139.145C460.082,-148.052 637.24,-164.672 734.234,-173.771"/>
<polygon fill="midnightblue" stroke="midnightblue" points="365.375,-135.652 355.092,-138.203 364.721,-142.622 365.375,-135.652"/>
</g>
<!-- Node6 -->
<g id="node6" class="node"><title>Node6</title>
<g id="a_node6"><a xlink:href="../../d5/d0e/classparser_1_1_logo_parser.html#a397c25c39976e5a1fb689e1f0dd40160" target="_top" xlink:title="parser.LogoParser.eval">
<polygon fill="white" stroke="black" points="908.5,-137.628 908.5,-156.628 1033.5,-156.628 1033.5,-137.628 908.5,-137.628"/>
<text text-anchor="middle" x="971" y="-144.628" font-family="Helvetica,sans-Serif" font-size="10.00">parser.LogoParser.eval</text>
</a>
</g>
</g>
<!-- Node4&#45;&gt;Node6 -->
<g id="edge20" class="edge"><title>Node4&#45;&gt;Node6</title>
<path fill="none" stroke="midnightblue" d="M365.274,-134.473C493.9,-137.165 781.457,-143.183 908.1,-145.833"/>
<polygon fill="midnightblue" stroke="midnightblue" points="365.251,-130.972 355.18,-134.262 365.105,-137.971 365.251,-130.972"/>
</g>
<!-- Node7 -->
<g id="node7" class="node"><title>Node7</title>
<g id="a_node7"><a xlink:href="../../d5/d0e/classparser_1_1_logo_parser.html#a6b0ba0c2b5b0bc8c2ef76863fffdb6a3" target="_top" xlink:title="parser.LogoParser.list">
<polygon fill="white" stroke="black" points="1262.5,-99.6283 1262.5,-118.628 1381.5,-118.628 1381.5,-99.6283 1262.5,-99.6283"/>
<text text-anchor="middle" x="1322" y="-106.628" font-family="Helvetica,sans-Serif" font-size="10.00">parser.LogoParser.list</text>
</a>
</g>
</g>
<!-- Node4&#45;&gt;Node7 -->
<g id="edge22" class="edge"><title>Node4&#45;&gt;Node7</title>
<path fill="none" stroke="midnightblue" d="M335.871,-113.211C356.785,-102.026 384.244,-88.6456 410,-80.1283 505.754,-48.4635 532.146,-38.1283 633,-38.1283 633,-38.1283 633,-38.1283 972,-38.1283 1093.81,-38.1283 1234.82,-80.173 1293.34,-99.5529"/>
<polygon fill="midnightblue" stroke="midnightblue" points="334.158,-110.159 327.043,-118.009 337.501,-116.309 334.158,-110.159"/>
</g>
<!-- Node8 -->
<g id="node8" class="node"><title>Node8</title>
<g id="a_node8"><a xlink:href="../../d5/d0e/classparser_1_1_logo_parser.html#a4a8825534e0488215d22bcd947bc4d41" target="_top" xlink:title="parser.LogoParser.expression">
<polygon fill="white" stroke="black" points="1418.5,-26.6283 1418.5,-45.6283 1575.5,-45.6283 1575.5,-26.6283 1418.5,-26.6283"/>
<text text-anchor="middle" x="1497" y="-33.6283" font-family="Helvetica,sans-Serif" font-size="10.00">parser.LogoParser.expression</text>
</a>
</g>
</g>
<!-- Node4&#45;&gt;Node8 -->
<g id="edge21" class="edge"><title>Node4&#45;&gt;Node8</title>
<path fill="none" stroke="midnightblue" d="M320.934,-110.568C341.172,-89.1803 374.506,-57.9001 410,-41.1283 501.113,1.92439 532.228,-0.128293 633,-0.128293 633,-0.128293 633,-0.128293 1149,-0.128293 1251.81,-0.128293 1370.85,-15.9569 1439.39,-26.6226"/>
<polygon fill="midnightblue" stroke="midnightblue" points="318.32,-108.241 314.091,-117.955 323.455,-112.998 318.32,-108.241"/>
</g>
<!-- Node18 -->
<g id="node18" class="node"><title>Node18</title>
<g id="a_node18"><a xlink:href="../../d5/d0e/classparser_1_1_logo_parser.html#ad6ed8e51959a6e19a2323444aa8331c8" target="_top" xlink:title="parser.LogoParser.statement">
<polygon fill="white" stroke="black" points="1070.5,-137.628 1070.5,-156.628 1225.5,-156.628 1225.5,-137.628 1070.5,-137.628"/>
<text text-anchor="middle" x="1148" y="-144.628" font-family="Helvetica,sans-Serif" font-size="10.00">parser.LogoParser.statement</text>
</a>
</g>
</g>
<!-- Node4&#45;&gt;Node18 -->
<g id="edge26" class="edge"><title>Node4&#45;&gt;Node18</title>
<path fill="none" stroke="midnightblue" d="M364.757,-115.549C431.191,-98.8025 538.574,-76.1283 633,-76.1283 633,-76.1283 633,-76.1283 804,-76.1283 923.798,-76.1283 1062.34,-118.173 1119.83,-137.553"/>
<polygon fill="midnightblue" stroke="midnightblue" points="363.68,-112.212 354.857,-118.078 365.413,-118.994 363.68,-112.212"/>
</g>
<!-- Node19 -->
<g id="node19" class="node"><title>Node19</title>
<g id="a_node19"><a xlink:href="../../d5/d0e/classparser_1_1_logo_parser.html#a4bdaeff6df067fde6743ff07370c3b0b" target="_top" xlink:title="parser.LogoParser.pow">
<polygon fill="white" stroke="black" points="410,-218.628 410,-237.628 534,-237.628 534,-218.628 410,-218.628"/>
<text text-anchor="middle" x="472" y="-225.628" font-family="Helvetica,sans-Serif" font-size="10.00">parser.LogoParser.pow</text>
</a>
</g>
</g>
<!-- Node4&#45;&gt;Node19 -->
<g id="edge23" class="edge"><title>Node4&#45;&gt;Node19</title>
<path fill="none" stroke="midnightblue" d="M329.863,-154.242C351.29,-169.334 381.596,-189.482 410,-204.128 420.519,-209.553 432.559,-214.531 443.148,-218.53"/>
<polygon fill="midnightblue" stroke="midnightblue" points="331.717,-151.266 321.54,-148.319 327.658,-156.969 331.717,-151.266"/>
</g>
<!-- Node20 -->
<g id="node20" class="node"><title>Node20</title>
<g id="a_node20"><a xlink:href="../../d5/d0e/classparser_1_1_logo_parser.html#a34f4226672a2711ce2691162fdb2124d" target="_top" xlink:title="parser.LogoParser.term">
<polygon fill="white" stroke="black" points="570,-199.628 570,-218.628 698,-218.628 698,-199.628 570,-199.628"/>
<text text-anchor="middle" x="634" y="-206.628" font-family="Helvetica,sans-Serif" font-size="10.00">parser.LogoParser.term</text>
</a>
</g>
</g>
<!-- Node4&#45;&gt;Node20 -->
<g id="edge27" class="edge"><title>Node4&#45;&gt;Node20</title>
<path fill="none" stroke="midnightblue" d="M356.638,-151.185C373.662,-156.381 392.51,-161.807 410,-166.128 465.502,-179.842 529.673,-191.816 574.886,-199.621"/>
<polygon fill="midnightblue" stroke="midnightblue" points="357.437,-147.768 346.85,-148.162 355.372,-154.457 357.437,-147.768"/>
</g>
<!-- Node5&#45;&gt;Node6 -->
<g id="edge5" class="edge"><title>Node5&#45;&gt;Node6</title>
<path fill="none" stroke="midnightblue" d="M862.061,-168.586C881.681,-164.686 903.351,-160.378 922.094,-156.652"/>
<polygon fill="midnightblue" stroke="midnightblue" points="861.14,-165.201 852.014,-170.583 862.505,-172.066 861.14,-165.201"/>
</g>
<!-- Node6&#45;&gt;Node7 -->
<g id="edge6" class="edge"><title>Node6&#45;&gt;Node7</title>
<path fill="none" stroke="midnightblue" d="M1025.06,-135.677C1039.58,-132.863 1055.35,-130.097 1070,-128.128 1135.62,-119.314 1211.48,-114.278 1262.47,-111.635"/>
<polygon fill="midnightblue" stroke="midnightblue" points="1024.37,-132.246 1015.24,-137.624 1025.73,-139.112 1024.37,-132.246"/>
</g>
<!-- Node6&#45;&gt;Node18 -->
<g id="edge18" class="edge"><title>Node6&#45;&gt;Node18</title>
<path fill="none" stroke="midnightblue" d="M1043.8,-147.128C1052.51,-147.128 1061.44,-147.128 1070.22,-147.128"/>
<polygon fill="midnightblue" stroke="midnightblue" points="1043.7,-143.628 1033.7,-147.128 1043.7,-150.628 1043.7,-143.628"/>
</g>
<!-- Node7&#45;&gt;Node8 -->
<g id="edge7" class="edge"><title>Node7&#45;&gt;Node8</title>
<path fill="none" stroke="midnightblue" d="M1355.2,-95.5422C1389.58,-81.0317 1443.2,-58.4088 1473.38,-45.6741"/>
<polygon fill="midnightblue" stroke="midnightblue" points="1353.47,-92.4724 1345.62,-99.5848 1356.19,-98.9217 1353.47,-92.4724"/>
</g>
<!-- Node9 -->
<g id="node9" class="node"><title>Node9</title>
<g id="a_node9"><a xlink:href="../../d5/d0e/classparser_1_1_logo_parser.html#adefe3b97ad0d2d7fd0dcd13f7ef2c75e" target="_top" xlink:title="parser.LogoParser.parse">
<polygon fill="white" stroke="black" points="1431,-99.6283 1431,-118.628 1563,-118.628 1563,-99.6283 1431,-99.6283"/>
<text text-anchor="middle" x="1497" y="-106.628" font-family="Helvetica,sans-Serif" font-size="10.00">parser.LogoParser.parse</text>
</a>
</g>
</g>
<!-- Node7&#45;&gt;Node9 -->
<g id="edge8" class="edge"><title>Node7&#45;&gt;Node9</title>
<path fill="none" stroke="midnightblue" d="M1391.78,-109.128C1404.7,-109.128 1418.16,-109.128 1430.95,-109.128"/>
<polygon fill="midnightblue" stroke="midnightblue" points="1391.57,-105.628 1381.57,-109.128 1391.57,-112.628 1391.57,-105.628"/>
</g>
<!-- Node10 -->
<g id="node10" class="node"><title>Node10</title>
<g id="a_node10"><a xlink:href="../../d6/d95/classparser_1_1_parser.html#af3d0cef45b9f02f1707959c08d8f3797" target="_top" xlink:title="parser.Parser.parse">
<polygon fill="white" stroke="black" points="1612.5,-99.6283 1612.5,-118.628 1721.5,-118.628 1721.5,-99.6283 1612.5,-99.6283"/>
<text text-anchor="middle" x="1667" y="-106.628" font-family="Helvetica,sans-Serif" font-size="10.00">parser.Parser.parse</text>
</a>
</g>
</g>
<!-- Node9&#45;&gt;Node10 -->
<g id="edge9" class="edge"><title>Node9&#45;&gt;Node10</title>
<path fill="none" stroke="midnightblue" d="M1573.8,-109.128C1586.83,-109.128 1600.12,-109.128 1612.41,-109.128"/>
<polygon fill="midnightblue" stroke="midnightblue" points="1573.43,-105.628 1563.43,-109.128 1573.43,-112.628 1573.43,-105.628"/>
</g>
<!-- Node11 -->
<g id="node11" class="node"><title>Node11</title>
<g id="a_node11"><a xlink:href="../../d4/d06/classinput_1_1_input_executor.html#a687a9f2cbed5d27a2c7b1336a1cab8aa" target="_top" xlink:title="input.InputExecutor.process\lInput">
<polygon fill="white" stroke="black" points="1758.5,-138.128 1758.5,-168.128 1907.5,-168.128 1907.5,-138.128 1758.5,-138.128"/>
<text text-anchor="start" x="1766.5" y="-156.128" font-family="Helvetica,sans-Serif" font-size="10.00">input.InputExecutor.process</text>
<text text-anchor="middle" x="1833" y="-145.128" font-family="Helvetica,sans-Serif" font-size="10.00">Input</text>
</a>
</g>
</g>
<!-- Node10&#45;&gt;Node11 -->
<g id="edge10" class="edge"><title>Node10&#45;&gt;Node11</title>
<path fill="none" stroke="midnightblue" d="M1713.36,-121.297C1732.7,-126.486 1755.46,-132.593 1775.85,-138.063"/>
<polygon fill="midnightblue" stroke="midnightblue" points="1714.15,-117.887 1703.59,-118.676 1712.34,-124.647 1714.15,-117.887"/>
</g>
<!-- Node12 -->
<g id="node12" class="node"><title>Node12</title>
<g id="a_node12"><a xlink:href="../../d6/d95/classparser_1_1_parser.html#ae90f8410be9931ec3f349085c8fdae71" target="_top" xlink:title="parser.Parser.parseFile">
<polygon fill="white" stroke="black" points="1771,-99.6283 1771,-118.628 1895,-118.628 1895,-99.6283 1771,-99.6283"/>
<text text-anchor="middle" x="1833" y="-106.628" font-family="Helvetica,sans-Serif" font-size="10.00">parser.Parser.parseFile</text>
</a>
</g>
</g>
<!-- Node10&#45;&gt;Node12 -->
<g id="edge11" class="edge"><title>Node10&#45;&gt;Node12</title>
<path fill="none" stroke="midnightblue" d="M1731.82,-109.128C1744.63,-109.128 1758.06,-109.128 1770.79,-109.128"/>
<polygon fill="midnightblue" stroke="midnightblue" points="1731.7,-105.628 1721.7,-109.128 1731.7,-112.628 1731.7,-105.628"/>
</g>
<!-- Node17 -->
<g id="node17" class="node"><title>Node17</title>
<g id="a_node17"><a xlink:href="../../d5/d56/class_workspace.html#a0ed8fb487512971086b6f3ed0d74e4ae" target="_top" xlink:title="Workspace.sendUserInput">
<polygon fill="white" stroke="black" points="1949,-57.6283 1949,-76.6283 2089,-76.6283 2089,-57.6283 1949,-57.6283"/>
<text text-anchor="middle" x="2019" y="-64.6283" font-family="Helvetica,sans-Serif" font-size="10.00">Workspace.sendUserInput</text>
</a>
</g>
</g>
<!-- Node10&#45;&gt;Node17 -->
<g id="edge16" class="edge"><title>Node10&#45;&gt;Node17</title>
<path fill="none" stroke="midnightblue" d="M1718.23,-97.4126C1731.14,-94.7092 1745.04,-92.0626 1758,-90.1283 1822.31,-80.5301 1896.22,-74.4655 1948.76,-70.9889"/>
<polygon fill="midnightblue" stroke="midnightblue" points="1717.18,-94.0595 1708.14,-99.5804 1718.65,-100.904 1717.18,-94.0595"/>
</g>
<!-- Node13 -->
<g id="node13" class="node"><title>Node13</title>
<g id="a_node13"><a xlink:href="../../d9/de8/class_file_chooser_feature.html#ad742b8e9d07e8151f0a9ff1972867ce8" target="_top" xlink:title="FileChooserFeature.openFile\lChooser">
<polygon fill="white" stroke="black" points="1944.5,-96.1283 1944.5,-126.128 2093.5,-126.128 2093.5,-96.1283 1944.5,-96.1283"/>
<text text-anchor="start" x="1952.5" y="-114.128" font-family="Helvetica,sans-Serif" font-size="10.00">FileChooserFeature.openFile</text>
<text text-anchor="middle" x="2019" y="-103.128" font-family="Helvetica,sans-Serif" font-size="10.00">Chooser</text>
</a>
</g>
</g>
<!-- Node12&#45;&gt;Node13 -->
<g id="edge12" class="edge"><title>Node12&#45;&gt;Node13</title>
<path fill="none" stroke="midnightblue" d="M1905.17,-109.902C1918.02,-110.042 1931.44,-110.187 1944.35,-110.328"/>
<polygon fill="midnightblue" stroke="midnightblue" points="1905.05,-106.4 1895.01,-109.791 1904.98,-113.4 1905.05,-106.4"/>
</g>
<!-- Node14 -->
<g id="node14" class="node"><title>Node14</title>
<g id="a_node14"><a xlink:href="../../d5/d56/class_workspace.html#a6babd032d9af86fbc23812272d59a2d2" target="_top" xlink:title="Workspace.addFeatureButtons">
<polygon fill="white" stroke="black" points="2130,-99.6283 2130,-118.628 2292,-118.628 2292,-99.6283 2130,-99.6283"/>
<text text-anchor="middle" x="2211" y="-106.628" font-family="Helvetica,sans-Serif" font-size="10.00">Workspace.addFeatureButtons</text>
</a>
</g>
</g>
<!-- Node13&#45;&gt;Node14 -->
<g id="edge13" class="edge"><title>Node13&#45;&gt;Node14</title>
<path fill="none" stroke="midnightblue" d="M2103.77,-110.247C2112.38,-110.156 2121.12,-110.064 2129.7,-109.974"/>
<polygon fill="midnightblue" stroke="midnightblue" points="2103.69,-106.747 2093.73,-110.352 2103.77,-113.747 2103.69,-106.747"/>
</g>
<!-- Node15 -->
<g id="node15" class="node"><title>Node15</title>
<g id="a_node15"><a xlink:href="../../d5/d56/class_workspace.html#a429d535dfd8427637b7715f0b1e1df1b" target="_top" xlink:title="Workspace.createWorkspace">
<polygon fill="white" stroke="black" points="2328,-79.6283 2328,-98.6283 2480,-98.6283 2480,-79.6283 2328,-79.6283"/>
<text text-anchor="middle" x="2404" y="-86.6283" font-family="Helvetica,sans-Serif" font-size="10.00">Workspace.createWorkspace</text>
</a>
</g>
</g>
<!-- Node14&#45;&gt;Node15 -->
<g id="edge14" class="edge"><title>Node14&#45;&gt;Node15</title>
<path fill="none" stroke="midnightblue" d="M2302.22,-99.6809C2310.82,-98.7804 2319.48,-97.874 2327.91,-96.9909"/>
<polygon fill="midnightblue" stroke="midnightblue" points="2301.75,-96.2109 2292.17,-100.733 2302.48,-103.173 2301.75,-96.2109"/>
</g>
<!-- Node16 -->
<g id="node16" class="node"><title>Node16</title>
<g id="a_node16"><a xlink:href="../../d0/d4b/class_main.html#aaa75b38812324d0f17c89f139bde6ada" target="_top" xlink:title="Main.start">
<polygon fill="white" stroke="black" points="2516.5,-79.6283 2516.5,-98.6283 2581.5,-98.6283 2581.5,-79.6283 2516.5,-79.6283"/>
<text text-anchor="middle" x="2549" y="-86.6283" font-family="Helvetica,sans-Serif" font-size="10.00">Main.start</text>
</a>
</g>
</g>
<!-- Node15&#45;&gt;Node16 -->
<g id="edge15" class="edge"><title>Node15&#45;&gt;Node16</title>
<path fill="none" stroke="midnightblue" d="M2490.39,-89.1283C2499.63,-89.1283 2508.55,-89.1283 2516.5,-89.1283"/>
<polygon fill="midnightblue" stroke="midnightblue" points="2490.27,-85.6284 2480.27,-89.1283 2490.27,-92.6284 2490.27,-85.6284"/>
</g>
<!-- Node17&#45;&gt;Node15 -->
<g id="edge17" class="edge"><title>Node17&#45;&gt;Node15</title>
<path fill="none" stroke="midnightblue" d="M2099.47,-71.6929C2166.6,-75.5494 2262.08,-81.0335 2327.94,-84.8165"/>
<polygon fill="midnightblue" stroke="midnightblue" points="2099.54,-68.1916 2089.36,-71.1123 2099.14,-75.1801 2099.54,-68.1916"/>
</g>
<!-- Node18&#45;&gt;Node7 -->
<g id="edge19" class="edge"><title>Node18&#45;&gt;Node7</title>
<path fill="none" stroke="midnightblue" d="M1202.2,-135.376C1226.52,-130.003 1254.95,-123.72 1277.91,-118.648"/>
<polygon fill="midnightblue" stroke="midnightblue" points="1201.41,-131.964 1192.4,-137.539 1202.92,-138.8 1201.41,-131.964"/>
</g>
<!-- Node19&#45;&gt;Node20 -->
<g id="edge24" class="edge"><title>Node19&#45;&gt;Node20</title>
<path fill="none" stroke="midnightblue" d="M544.604,-219.625C553.039,-218.624 561.601,-217.607 569.907,-216.621"/>
<polygon fill="midnightblue" stroke="midnightblue" points="543.92,-216.182 534.403,-220.837 544.746,-223.133 543.92,-216.182"/>
</g>
<!-- Node20&#45;&gt;Node5 -->
<g id="edge25" class="edge"><title>Node20&#45;&gt;Node5</title>
<path fill="none" stroke="midnightblue" d="M700.206,-197.805C715.747,-195.106 732.178,-192.253 747.198,-189.645"/>
<polygon fill="midnightblue" stroke="midnightblue" points="699.399,-194.393 690.145,-199.552 700.596,-201.29 699.399,-194.393"/>
</g>
<!-- Node21&#45;&gt;Node5 -->
<g id="edge29" class="edge"><title>Node21&#45;&gt;Node5</title>
<path fill="none" stroke="midnightblue" d="M375.476,-299.342C421.489,-295.516 481.561,-288.951 534,-278.128 608.628,-262.726 626.796,-255.269 698,-228.128 728.474,-216.513 762.585,-200.08 783.166,-189.77"/>
<polygon fill="midnightblue" stroke="midnightblue" points="374.973,-295.871 365.287,-300.164 375.536,-302.848 374.973,-295.871"/>
</g>
<!-- Node21&#45;&gt;Node6 -->
<g id="edge30" class="edge"><title>Node21&#45;&gt;Node6</title>
<path fill="none" stroke="midnightblue" d="M375.183,-307.109C421.087,-307.98 481.148,-307.361 534,-301.128 689.834,-282.751 728.896,-263.494 872,-199.128 901.51,-185.855 934.493,-167.608 953.682,-156.632"/>
<polygon fill="midnightblue" stroke="midnightblue" points="375.094,-303.607 365.02,-306.888 374.941,-310.605 375.094,-303.607"/>
</g>
<!-- Node21&#45;&gt;Node7 -->
<g id="edge31" class="edge"><title>Node21&#45;&gt;Node7</title>
<path fill="none" stroke="midnightblue" d="M361.755,-317.144C366.011,-318.897 370.139,-320.882 374,-323.128 393.832,-334.665 390.167,-348.593 410,-360.128 498.525,-411.614 530.591,-418.128 633,-418.128 633,-418.128 633,-418.128 972,-418.128 1157.32,-418.128 1290.36,-170.871 1316.36,-118.715"/>
<polygon fill="midnightblue" stroke="midnightblue" points="362.883,-313.83 352.29,-313.664 360.468,-320.4 362.883,-313.83"/>
</g>
<!-- Node21&#45;&gt;Node18 -->
<g id="edge33" class="edge"><title>Node21&#45;&gt;Node18</title>
<path fill="none" stroke="midnightblue" d="M348.259,-316.182C433.016,-337.615 604.697,-380.128 633,-380.128 633,-380.128 633,-380.128 804,-380.128 965.614,-380.128 1107.56,-200.94 1140.04,-156.843"/>
<polygon fill="midnightblue" stroke="midnightblue" points="348.923,-312.739 338.37,-313.677 347.204,-319.525 348.923,-312.739"/>
</g>
<!-- Node21&#45;&gt;Node19 -->
<g id="edge32" class="edge"><title>Node21&#45;&gt;Node19</title>
<path fill="none" stroke="midnightblue" d="M329.161,-290.023C351.024,-279.237 382.194,-264.213 410,-252.128 421.585,-247.093 434.592,-241.912 445.61,-237.659"/>
<polygon fill="midnightblue" stroke="midnightblue" points="327.513,-286.933 320.108,-294.51 330.622,-293.205 327.513,-286.933"/>
</g>
<!-- Node21&#45;&gt;Node20 -->
<g id="edge34" class="edge"><title>Node21&#45;&gt;Node20</title>
<path fill="none" stroke="midnightblue" d="M357.248,-292.464C404.783,-282.109 474.446,-265.76 534,-247.128 560.707,-238.773 590.601,-226.943 610.482,-218.71"/>
<polygon fill="midnightblue" stroke="midnightblue" points="356.486,-289.048 347.452,-294.581 357.965,-295.89 356.486,-289.048"/>
</g>
</g>
</svg>
        <g id="navigator" transform="translate(0 0)" fill="#404254">
                <rect fill="#f2f5e9" fill-opacity="0.5" stroke="#606060" stroke-width=".5" x="0" y="0" width="60" height="60"/>
                <use id="zoomplus" xlink:href="#zoomPlus" x="17" y="9" onmousedown="handleZoom(evt,'in')"/>
                <use id="zoomminus" xlink:href="#zoomMin" x="42" y="9" onmousedown="handleZoom(evt,'out')"/>
                <use id="reset" xlink:href="#resetDef" x="30" y="36" onmousedown="handleReset()"/>
                <g id="arrowUp" xlink:href="#dirArrow" transform="translate(30 24)" onmousedown="handlePan(0,-1)">
                  <use xlink:href="#rim" fill="#404040">
                        <set attributeName="fill" to="#808080" begin="arrowUp.mouseover" end="arrowUp.mouseout"/>
                  </use>
                  <path fill="none" stroke="white" stroke-width="1.5" d="M0,-3.0v7 M-2.5,-0.5L0,-3.0L2.5,-0.5"/>
                </g>
                <g id="arrowRight" xlink:href="#dirArrow" transform="rotate(90) translate(36 -43)" onmousedown="handlePan(1,0)">
                  <use xlink:href="#rim" fill="#404040">
                        <set attributeName="fill" to="#808080" begin="arrowRight.mouseover" end="arrowRight.mouseout"/>
                  </use>
                  <path fill="none" stroke="white" stroke-width="1.5" d="M0,-3.0v7 M-2.5,-0.5L0,-3.0L2.5,-0.5"/>
                </g>
                <g id="arrowDown" xlink:href="#dirArrow" transform="rotate(180) translate(-30 -48)" onmousedown="handlePan(0,1)">
                  <use xlink:href="#rim" fill="#404040">
                        <set attributeName="fill" to="#808080" begin="arrowDown.mouseover" end="arrowDown.mouseout"/>
                  </use>
                  <path fill="none" stroke="white" stroke-width="1.5" d="M0,-3.0v7 M-2.5,-0.5L0,-3.0L2.5,-0.5"/>
                </g>
                <g id="arrowLeft" xlink:href="#dirArrow" transform="rotate(270) translate(-36 17)" onmousedown="handlePan(-1,0)">
                  <use xlink:href="#rim" fill="#404040">
                        <set attributeName="fill" to="#808080" begin="arrowLeft.mouseover" end="arrowLeft.mouseout"/>
                  </use>
                  <path fill="none" stroke="white" stroke-width="1.5" d="M0,-3.0v7 M-2.5,-0.5L0,-3.0L2.5,-0.5"/>
                </g>
        </g>
        <svg viewBox="0 0 15 15" width="100%" height="30px" preserveAspectRatio="xMaxYMin meet">
         <g id="arrow_out" transform="scale(0.3 0.3)">
          <a xlink:href="classparser_1_1_logo_parser_token_manager_a3dee50e2286b70ba662519a865e63b77_icgraph_org.svg" target="_base">
           <rect id="button" ry="5" rx="5" y="6" x="6" height="38" width="38"
                fill="#f2f5e9" fill-opacity="0.5" stroke="#606060" stroke-width="1.0"/>
           <path id="arrow"
             d="M 11.500037,31.436501 C 11.940474,20.09759 22.043105,11.32322 32.158766,21.979434 L 37.068811,17.246167 C 37.068811,17.246167 37.088388,32 37.088388,32 L 22.160133,31.978069 C 22.160133,31.978069 26.997745,27.140456 26.997745,27.140456 C 18.528582,18.264221 13.291696,25.230495 11.500037,31.436501 z"
             style="fill:#404040;"/>
          </a>
         </g>
        </svg>
</svg>
