<?xml version="1.0" encoding="UTF-8" standalone="no"?>
<!DOCTYPE svg PUBLIC "-//W3C//DTD SVG 1.1//EN"
 "http://www.w3.org/Graphics/SVG/1.1/DTD/svg11.dtd">
<!-- Generated by graphviz version 2.36.0 (20140111.2315)
 -->
<!-- Title: parser.LogoParserTokenManager.jjStopAtPos Pages: 1 -->
<!--zoomable 426 -->
<svg id="main" version="1.1" xmlns="http://www.w3.org/2000/svg" xmlns:xlink="http://www.w3.org/1999/xlink" xml:space="preserve" onload="init(evt)">
<style type="text/css"><![CDATA[
.edge:hover path { stroke: red; }
.edge:hover polygon { stroke: red; fill: red; }
]]></style>
<script type="text/javascript"><![CDATA[
var edges = document.getElementsByTagName('g');
if (edges && edges.length) {
  for (var i=0;i<edges.length;i++) {
    if (edges[i].id.substr(0,4)=='edge') {
      edges[i].setAttribute('class','edge');
    }
  }
}
]]></script>
        <defs>
                <circle id="rim" cx="0" cy="0" r="7"/>
                <circle id="rim2" cx="0" cy="0" r="3.5"/>
                <g id="zoomPlus">
                        <use xlink:href="#rim" fill="#404040">
                                <set attributeName="fill" to="#808080" begin="zoomplus.mouseover" end="zoomplus.mouseout"/>
                        </use>
                        <path d="M-4,0h8M0,-4v8" fill="none" stroke="white" stroke-width="1.5" pointer-events="none"/>
                </g>
                <g id="zoomMin">
                        <use xlink:href="#rim" fill="#404040">
                                <set attributeName="fill" to="#808080" begin="zoomminus.mouseover" end="zoomminus.mouseout"/>
                        </use>
                        <path d="M-4,0h8" fill="none" stroke="white" stroke-width="1.5" pointer-events="none"/>
                </g>
                <g id="dirArrow">
                        <path fill="none" stroke="white" stroke-width="1.5" d="M0,-3.0v7 M-2.5,-0.5L0,-3.0L2.5,-0.5"/>
                </g>
               <g id="resetDef">
                       <use xlink:href="#rim2" fill="#404040">
                               <set attributeName="fill" to="#808080" begin="reset.mouseover" end="reset.mouseout"/>
                       </use>
               </g>
        </defs>

<script type="text/javascript">
var viewWidth = 3454;
var viewHeight = 426;
var sectionId = 'dynsection-33';
</script>
<script xlink:href="../../svgpan.js"/>
<svg id="graph" class="graph">
<g id="viewport">
<title>parser.LogoParserTokenManager.jjStopAtPos</title>
<polygon fill="white" stroke="none" points="-4,4 -4,-422.128 3450,-422.128 3450,4 -4,4"/>
<!-- Node1 -->
<g id="node1" class="node"><title>Node1</title>
<polygon fill="#bfbfbf" stroke="black" points="0.5,-308.128 0.5,-338.128 179.5,-338.128 179.5,-308.128 0.5,-308.128"/>
<text text-anchor="start" x="8.5" y="-326.128" font-family="Helvetica,sans-Serif" font-size="10.00">parser.LogoParserTokenManager.jj</text>
<text text-anchor="middle" x="90" y="-315.128" font-family="Helvetica,sans-Serif" font-size="10.00">StopAtPos</text>
</g>
<!-- Node2 -->
<g id="node2" class="node"><title>Node2</title>
<g id="a_node2"><a xlink:href="../../d0/d8c/classparser_1_1_logo_parser_token_manager.html#a2b55f093fc0200c57a099eba2d9b37e2" target="_top" xlink:title="parser.LogoParserTokenManager.jj\lMoveStringLiteralDfa0_0">
<polygon fill="white" stroke="black" points="648.5,-308.128 648.5,-338.128 827.5,-338.128 827.5,-308.128 648.5,-308.128"/>
<text text-anchor="start" x="656.5" y="-326.128" font-family="Helvetica,sans-Serif" font-size="10.00">parser.LogoParserTokenManager.jj</text>
<text text-anchor="middle" x="738" y="-315.128" font-family="Helvetica,sans-Serif" font-size="10.00">MoveStringLiteralDfa0_0</text>
</a>
</g>
</g>
<!-- Node1&#45;&gt;Node2 -->
<g id="edge1" class="edge"><title>Node1&#45;&gt;Node2</title>
<path fill="none" stroke="midnightblue" d="M189.776,-324.855C198.644,-324.966 207.485,-325.06 216,-325.128 391.994,-326.536 436.006,-326.536 612,-325.128 623.72,-325.035 636.057,-324.891 648.23,-324.724"/>
<polygon fill="midnightblue" stroke="midnightblue" points="189.815,-321.356 179.77,-324.724 189.723,-328.355 189.815,-321.356"/>
</g>
<!-- Node24 -->
<g id="node24" class="node"><title>Node24</title>
<g id="a_node24"><a xlink:href="../../d0/d8c/classparser_1_1_logo_parser_token_manager.html#a26eaeb3ef169f93c03edbb3e26128b7a" target="_top" xlink:title="parser.LogoParserTokenManager.jj\lMoveStringLiteralDfa2_0">
<polygon fill="white" stroke="black" points="216.5,-286.128 216.5,-316.128 395.5,-316.128 395.5,-286.128 216.5,-286.128"/>
<text text-anchor="start" x="224.5" y="-304.128" font-family="Helvetica,sans-Serif" font-size="10.00">parser.LogoParserTokenManager.jj</text>
<text text-anchor="middle" x="306" y="-293.128" font-family="Helvetica,sans-Serif" font-size="10.00">MoveStringLiteralDfa2_0</text>
</a>
</g>
</g>
<!-- Node1&#45;&gt;Node24 -->
<g id="edge37" class="edge"><title>Node1&#45;&gt;Node24</title>
<path fill="none" stroke="midnightblue" d="M189.645,-312.987C198.596,-312.067 207.625,-311.139 216.48,-310.229"/>
<polygon fill="midnightblue" stroke="midnightblue" points="189.176,-309.517 179.587,-314.021 189.892,-316.48 189.176,-309.517"/>
</g>
<!-- Node3 -->
<g id="node3" class="node"><title>Node3</title>
<g id="a_node3"><a xlink:href="../../d0/d8c/classparser_1_1_logo_parser_token_manager.html#a3dee50e2286b70ba662519a865e63b77" target="_top" xlink:title="parser.LogoParserTokenManager.get\lNextToken">
<polygon fill="white" stroke="black" points="864,-308.128 864,-338.128 1054,-338.128 1054,-308.128 864,-308.128"/>
<text text-anchor="start" x="872" y="-326.128" font-family="Helvetica,sans-Serif" font-size="10.00">parser.LogoParserTokenManager.get</text>
<text text-anchor="middle" x="959" y="-315.128" font-family="Helvetica,sans-Serif" font-size="10.00">NextToken</text>
</a>
</g>
</g>
<!-- Node2&#45;&gt;Node3 -->
<g id="edge2" class="edge"><title>Node2&#45;&gt;Node3</title>
<path fill="none" stroke="midnightblue" d="M837.831,-323.128C846.456,-323.128 855.17,-323.128 863.756,-323.128"/>
<polygon fill="midnightblue" stroke="midnightblue" points="837.76,-319.628 827.76,-323.128 837.76,-326.628 837.76,-319.628"/>
</g>
<!-- Node4 -->
<g id="node4" class="node"><title>Node4</title>
<g id="a_node4"><a xlink:href="../../d5/d0e/classparser_1_1_logo_parser.html#a7477b52c4469ea43d75f88fb805e37a1" target="_top" xlink:title="parser.LogoParser.getNext\lToken">
<polygon fill="white" stroke="black" points="1092.5,-371.128 1092.5,-401.128 1235.5,-401.128 1235.5,-371.128 1092.5,-371.128"/>
<text text-anchor="start" x="1100.5" y="-389.128" font-family="Helvetica,sans-Serif" font-size="10.00">parser.LogoParser.getNext</text>
<text text-anchor="middle" x="1164" y="-378.128" font-family="Helvetica,sans-Serif" font-size="10.00">Token</text>
</a>
</g>
</g>
<!-- Node3&#45;&gt;Node4 -->
<g id="edge3" class="edge"><title>Node3&#45;&gt;Node4</title>
<path fill="none" stroke="midnightblue" d="M1018.04,-341.142C1048.61,-350.629 1085.66,-362.127 1114.65,-371.124"/>
<polygon fill="midnightblue" stroke="midnightblue" points="1018.95,-337.76 1008.37,-338.138 1016.88,-344.445 1018.95,-337.76"/>
</g>
<!-- Node5 -->
<g id="node5" class="node"><title>Node5</title>
<g id="a_node5"><a xlink:href="../../d5/d0e/classparser_1_1_logo_parser.html#a63b7890a7d6323bcf938132f968e8157" target="_top" xlink:title="parser.LogoParser.getToken">
<polygon fill="white" stroke="black" points="1090,-332.628 1090,-351.628 1238,-351.628 1238,-332.628 1090,-332.628"/>
<text text-anchor="middle" x="1164" y="-339.628" font-family="Helvetica,sans-Serif" font-size="10.00">parser.LogoParser.getToken</text>
</a>
</g>
</g>
<!-- Node3&#45;&gt;Node5 -->
<g id="edge4" class="edge"><title>Node3&#45;&gt;Node5</title>
<path fill="none" stroke="midnightblue" d="M1064.24,-332.885C1072.91,-333.696 1081.54,-334.504 1089.9,-335.287"/>
<polygon fill="midnightblue" stroke="midnightblue" points="1064.35,-329.38 1054.07,-331.933 1063.7,-336.35 1064.35,-329.38"/>
</g>
<!-- Node6 -->
<g id="node6" class="node"><title>Node6</title>
<g id="a_node6"><a xlink:href="../../d5/d0e/classparser_1_1_logo_parser.html#a550039a3180ec86ef01f419aefc02edc" target="_top" xlink:title="parser.LogoParser.jj\l_consume_token">
<polygon fill="white" stroke="black" points="1109,-118.128 1109,-148.128 1219,-148.128 1219,-118.128 1109,-118.128"/>
<text text-anchor="start" x="1117" y="-136.128" font-family="Helvetica,sans-Serif" font-size="10.00">parser.LogoParser.jj</text>
<text text-anchor="middle" x="1164" y="-125.128" font-family="Helvetica,sans-Serif" font-size="10.00">_consume_token</text>
</a>
</g>
</g>
<!-- Node3&#45;&gt;Node6 -->
<g id="edge5" class="edge"><title>Node3&#45;&gt;Node6</title>
<path fill="none" stroke="midnightblue" d="M983.787,-300.864C1025.63,-261.703 1111.33,-181.49 1146.94,-148.164"/>
<polygon fill="midnightblue" stroke="midnightblue" points="981.178,-298.512 976.269,-307.901 985.962,-303.623 981.178,-298.512"/>
</g>
<!-- Node23 -->
<g id="node23" class="node"><title>Node23</title>
<g id="a_node23"><a xlink:href="../../d5/d0e/classparser_1_1_logo_parser.html#a2e48e3ab2c1c075beca7bcc54d891afd" target="_top" xlink:title="parser.LogoParser.jj_ntk">
<polygon fill="white" stroke="black" points="1099,-294.628 1099,-313.628 1229,-313.628 1229,-294.628 1099,-294.628"/>
<text text-anchor="middle" x="1164" y="-301.628" font-family="Helvetica,sans-Serif" font-size="10.00">parser.LogoParser.jj_ntk</text>
</a>
</g>
</g>
<!-- Node3&#45;&gt;Node23 -->
<g id="edge30" class="edge"><title>Node3&#45;&gt;Node23</title>
<path fill="none" stroke="midnightblue" d="M1064.38,-313.359C1076.12,-312.26 1087.8,-311.167 1098.81,-310.137"/>
<polygon fill="midnightblue" stroke="midnightblue" points="1063.7,-309.907 1054.07,-314.324 1064.35,-316.876 1063.7,-309.907"/>
</g>
<!-- Node7 -->
<g id="node7" class="node"><title>Node7</title>
<g id="a_node7"><a xlink:href="../../d5/d0e/classparser_1_1_logo_parser.html#a82acce8328e52f3b2bcb90542cc800b7" target="_top" xlink:title="parser.LogoParser.arithm">
<polygon fill="white" stroke="black" points="1598.5,-170.628 1598.5,-189.628 1735.5,-189.628 1735.5,-170.628 1598.5,-170.628"/>
<text text-anchor="middle" x="1667" y="-177.628" font-family="Helvetica,sans-Serif" font-size="10.00">parser.LogoParser.arithm</text>
</a>
</g>
</g>
<!-- Node6&#45;&gt;Node7 -->
<g id="edge6" class="edge"><title>Node6&#45;&gt;Node7</title>
<path fill="none" stroke="midnightblue" d="M1229.14,-139.145C1324.08,-148.052 1501.24,-164.672 1598.23,-173.771"/>
<polygon fill="midnightblue" stroke="midnightblue" points="1229.38,-135.652 1219.09,-138.203 1228.72,-142.622 1229.38,-135.652"/>
</g>
<!-- Node8 -->
<g id="node8" class="node"><title>Node8</title>
<g id="a_node8"><a xlink:href="../../d5/d0e/classparser_1_1_logo_parser.html#a397c25c39976e5a1fb689e1f0dd40160" target="_top" xlink:title="parser.LogoParser.eval">
<polygon fill="white" stroke="black" points="1772.5,-137.628 1772.5,-156.628 1897.5,-156.628 1897.5,-137.628 1772.5,-137.628"/>
<text text-anchor="middle" x="1835" y="-144.628" font-family="Helvetica,sans-Serif" font-size="10.00">parser.LogoParser.eval</text>
</a>
</g>
</g>
<!-- Node6&#45;&gt;Node8 -->
<g id="edge22" class="edge"><title>Node6&#45;&gt;Node8</title>
<path fill="none" stroke="midnightblue" d="M1229.27,-134.473C1357.9,-137.165 1645.46,-143.183 1772.1,-145.833"/>
<polygon fill="midnightblue" stroke="midnightblue" points="1229.25,-130.972 1219.18,-134.262 1229.1,-137.971 1229.25,-130.972"/>
</g>
<!-- Node9 -->
<g id="node9" class="node"><title>Node9</title>
<g id="a_node9"><a xlink:href="../../d5/d0e/classparser_1_1_logo_parser.html#a6b0ba0c2b5b0bc8c2ef76863fffdb6a3" target="_top" xlink:title="parser.LogoParser.list">
<polygon fill="white" stroke="black" points="2126.5,-99.6283 2126.5,-118.628 2245.5,-118.628 2245.5,-99.6283 2126.5,-99.6283"/>
<text text-anchor="middle" x="2186" y="-106.628" font-family="Helvetica,sans-Serif" font-size="10.00">parser.LogoParser.list</text>
</a>
</g>
</g>
<!-- Node6&#45;&gt;Node9 -->
<g id="edge24" class="edge"><title>Node6&#45;&gt;Node9</title>
<path fill="none" stroke="midnightblue" d="M1199.87,-113.211C1220.79,-102.026 1248.24,-88.6456 1274,-80.1283 1369.75,-48.4635 1396.15,-38.1283 1497,-38.1283 1497,-38.1283 1497,-38.1283 1836,-38.1283 1957.81,-38.1283 2098.82,-80.173 2157.34,-99.5529"/>
<polygon fill="midnightblue" stroke="midnightblue" points="1198.16,-110.159 1191.04,-118.009 1201.5,-116.309 1198.16,-110.159"/>
</g>
<!-- Node10 -->
<g id="node10" class="node"><title>Node10</title>
<g id="a_node10"><a xlink:href="../../d5/d0e/classparser_1_1_logo_parser.html#a4a8825534e0488215d22bcd947bc4d41" target="_top" xlink:title="parser.LogoParser.expression">
<polygon fill="white" stroke="black" points="2282.5,-26.6283 2282.5,-45.6283 2439.5,-45.6283 2439.5,-26.6283 2282.5,-26.6283"/>
<text text-anchor="middle" x="2361" y="-33.6283" font-family="Helvetica,sans-Serif" font-size="10.00">parser.LogoParser.expression</text>
</a>
</g>
</g>
<!-- Node6&#45;&gt;Node10 -->
<g id="edge23" class="edge"><title>Node6&#45;&gt;Node10</title>
<path fill="none" stroke="midnightblue" d="M1184.93,-110.568C1205.17,-89.1803 1238.51,-57.9001 1274,-41.1283 1365.11,1.92439 1396.23,-0.128293 1497,-0.128293 1497,-0.128293 1497,-0.128293 2013,-0.128293 2115.81,-0.128293 2234.85,-15.9569 2303.39,-26.6226"/>
<polygon fill="midnightblue" stroke="midnightblue" points="1182.32,-108.241 1178.09,-117.955 1187.45,-112.998 1182.32,-108.241"/>
</g>
<!-- Node20 -->
<g id="node20" class="node"><title>Node20</title>
<g id="a_node20"><a xlink:href="../../d5/d0e/classparser_1_1_logo_parser.html#ad6ed8e51959a6e19a2323444aa8331c8" target="_top" xlink:title="parser.LogoParser.statement">
<polygon fill="white" stroke="black" points="1934.5,-137.628 1934.5,-156.628 2089.5,-156.628 2089.5,-137.628 1934.5,-137.628"/>
<text text-anchor="middle" x="2012" y="-144.628" font-family="Helvetica,sans-Serif" font-size="10.00">parser.LogoParser.statement</text>
</a>
</g>
</g>
<!-- Node6&#45;&gt;Node20 -->
<g id="edge28" class="edge"><title>Node6&#45;&gt;Node20</title>
<path fill="none" stroke="midnightblue" d="M1228.76,-115.549C1295.19,-98.8025 1402.57,-76.1283 1497,-76.1283 1497,-76.1283 1497,-76.1283 1668,-76.1283 1787.8,-76.1283 1926.34,-118.173 1983.83,-137.553"/>
<polygon fill="midnightblue" stroke="midnightblue" points="1227.68,-112.212 1218.86,-118.078 1229.41,-118.994 1227.68,-112.212"/>
</g>
<!-- Node21 -->
<g id="node21" class="node"><title>Node21</title>
<g id="a_node21"><a xlink:href="../../d5/d0e/classparser_1_1_logo_parser.html#a4bdaeff6df067fde6743ff07370c3b0b" target="_top" xlink:title="parser.LogoParser.pow">
<polygon fill="white" stroke="black" points="1274,-218.628 1274,-237.628 1398,-237.628 1398,-218.628 1274,-218.628"/>
<text text-anchor="middle" x="1336" y="-225.628" font-family="Helvetica,sans-Serif" font-size="10.00">parser.LogoParser.pow</text>
</a>
</g>
</g>
<!-- Node6&#45;&gt;Node21 -->
<g id="edge25" class="edge"><title>Node6&#45;&gt;Node21</title>
<path fill="none" stroke="midnightblue" d="M1193.86,-154.242C1215.29,-169.334 1245.6,-189.482 1274,-204.128 1284.52,-209.553 1296.56,-214.531 1307.15,-218.53"/>
<polygon fill="midnightblue" stroke="midnightblue" points="1195.72,-151.266 1185.54,-148.319 1191.66,-156.969 1195.72,-151.266"/>
</g>
<!-- Node22 -->
<g id="node22" class="node"><title>Node22</title>
<g id="a_node22"><a xlink:href="../../d5/d0e/classparser_1_1_logo_parser.html#a34f4226672a2711ce2691162fdb2124d" target="_top" xlink:title="parser.LogoParser.term">
<polygon fill="white" stroke="black" points="1434,-199.628 1434,-218.628 1562,-218.628 1562,-199.628 1434,-199.628"/>
<text text-anchor="middle" x="1498" y="-206.628" font-family="Helvetica,sans-Serif" font-size="10.00">parser.LogoParser.term</text>
</a>
</g>
</g>
<!-- Node6&#45;&gt;Node22 -->
<g id="edge29" class="edge"><title>Node6&#45;&gt;Node22</title>
<path fill="none" stroke="midnightblue" d="M1220.64,-151.185C1237.66,-156.381 1256.51,-161.807 1274,-166.128 1329.5,-179.842 1393.67,-191.816 1438.89,-199.621"/>
<polygon fill="midnightblue" stroke="midnightblue" points="1221.44,-147.768 1210.85,-148.162 1219.37,-154.457 1221.44,-147.768"/>
</g>
<!-- Node7&#45;&gt;Node8 -->
<g id="edge7" class="edge"><title>Node7&#45;&gt;Node8</title>
<path fill="none" stroke="midnightblue" d="M1726.06,-168.586C1745.68,-164.686 1767.35,-160.378 1786.09,-156.652"/>
<polygon fill="midnightblue" stroke="midnightblue" points="1725.14,-165.201 1716.01,-170.583 1726.5,-172.066 1725.14,-165.201"/>
</g>
<!-- Node8&#45;&gt;Node9 -->
<g id="edge8" class="edge"><title>Node8&#45;&gt;Node9</title>
<path fill="none" stroke="midnightblue" d="M1889.06,-135.677C1903.58,-132.863 1919.35,-130.097 1934,-128.128 1999.62,-119.314 2075.48,-114.278 2126.47,-111.635"/>
<polygon fill="midnightblue" stroke="midnightblue" points="1888.37,-132.246 1879.24,-137.624 1889.73,-139.112 1888.37,-132.246"/>
</g>
<!-- Node8&#45;&gt;Node20 -->
<g id="edge20" class="edge"><title>Node8&#45;&gt;Node20</title>
<path fill="none" stroke="midnightblue" d="M1907.8,-147.128C1916.51,-147.128 1925.44,-147.128 1934.22,-147.128"/>
<polygon fill="midnightblue" stroke="midnightblue" points="1907.7,-143.628 1897.7,-147.128 1907.7,-150.628 1907.7,-143.628"/>
</g>
<!-- Node9&#45;&gt;Node10 -->
<g id="edge9" class="edge"><title>Node9&#45;&gt;Node10</title>
<path fill="none" stroke="midnightblue" d="M2219.2,-95.5422C2253.58,-81.0317 2307.2,-58.4088 2337.38,-45.6741"/>
<polygon fill="midnightblue" stroke="midnightblue" points="2217.47,-92.4724 2209.62,-99.5848 2220.19,-98.9217 2217.47,-92.4724"/>
</g>
<!-- Node11 -->
<g id="node11" class="node"><title>Node11</title>
<g id="a_node11"><a xlink:href="../../d5/d0e/classparser_1_1_logo_parser.html#adefe3b97ad0d2d7fd0dcd13f7ef2c75e" target="_top" xlink:title="parser.LogoParser.parse">
<polygon fill="white" stroke="black" points="2295,-99.6283 2295,-118.628 2427,-118.628 2427,-99.6283 2295,-99.6283"/>
<text text-anchor="middle" x="2361" y="-106.628" font-family="Helvetica,sans-Serif" font-size="10.00">parser.LogoParser.parse</text>
</a>
</g>
</g>
<!-- Node9&#45;&gt;Node11 -->
<g id="edge10" class="edge"><title>Node9&#45;&gt;Node11</title>
<path fill="none" stroke="midnightblue" d="M2255.78,-109.128C2268.7,-109.128 2282.16,-109.128 2294.95,-109.128"/>
<polygon fill="midnightblue" stroke="midnightblue" points="2255.57,-105.628 2245.57,-109.128 2255.57,-112.628 2255.57,-105.628"/>
</g>
<!-- Node12 -->
<g id="node12" class="node"><title>Node12</title>
<g id="a_node12"><a xlink:href="../../d6/d95/classparser_1_1_parser.html#af3d0cef45b9f02f1707959c08d8f3797" target="_top" xlink:title="parser.Parser.parse">
<polygon fill="white" stroke="black" points="2476.5,-99.6283 2476.5,-118.628 2585.5,-118.628 2585.5,-99.6283 2476.5,-99.6283"/>
<text text-anchor="middle" x="2531" y="-106.628" font-family="Helvetica,sans-Serif" font-size="10.00">parser.Parser.parse</text>
</a>
</g>
</g>
<!-- Node11&#45;&gt;Node12 -->
<g id="edge11" class="edge"><title>Node11&#45;&gt;Node12</title>
<path fill="none" stroke="midnightblue" d="M2437.8,-109.128C2450.83,-109.128 2464.12,-109.128 2476.41,-109.128"/>
<polygon fill="midnightblue" stroke="midnightblue" points="2437.43,-105.628 2427.43,-109.128 2437.43,-112.628 2437.43,-105.628"/>
</g>
<!-- Node13 -->
<g id="node13" class="node"><title>Node13</title>
<g id="a_node13"><a xlink:href="../../d4/d06/classinput_1_1_input_executor.html#a687a9f2cbed5d27a2c7b1336a1cab8aa" target="_top" xlink:title="input.InputExecutor.process\lInput">
<polygon fill="white" stroke="black" points="2622.5,-138.128 2622.5,-168.128 2771.5,-168.128 2771.5,-138.128 2622.5,-138.128"/>
<text text-anchor="start" x="2630.5" y="-156.128" font-family="Helvetica,sans-Serif" font-size="10.00">input.InputExecutor.process</text>
<text text-anchor="middle" x="2697" y="-145.128" font-family="Helvetica,sans-Serif" font-size="10.00">Input</text>
</a>
</g>
</g>
<!-- Node12&#45;&gt;Node13 -->
<g id="edge12" class="edge"><title>Node12&#45;&gt;Node13</title>
<path fill="none" stroke="midnightblue" d="M2577.36,-121.297C2596.7,-126.486 2619.46,-132.593 2639.85,-138.063"/>
<polygon fill="midnightblue" stroke="midnightblue" points="2578.15,-117.887 2567.59,-118.676 2576.34,-124.647 2578.15,-117.887"/>
</g>
<!-- Node14 -->
<g id="node14" class="node"><title>Node14</title>
<g id="a_node14"><a xlink:href="../../d6/d95/classparser_1_1_parser.html#ae90f8410be9931ec3f349085c8fdae71" target="_top" xlink:title="parser.Parser.parseFile">
<polygon fill="white" stroke="black" points="2635,-99.6283 2635,-118.628 2759,-118.628 2759,-99.6283 2635,-99.6283"/>
<text text-anchor="middle" x="2697" y="-106.628" font-family="Helvetica,sans-Serif" font-size="10.00">parser.Parser.parseFile</text>
</a>
</g>
</g>
<!-- Node12&#45;&gt;Node14 -->
<g id="edge13" class="edge"><title>Node12&#45;&gt;Node14</title>
<path fill="none" stroke="midnightblue" d="M2595.82,-109.128C2608.63,-109.128 2622.06,-109.128 2634.79,-109.128"/>
<polygon fill="midnightblue" stroke="midnightblue" points="2595.7,-105.628 2585.7,-109.128 2595.7,-112.628 2595.7,-105.628"/>
</g>
<!-- Node19 -->
<g id="node19" class="node"><title>Node19</title>
<g id="a_node19"><a xlink:href="../../d5/d56/class_workspace.html#a0ed8fb487512971086b6f3ed0d74e4ae" target="_top" xlink:title="Workspace.sendUserInput">
<polygon fill="white" stroke="black" points="2813,-57.6283 2813,-76.6283 2953,-76.6283 2953,-57.6283 2813,-57.6283"/>
<text text-anchor="middle" x="2883" y="-64.6283" font-family="Helvetica,sans-Serif" font-size="10.00">Workspace.sendUserInput</text>
</a>
</g>
</g>
<!-- Node12&#45;&gt;Node19 -->
<g id="edge18" class="edge"><title>Node12&#45;&gt;Node19</title>
<path fill="none" stroke="midnightblue" d="M2582.23,-97.4126C2595.14,-94.7092 2609.04,-92.0626 2622,-90.1283 2686.31,-80.5301 2760.22,-74.4655 2812.76,-70.9889"/>
<polygon fill="midnightblue" stroke="midnightblue" points="2581.18,-94.0595 2572.14,-99.5804 2582.65,-100.904 2581.18,-94.0595"/>
</g>
<!-- Node15 -->
<g id="node15" class="node"><title>Node15</title>
<g id="a_node15"><a xlink:href="../../d9/de8/class_file_chooser_feature.html#ad742b8e9d07e8151f0a9ff1972867ce8" target="_top" xlink:title="FileChooserFeature.openFile\lChooser">
<polygon fill="white" stroke="black" points="2808.5,-96.1283 2808.5,-126.128 2957.5,-126.128 2957.5,-96.1283 2808.5,-96.1283"/>
<text text-anchor="start" x="2816.5" y="-114.128" font-family="Helvetica,sans-Serif" font-size="10.00">FileChooserFeature.openFile</text>
<text text-anchor="middle" x="2883" y="-103.128" font-family="Helvetica,sans-Serif" font-size="10.00">Chooser</text>
</a>
</g>
</g>
<!-- Node14&#45;&gt;Node15 -->
<g id="edge14" class="edge"><title>Node14&#45;&gt;Node15</title>
<path fill="none" stroke="midnightblue" d="M2769.17,-109.902C2782.02,-110.042 2795.44,-110.187 2808.35,-110.328"/>
<polygon fill="midnightblue" stroke="midnightblue" points="2769.05,-106.4 2759.01,-109.791 2768.98,-113.4 2769.05,-106.4"/>
</g>
<!-- Node16 -->
<g id="node16" class="node"><title>Node16</title>
<g id="a_node16"><a xlink:href="../../d5/d56/class_workspace.html#a6babd032d9af86fbc23812272d59a2d2" target="_top" xlink:title="Workspace.addFeatureButtons">
<polygon fill="white" stroke="black" points="2994,-99.6283 2994,-118.628 3156,-118.628 3156,-99.6283 2994,-99.6283"/>
<text text-anchor="middle" x="3075" y="-106.628" font-family="Helvetica,sans-Serif" font-size="10.00">Workspace.addFeatureButtons</text>
</a>
</g>
</g>
<!-- Node15&#45;&gt;Node16 -->
<g id="edge15" class="edge"><title>Node15&#45;&gt;Node16</title>
<path fill="none" stroke="midnightblue" d="M2967.77,-110.247C2976.38,-110.156 2985.12,-110.064 2993.7,-109.974"/>
<polygon fill="midnightblue" stroke="midnightblue" points="2967.69,-106.747 2957.73,-110.352 2967.77,-113.747 2967.69,-106.747"/>
</g>
<!-- Node17 -->
<g id="node17" class="node"><title>Node17</title>
<g id="a_node17"><a xlink:href="../../d5/d56/class_workspace.html#a429d535dfd8427637b7715f0b1e1df1b" target="_top" xlink:title="Workspace.createWorkspace">
<polygon fill="white" stroke="black" points="3192,-79.6283 3192,-98.6283 3344,-98.6283 3344,-79.6283 3192,-79.6283"/>
<text text-anchor="middle" x="3268" y="-86.6283" font-family="Helvetica,sans-Serif" font-size="10.00">Workspace.createWorkspace</text>
</a>
</g>
</g>
<!-- Node16&#45;&gt;Node17 -->
<g id="edge16" class="edge"><title>Node16&#45;&gt;Node17</title>
<path fill="none" stroke="midnightblue" d="M3166.22,-99.6809C3174.82,-98.7804 3183.48,-97.874 3191.91,-96.9909"/>
<polygon fill="midnightblue" stroke="midnightblue" points="3165.75,-96.2109 3156.17,-100.733 3166.48,-103.173 3165.75,-96.2109"/>
</g>
<!-- Node18 -->
<g id="node18" class="node"><title>Node18</title>
<g id="a_node18"><a xlink:href="../../d0/d4b/class_main.html#aaa75b38812324d0f17c89f139bde6ada" target="_top" xlink:title="Main.start">
<polygon fill="white" stroke="black" points="3380.5,-79.6283 3380.5,-98.6283 3445.5,-98.6283 3445.5,-79.6283 3380.5,-79.6283"/>
<text text-anchor="middle" x="3413" y="-86.6283" font-family="Helvetica,sans-Serif" font-size="10.00">Main.start</text>
</a>
</g>
</g>
<!-- Node17&#45;&gt;Node18 -->
<g id="edge17" class="edge"><title>Node17&#45;&gt;Node18</title>
<path fill="none" stroke="midnightblue" d="M3354.39,-89.1283C3363.63,-89.1283 3372.55,-89.1283 3380.5,-89.1283"/>
<polygon fill="midnightblue" stroke="midnightblue" points="3354.27,-85.6284 3344.27,-89.1283 3354.27,-92.6284 3354.27,-85.6284"/>
</g>
<!-- Node19&#45;&gt;Node17 -->
<g id="edge19" class="edge"><title>Node19&#45;&gt;Node17</title>
<path fill="none" stroke="midnightblue" d="M2963.47,-71.6929C3030.6,-75.5494 3126.08,-81.0335 3191.94,-84.8165"/>
<polygon fill="midnightblue" stroke="midnightblue" points="2963.54,-68.1916 2953.36,-71.1123 2963.14,-75.1801 2963.54,-68.1916"/>
</g>
<!-- Node20&#45;&gt;Node9 -->
<g id="edge21" class="edge"><title>Node20&#45;&gt;Node9</title>
<path fill="none" stroke="midnightblue" d="M2066.2,-135.376C2090.52,-130.003 2118.95,-123.72 2141.91,-118.648"/>
<polygon fill="midnightblue" stroke="midnightblue" points="2065.41,-131.964 2056.4,-137.539 2066.92,-138.8 2065.41,-131.964"/>
</g>
<!-- Node21&#45;&gt;Node22 -->
<g id="edge26" class="edge"><title>Node21&#45;&gt;Node22</title>
<path fill="none" stroke="midnightblue" d="M1408.6,-219.625C1417.04,-218.624 1425.6,-217.607 1433.91,-216.621"/>
<polygon fill="midnightblue" stroke="midnightblue" points="1407.92,-216.182 1398.4,-220.837 1408.75,-223.133 1407.92,-216.182"/>
</g>
<!-- Node22&#45;&gt;Node7 -->
<g id="edge27" class="edge"><title>Node22&#45;&gt;Node7</title>
<path fill="none" stroke="midnightblue" d="M1564.21,-197.805C1579.75,-195.106 1596.18,-192.253 1611.2,-189.645"/>
<polygon fill="midnightblue" stroke="midnightblue" points="1563.4,-194.393 1554.14,-199.552 1564.6,-201.29 1563.4,-194.393"/>
</g>
<!-- Node23&#45;&gt;Node7 -->
<g id="edge31" class="edge"><title>Node23&#45;&gt;Node7</title>
<path fill="none" stroke="midnightblue" d="M1239.48,-299.342C1285.49,-295.516 1345.56,-288.951 1398,-278.128 1472.63,-262.726 1490.8,-255.269 1562,-228.128 1592.47,-216.513 1626.58,-200.08 1647.17,-189.77"/>
<polygon fill="midnightblue" stroke="midnightblue" points="1238.97,-295.871 1229.29,-300.164 1239.54,-302.848 1238.97,-295.871"/>
</g>
<!-- Node23&#45;&gt;Node8 -->
<g id="edge32" class="edge"><title>Node23&#45;&gt;Node8</title>
<path fill="none" stroke="midnightblue" d="M1239.18,-307.109C1285.09,-307.98 1345.15,-307.361 1398,-301.128 1553.83,-282.751 1592.9,-263.494 1736,-199.128 1765.51,-185.855 1798.49,-167.608 1817.68,-156.632"/>
<polygon fill="midnightblue" stroke="midnightblue" points="1239.09,-303.607 1229.02,-306.888 1238.94,-310.605 1239.09,-303.607"/>
</g>
<!-- Node23&#45;&gt;Node9 -->
<g id="edge33" class="edge"><title>Node23&#45;&gt;Node9</title>
<path fill="none" stroke="midnightblue" d="M1226.34,-317.318C1230.39,-319.028 1234.32,-320.955 1238,-323.128 1258.03,-334.96 1253.94,-349.341 1274,-361.128 1362.19,-412.961 1394.7,-418.128 1497,-418.128 1497,-418.128 1497,-418.128 1836,-418.128 2021.32,-418.128 2154.36,-170.871 2180.36,-118.715"/>
<polygon fill="midnightblue" stroke="midnightblue" points="1227.31,-313.944 1216.72,-313.712 1224.86,-320.499 1227.31,-313.944"/>
</g>
<!-- Node23&#45;&gt;Node20 -->
<g id="edge35" class="edge"><title>Node23&#45;&gt;Node20</title>
<path fill="none" stroke="midnightblue" d="M1212.26,-316.182C1297.02,-337.615 1468.7,-380.128 1497,-380.128 1497,-380.128 1497,-380.128 1668,-380.128 1829.61,-380.128 1971.56,-200.94 2004.04,-156.843"/>
<polygon fill="midnightblue" stroke="midnightblue" points="1212.92,-312.739 1202.37,-313.677 1211.2,-319.525 1212.92,-312.739"/>
</g>
<!-- Node23&#45;&gt;Node21 -->
<g id="edge34" class="edge"><title>Node23&#45;&gt;Node21</title>
<path fill="none" stroke="midnightblue" d="M1193.16,-290.023C1215.02,-279.237 1246.19,-264.213 1274,-252.128 1285.59,-247.093 1298.59,-241.912 1309.61,-237.659"/>
<polygon fill="midnightblue" stroke="midnightblue" points="1191.51,-286.933 1184.11,-294.51 1194.62,-293.205 1191.51,-286.933"/>
</g>
<!-- Node23&#45;&gt;Node22 -->
<g id="edge36" class="edge"><title>Node23&#45;&gt;Node22</title>
<path fill="none" stroke="midnightblue" d="M1221.25,-292.464C1268.78,-282.109 1338.45,-265.76 1398,-247.128 1424.71,-238.773 1454.6,-226.943 1474.48,-218.71"/>
<polygon fill="midnightblue" stroke="midnightblue" points="1220.49,-289.048 1211.45,-294.581 1221.97,-295.89 1220.49,-289.048"/>
</g>
<!-- Node25 -->
<g id="node25" class="node"><title>Node25</title>
<g id="a_node25"><a xlink:href="../../d0/d8c/classparser_1_1_logo_parser_token_manager.html#a99a01f0b68908e628349e9f09a2cbccd" target="_top" xlink:title="parser.LogoParserTokenManager.jj\lMoveStringLiteralDfa1_0">
<polygon fill="white" stroke="black" points="432.5,-286.128 432.5,-316.128 611.5,-316.128 611.5,-286.128 432.5,-286.128"/>
<text text-anchor="start" x="440.5" y="-304.128" font-family="Helvetica,sans-Serif" font-size="10.00">parser.LogoParserTokenManager.jj</text>
<text text-anchor="middle" x="522" y="-293.128" font-family="Helvetica,sans-Serif" font-size="10.00">MoveStringLiteralDfa1_0</text>
</a>
</g>
</g>
<!-- Node24&#45;&gt;Node25 -->
<g id="edge38" class="edge"><title>Node24&#45;&gt;Node25</title>
<path fill="none" stroke="midnightblue" d="M405.645,-301.128C414.596,-301.128 423.625,-301.128 432.48,-301.128"/>
<polygon fill="midnightblue" stroke="midnightblue" points="405.587,-297.628 395.587,-301.128 405.587,-304.628 405.587,-297.628"/>
</g>
<!-- Node25&#45;&gt;Node2 -->
<g id="edge39" class="edge"><title>Node25&#45;&gt;Node2</title>
<path fill="none" stroke="midnightblue" d="M621.645,-311.269C630.596,-312.19 639.625,-313.118 648.48,-314.028"/>
<polygon fill="midnightblue" stroke="midnightblue" points="621.892,-307.776 611.587,-310.235 621.176,-314.74 621.892,-307.776"/>
</g>
</g>
</svg>
        <g id="navigator" transform="translate(0 0)" fill="#404254">
                <rect fill="#f2f5e9" fill-opacity="0.5" stroke="#606060" stroke-width=".5" x="0" y="0" width="60" height="60"/>
                <use id="zoomplus" xlink:href="#zoomPlus" x="17" y="9" onmousedown="handleZoom(evt,'in')"/>
                <use id="zoomminus" xlink:href="#zoomMin" x="42" y="9" onmousedown="handleZoom(evt,'out')"/>
                <use id="reset" xlink:href="#resetDef" x="30" y="36" onmousedown="handleReset()"/>
                <g id="arrowUp" xlink:href="#dirArrow" transform="translate(30 24)" onmousedown="handlePan(0,-1)">
                  <use xlink:href="#rim" fill="#404040">
                        <set attributeName="fill" to="#808080" begin="arrowUp.mouseover" end="arrowUp.mouseout"/>
                  </use>
                  <path fill="none" stroke="white" stroke-width="1.5" d="M0,-3.0v7 M-2.5,-0.5L0,-3.0L2.5,-0.5"/>
                </g>
                <g id="arrowRight" xlink:href="#dirArrow" transform="rotate(90) translate(36 -43)" onmousedown="handlePan(1,0)">
                  <use xlink:href="#rim" fill="#404040">
                        <set attributeName="fill" to="#808080" begin="arrowRight.mouseover" end="arrowRight.mouseout"/>
                  </use>
                  <path fill="none" stroke="white" stroke-width="1.5" d="M0,-3.0v7 M-2.5,-0.5L0,-3.0L2.5,-0.5"/>
                </g>
                <g id="arrowDown" xlink:href="#dirArrow" transform="rotate(180) translate(-30 -48)" onmousedown="handlePan(0,1)">
                  <use xlink:href="#rim" fill="#404040">
                        <set attributeName="fill" to="#808080" begin="arrowDown.mouseover" end="arrowDown.mouseout"/>
                  </use>
                  <path fill="none" stroke="white" stroke-width="1.5" d="M0,-3.0v7 M-2.5,-0.5L0,-3.0L2.5,-0.5"/>
                </g>
                <g id="arrowLeft" xlink:href="#dirArrow" transform="rotate(270) translate(-36 17)" onmousedown="handlePan(-1,0)">
                  <use xlink:href="#rim" fill="#404040">
                        <set attributeName="fill" to="#808080" begin="arrowLeft.mouseover" end="arrowLeft.mouseout"/>
                  </use>
                  <path fill="none" stroke="white" stroke-width="1.5" d="M0,-3.0v7 M-2.5,-0.5L0,-3.0L2.5,-0.5"/>
                </g>
        </g>
        <svg viewBox="0 0 15 15" width="100%" height="30px" preserveAspectRatio="xMaxYMin meet">
         <g id="arrow_out" transform="scale(0.3 0.3)">
          <a xlink:href="classparser_1_1_logo_parser_token_manager_ab983b76c64f4c06ba9c5469d87e6eddd_icgraph_org.svg" target="_base">
           <rect id="button" ry="5" rx="5" y="6" x="6" height="38" width="38"
                fill="#f2f5e9" fill-opacity="0.5" stroke="#606060" stroke-width="1.0"/>
           <path id="arrow"
             d="M 11.500037,31.436501 C 11.940474,20.09759 22.043105,11.32322 32.158766,21.979434 L 37.068811,17.246167 C 37.068811,17.246167 37.088388,32 37.088388,32 L 22.160133,31.978069 C 22.160133,31.978069 26.997745,27.140456 26.997745,27.140456 C 18.528582,18.264221 13.291696,25.230495 11.500037,31.436501 z"
             style="fill:#404040;"/>
          </a>
         </g>
        </svg>
</svg>
