<?xml version="1.0" encoding="UTF-8" standalone="no"?>
<!DOCTYPE svg PUBLIC "-//W3C//DTD SVG 1.1//EN"
 "http://www.w3.org/Graphics/SVG/1.1/DTD/svg11.dtd">
<!-- Generated by graphviz version 2.36.0 (20140111.2315)
 -->
<!-- Title: MovementAndImageAPI.src.TurtleHandler.updateImage Pages: 1 -->
<!--zoomable 60 -->
<svg id="main" version="1.1" xmlns="http://www.w3.org/2000/svg" xmlns:xlink="http://www.w3.org/1999/xlink" xml:space="preserve" onload="init(evt)">
<style type="text/css"><![CDATA[
.edge:hover path { stroke: red; }
.edge:hover polygon { stroke: red; fill: red; }
]]></style>
<script type="text/javascript"><![CDATA[
var edges = document.getElementsByTagName('g');
if (edges && edges.length) {
  for (var i=0;i<edges.length;i++) {
    if (edges[i].id.substr(0,4)=='edge') {
      edges[i].setAttribute('class','edge');
    }
  }
}
]]></script>
        <defs>
                <circle id="rim" cx="0" cy="0" r="7"/>
                <circle id="rim2" cx="0" cy="0" r="3.5"/>
                <g id="zoomPlus">
                        <use xlink:href="#rim" fill="#404040">
                                <set attributeName="fill" to="#808080" begin="zoomplus.mouseover" end="zoomplus.mouseout"/>
                        </use>
                        <path d="M-4,0h8M0,-4v8" fill="none" stroke="white" stroke-width="1.5" pointer-events="none"/>
                </g>
                <g id="zoomMin">
                        <use xlink:href="#rim" fill="#404040">
                                <set attributeName="fill" to="#808080" begin="zoomminus.mouseover" end="zoomminus.mouseout"/>
                        </use>
                        <path d="M-4,0h8" fill="none" stroke="white" stroke-width="1.5" pointer-events="none"/>
                </g>
                <g id="dirArrow">
                        <path fill="none" stroke="white" stroke-width="1.5" d="M0,-3.0v7 M-2.5,-0.5L0,-3.0L2.5,-0.5"/>
                </g>
               <g id="resetDef">
                       <use xlink:href="#rim2" fill="#404040">
                               <set attributeName="fill" to="#808080" begin="reset.mouseover" end="reset.mouseout"/>
                       </use>
               </g>
        </defs>

<script type="text/javascript">
var viewWidth = 830;
var viewHeight = 60;
var sectionId = 'dynsection-21';
</script>
<script xlink:href="../../svgpan.js"/>
<svg id="graph" class="graph">
<g id="viewport">
<title>MovementAndImageAPI.src.TurtleHandler.updateImage</title>
<polygon fill="white" stroke="none" points="-4,4 -4,-56 826,-56 826,4 -4,4"/>
<!-- Node1 -->
<g id="node1" class="node"><title>Node1</title>
<polygon fill="#bfbfbf" stroke="black" points="0,-22 0,-52 152,-52 152,-22 0,-22"/>
<text text-anchor="start" x="8" y="-40" font-family="Helvetica,sans-Serif" font-size="10.00">MovementAndImageAPI.src.</text>
<text text-anchor="middle" x="76" y="-29" font-family="Helvetica,sans-Serif" font-size="10.00">TurtleHandler.updateImage</text>
</g>
<!-- Node2 -->
<g id="node2" class="node"><title>Node2</title>
<g id="a_node2"><a xlink:href="../../d5/d56/class_workspace.html#a429d535dfd8427637b7715f0b1e1df1b" target="_top" xlink:title="Workspace.createWorkspace">
<polygon fill="white" stroke="black" points="568,-28.5 568,-47.5 720,-47.5 720,-28.5 568,-28.5"/>
<text text-anchor="middle" x="644" y="-35.5" font-family="Helvetica,sans-Serif" font-size="10.00">Workspace.createWorkspace</text>
</a>
</g>
</g>
<!-- Node1&#45;&gt;Node2 -->
<g id="edge1" class="edge"><title>Node1&#45;&gt;Node2</title>
<path fill="none" stroke="midnightblue" d="M162.37,-38.6935C171.027,-38.8187 179.688,-38.9251 188,-39 321.691,-40.2043 477.486,-39.3791 567.722,-38.6815"/>
<polygon fill="midnightblue" stroke="midnightblue" points="162.283,-35.1919 152.23,-38.5387 162.176,-42.1911 162.283,-35.1919"/>
</g>
<!-- Node4 -->
<g id="node4" class="node"><title>Node4</title>
<g id="a_node4"><a xlink:href="../../d7/daa/class_turtle_chooser_feature.html#a46a2a59cd3e594dff7798d6a31cb5c9c" target="_top" xlink:title="TurtleChooserFeature.open\lTurtleChooser">
<polygon fill="white" stroke="black" points="188.5,-0 188.5,-30 333.5,-30 333.5,-0 188.5,-0"/>
<text text-anchor="start" x="196.5" y="-18" font-family="Helvetica,sans-Serif" font-size="10.00">TurtleChooserFeature.open</text>
<text text-anchor="middle" x="261" y="-7" font-family="Helvetica,sans-Serif" font-size="10.00">TurtleChooser</text>
</a>
</g>
</g>
<!-- Node1&#45;&gt;Node4 -->
<g id="edge3" class="edge"><title>Node1&#45;&gt;Node4</title>
<path fill="none" stroke="midnightblue" d="M162.362,-26.738C171.041,-25.6945 179.795,-24.6422 188.308,-23.6187"/>
<polygon fill="midnightblue" stroke="midnightblue" points="161.736,-23.2879 152.225,-27.9565 162.572,-30.2378 161.736,-23.2879"/>
</g>
<!-- Node3 -->
<g id="node3" class="node"><title>Node3</title>
<g id="a_node3"><a xlink:href="../../d0/d4b/class_main.html#aaa75b38812324d0f17c89f139bde6ada" target="_top" xlink:title="Main.start">
<polygon fill="white" stroke="black" points="756.5,-28.5 756.5,-47.5 821.5,-47.5 821.5,-28.5 756.5,-28.5"/>
<text text-anchor="middle" x="789" y="-35.5" font-family="Helvetica,sans-Serif" font-size="10.00">Main.start</text>
</a>
</g>
</g>
<!-- Node2&#45;&gt;Node3 -->
<g id="edge2" class="edge"><title>Node2&#45;&gt;Node3</title>
<path fill="none" stroke="midnightblue" d="M730.392,-38C739.632,-38 748.551,-38 756.498,-38"/>
<polygon fill="midnightblue" stroke="midnightblue" points="730.269,-34.5001 720.269,-38 730.269,-41.5001 730.269,-34.5001"/>
</g>
<!-- Node5 -->
<g id="node5" class="node"><title>Node5</title>
<g id="a_node5"><a xlink:href="../../d5/d56/class_workspace.html#a6babd032d9af86fbc23812272d59a2d2" target="_top" xlink:title="Workspace.addFeatureButtons">
<polygon fill="white" stroke="black" points="370,-8.5 370,-27.5 532,-27.5 532,-8.5 370,-8.5"/>
<text text-anchor="middle" x="451" y="-15.5" font-family="Helvetica,sans-Serif" font-size="10.00">Workspace.addFeatureButtons</text>
</a>
</g>
</g>
<!-- Node4&#45;&gt;Node5 -->
<g id="edge4" class="edge"><title>Node4&#45;&gt;Node5</title>
<path fill="none" stroke="midnightblue" d="M343.693,-16.3036C352.353,-16.4418 361.154,-16.5822 369.796,-16.7202"/>
<polygon fill="midnightblue" stroke="midnightblue" points="343.666,-12.8028 333.611,-16.1427 343.554,-19.8019 343.666,-12.8028"/>
</g>
<!-- Node5&#45;&gt;Node2 -->
<g id="edge5" class="edge"><title>Node5&#45;&gt;Node2</title>
<path fill="none" stroke="midnightblue" d="M542.223,-27.4474C550.822,-28.3479 559.479,-29.2543 567.912,-30.1374"/>
<polygon fill="midnightblue" stroke="midnightblue" points="542.481,-23.9554 532.171,-26.3949 541.752,-30.9174 542.481,-23.9554"/>
</g>
</g>
</svg>
        <g id="navigator" transform="translate(0 0)" fill="#404254">
                <rect fill="#f2f5e9" fill-opacity="0.5" stroke="#606060" stroke-width=".5" x="0" y="0" width="60" height="60"/>
                <use id="zoomplus" xlink:href="#zoomPlus" x="17" y="9" onmousedown="handleZoom(evt,'in')"/>
                <use id="zoomminus" xlink:href="#zoomMin" x="42" y="9" onmousedown="handleZoom(evt,'out')"/>
                <use id="reset" xlink:href="#resetDef" x="30" y="36" onmousedown="handleReset()"/>
                <g id="arrowUp" xlink:href="#dirArrow" transform="translate(30 24)" onmousedown="handlePan(0,-1)">
                  <use xlink:href="#rim" fill="#404040">
                        <set attributeName="fill" to="#808080" begin="arrowUp.mouseover" end="arrowUp.mouseout"/>
                  </use>
                  <path fill="none" stroke="white" stroke-width="1.5" d="M0,-3.0v7 M-2.5,-0.5L0,-3.0L2.5,-0.5"/>
                </g>
                <g id="arrowRight" xlink:href="#dirArrow" transform="rotate(90) translate(36 -43)" onmousedown="handlePan(1,0)">
                  <use xlink:href="#rim" fill="#404040">
                        <set attributeName="fill" to="#808080" begin="arrowRight.mouseover" end="arrowRight.mouseout"/>
                  </use>
                  <path fill="none" stroke="white" stroke-width="1.5" d="M0,-3.0v7 M-2.5,-0.5L0,-3.0L2.5,-0.5"/>
                </g>
                <g id="arrowDown" xlink:href="#dirArrow" transform="rotate(180) translate(-30 -48)" onmousedown="handlePan(0,1)">
                  <use xlink:href="#rim" fill="#404040">
                        <set attributeName="fill" to="#808080" begin="arrowDown.mouseover" end="arrowDown.mouseout"/>
                  </use>
                  <path fill="none" stroke="white" stroke-width="1.5" d="M0,-3.0v7 M-2.5,-0.5L0,-3.0L2.5,-0.5"/>
                </g>
                <g id="arrowLeft" xlink:href="#dirArrow" transform="rotate(270) translate(-36 17)" onmousedown="handlePan(-1,0)">
                  <use xlink:href="#rim" fill="#404040">
                        <set attributeName="fill" to="#808080" begin="arrowLeft.mouseover" end="arrowLeft.mouseout"/>
                  </use>
                  <path fill="none" stroke="white" stroke-width="1.5" d="M0,-3.0v7 M-2.5,-0.5L0,-3.0L2.5,-0.5"/>
                </g>
        </g>
        <svg viewBox="0 0 15 15" width="100%" height="30px" preserveAspectRatio="xMaxYMin meet">
         <g id="arrow_out" transform="scale(0.3 0.3)">
          <a xlink:href="class_movement_and_image_a_p_i_1_1src_1_1_turtle_handler_ae7bd62e67c6a572a4efef91176eb370e_icgraph_org.svg" target="_base">
           <rect id="button" ry="5" rx="5" y="6" x="6" height="38" width="38"
                fill="#f2f5e9" fill-opacity="0.5" stroke="#606060" stroke-width="1.0"/>
           <path id="arrow"
             d="M 11.500037,31.436501 C 11.940474,20.09759 22.043105,11.32322 32.158766,21.979434 L 37.068811,17.246167 C 37.068811,17.246167 37.088388,32 37.088388,32 L 22.160133,31.978069 C 22.160133,31.978069 26.997745,27.140456 26.997745,27.140456 C 18.528582,18.264221 13.291696,25.230495 11.500037,31.436501 z"
             style="fill:#404040;"/>
          </a>
         </g>
        </svg>
</svg>
