<?xml version="1.0" encoding="UTF-8" standalone="no"?>
<!DOCTYPE svg PUBLIC "-//W3C//DTD SVG 1.1//EN"
 "http://www.w3.org/Graphics/SVG/1.1/DTD/svg11.dtd">
<!-- Generated by graphviz version 2.36.0 (20140111.2315)
 -->
<!-- Title: MovementAndImageAPI.src.TurtleHandler.updateImage Pages: 1 -->
<svg width="830pt" height="60pt"
 viewBox="0.00 0.00 830.00 60.00" xmlns="http://www.w3.org/2000/svg" xmlns:xlink="http://www.w3.org/1999/xlink">
<g id="graph0" class="graph" transform="scale(1 1) rotate(0) translate(4 56)">
<title>MovementAndImageAPI.src.TurtleHandler.updateImage</title>
<polygon fill="white" stroke="none" points="-4,4 -4,-56 826,-56 826,4 -4,4"/>
<!-- Node1 -->
<g id="node1" class="node"><title>Node1</title>
<polygon fill="#bfbfbf" stroke="black" points="0,-22 0,-52 152,-52 152,-22 0,-22"/>
<text text-anchor="start" x="8" y="-40" font-family="Helvetica,sans-Serif" font-size="10.00">MovementAndImageAPI.src.</text>
<text text-anchor="middle" x="76" y="-29" font-family="Helvetica,sans-Serif" font-size="10.00">TurtleHandler.updateImage</text>
</g>
<!-- Node2 -->
<g id="node2" class="node"><title>Node2</title>
<g id="a_node2"><a xlink:href="../../d5/d56/class_workspace.html#a429d535dfd8427637b7715f0b1e1df1b" target="_top" xlink:title="Workspace.createWorkspace">
<polygon fill="white" stroke="black" points="568,-28.5 568,-47.5 720,-47.5 720,-28.5 568,-28.5"/>
<text text-anchor="middle" x="644" y="-35.5" font-family="Helvetica,sans-Serif" font-size="10.00">Workspace.createWorkspace</text>
</a>
</g>
</g>
<!-- Node1&#45;&gt;Node2 -->
<g id="edge1" class="edge"><title>Node1&#45;&gt;Node2</title>
<path fill="none" stroke="midnightblue" d="M162.37,-38.6935C171.027,-38.8187 179.688,-38.9251 188,-39 321.691,-40.2043 477.486,-39.3791 567.722,-38.6815"/>
<polygon fill="midnightblue" stroke="midnightblue" points="162.283,-35.1919 152.23,-38.5387 162.176,-42.1911 162.283,-35.1919"/>
</g>
<!-- Node4 -->
<g id="node4" class="node"><title>Node4</title>
<g id="a_node4"><a xlink:href="../../d7/daa/class_turtle_chooser_feature.html#a46a2a59cd3e594dff7798d6a31cb5c9c" target="_top" xlink:title="TurtleChooserFeature.open\lTurtleChooser">
<polygon fill="white" stroke="black" points="188.5,-0 188.5,-30 333.5,-30 333.5,-0 188.5,-0"/>
<text text-anchor="start" x="196.5" y="-18" font-family="Helvetica,sans-Serif" font-size="10.00">TurtleChooserFeature.open</text>
<text text-anchor="middle" x="261" y="-7" font-family="Helvetica,sans-Serif" font-size="10.00">TurtleChooser</text>
</a>
</g>
</g>
<!-- Node1&#45;&gt;Node4 -->
<g id="edge3" class="edge"><title>Node1&#45;&gt;Node4</title>
<path fill="none" stroke="midnightblue" d="M162.362,-26.738C171.041,-25.6945 179.795,-24.6422 188.308,-23.6187"/>
<polygon fill="midnightblue" stroke="midnightblue" points="161.736,-23.2879 152.225,-27.9565 162.572,-30.2378 161.736,-23.2879"/>
</g>
<!-- Node3 -->
<g id="node3" class="node"><title>Node3</title>
<g id="a_node3"><a xlink:href="../../d0/d4b/class_main.html#aaa75b38812324d0f17c89f139bde6ada" target="_top" xlink:title="Main.start">
<polygon fill="white" stroke="black" points="756.5,-28.5 756.5,-47.5 821.5,-47.5 821.5,-28.5 756.5,-28.5"/>
<text text-anchor="middle" x="789" y="-35.5" font-family="Helvetica,sans-Serif" font-size="10.00">Main.start</text>
</a>
</g>
</g>
<!-- Node2&#45;&gt;Node3 -->
<g id="edge2" class="edge"><title>Node2&#45;&gt;Node3</title>
<path fill="none" stroke="midnightblue" d="M730.392,-38C739.632,-38 748.551,-38 756.498,-38"/>
<polygon fill="midnightblue" stroke="midnightblue" points="730.269,-34.5001 720.269,-38 730.269,-41.5001 730.269,-34.5001"/>
</g>
<!-- Node5 -->
<g id="node5" class="node"><title>Node5</title>
<g id="a_node5"><a xlink:href="../../d5/d56/class_workspace.html#a6babd032d9af86fbc23812272d59a2d2" target="_top" xlink:title="Workspace.addFeatureButtons">
<polygon fill="white" stroke="black" points="370,-8.5 370,-27.5 532,-27.5 532,-8.5 370,-8.5"/>
<text text-anchor="middle" x="451" y="-15.5" font-family="Helvetica,sans-Serif" font-size="10.00">Workspace.addFeatureButtons</text>
</a>
</g>
</g>
<!-- Node4&#45;&gt;Node5 -->
<g id="edge4" class="edge"><title>Node4&#45;&gt;Node5</title>
<path fill="none" stroke="midnightblue" d="M343.693,-16.3036C352.353,-16.4418 361.154,-16.5822 369.796,-16.7202"/>
<polygon fill="midnightblue" stroke="midnightblue" points="343.666,-12.8028 333.611,-16.1427 343.554,-19.8019 343.666,-12.8028"/>
</g>
<!-- Node5&#45;&gt;Node2 -->
<g id="edge5" class="edge"><title>Node5&#45;&gt;Node2</title>
<path fill="none" stroke="midnightblue" d="M542.223,-27.4474C550.822,-28.3479 559.479,-29.2543 567.912,-30.1374"/>
<polygon fill="midnightblue" stroke="midnightblue" points="542.481,-23.9554 532.171,-26.3949 541.752,-30.9174 542.481,-23.9554"/>
</g>
</g>
</svg>
