<?xml version="1.0" encoding="UTF-8" standalone="no"?>
<!DOCTYPE svg PUBLIC "-//W3C//DTD SVG 1.1//EN"
 "http://www.w3.org/Graphics/SVG/1.1/DTD/svg11.dtd">
<!-- Generated by graphviz version 2.36.0 (20140111.2315)
 -->
<!-- Title: MovementAndImageAPI.src.TurtleHandler.setLineWidth Pages: 1 -->
<svg width="536pt" height="87pt"
 viewBox="0.00 0.00 536.00 87.00" xmlns="http://www.w3.org/2000/svg" xmlns:xlink="http://www.w3.org/1999/xlink">
<g id="graph0" class="graph" transform="scale(1 1) rotate(0) translate(4 83)">
<title>MovementAndImageAPI.src.TurtleHandler.setLineWidth</title>
<polygon fill="white" stroke="none" points="-4,4 -4,-83 532,-83 532,4 -4,4"/>
<!-- Node1 -->
<g id="node1" class="node"><title>Node1</title>
<polygon fill="#bfbfbf" stroke="black" points="0,-24 0,-54 152,-54 152,-24 0,-24"/>
<text text-anchor="start" x="8" y="-42" font-family="Helvetica,sans-Serif" font-size="10.00">MovementAndImageAPI.src.</text>
<text text-anchor="middle" x="76" y="-31" font-family="Helvetica,sans-Serif" font-size="10.00">TurtleHandler.setLineWidth</text>
</g>
<!-- Node2 -->
<g id="node2" class="node"><title>Node2</title>
<g id="a_node2"><a xlink:href="../../d7/d43/class_movement_and_image_a_p_i_1_1src_1_1_turtle.html#a658cc4788ed8eb613b78ba56b7e2d4e3" target="_top" xlink:title="MovementAndImageAPI.src.\lTurtle.getPenHandler">
<polygon fill="white" stroke="black" points="188,-49 188,-79 340,-79 340,-49 188,-49"/>
<text text-anchor="start" x="196" y="-67" font-family="Helvetica,sans-Serif" font-size="10.00">MovementAndImageAPI.src.</text>
<text text-anchor="middle" x="264" y="-56" font-family="Helvetica,sans-Serif" font-size="10.00">Turtle.getPenHandler</text>
</a>
</g>
</g>
<!-- Node1&#45;&gt;Node2 -->
<g id="edge1" class="edge"><title>Node1&#45;&gt;Node2</title>
<path fill="none" stroke="midnightblue" d="M152.117,-49.0964C160.596,-50.236 169.281,-51.4033 177.875,-52.5585"/>
<polygon fill="midnightblue" stroke="midnightblue" points="177.528,-56.0432 187.905,-53.9066 178.46,-49.1056 177.528,-56.0432"/>
</g>
<!-- Node3 -->
<g id="node3" class="node"><title>Node3</title>
<g id="a_node3"><a xlink:href="../../da/d8f/class_movement_and_image_a_p_i_1_1src_1_1_pen_handler.html#a637fcbef3fad464d9da5f21e2eb1fe2a" target="_top" xlink:title="MovementAndImageAPI.src.\lPenHandler.setLineWidth">
<polygon fill="white" stroke="black" points="188,-0 188,-30 340,-30 340,-0 188,-0"/>
<text text-anchor="start" x="196" y="-18" font-family="Helvetica,sans-Serif" font-size="10.00">MovementAndImageAPI.src.</text>
<text text-anchor="middle" x="264" y="-7" font-family="Helvetica,sans-Serif" font-size="10.00">PenHandler.setLineWidth</text>
</a>
</g>
</g>
<!-- Node1&#45;&gt;Node3 -->
<g id="edge2" class="edge"><title>Node1&#45;&gt;Node3</title>
<path fill="none" stroke="midnightblue" d="M152.117,-29.3075C160.596,-28.2134 169.281,-27.0928 177.875,-25.9839"/>
<polygon fill="midnightblue" stroke="midnightblue" points="178.435,-29.4407 187.905,-24.6897 177.539,-22.4983 178.435,-29.4407"/>
</g>
<!-- Node4 -->
<g id="node4" class="node"><title>Node4</title>
<g id="a_node4"><a xlink:href="../../d2/d78/class_movement_and_image_a_p_i_1_1src_1_1_pen.html#ab95136c298d3fcab524d1870e1ba1192" target="_top" xlink:title="MovementAndImageAPI.src.\lPen.setLineWidth">
<polygon fill="white" stroke="black" points="376,-0 376,-30 528,-30 528,-0 376,-0"/>
<text text-anchor="start" x="384" y="-18" font-family="Helvetica,sans-Serif" font-size="10.00">MovementAndImageAPI.src.</text>
<text text-anchor="middle" x="452" y="-7" font-family="Helvetica,sans-Serif" font-size="10.00">Pen.setLineWidth</text>
</a>
</g>
</g>
<!-- Node3&#45;&gt;Node4 -->
<g id="edge3" class="edge"><title>Node3&#45;&gt;Node4</title>
<path fill="none" stroke="midnightblue" d="M340.117,-15C348.596,-15 357.281,-15 365.875,-15"/>
<polygon fill="midnightblue" stroke="midnightblue" points="365.905,-18.5001 375.905,-15 365.905,-11.5001 365.905,-18.5001"/>
</g>
</g>
</svg>
