<?xml version="1.0" encoding="UTF-8" standalone="no"?>
<!DOCTYPE svg PUBLIC "-//W3C//DTD SVG 1.1//EN"
 "http://www.w3.org/Graphics/SVG/1.1/DTD/svg11.dtd">
<!-- Generated by graphviz version 2.36.0 (20140111.2315)
 -->
<!-- Title: MovementAndImageAPI.src.TurtleHandler.updateTurtleAbsoluteLocation Pages: 1 -->
<svg width="1012pt" height="410pt"
 viewBox="0.00 0.00 1012.00 410.00" xmlns="http://www.w3.org/2000/svg" xmlns:xlink="http://www.w3.org/1999/xlink">
<g id="graph0" class="graph" transform="scale(1 1) rotate(0) translate(4 406)">
<title>MovementAndImageAPI.src.TurtleHandler.updateTurtleAbsoluteLocation</title>
<polygon fill="white" stroke="none" points="-4,4 -4,-406 1008,-406 1008,4 -4,4"/>
<!-- Node1 -->
<g id="node1" class="node"><title>Node1</title>
<polygon fill="#bfbfbf" stroke="black" points="0.5,-114.5 0.5,-155.5 183.5,-155.5 183.5,-114.5 0.5,-114.5"/>
<text text-anchor="start" x="8.5" y="-143.5" font-family="Helvetica,sans-Serif" font-size="10.00">MovementAndImageAPI.src.</text>
<text text-anchor="start" x="8.5" y="-132.5" font-family="Helvetica,sans-Serif" font-size="10.00">TurtleHandler.updateTurtleAbsolute</text>
<text text-anchor="middle" x="92" y="-121.5" font-family="Helvetica,sans-Serif" font-size="10.00">Location</text>
</g>
<!-- Node2 -->
<g id="node2" class="node"><title>Node2</title>
<g id="a_node2"><a xlink:href="../../d7/d43/class_movement_and_image_a_p_i_1_1src_1_1_turtle.html#af438d3cf63dc7584f43e470e56592cbb" target="_top" xlink:title="MovementAndImageAPI.src.\lTurtle.getPoint">
<polygon fill="white" stroke="black" points="225,-169 225,-199 377,-199 377,-169 225,-169"/>
<text text-anchor="start" x="233" y="-187" font-family="Helvetica,sans-Serif" font-size="10.00">MovementAndImageAPI.src.</text>
<text text-anchor="middle" x="301" y="-176" font-family="Helvetica,sans-Serif" font-size="10.00">Turtle.getPoint</text>
</a>
</g>
</g>
<!-- Node1&#45;&gt;Node2 -->
<g id="edge1" class="edge"><title>Node1&#45;&gt;Node2</title>
<path fill="none" stroke="midnightblue" d="M179.887,-155.567C195.498,-159.263 211.626,-163.081 226.801,-166.673"/>
<polygon fill="midnightblue" stroke="midnightblue" points="226.084,-170.1 236.621,-168.997 227.696,-163.288 226.084,-170.1"/>
</g>
<!-- Node3 -->
<g id="node3" class="node"><title>Node3</title>
<g id="a_node3"><a xlink:href="../../d4/d0f/class_movement_and_image_a_p_i_1_1src_1_1_turtle_handler.html#adf01534451c018bc6b767aa8d42689bb" target="_top" xlink:title="MovementAndImageAPI.src.\lTurtleHandler.moveAndDraw">
<polygon fill="white" stroke="black" points="225,-120 225,-150 377,-150 377,-120 225,-120"/>
<text text-anchor="start" x="233" y="-138" font-family="Helvetica,sans-Serif" font-size="10.00">MovementAndImageAPI.src.</text>
<text text-anchor="middle" x="301" y="-127" font-family="Helvetica,sans-Serif" font-size="10.00">TurtleHandler.moveAndDraw</text>
</a>
</g>
</g>
<!-- Node1&#45;&gt;Node3 -->
<g id="edge2" class="edge"><title>Node1&#45;&gt;Node3</title>
<path fill="none" stroke="midnightblue" d="M183.793,-135C194.059,-135 204.494,-135 214.685,-135"/>
<polygon fill="midnightblue" stroke="midnightblue" points="214.781,-138.5 224.781,-135 214.781,-131.5 214.781,-138.5"/>
</g>
<!-- Node24 -->
<g id="node24" class="node"><title>Node24</title>
<g id="a_node24"><a xlink:href="../../d7/d43/class_movement_and_image_a_p_i_1_1src_1_1_turtle.html#a2ec2bd850d6b5d8e9479b7e2970b8f28" target="_top" xlink:title="MovementAndImageAPI.src.\lTurtle.updateAbsoluteLocation">
<polygon fill="white" stroke="black" points="220.5,-71 220.5,-101 381.5,-101 381.5,-71 220.5,-71"/>
<text text-anchor="start" x="228.5" y="-89" font-family="Helvetica,sans-Serif" font-size="10.00">MovementAndImageAPI.src.</text>
<text text-anchor="middle" x="301" y="-78" font-family="Helvetica,sans-Serif" font-size="10.00">Turtle.updateAbsoluteLocation</text>
</a>
</g>
</g>
<!-- Node1&#45;&gt;Node24 -->
<g id="edge27" class="edge"><title>Node1&#45;&gt;Node24</title>
<path fill="none" stroke="midnightblue" d="M179.887,-114.433C195.498,-110.737 211.626,-106.919 226.801,-103.327"/>
<polygon fill="midnightblue" stroke="midnightblue" points="227.696,-106.712 236.621,-101.003 226.084,-99.9005 227.696,-106.712"/>
</g>
<!-- Node4 -->
<g id="node4" class="node"><title>Node4</title>
<g id="a_node4"><a xlink:href="../../da/d31/class_movement_and_image_a_p_i_1_1src_1_1_image_updater.html#a194a73bcc0c675e5d7d9182847805455" target="_top" xlink:title="MovementAndImageAPI.src.\lImageUpdater.drawLine">
<polygon fill="white" stroke="black" points="431,-169 431,-199 583,-199 583,-169 431,-169"/>
<text text-anchor="start" x="439" y="-187" font-family="Helvetica,sans-Serif" font-size="10.00">MovementAndImageAPI.src.</text>
<text text-anchor="middle" x="507" y="-176" font-family="Helvetica,sans-Serif" font-size="10.00">ImageUpdater.drawLine</text>
</a>
</g>
</g>
<!-- Node3&#45;&gt;Node4 -->
<g id="edge3" class="edge"><title>Node3&#45;&gt;Node4</title>
<path fill="none" stroke="midnightblue" d="M364.593,-150.035C386.426,-155.279 411.106,-161.207 433.666,-166.626"/>
<polygon fill="midnightblue" stroke="midnightblue" points="432.984,-170.061 443.525,-168.994 434.619,-163.255 432.984,-170.061"/>
</g>
<!-- Node18 -->
<g id="node18" class="node"><title>Node18</title>
<g id="a_node18"><a xlink:href="../../d7/d43/class_movement_and_image_a_p_i_1_1src_1_1_turtle.html#a75d31c1ce4fcba5a04aec065d2403d39" target="_top" xlink:title="MovementAndImageAPI.src.\lTurtle.getImage">
<polygon fill="white" stroke="black" points="431,-71 431,-101 583,-101 583,-71 431,-71"/>
<text text-anchor="start" x="439" y="-89" font-family="Helvetica,sans-Serif" font-size="10.00">MovementAndImageAPI.src.</text>
<text text-anchor="middle" x="507" y="-78" font-family="Helvetica,sans-Serif" font-size="10.00">Turtle.getImage</text>
</a>
</g>
</g>
<!-- Node3&#45;&gt;Node18 -->
<g id="edge19" class="edge"><title>Node3&#45;&gt;Node18</title>
<path fill="none" stroke="midnightblue" d="M364.593,-119.965C386.426,-114.721 411.106,-108.793 433.666,-103.374"/>
<polygon fill="midnightblue" stroke="midnightblue" points="434.619,-106.745 443.525,-101.006 432.984,-99.9386 434.619,-106.745"/>
</g>
<!-- Node19 -->
<g id="node19" class="node"><title>Node19</title>
<g id="a_node19"><a xlink:href="../../d7/d43/class_movement_and_image_a_p_i_1_1src_1_1_turtle.html#a658cc4788ed8eb613b78ba56b7e2d4e3" target="_top" xlink:title="MovementAndImageAPI.src.\lTurtle.getPenHandler">
<polygon fill="white" stroke="black" points="431,-22 431,-52 583,-52 583,-22 431,-22"/>
<text text-anchor="start" x="439" y="-40" font-family="Helvetica,sans-Serif" font-size="10.00">MovementAndImageAPI.src.</text>
<text text-anchor="middle" x="507" y="-29" font-family="Helvetica,sans-Serif" font-size="10.00">Turtle.getPenHandler</text>
</a>
</g>
</g>
<!-- Node3&#45;&gt;Node19 -->
<g id="edge20" class="edge"><title>Node3&#45;&gt;Node19</title>
<path fill="none" stroke="midnightblue" d="M364.182,-119.983C370.479,-117.188 376.552,-113.889 382,-110 403.993,-94.2978 395.723,-76.2967 418,-61 420.17,-59.5098 422.43,-58.1119 424.758,-56.8006"/>
<polygon fill="midnightblue" stroke="midnightblue" points="426.656,-59.7647 434.033,-52.1603 423.524,-53.5044 426.656,-59.7647"/>
</g>
<!-- Node20 -->
<g id="node20" class="node"><title>Node20</title>
<g id="a_node20"><a xlink:href="../../d7/d43/class_movement_and_image_a_p_i_1_1src_1_1_turtle.html#a6a340f7cbda09ca810d01a1767150ba9" target="_top" xlink:title="MovementAndImageAPI.src.\lTurtle.getPenPosition">
<polygon fill="white" stroke="black" points="431,-120 431,-150 583,-150 583,-120 431,-120"/>
<text text-anchor="start" x="439" y="-138" font-family="Helvetica,sans-Serif" font-size="10.00">MovementAndImageAPI.src.</text>
<text text-anchor="middle" x="507" y="-127" font-family="Helvetica,sans-Serif" font-size="10.00">Turtle.getPenPosition</text>
</a>
</g>
</g>
<!-- Node3&#45;&gt;Node20 -->
<g id="edge21" class="edge"><title>Node3&#45;&gt;Node20</title>
<path fill="none" stroke="midnightblue" d="M377.093,-135C391.171,-135 405.986,-135 420.357,-135"/>
<polygon fill="midnightblue" stroke="midnightblue" points="420.725,-138.5 430.725,-135 420.725,-131.5 420.725,-138.5"/>
</g>
<!-- Node21 -->
<g id="node21" class="node"><title>Node21</title>
<g id="a_node21"><a xlink:href="../../da/d31/class_movement_and_image_a_p_i_1_1src_1_1_image_updater.html#adea0730f4ec25ebf5b16940420f9af0b" target="_top" xlink:title="MovementAndImageAPI.src.\lImageUpdater.updateTurtleImage">
<polygon fill="white" stroke="black" points="418.5,-323 418.5,-353 595.5,-353 595.5,-323 418.5,-323"/>
<text text-anchor="start" x="426.5" y="-341" font-family="Helvetica,sans-Serif" font-size="10.00">MovementAndImageAPI.src.</text>
<text text-anchor="middle" x="507" y="-330" font-family="Helvetica,sans-Serif" font-size="10.00">ImageUpdater.updateTurtleImage</text>
</a>
</g>
</g>
<!-- Node3&#45;&gt;Node21 -->
<g id="edge23" class="edge"><title>Node3&#45;&gt;Node21</title>
<path fill="none" stroke="midnightblue" d="M366.728,-150.145C372.128,-152.662 377.307,-155.591 382,-159 385.762,-161.733 457.032,-266.065 489.785,-314.16"/>
<polygon fill="midnightblue" stroke="midnightblue" points="487.089,-316.419 495.609,-322.716 492.875,-312.48 487.089,-316.419"/>
</g>
<!-- Node5 -->
<g id="node5" class="node"><title>Node5</title>
<g id="a_node5"><a xlink:href="../../da/d31/class_movement_and_image_a_p_i_1_1src_1_1_image_updater.html#a08e8ba7624dbce157332a73670072c78" target="_top" xlink:title="MovementAndImageAPI.src.\lImageUpdater.ensurePositive">
<polygon fill="white" stroke="black" points="642,-323 642,-353 800,-353 800,-323 642,-323"/>
<text text-anchor="start" x="650" y="-341" font-family="Helvetica,sans-Serif" font-size="10.00">MovementAndImageAPI.src.</text>
<text text-anchor="middle" x="721" y="-330" font-family="Helvetica,sans-Serif" font-size="10.00">ImageUpdater.ensurePositive</text>
</a>
</g>
</g>
<!-- Node4&#45;&gt;Node5 -->
<g id="edge4" class="edge"><title>Node4&#45;&gt;Node5</title>
<path fill="none" stroke="midnightblue" d="M519.315,-199.195C539.315,-225.052 583.414,-277.744 632,-308 638.819,-312.246 646.312,-315.975 653.96,-319.228"/>
<polygon fill="midnightblue" stroke="midnightblue" points="652.744,-322.511 663.33,-322.961 655.336,-316.008 652.744,-322.511"/>
</g>
<!-- Node6 -->
<g id="node6" class="node"><title>Node6</title>
<g id="a_node6"><a xlink:href="../../da/d31/class_movement_and_image_a_p_i_1_1src_1_1_image_updater.html#a049f8e63bcdbe91f5fad63c778030fb4" target="_top" xlink:title="MovementAndImageAPI.src.\lImageUpdater.findBoundaryPoint">
<polygon fill="white" stroke="black" points="633.5,-235 633.5,-265 808.5,-265 808.5,-235 633.5,-235"/>
<text text-anchor="start" x="641.5" y="-253" font-family="Helvetica,sans-Serif" font-size="10.00">MovementAndImageAPI.src.</text>
<text text-anchor="middle" x="721" y="-242" font-family="Helvetica,sans-Serif" font-size="10.00">ImageUpdater.findBoundaryPoint</text>
</a>
</g>
</g>
<!-- Node4&#45;&gt;Node6 -->
<g id="edge5" class="edge"><title>Node4&#45;&gt;Node6</title>
<path fill="none" stroke="midnightblue" d="M556.371,-199.059C587.737,-208.824 628.776,-221.6 661.907,-231.914"/>
<polygon fill="midnightblue" stroke="midnightblue" points="660.881,-235.261 671.47,-234.892 662.962,-228.577 660.881,-235.261"/>
</g>
<!-- Node8 -->
<g id="node8" class="node"><title>Node8</title>
<g id="a_node8"><a xlink:href="../../da/d31/class_movement_and_image_a_p_i_1_1src_1_1_image_updater.html#a03f6a2a06e7a7476405345f6fcb3dad5" target="_top" xlink:title="MovementAndImageAPI.src.\lImageUpdater.xOutOfBounds">
<polygon fill="white" stroke="black" points="846.5,-309 846.5,-339 1003.5,-339 1003.5,-309 846.5,-309"/>
<text text-anchor="start" x="854.5" y="-327" font-family="Helvetica,sans-Serif" font-size="10.00">MovementAndImageAPI.src.</text>
<text text-anchor="middle" x="925" y="-316" font-family="Helvetica,sans-Serif" font-size="10.00">ImageUpdater.xOutOfBounds</text>
</a>
</g>
</g>
<!-- Node4&#45;&gt;Node8 -->
<g id="edge17" class="edge"><title>Node4&#45;&gt;Node8</title>
<path fill="none" stroke="midnightblue" d="M523.741,-199.2C545.943,-219.695 588.61,-255.721 632,-274 667.989,-289.161 764.029,-303.929 836.213,-313.436"/>
<polygon fill="midnightblue" stroke="midnightblue" points="835.863,-316.92 846.232,-314.742 836.768,-309.978 835.863,-316.92"/>
</g>
<!-- Node10 -->
<g id="node10" class="node"><title>Node10</title>
<g id="a_node10"><a xlink:href="../../da/d31/class_movement_and_image_a_p_i_1_1src_1_1_image_updater.html#af0f2404b46ab5bd003906d97d8460654" target="_top" xlink:title="MovementAndImageAPI.src.\lImageUpdater.yOutOfBounds">
<polygon fill="white" stroke="black" points="846.5,-162 846.5,-192 1003.5,-192 1003.5,-162 846.5,-162"/>
<text text-anchor="start" x="854.5" y="-180" font-family="Helvetica,sans-Serif" font-size="10.00">MovementAndImageAPI.src.</text>
<text text-anchor="middle" x="925" y="-169" font-family="Helvetica,sans-Serif" font-size="10.00">ImageUpdater.yOutOfBounds</text>
</a>
</g>
</g>
<!-- Node4&#45;&gt;Node10 -->
<g id="edge18" class="edge"><title>Node4&#45;&gt;Node10</title>
<path fill="none" stroke="midnightblue" d="M583.117,-186.415C644.24,-187.918 732.723,-189.046 810,-186 818.576,-185.662 827.506,-185.182 836.427,-184.616"/>
<polygon fill="midnightblue" stroke="midnightblue" points="836.731,-188.104 846.475,-183.945 836.264,-181.119 836.731,-188.104"/>
</g>
<!-- Node11 -->
<g id="node11" class="node"><title>Node11</title>
<g id="a_node11"><a xlink:href="../../da/d31/class_movement_and_image_a_p_i_1_1src_1_1_image_updater.html#a99fe830ba09a4ee088ef04eebc1b2183" target="_top" xlink:title="MovementAndImageAPI.src.\lImageUpdater.findNewStartPoint">
<polygon fill="white" stroke="black" points="634.5,-147 634.5,-177 807.5,-177 807.5,-147 634.5,-147"/>
<text text-anchor="start" x="642.5" y="-165" font-family="Helvetica,sans-Serif" font-size="10.00">MovementAndImageAPI.src.</text>
<text text-anchor="middle" x="721" y="-154" font-family="Helvetica,sans-Serif" font-size="10.00">ImageUpdater.findNewStartPoint</text>
</a>
</g>
</g>
<!-- Node4&#45;&gt;Node11 -->
<g id="edge10" class="edge"><title>Node4&#45;&gt;Node11</title>
<path fill="none" stroke="midnightblue" d="M583.042,-176.213C596.365,-174.83 610.403,-173.373 624.208,-171.941"/>
<polygon fill="midnightblue" stroke="midnightblue" points="624.62,-175.417 634.205,-170.903 623.898,-168.454 624.62,-175.417"/>
</g>
<!-- Node12 -->
<g id="node12" class="node"><title>Node12</title>
<g id="a_node12"><a xlink:href="../../da/d8f/class_movement_and_image_a_p_i_1_1src_1_1_pen_handler.html#ab73c37fd9bab639a2253b5a5817387a9" target="_top" xlink:title="MovementAndImageAPI.src.\lPenHandler.getLineWidth">
<polygon fill="white" stroke="black" points="645,-98 645,-128 797,-128 797,-98 645,-98"/>
<text text-anchor="start" x="653" y="-116" font-family="Helvetica,sans-Serif" font-size="10.00">MovementAndImageAPI.src.</text>
<text text-anchor="middle" x="721" y="-105" font-family="Helvetica,sans-Serif" font-size="10.00">PenHandler.getLineWidth</text>
</a>
</g>
</g>
<!-- Node4&#45;&gt;Node12 -->
<g id="edge11" class="edge"><title>Node4&#45;&gt;Node12</title>
<path fill="none" stroke="midnightblue" d="M569.352,-168.898C578.43,-165.998 587.562,-162.694 596,-159 613.177,-151.48 614.784,-144.43 632,-137 636.696,-134.974 641.607,-133.076 646.606,-131.308"/>
<polygon fill="midnightblue" stroke="midnightblue" points="647.918,-134.56 656.29,-128.067 645.697,-127.922 647.918,-134.56"/>
</g>
<!-- Node14 -->
<g id="node14" class="node"><title>Node14</title>
<g id="a_node14"><a xlink:href="../../da/d8f/class_movement_and_image_a_p_i_1_1src_1_1_pen_handler.html#a64a9b8fde73c28f0683640b081d884f1" target="_top" xlink:title="MovementAndImageAPI.src.\lPenHandler.getPenColor">
<polygon fill="white" stroke="black" points="645,-49 645,-79 797,-79 797,-49 645,-49"/>
<text text-anchor="start" x="653" y="-67" font-family="Helvetica,sans-Serif" font-size="10.00">MovementAndImageAPI.src.</text>
<text text-anchor="middle" x="721" y="-56" font-family="Helvetica,sans-Serif" font-size="10.00">PenHandler.getPenColor</text>
</a>
</g>
</g>
<!-- Node4&#45;&gt;Node14 -->
<g id="edge13" class="edge"><title>Node4&#45;&gt;Node14</title>
<path fill="none" stroke="midnightblue" d="M580.626,-168.838C586.128,-166.087 591.342,-162.838 596,-159 623.306,-136.502 604.576,-110.354 632,-88 633.565,-86.7243 635.192,-85.5162 636.872,-84.372"/>
<polygon fill="midnightblue" stroke="midnightblue" points="638.839,-87.2751 645.66,-79.1678 635.272,-81.252 638.839,-87.2751"/>
</g>
<!-- Node16 -->
<g id="node16" class="node"><title>Node16</title>
<g id="a_node16"><a xlink:href="../../da/d8f/class_movement_and_image_a_p_i_1_1src_1_1_pen_handler.html#ad3f35e8b9605bde22fcbb5bc3e15cbf5" target="_top" xlink:title="MovementAndImageAPI.src.\lPenHandler.getPenPosition">
<polygon fill="white" stroke="black" points="645,-0 645,-30 797,-30 797,-0 645,-0"/>
<text text-anchor="start" x="653" y="-18" font-family="Helvetica,sans-Serif" font-size="10.00">MovementAndImageAPI.src.</text>
<text text-anchor="middle" x="721" y="-7" font-family="Helvetica,sans-Serif" font-size="10.00">PenHandler.getPenPosition</text>
</a>
</g>
</g>
<!-- Node4&#45;&gt;Node16 -->
<g id="edge15" class="edge"><title>Node4&#45;&gt;Node16</title>
<path fill="none" stroke="midnightblue" d="M582.663,-168.998C587.519,-166.204 592.041,-162.902 596,-159 635.66,-119.917 592.134,-77.8736 632,-39 633.446,-37.5904 634.965,-36.2617 636.549,-35.0093"/>
<polygon fill="midnightblue" stroke="midnightblue" points="638.598,-37.8487 644.941,-29.3622 634.691,-32.041 638.598,-37.8487"/>
</g>
<!-- Node7 -->
<g id="node7" class="node"><title>Node7</title>
<g id="a_node7"><a xlink:href="../../da/d31/class_movement_and_image_a_p_i_1_1src_1_1_image_updater.html#a24866e7c0871e72ff9bb226fa477ee2b" target="_top" xlink:title="MovementAndImageAPI.src.\lImageUpdater.xBoundary">
<polygon fill="white" stroke="black" points="849,-260 849,-290 1001,-290 1001,-260 849,-260"/>
<text text-anchor="start" x="857" y="-278" font-family="Helvetica,sans-Serif" font-size="10.00">MovementAndImageAPI.src.</text>
<text text-anchor="middle" x="925" y="-267" font-family="Helvetica,sans-Serif" font-size="10.00">ImageUpdater.xBoundary</text>
</a>
</g>
</g>
<!-- Node6&#45;&gt;Node7 -->
<g id="edge6" class="edge"><title>Node6&#45;&gt;Node7</title>
<path fill="none" stroke="midnightblue" d="M808.545,-260.711C818.584,-261.953 828.818,-263.22 838.838,-264.46"/>
<polygon fill="midnightblue" stroke="midnightblue" points="838.418,-267.935 848.772,-265.69 839.278,-260.988 838.418,-267.935"/>
</g>
<!-- Node6&#45;&gt;Node8 -->
<g id="edge7" class="edge"><title>Node6&#45;&gt;Node8</title>
<path fill="none" stroke="midnightblue" d="M770.474,-265.003C783.467,-269.436 797.401,-274.568 810,-280 826.613,-287.163 829.322,-291.99 846,-299 851.459,-301.294 857.205,-303.504 863.002,-305.595"/>
<polygon fill="midnightblue" stroke="midnightblue" points="862.167,-309.011 872.762,-308.998 864.471,-302.401 862.167,-309.011"/>
</g>
<!-- Node9 -->
<g id="node9" class="node"><title>Node9</title>
<g id="a_node9"><a xlink:href="../../da/d31/class_movement_and_image_a_p_i_1_1src_1_1_image_updater.html#ad79a0592d012a80c6db9c91909440415" target="_top" xlink:title="MovementAndImageAPI.src.\lImageUpdater.yBoundary">
<polygon fill="white" stroke="black" points="849,-211 849,-241 1001,-241 1001,-211 849,-211"/>
<text text-anchor="start" x="857" y="-229" font-family="Helvetica,sans-Serif" font-size="10.00">MovementAndImageAPI.src.</text>
<text text-anchor="middle" x="925" y="-218" font-family="Helvetica,sans-Serif" font-size="10.00">ImageUpdater.yBoundary</text>
</a>
</g>
</g>
<!-- Node6&#45;&gt;Node9 -->
<g id="edge8" class="edge"><title>Node6&#45;&gt;Node9</title>
<path fill="none" stroke="midnightblue" d="M808.545,-239.717C818.584,-238.525 828.818,-237.309 838.838,-236.118"/>
<polygon fill="midnightblue" stroke="midnightblue" points="839.255,-239.593 848.772,-234.938 838.429,-232.642 839.255,-239.593"/>
</g>
<!-- Node6&#45;&gt;Node10 -->
<g id="edge9" class="edge"><title>Node6&#45;&gt;Node10</title>
<path fill="none" stroke="midnightblue" d="M769.937,-234.967C783.06,-230.499 797.193,-225.356 810,-220 826.503,-213.098 829.434,-208.75 846,-202 851.704,-199.676 857.71,-197.423 863.754,-195.283"/>
<polygon fill="midnightblue" stroke="midnightblue" points="864.925,-198.581 873.243,-192.02 862.649,-191.962 864.925,-198.581"/>
</g>
<!-- Node13 -->
<g id="node13" class="node"><title>Node13</title>
<g id="a_node13"><a xlink:href="../../d2/d78/class_movement_and_image_a_p_i_1_1src_1_1_pen.html#aecf75855f964eb9eb238cae05df975a6" target="_top" xlink:title="MovementAndImageAPI.src.\lPen.getLineWidth">
<polygon fill="white" stroke="black" points="849,-98 849,-128 1001,-128 1001,-98 849,-98"/>
<text text-anchor="start" x="857" y="-116" font-family="Helvetica,sans-Serif" font-size="10.00">MovementAndImageAPI.src.</text>
<text text-anchor="middle" x="925" y="-105" font-family="Helvetica,sans-Serif" font-size="10.00">Pen.getLineWidth</text>
</a>
</g>
</g>
<!-- Node12&#45;&gt;Node13 -->
<g id="edge12" class="edge"><title>Node12&#45;&gt;Node13</title>
<path fill="none" stroke="midnightblue" d="M797.217,-113C810.625,-113 824.683,-113 838.356,-113"/>
<polygon fill="midnightblue" stroke="midnightblue" points="838.72,-116.5 848.72,-113 838.72,-109.5 838.72,-116.5"/>
</g>
<!-- Node15 -->
<g id="node15" class="node"><title>Node15</title>
<g id="a_node15"><a xlink:href="../../d2/d78/class_movement_and_image_a_p_i_1_1src_1_1_pen.html#a8d076af52cf4510ecda7a874ee978fc2" target="_top" xlink:title="MovementAndImageAPI.src.\lPen.getPenColor">
<polygon fill="white" stroke="black" points="849,-49 849,-79 1001,-79 1001,-49 849,-49"/>
<text text-anchor="start" x="857" y="-67" font-family="Helvetica,sans-Serif" font-size="10.00">MovementAndImageAPI.src.</text>
<text text-anchor="middle" x="925" y="-56" font-family="Helvetica,sans-Serif" font-size="10.00">Pen.getPenColor</text>
</a>
</g>
</g>
<!-- Node14&#45;&gt;Node15 -->
<g id="edge14" class="edge"><title>Node14&#45;&gt;Node15</title>
<path fill="none" stroke="midnightblue" d="M797.217,-64C810.625,-64 824.683,-64 838.356,-64"/>
<polygon fill="midnightblue" stroke="midnightblue" points="838.72,-67.5001 848.72,-64 838.72,-60.5001 838.72,-67.5001"/>
</g>
<!-- Node17 -->
<g id="node17" class="node"><title>Node17</title>
<g id="a_node17"><a xlink:href="../../d2/d78/class_movement_and_image_a_p_i_1_1src_1_1_pen.html#a3f3cdbaef2a7328e6051567cc29975fb" target="_top" xlink:title="MovementAndImageAPI.src.\lPen.getPenPosition">
<polygon fill="white" stroke="black" points="849,-0 849,-30 1001,-30 1001,-0 849,-0"/>
<text text-anchor="start" x="857" y="-18" font-family="Helvetica,sans-Serif" font-size="10.00">MovementAndImageAPI.src.</text>
<text text-anchor="middle" x="925" y="-7" font-family="Helvetica,sans-Serif" font-size="10.00">Pen.getPenPosition</text>
</a>
</g>
</g>
<!-- Node16&#45;&gt;Node17 -->
<g id="edge16" class="edge"><title>Node16&#45;&gt;Node17</title>
<path fill="none" stroke="midnightblue" d="M797.217,-15C810.625,-15 824.683,-15 838.356,-15"/>
<polygon fill="midnightblue" stroke="midnightblue" points="838.72,-18.5001 848.72,-15 838.72,-11.5001 838.72,-18.5001"/>
</g>
<!-- Node20&#45;&gt;Node16 -->
<g id="edge22" class="edge"><title>Node20&#45;&gt;Node16</title>
<path fill="none" stroke="midnightblue" d="M580.626,-119.838C586.128,-117.087 591.342,-113.838 596,-110 623.306,-87.502 604.576,-61.3537 632,-39 633.565,-37.7243 635.192,-36.5162 636.872,-35.372"/>
<polygon fill="midnightblue" stroke="midnightblue" points="638.839,-38.2751 645.66,-30.1678 635.272,-32.252 638.839,-38.2751"/>
</g>
<!-- Node21&#45;&gt;Node5 -->
<g id="edge26" class="edge"><title>Node21&#45;&gt;Node5</title>
<path fill="none" stroke="midnightblue" d="M595.759,-338C607.565,-338 619.682,-338 631.5,-338"/>
<polygon fill="midnightblue" stroke="midnightblue" points="631.794,-341.5 641.794,-338 631.794,-334.5 631.794,-341.5"/>
</g>
<!-- Node22 -->
<g id="node22" class="node"><title>Node22</title>
<g id="a_node22"><a xlink:href="../../da/d31/class_movement_and_image_a_p_i_1_1src_1_1_image_updater.html#a581e045297ecf935c75512c1198703b3" target="_top" xlink:title="MovementAndImageAPI.src.\lImageUpdater.drawRotatedImage">
<polygon fill="white" stroke="black" points="632.5,-372 632.5,-402 809.5,-402 809.5,-372 632.5,-372"/>
<text text-anchor="start" x="640.5" y="-390" font-family="Helvetica,sans-Serif" font-size="10.00">MovementAndImageAPI.src.</text>
<text text-anchor="middle" x="721" y="-379" font-family="Helvetica,sans-Serif" font-size="10.00">ImageUpdater.drawRotatedImage</text>
</a>
</g>
</g>
<!-- Node21&#45;&gt;Node22 -->
<g id="edge24" class="edge"><title>Node21&#45;&gt;Node22</title>
<path fill="none" stroke="midnightblue" d="M573.048,-353.035C595.839,-358.302 621.615,-364.26 645.144,-369.698"/>
<polygon fill="midnightblue" stroke="midnightblue" points="644.544,-373.152 655.075,-371.994 646.12,-366.332 644.544,-373.152"/>
</g>
<!-- Node23 -->
<g id="node23" class="node"><title>Node23</title>
<g id="a_node23"><a xlink:href="../../da/d31/class_movement_and_image_a_p_i_1_1src_1_1_image_updater.html#a2368721809649636ad6dce3c008a6d62" target="_top" xlink:title="MovementAndImageAPI.src.\lImageUpdater.rotate">
<polygon fill="white" stroke="black" points="849,-372 849,-402 1001,-402 1001,-372 849,-372"/>
<text text-anchor="start" x="857" y="-390" font-family="Helvetica,sans-Serif" font-size="10.00">MovementAndImageAPI.src.</text>
<text text-anchor="middle" x="925" y="-379" font-family="Helvetica,sans-Serif" font-size="10.00">ImageUpdater.rotate</text>
</a>
</g>
</g>
<!-- Node22&#45;&gt;Node23 -->
<g id="edge25" class="edge"><title>Node22&#45;&gt;Node23</title>
<path fill="none" stroke="midnightblue" d="M809.719,-387C819.258,-387 828.958,-387 838.471,-387"/>
<polygon fill="midnightblue" stroke="midnightblue" points="838.703,-390.5 848.703,-387 838.703,-383.5 838.703,-390.5"/>
</g>
</g>
</svg>
