<?xml version="1.0" encoding="UTF-8" standalone="no"?>
<!DOCTYPE svg PUBLIC "-//W3C//DTD SVG 1.1//EN"
 "http://www.w3.org/Graphics/SVG/1.1/DTD/svg11.dtd">
<!-- Generated by graphviz version 2.36.0 (20140111.2315)
 -->
<!-- Title: MovementAndImageAPI.src.TurtleHandler.getTurtleLocation Pages: 1 -->
<svg width="1044pt" height="38pt"
 viewBox="0.00 0.00 1044.00 38.00" xmlns="http://www.w3.org/2000/svg" xmlns:xlink="http://www.w3.org/1999/xlink">
<g id="graph0" class="graph" transform="scale(1 1) rotate(0) translate(4 34)">
<title>MovementAndImageAPI.src.TurtleHandler.getTurtleLocation</title>
<polygon fill="white" stroke="none" points="-4,4 -4,-34 1040,-34 1040,4 -4,4"/>
<!-- Node1 -->
<g id="node1" class="node"><title>Node1</title>
<polygon fill="#bfbfbf" stroke="black" points="0,-0 0,-30 164,-30 164,-0 0,-0"/>
<text text-anchor="start" x="8" y="-18" font-family="Helvetica,sans-Serif" font-size="10.00">MovementAndImageAPI.src.</text>
<text text-anchor="middle" x="82" y="-7" font-family="Helvetica,sans-Serif" font-size="10.00">TurtleHandler.getTurtleLocation</text>
</g>
<!-- Node2 -->
<g id="node2" class="node"><title>Node2</title>
<g id="a_node2"><a xlink:href="../../d5/d6a/class_turtle_data_feature.html#a3dd3f16c3c168151bc57be68684dfc50" target="_top" xlink:title="TurtleDataFeature.showStage">
<polygon fill="white" stroke="black" points="200.5,-5.5 200.5,-24.5 357.5,-24.5 357.5,-5.5 200.5,-5.5"/>
<text text-anchor="middle" x="279" y="-12.5" font-family="Helvetica,sans-Serif" font-size="10.00">TurtleDataFeature.showStage</text>
</a>
</g>
</g>
<!-- Node1&#45;&gt;Node2 -->
<g id="edge1" class="edge"><title>Node1&#45;&gt;Node2</title>
<path fill="none" stroke="midnightblue" d="M174.222,-15C182.967,-15 191.78,-15 200.378,-15"/>
<polygon fill="midnightblue" stroke="midnightblue" points="174.004,-11.5001 164.003,-15 174.003,-18.5001 174.004,-11.5001"/>
</g>
<!-- Node3 -->
<g id="node3" class="node"><title>Node3</title>
<g id="a_node3"><a xlink:href="../../d5/d6a/class_turtle_data_feature.html#ae0a4f267c19fdd44c1ae9128f2de41e1" target="_top" xlink:title="TurtleDataFeature.openTurtle\lDataPage">
<polygon fill="white" stroke="black" points="394,-0 394,-30 548,-30 548,-0 394,-0"/>
<text text-anchor="start" x="402" y="-18" font-family="Helvetica,sans-Serif" font-size="10.00">TurtleDataFeature.openTurtle</text>
<text text-anchor="middle" x="471" y="-7" font-family="Helvetica,sans-Serif" font-size="10.00">DataPage</text>
</a>
</g>
</g>
<!-- Node2&#45;&gt;Node3 -->
<g id="edge2" class="edge"><title>Node2&#45;&gt;Node3</title>
<path fill="none" stroke="midnightblue" d="M367.757,-15C376.496,-15 385.318,-15 393.923,-15"/>
<polygon fill="midnightblue" stroke="midnightblue" points="367.554,-11.5001 357.554,-15 367.554,-18.5001 367.554,-11.5001"/>
</g>
<!-- Node4 -->
<g id="node4" class="node"><title>Node4</title>
<g id="a_node4"><a xlink:href="../../d5/d56/class_workspace.html#a6babd032d9af86fbc23812272d59a2d2" target="_top" xlink:title="Workspace.addFeatureButtons">
<polygon fill="white" stroke="black" points="584,-5.5 584,-24.5 746,-24.5 746,-5.5 584,-5.5"/>
<text text-anchor="middle" x="665" y="-12.5" font-family="Helvetica,sans-Serif" font-size="10.00">Workspace.addFeatureButtons</text>
</a>
</g>
</g>
<!-- Node3&#45;&gt;Node4 -->
<g id="edge3" class="edge"><title>Node3&#45;&gt;Node4</title>
<path fill="none" stroke="midnightblue" d="M558.414,-15C566.876,-15 575.438,-15 583.835,-15"/>
<polygon fill="midnightblue" stroke="midnightblue" points="558.159,-11.5001 548.159,-15 558.159,-18.5001 558.159,-11.5001"/>
</g>
<!-- Node5 -->
<g id="node5" class="node"><title>Node5</title>
<g id="a_node5"><a xlink:href="../../d5/d56/class_workspace.html#a429d535dfd8427637b7715f0b1e1df1b" target="_top" xlink:title="Workspace.createWorkspace">
<polygon fill="white" stroke="black" points="782,-5.5 782,-24.5 934,-24.5 934,-5.5 782,-5.5"/>
<text text-anchor="middle" x="858" y="-12.5" font-family="Helvetica,sans-Serif" font-size="10.00">Workspace.createWorkspace</text>
</a>
</g>
</g>
<!-- Node4&#45;&gt;Node5 -->
<g id="edge4" class="edge"><title>Node4&#45;&gt;Node5</title>
<path fill="none" stroke="midnightblue" d="M756.223,-15C764.822,-15 773.479,-15 781.912,-15"/>
<polygon fill="midnightblue" stroke="midnightblue" points="756.171,-11.5001 746.171,-15 756.171,-18.5001 756.171,-11.5001"/>
</g>
<!-- Node6 -->
<g id="node6" class="node"><title>Node6</title>
<g id="a_node6"><a xlink:href="../../d0/d4b/class_main.html#aaa75b38812324d0f17c89f139bde6ada" target="_top" xlink:title="Main.start">
<polygon fill="white" stroke="black" points="970.5,-5.5 970.5,-24.5 1035.5,-24.5 1035.5,-5.5 970.5,-5.5"/>
<text text-anchor="middle" x="1003" y="-12.5" font-family="Helvetica,sans-Serif" font-size="10.00">Main.start</text>
</a>
</g>
</g>
<!-- Node5&#45;&gt;Node6 -->
<g id="edge5" class="edge"><title>Node5&#45;&gt;Node6</title>
<path fill="none" stroke="midnightblue" d="M944.392,-15C953.632,-15 962.551,-15 970.498,-15"/>
<polygon fill="midnightblue" stroke="midnightblue" points="944.269,-11.5001 934.269,-15 944.269,-18.5001 944.269,-11.5001"/>
</g>
</g>
</svg>
