<?xml version="1.0" encoding="UTF-8" standalone="no"?>
<!DOCTYPE svg PUBLIC "-//W3C//DTD SVG 1.1//EN"
 "http://www.w3.org/Graphics/SVG/1.1/DTD/svg11.dtd">
<!-- Generated by graphviz version 2.36.0 (20140111.2315)
 -->
<!-- Title: MovementAndImageAPI.src.TurtleHandler.updateTurtleLocation Pages: 1 -->
<svg width="1000pt" height="410pt"
 viewBox="0.00 0.00 1000.00 410.00" xmlns="http://www.w3.org/2000/svg" xmlns:xlink="http://www.w3.org/1999/xlink">
<g id="graph0" class="graph" transform="scale(1 1) rotate(0) translate(4 406)">
<title>MovementAndImageAPI.src.TurtleHandler.updateTurtleLocation</title>
<polygon fill="white" stroke="none" points="-4,4 -4,-406 996,-406 996,4 -4,4"/>
<!-- Node1 -->
<g id="node1" class="node"><title>Node1</title>
<polygon fill="#bfbfbf" stroke="black" points="0,-120 0,-150 182,-150 182,-120 0,-120"/>
<text text-anchor="start" x="8" y="-138" font-family="Helvetica,sans-Serif" font-size="10.00">MovementAndImageAPI.src.</text>
<text text-anchor="middle" x="91" y="-127" font-family="Helvetica,sans-Serif" font-size="10.00">TurtleHandler.updateTurtleLocation</text>
</g>
<!-- Node2 -->
<g id="node2" class="node"><title>Node2</title>
<g id="a_node2"><a xlink:href="../../d7/d43/class_movement_and_image_a_p_i_1_1src_1_1_turtle.html#af438d3cf63dc7584f43e470e56592cbb" target="_top" xlink:title="MovementAndImageAPI.src.\lTurtle.getPoint">
<polygon fill="white" stroke="black" points="218,-169 218,-199 370,-199 370,-169 218,-169"/>
<text text-anchor="start" x="226" y="-187" font-family="Helvetica,sans-Serif" font-size="10.00">MovementAndImageAPI.src.</text>
<text text-anchor="middle" x="294" y="-176" font-family="Helvetica,sans-Serif" font-size="10.00">Turtle.getPoint</text>
</a>
</g>
</g>
<!-- Node1&#45;&gt;Node2 -->
<g id="edge1" class="edge"><title>Node1&#45;&gt;Node2</title>
<path fill="none" stroke="midnightblue" d="M153.673,-150.035C175.088,-155.255 199.284,-161.154 221.43,-166.553"/>
<polygon fill="midnightblue" stroke="midnightblue" points="220.9,-170.026 231.444,-168.994 222.558,-163.225 220.9,-170.026"/>
</g>
<!-- Node3 -->
<g id="node3" class="node"><title>Node3</title>
<g id="a_node3"><a xlink:href="../../d4/d0f/class_movement_and_image_a_p_i_1_1src_1_1_turtle_handler.html#adf01534451c018bc6b767aa8d42689bb" target="_top" xlink:title="MovementAndImageAPI.src.\lTurtleHandler.moveAndDraw">
<polygon fill="white" stroke="black" points="218,-120 218,-150 370,-150 370,-120 218,-120"/>
<text text-anchor="start" x="226" y="-138" font-family="Helvetica,sans-Serif" font-size="10.00">MovementAndImageAPI.src.</text>
<text text-anchor="middle" x="294" y="-127" font-family="Helvetica,sans-Serif" font-size="10.00">TurtleHandler.moveAndDraw</text>
</a>
</g>
</g>
<!-- Node1&#45;&gt;Node3 -->
<g id="edge2" class="edge"><title>Node1&#45;&gt;Node3</title>
<path fill="none" stroke="midnightblue" d="M182.211,-135C190.669,-135 199.226,-135 207.638,-135"/>
<polygon fill="midnightblue" stroke="midnightblue" points="207.81,-138.5 217.81,-135 207.81,-131.5 207.81,-138.5"/>
</g>
<!-- Node24 -->
<g id="node24" class="node"><title>Node24</title>
<g id="a_node24"><a xlink:href="../../d7/d43/class_movement_and_image_a_p_i_1_1src_1_1_turtle.html#acc1b5c3035033c02d79b43b18d158b91" target="_top" xlink:title="MovementAndImageAPI.src.\lTurtle.updateLocation">
<polygon fill="white" stroke="black" points="218,-71 218,-101 370,-101 370,-71 218,-71"/>
<text text-anchor="start" x="226" y="-89" font-family="Helvetica,sans-Serif" font-size="10.00">MovementAndImageAPI.src.</text>
<text text-anchor="middle" x="294" y="-78" font-family="Helvetica,sans-Serif" font-size="10.00">Turtle.updateLocation</text>
</a>
</g>
</g>
<!-- Node1&#45;&gt;Node24 -->
<g id="edge27" class="edge"><title>Node1&#45;&gt;Node24</title>
<path fill="none" stroke="midnightblue" d="M153.673,-119.965C175.088,-114.745 199.284,-108.846 221.43,-103.447"/>
<polygon fill="midnightblue" stroke="midnightblue" points="222.558,-106.775 231.444,-101.006 220.9,-99.9743 222.558,-106.775"/>
</g>
<!-- Node4 -->
<g id="node4" class="node"><title>Node4</title>
<g id="a_node4"><a xlink:href="../../da/d31/class_movement_and_image_a_p_i_1_1src_1_1_image_updater.html#a194a73bcc0c675e5d7d9182847805455" target="_top" xlink:title="MovementAndImageAPI.src.\lImageUpdater.drawLine">
<polygon fill="white" stroke="black" points="419,-169 419,-199 571,-199 571,-169 419,-169"/>
<text text-anchor="start" x="427" y="-187" font-family="Helvetica,sans-Serif" font-size="10.00">MovementAndImageAPI.src.</text>
<text text-anchor="middle" x="495" y="-176" font-family="Helvetica,sans-Serif" font-size="10.00">ImageUpdater.drawLine</text>
</a>
</g>
</g>
<!-- Node3&#45;&gt;Node4 -->
<g id="edge3" class="edge"><title>Node3&#45;&gt;Node4</title>
<path fill="none" stroke="midnightblue" d="M356.059,-150.035C377.262,-155.255 401.216,-161.154 423.142,-166.553"/>
<polygon fill="midnightblue" stroke="midnightblue" points="422.51,-170.001 433.057,-168.994 424.183,-163.204 422.51,-170.001"/>
</g>
<!-- Node18 -->
<g id="node18" class="node"><title>Node18</title>
<g id="a_node18"><a xlink:href="../../d7/d43/class_movement_and_image_a_p_i_1_1src_1_1_turtle.html#a75d31c1ce4fcba5a04aec065d2403d39" target="_top" xlink:title="MovementAndImageAPI.src.\lTurtle.getImage">
<polygon fill="white" stroke="black" points="419,-71 419,-101 571,-101 571,-71 419,-71"/>
<text text-anchor="start" x="427" y="-89" font-family="Helvetica,sans-Serif" font-size="10.00">MovementAndImageAPI.src.</text>
<text text-anchor="middle" x="495" y="-78" font-family="Helvetica,sans-Serif" font-size="10.00">Turtle.getImage</text>
</a>
</g>
</g>
<!-- Node3&#45;&gt;Node18 -->
<g id="edge19" class="edge"><title>Node3&#45;&gt;Node18</title>
<path fill="none" stroke="midnightblue" d="M356.059,-119.965C377.262,-114.745 401.216,-108.846 423.142,-103.447"/>
<polygon fill="midnightblue" stroke="midnightblue" points="424.183,-106.796 433.057,-101.006 422.51,-99.9987 424.183,-106.796"/>
</g>
<!-- Node19 -->
<g id="node19" class="node"><title>Node19</title>
<g id="a_node19"><a xlink:href="../../d7/d43/class_movement_and_image_a_p_i_1_1src_1_1_turtle.html#a658cc4788ed8eb613b78ba56b7e2d4e3" target="_top" xlink:title="MovementAndImageAPI.src.\lTurtle.getPenHandler">
<polygon fill="white" stroke="black" points="419,-22 419,-52 571,-52 571,-22 419,-22"/>
<text text-anchor="start" x="427" y="-40" font-family="Helvetica,sans-Serif" font-size="10.00">MovementAndImageAPI.src.</text>
<text text-anchor="middle" x="495" y="-29" font-family="Helvetica,sans-Serif" font-size="10.00">Turtle.getPenHandler</text>
</a>
</g>
</g>
<!-- Node3&#45;&gt;Node19 -->
<g id="edge20" class="edge"><title>Node3&#45;&gt;Node19</title>
<path fill="none" stroke="midnightblue" d="M352.532,-119.988C358.709,-117.181 364.675,-113.878 370,-110 391.844,-94.0911 383.723,-76.2967 406,-61 408.17,-59.5098 410.43,-58.1119 412.758,-56.8006"/>
<polygon fill="midnightblue" stroke="midnightblue" points="414.656,-59.7647 422.033,-52.1603 411.524,-53.5044 414.656,-59.7647"/>
</g>
<!-- Node20 -->
<g id="node20" class="node"><title>Node20</title>
<g id="a_node20"><a xlink:href="../../d7/d43/class_movement_and_image_a_p_i_1_1src_1_1_turtle.html#a6a340f7cbda09ca810d01a1767150ba9" target="_top" xlink:title="MovementAndImageAPI.src.\lTurtle.getPenPosition">
<polygon fill="white" stroke="black" points="419,-120 419,-150 571,-150 571,-120 419,-120"/>
<text text-anchor="start" x="427" y="-138" font-family="Helvetica,sans-Serif" font-size="10.00">MovementAndImageAPI.src.</text>
<text text-anchor="middle" x="495" y="-127" font-family="Helvetica,sans-Serif" font-size="10.00">Turtle.getPenPosition</text>
</a>
</g>
</g>
<!-- Node3&#45;&gt;Node20 -->
<g id="edge21" class="edge"><title>Node3&#45;&gt;Node20</title>
<path fill="none" stroke="midnightblue" d="M370.233,-135C382.826,-135 395.972,-135 408.794,-135"/>
<polygon fill="midnightblue" stroke="midnightblue" points="408.99,-138.5 418.99,-135 408.99,-131.5 408.99,-138.5"/>
</g>
<!-- Node21 -->
<g id="node21" class="node"><title>Node21</title>
<g id="a_node21"><a xlink:href="../../da/d31/class_movement_and_image_a_p_i_1_1src_1_1_image_updater.html#adea0730f4ec25ebf5b16940420f9af0b" target="_top" xlink:title="MovementAndImageAPI.src.\lImageUpdater.updateTurtleImage">
<polygon fill="white" stroke="black" points="406.5,-323 406.5,-353 583.5,-353 583.5,-323 406.5,-323"/>
<text text-anchor="start" x="414.5" y="-341" font-family="Helvetica,sans-Serif" font-size="10.00">MovementAndImageAPI.src.</text>
<text text-anchor="middle" x="495" y="-330" font-family="Helvetica,sans-Serif" font-size="10.00">ImageUpdater.updateTurtleImage</text>
</a>
</g>
</g>
<!-- Node3&#45;&gt;Node21 -->
<g id="edge23" class="edge"><title>Node3&#45;&gt;Node21</title>
<path fill="none" stroke="midnightblue" d="M354.932,-150.111C360.266,-152.642 365.385,-155.583 370,-159 373.737,-161.767 445.021,-266.081 477.781,-314.165"/>
<polygon fill="midnightblue" stroke="midnightblue" points="475.085,-316.424 483.607,-322.72 480.87,-312.484 475.085,-316.424"/>
</g>
<!-- Node5 -->
<g id="node5" class="node"><title>Node5</title>
<g id="a_node5"><a xlink:href="../../da/d31/class_movement_and_image_a_p_i_1_1src_1_1_image_updater.html#a08e8ba7624dbce157332a73670072c78" target="_top" xlink:title="MovementAndImageAPI.src.\lImageUpdater.ensurePositive">
<polygon fill="white" stroke="black" points="630,-323 630,-353 788,-353 788,-323 630,-323"/>
<text text-anchor="start" x="638" y="-341" font-family="Helvetica,sans-Serif" font-size="10.00">MovementAndImageAPI.src.</text>
<text text-anchor="middle" x="709" y="-330" font-family="Helvetica,sans-Serif" font-size="10.00">ImageUpdater.ensurePositive</text>
</a>
</g>
</g>
<!-- Node4&#45;&gt;Node5 -->
<g id="edge4" class="edge"><title>Node4&#45;&gt;Node5</title>
<path fill="none" stroke="midnightblue" d="M507.315,-199.195C527.315,-225.052 571.414,-277.744 620,-308 626.819,-312.246 634.312,-315.975 641.96,-319.228"/>
<polygon fill="midnightblue" stroke="midnightblue" points="640.744,-322.511 651.33,-322.961 643.336,-316.008 640.744,-322.511"/>
</g>
<!-- Node6 -->
<g id="node6" class="node"><title>Node6</title>
<g id="a_node6"><a xlink:href="../../da/d31/class_movement_and_image_a_p_i_1_1src_1_1_image_updater.html#a049f8e63bcdbe91f5fad63c778030fb4" target="_top" xlink:title="MovementAndImageAPI.src.\lImageUpdater.findBoundaryPoint">
<polygon fill="white" stroke="black" points="621.5,-235 621.5,-265 796.5,-265 796.5,-235 621.5,-235"/>
<text text-anchor="start" x="629.5" y="-253" font-family="Helvetica,sans-Serif" font-size="10.00">MovementAndImageAPI.src.</text>
<text text-anchor="middle" x="709" y="-242" font-family="Helvetica,sans-Serif" font-size="10.00">ImageUpdater.findBoundaryPoint</text>
</a>
</g>
</g>
<!-- Node4&#45;&gt;Node6 -->
<g id="edge5" class="edge"><title>Node4&#45;&gt;Node6</title>
<path fill="none" stroke="midnightblue" d="M544.371,-199.059C575.737,-208.824 616.776,-221.6 649.907,-231.914"/>
<polygon fill="midnightblue" stroke="midnightblue" points="648.881,-235.261 659.47,-234.892 650.962,-228.577 648.881,-235.261"/>
</g>
<!-- Node8 -->
<g id="node8" class="node"><title>Node8</title>
<g id="a_node8"><a xlink:href="../../da/d31/class_movement_and_image_a_p_i_1_1src_1_1_image_updater.html#a03f6a2a06e7a7476405345f6fcb3dad5" target="_top" xlink:title="MovementAndImageAPI.src.\lImageUpdater.xOutOfBounds">
<polygon fill="white" stroke="black" points="834.5,-309 834.5,-339 991.5,-339 991.5,-309 834.5,-309"/>
<text text-anchor="start" x="842.5" y="-327" font-family="Helvetica,sans-Serif" font-size="10.00">MovementAndImageAPI.src.</text>
<text text-anchor="middle" x="913" y="-316" font-family="Helvetica,sans-Serif" font-size="10.00">ImageUpdater.xOutOfBounds</text>
</a>
</g>
</g>
<!-- Node4&#45;&gt;Node8 -->
<g id="edge17" class="edge"><title>Node4&#45;&gt;Node8</title>
<path fill="none" stroke="midnightblue" d="M511.741,-199.2C533.943,-219.695 576.61,-255.721 620,-274 655.989,-289.161 752.029,-303.929 824.213,-313.436"/>
<polygon fill="midnightblue" stroke="midnightblue" points="823.863,-316.92 834.232,-314.742 824.768,-309.978 823.863,-316.92"/>
</g>
<!-- Node10 -->
<g id="node10" class="node"><title>Node10</title>
<g id="a_node10"><a xlink:href="../../da/d31/class_movement_and_image_a_p_i_1_1src_1_1_image_updater.html#af0f2404b46ab5bd003906d97d8460654" target="_top" xlink:title="MovementAndImageAPI.src.\lImageUpdater.yOutOfBounds">
<polygon fill="white" stroke="black" points="834.5,-162 834.5,-192 991.5,-192 991.5,-162 834.5,-162"/>
<text text-anchor="start" x="842.5" y="-180" font-family="Helvetica,sans-Serif" font-size="10.00">MovementAndImageAPI.src.</text>
<text text-anchor="middle" x="913" y="-169" font-family="Helvetica,sans-Serif" font-size="10.00">ImageUpdater.yOutOfBounds</text>
</a>
</g>
</g>
<!-- Node4&#45;&gt;Node10 -->
<g id="edge18" class="edge"><title>Node4&#45;&gt;Node10</title>
<path fill="none" stroke="midnightblue" d="M571.117,-186.415C632.24,-187.918 720.723,-189.046 798,-186 806.576,-185.662 815.506,-185.182 824.427,-184.616"/>
<polygon fill="midnightblue" stroke="midnightblue" points="824.731,-188.104 834.475,-183.945 824.264,-181.119 824.731,-188.104"/>
</g>
<!-- Node11 -->
<g id="node11" class="node"><title>Node11</title>
<g id="a_node11"><a xlink:href="../../da/d31/class_movement_and_image_a_p_i_1_1src_1_1_image_updater.html#a99fe830ba09a4ee088ef04eebc1b2183" target="_top" xlink:title="MovementAndImageAPI.src.\lImageUpdater.findNewStartPoint">
<polygon fill="white" stroke="black" points="622.5,-147 622.5,-177 795.5,-177 795.5,-147 622.5,-147"/>
<text text-anchor="start" x="630.5" y="-165" font-family="Helvetica,sans-Serif" font-size="10.00">MovementAndImageAPI.src.</text>
<text text-anchor="middle" x="709" y="-154" font-family="Helvetica,sans-Serif" font-size="10.00">ImageUpdater.findNewStartPoint</text>
</a>
</g>
</g>
<!-- Node4&#45;&gt;Node11 -->
<g id="edge10" class="edge"><title>Node4&#45;&gt;Node11</title>
<path fill="none" stroke="midnightblue" d="M571.042,-176.213C584.365,-174.83 598.403,-173.373 612.208,-171.941"/>
<polygon fill="midnightblue" stroke="midnightblue" points="612.62,-175.417 622.205,-170.903 611.898,-168.454 612.62,-175.417"/>
</g>
<!-- Node12 -->
<g id="node12" class="node"><title>Node12</title>
<g id="a_node12"><a xlink:href="../../da/d8f/class_movement_and_image_a_p_i_1_1src_1_1_pen_handler.html#ab73c37fd9bab639a2253b5a5817387a9" target="_top" xlink:title="MovementAndImageAPI.src.\lPenHandler.getLineWidth">
<polygon fill="white" stroke="black" points="633,-98 633,-128 785,-128 785,-98 633,-98"/>
<text text-anchor="start" x="641" y="-116" font-family="Helvetica,sans-Serif" font-size="10.00">MovementAndImageAPI.src.</text>
<text text-anchor="middle" x="709" y="-105" font-family="Helvetica,sans-Serif" font-size="10.00">PenHandler.getLineWidth</text>
</a>
</g>
</g>
<!-- Node4&#45;&gt;Node12 -->
<g id="edge11" class="edge"><title>Node4&#45;&gt;Node12</title>
<path fill="none" stroke="midnightblue" d="M557.352,-168.898C566.43,-165.998 575.562,-162.694 584,-159 601.177,-151.48 602.784,-144.43 620,-137 624.696,-134.974 629.607,-133.076 634.606,-131.308"/>
<polygon fill="midnightblue" stroke="midnightblue" points="635.918,-134.56 644.29,-128.067 633.697,-127.922 635.918,-134.56"/>
</g>
<!-- Node14 -->
<g id="node14" class="node"><title>Node14</title>
<g id="a_node14"><a xlink:href="../../da/d8f/class_movement_and_image_a_p_i_1_1src_1_1_pen_handler.html#a64a9b8fde73c28f0683640b081d884f1" target="_top" xlink:title="MovementAndImageAPI.src.\lPenHandler.getPenColor">
<polygon fill="white" stroke="black" points="633,-49 633,-79 785,-79 785,-49 633,-49"/>
<text text-anchor="start" x="641" y="-67" font-family="Helvetica,sans-Serif" font-size="10.00">MovementAndImageAPI.src.</text>
<text text-anchor="middle" x="709" y="-56" font-family="Helvetica,sans-Serif" font-size="10.00">PenHandler.getPenColor</text>
</a>
</g>
</g>
<!-- Node4&#45;&gt;Node14 -->
<g id="edge13" class="edge"><title>Node4&#45;&gt;Node14</title>
<path fill="none" stroke="midnightblue" d="M568.626,-168.838C574.128,-166.087 579.342,-162.838 584,-159 611.306,-136.502 592.576,-110.354 620,-88 621.565,-86.7243 623.192,-85.5162 624.872,-84.372"/>
<polygon fill="midnightblue" stroke="midnightblue" points="626.839,-87.2751 633.66,-79.1678 623.272,-81.252 626.839,-87.2751"/>
</g>
<!-- Node16 -->
<g id="node16" class="node"><title>Node16</title>
<g id="a_node16"><a xlink:href="../../da/d8f/class_movement_and_image_a_p_i_1_1src_1_1_pen_handler.html#ad3f35e8b9605bde22fcbb5bc3e15cbf5" target="_top" xlink:title="MovementAndImageAPI.src.\lPenHandler.getPenPosition">
<polygon fill="white" stroke="black" points="633,-0 633,-30 785,-30 785,-0 633,-0"/>
<text text-anchor="start" x="641" y="-18" font-family="Helvetica,sans-Serif" font-size="10.00">MovementAndImageAPI.src.</text>
<text text-anchor="middle" x="709" y="-7" font-family="Helvetica,sans-Serif" font-size="10.00">PenHandler.getPenPosition</text>
</a>
</g>
</g>
<!-- Node4&#45;&gt;Node16 -->
<g id="edge15" class="edge"><title>Node4&#45;&gt;Node16</title>
<path fill="none" stroke="midnightblue" d="M570.663,-168.998C575.519,-166.204 580.041,-162.902 584,-159 623.66,-119.917 580.134,-77.8736 620,-39 621.446,-37.5904 622.965,-36.2617 624.549,-35.0093"/>
<polygon fill="midnightblue" stroke="midnightblue" points="626.598,-37.8487 632.941,-29.3622 622.691,-32.041 626.598,-37.8487"/>
</g>
<!-- Node7 -->
<g id="node7" class="node"><title>Node7</title>
<g id="a_node7"><a xlink:href="../../da/d31/class_movement_and_image_a_p_i_1_1src_1_1_image_updater.html#a24866e7c0871e72ff9bb226fa477ee2b" target="_top" xlink:title="MovementAndImageAPI.src.\lImageUpdater.xBoundary">
<polygon fill="white" stroke="black" points="837,-260 837,-290 989,-290 989,-260 837,-260"/>
<text text-anchor="start" x="845" y="-278" font-family="Helvetica,sans-Serif" font-size="10.00">MovementAndImageAPI.src.</text>
<text text-anchor="middle" x="913" y="-267" font-family="Helvetica,sans-Serif" font-size="10.00">ImageUpdater.xBoundary</text>
</a>
</g>
</g>
<!-- Node6&#45;&gt;Node7 -->
<g id="edge6" class="edge"><title>Node6&#45;&gt;Node7</title>
<path fill="none" stroke="midnightblue" d="M796.545,-260.711C806.584,-261.953 816.818,-263.22 826.838,-264.46"/>
<polygon fill="midnightblue" stroke="midnightblue" points="826.418,-267.935 836.772,-265.69 827.278,-260.988 826.418,-267.935"/>
</g>
<!-- Node6&#45;&gt;Node8 -->
<g id="edge7" class="edge"><title>Node6&#45;&gt;Node8</title>
<path fill="none" stroke="midnightblue" d="M758.474,-265.003C771.467,-269.436 785.401,-274.568 798,-280 814.613,-287.163 817.322,-291.99 834,-299 839.459,-301.294 845.205,-303.504 851.002,-305.595"/>
<polygon fill="midnightblue" stroke="midnightblue" points="850.167,-309.011 860.762,-308.998 852.471,-302.401 850.167,-309.011"/>
</g>
<!-- Node9 -->
<g id="node9" class="node"><title>Node9</title>
<g id="a_node9"><a xlink:href="../../da/d31/class_movement_and_image_a_p_i_1_1src_1_1_image_updater.html#ad79a0592d012a80c6db9c91909440415" target="_top" xlink:title="MovementAndImageAPI.src.\lImageUpdater.yBoundary">
<polygon fill="white" stroke="black" points="837,-211 837,-241 989,-241 989,-211 837,-211"/>
<text text-anchor="start" x="845" y="-229" font-family="Helvetica,sans-Serif" font-size="10.00">MovementAndImageAPI.src.</text>
<text text-anchor="middle" x="913" y="-218" font-family="Helvetica,sans-Serif" font-size="10.00">ImageUpdater.yBoundary</text>
</a>
</g>
</g>
<!-- Node6&#45;&gt;Node9 -->
<g id="edge8" class="edge"><title>Node6&#45;&gt;Node9</title>
<path fill="none" stroke="midnightblue" d="M796.545,-239.717C806.584,-238.525 816.818,-237.309 826.838,-236.118"/>
<polygon fill="midnightblue" stroke="midnightblue" points="827.255,-239.593 836.772,-234.938 826.429,-232.642 827.255,-239.593"/>
</g>
<!-- Node6&#45;&gt;Node10 -->
<g id="edge9" class="edge"><title>Node6&#45;&gt;Node10</title>
<path fill="none" stroke="midnightblue" d="M757.937,-234.967C771.06,-230.499 785.193,-225.356 798,-220 814.503,-213.098 817.434,-208.75 834,-202 839.704,-199.676 845.71,-197.423 851.754,-195.283"/>
<polygon fill="midnightblue" stroke="midnightblue" points="852.925,-198.581 861.243,-192.02 850.649,-191.962 852.925,-198.581"/>
</g>
<!-- Node13 -->
<g id="node13" class="node"><title>Node13</title>
<g id="a_node13"><a xlink:href="../../d2/d78/class_movement_and_image_a_p_i_1_1src_1_1_pen.html#aecf75855f964eb9eb238cae05df975a6" target="_top" xlink:title="MovementAndImageAPI.src.\lPen.getLineWidth">
<polygon fill="white" stroke="black" points="837,-98 837,-128 989,-128 989,-98 837,-98"/>
<text text-anchor="start" x="845" y="-116" font-family="Helvetica,sans-Serif" font-size="10.00">MovementAndImageAPI.src.</text>
<text text-anchor="middle" x="913" y="-105" font-family="Helvetica,sans-Serif" font-size="10.00">Pen.getLineWidth</text>
</a>
</g>
</g>
<!-- Node12&#45;&gt;Node13 -->
<g id="edge12" class="edge"><title>Node12&#45;&gt;Node13</title>
<path fill="none" stroke="midnightblue" d="M785.217,-113C798.625,-113 812.683,-113 826.356,-113"/>
<polygon fill="midnightblue" stroke="midnightblue" points="826.72,-116.5 836.72,-113 826.72,-109.5 826.72,-116.5"/>
</g>
<!-- Node15 -->
<g id="node15" class="node"><title>Node15</title>
<g id="a_node15"><a xlink:href="../../d2/d78/class_movement_and_image_a_p_i_1_1src_1_1_pen.html#a8d076af52cf4510ecda7a874ee978fc2" target="_top" xlink:title="MovementAndImageAPI.src.\lPen.getPenColor">
<polygon fill="white" stroke="black" points="837,-49 837,-79 989,-79 989,-49 837,-49"/>
<text text-anchor="start" x="845" y="-67" font-family="Helvetica,sans-Serif" font-size="10.00">MovementAndImageAPI.src.</text>
<text text-anchor="middle" x="913" y="-56" font-family="Helvetica,sans-Serif" font-size="10.00">Pen.getPenColor</text>
</a>
</g>
</g>
<!-- Node14&#45;&gt;Node15 -->
<g id="edge14" class="edge"><title>Node14&#45;&gt;Node15</title>
<path fill="none" stroke="midnightblue" d="M785.217,-64C798.625,-64 812.683,-64 826.356,-64"/>
<polygon fill="midnightblue" stroke="midnightblue" points="826.72,-67.5001 836.72,-64 826.72,-60.5001 826.72,-67.5001"/>
</g>
<!-- Node17 -->
<g id="node17" class="node"><title>Node17</title>
<g id="a_node17"><a xlink:href="../../d2/d78/class_movement_and_image_a_p_i_1_1src_1_1_pen.html#a3f3cdbaef2a7328e6051567cc29975fb" target="_top" xlink:title="MovementAndImageAPI.src.\lPen.getPenPosition">
<polygon fill="white" stroke="black" points="837,-0 837,-30 989,-30 989,-0 837,-0"/>
<text text-anchor="start" x="845" y="-18" font-family="Helvetica,sans-Serif" font-size="10.00">MovementAndImageAPI.src.</text>
<text text-anchor="middle" x="913" y="-7" font-family="Helvetica,sans-Serif" font-size="10.00">Pen.getPenPosition</text>
</a>
</g>
</g>
<!-- Node16&#45;&gt;Node17 -->
<g id="edge16" class="edge"><title>Node16&#45;&gt;Node17</title>
<path fill="none" stroke="midnightblue" d="M785.217,-15C798.625,-15 812.683,-15 826.356,-15"/>
<polygon fill="midnightblue" stroke="midnightblue" points="826.72,-18.5001 836.72,-15 826.72,-11.5001 826.72,-18.5001"/>
</g>
<!-- Node20&#45;&gt;Node16 -->
<g id="edge22" class="edge"><title>Node20&#45;&gt;Node16</title>
<path fill="none" stroke="midnightblue" d="M568.626,-119.838C574.128,-117.087 579.342,-113.838 584,-110 611.306,-87.502 592.576,-61.3537 620,-39 621.565,-37.7243 623.192,-36.5162 624.872,-35.372"/>
<polygon fill="midnightblue" stroke="midnightblue" points="626.839,-38.2751 633.66,-30.1678 623.272,-32.252 626.839,-38.2751"/>
</g>
<!-- Node21&#45;&gt;Node5 -->
<g id="edge26" class="edge"><title>Node21&#45;&gt;Node5</title>
<path fill="none" stroke="midnightblue" d="M583.759,-338C595.565,-338 607.682,-338 619.5,-338"/>
<polygon fill="midnightblue" stroke="midnightblue" points="619.794,-341.5 629.794,-338 619.794,-334.5 619.794,-341.5"/>
</g>
<!-- Node22 -->
<g id="node22" class="node"><title>Node22</title>
<g id="a_node22"><a xlink:href="../../da/d31/class_movement_and_image_a_p_i_1_1src_1_1_image_updater.html#a581e045297ecf935c75512c1198703b3" target="_top" xlink:title="MovementAndImageAPI.src.\lImageUpdater.drawRotatedImage">
<polygon fill="white" stroke="black" points="620.5,-372 620.5,-402 797.5,-402 797.5,-372 620.5,-372"/>
<text text-anchor="start" x="628.5" y="-390" font-family="Helvetica,sans-Serif" font-size="10.00">MovementAndImageAPI.src.</text>
<text text-anchor="middle" x="709" y="-379" font-family="Helvetica,sans-Serif" font-size="10.00">ImageUpdater.drawRotatedImage</text>
</a>
</g>
</g>
<!-- Node21&#45;&gt;Node22 -->
<g id="edge24" class="edge"><title>Node21&#45;&gt;Node22</title>
<path fill="none" stroke="midnightblue" d="M561.048,-353.035C583.839,-358.302 609.615,-364.26 633.144,-369.698"/>
<polygon fill="midnightblue" stroke="midnightblue" points="632.544,-373.152 643.075,-371.994 634.12,-366.332 632.544,-373.152"/>
</g>
<!-- Node23 -->
<g id="node23" class="node"><title>Node23</title>
<g id="a_node23"><a xlink:href="../../da/d31/class_movement_and_image_a_p_i_1_1src_1_1_image_updater.html#a2368721809649636ad6dce3c008a6d62" target="_top" xlink:title="MovementAndImageAPI.src.\lImageUpdater.rotate">
<polygon fill="white" stroke="black" points="837,-372 837,-402 989,-402 989,-372 837,-372"/>
<text text-anchor="start" x="845" y="-390" font-family="Helvetica,sans-Serif" font-size="10.00">MovementAndImageAPI.src.</text>
<text text-anchor="middle" x="913" y="-379" font-family="Helvetica,sans-Serif" font-size="10.00">ImageUpdater.rotate</text>
</a>
</g>
</g>
<!-- Node22&#45;&gt;Node23 -->
<g id="edge25" class="edge"><title>Node22&#45;&gt;Node23</title>
<path fill="none" stroke="midnightblue" d="M797.719,-387C807.258,-387 816.958,-387 826.471,-387"/>
<polygon fill="midnightblue" stroke="midnightblue" points="826.703,-390.5 836.703,-387 826.703,-383.5 826.703,-390.5"/>
</g>
</g>
</svg>
