<?xml version="1.0" encoding="UTF-8" standalone="no"?>
<!DOCTYPE svg PUBLIC "-//W3C//DTD SVG 1.1//EN"
 "http://www.w3.org/Graphics/SVG/1.1/DTD/svg11.dtd">
<!-- Generated by graphviz version 2.36.0 (20140111.2315)
 -->
<!-- Title: MovementAndImageAPI.src.TurtleHandler.updateTurtleOrientation Pages: 1 -->
<!--zoomable 234 -->
<svg id="main" version="1.1" xmlns="http://www.w3.org/2000/svg" xmlns:xlink="http://www.w3.org/1999/xlink" xml:space="preserve" onload="init(evt)">
<style type="text/css"><![CDATA[
.edge:hover path { stroke: red; }
.edge:hover polygon { stroke: red; fill: red; }
]]></style>
<script type="text/javascript"><![CDATA[
var edges = document.getElementsByTagName('g');
if (edges && edges.length) {
  for (var i=0;i<edges.length;i++) {
    if (edges[i].id.substr(0,4)=='edge') {
      edges[i].setAttribute('class','edge');
    }
  }
}
]]></script>
        <defs>
                <circle id="rim" cx="0" cy="0" r="7"/>
                <circle id="rim2" cx="0" cy="0" r="3.5"/>
                <g id="zoomPlus">
                        <use xlink:href="#rim" fill="#404040">
                                <set attributeName="fill" to="#808080" begin="zoomplus.mouseover" end="zoomplus.mouseout"/>
                        </use>
                        <path d="M-4,0h8M0,-4v8" fill="none" stroke="white" stroke-width="1.5" pointer-events="none"/>
                </g>
                <g id="zoomMin">
                        <use xlink:href="#rim" fill="#404040">
                                <set attributeName="fill" to="#808080" begin="zoomminus.mouseover" end="zoomminus.mouseout"/>
                        </use>
                        <path d="M-4,0h8" fill="none" stroke="white" stroke-width="1.5" pointer-events="none"/>
                </g>
                <g id="dirArrow">
                        <path fill="none" stroke="white" stroke-width="1.5" d="M0,-3.0v7 M-2.5,-0.5L0,-3.0L2.5,-0.5"/>
                </g>
               <g id="resetDef">
                       <use xlink:href="#rim2" fill="#404040">
                               <set attributeName="fill" to="#808080" begin="reset.mouseover" end="reset.mouseout"/>
                       </use>
               </g>
        </defs>

<script type="text/javascript">
var viewWidth = 834;
var viewHeight = 234;
var sectionId = 'dynsection-27';
</script>
<script xlink:href="../../svgpan.js"/>
<svg id="graph" class="graph">
<g id="viewport">
<title>MovementAndImageAPI.src.TurtleHandler.updateTurtleOrientation</title>
<polygon fill="white" stroke="none" points="-4,4 -4,-230 830,-230 830,4 -4,4"/>
<!-- Node1 -->
<g id="node1" class="node"><title>Node1</title>
<polygon fill="#bfbfbf" stroke="black" points="0,-122 0,-152 194,-152 194,-122 0,-122"/>
<text text-anchor="start" x="8" y="-140" font-family="Helvetica,sans-Serif" font-size="10.00">MovementAndImageAPI.src.</text>
<text text-anchor="middle" x="97" y="-129" font-family="Helvetica,sans-Serif" font-size="10.00">TurtleHandler.updateTurtleOrientation</text>
</g>
<!-- Node2 -->
<g id="node2" class="node"><title>Node2</title>
<g id="a_node2"><a xlink:href="../../d7/d43/class_movement_and_image_a_p_i_1_1src_1_1_turtle.html#a75d31c1ce4fcba5a04aec065d2403d39" target="_top" xlink:title="MovementAndImageAPI.src.\lTurtle.getImage">
<polygon fill="white" stroke="black" points="243,-196 243,-226 395,-226 395,-196 243,-196"/>
<text text-anchor="start" x="251" y="-214" font-family="Helvetica,sans-Serif" font-size="10.00">MovementAndImageAPI.src.</text>
<text text-anchor="middle" x="319" y="-203" font-family="Helvetica,sans-Serif" font-size="10.00">Turtle.getImage</text>
</a>
</g>
</g>
<!-- Node1&#45;&gt;Node2 -->
<g id="edge1" class="edge"><title>Node1&#45;&gt;Node2</title>
<path fill="none" stroke="midnightblue" d="M136.131,-152.061C162.345,-162.19 198.054,-175.551 230,-186 237.324,-188.395 245.032,-190.781 252.716,-193.074"/>
<polygon fill="midnightblue" stroke="midnightblue" points="251.825,-196.46 262.406,-195.923 253.799,-189.744 251.825,-196.46"/>
</g>
<!-- Node3 -->
<g id="node3" class="node"><title>Node3</title>
<g id="a_node3"><a xlink:href="../../d7/d43/class_movement_and_image_a_p_i_1_1src_1_1_turtle.html#af438d3cf63dc7584f43e470e56592cbb" target="_top" xlink:title="MovementAndImageAPI.src.\lTurtle.getPoint">
<polygon fill="white" stroke="black" points="243,-147 243,-177 395,-177 395,-147 243,-147"/>
<text text-anchor="start" x="251" y="-165" font-family="Helvetica,sans-Serif" font-size="10.00">MovementAndImageAPI.src.</text>
<text text-anchor="middle" x="319" y="-154" font-family="Helvetica,sans-Serif" font-size="10.00">Turtle.getPoint</text>
</a>
</g>
</g>
<!-- Node1&#45;&gt;Node3 -->
<g id="edge2" class="edge"><title>Node1&#45;&gt;Node3</title>
<path fill="none" stroke="midnightblue" d="M194.175,-147.929C207.039,-149.391 220.159,-150.882 232.817,-152.32"/>
<polygon fill="midnightblue" stroke="midnightblue" points="232.524,-155.809 242.855,-153.461 233.314,-148.854 232.524,-155.809"/>
</g>
<!-- Node4 -->
<g id="node4" class="node"><title>Node4</title>
<g id="a_node4"><a xlink:href="../../d7/d43/class_movement_and_image_a_p_i_1_1src_1_1_turtle.html#ad607139e3733cfdfc37a7c4388b4a907" target="_top" xlink:title="MovementAndImageAPI.src.\lTurtle.updateOrientation">
<polygon fill="white" stroke="black" points="243,-98 243,-128 395,-128 395,-98 243,-98"/>
<text text-anchor="start" x="251" y="-116" font-family="Helvetica,sans-Serif" font-size="10.00">MovementAndImageAPI.src.</text>
<text text-anchor="middle" x="319" y="-105" font-family="Helvetica,sans-Serif" font-size="10.00">Turtle.updateOrientation</text>
</a>
</g>
</g>
<!-- Node1&#45;&gt;Node4 -->
<g id="edge3" class="edge"><title>Node1&#45;&gt;Node4</title>
<path fill="none" stroke="midnightblue" d="M194.175,-126.508C207.039,-125.105 220.159,-123.674 232.817,-122.293"/>
<polygon fill="midnightblue" stroke="midnightblue" points="233.294,-125.762 242.855,-121.198 232.535,-118.803 233.294,-125.762"/>
</g>
<!-- Node7 -->
<g id="node7" class="node"><title>Node7</title>
<g id="a_node7"><a xlink:href="../../da/d31/class_movement_and_image_a_p_i_1_1src_1_1_image_updater.html#adea0730f4ec25ebf5b16940420f9af0b" target="_top" xlink:title="MovementAndImageAPI.src.\lImageUpdater.updateTurtleImage">
<polygon fill="white" stroke="black" points="230.5,-49 230.5,-79 407.5,-79 407.5,-49 230.5,-49"/>
<text text-anchor="start" x="238.5" y="-67" font-family="Helvetica,sans-Serif" font-size="10.00">MovementAndImageAPI.src.</text>
<text text-anchor="middle" x="319" y="-56" font-family="Helvetica,sans-Serif" font-size="10.00">ImageUpdater.updateTurtleImage</text>
</a>
</g>
</g>
<!-- Node1&#45;&gt;Node7 -->
<g id="edge6" class="edge"><title>Node1&#45;&gt;Node7</title>
<path fill="none" stroke="midnightblue" d="M137.021,-121.974C163.164,-112.114 198.446,-99.2047 230,-89 237.332,-86.629 245.045,-84.2587 252.732,-81.9742"/>
<polygon fill="midnightblue" stroke="midnightblue" points="253.813,-85.3047 262.424,-79.1326 251.843,-78.5875 253.813,-85.3047"/>
</g>
<!-- Node5 -->
<g id="node5" class="node"><title>Node5</title>
<g id="a_node5"><a xlink:href="../../d7/d43/class_movement_and_image_a_p_i_1_1src_1_1_turtle.html#a79610d6c6d05b070331c32cee99d69a9" target="_top" xlink:title="MovementAndImageAPI.src.\lTurtle.finishRotation">
<polygon fill="white" stroke="black" points="457,-98 457,-128 609,-128 609,-98 457,-98"/>
<text text-anchor="start" x="465" y="-116" font-family="Helvetica,sans-Serif" font-size="10.00">MovementAndImageAPI.src.</text>
<text text-anchor="middle" x="533" y="-105" font-family="Helvetica,sans-Serif" font-size="10.00">Turtle.finishRotation</text>
</a>
</g>
</g>
<!-- Node4&#45;&gt;Node5 -->
<g id="edge4" class="edge"><title>Node4&#45;&gt;Node5</title>
<path fill="none" stroke="midnightblue" d="M395.042,-113C411.613,-113 429.291,-113 446.251,-113"/>
<polygon fill="midnightblue" stroke="midnightblue" points="446.702,-116.5 456.702,-113 446.702,-109.5 446.702,-116.5"/>
</g>
<!-- Node6 -->
<g id="node6" class="node"><title>Node6</title>
<g id="a_node6"><a xlink:href="../../d7/d43/class_movement_and_image_a_p_i_1_1src_1_1_turtle.html#a1e1b79caf9191f2b467d6a50bfeca3df" target="_top" xlink:title="MovementAndImageAPI.src.\lTurtle.ensurePositiveOrientation">
<polygon fill="white" stroke="black" points="658,-98 658,-128 826,-128 826,-98 658,-98"/>
<text text-anchor="start" x="666" y="-116" font-family="Helvetica,sans-Serif" font-size="10.00">MovementAndImageAPI.src.</text>
<text text-anchor="middle" x="742" y="-105" font-family="Helvetica,sans-Serif" font-size="10.00">Turtle.ensurePositiveOrientation</text>
</a>
</g>
</g>
<!-- Node5&#45;&gt;Node6 -->
<g id="edge5" class="edge"><title>Node5&#45;&gt;Node6</title>
<path fill="none" stroke="midnightblue" d="M609.024,-113C621.532,-113 634.641,-113 647.541,-113"/>
<polygon fill="midnightblue" stroke="midnightblue" points="647.825,-116.5 657.825,-113 647.825,-109.5 647.825,-116.5"/>
</g>
<!-- Node8 -->
<g id="node8" class="node"><title>Node8</title>
<g id="a_node8"><a xlink:href="../../da/d31/class_movement_and_image_a_p_i_1_1src_1_1_image_updater.html#a581e045297ecf935c75512c1198703b3" target="_top" xlink:title="MovementAndImageAPI.src.\lImageUpdater.drawRotatedImage">
<polygon fill="white" stroke="black" points="444.5,-49 444.5,-79 621.5,-79 621.5,-49 444.5,-49"/>
<text text-anchor="start" x="452.5" y="-67" font-family="Helvetica,sans-Serif" font-size="10.00">MovementAndImageAPI.src.</text>
<text text-anchor="middle" x="533" y="-56" font-family="Helvetica,sans-Serif" font-size="10.00">ImageUpdater.drawRotatedImage</text>
</a>
</g>
</g>
<!-- Node7&#45;&gt;Node8 -->
<g id="edge7" class="edge"><title>Node7&#45;&gt;Node8</title>
<path fill="none" stroke="midnightblue" d="M407.759,-64C416.437,-64 425.284,-64 434.057,-64"/>
<polygon fill="midnightblue" stroke="midnightblue" points="434.307,-67.5001 444.307,-64 434.307,-60.5001 434.307,-67.5001"/>
</g>
<!-- Node10 -->
<g id="node10" class="node"><title>Node10</title>
<g id="a_node10"><a xlink:href="../../da/d31/class_movement_and_image_a_p_i_1_1src_1_1_image_updater.html#a08e8ba7624dbce157332a73670072c78" target="_top" xlink:title="MovementAndImageAPI.src.\lImageUpdater.ensurePositive">
<polygon fill="white" stroke="black" points="454,-0 454,-30 612,-30 612,-0 454,-0"/>
<text text-anchor="start" x="462" y="-18" font-family="Helvetica,sans-Serif" font-size="10.00">MovementAndImageAPI.src.</text>
<text text-anchor="middle" x="533" y="-7" font-family="Helvetica,sans-Serif" font-size="10.00">ImageUpdater.ensurePositive</text>
</a>
</g>
</g>
<!-- Node7&#45;&gt;Node10 -->
<g id="edge9" class="edge"><title>Node7&#45;&gt;Node10</title>
<path fill="none" stroke="midnightblue" d="M385.048,-48.9654C407.839,-43.6976 433.615,-37.7399 457.144,-32.3016"/>
<polygon fill="midnightblue" stroke="midnightblue" points="458.12,-35.6683 467.075,-30.0062 456.544,-28.8481 458.12,-35.6683"/>
</g>
<!-- Node9 -->
<g id="node9" class="node"><title>Node9</title>
<g id="a_node9"><a xlink:href="../../da/d31/class_movement_and_image_a_p_i_1_1src_1_1_image_updater.html#a2368721809649636ad6dce3c008a6d62" target="_top" xlink:title="MovementAndImageAPI.src.\lImageUpdater.rotate">
<polygon fill="white" stroke="black" points="666,-49 666,-79 818,-79 818,-49 666,-49"/>
<text text-anchor="start" x="674" y="-67" font-family="Helvetica,sans-Serif" font-size="10.00">MovementAndImageAPI.src.</text>
<text text-anchor="middle" x="742" y="-56" font-family="Helvetica,sans-Serif" font-size="10.00">ImageUpdater.rotate</text>
</a>
</g>
</g>
<!-- Node8&#45;&gt;Node9 -->
<g id="edge8" class="edge"><title>Node8&#45;&gt;Node9</title>
<path fill="none" stroke="midnightblue" d="M621.787,-64C633.007,-64 644.48,-64 655.661,-64"/>
<polygon fill="midnightblue" stroke="midnightblue" points="655.831,-67.5001 665.831,-64 655.831,-60.5001 655.831,-67.5001"/>
</g>
</g>
</svg>
        <g id="navigator" transform="translate(0 0)" fill="#404254">
                <rect fill="#f2f5e9" fill-opacity="0.5" stroke="#606060" stroke-width=".5" x="0" y="0" width="60" height="60"/>
                <use id="zoomplus" xlink:href="#zoomPlus" x="17" y="9" onmousedown="handleZoom(evt,'in')"/>
                <use id="zoomminus" xlink:href="#zoomMin" x="42" y="9" onmousedown="handleZoom(evt,'out')"/>
                <use id="reset" xlink:href="#resetDef" x="30" y="36" onmousedown="handleReset()"/>
                <g id="arrowUp" xlink:href="#dirArrow" transform="translate(30 24)" onmousedown="handlePan(0,-1)">
                  <use xlink:href="#rim" fill="#404040">
                        <set attributeName="fill" to="#808080" begin="arrowUp.mouseover" end="arrowUp.mouseout"/>
                  </use>
                  <path fill="none" stroke="white" stroke-width="1.5" d="M0,-3.0v7 M-2.5,-0.5L0,-3.0L2.5,-0.5"/>
                </g>
                <g id="arrowRight" xlink:href="#dirArrow" transform="rotate(90) translate(36 -43)" onmousedown="handlePan(1,0)">
                  <use xlink:href="#rim" fill="#404040">
                        <set attributeName="fill" to="#808080" begin="arrowRight.mouseover" end="arrowRight.mouseout"/>
                  </use>
                  <path fill="none" stroke="white" stroke-width="1.5" d="M0,-3.0v7 M-2.5,-0.5L0,-3.0L2.5,-0.5"/>
                </g>
                <g id="arrowDown" xlink:href="#dirArrow" transform="rotate(180) translate(-30 -48)" onmousedown="handlePan(0,1)">
                  <use xlink:href="#rim" fill="#404040">
                        <set attributeName="fill" to="#808080" begin="arrowDown.mouseover" end="arrowDown.mouseout"/>
                  </use>
                  <path fill="none" stroke="white" stroke-width="1.5" d="M0,-3.0v7 M-2.5,-0.5L0,-3.0L2.5,-0.5"/>
                </g>
                <g id="arrowLeft" xlink:href="#dirArrow" transform="rotate(270) translate(-36 17)" onmousedown="handlePan(-1,0)">
                  <use xlink:href="#rim" fill="#404040">
                        <set attributeName="fill" to="#808080" begin="arrowLeft.mouseover" end="arrowLeft.mouseout"/>
                  </use>
                  <path fill="none" stroke="white" stroke-width="1.5" d="M0,-3.0v7 M-2.5,-0.5L0,-3.0L2.5,-0.5"/>
                </g>
        </g>
        <svg viewBox="0 0 15 15" width="100%" height="30px" preserveAspectRatio="xMaxYMin meet">
         <g id="arrow_out" transform="scale(0.3 0.3)">
          <a xlink:href="class_movement_and_image_a_p_i_1_1src_1_1_turtle_handler_af8be08b68068574b061f2e3a2f02c524_cgraph_org.svg" target="_base">
           <rect id="button" ry="5" rx="5" y="6" x="6" height="38" width="38"
                fill="#f2f5e9" fill-opacity="0.5" stroke="#606060" stroke-width="1.0"/>
           <path id="arrow"
             d="M 11.500037,31.436501 C 11.940474,20.09759 22.043105,11.32322 32.158766,21.979434 L 37.068811,17.246167 C 37.068811,17.246167 37.088388,32 37.088388,32 L 22.160133,31.978069 C 22.160133,31.978069 26.997745,27.140456 26.997745,27.140456 C 18.528582,18.264221 13.291696,25.230495 11.500037,31.436501 z"
             style="fill:#404040;"/>
          </a>
         </g>
        </svg>
</svg>
