<?xml version="1.0" encoding="UTF-8" standalone="no"?>
<!DOCTYPE svg PUBLIC "-//W3C//DTD SVG 1.1//EN"
 "http://www.w3.org/Graphics/SVG/1.1/DTD/svg11.dtd">
<!-- Generated by graphviz version 2.36.0 (20140111.2315)
 -->
<!-- Title: MovementAndImageAPI.src.TurtleHandler.updateTurtleAbsoluteOrientation Pages: 1 -->
<svg width="824pt" height="234pt"
 viewBox="0.00 0.00 824.00 234.00" xmlns="http://www.w3.org/2000/svg" xmlns:xlink="http://www.w3.org/1999/xlink">
<g id="graph0" class="graph" transform="scale(1 1) rotate(0) translate(4 230)">
<title>MovementAndImageAPI.src.TurtleHandler.updateTurtleAbsoluteOrientation</title>
<polygon fill="white" stroke="none" points="-4,4 -4,-230 820,-230 820,4 -4,4"/>
<!-- Node1 -->
<g id="node1" class="node"><title>Node1</title>
<polygon fill="#bfbfbf" stroke="black" points="0.5,-116.5 0.5,-157.5 183.5,-157.5 183.5,-116.5 0.5,-116.5"/>
<text text-anchor="start" x="8.5" y="-145.5" font-family="Helvetica,sans-Serif" font-size="10.00">MovementAndImageAPI.src.</text>
<text text-anchor="start" x="8.5" y="-134.5" font-family="Helvetica,sans-Serif" font-size="10.00">TurtleHandler.updateTurtleAbsolute</text>
<text text-anchor="middle" x="92" y="-123.5" font-family="Helvetica,sans-Serif" font-size="10.00">Orientation</text>
</g>
<!-- Node2 -->
<g id="node2" class="node"><title>Node2</title>
<g id="a_node2"><a xlink:href="../../d7/d43/class_movement_and_image_a_p_i_1_1src_1_1_turtle.html#a75d31c1ce4fcba5a04aec065d2403d39" target="_top" xlink:title="MovementAndImageAPI.src.\lTurtle.getImage">
<polygon fill="white" stroke="black" points="233,-196 233,-226 385,-226 385,-196 233,-196"/>
<text text-anchor="start" x="241" y="-214" font-family="Helvetica,sans-Serif" font-size="10.00">MovementAndImageAPI.src.</text>
<text text-anchor="middle" x="309" y="-203" font-family="Helvetica,sans-Serif" font-size="10.00">Turtle.getImage</text>
</a>
</g>
</g>
<!-- Node1&#45;&gt;Node2 -->
<g id="edge1" class="edge"><title>Node1&#45;&gt;Node2</title>
<path fill="none" stroke="midnightblue" d="M142.986,-157.501C166.223,-166.717 194.336,-177.423 220,-186 227.122,-188.38 234.615,-190.734 242.099,-192.99"/>
<polygon fill="midnightblue" stroke="midnightblue" points="241.319,-196.409 251.901,-195.893 243.307,-189.697 241.319,-196.409"/>
</g>
<!-- Node3 -->
<g id="node3" class="node"><title>Node3</title>
<g id="a_node3"><a xlink:href="../../d7/d43/class_movement_and_image_a_p_i_1_1src_1_1_turtle.html#af438d3cf63dc7584f43e470e56592cbb" target="_top" xlink:title="MovementAndImageAPI.src.\lTurtle.getPoint">
<polygon fill="white" stroke="black" points="233,-147 233,-177 385,-177 385,-147 233,-147"/>
<text text-anchor="start" x="241" y="-165" font-family="Helvetica,sans-Serif" font-size="10.00">MovementAndImageAPI.src.</text>
<text text-anchor="middle" x="309" y="-154" font-family="Helvetica,sans-Serif" font-size="10.00">Turtle.getPoint</text>
</a>
</g>
</g>
<!-- Node1&#45;&gt;Node3 -->
<g id="edge2" class="edge"><title>Node1&#45;&gt;Node3</title>
<path fill="none" stroke="midnightblue" d="M183.556,-147.53C196.505,-149.036 209.791,-150.58 222.636,-152.074"/>
<polygon fill="midnightblue" stroke="midnightblue" points="222.491,-155.581 232.828,-153.259 223.299,-148.627 222.491,-155.581"/>
</g>
<!-- Node4 -->
<g id="node4" class="node"><title>Node4</title>
<g id="a_node4"><a xlink:href="../../d7/d43/class_movement_and_image_a_p_i_1_1src_1_1_turtle.html#a0fcf334951cc9357c73e968707cab8d0" target="_top" xlink:title="MovementAndImageAPI.src.\lTurtle.updateAbsoluteOrientation">
<polygon fill="white" stroke="black" points="222,-98 222,-128 396,-128 396,-98 222,-98"/>
<text text-anchor="start" x="230" y="-116" font-family="Helvetica,sans-Serif" font-size="10.00">MovementAndImageAPI.src.</text>
<text text-anchor="middle" x="309" y="-105" font-family="Helvetica,sans-Serif" font-size="10.00">Turtle.updateAbsoluteOrientation</text>
</a>
</g>
</g>
<!-- Node1&#45;&gt;Node4 -->
<g id="edge3" class="edge"><title>Node1&#45;&gt;Node4</title>
<path fill="none" stroke="midnightblue" d="M183.556,-126.891C192.827,-125.857 202.27,-124.802 211.6,-123.761"/>
<polygon fill="midnightblue" stroke="midnightblue" points="212.117,-127.225 221.667,-122.637 211.34,-120.268 212.117,-127.225"/>
</g>
<!-- Node7 -->
<g id="node7" class="node"><title>Node7</title>
<g id="a_node7"><a xlink:href="../../da/d31/class_movement_and_image_a_p_i_1_1src_1_1_image_updater.html#adea0730f4ec25ebf5b16940420f9af0b" target="_top" xlink:title="MovementAndImageAPI.src.\lImageUpdater.updateTurtleImage">
<polygon fill="white" stroke="black" points="220.5,-49 220.5,-79 397.5,-79 397.5,-49 220.5,-49"/>
<text text-anchor="start" x="228.5" y="-67" font-family="Helvetica,sans-Serif" font-size="10.00">MovementAndImageAPI.src.</text>
<text text-anchor="middle" x="309" y="-56" font-family="Helvetica,sans-Serif" font-size="10.00">ImageUpdater.updateTurtleImage</text>
</a>
</g>
</g>
<!-- Node1&#45;&gt;Node7 -->
<g id="edge6" class="edge"><title>Node1&#45;&gt;Node7</title>
<path fill="none" stroke="midnightblue" d="M144.55,-116.384C167.491,-107.504 194.933,-97.2812 220,-89 227.316,-86.5829 235.02,-84.184 242.702,-81.8833"/>
<polygon fill="midnightblue" stroke="midnightblue" points="243.787,-85.2124 252.39,-79.0276 241.808,-78.4981 243.787,-85.2124"/>
</g>
<!-- Node5 -->
<g id="node5" class="node"><title>Node5</title>
<g id="a_node5"><a xlink:href="../../d7/d43/class_movement_and_image_a_p_i_1_1src_1_1_turtle.html#a79610d6c6d05b070331c32cee99d69a9" target="_top" xlink:title="MovementAndImageAPI.src.\lTurtle.finishRotation">
<polygon fill="white" stroke="black" points="447,-98 447,-128 599,-128 599,-98 447,-98"/>
<text text-anchor="start" x="455" y="-116" font-family="Helvetica,sans-Serif" font-size="10.00">MovementAndImageAPI.src.</text>
<text text-anchor="middle" x="523" y="-105" font-family="Helvetica,sans-Serif" font-size="10.00">Turtle.finishRotation</text>
</a>
</g>
</g>
<!-- Node4&#45;&gt;Node5 -->
<g id="edge4" class="edge"><title>Node4&#45;&gt;Node5</title>
<path fill="none" stroke="midnightblue" d="M396.229,-113C409.566,-113 423.336,-113 436.653,-113"/>
<polygon fill="midnightblue" stroke="midnightblue" points="436.735,-116.5 446.734,-113 436.734,-109.5 436.735,-116.5"/>
</g>
<!-- Node6 -->
<g id="node6" class="node"><title>Node6</title>
<g id="a_node6"><a xlink:href="../../d7/d43/class_movement_and_image_a_p_i_1_1src_1_1_turtle.html#a1e1b79caf9191f2b467d6a50bfeca3df" target="_top" xlink:title="MovementAndImageAPI.src.\lTurtle.ensurePositiveOrientation">
<polygon fill="white" stroke="black" points="648,-98 648,-128 816,-128 816,-98 648,-98"/>
<text text-anchor="start" x="656" y="-116" font-family="Helvetica,sans-Serif" font-size="10.00">MovementAndImageAPI.src.</text>
<text text-anchor="middle" x="732" y="-105" font-family="Helvetica,sans-Serif" font-size="10.00">Turtle.ensurePositiveOrientation</text>
</a>
</g>
</g>
<!-- Node5&#45;&gt;Node6 -->
<g id="edge5" class="edge"><title>Node5&#45;&gt;Node6</title>
<path fill="none" stroke="midnightblue" d="M599.024,-113C611.532,-113 624.641,-113 637.541,-113"/>
<polygon fill="midnightblue" stroke="midnightblue" points="637.825,-116.5 647.825,-113 637.825,-109.5 637.825,-116.5"/>
</g>
<!-- Node8 -->
<g id="node8" class="node"><title>Node8</title>
<g id="a_node8"><a xlink:href="../../da/d31/class_movement_and_image_a_p_i_1_1src_1_1_image_updater.html#a581e045297ecf935c75512c1198703b3" target="_top" xlink:title="MovementAndImageAPI.src.\lImageUpdater.drawRotatedImage">
<polygon fill="white" stroke="black" points="434.5,-49 434.5,-79 611.5,-79 611.5,-49 434.5,-49"/>
<text text-anchor="start" x="442.5" y="-67" font-family="Helvetica,sans-Serif" font-size="10.00">MovementAndImageAPI.src.</text>
<text text-anchor="middle" x="523" y="-56" font-family="Helvetica,sans-Serif" font-size="10.00">ImageUpdater.drawRotatedImage</text>
</a>
</g>
</g>
<!-- Node7&#45;&gt;Node8 -->
<g id="edge7" class="edge"><title>Node7&#45;&gt;Node8</title>
<path fill="none" stroke="midnightblue" d="M397.759,-64C406.437,-64 415.284,-64 424.057,-64"/>
<polygon fill="midnightblue" stroke="midnightblue" points="424.307,-67.5001 434.307,-64 424.307,-60.5001 424.307,-67.5001"/>
</g>
<!-- Node10 -->
<g id="node10" class="node"><title>Node10</title>
<g id="a_node10"><a xlink:href="../../da/d31/class_movement_and_image_a_p_i_1_1src_1_1_image_updater.html#a08e8ba7624dbce157332a73670072c78" target="_top" xlink:title="MovementAndImageAPI.src.\lImageUpdater.ensurePositive">
<polygon fill="white" stroke="black" points="444,-0 444,-30 602,-30 602,-0 444,-0"/>
<text text-anchor="start" x="452" y="-18" font-family="Helvetica,sans-Serif" font-size="10.00">MovementAndImageAPI.src.</text>
<text text-anchor="middle" x="523" y="-7" font-family="Helvetica,sans-Serif" font-size="10.00">ImageUpdater.ensurePositive</text>
</a>
</g>
</g>
<!-- Node7&#45;&gt;Node10 -->
<g id="edge9" class="edge"><title>Node7&#45;&gt;Node10</title>
<path fill="none" stroke="midnightblue" d="M375.048,-48.9654C397.839,-43.6976 423.615,-37.7399 447.144,-32.3016"/>
<polygon fill="midnightblue" stroke="midnightblue" points="448.12,-35.6683 457.075,-30.0062 446.544,-28.8481 448.12,-35.6683"/>
</g>
<!-- Node9 -->
<g id="node9" class="node"><title>Node9</title>
<g id="a_node9"><a xlink:href="../../da/d31/class_movement_and_image_a_p_i_1_1src_1_1_image_updater.html#a2368721809649636ad6dce3c008a6d62" target="_top" xlink:title="MovementAndImageAPI.src.\lImageUpdater.rotate">
<polygon fill="white" stroke="black" points="656,-49 656,-79 808,-79 808,-49 656,-49"/>
<text text-anchor="start" x="664" y="-67" font-family="Helvetica,sans-Serif" font-size="10.00">MovementAndImageAPI.src.</text>
<text text-anchor="middle" x="732" y="-56" font-family="Helvetica,sans-Serif" font-size="10.00">ImageUpdater.rotate</text>
</a>
</g>
</g>
<!-- Node8&#45;&gt;Node9 -->
<g id="edge8" class="edge"><title>Node8&#45;&gt;Node9</title>
<path fill="none" stroke="midnightblue" d="M611.787,-64C623.007,-64 634.48,-64 645.661,-64"/>
<polygon fill="midnightblue" stroke="midnightblue" points="645.831,-67.5001 655.831,-64 645.831,-60.5001 645.831,-67.5001"/>
</g>
</g>
</svg>
