<?xml version="1.0" encoding="UTF-8" standalone="no"?>
<!DOCTYPE svg PUBLIC "-//W3C//DTD SVG 1.1//EN"
 "http://www.w3.org/Graphics/SVG/1.1/DTD/svg11.dtd">
<!-- Generated by graphviz version 2.36.0 (20140111.2315)
 -->
<!-- Title: MovementAndImageAPI.src.TurtleHandler.getTurtleLocation Pages: 1 -->
<svg width="360pt" height="38pt"
 viewBox="0.00 0.00 360.00 38.00" xmlns="http://www.w3.org/2000/svg" xmlns:xlink="http://www.w3.org/1999/xlink">
<g id="graph0" class="graph" transform="scale(1 1) rotate(0) translate(4 34)">
<title>MovementAndImageAPI.src.TurtleHandler.getTurtleLocation</title>
<polygon fill="white" stroke="none" points="-4,4 -4,-34 356,-34 356,4 -4,4"/>
<!-- Node1 -->
<g id="node1" class="node"><title>Node1</title>
<polygon fill="#bfbfbf" stroke="black" points="0,-0 0,-30 164,-30 164,-0 0,-0"/>
<text text-anchor="start" x="8" y="-18" font-family="Helvetica,sans-Serif" font-size="10.00">MovementAndImageAPI.src.</text>
<text text-anchor="middle" x="82" y="-7" font-family="Helvetica,sans-Serif" font-size="10.00">TurtleHandler.getTurtleLocation</text>
</g>
<!-- Node2 -->
<g id="node2" class="node"><title>Node2</title>
<g id="a_node2"><a xlink:href="../../d7/d43/class_movement_and_image_a_p_i_1_1src_1_1_turtle.html#af438d3cf63dc7584f43e470e56592cbb" target="_top" xlink:title="MovementAndImageAPI.src.\lTurtle.getPoint">
<polygon fill="white" stroke="black" points="200,-0 200,-30 352,-30 352,-0 200,-0"/>
<text text-anchor="start" x="208" y="-18" font-family="Helvetica,sans-Serif" font-size="10.00">MovementAndImageAPI.src.</text>
<text text-anchor="middle" x="276" y="-7" font-family="Helvetica,sans-Serif" font-size="10.00">Turtle.getPoint</text>
</a>
</g>
</g>
<!-- Node1&#45;&gt;Node2 -->
<g id="edge1" class="edge"><title>Node1&#45;&gt;Node2</title>
<path fill="none" stroke="midnightblue" d="M164.147,-15C172.587,-15 181.185,-15 189.669,-15"/>
<polygon fill="midnightblue" stroke="midnightblue" points="189.945,-18.5001 199.945,-15 189.945,-11.5001 189.945,-18.5001"/>
</g>
</g>
</svg>
