<?xml version="1.0" encoding="UTF-8" standalone="no"?>
<!DOCTYPE svg PUBLIC "-//W3C//DTD SVG 1.1//EN"
 "http://www.w3.org/Graphics/SVG/1.1/DTD/svg11.dtd">
<!-- Generated by graphviz version 2.36.0 (20140111.2315)
 -->
<!-- Title: MovementAndImageAPI.src.TurtleHandler.towards Pages: 1 -->
<svg width="1020pt" height="234pt"
 viewBox="0.00 0.00 1020.00 234.00" xmlns="http://www.w3.org/2000/svg" xmlns:xlink="http://www.w3.org/1999/xlink">
<g id="graph0" class="graph" transform="scale(1 1) rotate(0) translate(4 230)">
<title>MovementAndImageAPI.src.TurtleHandler.towards</title>
<polygon fill="white" stroke="none" points="-4,4 -4,-230 1016,-230 1016,4 -4,4"/>
<!-- Node1 -->
<g id="node1" class="node"><title>Node1</title>
<polygon fill="#bfbfbf" stroke="black" points="0,-122 0,-152 152,-152 152,-122 0,-122"/>
<text text-anchor="start" x="8" y="-140" font-family="Helvetica,sans-Serif" font-size="10.00">MovementAndImageAPI.src.</text>
<text text-anchor="middle" x="76" y="-129" font-family="Helvetica,sans-Serif" font-size="10.00">TurtleHandler.towards</text>
</g>
<!-- Node2 -->
<g id="node2" class="node"><title>Node2</title>
<g id="a_node2"><a xlink:href="../../d4/d0f/class_movement_and_image_a_p_i_1_1src_1_1_turtle_handler.html#a2ea695e787018d10ea88d4b9a15c8f2a" target="_top" xlink:title="MovementAndImageAPI.src.\lTurtleHandler.getTurtleLocation\lInCanvas">
<polygon fill="white" stroke="black" points="198,-146.5 198,-187.5 362,-187.5 362,-146.5 198,-146.5"/>
<text text-anchor="start" x="206" y="-175.5" font-family="Helvetica,sans-Serif" font-size="10.00">MovementAndImageAPI.src.</text>
<text text-anchor="start" x="206" y="-164.5" font-family="Helvetica,sans-Serif" font-size="10.00">TurtleHandler.getTurtleLocation</text>
<text text-anchor="middle" x="280" y="-153.5" font-family="Helvetica,sans-Serif" font-size="10.00">InCanvas</text>
</a>
</g>
</g>
<!-- Node1&#45;&gt;Node2 -->
<g id="edge1" class="edge"><title>Node1&#45;&gt;Node2</title>
<path fill="none" stroke="midnightblue" d="M152.217,-148.171C163.873,-149.902 176.019,-151.706 187.977,-153.482"/>
<polygon fill="midnightblue" stroke="midnightblue" points="187.556,-156.958 197.962,-154.965 188.585,-150.033 187.556,-156.958"/>
</g>
<!-- Node5 -->
<g id="node5" class="node"><title>Node5</title>
<g id="a_node5"><a xlink:href="../../d4/d0f/class_movement_and_image_a_p_i_1_1src_1_1_turtle_handler.html#a24e9fb6ae5a522e3142b165eaa68e94f" target="_top" xlink:title="MovementAndImageAPI.src.\lTurtleHandler.updateTurtleAbsolute\lOrientation">
<polygon fill="white" stroke="black" points="188.5,-86.5 188.5,-127.5 371.5,-127.5 371.5,-86.5 188.5,-86.5"/>
<text text-anchor="start" x="196.5" y="-115.5" font-family="Helvetica,sans-Serif" font-size="10.00">MovementAndImageAPI.src.</text>
<text text-anchor="start" x="196.5" y="-104.5" font-family="Helvetica,sans-Serif" font-size="10.00">TurtleHandler.updateTurtleAbsolute</text>
<text text-anchor="middle" x="280" y="-93.5" font-family="Helvetica,sans-Serif" font-size="10.00">Orientation</text>
</a>
</g>
</g>
<!-- Node1&#45;&gt;Node5 -->
<g id="edge4" class="edge"><title>Node1&#45;&gt;Node5</title>
<path fill="none" stroke="midnightblue" d="M152.217,-125.829C160.775,-124.558 169.597,-123.248 178.415,-121.938"/>
<polygon fill="midnightblue" stroke="midnightblue" points="178.977,-125.393 188.354,-120.462 177.948,-118.469 178.977,-125.393"/>
</g>
<!-- Node3 -->
<g id="node3" class="node"><title>Node3</title>
<g id="a_node3"><a xlink:href="../../d7/d43/class_movement_and_image_a_p_i_1_1src_1_1_turtle.html#af438d3cf63dc7584f43e470e56592cbb" target="_top" xlink:title="MovementAndImageAPI.src.\lTurtle.getPoint">
<polygon fill="white" stroke="black" points="425,-147 425,-177 577,-177 577,-147 425,-147"/>
<text text-anchor="start" x="433" y="-165" font-family="Helvetica,sans-Serif" font-size="10.00">MovementAndImageAPI.src.</text>
<text text-anchor="middle" x="501" y="-154" font-family="Helvetica,sans-Serif" font-size="10.00">Turtle.getPoint</text>
</a>
</g>
</g>
<!-- Node2&#45;&gt;Node3 -->
<g id="edge2" class="edge"><title>Node2&#45;&gt;Node3</title>
<path fill="none" stroke="midnightblue" d="M362.236,-165.145C379.332,-164.755 397.413,-164.342 414.655,-163.949"/>
<polygon fill="midnightblue" stroke="midnightblue" points="414.777,-167.447 424.695,-163.719 414.618,-160.449 414.777,-167.447"/>
</g>
<!-- Node4 -->
<g id="node4" class="node"><title>Node4</title>
<g id="a_node4"><a xlink:href="../../da/d31/class_movement_and_image_a_p_i_1_1src_1_1_image_updater.html#a2438540dc16196176d84a031595583bf" target="_top" xlink:title="MovementAndImageAPI.src.\lImageUpdater.getTurtleCanvasSize">
<polygon fill="white" stroke="black" points="408.5,-196 408.5,-226 593.5,-226 593.5,-196 408.5,-196"/>
<text text-anchor="start" x="416.5" y="-214" font-family="Helvetica,sans-Serif" font-size="10.00">MovementAndImageAPI.src.</text>
<text text-anchor="middle" x="501" y="-203" font-family="Helvetica,sans-Serif" font-size="10.00">ImageUpdater.getTurtleCanvasSize</text>
</a>
</g>
</g>
<!-- Node2&#45;&gt;Node4 -->
<g id="edge3" class="edge"><title>Node2&#45;&gt;Node4</title>
<path fill="none" stroke="midnightblue" d="M362.236,-183.321C379.433,-186.777 397.629,-190.432 414.962,-193.915"/>
<polygon fill="midnightblue" stroke="midnightblue" points="414.561,-197.404 425.054,-195.942 415.94,-190.541 414.561,-197.404"/>
</g>
<!-- Node5&#45;&gt;Node3 -->
<g id="edge12" class="edge"><title>Node5&#45;&gt;Node3</title>
<path fill="none" stroke="midnightblue" d="M362.859,-127.558C384.989,-133.116 408.731,-139.078 430.136,-144.454"/>
<polygon fill="midnightblue" stroke="midnightblue" points="429.564,-147.919 440.115,-146.96 431.269,-141.13 429.564,-147.919"/>
</g>
<!-- Node6 -->
<g id="node6" class="node"><title>Node6</title>
<g id="a_node6"><a xlink:href="../../d7/d43/class_movement_and_image_a_p_i_1_1src_1_1_turtle.html#a0fcf334951cc9357c73e968707cab8d0" target="_top" xlink:title="MovementAndImageAPI.src.\lTurtle.updateAbsoluteOrientation">
<polygon fill="white" stroke="black" points="414,-98 414,-128 588,-128 588,-98 414,-98"/>
<text text-anchor="start" x="422" y="-116" font-family="Helvetica,sans-Serif" font-size="10.00">MovementAndImageAPI.src.</text>
<text text-anchor="middle" x="501" y="-105" font-family="Helvetica,sans-Serif" font-size="10.00">Turtle.updateAbsoluteOrientation</text>
</a>
</g>
</g>
<!-- Node5&#45;&gt;Node6 -->
<g id="edge5" class="edge"><title>Node5&#45;&gt;Node6</title>
<path fill="none" stroke="midnightblue" d="M371.657,-109.484C382.268,-109.774 393.123,-110.072 403.807,-110.365"/>
<polygon fill="midnightblue" stroke="midnightblue" points="403.892,-113.868 413.984,-110.643 404.083,-106.871 403.892,-113.868"/>
</g>
<!-- Node9 -->
<g id="node9" class="node"><title>Node9</title>
<g id="a_node9"><a xlink:href="../../da/d31/class_movement_and_image_a_p_i_1_1src_1_1_image_updater.html#adea0730f4ec25ebf5b16940420f9af0b" target="_top" xlink:title="MovementAndImageAPI.src.\lImageUpdater.updateTurtleImage">
<polygon fill="white" stroke="black" points="412.5,-49 412.5,-79 589.5,-79 589.5,-49 412.5,-49"/>
<text text-anchor="start" x="420.5" y="-67" font-family="Helvetica,sans-Serif" font-size="10.00">MovementAndImageAPI.src.</text>
<text text-anchor="middle" x="501" y="-56" font-family="Helvetica,sans-Serif" font-size="10.00">ImageUpdater.updateTurtleImage</text>
</a>
</g>
</g>
<!-- Node5&#45;&gt;Node9 -->
<g id="edge8" class="edge"><title>Node5&#45;&gt;Node9</title>
<path fill="none" stroke="midnightblue" d="M371.657,-89.1999C385.481,-86.4854 399.719,-83.6899 413.453,-80.9933"/>
<polygon fill="midnightblue" stroke="midnightblue" points="414.212,-84.4111 423.35,-79.0499 412.863,-77.5423 414.212,-84.4111"/>
</g>
<!-- Node13 -->
<g id="node13" class="node"><title>Node13</title>
<g id="a_node13"><a xlink:href="../../d7/d43/class_movement_and_image_a_p_i_1_1src_1_1_turtle.html#a75d31c1ce4fcba5a04aec065d2403d39" target="_top" xlink:title="MovementAndImageAPI.src.\lTurtle.getImage">
<polygon fill="white" stroke="black" points="425,-0 425,-30 577,-30 577,-0 425,-0"/>
<text text-anchor="start" x="433" y="-18" font-family="Helvetica,sans-Serif" font-size="10.00">MovementAndImageAPI.src.</text>
<text text-anchor="middle" x="501" y="-7" font-family="Helvetica,sans-Serif" font-size="10.00">Turtle.getImage</text>
</a>
</g>
</g>
<!-- Node5&#45;&gt;Node13 -->
<g id="edge13" class="edge"><title>Node5&#45;&gt;Node13</title>
<path fill="none" stroke="midnightblue" d="M314.187,-86.4189C339.224,-71.5973 374.816,-52.0003 408,-39 413.415,-36.8785 419.083,-34.8863 424.83,-33.0281"/>
<polygon fill="midnightblue" stroke="midnightblue" points="426.026,-36.3221 434.548,-30.028 423.961,-29.6336 426.026,-36.3221"/>
</g>
<!-- Node7 -->
<g id="node7" class="node"><title>Node7</title>
<g id="a_node7"><a xlink:href="../../d7/d43/class_movement_and_image_a_p_i_1_1src_1_1_turtle.html#a79610d6c6d05b070331c32cee99d69a9" target="_top" xlink:title="MovementAndImageAPI.src.\lTurtle.finishRotation">
<polygon fill="white" stroke="black" points="643,-98 643,-128 795,-128 795,-98 643,-98"/>
<text text-anchor="start" x="651" y="-116" font-family="Helvetica,sans-Serif" font-size="10.00">MovementAndImageAPI.src.</text>
<text text-anchor="middle" x="719" y="-105" font-family="Helvetica,sans-Serif" font-size="10.00">Turtle.finishRotation</text>
</a>
</g>
</g>
<!-- Node6&#45;&gt;Node7 -->
<g id="edge6" class="edge"><title>Node6&#45;&gt;Node7</title>
<path fill="none" stroke="midnightblue" d="M588.3,-113C603.003,-113 618.266,-113 632.937,-113"/>
<polygon fill="midnightblue" stroke="midnightblue" points="632.985,-116.5 642.985,-113 632.985,-109.5 632.985,-116.5"/>
</g>
<!-- Node8 -->
<g id="node8" class="node"><title>Node8</title>
<g id="a_node8"><a xlink:href="../../d7/d43/class_movement_and_image_a_p_i_1_1src_1_1_turtle.html#a1e1b79caf9191f2b467d6a50bfeca3df" target="_top" xlink:title="MovementAndImageAPI.src.\lTurtle.ensurePositiveOrientation">
<polygon fill="white" stroke="black" points="844,-98 844,-128 1012,-128 1012,-98 844,-98"/>
<text text-anchor="start" x="852" y="-116" font-family="Helvetica,sans-Serif" font-size="10.00">MovementAndImageAPI.src.</text>
<text text-anchor="middle" x="928" y="-105" font-family="Helvetica,sans-Serif" font-size="10.00">Turtle.ensurePositiveOrientation</text>
</a>
</g>
</g>
<!-- Node7&#45;&gt;Node8 -->
<g id="edge7" class="edge"><title>Node7&#45;&gt;Node8</title>
<path fill="none" stroke="midnightblue" d="M795.024,-113C807.532,-113 820.641,-113 833.541,-113"/>
<polygon fill="midnightblue" stroke="midnightblue" points="833.825,-116.5 843.825,-113 833.825,-109.5 833.825,-116.5"/>
</g>
<!-- Node10 -->
<g id="node10" class="node"><title>Node10</title>
<g id="a_node10"><a xlink:href="../../da/d31/class_movement_and_image_a_p_i_1_1src_1_1_image_updater.html#a581e045297ecf935c75512c1198703b3" target="_top" xlink:title="MovementAndImageAPI.src.\lImageUpdater.drawRotatedImage">
<polygon fill="white" stroke="black" points="630.5,-49 630.5,-79 807.5,-79 807.5,-49 630.5,-49"/>
<text text-anchor="start" x="638.5" y="-67" font-family="Helvetica,sans-Serif" font-size="10.00">MovementAndImageAPI.src.</text>
<text text-anchor="middle" x="719" y="-56" font-family="Helvetica,sans-Serif" font-size="10.00">ImageUpdater.drawRotatedImage</text>
</a>
</g>
</g>
<!-- Node9&#45;&gt;Node10 -->
<g id="edge9" class="edge"><title>Node9&#45;&gt;Node10</title>
<path fill="none" stroke="midnightblue" d="M589.544,-64C599.63,-64 609.964,-64 620.175,-64"/>
<polygon fill="midnightblue" stroke="midnightblue" points="620.331,-67.5001 630.331,-64 620.331,-60.5001 620.331,-67.5001"/>
</g>
<!-- Node12 -->
<g id="node12" class="node"><title>Node12</title>
<g id="a_node12"><a xlink:href="../../da/d31/class_movement_and_image_a_p_i_1_1src_1_1_image_updater.html#a08e8ba7624dbce157332a73670072c78" target="_top" xlink:title="MovementAndImageAPI.src.\lImageUpdater.ensurePositive">
<polygon fill="white" stroke="black" points="640,-0 640,-30 798,-30 798,-0 640,-0"/>
<text text-anchor="start" x="648" y="-18" font-family="Helvetica,sans-Serif" font-size="10.00">MovementAndImageAPI.src.</text>
<text text-anchor="middle" x="719" y="-7" font-family="Helvetica,sans-Serif" font-size="10.00">ImageUpdater.ensurePositive</text>
</a>
</g>
</g>
<!-- Node9&#45;&gt;Node12 -->
<g id="edge11" class="edge"><title>Node9&#45;&gt;Node12</title>
<path fill="none" stroke="midnightblue" d="M568.275,-48.9654C591.6,-43.6741 617.993,-37.6867 642.053,-32.2288"/>
<polygon fill="midnightblue" stroke="midnightblue" points="642.872,-35.6318 651.85,-30.0062 641.324,-28.8053 642.872,-35.6318"/>
</g>
<!-- Node11 -->
<g id="node11" class="node"><title>Node11</title>
<g id="a_node11"><a xlink:href="../../da/d31/class_movement_and_image_a_p_i_1_1src_1_1_image_updater.html#a2368721809649636ad6dce3c008a6d62" target="_top" xlink:title="MovementAndImageAPI.src.\lImageUpdater.rotate">
<polygon fill="white" stroke="black" points="852,-49 852,-79 1004,-79 1004,-49 852,-49"/>
<text text-anchor="start" x="860" y="-67" font-family="Helvetica,sans-Serif" font-size="10.00">MovementAndImageAPI.src.</text>
<text text-anchor="middle" x="928" y="-56" font-family="Helvetica,sans-Serif" font-size="10.00">ImageUpdater.rotate</text>
</a>
</g>
</g>
<!-- Node10&#45;&gt;Node11 -->
<g id="edge10" class="edge"><title>Node10&#45;&gt;Node11</title>
<path fill="none" stroke="midnightblue" d="M807.787,-64C819.007,-64 830.48,-64 841.661,-64"/>
<polygon fill="midnightblue" stroke="midnightblue" points="841.831,-67.5001 851.831,-64 841.831,-60.5001 841.831,-67.5001"/>
</g>
</g>
</svg>
