<?xml version="1.0" encoding="UTF-8" standalone="no"?>
<!DOCTYPE svg PUBLIC "-//W3C//DTD SVG 1.1//EN"
 "http://www.w3.org/Graphics/SVG/1.1/DTD/svg11.dtd">
<!-- Generated by graphviz version 2.36.0 (20140111.2315)
 -->
<!-- Title: MovementAndImageAPI.src.TurtleHandler.updateImage Pages: 1 -->
<svg width="776pt" height="209pt"
 viewBox="0.00 0.00 776.00 209.00" xmlns="http://www.w3.org/2000/svg" xmlns:xlink="http://www.w3.org/1999/xlink">
<g id="graph0" class="graph" transform="scale(1 1) rotate(0) translate(4 205)">
<title>MovementAndImageAPI.src.TurtleHandler.updateImage</title>
<polygon fill="white" stroke="none" points="-4,4 -4,-205 772,-205 772,4 -4,4"/>
<!-- Node1 -->
<g id="node1" class="node"><title>Node1</title>
<polygon fill="#bfbfbf" stroke="black" points="0,-97 0,-127 152,-127 152,-97 0,-97"/>
<text text-anchor="start" x="8" y="-115" font-family="Helvetica,sans-Serif" font-size="10.00">MovementAndImageAPI.src.</text>
<text text-anchor="middle" x="76" y="-104" font-family="Helvetica,sans-Serif" font-size="10.00">TurtleHandler.updateImage</text>
</g>
<!-- Node2 -->
<g id="node2" class="node"><title>Node2</title>
<g id="a_node2"><a xlink:href="../../d7/d43/class_movement_and_image_a_p_i_1_1src_1_1_turtle.html#a75d31c1ce4fcba5a04aec065d2403d39" target="_top" xlink:title="MovementAndImageAPI.src.\lTurtle.getImage">
<polygon fill="white" stroke="black" points="201,-171 201,-201 353,-201 353,-171 201,-171"/>
<text text-anchor="start" x="209" y="-189" font-family="Helvetica,sans-Serif" font-size="10.00">MovementAndImageAPI.src.</text>
<text text-anchor="middle" x="277" y="-178" font-family="Helvetica,sans-Serif" font-size="10.00">Turtle.getImage</text>
</a>
</g>
</g>
<!-- Node1&#45;&gt;Node2 -->
<g id="edge1" class="edge"><title>Node1&#45;&gt;Node2</title>
<path fill="none" stroke="midnightblue" d="M108.104,-127.123C130.1,-137.471 160.457,-151.063 188,-161 194.676,-163.409 201.703,-165.738 208.755,-167.943"/>
<polygon fill="midnightblue" stroke="midnightblue" points="207.77,-171.302 218.355,-170.868 209.809,-164.605 207.77,-171.302"/>
</g>
<!-- Node3 -->
<g id="node3" class="node"><title>Node3</title>
<g id="a_node3"><a xlink:href="../../d7/d43/class_movement_and_image_a_p_i_1_1src_1_1_turtle.html#af438d3cf63dc7584f43e470e56592cbb" target="_top" xlink:title="MovementAndImageAPI.src.\lTurtle.getPoint">
<polygon fill="white" stroke="black" points="201,-122 201,-152 353,-152 353,-122 201,-122"/>
<text text-anchor="start" x="209" y="-140" font-family="Helvetica,sans-Serif" font-size="10.00">MovementAndImageAPI.src.</text>
<text text-anchor="middle" x="277" y="-129" font-family="Helvetica,sans-Serif" font-size="10.00">Turtle.getPoint</text>
</a>
</g>
</g>
<!-- Node1&#45;&gt;Node3 -->
<g id="edge2" class="edge"><title>Node1&#45;&gt;Node3</title>
<path fill="none" stroke="midnightblue" d="M152.233,-121.451C164.826,-123.033 177.972,-124.685 190.794,-126.296"/>
<polygon fill="midnightblue" stroke="midnightblue" points="190.632,-129.803 200.99,-127.577 191.505,-122.857 190.632,-129.803"/>
</g>
<!-- Node4 -->
<g id="node4" class="node"><title>Node4</title>
<g id="a_node4"><a xlink:href="../../d7/d43/class_movement_and_image_a_p_i_1_1src_1_1_turtle.html#a8b7348625438380a184c287ba3eda20d" target="_top" xlink:title="MovementAndImageAPI.src.\lTurtle.updateImage">
<polygon fill="white" stroke="black" points="201,-73 201,-103 353,-103 353,-73 201,-73"/>
<text text-anchor="start" x="209" y="-91" font-family="Helvetica,sans-Serif" font-size="10.00">MovementAndImageAPI.src.</text>
<text text-anchor="middle" x="277" y="-80" font-family="Helvetica,sans-Serif" font-size="10.00">Turtle.updateImage</text>
</a>
</g>
</g>
<!-- Node1&#45;&gt;Node4 -->
<g id="edge3" class="edge"><title>Node1&#45;&gt;Node4</title>
<path fill="none" stroke="midnightblue" d="M152.233,-102.927C164.826,-101.408 177.972,-99.8225 190.794,-98.2762"/>
<polygon fill="midnightblue" stroke="midnightblue" points="191.481,-101.719 200.99,-97.0464 190.643,-94.769 191.481,-101.719"/>
</g>
<!-- Node5 -->
<g id="node5" class="node"><title>Node5</title>
<g id="a_node5"><a xlink:href="../../da/d31/class_movement_and_image_a_p_i_1_1src_1_1_image_updater.html#adea0730f4ec25ebf5b16940420f9af0b" target="_top" xlink:title="MovementAndImageAPI.src.\lImageUpdater.updateTurtleImage">
<polygon fill="white" stroke="black" points="188.5,-24 188.5,-54 365.5,-54 365.5,-24 188.5,-24"/>
<text text-anchor="start" x="196.5" y="-42" font-family="Helvetica,sans-Serif" font-size="10.00">MovementAndImageAPI.src.</text>
<text text-anchor="middle" x="277" y="-31" font-family="Helvetica,sans-Serif" font-size="10.00">ImageUpdater.updateTurtleImage</text>
</a>
</g>
</g>
<!-- Node1&#45;&gt;Node5 -->
<g id="edge4" class="edge"><title>Node1&#45;&gt;Node5</title>
<path fill="none" stroke="midnightblue" d="M109.093,-96.7887C131.022,-86.727 160.907,-73.6594 188,-64 194.788,-61.5799 201.934,-59.2323 209.099,-57.0075"/>
<polygon fill="midnightblue" stroke="midnightblue" points="210.292,-60.3033 218.848,-54.0546 208.263,-53.6039 210.292,-60.3033"/>
</g>
<!-- Node6 -->
<g id="node6" class="node"><title>Node6</title>
<g id="a_node6"><a xlink:href="../../da/d31/class_movement_and_image_a_p_i_1_1src_1_1_image_updater.html#a581e045297ecf935c75512c1198703b3" target="_top" xlink:title="MovementAndImageAPI.src.\lImageUpdater.drawRotatedImage">
<polygon fill="white" stroke="black" points="402.5,-49 402.5,-79 579.5,-79 579.5,-49 402.5,-49"/>
<text text-anchor="start" x="410.5" y="-67" font-family="Helvetica,sans-Serif" font-size="10.00">MovementAndImageAPI.src.</text>
<text text-anchor="middle" x="491" y="-56" font-family="Helvetica,sans-Serif" font-size="10.00">ImageUpdater.drawRotatedImage</text>
</a>
</g>
</g>
<!-- Node5&#45;&gt;Node6 -->
<g id="edge5" class="edge"><title>Node5&#45;&gt;Node6</title>
<path fill="none" stroke="midnightblue" d="M365.759,-49.3489C374.532,-50.3835 383.477,-51.4383 392.343,-52.4839"/>
<polygon fill="midnightblue" stroke="midnightblue" points="391.966,-55.9635 402.307,-53.6588 392.786,-49.0117 391.966,-55.9635"/>
</g>
<!-- Node8 -->
<g id="node8" class="node"><title>Node8</title>
<g id="a_node8"><a xlink:href="../../da/d31/class_movement_and_image_a_p_i_1_1src_1_1_image_updater.html#a08e8ba7624dbce157332a73670072c78" target="_top" xlink:title="MovementAndImageAPI.src.\lImageUpdater.ensurePositive">
<polygon fill="white" stroke="black" points="412,-0 412,-30 570,-30 570,-0 412,-0"/>
<text text-anchor="start" x="420" y="-18" font-family="Helvetica,sans-Serif" font-size="10.00">MovementAndImageAPI.src.</text>
<text text-anchor="middle" x="491" y="-7" font-family="Helvetica,sans-Serif" font-size="10.00">ImageUpdater.ensurePositive</text>
</a>
</g>
</g>
<!-- Node5&#45;&gt;Node8 -->
<g id="edge7" class="edge"><title>Node5&#45;&gt;Node8</title>
<path fill="none" stroke="midnightblue" d="M365.759,-29.065C377.565,-27.7285 389.682,-26.3568 401.5,-25.0188"/>
<polygon fill="midnightblue" stroke="midnightblue" points="402.251,-28.4563 411.794,-23.8535 401.464,-21.5007 402.251,-28.4563"/>
</g>
<!-- Node7 -->
<g id="node7" class="node"><title>Node7</title>
<g id="a_node7"><a xlink:href="../../da/d31/class_movement_and_image_a_p_i_1_1src_1_1_image_updater.html#a2368721809649636ad6dce3c008a6d62" target="_top" xlink:title="MovementAndImageAPI.src.\lImageUpdater.rotate">
<polygon fill="white" stroke="black" points="616,-49 616,-79 768,-79 768,-49 616,-49"/>
<text text-anchor="start" x="624" y="-67" font-family="Helvetica,sans-Serif" font-size="10.00">MovementAndImageAPI.src.</text>
<text text-anchor="middle" x="692" y="-56" font-family="Helvetica,sans-Serif" font-size="10.00">ImageUpdater.rotate</text>
</a>
</g>
</g>
<!-- Node6&#45;&gt;Node7 -->
<g id="edge6" class="edge"><title>Node6&#45;&gt;Node7</title>
<path fill="none" stroke="midnightblue" d="M579.574,-64C588.268,-64 597.085,-64 605.755,-64"/>
<polygon fill="midnightblue" stroke="midnightblue" points="605.849,-67.5001 615.849,-64 605.849,-60.5001 605.849,-67.5001"/>
</g>
</g>
</svg>
