<?xml version="1.0" encoding="UTF-8" standalone="no"?>
<!DOCTYPE svg PUBLIC "-//W3C//DTD SVG 1.1//EN"
 "http://www.w3.org/Graphics/SVG/1.1/DTD/svg11.dtd">
<!-- Generated by graphviz version 2.36.0 (20140111.2315)
 -->
<!-- Title: MovementAndImageAPI.src.TurtleHandler.updateTurtleAbsoluteOrientation Pages: 1 -->
<svg width="380pt" height="48pt"
 viewBox="0.00 0.00 380.00 48.00" xmlns="http://www.w3.org/2000/svg" xmlns:xlink="http://www.w3.org/1999/xlink">
<g id="graph0" class="graph" transform="scale(1 1) rotate(0) translate(4 44)">
<title>MovementAndImageAPI.src.TurtleHandler.updateTurtleAbsoluteOrientation</title>
<polygon fill="white" stroke="none" points="-4,4 -4,-44 376,-44 376,4 -4,4"/>
<!-- Node1 -->
<g id="node1" class="node"><title>Node1</title>
<polygon fill="#bfbfbf" stroke="black" points="0.5,0.5 0.5,-40.5 183.5,-40.5 183.5,0.5 0.5,0.5"/>
<text text-anchor="start" x="8.5" y="-28.5" font-family="Helvetica,sans-Serif" font-size="10.00">MovementAndImageAPI.src.</text>
<text text-anchor="start" x="8.5" y="-17.5" font-family="Helvetica,sans-Serif" font-size="10.00">TurtleHandler.updateTurtleAbsolute</text>
<text text-anchor="middle" x="92" y="-6.5" font-family="Helvetica,sans-Serif" font-size="10.00">Orientation</text>
</g>
<!-- Node2 -->
<g id="node2" class="node"><title>Node2</title>
<g id="a_node2"><a xlink:href="../../d4/d0f/class_movement_and_image_a_p_i_1_1src_1_1_turtle_handler.html#a95e798d7c5caefdc1472c01f1438adaa" target="_top" xlink:title="MovementAndImageAPI.src.\lTurtleHandler.towards">
<polygon fill="white" stroke="black" points="220,-5 220,-35 372,-35 372,-5 220,-5"/>
<text text-anchor="start" x="228" y="-23" font-family="Helvetica,sans-Serif" font-size="10.00">MovementAndImageAPI.src.</text>
<text text-anchor="middle" x="296" y="-12" font-family="Helvetica,sans-Serif" font-size="10.00">TurtleHandler.towards</text>
</a>
</g>
</g>
<!-- Node1&#45;&gt;Node2 -->
<g id="edge1" class="edge"><title>Node1&#45;&gt;Node2</title>
<path fill="none" stroke="midnightblue" d="M193.868,-20C202.578,-20 211.289,-20 219.743,-20"/>
<polygon fill="midnightblue" stroke="midnightblue" points="193.66,-16.5001 183.66,-20 193.66,-23.5001 193.66,-16.5001"/>
</g>
</g>
</svg>
