<?xml version="1.0" encoding="UTF-8" standalone="no"?>
<!DOCTYPE svg PUBLIC "-//W3C//DTD SVG 1.1//EN"
 "http://www.w3.org/Graphics/SVG/1.1/DTD/svg11.dtd">
<!-- Generated by graphviz version 2.36.0 (20140111.2315)
 -->
<!-- Title: MovementAndImageAPI.src.TurtleHandler.moveAndDraw Pages: 1 -->
<svg width="658pt" height="98pt"
 viewBox="0.00 0.00 658.00 98.00" xmlns="http://www.w3.org/2000/svg" xmlns:xlink="http://www.w3.org/1999/xlink">
<g id="graph0" class="graph" transform="scale(1 1) rotate(0) translate(4 94)">
<title>MovementAndImageAPI.src.TurtleHandler.moveAndDraw</title>
<polygon fill="white" stroke="none" points="-4,4 -4,-94 654,-94 654,4 -4,4"/>
<!-- Node1 -->
<g id="node1" class="node"><title>Node1</title>
<polygon fill="#bfbfbf" stroke="black" points="0,-27 0,-57 152,-57 152,-27 0,-27"/>
<text text-anchor="start" x="8" y="-45" font-family="Helvetica,sans-Serif" font-size="10.00">MovementAndImageAPI.src.</text>
<text text-anchor="middle" x="76" y="-34" font-family="Helvetica,sans-Serif" font-size="10.00">TurtleHandler.moveAndDraw</text>
</g>
<!-- Node2 -->
<g id="node2" class="node"><title>Node2</title>
<g id="a_node2"><a xlink:href="../../d4/d0f/class_movement_and_image_a_p_i_1_1src_1_1_turtle_handler.html#a508472221e2ec6de1f1fae9b04a661c4" target="_top" xlink:title="MovementAndImageAPI.src.\lTurtleHandler.updateTurtleAbsolute\lLocation">
<polygon fill="white" stroke="black" points="188.5,-48.5 188.5,-89.5 371.5,-89.5 371.5,-48.5 188.5,-48.5"/>
<text text-anchor="start" x="196.5" y="-77.5" font-family="Helvetica,sans-Serif" font-size="10.00">MovementAndImageAPI.src.</text>
<text text-anchor="start" x="196.5" y="-66.5" font-family="Helvetica,sans-Serif" font-size="10.00">TurtleHandler.updateTurtleAbsolute</text>
<text text-anchor="middle" x="280" y="-55.5" font-family="Helvetica,sans-Serif" font-size="10.00">Location</text>
</a>
</g>
</g>
<!-- Node1&#45;&gt;Node2 -->
<g id="edge1" class="edge"><title>Node1&#45;&gt;Node2</title>
<path fill="none" stroke="midnightblue" d="M162.258,-53.3959C170.887,-54.5492 179.672,-55.7235 188.354,-56.884"/>
<polygon fill="midnightblue" stroke="midnightblue" points="162.593,-49.9096 152.217,-52.0538 161.665,-56.8479 162.593,-49.9096"/>
</g>
<!-- Node3 -->
<g id="node3" class="node"><title>Node3</title>
<g id="a_node3"><a xlink:href="../../d4/d0f/class_movement_and_image_a_p_i_1_1src_1_1_turtle_handler.html#a47aab93cef3fa6ddcebacd40db48090b" target="_top" xlink:title="MovementAndImageAPI.src.\lTurtleHandler.updateTurtleLocation">
<polygon fill="white" stroke="black" points="189,-0 189,-30 371,-30 371,-0 189,-0"/>
<text text-anchor="start" x="197" y="-18" font-family="Helvetica,sans-Serif" font-size="10.00">MovementAndImageAPI.src.</text>
<text text-anchor="middle" x="280" y="-7" font-family="Helvetica,sans-Serif" font-size="10.00">TurtleHandler.updateTurtleLocation</text>
</a>
</g>
</g>
<!-- Node1&#45;&gt;Node3 -->
<g id="edge2" class="edge"><title>Node1&#45;&gt;Node3</title>
<path fill="none" stroke="midnightblue" d="M162.355,-30.5912C171.066,-29.4268 179.937,-28.2411 188.699,-27.0699"/>
<polygon fill="midnightblue" stroke="midnightblue" points="161.665,-27.1521 152.217,-31.9462 162.593,-34.0904 161.665,-27.1521"/>
</g>
<!-- Node4 -->
<g id="node4" class="node"><title>Node4</title>
<g id="a_node4"><a xlink:href="../../d0/d4b/class_main.html#a9aab0955c478f8846fae079b0c56e8d3" target="_top" xlink:title="Main.addKeyboardControl">
<polygon fill="white" stroke="black" points="408.5,-5.5 408.5,-24.5 547.5,-24.5 547.5,-5.5 408.5,-5.5"/>
<text text-anchor="middle" x="478" y="-12.5" font-family="Helvetica,sans-Serif" font-size="10.00">Main.addKeyboardControl</text>
</a>
</g>
</g>
<!-- Node3&#45;&gt;Node4 -->
<g id="edge3" class="edge"><title>Node3&#45;&gt;Node4</title>
<path fill="none" stroke="midnightblue" d="M381.496,-15C390.57,-15 399.616,-15 408.322,-15"/>
<polygon fill="midnightblue" stroke="midnightblue" points="381.255,-11.5001 371.255,-15 381.255,-18.5001 381.255,-11.5001"/>
</g>
<!-- Node5 -->
<g id="node5" class="node"><title>Node5</title>
<g id="a_node5"><a xlink:href="../../d0/d4b/class_main.html#aaa75b38812324d0f17c89f139bde6ada" target="_top" xlink:title="Main.start">
<polygon fill="white" stroke="black" points="584.5,-5.5 584.5,-24.5 649.5,-24.5 649.5,-5.5 584.5,-5.5"/>
<text text-anchor="middle" x="617" y="-12.5" font-family="Helvetica,sans-Serif" font-size="10.00">Main.start</text>
</a>
</g>
</g>
<!-- Node4&#45;&gt;Node5 -->
<g id="edge4" class="edge"><title>Node4&#45;&gt;Node5</title>
<path fill="none" stroke="midnightblue" d="M558.059,-15C567.354,-15 576.384,-15 584.44,-15"/>
<polygon fill="midnightblue" stroke="midnightblue" points="557.901,-11.5001 547.901,-15 557.901,-18.5001 557.901,-11.5001"/>
</g>
</g>
</svg>
