<?xml version="1.0" encoding="UTF-8" standalone="no"?>
<!DOCTYPE svg PUBLIC "-//W3C//DTD SVG 1.1//EN"
 "http://www.w3.org/Graphics/SVG/1.1/DTD/svg11.dtd">
<!-- Generated by graphviz version 2.36.0 (20140111.2315)
 -->
<!-- Title: MovementAndImageAPI.src.TurtleHandler.moveAndDraw Pages: 1 -->
<!--zoomable 410 -->
<svg id="main" version="1.1" xmlns="http://www.w3.org/2000/svg" xmlns:xlink="http://www.w3.org/1999/xlink" xml:space="preserve" onload="init(evt)">
<style type="text/css"><![CDATA[
.edge:hover path { stroke: red; }
.edge:hover polygon { stroke: red; fill: red; }
]]></style>
<script type="text/javascript"><![CDATA[
var edges = document.getElementsByTagName('g');
if (edges && edges.length) {
  for (var i=0;i<edges.length;i++) {
    if (edges[i].id.substr(0,4)=='edge') {
      edges[i].setAttribute('class','edge');
    }
  }
}
]]></script>
        <defs>
                <circle id="rim" cx="0" cy="0" r="7"/>
                <circle id="rim2" cx="0" cy="0" r="3.5"/>
                <g id="zoomPlus">
                        <use xlink:href="#rim" fill="#404040">
                                <set attributeName="fill" to="#808080" begin="zoomplus.mouseover" end="zoomplus.mouseout"/>
                        </use>
                        <path d="M-4,0h8M0,-4v8" fill="none" stroke="white" stroke-width="1.5" pointer-events="none"/>
                </g>
                <g id="zoomMin">
                        <use xlink:href="#rim" fill="#404040">
                                <set attributeName="fill" to="#808080" begin="zoomminus.mouseover" end="zoomminus.mouseout"/>
                        </use>
                        <path d="M-4,0h8" fill="none" stroke="white" stroke-width="1.5" pointer-events="none"/>
                </g>
                <g id="dirArrow">
                        <path fill="none" stroke="white" stroke-width="1.5" d="M0,-3.0v7 M-2.5,-0.5L0,-3.0L2.5,-0.5"/>
                </g>
               <g id="resetDef">
                       <use xlink:href="#rim2" fill="#404040">
                               <set attributeName="fill" to="#808080" begin="reset.mouseover" end="reset.mouseout"/>
                       </use>
               </g>
        </defs>

<script type="text/javascript">
var viewWidth = 782;
var viewHeight = 410;
var sectionId = 'dynsection-14';
</script>
<script xlink:href="../../svgpan.js"/>
<svg id="graph" class="graph">
<g id="viewport">
<title>MovementAndImageAPI.src.TurtleHandler.moveAndDraw</title>
<polygon fill="white" stroke="none" points="-4,4 -4,-406 778,-406 778,4 -4,4"/>
<!-- Node1 -->
<g id="node1" class="node"><title>Node1</title>
<polygon fill="#bfbfbf" stroke="black" points="0,-120 0,-150 152,-150 152,-120 0,-120"/>
<text text-anchor="start" x="8" y="-138" font-family="Helvetica,sans-Serif" font-size="10.00">MovementAndImageAPI.src.</text>
<text text-anchor="middle" x="76" y="-127" font-family="Helvetica,sans-Serif" font-size="10.00">TurtleHandler.moveAndDraw</text>
</g>
<!-- Node2 -->
<g id="node2" class="node"><title>Node2</title>
<g id="a_node2"><a xlink:href="../../da/d31/class_movement_and_image_a_p_i_1_1src_1_1_image_updater.html#a194a73bcc0c675e5d7d9182847805455" target="_top" xlink:title="MovementAndImageAPI.src.\lImageUpdater.drawLine">
<polygon fill="white" stroke="black" points="201,-169 201,-199 353,-199 353,-169 201,-169"/>
<text text-anchor="start" x="209" y="-187" font-family="Helvetica,sans-Serif" font-size="10.00">MovementAndImageAPI.src.</text>
<text text-anchor="middle" x="277" y="-176" font-family="Helvetica,sans-Serif" font-size="10.00">ImageUpdater.drawLine</text>
</a>
</g>
</g>
<!-- Node1&#45;&gt;Node2 -->
<g id="edge1" class="edge"><title>Node1&#45;&gt;Node2</title>
<path fill="none" stroke="midnightblue" d="M138.059,-150.035C159.262,-155.255 183.216,-161.154 205.142,-166.553"/>
<polygon fill="midnightblue" stroke="midnightblue" points="204.51,-170.001 215.057,-168.994 206.183,-163.204 204.51,-170.001"/>
</g>
<!-- Node16 -->
<g id="node16" class="node"><title>Node16</title>
<g id="a_node16"><a xlink:href="../../d7/d43/class_movement_and_image_a_p_i_1_1src_1_1_turtle.html#a75d31c1ce4fcba5a04aec065d2403d39" target="_top" xlink:title="MovementAndImageAPI.src.\lTurtle.getImage">
<polygon fill="white" stroke="black" points="201,-71 201,-101 353,-101 353,-71 201,-71"/>
<text text-anchor="start" x="209" y="-89" font-family="Helvetica,sans-Serif" font-size="10.00">MovementAndImageAPI.src.</text>
<text text-anchor="middle" x="277" y="-78" font-family="Helvetica,sans-Serif" font-size="10.00">Turtle.getImage</text>
</a>
</g>
</g>
<!-- Node1&#45;&gt;Node16 -->
<g id="edge17" class="edge"><title>Node1&#45;&gt;Node16</title>
<path fill="none" stroke="midnightblue" d="M138.059,-119.965C159.262,-114.745 183.216,-108.846 205.142,-103.447"/>
<polygon fill="midnightblue" stroke="midnightblue" points="206.183,-106.796 215.057,-101.006 204.51,-99.9987 206.183,-106.796"/>
</g>
<!-- Node17 -->
<g id="node17" class="node"><title>Node17</title>
<g id="a_node17"><a xlink:href="../../d7/d43/class_movement_and_image_a_p_i_1_1src_1_1_turtle.html#a658cc4788ed8eb613b78ba56b7e2d4e3" target="_top" xlink:title="MovementAndImageAPI.src.\lTurtle.getPenHandler">
<polygon fill="white" stroke="black" points="201,-22 201,-52 353,-52 353,-22 201,-22"/>
<text text-anchor="start" x="209" y="-40" font-family="Helvetica,sans-Serif" font-size="10.00">MovementAndImageAPI.src.</text>
<text text-anchor="middle" x="277" y="-29" font-family="Helvetica,sans-Serif" font-size="10.00">Turtle.getPenHandler</text>
</a>
</g>
</g>
<!-- Node1&#45;&gt;Node17 -->
<g id="edge18" class="edge"><title>Node1&#45;&gt;Node17</title>
<path fill="none" stroke="midnightblue" d="M95.5364,-119.898C116.724,-103.313 153.007,-76.9268 188,-61 192.364,-59.0135 196.928,-57.1612 201.582,-55.4391"/>
<polygon fill="midnightblue" stroke="midnightblue" points="202.931,-58.6755 211.227,-52.0858 200.632,-52.0637 202.931,-58.6755"/>
</g>
<!-- Node18 -->
<g id="node18" class="node"><title>Node18</title>
<g id="a_node18"><a xlink:href="../../d7/d43/class_movement_and_image_a_p_i_1_1src_1_1_turtle.html#a6a340f7cbda09ca810d01a1767150ba9" target="_top" xlink:title="MovementAndImageAPI.src.\lTurtle.getPenPosition">
<polygon fill="white" stroke="black" points="201,-120 201,-150 353,-150 353,-120 201,-120"/>
<text text-anchor="start" x="209" y="-138" font-family="Helvetica,sans-Serif" font-size="10.00">MovementAndImageAPI.src.</text>
<text text-anchor="middle" x="277" y="-127" font-family="Helvetica,sans-Serif" font-size="10.00">Turtle.getPenPosition</text>
</a>
</g>
</g>
<!-- Node1&#45;&gt;Node18 -->
<g id="edge19" class="edge"><title>Node1&#45;&gt;Node18</title>
<path fill="none" stroke="midnightblue" d="M152.233,-135C164.826,-135 177.972,-135 190.794,-135"/>
<polygon fill="midnightblue" stroke="midnightblue" points="190.99,-138.5 200.99,-135 190.99,-131.5 190.99,-138.5"/>
</g>
<!-- Node19 -->
<g id="node19" class="node"><title>Node19</title>
<g id="a_node19"><a xlink:href="../../da/d31/class_movement_and_image_a_p_i_1_1src_1_1_image_updater.html#adea0730f4ec25ebf5b16940420f9af0b" target="_top" xlink:title="MovementAndImageAPI.src.\lImageUpdater.updateTurtleImage">
<polygon fill="white" stroke="black" points="188.5,-323 188.5,-353 365.5,-353 365.5,-323 188.5,-323"/>
<text text-anchor="start" x="196.5" y="-341" font-family="Helvetica,sans-Serif" font-size="10.00">MovementAndImageAPI.src.</text>
<text text-anchor="middle" x="277" y="-330" font-family="Helvetica,sans-Serif" font-size="10.00">ImageUpdater.updateTurtleImage</text>
</a>
</g>
</g>
<!-- Node1&#45;&gt;Node19 -->
<g id="edge21" class="edge"><title>Node1&#45;&gt;Node19</title>
<path fill="none" stroke="midnightblue" d="M91.9573,-150.258C126.761,-185.761 213.301,-274.041 254.081,-315.641"/>
<polygon fill="midnightblue" stroke="midnightblue" points="251.641,-318.151 261.141,-322.842 256.64,-313.251 251.641,-318.151"/>
</g>
<!-- Node3 -->
<g id="node3" class="node"><title>Node3</title>
<g id="a_node3"><a xlink:href="../../da/d31/class_movement_and_image_a_p_i_1_1src_1_1_image_updater.html#a08e8ba7624dbce157332a73670072c78" target="_top" xlink:title="MovementAndImageAPI.src.\lImageUpdater.ensurePositive">
<polygon fill="white" stroke="black" points="412,-323 412,-353 570,-353 570,-323 412,-323"/>
<text text-anchor="start" x="420" y="-341" font-family="Helvetica,sans-Serif" font-size="10.00">MovementAndImageAPI.src.</text>
<text text-anchor="middle" x="491" y="-330" font-family="Helvetica,sans-Serif" font-size="10.00">ImageUpdater.ensurePositive</text>
</a>
</g>
</g>
<!-- Node2&#45;&gt;Node3 -->
<g id="edge2" class="edge"><title>Node2&#45;&gt;Node3</title>
<path fill="none" stroke="midnightblue" d="M289.315,-199.195C309.315,-225.052 353.414,-277.744 402,-308 408.819,-312.246 416.312,-315.975 423.96,-319.228"/>
<polygon fill="midnightblue" stroke="midnightblue" points="422.744,-322.511 433.33,-322.961 425.336,-316.008 422.744,-322.511"/>
</g>
<!-- Node4 -->
<g id="node4" class="node"><title>Node4</title>
<g id="a_node4"><a xlink:href="../../da/d31/class_movement_and_image_a_p_i_1_1src_1_1_image_updater.html#a049f8e63bcdbe91f5fad63c778030fb4" target="_top" xlink:title="MovementAndImageAPI.src.\lImageUpdater.findBoundaryPoint">
<polygon fill="white" stroke="black" points="403.5,-235 403.5,-265 578.5,-265 578.5,-235 403.5,-235"/>
<text text-anchor="start" x="411.5" y="-253" font-family="Helvetica,sans-Serif" font-size="10.00">MovementAndImageAPI.src.</text>
<text text-anchor="middle" x="491" y="-242" font-family="Helvetica,sans-Serif" font-size="10.00">ImageUpdater.findBoundaryPoint</text>
</a>
</g>
</g>
<!-- Node2&#45;&gt;Node4 -->
<g id="edge3" class="edge"><title>Node2&#45;&gt;Node4</title>
<path fill="none" stroke="midnightblue" d="M326.371,-199.059C357.737,-208.824 398.776,-221.6 431.907,-231.914"/>
<polygon fill="midnightblue" stroke="midnightblue" points="430.881,-235.261 441.47,-234.892 432.962,-228.577 430.881,-235.261"/>
</g>
<!-- Node6 -->
<g id="node6" class="node"><title>Node6</title>
<g id="a_node6"><a xlink:href="../../da/d31/class_movement_and_image_a_p_i_1_1src_1_1_image_updater.html#a03f6a2a06e7a7476405345f6fcb3dad5" target="_top" xlink:title="MovementAndImageAPI.src.\lImageUpdater.xOutOfBounds">
<polygon fill="white" stroke="black" points="616.5,-309 616.5,-339 773.5,-339 773.5,-309 616.5,-309"/>
<text text-anchor="start" x="624.5" y="-327" font-family="Helvetica,sans-Serif" font-size="10.00">MovementAndImageAPI.src.</text>
<text text-anchor="middle" x="695" y="-316" font-family="Helvetica,sans-Serif" font-size="10.00">ImageUpdater.xOutOfBounds</text>
</a>
</g>
</g>
<!-- Node2&#45;&gt;Node6 -->
<g id="edge15" class="edge"><title>Node2&#45;&gt;Node6</title>
<path fill="none" stroke="midnightblue" d="M293.741,-199.2C315.943,-219.695 358.61,-255.721 402,-274 437.989,-289.161 534.029,-303.929 606.213,-313.436"/>
<polygon fill="midnightblue" stroke="midnightblue" points="605.863,-316.92 616.232,-314.742 606.768,-309.978 605.863,-316.92"/>
</g>
<!-- Node8 -->
<g id="node8" class="node"><title>Node8</title>
<g id="a_node8"><a xlink:href="../../da/d31/class_movement_and_image_a_p_i_1_1src_1_1_image_updater.html#af0f2404b46ab5bd003906d97d8460654" target="_top" xlink:title="MovementAndImageAPI.src.\lImageUpdater.yOutOfBounds">
<polygon fill="white" stroke="black" points="616.5,-162 616.5,-192 773.5,-192 773.5,-162 616.5,-162"/>
<text text-anchor="start" x="624.5" y="-180" font-family="Helvetica,sans-Serif" font-size="10.00">MovementAndImageAPI.src.</text>
<text text-anchor="middle" x="695" y="-169" font-family="Helvetica,sans-Serif" font-size="10.00">ImageUpdater.yOutOfBounds</text>
</a>
</g>
</g>
<!-- Node2&#45;&gt;Node8 -->
<g id="edge16" class="edge"><title>Node2&#45;&gt;Node8</title>
<path fill="none" stroke="midnightblue" d="M353.117,-186.415C414.24,-187.918 502.723,-189.046 580,-186 588.576,-185.662 597.506,-185.182 606.427,-184.616"/>
<polygon fill="midnightblue" stroke="midnightblue" points="606.731,-188.104 616.475,-183.945 606.264,-181.119 606.731,-188.104"/>
</g>
<!-- Node9 -->
<g id="node9" class="node"><title>Node9</title>
<g id="a_node9"><a xlink:href="../../da/d31/class_movement_and_image_a_p_i_1_1src_1_1_image_updater.html#a99fe830ba09a4ee088ef04eebc1b2183" target="_top" xlink:title="MovementAndImageAPI.src.\lImageUpdater.findNewStartPoint">
<polygon fill="white" stroke="black" points="404.5,-147 404.5,-177 577.5,-177 577.5,-147 404.5,-147"/>
<text text-anchor="start" x="412.5" y="-165" font-family="Helvetica,sans-Serif" font-size="10.00">MovementAndImageAPI.src.</text>
<text text-anchor="middle" x="491" y="-154" font-family="Helvetica,sans-Serif" font-size="10.00">ImageUpdater.findNewStartPoint</text>
</a>
</g>
</g>
<!-- Node2&#45;&gt;Node9 -->
<g id="edge8" class="edge"><title>Node2&#45;&gt;Node9</title>
<path fill="none" stroke="midnightblue" d="M353.042,-176.213C366.365,-174.83 380.403,-173.373 394.208,-171.941"/>
<polygon fill="midnightblue" stroke="midnightblue" points="394.62,-175.417 404.205,-170.903 393.898,-168.454 394.62,-175.417"/>
</g>
<!-- Node10 -->
<g id="node10" class="node"><title>Node10</title>
<g id="a_node10"><a xlink:href="../../da/d8f/class_movement_and_image_a_p_i_1_1src_1_1_pen_handler.html#ab73c37fd9bab639a2253b5a5817387a9" target="_top" xlink:title="MovementAndImageAPI.src.\lPenHandler.getLineWidth">
<polygon fill="white" stroke="black" points="415,-98 415,-128 567,-128 567,-98 415,-98"/>
<text text-anchor="start" x="423" y="-116" font-family="Helvetica,sans-Serif" font-size="10.00">MovementAndImageAPI.src.</text>
<text text-anchor="middle" x="491" y="-105" font-family="Helvetica,sans-Serif" font-size="10.00">PenHandler.getLineWidth</text>
</a>
</g>
</g>
<!-- Node2&#45;&gt;Node10 -->
<g id="edge9" class="edge"><title>Node2&#45;&gt;Node10</title>
<path fill="none" stroke="midnightblue" d="M339.352,-168.898C348.43,-165.998 357.562,-162.694 366,-159 383.177,-151.48 384.784,-144.43 402,-137 406.696,-134.974 411.607,-133.076 416.606,-131.308"/>
<polygon fill="midnightblue" stroke="midnightblue" points="417.918,-134.56 426.29,-128.067 415.697,-127.922 417.918,-134.56"/>
</g>
<!-- Node12 -->
<g id="node12" class="node"><title>Node12</title>
<g id="a_node12"><a xlink:href="../../da/d8f/class_movement_and_image_a_p_i_1_1src_1_1_pen_handler.html#a64a9b8fde73c28f0683640b081d884f1" target="_top" xlink:title="MovementAndImageAPI.src.\lPenHandler.getPenColor">
<polygon fill="white" stroke="black" points="415,-49 415,-79 567,-79 567,-49 415,-49"/>
<text text-anchor="start" x="423" y="-67" font-family="Helvetica,sans-Serif" font-size="10.00">MovementAndImageAPI.src.</text>
<text text-anchor="middle" x="491" y="-56" font-family="Helvetica,sans-Serif" font-size="10.00">PenHandler.getPenColor</text>
</a>
</g>
</g>
<!-- Node2&#45;&gt;Node12 -->
<g id="edge11" class="edge"><title>Node2&#45;&gt;Node12</title>
<path fill="none" stroke="midnightblue" d="M350.626,-168.838C356.128,-166.087 361.342,-162.838 366,-159 393.306,-136.502 374.576,-110.354 402,-88 403.565,-86.7243 405.192,-85.5162 406.872,-84.372"/>
<polygon fill="midnightblue" stroke="midnightblue" points="408.839,-87.2751 415.66,-79.1678 405.272,-81.252 408.839,-87.2751"/>
</g>
<!-- Node14 -->
<g id="node14" class="node"><title>Node14</title>
<g id="a_node14"><a xlink:href="../../da/d8f/class_movement_and_image_a_p_i_1_1src_1_1_pen_handler.html#ad3f35e8b9605bde22fcbb5bc3e15cbf5" target="_top" xlink:title="MovementAndImageAPI.src.\lPenHandler.getPenPosition">
<polygon fill="white" stroke="black" points="415,-0 415,-30 567,-30 567,-0 415,-0"/>
<text text-anchor="start" x="423" y="-18" font-family="Helvetica,sans-Serif" font-size="10.00">MovementAndImageAPI.src.</text>
<text text-anchor="middle" x="491" y="-7" font-family="Helvetica,sans-Serif" font-size="10.00">PenHandler.getPenPosition</text>
</a>
</g>
</g>
<!-- Node2&#45;&gt;Node14 -->
<g id="edge13" class="edge"><title>Node2&#45;&gt;Node14</title>
<path fill="none" stroke="midnightblue" d="M352.663,-168.998C357.519,-166.204 362.041,-162.902 366,-159 405.66,-119.917 362.134,-77.8736 402,-39 403.446,-37.5904 404.965,-36.2617 406.549,-35.0093"/>
<polygon fill="midnightblue" stroke="midnightblue" points="408.598,-37.8487 414.941,-29.3622 404.691,-32.041 408.598,-37.8487"/>
</g>
<!-- Node5 -->
<g id="node5" class="node"><title>Node5</title>
<g id="a_node5"><a xlink:href="../../da/d31/class_movement_and_image_a_p_i_1_1src_1_1_image_updater.html#a24866e7c0871e72ff9bb226fa477ee2b" target="_top" xlink:title="MovementAndImageAPI.src.\lImageUpdater.xBoundary">
<polygon fill="white" stroke="black" points="619,-260 619,-290 771,-290 771,-260 619,-260"/>
<text text-anchor="start" x="627" y="-278" font-family="Helvetica,sans-Serif" font-size="10.00">MovementAndImageAPI.src.</text>
<text text-anchor="middle" x="695" y="-267" font-family="Helvetica,sans-Serif" font-size="10.00">ImageUpdater.xBoundary</text>
</a>
</g>
</g>
<!-- Node4&#45;&gt;Node5 -->
<g id="edge4" class="edge"><title>Node4&#45;&gt;Node5</title>
<path fill="none" stroke="midnightblue" d="M578.545,-260.711C588.584,-261.953 598.818,-263.22 608.838,-264.46"/>
<polygon fill="midnightblue" stroke="midnightblue" points="608.418,-267.935 618.772,-265.69 609.278,-260.988 608.418,-267.935"/>
</g>
<!-- Node4&#45;&gt;Node6 -->
<g id="edge5" class="edge"><title>Node4&#45;&gt;Node6</title>
<path fill="none" stroke="midnightblue" d="M540.474,-265.003C553.467,-269.436 567.401,-274.568 580,-280 596.613,-287.163 599.322,-291.99 616,-299 621.459,-301.294 627.205,-303.504 633.002,-305.595"/>
<polygon fill="midnightblue" stroke="midnightblue" points="632.167,-309.011 642.762,-308.998 634.471,-302.401 632.167,-309.011"/>
</g>
<!-- Node7 -->
<g id="node7" class="node"><title>Node7</title>
<g id="a_node7"><a xlink:href="../../da/d31/class_movement_and_image_a_p_i_1_1src_1_1_image_updater.html#ad79a0592d012a80c6db9c91909440415" target="_top" xlink:title="MovementAndImageAPI.src.\lImageUpdater.yBoundary">
<polygon fill="white" stroke="black" points="619,-211 619,-241 771,-241 771,-211 619,-211"/>
<text text-anchor="start" x="627" y="-229" font-family="Helvetica,sans-Serif" font-size="10.00">MovementAndImageAPI.src.</text>
<text text-anchor="middle" x="695" y="-218" font-family="Helvetica,sans-Serif" font-size="10.00">ImageUpdater.yBoundary</text>
</a>
</g>
</g>
<!-- Node4&#45;&gt;Node7 -->
<g id="edge6" class="edge"><title>Node4&#45;&gt;Node7</title>
<path fill="none" stroke="midnightblue" d="M578.545,-239.717C588.584,-238.525 598.818,-237.309 608.838,-236.118"/>
<polygon fill="midnightblue" stroke="midnightblue" points="609.255,-239.593 618.772,-234.938 608.429,-232.642 609.255,-239.593"/>
</g>
<!-- Node4&#45;&gt;Node8 -->
<g id="edge7" class="edge"><title>Node4&#45;&gt;Node8</title>
<path fill="none" stroke="midnightblue" d="M539.937,-234.967C553.06,-230.499 567.193,-225.356 580,-220 596.503,-213.098 599.434,-208.75 616,-202 621.704,-199.676 627.71,-197.423 633.754,-195.283"/>
<polygon fill="midnightblue" stroke="midnightblue" points="634.925,-198.581 643.243,-192.02 632.649,-191.962 634.925,-198.581"/>
</g>
<!-- Node11 -->
<g id="node11" class="node"><title>Node11</title>
<g id="a_node11"><a xlink:href="../../d2/d78/class_movement_and_image_a_p_i_1_1src_1_1_pen.html#aecf75855f964eb9eb238cae05df975a6" target="_top" xlink:title="MovementAndImageAPI.src.\lPen.getLineWidth">
<polygon fill="white" stroke="black" points="619,-98 619,-128 771,-128 771,-98 619,-98"/>
<text text-anchor="start" x="627" y="-116" font-family="Helvetica,sans-Serif" font-size="10.00">MovementAndImageAPI.src.</text>
<text text-anchor="middle" x="695" y="-105" font-family="Helvetica,sans-Serif" font-size="10.00">Pen.getLineWidth</text>
</a>
</g>
</g>
<!-- Node10&#45;&gt;Node11 -->
<g id="edge10" class="edge"><title>Node10&#45;&gt;Node11</title>
<path fill="none" stroke="midnightblue" d="M567.217,-113C580.625,-113 594.683,-113 608.356,-113"/>
<polygon fill="midnightblue" stroke="midnightblue" points="608.72,-116.5 618.72,-113 608.72,-109.5 608.72,-116.5"/>
</g>
<!-- Node13 -->
<g id="node13" class="node"><title>Node13</title>
<g id="a_node13"><a xlink:href="../../d2/d78/class_movement_and_image_a_p_i_1_1src_1_1_pen.html#a8d076af52cf4510ecda7a874ee978fc2" target="_top" xlink:title="MovementAndImageAPI.src.\lPen.getPenColor">
<polygon fill="white" stroke="black" points="619,-49 619,-79 771,-79 771,-49 619,-49"/>
<text text-anchor="start" x="627" y="-67" font-family="Helvetica,sans-Serif" font-size="10.00">MovementAndImageAPI.src.</text>
<text text-anchor="middle" x="695" y="-56" font-family="Helvetica,sans-Serif" font-size="10.00">Pen.getPenColor</text>
</a>
</g>
</g>
<!-- Node12&#45;&gt;Node13 -->
<g id="edge12" class="edge"><title>Node12&#45;&gt;Node13</title>
<path fill="none" stroke="midnightblue" d="M567.217,-64C580.625,-64 594.683,-64 608.356,-64"/>
<polygon fill="midnightblue" stroke="midnightblue" points="608.72,-67.5001 618.72,-64 608.72,-60.5001 608.72,-67.5001"/>
</g>
<!-- Node15 -->
<g id="node15" class="node"><title>Node15</title>
<g id="a_node15"><a xlink:href="../../d2/d78/class_movement_and_image_a_p_i_1_1src_1_1_pen.html#a3f3cdbaef2a7328e6051567cc29975fb" target="_top" xlink:title="MovementAndImageAPI.src.\lPen.getPenPosition">
<polygon fill="white" stroke="black" points="619,-0 619,-30 771,-30 771,-0 619,-0"/>
<text text-anchor="start" x="627" y="-18" font-family="Helvetica,sans-Serif" font-size="10.00">MovementAndImageAPI.src.</text>
<text text-anchor="middle" x="695" y="-7" font-family="Helvetica,sans-Serif" font-size="10.00">Pen.getPenPosition</text>
</a>
</g>
</g>
<!-- Node14&#45;&gt;Node15 -->
<g id="edge14" class="edge"><title>Node14&#45;&gt;Node15</title>
<path fill="none" stroke="midnightblue" d="M567.217,-15C580.625,-15 594.683,-15 608.356,-15"/>
<polygon fill="midnightblue" stroke="midnightblue" points="608.72,-18.5001 618.72,-15 608.72,-11.5001 608.72,-18.5001"/>
</g>
<!-- Node18&#45;&gt;Node14 -->
<g id="edge20" class="edge"><title>Node18&#45;&gt;Node14</title>
<path fill="none" stroke="midnightblue" d="M350.626,-119.838C356.128,-117.087 361.342,-113.838 366,-110 393.306,-87.502 374.576,-61.3537 402,-39 403.565,-37.7243 405.192,-36.5162 406.872,-35.372"/>
<polygon fill="midnightblue" stroke="midnightblue" points="408.839,-38.2751 415.66,-30.1678 405.272,-32.252 408.839,-38.2751"/>
</g>
<!-- Node19&#45;&gt;Node3 -->
<g id="edge24" class="edge"><title>Node19&#45;&gt;Node3</title>
<path fill="none" stroke="midnightblue" d="M365.759,-338C377.565,-338 389.682,-338 401.5,-338"/>
<polygon fill="midnightblue" stroke="midnightblue" points="401.794,-341.5 411.794,-338 401.794,-334.5 401.794,-341.5"/>
</g>
<!-- Node20 -->
<g id="node20" class="node"><title>Node20</title>
<g id="a_node20"><a xlink:href="../../da/d31/class_movement_and_image_a_p_i_1_1src_1_1_image_updater.html#a581e045297ecf935c75512c1198703b3" target="_top" xlink:title="MovementAndImageAPI.src.\lImageUpdater.drawRotatedImage">
<polygon fill="white" stroke="black" points="402.5,-372 402.5,-402 579.5,-402 579.5,-372 402.5,-372"/>
<text text-anchor="start" x="410.5" y="-390" font-family="Helvetica,sans-Serif" font-size="10.00">MovementAndImageAPI.src.</text>
<text text-anchor="middle" x="491" y="-379" font-family="Helvetica,sans-Serif" font-size="10.00">ImageUpdater.drawRotatedImage</text>
</a>
</g>
</g>
<!-- Node19&#45;&gt;Node20 -->
<g id="edge22" class="edge"><title>Node19&#45;&gt;Node20</title>
<path fill="none" stroke="midnightblue" d="M343.048,-353.035C365.839,-358.302 391.615,-364.26 415.144,-369.698"/>
<polygon fill="midnightblue" stroke="midnightblue" points="414.544,-373.152 425.075,-371.994 416.12,-366.332 414.544,-373.152"/>
</g>
<!-- Node21 -->
<g id="node21" class="node"><title>Node21</title>
<g id="a_node21"><a xlink:href="../../da/d31/class_movement_and_image_a_p_i_1_1src_1_1_image_updater.html#a2368721809649636ad6dce3c008a6d62" target="_top" xlink:title="MovementAndImageAPI.src.\lImageUpdater.rotate">
<polygon fill="white" stroke="black" points="619,-372 619,-402 771,-402 771,-372 619,-372"/>
<text text-anchor="start" x="627" y="-390" font-family="Helvetica,sans-Serif" font-size="10.00">MovementAndImageAPI.src.</text>
<text text-anchor="middle" x="695" y="-379" font-family="Helvetica,sans-Serif" font-size="10.00">ImageUpdater.rotate</text>
</a>
</g>
</g>
<!-- Node20&#45;&gt;Node21 -->
<g id="edge23" class="edge"><title>Node20&#45;&gt;Node21</title>
<path fill="none" stroke="midnightblue" d="M579.719,-387C589.258,-387 598.958,-387 608.471,-387"/>
<polygon fill="midnightblue" stroke="midnightblue" points="608.703,-390.5 618.703,-387 608.703,-383.5 608.703,-390.5"/>
</g>
</g>
</svg>
        <g id="navigator" transform="translate(0 0)" fill="#404254">
                <rect fill="#f2f5e9" fill-opacity="0.5" stroke="#606060" stroke-width=".5" x="0" y="0" width="60" height="60"/>
                <use id="zoomplus" xlink:href="#zoomPlus" x="17" y="9" onmousedown="handleZoom(evt,'in')"/>
                <use id="zoomminus" xlink:href="#zoomMin" x="42" y="9" onmousedown="handleZoom(evt,'out')"/>
                <use id="reset" xlink:href="#resetDef" x="30" y="36" onmousedown="handleReset()"/>
                <g id="arrowUp" xlink:href="#dirArrow" transform="translate(30 24)" onmousedown="handlePan(0,-1)">
                  <use xlink:href="#rim" fill="#404040">
                        <set attributeName="fill" to="#808080" begin="arrowUp.mouseover" end="arrowUp.mouseout"/>
                  </use>
                  <path fill="none" stroke="white" stroke-width="1.5" d="M0,-3.0v7 M-2.5,-0.5L0,-3.0L2.5,-0.5"/>
                </g>
                <g id="arrowRight" xlink:href="#dirArrow" transform="rotate(90) translate(36 -43)" onmousedown="handlePan(1,0)">
                  <use xlink:href="#rim" fill="#404040">
                        <set attributeName="fill" to="#808080" begin="arrowRight.mouseover" end="arrowRight.mouseout"/>
                  </use>
                  <path fill="none" stroke="white" stroke-width="1.5" d="M0,-3.0v7 M-2.5,-0.5L0,-3.0L2.5,-0.5"/>
                </g>
                <g id="arrowDown" xlink:href="#dirArrow" transform="rotate(180) translate(-30 -48)" onmousedown="handlePan(0,1)">
                  <use xlink:href="#rim" fill="#404040">
                        <set attributeName="fill" to="#808080" begin="arrowDown.mouseover" end="arrowDown.mouseout"/>
                  </use>
                  <path fill="none" stroke="white" stroke-width="1.5" d="M0,-3.0v7 M-2.5,-0.5L0,-3.0L2.5,-0.5"/>
                </g>
                <g id="arrowLeft" xlink:href="#dirArrow" transform="rotate(270) translate(-36 17)" onmousedown="handlePan(-1,0)">
                  <use xlink:href="#rim" fill="#404040">
                        <set attributeName="fill" to="#808080" begin="arrowLeft.mouseover" end="arrowLeft.mouseout"/>
                  </use>
                  <path fill="none" stroke="white" stroke-width="1.5" d="M0,-3.0v7 M-2.5,-0.5L0,-3.0L2.5,-0.5"/>
                </g>
        </g>
        <svg viewBox="0 0 15 15" width="100%" height="30px" preserveAspectRatio="xMaxYMin meet">
         <g id="arrow_out" transform="scale(0.3 0.3)">
          <a xlink:href="class_movement_and_image_a_p_i_1_1src_1_1_turtle_handler_adf01534451c018bc6b767aa8d42689bb_cgraph_org.svg" target="_base">
           <rect id="button" ry="5" rx="5" y="6" x="6" height="38" width="38"
                fill="#f2f5e9" fill-opacity="0.5" stroke="#606060" stroke-width="1.0"/>
           <path id="arrow"
             d="M 11.500037,31.436501 C 11.940474,20.09759 22.043105,11.32322 32.158766,21.979434 L 37.068811,17.246167 C 37.068811,17.246167 37.088388,32 37.088388,32 L 22.160133,31.978069 C 22.160133,31.978069 26.997745,27.140456 26.997745,27.140456 C 18.528582,18.264221 13.291696,25.230495 11.500037,31.436501 z"
             style="fill:#404040;"/>
          </a>
         </g>
        </svg>
</svg>
