<?xml version="1.0" encoding="UTF-8" standalone="no"?>
<!DOCTYPE svg PUBLIC "-//W3C//DTD SVG 1.1//EN"
 "http://www.w3.org/Graphics/SVG/1.1/DTD/svg11.dtd">
<!-- Generated by graphviz version 2.36.0 (20140111.2315)
 -->
<!-- Title: parser.LogoParser.parse Pages: 1 -->
<!--zoomable 119 -->
<svg id="main" version="1.1" xmlns="http://www.w3.org/2000/svg" xmlns:xlink="http://www.w3.org/1999/xlink" xml:space="preserve" onload="init(evt)">
<style type="text/css"><![CDATA[
.edge:hover path { stroke: red; }
.edge:hover polygon { stroke: red; fill: red; }
]]></style>
<script type="text/javascript"><![CDATA[
var edges = document.getElementsByTagName('g');
if (edges && edges.length) {
  for (var i=0;i<edges.length;i++) {
    if (edges[i].id.substr(0,4)=='edge') {
      edges[i].setAttribute('class','edge');
    }
  }
}
]]></script>
        <defs>
                <circle id="rim" cx="0" cy="0" r="7"/>
                <circle id="rim2" cx="0" cy="0" r="3.5"/>
                <g id="zoomPlus">
                        <use xlink:href="#rim" fill="#404040">
                                <set attributeName="fill" to="#808080" begin="zoomplus.mouseover" end="zoomplus.mouseout"/>
                        </use>
                        <path d="M-4,0h8M0,-4v8" fill="none" stroke="white" stroke-width="1.5" pointer-events="none"/>
                </g>
                <g id="zoomMin">
                        <use xlink:href="#rim" fill="#404040">
                                <set attributeName="fill" to="#808080" begin="zoomminus.mouseover" end="zoomminus.mouseout"/>
                        </use>
                        <path d="M-4,0h8" fill="none" stroke="white" stroke-width="1.5" pointer-events="none"/>
                </g>
                <g id="dirArrow">
                        <path fill="none" stroke="white" stroke-width="1.5" d="M0,-3.0v7 M-2.5,-0.5L0,-3.0L2.5,-0.5"/>
                </g>
               <g id="resetDef">
                       <use xlink:href="#rim2" fill="#404040">
                               <set attributeName="fill" to="#808080" begin="reset.mouseover" end="reset.mouseout"/>
                       </use>
               </g>
        </defs>

<script type="text/javascript">
var viewWidth = 1146;
var viewHeight = 119;
var sectionId = 'dynsection-17';
</script>
<script xlink:href="../../svgpan.js"/>
<svg id="graph" class="graph">
<g id="viewport">
<title>parser.LogoParser.parse</title>
<polygon fill="white" stroke="none" points="-4,4 -4,-115 1142,-115 1142,4 -4,4"/>
<!-- Node1 -->
<g id="node1" class="node"><title>Node1</title>
<polygon fill="#bfbfbf" stroke="black" points="0,-42.5 0,-61.5 132,-61.5 132,-42.5 0,-42.5"/>
<text text-anchor="middle" x="66" y="-49.5" font-family="Helvetica,sans-Serif" font-size="10.00">parser.LogoParser.parse</text>
</g>
<!-- Node2 -->
<g id="node2" class="node"><title>Node2</title>
<g id="a_node2"><a xlink:href="../../d6/d95/classparser_1_1_parser.html#af3d0cef45b9f02f1707959c08d8f3797" target="_top" xlink:title="parser.Parser.parse">
<polygon fill="white" stroke="black" points="168.5,-42.5 168.5,-61.5 277.5,-61.5 277.5,-42.5 168.5,-42.5"/>
<text text-anchor="middle" x="223" y="-49.5" font-family="Helvetica,sans-Serif" font-size="10.00">parser.Parser.parse</text>
</a>
</g>
</g>
<!-- Node1&#45;&gt;Node2 -->
<g id="edge1" class="edge"><title>Node1&#45;&gt;Node2</title>
<path fill="none" stroke="midnightblue" d="M142.405,-52C151.061,-52 159.753,-52 168.047,-52"/>
<polygon fill="midnightblue" stroke="midnightblue" points="142.285,-48.5001 132.285,-52 142.285,-55.5001 142.285,-48.5001"/>
</g>
<!-- Node3 -->
<g id="node3" class="node"><title>Node3</title>
<g id="a_node3"><a xlink:href="../../d4/d06/classinput_1_1_input_executor.html#a687a9f2cbed5d27a2c7b1336a1cab8aa" target="_top" xlink:title="input.InputExecutor.process\lInput">
<polygon fill="white" stroke="black" points="314.5,-81 314.5,-111 463.5,-111 463.5,-81 314.5,-81"/>
<text text-anchor="start" x="322.5" y="-99" font-family="Helvetica,sans-Serif" font-size="10.00">input.InputExecutor.process</text>
<text text-anchor="middle" x="389" y="-88" font-family="Helvetica,sans-Serif" font-size="10.00">Input</text>
</a>
</g>
</g>
<!-- Node2&#45;&gt;Node3 -->
<g id="edge2" class="edge"><title>Node2&#45;&gt;Node3</title>
<path fill="none" stroke="midnightblue" d="M269.356,-64.1687C288.696,-69.3574 311.459,-75.4646 331.847,-80.9346"/>
<polygon fill="midnightblue" stroke="midnightblue" points="270.151,-60.7583 259.586,-61.5473 268.337,-67.5192 270.151,-60.7583"/>
</g>
<!-- Node4 -->
<g id="node4" class="node"><title>Node4</title>
<g id="a_node4"><a xlink:href="../../d6/d95/classparser_1_1_parser.html#ae90f8410be9931ec3f349085c8fdae71" target="_top" xlink:title="parser.Parser.parseFile">
<polygon fill="white" stroke="black" points="327,-42.5 327,-61.5 451,-61.5 451,-42.5 327,-42.5"/>
<text text-anchor="middle" x="389" y="-49.5" font-family="Helvetica,sans-Serif" font-size="10.00">parser.Parser.parseFile</text>
</a>
</g>
</g>
<!-- Node2&#45;&gt;Node4 -->
<g id="edge3" class="edge"><title>Node2&#45;&gt;Node4</title>
<path fill="none" stroke="midnightblue" d="M287.816,-52C300.629,-52 314.065,-52 326.787,-52"/>
<polygon fill="midnightblue" stroke="midnightblue" points="287.7,-48.5001 277.7,-52 287.7,-55.5001 287.7,-48.5001"/>
</g>
<!-- Node9 -->
<g id="node9" class="node"><title>Node9</title>
<g id="a_node9"><a xlink:href="../../d5/d56/class_workspace.html#a0ed8fb487512971086b6f3ed0d74e4ae" target="_top" xlink:title="Workspace.sendUserInput">
<polygon fill="white" stroke="black" points="505,-0.5 505,-19.5 645,-19.5 645,-0.5 505,-0.5"/>
<text text-anchor="middle" x="575" y="-7.5" font-family="Helvetica,sans-Serif" font-size="10.00">Workspace.sendUserInput</text>
</a>
</g>
</g>
<!-- Node2&#45;&gt;Node9 -->
<g id="edge8" class="edge"><title>Node2&#45;&gt;Node9</title>
<path fill="none" stroke="midnightblue" d="M274.234,-40.2843C287.139,-37.5809 301.039,-34.9343 314,-33 378.315,-23.4018 452.222,-17.3372 504.759,-13.8606"/>
<polygon fill="midnightblue" stroke="midnightblue" points="273.178,-36.9313 264.135,-42.4521 274.647,-43.7754 273.178,-36.9313"/>
</g>
<!-- Node5 -->
<g id="node5" class="node"><title>Node5</title>
<g id="a_node5"><a xlink:href="../../d9/de8/class_file_chooser_feature.html#ad742b8e9d07e8151f0a9ff1972867ce8" target="_top" xlink:title="FileChooserFeature.openFile\lChooser">
<polygon fill="white" stroke="black" points="500.5,-39 500.5,-69 649.5,-69 649.5,-39 500.5,-39"/>
<text text-anchor="start" x="508.5" y="-57" font-family="Helvetica,sans-Serif" font-size="10.00">FileChooserFeature.openFile</text>
<text text-anchor="middle" x="575" y="-46" font-family="Helvetica,sans-Serif" font-size="10.00">Chooser</text>
</a>
</g>
</g>
<!-- Node4&#45;&gt;Node5 -->
<g id="edge4" class="edge"><title>Node4&#45;&gt;Node5</title>
<path fill="none" stroke="midnightblue" d="M461.173,-52.7736C474.02,-52.9133 487.439,-53.0591 500.354,-53.1995"/>
<polygon fill="midnightblue" stroke="midnightblue" points="461.051,-49.2722 451.014,-52.6632 460.975,-56.2718 461.051,-49.2722"/>
</g>
<!-- Node6 -->
<g id="node6" class="node"><title>Node6</title>
<g id="a_node6"><a xlink:href="../../d5/d56/class_workspace.html#a6babd032d9af86fbc23812272d59a2d2" target="_top" xlink:title="Workspace.addFeatureButtons">
<polygon fill="white" stroke="black" points="686,-42.5 686,-61.5 848,-61.5 848,-42.5 686,-42.5"/>
<text text-anchor="middle" x="767" y="-49.5" font-family="Helvetica,sans-Serif" font-size="10.00">Workspace.addFeatureButtons</text>
</a>
</g>
</g>
<!-- Node5&#45;&gt;Node6 -->
<g id="edge5" class="edge"><title>Node5&#45;&gt;Node6</title>
<path fill="none" stroke="midnightblue" d="M659.768,-53.1182C668.382,-53.0276 677.121,-52.9356 685.697,-52.8453"/>
<polygon fill="midnightblue" stroke="midnightblue" points="659.693,-49.6187 649.731,-53.2239 659.767,-56.6183 659.693,-49.6187"/>
</g>
<!-- Node7 -->
<g id="node7" class="node"><title>Node7</title>
<g id="a_node7"><a xlink:href="../../d5/d56/class_workspace.html#a429d535dfd8427637b7715f0b1e1df1b" target="_top" xlink:title="Workspace.createWorkspace">
<polygon fill="white" stroke="black" points="884,-22.5 884,-41.5 1036,-41.5 1036,-22.5 884,-22.5"/>
<text text-anchor="middle" x="960" y="-29.5" font-family="Helvetica,sans-Serif" font-size="10.00">Workspace.createWorkspace</text>
</a>
</g>
</g>
<!-- Node6&#45;&gt;Node7 -->
<g id="edge6" class="edge"><title>Node6&#45;&gt;Node7</title>
<path fill="none" stroke="midnightblue" d="M858.223,-42.5526C866.822,-41.6521 875.479,-40.7457 883.912,-39.8626"/>
<polygon fill="midnightblue" stroke="midnightblue" points="857.752,-39.0826 848.171,-43.6051 858.481,-46.0446 857.752,-39.0826"/>
</g>
<!-- Node8 -->
<g id="node8" class="node"><title>Node8</title>
<g id="a_node8"><a xlink:href="../../d0/d4b/class_main.html#aaa75b38812324d0f17c89f139bde6ada" target="_top" xlink:title="Main.start">
<polygon fill="white" stroke="black" points="1072.5,-22.5 1072.5,-41.5 1137.5,-41.5 1137.5,-22.5 1072.5,-22.5"/>
<text text-anchor="middle" x="1105" y="-29.5" font-family="Helvetica,sans-Serif" font-size="10.00">Main.start</text>
</a>
</g>
</g>
<!-- Node7&#45;&gt;Node8 -->
<g id="edge7" class="edge"><title>Node7&#45;&gt;Node8</title>
<path fill="none" stroke="midnightblue" d="M1046.39,-32C1055.63,-32 1064.55,-32 1072.5,-32"/>
<polygon fill="midnightblue" stroke="midnightblue" points="1046.27,-28.5001 1036.27,-32 1046.27,-35.5001 1046.27,-28.5001"/>
</g>
<!-- Node9&#45;&gt;Node7 -->
<g id="edge9" class="edge"><title>Node9&#45;&gt;Node7</title>
<path fill="none" stroke="midnightblue" d="M655.466,-14.5646C722.603,-18.4211 818.077,-23.9052 883.936,-27.6882"/>
<polygon fill="midnightblue" stroke="midnightblue" points="655.543,-11.0634 645.358,-13.984 655.141,-18.0518 655.543,-11.0634"/>
</g>
</g>
</svg>
        <g id="navigator" transform="translate(0 0)" fill="#404254">
                <rect fill="#f2f5e9" fill-opacity="0.5" stroke="#606060" stroke-width=".5" x="0" y="0" width="60" height="60"/>
                <use id="zoomplus" xlink:href="#zoomPlus" x="17" y="9" onmousedown="handleZoom(evt,'in')"/>
                <use id="zoomminus" xlink:href="#zoomMin" x="42" y="9" onmousedown="handleZoom(evt,'out')"/>
                <use id="reset" xlink:href="#resetDef" x="30" y="36" onmousedown="handleReset()"/>
                <g id="arrowUp" xlink:href="#dirArrow" transform="translate(30 24)" onmousedown="handlePan(0,-1)">
                  <use xlink:href="#rim" fill="#404040">
                        <set attributeName="fill" to="#808080" begin="arrowUp.mouseover" end="arrowUp.mouseout"/>
                  </use>
                  <path fill="none" stroke="white" stroke-width="1.5" d="M0,-3.0v7 M-2.5,-0.5L0,-3.0L2.5,-0.5"/>
                </g>
                <g id="arrowRight" xlink:href="#dirArrow" transform="rotate(90) translate(36 -43)" onmousedown="handlePan(1,0)">
                  <use xlink:href="#rim" fill="#404040">
                        <set attributeName="fill" to="#808080" begin="arrowRight.mouseover" end="arrowRight.mouseout"/>
                  </use>
                  <path fill="none" stroke="white" stroke-width="1.5" d="M0,-3.0v7 M-2.5,-0.5L0,-3.0L2.5,-0.5"/>
                </g>
                <g id="arrowDown" xlink:href="#dirArrow" transform="rotate(180) translate(-30 -48)" onmousedown="handlePan(0,1)">
                  <use xlink:href="#rim" fill="#404040">
                        <set attributeName="fill" to="#808080" begin="arrowDown.mouseover" end="arrowDown.mouseout"/>
                  </use>
                  <path fill="none" stroke="white" stroke-width="1.5" d="M0,-3.0v7 M-2.5,-0.5L0,-3.0L2.5,-0.5"/>
                </g>
                <g id="arrowLeft" xlink:href="#dirArrow" transform="rotate(270) translate(-36 17)" onmousedown="handlePan(-1,0)">
                  <use xlink:href="#rim" fill="#404040">
                        <set attributeName="fill" to="#808080" begin="arrowLeft.mouseover" end="arrowLeft.mouseout"/>
                  </use>
                  <path fill="none" stroke="white" stroke-width="1.5" d="M0,-3.0v7 M-2.5,-0.5L0,-3.0L2.5,-0.5"/>
                </g>
        </g>
        <svg viewBox="0 0 15 15" width="100%" height="30px" preserveAspectRatio="xMaxYMin meet">
         <g id="arrow_out" transform="scale(0.3 0.3)">
          <a xlink:href="classparser_1_1_logo_parser_adefe3b97ad0d2d7fd0dcd13f7ef2c75e_icgraph_org.svg" target="_base">
           <rect id="button" ry="5" rx="5" y="6" x="6" height="38" width="38"
                fill="#f2f5e9" fill-opacity="0.5" stroke="#606060" stroke-width="1.0"/>
           <path id="arrow"
             d="M 11.500037,31.436501 C 11.940474,20.09759 22.043105,11.32322 32.158766,21.979434 L 37.068811,17.246167 C 37.068811,17.246167 37.088388,32 37.088388,32 L 22.160133,31.978069 C 22.160133,31.978069 26.997745,27.140456 26.997745,27.140456 C 18.528582,18.264221 13.291696,25.230495 11.500037,31.436501 z"
             style="fill:#404040;"/>
          </a>
         </g>
        </svg>
</svg>
