<?xml version="1.0" encoding="UTF-8" standalone="no"?>
<!DOCTYPE svg PUBLIC "-//W3C//DTD SVG 1.1//EN"
 "http://www.w3.org/Graphics/SVG/1.1/DTD/svg11.dtd">
<!-- Generated by graphviz version 2.36.0 (20140111.2315)
 -->
<!-- Title: parser.LogoParser.getNextToken Pages: 1 -->
<svg width="2978pt" height="1340pt"
 viewBox="0.00 0.00 2978.00 1340.00" xmlns="http://www.w3.org/2000/svg" xmlns:xlink="http://www.w3.org/1999/xlink">
<g id="graph0" class="graph" transform="scale(1 1) rotate(0) translate(4 1336)">
<title>parser.LogoParser.getNextToken</title>
<polygon fill="white" stroke="none" points="-4,4 -4,-1336 2974,-1336 2974,4 -4,4"/>
<!-- Node1 -->
<g id="node1" class="node"><title>Node1</title>
<polygon fill="#bfbfbf" stroke="black" points="0.5,-258 0.5,-288 143.5,-288 143.5,-258 0.5,-258"/>
<text text-anchor="start" x="8.5" y="-276" font-family="Helvetica,sans-Serif" font-size="10.00">parser.LogoParser.getNext</text>
<text text-anchor="middle" x="72" y="-265" font-family="Helvetica,sans-Serif" font-size="10.00">Token</text>
</g>
<!-- Node2 -->
<g id="node2" class="node"><title>Node2</title>
<g id="a_node2"><a xlink:href="../../d0/d8c/classparser_1_1_logo_parser_token_manager.html#a3dee50e2286b70ba662519a865e63b77" target="_top" xlink:title="parser.LogoParserTokenManager.get\lNextToken">
<polygon fill="white" stroke="black" points="180,-258 180,-288 370,-288 370,-258 180,-258"/>
<text text-anchor="start" x="188" y="-276" font-family="Helvetica,sans-Serif" font-size="10.00">parser.LogoParserTokenManager.get</text>
<text text-anchor="middle" x="275" y="-265" font-family="Helvetica,sans-Serif" font-size="10.00">NextToken</text>
</a>
</g>
</g>
<!-- Node1&#45;&gt;Node2 -->
<g id="edge1" class="edge"><title>Node1&#45;&gt;Node2</title>
<path fill="none" stroke="midnightblue" d="M143.582,-273C152.13,-273 160.995,-273 169.898,-273"/>
<polygon fill="midnightblue" stroke="midnightblue" points="169.951,-276.5 179.951,-273 169.951,-269.5 169.951,-276.5"/>
</g>
<!-- Node3 -->
<g id="node3" class="node"><title>Node3</title>
<g id="a_node3"><a xlink:href="../../d4/dad/classparser_1_1_simple_char_stream.html#ad35e1457d139a5986c04f7975065d03d" target="_top" xlink:title="parser.SimpleCharStream.\lBeginToken">
<polygon fill="white" stroke="black" points="1288,-1171 1288,-1201 1432,-1201 1432,-1171 1288,-1171"/>
<text text-anchor="start" x="1296" y="-1189" font-family="Helvetica,sans-Serif" font-size="10.00">parser.SimpleCharStream.</text>
<text text-anchor="middle" x="1360" y="-1178" font-family="Helvetica,sans-Serif" font-size="10.00">BeginToken</text>
</a>
</g>
</g>
<!-- Node2&#45;&gt;Node3 -->
<g id="edge2" class="edge"><title>Node2&#45;&gt;Node3</title>
<path fill="none" stroke="midnightblue" d="M276.717,-288.093C281.723,-388.411 313.974,-959.179 406,-1102 489.593,-1231.73 556.668,-1268 711,-1268 711,-1268 711,-1268 929,-1268 1064.83,-1268 1220.6,-1228.03 1302.25,-1203.9"/>
<polygon fill="midnightblue" stroke="midnightblue" points="1303.26,-1207.25 1311.84,-1201.04 1301.25,-1200.55 1303.26,-1207.25"/>
</g>
<!-- Node4 -->
<g id="node4" class="node"><title>Node4</title>
<g id="a_node4"><a xlink:href="../../d4/dad/classparser_1_1_simple_char_stream.html#a9f80cee02b99e8e200afa646e3b25e29" target="_top" xlink:title="parser.SimpleCharStream.readChar">
<polygon fill="white" stroke="black" points="2350,-702.5 2350,-721.5 2538,-721.5 2538,-702.5 2350,-702.5"/>
<text text-anchor="middle" x="2444" y="-709.5" font-family="Helvetica,sans-Serif" font-size="10.00">parser.SimpleCharStream.readChar</text>
</a>
</g>
</g>
<!-- Node2&#45;&gt;Node4 -->
<g id="edge65" class="edge"><title>Node2&#45;&gt;Node4</title>
<path fill="none" stroke="midnightblue" d="M323.379,-288.014C347.816,-295.179 378.245,-303.214 406,-308 539.997,-331.106 575.025,-332 711,-332 711,-332 711,-332 2009,-332 2147.88,-332 2207.69,-310.629 2314,-400 2407.62,-478.701 2434.33,-636.383 2441,-692.011"/>
<polygon fill="midnightblue" stroke="midnightblue" points="2437.56,-692.714 2442.14,-702.267 2444.52,-691.942 2437.56,-692.714"/>
</g>
<!-- Node7 -->
<g id="node7" class="node"><title>Node7</title>
<g id="a_node7"><a xlink:href="../../d4/dad/classparser_1_1_simple_char_stream.html#a4eacb833520fdfdb1b18be45bc3bd4ba" target="_top" xlink:title="parser.SimpleCharStream.backup">
<polygon fill="white" stroke="black" points="2790.5,-365.5 2790.5,-384.5 2969.5,-384.5 2969.5,-365.5 2790.5,-365.5"/>
<text text-anchor="middle" x="2880" y="-372.5" font-family="Helvetica,sans-Serif" font-size="10.00">parser.SimpleCharStream.backup</text>
</a>
</g>
</g>
<!-- Node2&#45;&gt;Node7 -->
<g id="edge16" class="edge"><title>Node2&#45;&gt;Node7</title>
<path fill="none" stroke="midnightblue" d="M370.126,-280.168C458.19,-286.252 593.428,-294 711,-294 711,-294 711,-294 2445,-294 2592.63,-294 2763.78,-339.849 2839.49,-362.558"/>
<polygon fill="midnightblue" stroke="midnightblue" points="2838.52,-365.919 2849.1,-365.47 2840.55,-359.22 2838.52,-365.919"/>
</g>
<!-- Node9 -->
<g id="node9" class="node"><title>Node9</title>
<g id="a_node9"><a xlink:href="../../d0/d8c/classparser_1_1_logo_parser_token_manager.html#a105d12f62ad67eda0850987aedc48f4d" target="_top" xlink:title="parser.LogoParserTokenManager.jj\lFillToken">
<polygon fill="white" stroke="black" points="406.5,-137 406.5,-167 585.5,-167 585.5,-137 406.5,-137"/>
<text text-anchor="start" x="414.5" y="-155" font-family="Helvetica,sans-Serif" font-size="10.00">parser.LogoParserTokenManager.jj</text>
<text text-anchor="middle" x="496" y="-144" font-family="Helvetica,sans-Serif" font-size="10.00">FillToken</text>
</a>
</g>
</g>
<!-- Node2&#45;&gt;Node9 -->
<g id="edge8" class="edge"><title>Node2&#45;&gt;Node9</title>
<path fill="none" stroke="midnightblue" d="M303.294,-257.92C342.58,-236.214 415.137,-196.125 458.841,-171.978"/>
<polygon fill="midnightblue" stroke="midnightblue" points="460.647,-174.979 467.707,-167.08 457.262,-168.852 460.647,-174.979"/>
</g>
<!-- Node10 -->
<g id="node10" class="node"><title>Node10</title>
<g id="a_node10"><a xlink:href="../../d4/dad/classparser_1_1_simple_char_stream.html#ad220e4e4324856b29042bb7cd3f1bf5e" target="_top" xlink:title="parser.SimpleCharStream.\lGetImage">
<polygon fill="white" stroke="black" points="640,-235 640,-265 784,-265 784,-235 640,-235"/>
<text text-anchor="start" x="648" y="-253" font-family="Helvetica,sans-Serif" font-size="10.00">parser.SimpleCharStream.</text>
<text text-anchor="middle" x="712" y="-242" font-family="Helvetica,sans-Serif" font-size="10.00">GetImage</text>
</a>
</g>
</g>
<!-- Node2&#45;&gt;Node10 -->
<g id="edge66" class="edge"><title>Node2&#45;&gt;Node10</title>
<path fill="none" stroke="midnightblue" d="M370.121,-268.024C447.545,-263.93 556.139,-258.188 629.797,-254.293"/>
<polygon fill="midnightblue" stroke="midnightblue" points="630.151,-257.78 639.952,-253.757 629.781,-250.79 630.151,-257.78"/>
</g>
<!-- Node13 -->
<g id="node13" class="node"><title>Node13</title>
<g id="a_node13"><a xlink:href="../../d4/dad/classparser_1_1_simple_char_stream.html#a47d15eca0c061d9075a8e2e7a835311b" target="_top" xlink:title="parser.SimpleCharStream.get\lEndLine">
<polygon fill="white" stroke="black" points="632,-49 632,-79 792,-79 792,-49 632,-49"/>
<text text-anchor="start" x="640" y="-67" font-family="Helvetica,sans-Serif" font-size="10.00">parser.SimpleCharStream.get</text>
<text text-anchor="middle" x="712" y="-56" font-family="Helvetica,sans-Serif" font-size="10.00">EndLine</text>
</a>
</g>
</g>
<!-- Node2&#45;&gt;Node13 -->
<g id="edge63" class="edge"><title>Node2&#45;&gt;Node13</title>
<path fill="none" stroke="midnightblue" d="M284.863,-257.717C303.256,-227.478 348.682,-160.085 406,-127 472.119,-88.8348 558.085,-73.6045 621.891,-67.6198"/>
<polygon fill="midnightblue" stroke="midnightblue" points="622.28,-71.0992 631.935,-66.7366 621.667,-64.1262 622.28,-71.0992"/>
</g>
<!-- Node14 -->
<g id="node14" class="node"><title>Node14</title>
<g id="a_node14"><a xlink:href="../../d4/dad/classparser_1_1_simple_char_stream.html#a3481ab0706f472b64151b31a36e883ef" target="_top" xlink:title="parser.SimpleCharStream.get\lEndColumn">
<polygon fill="white" stroke="black" points="632,-0 632,-30 792,-30 792,-0 632,-0"/>
<text text-anchor="start" x="640" y="-18" font-family="Helvetica,sans-Serif" font-size="10.00">parser.SimpleCharStream.get</text>
<text text-anchor="middle" x="712" y="-7" font-family="Helvetica,sans-Serif" font-size="10.00">EndColumn</text>
</a>
</g>
</g>
<!-- Node2&#45;&gt;Node14 -->
<g id="edge64" class="edge"><title>Node2&#45;&gt;Node14</title>
<path fill="none" stroke="midnightblue" d="M280.805,-257.917C293.925,-219.379 334.255,-116.968 406,-69 469.65,-26.444 556.847,-14.5215 621.708,-12.3211"/>
<polygon fill="midnightblue" stroke="midnightblue" points="622.016,-15.8142 631.919,-12.0482 621.829,-8.81671 622.016,-15.8142"/>
</g>
<!-- Node17 -->
<g id="node17" class="node"><title>Node17</title>
<g id="a_node17"><a xlink:href="../../d0/d8c/classparser_1_1_logo_parser_token_manager.html#a2b55f093fc0200c57a099eba2d9b37e2" target="_top" xlink:title="parser.LogoParserTokenManager.jj\lMoveStringLiteralDfa0_0">
<polygon fill="white" stroke="black" points="406.5,-1063 406.5,-1093 585.5,-1093 585.5,-1063 406.5,-1063"/>
<text text-anchor="start" x="414.5" y="-1081" font-family="Helvetica,sans-Serif" font-size="10.00">parser.LogoParserTokenManager.jj</text>
<text text-anchor="middle" x="496" y="-1070" font-family="Helvetica,sans-Serif" font-size="10.00">MoveStringLiteralDfa0_0</text>
</a>
</g>
</g>
<!-- Node2&#45;&gt;Node17 -->
<g id="edge17" class="edge"><title>Node2&#45;&gt;Node17</title>
<path fill="none" stroke="midnightblue" d="M280.083,-288.009C306.625,-385.573 454.624,-929.586 488.217,-1053.07"/>
<polygon fill="midnightblue" stroke="midnightblue" points="484.855,-1054.04 490.857,-1062.77 491.609,-1052.2 484.855,-1054.04"/>
</g>
<!-- Node3&#45;&gt;Node4 -->
<g id="edge3" class="edge"><title>Node3&#45;&gt;Node4</title>
<path fill="none" stroke="midnightblue" d="M1432.14,-1184.4C1517.41,-1182.62 1664.64,-1180 1791,-1180 1791,-1180 1791,-1180 2009,-1180 2076.99,-1180 2261.28,-1198.92 2314,-1156 2382.68,-1100.09 2428.8,-810.717 2440.23,-731.864"/>
<polygon fill="midnightblue" stroke="midnightblue" points="2443.72,-732.204 2441.66,-721.81 2436.79,-731.216 2443.72,-732.204"/>
</g>
<!-- Node5 -->
<g id="node5" class="node"><title>Node5</title>
<g id="a_node5"><a xlink:href="../../d4/dad/classparser_1_1_simple_char_stream.html#aac1dcd2a238adbc951d3af740cc2aa13" target="_top" xlink:title="parser.SimpleCharStream.\lFillBuff">
<polygon fill="white" stroke="black" points="2592,-566 2592,-596 2736,-596 2736,-566 2592,-566"/>
<text text-anchor="start" x="2600" y="-584" font-family="Helvetica,sans-Serif" font-size="10.00">parser.SimpleCharStream.</text>
<text text-anchor="middle" x="2664" y="-573" font-family="Helvetica,sans-Serif" font-size="10.00">FillBuff</text>
</a>
</g>
</g>
<!-- Node4&#45;&gt;Node5 -->
<g id="edge4" class="edge"><title>Node4&#45;&gt;Node5</title>
<path fill="none" stroke="midnightblue" d="M2461.03,-702.367C2496.32,-681.162 2581.36,-630.057 2629.08,-601.385"/>
<polygon fill="midnightblue" stroke="midnightblue" points="2631.05,-604.285 2637.81,-596.134 2627.44,-598.285 2631.05,-604.285"/>
</g>
<!-- Node8 -->
<g id="node8" class="node"><title>Node8</title>
<g id="a_node8"><a xlink:href="../../d4/dad/classparser_1_1_simple_char_stream.html#ad8ca3472934b9d38c005c8885d859403" target="_top" xlink:title="parser.SimpleCharStream.\lUpdateLineColumn">
<polygon fill="white" stroke="black" points="2592,-697 2592,-727 2736,-727 2736,-697 2592,-697"/>
<text text-anchor="start" x="2600" y="-715" font-family="Helvetica,sans-Serif" font-size="10.00">parser.SimpleCharStream.</text>
<text text-anchor="middle" x="2664" y="-704" font-family="Helvetica,sans-Serif" font-size="10.00">UpdateLineColumn</text>
</a>
</g>
</g>
<!-- Node4&#45;&gt;Node8 -->
<g id="edge7" class="edge"><title>Node4&#45;&gt;Node8</title>
<path fill="none" stroke="midnightblue" d="M2538.08,-712C2552.61,-712 2567.52,-712 2581.76,-712"/>
<polygon fill="midnightblue" stroke="midnightblue" points="2581.99,-715.5 2591.99,-712 2581.99,-708.5 2581.99,-715.5"/>
</g>
<!-- Node6 -->
<g id="node6" class="node"><title>Node6</title>
<g id="a_node6"><a xlink:href="../../d4/dad/classparser_1_1_simple_char_stream.html#a5328cda7180ed2a180eac8af133517cf" target="_top" xlink:title="parser.SimpleCharStream.\lExpandBuff">
<polygon fill="white" stroke="black" points="2808,-566 2808,-596 2952,-596 2952,-566 2808,-566"/>
<text text-anchor="start" x="2816" y="-584" font-family="Helvetica,sans-Serif" font-size="10.00">parser.SimpleCharStream.</text>
<text text-anchor="middle" x="2880" y="-573" font-family="Helvetica,sans-Serif" font-size="10.00">ExpandBuff</text>
</a>
</g>
</g>
<!-- Node5&#45;&gt;Node6 -->
<g id="edge5" class="edge"><title>Node5&#45;&gt;Node6</title>
<path fill="none" stroke="midnightblue" d="M2736.26,-581C2755.92,-581 2777.39,-581 2797.58,-581"/>
<polygon fill="midnightblue" stroke="midnightblue" points="2797.69,-584.5 2807.69,-581 2797.69,-577.5 2797.69,-584.5"/>
</g>
<!-- Node5&#45;&gt;Node7 -->
<g id="edge6" class="edge"><title>Node5&#45;&gt;Node7</title>
<path fill="none" stroke="midnightblue" d="M2680.74,-565.852C2719.83,-528.221 2821.13,-430.706 2861.76,-391.592"/>
<polygon fill="midnightblue" stroke="midnightblue" points="2864.27,-394.039 2869.05,-384.582 2859.41,-388.996 2864.27,-394.039"/>
</g>
<!-- Node9&#45;&gt;Node10 -->
<g id="edge9" class="edge"><title>Node9&#45;&gt;Node10</title>
<path fill="none" stroke="midnightblue" d="M519.127,-167.271C543.429,-183.472 584.058,-208.904 622,-225 627.721,-227.427 633.747,-229.691 639.855,-231.787"/>
<polygon fill="midnightblue" stroke="midnightblue" points="638.897,-235.156 649.489,-234.941 641.075,-228.504 638.897,-235.156"/>
</g>
<!-- Node11 -->
<g id="node11" class="node"><title>Node11</title>
<g id="a_node11"><a xlink:href="../../d4/dad/classparser_1_1_simple_char_stream.html#a57abeecbf653aeb71b0e7631b3a30331" target="_top" xlink:title="parser.SimpleCharStream.get\lBeginLine">
<polygon fill="white" stroke="black" points="632,-186 632,-216 792,-216 792,-186 632,-186"/>
<text text-anchor="start" x="640" y="-204" font-family="Helvetica,sans-Serif" font-size="10.00">parser.SimpleCharStream.get</text>
<text text-anchor="middle" x="712" y="-193" font-family="Helvetica,sans-Serif" font-size="10.00">BeginLine</text>
</a>
</g>
</g>
<!-- Node9&#45;&gt;Node11 -->
<g id="edge10" class="edge"><title>Node9&#45;&gt;Node11</title>
<path fill="none" stroke="midnightblue" d="M562.661,-167.035C585.668,-172.302 611.687,-178.26 635.438,-183.698"/>
<polygon fill="midnightblue" stroke="midnightblue" points="634.934,-187.173 645.463,-185.994 636.496,-180.35 634.934,-187.173"/>
</g>
<!-- Node12 -->
<g id="node12" class="node"><title>Node12</title>
<g id="a_node12"><a xlink:href="../../d4/dad/classparser_1_1_simple_char_stream.html#ab206c6e9c44d1f594317a7920e6c9372" target="_top" xlink:title="parser.SimpleCharStream.get\lBeginColumn">
<polygon fill="white" stroke="black" points="632,-137 632,-167 792,-167 792,-137 632,-137"/>
<text text-anchor="start" x="640" y="-155" font-family="Helvetica,sans-Serif" font-size="10.00">parser.SimpleCharStream.get</text>
<text text-anchor="middle" x="712" y="-144" font-family="Helvetica,sans-Serif" font-size="10.00">BeginColumn</text>
</a>
</g>
</g>
<!-- Node9&#45;&gt;Node12 -->
<g id="edge11" class="edge"><title>Node9&#45;&gt;Node12</title>
<path fill="none" stroke="midnightblue" d="M585.587,-152C597.415,-152 609.553,-152 621.398,-152"/>
<polygon fill="midnightblue" stroke="midnightblue" points="621.718,-155.5 631.718,-152 621.718,-148.5 621.718,-155.5"/>
</g>
<!-- Node9&#45;&gt;Node13 -->
<g id="edge12" class="edge"><title>Node9&#45;&gt;Node13</title>
<path fill="none" stroke="midnightblue" d="M527.992,-136.928C545.145,-128.524 566.814,-117.803 586,-108 602.11,-99.7681 605.197,-95.7061 622,-89 628.109,-86.5618 634.543,-84.2636 641.042,-82.1229"/>
<polygon fill="midnightblue" stroke="midnightblue" points="642.103,-85.4583 650.579,-79.1014 639.989,-78.7852 642.103,-85.4583"/>
</g>
<!-- Node9&#45;&gt;Node14 -->
<g id="edge13" class="edge"><title>Node9&#45;&gt;Node14</title>
<path fill="none" stroke="midnightblue" d="M509.547,-136.724C530.365,-112.384 574.484,-64.9092 622,-39 625.458,-37.1146 629.073,-35.3699 632.784,-33.7563"/>
<polygon fill="midnightblue" stroke="midnightblue" points="634.179,-36.9679 642.169,-30.0098 631.584,-30.4668 634.179,-36.9679"/>
</g>
<!-- Node15 -->
<g id="node15" class="node"><title>Node15</title>
<g id="a_node15"><a xlink:href="../../db/df3/classparser_1_1_token.html#ae26c3dba3bc9315a3fc688514f51c9bf" target="_top" xlink:title="parser.Token.newToken">
<polygon fill="white" stroke="black" points="649.5,-98.5 649.5,-117.5 774.5,-117.5 774.5,-98.5 649.5,-98.5"/>
<text text-anchor="middle" x="712" y="-105.5" font-family="Helvetica,sans-Serif" font-size="10.00">parser.Token.newToken</text>
</a>
</g>
</g>
<!-- Node9&#45;&gt;Node15 -->
<g id="edge14" class="edge"><title>Node9&#45;&gt;Node15</title>
<path fill="none" stroke="midnightblue" d="M570.048,-136.981C597.733,-131.288 628.802,-124.901 654.71,-119.574"/>
<polygon fill="midnightblue" stroke="midnightblue" points="655.645,-122.955 664.735,-117.512 654.235,-116.098 655.645,-122.955"/>
</g>
<!-- Node16 -->
<g id="node16" class="node"><title>Node16</title>
<g id="a_node16"><a xlink:href="../../db/df3/classparser_1_1_token.html#aee7a764d984c5f071e40e215c400fc3d" target="_top" xlink:title="parser.Token.Token">
<polygon fill="white" stroke="black" points="874.5,-98.5 874.5,-117.5 981.5,-117.5 981.5,-98.5 874.5,-98.5"/>
<text text-anchor="middle" x="928" y="-105.5" font-family="Helvetica,sans-Serif" font-size="10.00">parser.Token.Token</text>
</a>
</g>
</g>
<!-- Node15&#45;&gt;Node16 -->
<g id="edge15" class="edge"><title>Node15&#45;&gt;Node16</title>
<path fill="none" stroke="midnightblue" d="M774.611,-108C802.653,-108 835.802,-108 864.009,-108"/>
<polygon fill="midnightblue" stroke="midnightblue" points="864.159,-111.5 874.159,-108 864.158,-104.5 864.159,-111.5"/>
</g>
<!-- Node18 -->
<g id="node18" class="node"><title>Node18</title>
<g id="a_node18"><a xlink:href="../../d0/d8c/classparser_1_1_logo_parser_token_manager.html#a94b20a17d94554012918e876be221c46" target="_top" xlink:title="parser.LogoParserTokenManager.jj\lStartNfaWithStates_0">
<polygon fill="white" stroke="black" points="1918.5,-915 1918.5,-945 2097.5,-945 2097.5,-915 1918.5,-915"/>
<text text-anchor="start" x="1926.5" y="-933" font-family="Helvetica,sans-Serif" font-size="10.00">parser.LogoParserTokenManager.jj</text>
<text text-anchor="middle" x="2008" y="-922" font-family="Helvetica,sans-Serif" font-size="10.00">StartNfaWithStates_0</text>
</a>
</g>
</g>
<!-- Node17&#45;&gt;Node18 -->
<g id="edge18" class="edge"><title>Node17&#45;&gt;Node18</title>
<path fill="none" stroke="midnightblue" d="M585.704,-1087.42C597.887,-1088.45 610.245,-1089.36 622,-1090 813.73,-1100.52 861.986,-1094.67 1054,-1096 1134,-1096.56 1154.43,-1104.26 1234,-1096 1526.7,-1065.62 1594.9,-1024.57 1882,-960 1899.38,-956.091 1918.08,-951.702 1935.58,-947.514"/>
<polygon fill="midnightblue" stroke="midnightblue" points="1936.82,-950.815 1945.73,-945.076 1935.19,-944.009 1936.82,-950.815"/>
</g>
<!-- Node19 -->
<g id="node19" class="node"><title>Node19</title>
<g id="a_node19"><a xlink:href="../../d0/d8c/classparser_1_1_logo_parser_token_manager.html#a0071f141b41b403c8ab151c8c014a709" target="_top" xlink:title="parser.LogoParserTokenManager.jj\lMoveNfa_0">
<polygon fill="white" stroke="black" points="2134.5,-1209 2134.5,-1239 2313.5,-1239 2313.5,-1209 2134.5,-1209"/>
<text text-anchor="start" x="2142.5" y="-1227" font-family="Helvetica,sans-Serif" font-size="10.00">parser.LogoParserTokenManager.jj</text>
<text text-anchor="middle" x="2224" y="-1216" font-family="Helvetica,sans-Serif" font-size="10.00">MoveNfa_0</text>
</a>
</g>
</g>
<!-- Node17&#45;&gt;Node19 -->
<g id="edge62" class="edge"><title>Node17&#45;&gt;Node19</title>
<path fill="none" stroke="midnightblue" d="M568.174,-1093C574.233,-1094.58 580.242,-1096.25 586,-1098 741.485,-1145.28 764.486,-1230 927,-1230 927,-1230 927,-1230 1793,-1230 1906.65,-1230 2037.18,-1227.88 2124.33,-1226.16"/>
<polygon fill="midnightblue" stroke="midnightblue" points="2124.55,-1229.66 2134.48,-1225.96 2124.41,-1222.66 2124.55,-1229.66"/>
</g>
<!-- Node25 -->
<g id="node25" class="node"><title>Node25</title>
<g id="a_node25"><a xlink:href="../../d0/d8c/classparser_1_1_logo_parser_token_manager.html#a99a01f0b68908e628349e9f09a2cbccd" target="_top" xlink:title="parser.LogoParserTokenManager.jj\lMoveStringLiteralDfa1_0">
<polygon fill="white" stroke="black" points="622.5,-959 622.5,-989 801.5,-989 801.5,-959 622.5,-959"/>
<text text-anchor="start" x="630.5" y="-977" font-family="Helvetica,sans-Serif" font-size="10.00">parser.LogoParserTokenManager.jj</text>
<text text-anchor="middle" x="712" y="-966" font-family="Helvetica,sans-Serif" font-size="10.00">MoveStringLiteralDfa1_0</text>
</a>
</g>
</g>
<!-- Node17&#45;&gt;Node25 -->
<g id="edge29" class="edge"><title>Node17&#45;&gt;Node25</title>
<path fill="none" stroke="midnightblue" d="M528.117,-1062.88C565.758,-1044.58 629.212,-1013.75 670.598,-993.635"/>
<polygon fill="midnightblue" stroke="midnightblue" points="672.381,-996.66 679.845,-989.141 669.321,-990.364 672.381,-996.66"/>
</g>
<!-- Node29 -->
<g id="node29" class="node"><title>Node29</title>
<g id="a_node29"><a xlink:href="../../d0/d8c/classparser_1_1_logo_parser_token_manager.html#ab983b76c64f4c06ba9c5469d87e6eddd" target="_top" xlink:title="parser.LogoParserTokenManager.jj\lStopAtPos">
<polygon fill="white" stroke="black" points="1054.5,-1057 1054.5,-1087 1233.5,-1087 1233.5,-1057 1054.5,-1057"/>
<text text-anchor="start" x="1062.5" y="-1075" font-family="Helvetica,sans-Serif" font-size="10.00">parser.LogoParserTokenManager.jj</text>
<text text-anchor="middle" x="1144" y="-1064" font-family="Helvetica,sans-Serif" font-size="10.00">StopAtPos</text>
</a>
</g>
</g>
<!-- Node17&#45;&gt;Node29 -->
<g id="edge61" class="edge"><title>Node17&#45;&gt;Node29</title>
<path fill="none" stroke="midnightblue" d="M585.807,-1077.18C705.811,-1076.06 919.081,-1074.08 1044.08,-1072.92"/>
<polygon fill="midnightblue" stroke="midnightblue" points="1044.44,-1076.42 1054.41,-1072.82 1044.38,-1069.42 1044.44,-1076.42"/>
</g>
<!-- Node18&#45;&gt;Node4 -->
<g id="edge19" class="edge"><title>Node18&#45;&gt;Node4</title>
<path fill="none" stroke="midnightblue" d="M2039.17,-914.844C2119.36,-874.564 2336.96,-765.266 2414.82,-726.156"/>
<polygon fill="midnightblue" stroke="midnightblue" points="2416.66,-729.15 2424.02,-721.533 2413.51,-722.895 2416.66,-729.15"/>
</g>
<!-- Node18&#45;&gt;Node19 -->
<g id="edge20" class="edge"><title>Node18&#45;&gt;Node19</title>
<path fill="none" stroke="midnightblue" d="M2020.2,-945.393C2055.38,-993.717 2163.77,-1142.62 2205.95,-1200.58"/>
<polygon fill="midnightblue" stroke="midnightblue" points="2203.19,-1202.73 2211.91,-1208.76 2208.85,-1198.61 2203.19,-1202.73"/>
</g>
<!-- Node19&#45;&gt;Node4 -->
<g id="edge28" class="edge"><title>Node19&#45;&gt;Node4</title>
<path fill="none" stroke="midnightblue" d="M2293.42,-1208.99C2301.08,-1205.09 2308.2,-1200.18 2314,-1194 2347.11,-1158.71 2420.71,-817.754 2438.88,-731.665"/>
<polygon fill="midnightblue" stroke="midnightblue" points="2442.35,-732.167 2440.99,-721.661 2435.5,-730.727 2442.35,-732.167"/>
</g>
<!-- Node20 -->
<g id="node20" class="node"><title>Node20</title>
<g id="a_node20"><a xlink:href="../../d0/d8c/classparser_1_1_logo_parser_token_manager.html#a5923cb696d0a55f99661625200327816" target="_top" xlink:title="parser.LogoParserTokenManager.\lReInitRounds">
<polygon fill="white" stroke="black" points="2357,-1253 2357,-1283 2531,-1283 2531,-1253 2357,-1253"/>
<text text-anchor="start" x="2365" y="-1271" font-family="Helvetica,sans-Serif" font-size="10.00">parser.LogoParserTokenManager.</text>
<text text-anchor="middle" x="2444" y="-1260" font-family="Helvetica,sans-Serif" font-size="10.00">ReInitRounds</text>
</a>
</g>
</g>
<!-- Node19&#45;&gt;Node20 -->
<g id="edge21" class="edge"><title>Node19&#45;&gt;Node20</title>
<path fill="none" stroke="midnightblue" d="M2299.41,-1239.02C2318.51,-1242.87 2339.19,-1247.05 2358.75,-1251"/>
<polygon fill="midnightblue" stroke="midnightblue" points="2358.06,-1254.43 2368.55,-1252.97 2359.44,-1247.56 2358.06,-1254.43"/>
</g>
<!-- Node21 -->
<g id="node21" class="node"><title>Node21</title>
<g id="a_node21"><a xlink:href="../../d0/d8c/classparser_1_1_logo_parser_token_manager.html#af1b1635a624926faf7741958cc140de4" target="_top" xlink:title="parser.LogoParserTokenManager.jj\lCheckNAdd">
<polygon fill="white" stroke="black" points="2574.5,-1165 2574.5,-1195 2753.5,-1195 2753.5,-1165 2574.5,-1165"/>
<text text-anchor="start" x="2582.5" y="-1183" font-family="Helvetica,sans-Serif" font-size="10.00">parser.LogoParserTokenManager.jj</text>
<text text-anchor="middle" x="2664" y="-1172" font-family="Helvetica,sans-Serif" font-size="10.00">CheckNAdd</text>
</a>
</g>
</g>
<!-- Node19&#45;&gt;Node21 -->
<g id="edge22" class="edge"><title>Node19&#45;&gt;Node21</title>
<path fill="none" stroke="midnightblue" d="M2313.65,-1221.31C2376.48,-1218.68 2462.65,-1213.6 2538,-1204 2552.6,-1202.14 2568.07,-1199.62 2582.97,-1196.91"/>
<polygon fill="midnightblue" stroke="midnightblue" points="2583.98,-1200.29 2593.17,-1195.02 2582.7,-1193.4 2583.98,-1200.29"/>
</g>
<!-- Node22 -->
<g id="node22" class="node"><title>Node22</title>
<g id="a_node22"><a xlink:href="../../d0/d8c/classparser_1_1_logo_parser_token_manager.html#ad31cdd6db411f95b045686c2053f42fa" target="_top" xlink:title="parser.LogoParserTokenManager.jj\lAddStates">
<polygon fill="white" stroke="black" points="2354.5,-1302 2354.5,-1332 2533.5,-1332 2533.5,-1302 2354.5,-1302"/>
<text text-anchor="start" x="2362.5" y="-1320" font-family="Helvetica,sans-Serif" font-size="10.00">parser.LogoParserTokenManager.jj</text>
<text text-anchor="middle" x="2444" y="-1309" font-family="Helvetica,sans-Serif" font-size="10.00">AddStates</text>
</a>
</g>
</g>
<!-- Node19&#45;&gt;Node22 -->
<g id="edge23" class="edge"><title>Node19&#45;&gt;Node22</title>
<path fill="none" stroke="midnightblue" d="M2248.61,-1239.04C2273.15,-1254.14 2313.07,-1277.23 2350,-1292 2356.15,-1294.46 2362.63,-1296.76 2369.19,-1298.89"/>
<polygon fill="midnightblue" stroke="midnightblue" points="2368.23,-1302.25 2378.81,-1301.88 2370.3,-1295.57 2368.23,-1302.25"/>
</g>
<!-- Node23 -->
<g id="node23" class="node"><title>Node23</title>
<g id="a_node23"><a xlink:href="../../d0/d8c/classparser_1_1_logo_parser_token_manager.html#a8f9adc17a4a9b201128786ca145783e8" target="_top" xlink:title="parser.LogoParserTokenManager.jj\lCheckNAddTwoStates">
<polygon fill="white" stroke="black" points="2354.5,-1165 2354.5,-1195 2533.5,-1195 2533.5,-1165 2354.5,-1165"/>
<text text-anchor="start" x="2362.5" y="-1183" font-family="Helvetica,sans-Serif" font-size="10.00">parser.LogoParserTokenManager.jj</text>
<text text-anchor="middle" x="2444" y="-1172" font-family="Helvetica,sans-Serif" font-size="10.00">CheckNAddTwoStates</text>
</a>
</g>
</g>
<!-- Node19&#45;&gt;Node23 -->
<g id="edge24" class="edge"><title>Node19&#45;&gt;Node23</title>
<path fill="none" stroke="midnightblue" d="M2299.41,-1208.98C2318.51,-1205.13 2339.19,-1200.95 2358.75,-1197"/>
<polygon fill="midnightblue" stroke="midnightblue" points="2359.44,-1200.44 2368.55,-1195.03 2358.06,-1193.57 2359.44,-1200.44"/>
</g>
<!-- Node24 -->
<g id="node24" class="node"><title>Node24</title>
<g id="a_node24"><a xlink:href="../../d0/d8c/classparser_1_1_logo_parser_token_manager.html#ac4047538420e7ceceec16698b354cd62" target="_top" xlink:title="parser.LogoParserTokenManager.jj\lCheckNAddStates">
<polygon fill="white" stroke="black" points="2354.5,-1116 2354.5,-1146 2533.5,-1146 2533.5,-1116 2354.5,-1116"/>
<text text-anchor="start" x="2362.5" y="-1134" font-family="Helvetica,sans-Serif" font-size="10.00">parser.LogoParserTokenManager.jj</text>
<text text-anchor="middle" x="2444" y="-1123" font-family="Helvetica,sans-Serif" font-size="10.00">CheckNAddStates</text>
</a>
</g>
</g>
<!-- Node19&#45;&gt;Node24 -->
<g id="edge26" class="edge"><title>Node19&#45;&gt;Node24</title>
<path fill="none" stroke="midnightblue" d="M2283.38,-1208.89C2294,-1204.89 2304.66,-1199.97 2314,-1194 2333.6,-1181.47 2330.02,-1167.91 2350,-1156 2353.64,-1153.83 2357.46,-1151.85 2361.4,-1150.04"/>
<polygon fill="midnightblue" stroke="midnightblue" points="2362.91,-1153.2 2370.78,-1146.1 2360.21,-1146.74 2362.91,-1153.2"/>
</g>
<!-- Node23&#45;&gt;Node21 -->
<g id="edge25" class="edge"><title>Node23&#45;&gt;Node21</title>
<path fill="none" stroke="midnightblue" d="M2533.67,-1180C2543.75,-1180 2554.07,-1180 2564.27,-1180"/>
<polygon fill="midnightblue" stroke="midnightblue" points="2564.41,-1183.5 2574.41,-1180 2564.41,-1176.5 2564.41,-1183.5"/>
</g>
<!-- Node24&#45;&gt;Node21 -->
<g id="edge27" class="edge"><title>Node24&#45;&gt;Node21</title>
<path fill="none" stroke="midnightblue" d="M2511.89,-1146.03C2535.43,-1151.33 2562.07,-1157.31 2586.35,-1162.77"/>
<polygon fill="midnightblue" stroke="midnightblue" points="2585.71,-1166.22 2596.24,-1164.99 2587.25,-1159.39 2585.71,-1166.22"/>
</g>
<!-- Node25&#45;&gt;Node4 -->
<g id="edge30" class="edge"><title>Node25&#45;&gt;Node4</title>
<path fill="none" stroke="midnightblue" d="M746.04,-989.044C805.993,-1015.61 937.307,-1070.42 1054,-1096 1281.06,-1145.78 1342.54,-1142 1575,-1142 1575,-1142 1575,-1142 2009,-1142 2156.01,-1142 2212.42,-1120.27 2314,-1014 2395.48,-928.764 2429.5,-784.134 2439.57,-731.714"/>
<polygon fill="midnightblue" stroke="midnightblue" points="2443.04,-732.193 2441.41,-721.725 2436.15,-730.926 2443.04,-732.193"/>
</g>
<!-- Node26 -->
<g id="node26" class="node"><title>Node26</title>
<g id="a_node26"><a xlink:href="../../d0/d8c/classparser_1_1_logo_parser_token_manager.html#a1f212a863542f9f3993faf51bb46ae8e" target="_top" xlink:title="parser.LogoParserTokenManager.jj\lStopStringLiteralDfa_0">
<polygon fill="white" stroke="black" points="2134.5,-501 2134.5,-531 2313.5,-531 2313.5,-501 2134.5,-501"/>
<text text-anchor="start" x="2142.5" y="-519" font-family="Helvetica,sans-Serif" font-size="10.00">parser.LogoParserTokenManager.jj</text>
<text text-anchor="middle" x="2224" y="-508" font-family="Helvetica,sans-Serif" font-size="10.00">StopStringLiteralDfa_0</text>
</a>
</g>
</g>
<!-- Node25&#45;&gt;Node26 -->
<g id="edge31" class="edge"><title>Node25&#45;&gt;Node26</title>
<path fill="none" stroke="midnightblue" d="M718.396,-958.579C743.555,-889.172 856.531,-603.69 1054,-478 1364.93,-280.094 1513.63,-420.074 1882,-432 1978.15,-435.113 2005.75,-418.712 2098,-446 2116.89,-451.587 2160.24,-477.05 2190.57,-495.659"/>
<polygon fill="midnightblue" stroke="midnightblue" points="2188.78,-498.67 2199.13,-500.944 2192.46,-492.714 2188.78,-498.67"/>
</g>
<!-- Node27 -->
<g id="node27" class="node"><title>Node27</title>
<g id="a_node27"><a xlink:href="../../d0/d8c/classparser_1_1_logo_parser_token_manager.html#a26eaeb3ef169f93c03edbb3e26128b7a" target="_top" xlink:title="parser.LogoParserTokenManager.jj\lMoveStringLiteralDfa2_0">
<polygon fill="white" stroke="black" points="838.5,-959 838.5,-989 1017.5,-989 1017.5,-959 838.5,-959"/>
<text text-anchor="start" x="846.5" y="-977" font-family="Helvetica,sans-Serif" font-size="10.00">parser.LogoParserTokenManager.jj</text>
<text text-anchor="middle" x="928" y="-966" font-family="Helvetica,sans-Serif" font-size="10.00">MoveStringLiteralDfa2_0</text>
</a>
</g>
</g>
<!-- Node25&#45;&gt;Node27 -->
<g id="edge32" class="edge"><title>Node25&#45;&gt;Node27</title>
<path fill="none" stroke="midnightblue" d="M801.587,-974C810.442,-974 819.472,-974 828.422,-974"/>
<polygon fill="midnightblue" stroke="midnightblue" points="828.48,-977.5 838.48,-974 828.48,-970.5 828.48,-977.5"/>
</g>
<!-- Node28 -->
<g id="node28" class="node"><title>Node28</title>
<g id="a_node28"><a xlink:href="../../d0/d8c/classparser_1_1_logo_parser_token_manager.html#aa065c8b0c977d3c1c9d9058f96664080" target="_top" xlink:title="parser.LogoParserTokenManager.jj\lStartNfa_0">
<polygon fill="white" stroke="black" points="1918.5,-804 1918.5,-834 2097.5,-834 2097.5,-804 1918.5,-804"/>
<text text-anchor="start" x="1926.5" y="-822" font-family="Helvetica,sans-Serif" font-size="10.00">parser.LogoParserTokenManager.jj</text>
<text text-anchor="middle" x="2008" y="-811" font-family="Helvetica,sans-Serif" font-size="10.00">StartNfa_0</text>
</a>
</g>
</g>
<!-- Node25&#45;&gt;Node28 -->
<g id="edge60" class="edge"><title>Node25&#45;&gt;Node28</title>
<path fill="none" stroke="midnightblue" d="M779.265,-958.937C863.376,-941.164 1013.16,-914 1143,-914 1143,-914 1143,-914 1577,-914 1717.4,-914 1877.65,-865.112 1957.02,-837.477"/>
<polygon fill="midnightblue" stroke="midnightblue" points="1958.48,-840.673 1966.75,-834.053 1956.15,-834.07 1958.48,-840.673"/>
</g>
<!-- Node27&#45;&gt;Node4 -->
<g id="edge36" class="edge"><title>Node27&#45;&gt;Node4</title>
<path fill="none" stroke="midnightblue" d="M987.588,-989.04C1126.22,-1023.26 1485.66,-1104 1791,-1104 1791,-1104 1791,-1104 2009,-1104 2234.43,-1104 2395.29,-809.127 2434.01,-730.874"/>
<polygon fill="midnightblue" stroke="midnightblue" points="2437.25,-732.213 2438.48,-721.69 2430.96,-729.149 2437.25,-732.213"/>
</g>
<!-- Node27&#45;&gt;Node18 -->
<g id="edge59" class="edge"><title>Node27&#45;&gt;Node18</title>
<path fill="none" stroke="midnightblue" d="M1017.53,-973.966C1121.22,-973.618 1298.15,-972.07 1450,-966 1610.56,-959.583 1796.82,-946.374 1908.12,-937.865"/>
<polygon fill="midnightblue" stroke="midnightblue" points="1908.62,-941.337 1918.32,-937.082 1908.08,-934.358 1908.62,-941.337"/>
</g>
<!-- Node27&#45;&gt;Node26 -->
<g id="edge37" class="edge"><title>Node27&#45;&gt;Node26</title>
<path fill="none" stroke="midnightblue" d="M932.991,-958.767C956.678,-872.196 1087.1,-446 1359,-446 1359,-446 1359,-446 1793,-446 1929.45,-446 1964.1,-454.745 2098,-481 2120.53,-485.417 2144.92,-491.861 2166.12,-498.019"/>
<polygon fill="midnightblue" stroke="midnightblue" points="2165.36,-501.442 2175.94,-500.914 2167.34,-494.728 2165.36,-501.442"/>
</g>
<!-- Node27&#45;&gt;Node28 -->
<g id="edge33" class="edge"><title>Node27&#45;&gt;Node28</title>
<path fill="none" stroke="midnightblue" d="M1017.87,-966.796C1104.78,-960.38 1240.89,-952 1359,-952 1359,-952 1359,-952 1577,-952 1712.97,-952 1756.64,-980.679 1882,-928 1905.39,-918.17 1955.82,-870.209 1984.98,-841.282"/>
<polygon fill="midnightblue" stroke="midnightblue" points="1987.64,-843.565 1992.25,-834.023 1982.7,-838.611 1987.64,-843.565"/>
</g>
<!-- Node27&#45;&gt;Node29 -->
<g id="edge38" class="edge"><title>Node27&#45;&gt;Node29</title>
<path fill="none" stroke="midnightblue" d="M953.734,-989.12C978.5,-1003.86 1018,-1026.28 1054,-1042 1063.51,-1046.15 1073.8,-1050.1 1083.88,-1053.68"/>
<polygon fill="midnightblue" stroke="midnightblue" points="1082.86,-1057.03 1093.46,-1056.99 1085.15,-1050.41 1082.86,-1057.03"/>
</g>
<!-- Node30 -->
<g id="node30" class="node"><title>Node30</title>
<g id="a_node30"><a xlink:href="../../d0/d8c/classparser_1_1_logo_parser_token_manager.html#a12bfedaecfaf646642cb1aba5b1bd6fb" target="_top" xlink:title="parser.LogoParserTokenManager.jj\lMoveStringLiteralDfa3_0">
<polygon fill="white" stroke="black" points="1054.5,-785 1054.5,-815 1233.5,-815 1233.5,-785 1054.5,-785"/>
<text text-anchor="start" x="1062.5" y="-803" font-family="Helvetica,sans-Serif" font-size="10.00">parser.LogoParserTokenManager.jj</text>
<text text-anchor="middle" x="1144" y="-792" font-family="Helvetica,sans-Serif" font-size="10.00">MoveStringLiteralDfa3_0</text>
</a>
</g>
</g>
<!-- Node27&#45;&gt;Node30 -->
<g id="edge39" class="edge"><title>Node27&#45;&gt;Node30</title>
<path fill="none" stroke="midnightblue" d="M947.617,-958.863C985.639,-927.948 1072.33,-857.464 1116.32,-821.69"/>
<polygon fill="midnightblue" stroke="midnightblue" points="1118.72,-824.25 1124.27,-815.226 1114.31,-818.819 1118.72,-824.25"/>
</g>
<!-- Node28&#45;&gt;Node19 -->
<g id="edge34" class="edge"><title>Node28&#45;&gt;Node19</title>
<path fill="none" stroke="midnightblue" d="M2028.73,-834.073C2048.53,-850.073 2078.77,-877.009 2098,-906 2163.46,-1004.69 2202.84,-1142.84 2217.01,-1198.89"/>
<polygon fill="midnightblue" stroke="midnightblue" points="2213.63,-1199.81 2219.43,-1208.67 2220.42,-1198.13 2213.63,-1199.81"/>
</g>
<!-- Node28&#45;&gt;Node26 -->
<g id="edge35" class="edge"><title>Node28&#45;&gt;Node26</title>
<path fill="none" stroke="midnightblue" d="M2019.61,-803.974C2054.27,-754.907 2164.3,-599.117 2206.4,-539.509"/>
<polygon fill="midnightblue" stroke="midnightblue" points="2209.41,-541.304 2212.32,-531.117 2203.7,-537.266 2209.41,-541.304"/>
</g>
<!-- Node30&#45;&gt;Node4 -->
<g id="edge41" class="edge"><title>Node30&#45;&gt;Node4</title>
<path fill="none" stroke="midnightblue" d="M1146.97,-784.786C1153.98,-736.907 1182.24,-588.002 1270,-512 1451.43,-354.887 1551,-370 1791,-370 1791,-370 1791,-370 2009,-370 2100.71,-370 2308.03,-486.627 2314,-492 2379.37,-550.879 2420.98,-650.898 2436.33,-692.72"/>
<polygon fill="midnightblue" stroke="midnightblue" points="2433.08,-694.016 2439.74,-702.253 2439.67,-691.658 2433.08,-694.016"/>
</g>
<!-- Node30&#45;&gt;Node18 -->
<g id="edge58" class="edge"><title>Node30&#45;&gt;Node18</title>
<path fill="none" stroke="midnightblue" d="M1233.6,-813.362C1395.77,-837.82 1739.21,-889.614 1908.48,-915.141"/>
<polygon fill="midnightblue" stroke="midnightblue" points="1907.97,-918.605 1918.38,-916.635 1909.02,-911.683 1907.97,-918.605"/>
</g>
<!-- Node30&#45;&gt;Node26 -->
<g id="edge42" class="edge"><title>Node30&#45;&gt;Node26</title>
<path fill="none" stroke="midnightblue" d="M1154.86,-784.759C1197,-721.636 1369.33,-484 1575,-484 1575,-484 1575,-484 1793,-484 1928.7,-484 1962.91,-485.203 2098,-498 2106.56,-498.811 2115.44,-499.797 2124.33,-500.884"/>
<polygon fill="midnightblue" stroke="midnightblue" points="2124,-504.369 2134.36,-502.15 2124.87,-497.425 2124,-504.369"/>
</g>
<!-- Node30&#45;&gt;Node28 -->
<g id="edge40" class="edge"><title>Node30&#45;&gt;Node28</title>
<path fill="none" stroke="midnightblue" d="M1233.6,-801.953C1395.69,-805.526 1738.87,-813.09 1908.22,-816.823"/>
<polygon fill="midnightblue" stroke="midnightblue" points="1908.31,-820.325 1918.38,-817.047 1908.46,-813.327 1908.31,-820.325"/>
</g>
<!-- Node31 -->
<g id="node31" class="node"><title>Node31</title>
<g id="a_node31"><a xlink:href="../../d0/d8c/classparser_1_1_logo_parser_token_manager.html#aa9aaf3af52d382735345487d2b89e0cf" target="_top" xlink:title="parser.LogoParserTokenManager.jj\lMoveStringLiteralDfa4_0">
<polygon fill="white" stroke="black" points="1270.5,-716 1270.5,-746 1449.5,-746 1449.5,-716 1270.5,-716"/>
<text text-anchor="start" x="1278.5" y="-734" font-family="Helvetica,sans-Serif" font-size="10.00">parser.LogoParserTokenManager.jj</text>
<text text-anchor="middle" x="1360" y="-723" font-family="Helvetica,sans-Serif" font-size="10.00">MoveStringLiteralDfa4_0</text>
</a>
</g>
</g>
<!-- Node30&#45;&gt;Node31 -->
<g id="edge43" class="edge"><title>Node30&#45;&gt;Node31</title>
<path fill="none" stroke="midnightblue" d="M1191.7,-784.943C1224.27,-774.441 1267.91,-760.369 1302.46,-749.231"/>
<polygon fill="midnightblue" stroke="midnightblue" points="1303.96,-752.425 1312.4,-746.025 1301.81,-745.763 1303.96,-752.425"/>
</g>
<!-- Node31&#45;&gt;Node4 -->
<g id="edge45" class="edge"><title>Node31&#45;&gt;Node4</title>
<path fill="none" stroke="midnightblue" d="M1382.18,-715.825C1442.74,-673.975 1623.09,-560 1791,-560 1791,-560 1791,-560 2009,-560 2173.78,-560 2354.98,-658.81 2419,-697.096"/>
<polygon fill="midnightblue" stroke="midnightblue" points="2417.55,-700.308 2427.91,-702.492 2421.17,-694.319 2417.55,-700.308"/>
</g>
<!-- Node31&#45;&gt;Node18 -->
<g id="edge57" class="edge"><title>Node31&#45;&gt;Node18</title>
<path fill="none" stroke="midnightblue" d="M1404.57,-746.012C1428.54,-754.178 1458.84,-764.348 1486,-773 1651.34,-825.676 1847.65,-883.592 1945.36,-912.107"/>
<polygon fill="midnightblue" stroke="midnightblue" points="1944.49,-915.499 1955.07,-914.939 1946.45,-908.779 1944.49,-915.499"/>
</g>
<!-- Node31&#45;&gt;Node26 -->
<g id="edge46" class="edge"><title>Node31&#45;&gt;Node26</title>
<path fill="none" stroke="midnightblue" d="M1365.83,-715.968C1378.57,-679.121 1416.93,-584.508 1486,-546 1592.63,-486.546 1949.27,-499.014 2124.35,-509.249"/>
<polygon fill="midnightblue" stroke="midnightblue" points="2124.15,-512.743 2134.34,-509.842 2124.56,-505.755 2124.15,-512.743"/>
</g>
<!-- Node31&#45;&gt;Node28 -->
<g id="edge44" class="edge"><title>Node31&#45;&gt;Node28</title>
<path fill="none" stroke="midnightblue" d="M1449.81,-743.098C1569.93,-759.461 1783.51,-788.555 1908.46,-805.576"/>
<polygon fill="midnightblue" stroke="midnightblue" points="1908.03,-809.05 1918.41,-806.932 1908.97,-802.114 1908.03,-809.05"/>
</g>
<!-- Node32 -->
<g id="node32" class="node"><title>Node32</title>
<g id="a_node32"><a xlink:href="../../d0/d8c/classparser_1_1_logo_parser_token_manager.html#a4553920ced069b9d4852f1c1020bea38" target="_top" xlink:title="parser.LogoParserTokenManager.jj\lMoveStringLiteralDfa5_0">
<polygon fill="white" stroke="black" points="1486.5,-684 1486.5,-714 1665.5,-714 1665.5,-684 1486.5,-684"/>
<text text-anchor="start" x="1494.5" y="-702" font-family="Helvetica,sans-Serif" font-size="10.00">parser.LogoParserTokenManager.jj</text>
<text text-anchor="middle" x="1576" y="-691" font-family="Helvetica,sans-Serif" font-size="10.00">MoveStringLiteralDfa5_0</text>
</a>
</g>
</g>
<!-- Node31&#45;&gt;Node32 -->
<g id="edge47" class="edge"><title>Node31&#45;&gt;Node32</title>
<path fill="none" stroke="midnightblue" d="M1449.59,-717.753C1458.44,-716.429 1467.47,-715.079 1476.42,-713.741"/>
<polygon fill="midnightblue" stroke="midnightblue" points="1477.11,-717.177 1486.48,-712.237 1476.07,-710.254 1477.11,-717.177"/>
</g>
<!-- Node32&#45;&gt;Node4 -->
<g id="edge49" class="edge"><title>Node32&#45;&gt;Node4</title>
<path fill="none" stroke="midnightblue" d="M1610.69,-683.995C1635.41,-673.839 1670.08,-661.336 1702,-656 1960.1,-612.847 2274.4,-673.234 2393.8,-700.175"/>
<polygon fill="midnightblue" stroke="midnightblue" points="2393.21,-703.63 2403.74,-702.442 2394.76,-696.806 2393.21,-703.63"/>
</g>
<!-- Node32&#45;&gt;Node18 -->
<g id="edge56" class="edge"><title>Node32&#45;&gt;Node18</title>
<path fill="none" stroke="midnightblue" d="M1618.1,-714.011C1690.04,-740.585 1835.54,-795.763 1882,-824 1921.71,-848.137 1961.63,-884.621 1985.33,-907.873"/>
<polygon fill="midnightblue" stroke="midnightblue" points="1982.87,-910.363 1992.43,-914.925 1987.8,-905.395 1982.87,-910.363"/>
</g>
<!-- Node32&#45;&gt;Node26 -->
<g id="edge50" class="edge"><title>Node32&#45;&gt;Node26</title>
<path fill="none" stroke="midnightblue" d="M1596.62,-683.852C1620.3,-666.319 1661.94,-637.834 1702,-622 1777.56,-592.135 1995.56,-553.22 2124.38,-531.823"/>
<polygon fill="midnightblue" stroke="midnightblue" points="2124.97,-535.274 2134.26,-530.187 2123.82,-528.368 2124.97,-535.274"/>
</g>
<!-- Node32&#45;&gt;Node28 -->
<g id="edge48" class="edge"><title>Node32&#45;&gt;Node28</title>
<path fill="none" stroke="midnightblue" d="M1665.82,-704.863C1727.8,-710.964 1811.67,-723.286 1882,-748 1916.81,-760.233 1953.11,-782.017 1977.56,-798.24"/>
<polygon fill="midnightblue" stroke="midnightblue" points="1975.76,-801.248 1986.01,-803.937 1979.67,-795.444 1975.76,-801.248"/>
</g>
<!-- Node33 -->
<g id="node33" class="node"><title>Node33</title>
<g id="a_node33"><a xlink:href="../../d0/d8c/classparser_1_1_logo_parser_token_manager.html#a1bad232a9ce95d19e7133cbee0b538b5" target="_top" xlink:title="parser.LogoParserTokenManager.jj\lMoveStringLiteralDfa6_0">
<polygon fill="white" stroke="black" points="1702.5,-665 1702.5,-695 1881.5,-695 1881.5,-665 1702.5,-665"/>
<text text-anchor="start" x="1710.5" y="-683" font-family="Helvetica,sans-Serif" font-size="10.00">parser.LogoParserTokenManager.jj</text>
<text text-anchor="middle" x="1792" y="-672" font-family="Helvetica,sans-Serif" font-size="10.00">MoveStringLiteralDfa6_0</text>
</a>
</g>
</g>
<!-- Node32&#45;&gt;Node33 -->
<g id="edge51" class="edge"><title>Node32&#45;&gt;Node33</title>
<path fill="none" stroke="midnightblue" d="M1665.59,-691.135C1674.44,-690.349 1683.47,-689.547 1692.42,-688.752"/>
<polygon fill="midnightblue" stroke="midnightblue" points="1692.83,-692.23 1702.48,-687.859 1692.21,-685.257 1692.83,-692.23"/>
</g>
<!-- Node33&#45;&gt;Node4 -->
<g id="edge53" class="edge"><title>Node33&#45;&gt;Node4</title>
<path fill="none" stroke="midnightblue" d="M1881.68,-684.366C2001.16,-690.248 2213.41,-700.697 2339.88,-706.924"/>
<polygon fill="midnightblue" stroke="midnightblue" points="2339.81,-710.424 2349.97,-707.42 2340.15,-703.432 2339.81,-710.424"/>
</g>
<!-- Node33&#45;&gt;Node18 -->
<g id="edge55" class="edge"><title>Node33&#45;&gt;Node18</title>
<path fill="none" stroke="midnightblue" d="M1806.95,-695.267C1825.08,-715.401 1857.34,-752.237 1882,-786 1899.67,-810.195 1899.16,-819.702 1918,-843 1937.38,-866.962 1962.79,-891.228 1981.5,-908.022"/>
<polygon fill="midnightblue" stroke="midnightblue" points="1979.26,-910.72 1989.07,-914.74 1983.91,-905.484 1979.26,-910.72"/>
</g>
<!-- Node33&#45;&gt;Node26 -->
<g id="edge54" class="edge"><title>Node33&#45;&gt;Node26</title>
<path fill="none" stroke="midnightblue" d="M1881.73,-670.573C1944.42,-661.477 2029.19,-644.154 2098,-612 2137.87,-593.37 2176.97,-560.262 2200.54,-538.218"/>
<polygon fill="midnightblue" stroke="midnightblue" points="2203.09,-540.63 2207.92,-531.203 2198.26,-535.558 2203.09,-540.63"/>
</g>
<!-- Node33&#45;&gt;Node28 -->
<g id="edge52" class="edge"><title>Node33&#45;&gt;Node28</title>
<path fill="none" stroke="midnightblue" d="M1849.06,-695.157C1860.32,-699.225 1871.82,-704.155 1882,-710 1923.23,-733.671 1963.28,-772.156 1986.52,-796.496"/>
<polygon fill="midnightblue" stroke="midnightblue" points="1984.05,-798.98 1993.45,-803.864 1989.15,-794.183 1984.05,-798.98"/>
</g>
</g>
</svg>
