<?xml version="1.0" encoding="UTF-8" standalone="no"?>
<!DOCTYPE svg PUBLIC "-//W3C//DTD SVG 1.1//EN"
 "http://www.w3.org/Graphics/SVG/1.1/DTD/svg11.dtd">
<!-- Generated by graphviz version 2.36.0 (20140111.2315)
 -->
<!-- Title: parser.LogoParser.arithm Pages: 1 -->
<svg width="1856pt" height="119pt"
 viewBox="0.00 0.00 1856.00 119.00" xmlns="http://www.w3.org/2000/svg" xmlns:xlink="http://www.w3.org/1999/xlink">
<g id="graph0" class="graph" transform="scale(1 1) rotate(0) translate(4 115)">
<title>parser.LogoParser.arithm</title>
<polygon fill="white" stroke="none" points="-4,4 -4,-115 1852,-115 1852,4 -4,4"/>
<!-- Node1 -->
<g id="node1" class="node"><title>Node1</title>
<polygon fill="#bfbfbf" stroke="black" points="0.5,-23.5 0.5,-42.5 137.5,-42.5 137.5,-23.5 0.5,-23.5"/>
<text text-anchor="middle" x="69" y="-30.5" font-family="Helvetica,sans-Serif" font-size="10.00">parser.LogoParser.arithm</text>
</g>
<!-- Node2 -->
<g id="node2" class="node"><title>Node2</title>
<g id="a_node2"><a xlink:href="../../d5/d0e/classparser_1_1_logo_parser.html#a397c25c39976e5a1fb689e1f0dd40160" target="_top" xlink:title="parser.LogoParser.eval">
<polygon fill="white" stroke="black" points="174.5,-23.5 174.5,-42.5 299.5,-42.5 299.5,-23.5 174.5,-23.5"/>
<text text-anchor="middle" x="237" y="-30.5" font-family="Helvetica,sans-Serif" font-size="10.00">parser.LogoParser.eval</text>
</a>
</g>
</g>
<!-- Node1&#45;&gt;Node2 -->
<g id="edge1" class="edge"><title>Node1&#45;&gt;Node2</title>
<path fill="none" stroke="midnightblue" d="M147.614,-33C156.607,-33 165.686,-33 174.424,-33"/>
<polygon fill="midnightblue" stroke="midnightblue" points="147.519,-29.5001 137.519,-33 147.519,-36.5001 147.519,-29.5001"/>
</g>
<!-- Node3 -->
<g id="node3" class="node"><title>Node3</title>
<g id="a_node3"><a xlink:href="../../d5/d0e/classparser_1_1_logo_parser.html#a6b0ba0c2b5b0bc8c2ef76863fffdb6a3" target="_top" xlink:title="parser.LogoParser.list">
<polygon fill="white" stroke="black" points="528.5,-23.5 528.5,-42.5 647.5,-42.5 647.5,-23.5 528.5,-23.5"/>
<text text-anchor="middle" x="588" y="-30.5" font-family="Helvetica,sans-Serif" font-size="10.00">parser.LogoParser.list</text>
</a>
</g>
</g>
<!-- Node2&#45;&gt;Node3 -->
<g id="edge2" class="edge"><title>Node2&#45;&gt;Node3</title>
<path fill="none" stroke="midnightblue" d="M309.699,-33C374.301,-33 468.118,-33 528.349,-33"/>
<polygon fill="midnightblue" stroke="midnightblue" points="309.591,-29.5001 299.591,-33 309.591,-36.5001 309.591,-29.5001"/>
</g>
<!-- Node14 -->
<g id="node14" class="node"><title>Node14</title>
<g id="a_node14"><a xlink:href="../../d5/d0e/classparser_1_1_logo_parser.html#ad6ed8e51959a6e19a2323444aa8331c8" target="_top" xlink:title="parser.LogoParser.statement">
<polygon fill="white" stroke="black" points="336.5,-4.5 336.5,-23.5 491.5,-23.5 491.5,-4.5 336.5,-4.5"/>
<text text-anchor="middle" x="414" y="-11.5" font-family="Helvetica,sans-Serif" font-size="10.00">parser.LogoParser.statement</text>
</a>
</g>
</g>
<!-- Node2&#45;&gt;Node14 -->
<g id="edge14" class="edge"><title>Node2&#45;&gt;Node14</title>
<path fill="none" stroke="midnightblue" d="M309.804,-25.2042C318.514,-24.2584 327.44,-23.2894 336.219,-22.3363"/>
<polygon fill="midnightblue" stroke="midnightblue" points="309.262,-21.7423 299.698,-26.3013 310.018,-28.7014 309.262,-21.7423"/>
</g>
<!-- Node4 -->
<g id="node4" class="node"><title>Node4</title>
<g id="a_node4"><a xlink:href="../../d5/d0e/classparser_1_1_logo_parser.html#adefe3b97ad0d2d7fd0dcd13f7ef2c75e" target="_top" xlink:title="parser.LogoParser.parse">
<polygon fill="white" stroke="black" points="697,-42.5 697,-61.5 829,-61.5 829,-42.5 697,-42.5"/>
<text text-anchor="middle" x="763" y="-49.5" font-family="Helvetica,sans-Serif" font-size="10.00">parser.LogoParser.parse</text>
</a>
</g>
</g>
<!-- Node3&#45;&gt;Node4 -->
<g id="edge3" class="edge"><title>Node3&#45;&gt;Node4</title>
<path fill="none" stroke="midnightblue" d="M657.783,-40.5543C670.695,-41.9723 684.157,-43.4508 696.95,-44.8558"/>
<polygon fill="midnightblue" stroke="midnightblue" points="657.892,-37.0452 647.57,-39.4325 657.128,-44.0034 657.892,-37.0452"/>
</g>
<!-- Node13 -->
<g id="node13" class="node"><title>Node13</title>
<g id="a_node13"><a xlink:href="../../d5/d0e/classparser_1_1_logo_parser.html#a4a8825534e0488215d22bcd947bc4d41" target="_top" xlink:title="parser.LogoParser.expression">
<polygon fill="white" stroke="black" points="684.5,-4.5 684.5,-23.5 841.5,-23.5 841.5,-4.5 684.5,-4.5"/>
<text text-anchor="middle" x="763" y="-11.5" font-family="Helvetica,sans-Serif" font-size="10.00">parser.LogoParser.expression</text>
</a>
</g>
</g>
<!-- Node3&#45;&gt;Node13 -->
<g id="edge13" class="edge"><title>Node3&#45;&gt;Node13</title>
<path fill="none" stroke="midnightblue" d="M657.741,-25.4504C666.525,-24.4857 675.563,-23.493 684.474,-22.5144"/>
<polygon fill="midnightblue" stroke="midnightblue" points="657.128,-21.9966 647.57,-26.5675 657.892,-28.9548 657.128,-21.9966"/>
</g>
<!-- Node5 -->
<g id="node5" class="node"><title>Node5</title>
<g id="a_node5"><a xlink:href="../../d6/d95/classparser_1_1_parser.html#af3d0cef45b9f02f1707959c08d8f3797" target="_top" xlink:title="parser.Parser.parse">
<polygon fill="white" stroke="black" points="878.5,-42.5 878.5,-61.5 987.5,-61.5 987.5,-42.5 878.5,-42.5"/>
<text text-anchor="middle" x="933" y="-49.5" font-family="Helvetica,sans-Serif" font-size="10.00">parser.Parser.parse</text>
</a>
</g>
</g>
<!-- Node4&#45;&gt;Node5 -->
<g id="edge4" class="edge"><title>Node4&#45;&gt;Node5</title>
<path fill="none" stroke="midnightblue" d="M839.801,-52C852.828,-52 866.122,-52 878.411,-52"/>
<polygon fill="midnightblue" stroke="midnightblue" points="839.434,-48.5001 829.434,-52 839.434,-55.5001 839.434,-48.5001"/>
</g>
<!-- Node6 -->
<g id="node6" class="node"><title>Node6</title>
<g id="a_node6"><a xlink:href="../../d4/d06/classinput_1_1_input_executor.html#a687a9f2cbed5d27a2c7b1336a1cab8aa" target="_top" xlink:title="input.InputExecutor.process\lInput">
<polygon fill="white" stroke="black" points="1024.5,-81 1024.5,-111 1173.5,-111 1173.5,-81 1024.5,-81"/>
<text text-anchor="start" x="1032.5" y="-99" font-family="Helvetica,sans-Serif" font-size="10.00">input.InputExecutor.process</text>
<text text-anchor="middle" x="1099" y="-88" font-family="Helvetica,sans-Serif" font-size="10.00">Input</text>
</a>
</g>
</g>
<!-- Node5&#45;&gt;Node6 -->
<g id="edge5" class="edge"><title>Node5&#45;&gt;Node6</title>
<path fill="none" stroke="midnightblue" d="M979.356,-64.1687C998.696,-69.3574 1021.46,-75.4646 1041.85,-80.9346"/>
<polygon fill="midnightblue" stroke="midnightblue" points="980.151,-60.7583 969.586,-61.5473 978.337,-67.5192 980.151,-60.7583"/>
</g>
<!-- Node7 -->
<g id="node7" class="node"><title>Node7</title>
<g id="a_node7"><a xlink:href="../../d6/d95/classparser_1_1_parser.html#ae90f8410be9931ec3f349085c8fdae71" target="_top" xlink:title="parser.Parser.parseFile">
<polygon fill="white" stroke="black" points="1037,-42.5 1037,-61.5 1161,-61.5 1161,-42.5 1037,-42.5"/>
<text text-anchor="middle" x="1099" y="-49.5" font-family="Helvetica,sans-Serif" font-size="10.00">parser.Parser.parseFile</text>
</a>
</g>
</g>
<!-- Node5&#45;&gt;Node7 -->
<g id="edge6" class="edge"><title>Node5&#45;&gt;Node7</title>
<path fill="none" stroke="midnightblue" d="M997.816,-52C1010.63,-52 1024.06,-52 1036.79,-52"/>
<polygon fill="midnightblue" stroke="midnightblue" points="997.7,-48.5001 987.7,-52 997.7,-55.5001 997.7,-48.5001"/>
</g>
<!-- Node12 -->
<g id="node12" class="node"><title>Node12</title>
<g id="a_node12"><a xlink:href="../../d5/d56/class_workspace.html#a0ed8fb487512971086b6f3ed0d74e4ae" target="_top" xlink:title="Workspace.sendUserInput">
<polygon fill="white" stroke="black" points="1215,-0.5 1215,-19.5 1355,-19.5 1355,-0.5 1215,-0.5"/>
<text text-anchor="middle" x="1285" y="-7.5" font-family="Helvetica,sans-Serif" font-size="10.00">Workspace.sendUserInput</text>
</a>
</g>
</g>
<!-- Node5&#45;&gt;Node12 -->
<g id="edge11" class="edge"><title>Node5&#45;&gt;Node12</title>
<path fill="none" stroke="midnightblue" d="M984.234,-40.2843C997.139,-37.5809 1011.04,-34.9343 1024,-33 1088.31,-23.4018 1162.22,-17.3372 1214.76,-13.8606"/>
<polygon fill="midnightblue" stroke="midnightblue" points="983.178,-36.9313 974.135,-42.4521 984.647,-43.7754 983.178,-36.9313"/>
</g>
<!-- Node8 -->
<g id="node8" class="node"><title>Node8</title>
<g id="a_node8"><a xlink:href="../../d9/de8/class_file_chooser_feature.html#ad742b8e9d07e8151f0a9ff1972867ce8" target="_top" xlink:title="FileChooserFeature.openFile\lChooser">
<polygon fill="white" stroke="black" points="1210.5,-39 1210.5,-69 1359.5,-69 1359.5,-39 1210.5,-39"/>
<text text-anchor="start" x="1218.5" y="-57" font-family="Helvetica,sans-Serif" font-size="10.00">FileChooserFeature.openFile</text>
<text text-anchor="middle" x="1285" y="-46" font-family="Helvetica,sans-Serif" font-size="10.00">Chooser</text>
</a>
</g>
</g>
<!-- Node7&#45;&gt;Node8 -->
<g id="edge7" class="edge"><title>Node7&#45;&gt;Node8</title>
<path fill="none" stroke="midnightblue" d="M1171.17,-52.7736C1184.02,-52.9133 1197.44,-53.0591 1210.35,-53.1995"/>
<polygon fill="midnightblue" stroke="midnightblue" points="1171.05,-49.2722 1161.01,-52.6632 1170.98,-56.2718 1171.05,-49.2722"/>
</g>
<!-- Node9 -->
<g id="node9" class="node"><title>Node9</title>
<g id="a_node9"><a xlink:href="../../d5/d56/class_workspace.html#a6babd032d9af86fbc23812272d59a2d2" target="_top" xlink:title="Workspace.addFeatureButtons">
<polygon fill="white" stroke="black" points="1396,-42.5 1396,-61.5 1558,-61.5 1558,-42.5 1396,-42.5"/>
<text text-anchor="middle" x="1477" y="-49.5" font-family="Helvetica,sans-Serif" font-size="10.00">Workspace.addFeatureButtons</text>
</a>
</g>
</g>
<!-- Node8&#45;&gt;Node9 -->
<g id="edge8" class="edge"><title>Node8&#45;&gt;Node9</title>
<path fill="none" stroke="midnightblue" d="M1369.77,-53.1182C1378.38,-53.0276 1387.12,-52.9356 1395.7,-52.8453"/>
<polygon fill="midnightblue" stroke="midnightblue" points="1369.69,-49.6187 1359.73,-53.2239 1369.77,-56.6183 1369.69,-49.6187"/>
</g>
<!-- Node10 -->
<g id="node10" class="node"><title>Node10</title>
<g id="a_node10"><a xlink:href="../../d5/d56/class_workspace.html#a429d535dfd8427637b7715f0b1e1df1b" target="_top" xlink:title="Workspace.createWorkspace">
<polygon fill="white" stroke="black" points="1594,-22.5 1594,-41.5 1746,-41.5 1746,-22.5 1594,-22.5"/>
<text text-anchor="middle" x="1670" y="-29.5" font-family="Helvetica,sans-Serif" font-size="10.00">Workspace.createWorkspace</text>
</a>
</g>
</g>
<!-- Node9&#45;&gt;Node10 -->
<g id="edge9" class="edge"><title>Node9&#45;&gt;Node10</title>
<path fill="none" stroke="midnightblue" d="M1568.22,-42.5526C1576.82,-41.6521 1585.48,-40.7457 1593.91,-39.8626"/>
<polygon fill="midnightblue" stroke="midnightblue" points="1567.75,-39.0826 1558.17,-43.6051 1568.48,-46.0446 1567.75,-39.0826"/>
</g>
<!-- Node11 -->
<g id="node11" class="node"><title>Node11</title>
<g id="a_node11"><a xlink:href="../../d0/d4b/class_main.html#aaa75b38812324d0f17c89f139bde6ada" target="_top" xlink:title="Main.start">
<polygon fill="white" stroke="black" points="1782.5,-22.5 1782.5,-41.5 1847.5,-41.5 1847.5,-22.5 1782.5,-22.5"/>
<text text-anchor="middle" x="1815" y="-29.5" font-family="Helvetica,sans-Serif" font-size="10.00">Main.start</text>
</a>
</g>
</g>
<!-- Node10&#45;&gt;Node11 -->
<g id="edge10" class="edge"><title>Node10&#45;&gt;Node11</title>
<path fill="none" stroke="midnightblue" d="M1756.39,-32C1765.63,-32 1774.55,-32 1782.5,-32"/>
<polygon fill="midnightblue" stroke="midnightblue" points="1756.27,-28.5001 1746.27,-32 1756.27,-35.5001 1756.27,-28.5001"/>
</g>
<!-- Node12&#45;&gt;Node10 -->
<g id="edge12" class="edge"><title>Node12&#45;&gt;Node10</title>
<path fill="none" stroke="midnightblue" d="M1365.47,-14.5646C1432.6,-18.4211 1528.08,-23.9052 1593.94,-27.6882"/>
<polygon fill="midnightblue" stroke="midnightblue" points="1365.54,-11.0634 1355.36,-13.984 1365.14,-18.0518 1365.54,-11.0634"/>
</g>
<!-- Node14&#45;&gt;Node3 -->
<g id="edge15" class="edge"><title>Node14&#45;&gt;Node3</title>
<path fill="none" stroke="midnightblue" d="M501.798,-23.5882C510.762,-24.5783 519.714,-25.5672 528.264,-26.5118"/>
<polygon fill="midnightblue" stroke="midnightblue" points="502.018,-20.0912 491.694,-22.472 501.249,-27.0489 502.018,-20.0912"/>
</g>
</g>
</svg>
