<?xml version="1.0" encoding="UTF-8" standalone="no"?>
<!DOCTYPE svg PUBLIC "-//W3C//DTD SVG 1.1//EN"
 "http://www.w3.org/Graphics/SVG/1.1/DTD/svg11.dtd">
<!-- Generated by graphviz version 2.36.0 (20140111.2315)
 -->
<!-- Title: parser.LogoParser.jj_ntk Pages: 1 -->
<!--zoomable 198 -->
<svg id="main" version="1.1" xmlns="http://www.w3.org/2000/svg" xmlns:xlink="http://www.w3.org/1999/xlink" xml:space="preserve" onload="init(evt)">
<style type="text/css"><![CDATA[
.edge:hover path { stroke: red; }
.edge:hover polygon { stroke: red; fill: red; }
]]></style>
<script type="text/javascript"><![CDATA[
var edges = document.getElementsByTagName('g');
if (edges && edges.length) {
  for (var i=0;i<edges.length;i++) {
    if (edges[i].id.substr(0,4)=='edge') {
      edges[i].setAttribute('class','edge');
    }
  }
}
]]></script>
        <defs>
                <circle id="rim" cx="0" cy="0" r="7"/>
                <circle id="rim2" cx="0" cy="0" r="3.5"/>
                <g id="zoomPlus">
                        <use xlink:href="#rim" fill="#404040">
                                <set attributeName="fill" to="#808080" begin="zoomplus.mouseover" end="zoomplus.mouseout"/>
                        </use>
                        <path d="M-4,0h8M0,-4v8" fill="none" stroke="white" stroke-width="1.5" pointer-events="none"/>
                </g>
                <g id="zoomMin">
                        <use xlink:href="#rim" fill="#404040">
                                <set attributeName="fill" to="#808080" begin="zoomminus.mouseover" end="zoomminus.mouseout"/>
                        </use>
                        <path d="M-4,0h8" fill="none" stroke="white" stroke-width="1.5" pointer-events="none"/>
                </g>
                <g id="dirArrow">
                        <path fill="none" stroke="white" stroke-width="1.5" d="M0,-3.0v7 M-2.5,-0.5L0,-3.0L2.5,-0.5"/>
                </g>
               <g id="resetDef">
                       <use xlink:href="#rim2" fill="#404040">
                               <set attributeName="fill" to="#808080" begin="reset.mouseover" end="reset.mouseout"/>
                       </use>
               </g>
        </defs>

<script type="text/javascript">
var viewWidth = 2346;
var viewHeight = 198;
var sectionId = 'dynsection-13';
</script>
<script xlink:href="../../svgpan.js"/>
<svg id="graph" class="graph">
<g id="viewport">
<title>parser.LogoParser.jj_ntk</title>
<polygon fill="white" stroke="none" points="-4,4 -4,-194 2342,-194 2342,4 -4,4"/>
<!-- Node1 -->
<g id="node1" class="node"><title>Node1</title>
<polygon fill="#bfbfbf" stroke="black" points="0,-85.5 0,-104.5 130,-104.5 130,-85.5 0,-85.5"/>
<text text-anchor="middle" x="65" y="-92.5" font-family="Helvetica,sans-Serif" font-size="10.00">parser.LogoParser.jj_ntk</text>
</g>
<!-- Node2 -->
<g id="node2" class="node"><title>Node2</title>
<g id="a_node2"><a xlink:href="../../d5/d0e/classparser_1_1_logo_parser.html#a82acce8328e52f3b2bcb90542cc800b7" target="_top" xlink:title="parser.LogoParser.arithm">
<polygon fill="white" stroke="black" points="490.5,-85.5 490.5,-104.5 627.5,-104.5 627.5,-85.5 490.5,-85.5"/>
<text text-anchor="middle" x="559" y="-92.5" font-family="Helvetica,sans-Serif" font-size="10.00">parser.LogoParser.arithm</text>
</a>
</g>
</g>
<!-- Node1&#45;&gt;Node2 -->
<g id="edge1" class="edge"><title>Node1&#45;&gt;Node2</title>
<path fill="none" stroke="midnightblue" d="M94.1999,-108.88C113.808,-117.733 140.841,-128.381 166,-133 297.139,-157.076 455.94,-122.426 524.173,-104.546"/>
<polygon fill="midnightblue" stroke="midnightblue" points="95.4866,-105.619 84.9423,-104.584 92.5402,-111.968 95.4866,-105.619"/>
</g>
<!-- Node3 -->
<g id="node3" class="node"><title>Node3</title>
<g id="a_node3"><a xlink:href="../../d5/d0e/classparser_1_1_logo_parser.html#a397c25c39976e5a1fb689e1f0dd40160" target="_top" xlink:title="parser.LogoParser.eval">
<polygon fill="white" stroke="black" points="664.5,-57.5 664.5,-76.5 789.5,-76.5 789.5,-57.5 664.5,-57.5"/>
<text text-anchor="middle" x="727" y="-64.5" font-family="Helvetica,sans-Serif" font-size="10.00">parser.LogoParser.eval</text>
</a>
</g>
</g>
<!-- Node1&#45;&gt;Node3 -->
<g id="edge17" class="edge"><title>Node1&#45;&gt;Node3</title>
<path fill="none" stroke="midnightblue" d="M140.187,-88.5792C192.166,-84.3254 263.274,-78.9957 326,-76 445.686,-70.2841 585.694,-68.1848 664.294,-67.4235"/>
<polygon fill="midnightblue" stroke="midnightblue" points="139.734,-85.1046 130.055,-89.4146 140.309,-92.081 139.734,-85.1046"/>
</g>
<!-- Node4 -->
<g id="node4" class="node"><title>Node4</title>
<g id="a_node4"><a xlink:href="../../d5/d0e/classparser_1_1_logo_parser.html#a6b0ba0c2b5b0bc8c2ef76863fffdb6a3" target="_top" xlink:title="parser.LogoParser.list">
<polygon fill="white" stroke="black" points="1018.5,-76.5 1018.5,-95.5 1137.5,-95.5 1137.5,-76.5 1018.5,-76.5"/>
<text text-anchor="middle" x="1078" y="-83.5" font-family="Helvetica,sans-Serif" font-size="10.00">parser.LogoParser.list</text>
</a>
</g>
</g>
<!-- Node1&#45;&gt;Node4 -->
<g id="edge18" class="edge"><title>Node1&#45;&gt;Node4</title>
<path fill="none" stroke="midnightblue" d="M87.633,-110.308C107.193,-123.404 137.248,-141.719 166,-152 260.669,-185.853 288.46,-190 389,-190 389,-190 389,-190 728,-190 859.504,-190 1007.71,-121.344 1058.66,-95.5977"/>
<polygon fill="midnightblue" stroke="midnightblue" points="89.4082,-107.282 79.1766,-104.532 85.4598,-113.062 89.4082,-107.282"/>
</g>
<!-- Node15 -->
<g id="node15" class="node"><title>Node15</title>
<g id="a_node15"><a xlink:href="../../d5/d0e/classparser_1_1_logo_parser.html#ad6ed8e51959a6e19a2323444aa8331c8" target="_top" xlink:title="parser.LogoParser.statement">
<polygon fill="white" stroke="black" points="826.5,-38.5 826.5,-57.5 981.5,-57.5 981.5,-38.5 826.5,-38.5"/>
<text text-anchor="middle" x="904" y="-45.5" font-family="Helvetica,sans-Serif" font-size="10.00">parser.LogoParser.statement</text>
</a>
</g>
</g>
<!-- Node1&#45;&gt;Node15 -->
<g id="edge22" class="edge"><title>Node1&#45;&gt;Node15</title>
<path fill="none" stroke="midnightblue" d="M93.8247,-80.9253C148.764,-54.4781 275.686,-0 389,-0 389,-0 389,-0 560,-0 669.886,-0 797.679,-24.4611 861.814,-38.4594"/>
<polygon fill="midnightblue" stroke="midnightblue" points="92.1761,-77.8353 84.7258,-85.3681 95.2475,-84.1255 92.1761,-77.8353"/>
</g>
<!-- Node16 -->
<g id="node16" class="node"><title>Node16</title>
<g id="a_node16"><a xlink:href="../../d5/d0e/classparser_1_1_logo_parser.html#a4bdaeff6df067fde6743ff07370c3b0b" target="_top" xlink:title="parser.LogoParser.pow">
<polygon fill="white" stroke="black" points="166,-104.5 166,-123.5 290,-123.5 290,-104.5 166,-104.5"/>
<text text-anchor="middle" x="228" y="-111.5" font-family="Helvetica,sans-Serif" font-size="10.00">parser.LogoParser.pow</text>
</a>
</g>
</g>
<!-- Node1&#45;&gt;Node16 -->
<g id="edge19" class="edge"><title>Node1&#45;&gt;Node16</title>
<path fill="none" stroke="midnightblue" d="M140.101,-103.745C148.683,-104.758 157.363,-105.782 165.747,-106.771"/>
<polygon fill="midnightblue" stroke="midnightblue" points="140.435,-100.26 130.094,-102.564 139.615,-107.212 140.435,-100.26"/>
</g>
<!-- Node17 -->
<g id="node17" class="node"><title>Node17</title>
<g id="a_node17"><a xlink:href="../../d5/d0e/classparser_1_1_logo_parser.html#a34f4226672a2711ce2691162fdb2124d" target="_top" xlink:title="parser.LogoParser.term">
<polygon fill="white" stroke="black" points="326,-85.5 326,-104.5 454,-104.5 454,-85.5 326,-85.5"/>
<text text-anchor="middle" x="390" y="-92.5" font-family="Helvetica,sans-Serif" font-size="10.00">parser.LogoParser.term</text>
</a>
</g>
</g>
<!-- Node1&#45;&gt;Node17 -->
<g id="edge23" class="edge"><title>Node1&#45;&gt;Node17</title>
<path fill="none" stroke="midnightblue" d="M140.43,-95C196.516,-95 272.585,-95 325.746,-95"/>
<polygon fill="midnightblue" stroke="midnightblue" points="140.201,-91.5001 130.201,-95 140.201,-98.5001 140.201,-91.5001"/>
</g>
<!-- Node2&#45;&gt;Node3 -->
<g id="edge2" class="edge"><title>Node2&#45;&gt;Node3</title>
<path fill="none" stroke="midnightblue" d="M626.845,-83.7249C641.02,-81.3339 655.85,-78.8326 669.592,-76.5146"/>
<polygon fill="midnightblue" stroke="midnightblue" points="625.942,-80.3277 616.663,-85.4423 627.106,-87.2302 625.942,-80.3277"/>
</g>
<!-- Node3&#45;&gt;Node4 -->
<g id="edge3" class="edge"><title>Node3&#45;&gt;Node4</title>
<path fill="none" stroke="midnightblue" d="M799.699,-70.9034C864.301,-74.4204 958.118,-79.5279 1018.35,-82.8069"/>
<polygon fill="midnightblue" stroke="midnightblue" points="799.766,-67.402 789.591,-70.3531 799.386,-74.3916 799.766,-67.402"/>
</g>
<!-- Node3&#45;&gt;Node15 -->
<g id="edge15" class="edge"><title>Node3&#45;&gt;Node15</title>
<path fill="none" stroke="midnightblue" d="M799.804,-59.2042C808.514,-58.2584 817.44,-57.2894 826.219,-56.3363"/>
<polygon fill="midnightblue" stroke="midnightblue" points="799.262,-55.7423 789.698,-60.3013 800.018,-62.7014 799.262,-55.7423"/>
</g>
<!-- Node5 -->
<g id="node5" class="node"><title>Node5</title>
<g id="a_node5"><a xlink:href="../../d5/d0e/classparser_1_1_logo_parser.html#adefe3b97ad0d2d7fd0dcd13f7ef2c75e" target="_top" xlink:title="parser.LogoParser.parse">
<polygon fill="white" stroke="black" points="1187,-95.5 1187,-114.5 1319,-114.5 1319,-95.5 1187,-95.5"/>
<text text-anchor="middle" x="1253" y="-102.5" font-family="Helvetica,sans-Serif" font-size="10.00">parser.LogoParser.parse</text>
</a>
</g>
</g>
<!-- Node4&#45;&gt;Node5 -->
<g id="edge4" class="edge"><title>Node4&#45;&gt;Node5</title>
<path fill="none" stroke="midnightblue" d="M1147.78,-93.5543C1160.7,-94.9723 1174.16,-96.4508 1186.95,-97.8558"/>
<polygon fill="midnightblue" stroke="midnightblue" points="1147.89,-90.0452 1137.57,-92.4325 1147.13,-97.0034 1147.89,-90.0452"/>
</g>
<!-- Node14 -->
<g id="node14" class="node"><title>Node14</title>
<g id="a_node14"><a xlink:href="../../d5/d0e/classparser_1_1_logo_parser.html#a4a8825534e0488215d22bcd947bc4d41" target="_top" xlink:title="parser.LogoParser.expression">
<polygon fill="white" stroke="black" points="1174.5,-57.5 1174.5,-76.5 1331.5,-76.5 1331.5,-57.5 1174.5,-57.5"/>
<text text-anchor="middle" x="1253" y="-64.5" font-family="Helvetica,sans-Serif" font-size="10.00">parser.LogoParser.expression</text>
</a>
</g>
</g>
<!-- Node4&#45;&gt;Node14 -->
<g id="edge14" class="edge"><title>Node4&#45;&gt;Node14</title>
<path fill="none" stroke="midnightblue" d="M1147.74,-78.4504C1156.52,-77.4857 1165.56,-76.493 1174.47,-75.5144"/>
<polygon fill="midnightblue" stroke="midnightblue" points="1147.13,-74.9966 1137.57,-79.5675 1147.89,-81.9548 1147.13,-74.9966"/>
</g>
<!-- Node6 -->
<g id="node6" class="node"><title>Node6</title>
<g id="a_node6"><a xlink:href="../../d6/d95/classparser_1_1_parser.html#af3d0cef45b9f02f1707959c08d8f3797" target="_top" xlink:title="parser.Parser.parse">
<polygon fill="white" stroke="black" points="1368.5,-95.5 1368.5,-114.5 1477.5,-114.5 1477.5,-95.5 1368.5,-95.5"/>
<text text-anchor="middle" x="1423" y="-102.5" font-family="Helvetica,sans-Serif" font-size="10.00">parser.Parser.parse</text>
</a>
</g>
</g>
<!-- Node5&#45;&gt;Node6 -->
<g id="edge5" class="edge"><title>Node5&#45;&gt;Node6</title>
<path fill="none" stroke="midnightblue" d="M1329.8,-105C1342.83,-105 1356.12,-105 1368.41,-105"/>
<polygon fill="midnightblue" stroke="midnightblue" points="1329.43,-101.5 1319.43,-105 1329.43,-108.5 1329.43,-101.5"/>
</g>
<!-- Node7 -->
<g id="node7" class="node"><title>Node7</title>
<g id="a_node7"><a xlink:href="../../d4/d06/classinput_1_1_input_executor.html#a687a9f2cbed5d27a2c7b1336a1cab8aa" target="_top" xlink:title="input.InputExecutor.process\lInput">
<polygon fill="white" stroke="black" points="1514.5,-134 1514.5,-164 1663.5,-164 1663.5,-134 1514.5,-134"/>
<text text-anchor="start" x="1522.5" y="-152" font-family="Helvetica,sans-Serif" font-size="10.00">input.InputExecutor.process</text>
<text text-anchor="middle" x="1589" y="-141" font-family="Helvetica,sans-Serif" font-size="10.00">Input</text>
</a>
</g>
</g>
<!-- Node6&#45;&gt;Node7 -->
<g id="edge6" class="edge"><title>Node6&#45;&gt;Node7</title>
<path fill="none" stroke="midnightblue" d="M1469.36,-117.169C1488.7,-122.357 1511.46,-128.465 1531.85,-133.935"/>
<polygon fill="midnightblue" stroke="midnightblue" points="1470.15,-113.758 1459.59,-114.547 1468.34,-120.519 1470.15,-113.758"/>
</g>
<!-- Node8 -->
<g id="node8" class="node"><title>Node8</title>
<g id="a_node8"><a xlink:href="../../d6/d95/classparser_1_1_parser.html#ae90f8410be9931ec3f349085c8fdae71" target="_top" xlink:title="parser.Parser.parseFile">
<polygon fill="white" stroke="black" points="1527,-95.5 1527,-114.5 1651,-114.5 1651,-95.5 1527,-95.5"/>
<text text-anchor="middle" x="1589" y="-102.5" font-family="Helvetica,sans-Serif" font-size="10.00">parser.Parser.parseFile</text>
</a>
</g>
</g>
<!-- Node6&#45;&gt;Node8 -->
<g id="edge7" class="edge"><title>Node6&#45;&gt;Node8</title>
<path fill="none" stroke="midnightblue" d="M1487.82,-105C1500.63,-105 1514.06,-105 1526.79,-105"/>
<polygon fill="midnightblue" stroke="midnightblue" points="1487.7,-101.5 1477.7,-105 1487.7,-108.5 1487.7,-101.5"/>
</g>
<!-- Node13 -->
<g id="node13" class="node"><title>Node13</title>
<g id="a_node13"><a xlink:href="../../d5/d56/class_workspace.html#a0ed8fb487512971086b6f3ed0d74e4ae" target="_top" xlink:title="Workspace.sendUserInput">
<polygon fill="white" stroke="black" points="1705,-53.5 1705,-72.5 1845,-72.5 1845,-53.5 1705,-53.5"/>
<text text-anchor="middle" x="1775" y="-60.5" font-family="Helvetica,sans-Serif" font-size="10.00">Workspace.sendUserInput</text>
</a>
</g>
</g>
<!-- Node6&#45;&gt;Node13 -->
<g id="edge12" class="edge"><title>Node6&#45;&gt;Node13</title>
<path fill="none" stroke="midnightblue" d="M1474.23,-93.2843C1487.14,-90.5809 1501.04,-87.9343 1514,-86 1578.31,-76.4018 1652.22,-70.3372 1704.76,-66.8606"/>
<polygon fill="midnightblue" stroke="midnightblue" points="1473.18,-89.9313 1464.14,-95.4521 1474.65,-96.7754 1473.18,-89.9313"/>
</g>
<!-- Node9 -->
<g id="node9" class="node"><title>Node9</title>
<g id="a_node9"><a xlink:href="../../d9/de8/class_file_chooser_feature.html#ad742b8e9d07e8151f0a9ff1972867ce8" target="_top" xlink:title="FileChooserFeature.openFile\lChooser">
<polygon fill="white" stroke="black" points="1700.5,-92 1700.5,-122 1849.5,-122 1849.5,-92 1700.5,-92"/>
<text text-anchor="start" x="1708.5" y="-110" font-family="Helvetica,sans-Serif" font-size="10.00">FileChooserFeature.openFile</text>
<text text-anchor="middle" x="1775" y="-99" font-family="Helvetica,sans-Serif" font-size="10.00">Chooser</text>
</a>
</g>
</g>
<!-- Node8&#45;&gt;Node9 -->
<g id="edge8" class="edge"><title>Node8&#45;&gt;Node9</title>
<path fill="none" stroke="midnightblue" d="M1661.17,-105.774C1674.02,-105.913 1687.44,-106.059 1700.35,-106.2"/>
<polygon fill="midnightblue" stroke="midnightblue" points="1661.05,-102.272 1651.01,-105.663 1660.98,-109.272 1661.05,-102.272"/>
</g>
<!-- Node10 -->
<g id="node10" class="node"><title>Node10</title>
<g id="a_node10"><a xlink:href="../../d5/d56/class_workspace.html#a6babd032d9af86fbc23812272d59a2d2" target="_top" xlink:title="Workspace.addFeatureButtons">
<polygon fill="white" stroke="black" points="1886,-95.5 1886,-114.5 2048,-114.5 2048,-95.5 1886,-95.5"/>
<text text-anchor="middle" x="1967" y="-102.5" font-family="Helvetica,sans-Serif" font-size="10.00">Workspace.addFeatureButtons</text>
</a>
</g>
</g>
<!-- Node9&#45;&gt;Node10 -->
<g id="edge9" class="edge"><title>Node9&#45;&gt;Node10</title>
<path fill="none" stroke="midnightblue" d="M1859.77,-106.118C1868.38,-106.028 1877.12,-105.936 1885.7,-105.845"/>
<polygon fill="midnightblue" stroke="midnightblue" points="1859.69,-102.619 1849.73,-106.224 1859.77,-109.618 1859.69,-102.619"/>
</g>
<!-- Node11 -->
<g id="node11" class="node"><title>Node11</title>
<g id="a_node11"><a xlink:href="../../d5/d56/class_workspace.html#a429d535dfd8427637b7715f0b1e1df1b" target="_top" xlink:title="Workspace.createWorkspace">
<polygon fill="white" stroke="black" points="2084,-75.5 2084,-94.5 2236,-94.5 2236,-75.5 2084,-75.5"/>
<text text-anchor="middle" x="2160" y="-82.5" font-family="Helvetica,sans-Serif" font-size="10.00">Workspace.createWorkspace</text>
</a>
</g>
</g>
<!-- Node10&#45;&gt;Node11 -->
<g id="edge10" class="edge"><title>Node10&#45;&gt;Node11</title>
<path fill="none" stroke="midnightblue" d="M2058.22,-95.5526C2066.82,-94.6521 2075.48,-93.7457 2083.91,-92.8626"/>
<polygon fill="midnightblue" stroke="midnightblue" points="2057.75,-92.0826 2048.17,-96.6051 2058.48,-99.0446 2057.75,-92.0826"/>
</g>
<!-- Node12 -->
<g id="node12" class="node"><title>Node12</title>
<g id="a_node12"><a xlink:href="../../d0/d4b/class_main.html#aaa75b38812324d0f17c89f139bde6ada" target="_top" xlink:title="Main.start">
<polygon fill="white" stroke="black" points="2272.5,-75.5 2272.5,-94.5 2337.5,-94.5 2337.5,-75.5 2272.5,-75.5"/>
<text text-anchor="middle" x="2305" y="-82.5" font-family="Helvetica,sans-Serif" font-size="10.00">Main.start</text>
</a>
</g>
</g>
<!-- Node11&#45;&gt;Node12 -->
<g id="edge11" class="edge"><title>Node11&#45;&gt;Node12</title>
<path fill="none" stroke="midnightblue" d="M2246.39,-85C2255.63,-85 2264.55,-85 2272.5,-85"/>
<polygon fill="midnightblue" stroke="midnightblue" points="2246.27,-81.5001 2236.27,-85 2246.27,-88.5001 2246.27,-81.5001"/>
</g>
<!-- Node13&#45;&gt;Node11 -->
<g id="edge13" class="edge"><title>Node13&#45;&gt;Node11</title>
<path fill="none" stroke="midnightblue" d="M1855.47,-67.5646C1922.6,-71.4211 2018.08,-76.9052 2083.94,-80.6882"/>
<polygon fill="midnightblue" stroke="midnightblue" points="1855.54,-64.0634 1845.36,-66.984 1855.14,-71.0518 1855.54,-64.0634"/>
</g>
<!-- Node15&#45;&gt;Node4 -->
<g id="edge16" class="edge"><title>Node15&#45;&gt;Node4</title>
<path fill="none" stroke="midnightblue" d="M958.196,-59.7526C982.517,-65.1258 1010.95,-71.4086 1033.91,-76.4799"/>
<polygon fill="midnightblue" stroke="midnightblue" points="958.922,-56.3288 948.403,-57.589 957.412,-63.164 958.922,-56.3288"/>
</g>
<!-- Node16&#45;&gt;Node17 -->
<g id="edge20" class="edge"><title>Node16&#45;&gt;Node17</title>
<path fill="none" stroke="midnightblue" d="M300.604,-105.497C309.039,-104.495 317.601,-103.479 325.907,-102.492"/>
<polygon fill="midnightblue" stroke="midnightblue" points="299.92,-102.054 290.403,-106.708 300.746,-109.005 299.92,-102.054"/>
</g>
<!-- Node17&#45;&gt;Node2 -->
<g id="edge21" class="edge"><title>Node17&#45;&gt;Node2</title>
<path fill="none" stroke="midnightblue" d="M464.226,-95C472.9,-95 481.723,-95 490.315,-95"/>
<polygon fill="midnightblue" stroke="midnightblue" points="464.136,-91.5001 454.136,-95 464.136,-98.5001 464.136,-91.5001"/>
</g>
</g>
</svg>
        <g id="navigator" transform="translate(0 0)" fill="#404254">
                <rect fill="#f2f5e9" fill-opacity="0.5" stroke="#606060" stroke-width=".5" x="0" y="0" width="60" height="60"/>
                <use id="zoomplus" xlink:href="#zoomPlus" x="17" y="9" onmousedown="handleZoom(evt,'in')"/>
                <use id="zoomminus" xlink:href="#zoomMin" x="42" y="9" onmousedown="handleZoom(evt,'out')"/>
                <use id="reset" xlink:href="#resetDef" x="30" y="36" onmousedown="handleReset()"/>
                <g id="arrowUp" xlink:href="#dirArrow" transform="translate(30 24)" onmousedown="handlePan(0,-1)">
                  <use xlink:href="#rim" fill="#404040">
                        <set attributeName="fill" to="#808080" begin="arrowUp.mouseover" end="arrowUp.mouseout"/>
                  </use>
                  <path fill="none" stroke="white" stroke-width="1.5" d="M0,-3.0v7 M-2.5,-0.5L0,-3.0L2.5,-0.5"/>
                </g>
                <g id="arrowRight" xlink:href="#dirArrow" transform="rotate(90) translate(36 -43)" onmousedown="handlePan(1,0)">
                  <use xlink:href="#rim" fill="#404040">
                        <set attributeName="fill" to="#808080" begin="arrowRight.mouseover" end="arrowRight.mouseout"/>
                  </use>
                  <path fill="none" stroke="white" stroke-width="1.5" d="M0,-3.0v7 M-2.5,-0.5L0,-3.0L2.5,-0.5"/>
                </g>
                <g id="arrowDown" xlink:href="#dirArrow" transform="rotate(180) translate(-30 -48)" onmousedown="handlePan(0,1)">
                  <use xlink:href="#rim" fill="#404040">
                        <set attributeName="fill" to="#808080" begin="arrowDown.mouseover" end="arrowDown.mouseout"/>
                  </use>
                  <path fill="none" stroke="white" stroke-width="1.5" d="M0,-3.0v7 M-2.5,-0.5L0,-3.0L2.5,-0.5"/>
                </g>
                <g id="arrowLeft" xlink:href="#dirArrow" transform="rotate(270) translate(-36 17)" onmousedown="handlePan(-1,0)">
                  <use xlink:href="#rim" fill="#404040">
                        <set attributeName="fill" to="#808080" begin="arrowLeft.mouseover" end="arrowLeft.mouseout"/>
                  </use>
                  <path fill="none" stroke="white" stroke-width="1.5" d="M0,-3.0v7 M-2.5,-0.5L0,-3.0L2.5,-0.5"/>
                </g>
        </g>
        <svg viewBox="0 0 15 15" width="100%" height="30px" preserveAspectRatio="xMaxYMin meet">
         <g id="arrow_out" transform="scale(0.3 0.3)">
          <a xlink:href="classparser_1_1_logo_parser_a2e48e3ab2c1c075beca7bcc54d891afd_icgraph_org.svg" target="_base">
           <rect id="button" ry="5" rx="5" y="6" x="6" height="38" width="38"
                fill="#f2f5e9" fill-opacity="0.5" stroke="#606060" stroke-width="1.0"/>
           <path id="arrow"
             d="M 11.500037,31.436501 C 11.940474,20.09759 22.043105,11.32322 32.158766,21.979434 L 37.068811,17.246167 C 37.068811,17.246167 37.088388,32 37.088388,32 L 22.160133,31.978069 C 22.160133,31.978069 26.997745,27.140456 26.997745,27.140456 C 18.528582,18.264221 13.291696,25.230495 11.500037,31.436501 z"
             style="fill:#404040;"/>
          </a>
         </g>
        </svg>
</svg>
