<?xml version="1.0" encoding="UTF-8" standalone="no"?>
<!DOCTYPE svg PUBLIC "-//W3C//DTD SVG 1.1//EN"
 "http://www.w3.org/Graphics/SVG/1.1/DTD/svg11.dtd">
<!-- Generated by graphviz version 2.36.0 (20140111.2315)
 -->
<!-- Title: parser.LogoParser.jj_consume_token Pages: 1 -->
<svg width="2944pt" height="1340pt"
 viewBox="0.00 0.00 2944.00 1340.00" xmlns="http://www.w3.org/2000/svg" xmlns:xlink="http://www.w3.org/1999/xlink">
<g id="graph0" class="graph" transform="scale(1 1) rotate(0) translate(4 1336)">
<title>parser.LogoParser.jj_consume_token</title>
<polygon fill="white" stroke="none" points="-4,4 -4,-1336 2940,-1336 2940,4 -4,4"/>
<!-- Node1 -->
<g id="node1" class="node"><title>Node1</title>
<polygon fill="#bfbfbf" stroke="black" points="0,-282 0,-312 110,-312 110,-282 0,-282"/>
<text text-anchor="start" x="8" y="-300" font-family="Helvetica,sans-Serif" font-size="10.00">parser.LogoParser.jj</text>
<text text-anchor="middle" x="55" y="-289" font-family="Helvetica,sans-Serif" font-size="10.00">_consume_token</text>
</g>
<!-- Node2 -->
<g id="node2" class="node"><title>Node2</title>
<g id="a_node2"><a xlink:href="../../d5/d0e/classparser_1_1_logo_parser.html#ababc9feb4c4fe365d32902381328d79e" target="_top" xlink:title="parser.LogoParser.generate\lParseException">
<polygon fill="white" stroke="black" points="166.5,-307 166.5,-337 315.5,-337 315.5,-307 166.5,-307"/>
<text text-anchor="start" x="174.5" y="-325" font-family="Helvetica,sans-Serif" font-size="10.00">parser.LogoParser.generate</text>
<text text-anchor="middle" x="241" y="-314" font-family="Helvetica,sans-Serif" font-size="10.00">ParseException</text>
</a>
</g>
</g>
<!-- Node1&#45;&gt;Node2 -->
<g id="edge1" class="edge"><title>Node1&#45;&gt;Node2</title>
<path fill="none" stroke="midnightblue" d="M110.211,-304.366C124.646,-306.327 140.583,-308.492 156.203,-310.615"/>
<polygon fill="midnightblue" stroke="midnightblue" points="156.022,-314.122 166.402,-312 156.965,-307.186 156.022,-314.122"/>
</g>
<!-- Node3 -->
<g id="node3" class="node"><title>Node3</title>
<g id="a_node3"><a xlink:href="../../d0/d8c/classparser_1_1_logo_parser_token_manager.html#a3dee50e2286b70ba662519a865e63b77" target="_top" xlink:title="parser.LogoParserTokenManager.get\lNextToken">
<polygon fill="white" stroke="black" points="146,-258 146,-288 336,-288 336,-258 146,-258"/>
<text text-anchor="start" x="154" y="-276" font-family="Helvetica,sans-Serif" font-size="10.00">parser.LogoParserTokenManager.get</text>
<text text-anchor="middle" x="241" y="-265" font-family="Helvetica,sans-Serif" font-size="10.00">NextToken</text>
</a>
</g>
</g>
<!-- Node1&#45;&gt;Node3 -->
<g id="edge2" class="edge"><title>Node1&#45;&gt;Node3</title>
<path fill="none" stroke="midnightblue" d="M110.211,-289.929C118.375,-288.864 127.02,-287.737 135.816,-286.589"/>
<polygon fill="midnightblue" stroke="midnightblue" points="136.33,-290.052 145.793,-285.288 135.425,-283.111 136.33,-290.052"/>
</g>
<!-- Node4 -->
<g id="node4" class="node"><title>Node4</title>
<g id="a_node4"><a xlink:href="../../d4/dad/classparser_1_1_simple_char_stream.html#ad35e1457d139a5986c04f7975065d03d" target="_top" xlink:title="parser.SimpleCharStream.\lBeginToken">
<polygon fill="white" stroke="black" points="1254,-1171 1254,-1201 1398,-1201 1398,-1171 1254,-1171"/>
<text text-anchor="start" x="1262" y="-1189" font-family="Helvetica,sans-Serif" font-size="10.00">parser.SimpleCharStream.</text>
<text text-anchor="middle" x="1326" y="-1178" font-family="Helvetica,sans-Serif" font-size="10.00">BeginToken</text>
</a>
</g>
</g>
<!-- Node3&#45;&gt;Node4 -->
<g id="edge3" class="edge"><title>Node3&#45;&gt;Node4</title>
<path fill="none" stroke="midnightblue" d="M325.411,-288.112C329.348,-290.914 332.929,-294.185 336,-298 392.075,-367.656 327.801,-1024.26 372,-1102 448.281,-1236.16 522.668,-1268 677,-1268 677,-1268 677,-1268 895,-1268 1030.83,-1268 1186.6,-1228.03 1268.25,-1203.9"/>
<polygon fill="midnightblue" stroke="midnightblue" points="1269.26,-1207.25 1277.84,-1201.04 1267.25,-1200.55 1269.26,-1207.25"/>
</g>
<!-- Node5 -->
<g id="node5" class="node"><title>Node5</title>
<g id="a_node5"><a xlink:href="../../d4/dad/classparser_1_1_simple_char_stream.html#a9f80cee02b99e8e200afa646e3b25e29" target="_top" xlink:title="parser.SimpleCharStream.readChar">
<polygon fill="white" stroke="black" points="2316,-702.5 2316,-721.5 2504,-721.5 2504,-702.5 2316,-702.5"/>
<text text-anchor="middle" x="2410" y="-709.5" font-family="Helvetica,sans-Serif" font-size="10.00">parser.SimpleCharStream.readChar</text>
</a>
</g>
</g>
<!-- Node3&#45;&gt;Node5 -->
<g id="edge66" class="edge"><title>Node3&#45;&gt;Node5</title>
<path fill="none" stroke="midnightblue" d="M299.193,-288.103C311.35,-291.344 324.104,-294.766 336,-298 352.024,-302.356 355.647,-305.113 372,-308 505.904,-331.639 541.025,-332 677,-332 677,-332 677,-332 1975,-332 2113.88,-332 2173.69,-310.629 2280,-400 2373.62,-478.701 2400.33,-636.383 2407,-692.011"/>
<polygon fill="midnightblue" stroke="midnightblue" points="2403.56,-692.714 2408.14,-702.267 2410.52,-691.942 2403.56,-692.714"/>
</g>
<!-- Node8 -->
<g id="node8" class="node"><title>Node8</title>
<g id="a_node8"><a xlink:href="../../d4/dad/classparser_1_1_simple_char_stream.html#a4eacb833520fdfdb1b18be45bc3bd4ba" target="_top" xlink:title="parser.SimpleCharStream.backup">
<polygon fill="white" stroke="black" points="2756.5,-365.5 2756.5,-384.5 2935.5,-384.5 2935.5,-365.5 2756.5,-365.5"/>
<text text-anchor="middle" x="2846" y="-372.5" font-family="Helvetica,sans-Serif" font-size="10.00">parser.SimpleCharStream.backup</text>
</a>
</g>
</g>
<!-- Node3&#45;&gt;Node8 -->
<g id="edge17" class="edge"><title>Node3&#45;&gt;Node8</title>
<path fill="none" stroke="midnightblue" d="M336.126,-280.168C424.19,-286.252 559.428,-294 677,-294 677,-294 677,-294 2411,-294 2558.63,-294 2729.78,-339.849 2805.49,-362.558"/>
<polygon fill="midnightblue" stroke="midnightblue" points="2804.52,-365.919 2815.1,-365.47 2806.55,-359.22 2804.52,-365.919"/>
</g>
<!-- Node10 -->
<g id="node10" class="node"><title>Node10</title>
<g id="a_node10"><a xlink:href="../../d0/d8c/classparser_1_1_logo_parser_token_manager.html#a105d12f62ad67eda0850987aedc48f4d" target="_top" xlink:title="parser.LogoParserTokenManager.jj\lFillToken">
<polygon fill="white" stroke="black" points="372.5,-137 372.5,-167 551.5,-167 551.5,-137 372.5,-137"/>
<text text-anchor="start" x="380.5" y="-155" font-family="Helvetica,sans-Serif" font-size="10.00">parser.LogoParserTokenManager.jj</text>
<text text-anchor="middle" x="462" y="-144" font-family="Helvetica,sans-Serif" font-size="10.00">FillToken</text>
</a>
</g>
</g>
<!-- Node3&#45;&gt;Node10 -->
<g id="edge9" class="edge"><title>Node3&#45;&gt;Node10</title>
<path fill="none" stroke="midnightblue" d="M269.294,-257.92C308.58,-236.214 381.137,-196.125 424.841,-171.978"/>
<polygon fill="midnightblue" stroke="midnightblue" points="426.647,-174.979 433.707,-167.08 423.262,-168.852 426.647,-174.979"/>
</g>
<!-- Node11 -->
<g id="node11" class="node"><title>Node11</title>
<g id="a_node11"><a xlink:href="../../d4/dad/classparser_1_1_simple_char_stream.html#ad220e4e4324856b29042bb7cd3f1bf5e" target="_top" xlink:title="parser.SimpleCharStream.\lGetImage">
<polygon fill="white" stroke="black" points="606,-235 606,-265 750,-265 750,-235 606,-235"/>
<text text-anchor="start" x="614" y="-253" font-family="Helvetica,sans-Serif" font-size="10.00">parser.SimpleCharStream.</text>
<text text-anchor="middle" x="678" y="-242" font-family="Helvetica,sans-Serif" font-size="10.00">GetImage</text>
</a>
</g>
</g>
<!-- Node3&#45;&gt;Node11 -->
<g id="edge67" class="edge"><title>Node3&#45;&gt;Node11</title>
<path fill="none" stroke="midnightblue" d="M336.121,-268.024C413.545,-263.93 522.139,-258.188 595.797,-254.293"/>
<polygon fill="midnightblue" stroke="midnightblue" points="596.151,-257.78 605.952,-253.757 595.781,-250.79 596.151,-257.78"/>
</g>
<!-- Node14 -->
<g id="node14" class="node"><title>Node14</title>
<g id="a_node14"><a xlink:href="../../d4/dad/classparser_1_1_simple_char_stream.html#a47d15eca0c061d9075a8e2e7a835311b" target="_top" xlink:title="parser.SimpleCharStream.get\lEndLine">
<polygon fill="white" stroke="black" points="598,-49 598,-79 758,-79 758,-49 598,-49"/>
<text text-anchor="start" x="606" y="-67" font-family="Helvetica,sans-Serif" font-size="10.00">parser.SimpleCharStream.get</text>
<text text-anchor="middle" x="678" y="-56" font-family="Helvetica,sans-Serif" font-size="10.00">EndLine</text>
</a>
</g>
</g>
<!-- Node3&#45;&gt;Node14 -->
<g id="edge64" class="edge"><title>Node3&#45;&gt;Node14</title>
<path fill="none" stroke="midnightblue" d="M250.863,-257.717C269.256,-227.478 314.682,-160.085 372,-127 438.119,-88.8348 524.085,-73.6045 587.891,-67.6198"/>
<polygon fill="midnightblue" stroke="midnightblue" points="588.28,-71.0992 597.935,-66.7366 587.667,-64.1262 588.28,-71.0992"/>
</g>
<!-- Node15 -->
<g id="node15" class="node"><title>Node15</title>
<g id="a_node15"><a xlink:href="../../d4/dad/classparser_1_1_simple_char_stream.html#a3481ab0706f472b64151b31a36e883ef" target="_top" xlink:title="parser.SimpleCharStream.get\lEndColumn">
<polygon fill="white" stroke="black" points="598,-0 598,-30 758,-30 758,-0 598,-0"/>
<text text-anchor="start" x="606" y="-18" font-family="Helvetica,sans-Serif" font-size="10.00">parser.SimpleCharStream.get</text>
<text text-anchor="middle" x="678" y="-7" font-family="Helvetica,sans-Serif" font-size="10.00">EndColumn</text>
</a>
</g>
</g>
<!-- Node3&#45;&gt;Node15 -->
<g id="edge65" class="edge"><title>Node3&#45;&gt;Node15</title>
<path fill="none" stroke="midnightblue" d="M246.805,-257.917C259.925,-219.379 300.255,-116.968 372,-69 435.65,-26.444 522.847,-14.5215 587.708,-12.3211"/>
<polygon fill="midnightblue" stroke="midnightblue" points="588.016,-15.8142 597.919,-12.0482 587.829,-8.81671 588.016,-15.8142"/>
</g>
<!-- Node18 -->
<g id="node18" class="node"><title>Node18</title>
<g id="a_node18"><a xlink:href="../../d0/d8c/classparser_1_1_logo_parser_token_manager.html#a2b55f093fc0200c57a099eba2d9b37e2" target="_top" xlink:title="parser.LogoParserTokenManager.jj\lMoveStringLiteralDfa0_0">
<polygon fill="white" stroke="black" points="372.5,-1063 372.5,-1093 551.5,-1093 551.5,-1063 372.5,-1063"/>
<text text-anchor="start" x="380.5" y="-1081" font-family="Helvetica,sans-Serif" font-size="10.00">parser.LogoParserTokenManager.jj</text>
<text text-anchor="middle" x="462" y="-1070" font-family="Helvetica,sans-Serif" font-size="10.00">MoveStringLiteralDfa0_0</text>
</a>
</g>
</g>
<!-- Node3&#45;&gt;Node18 -->
<g id="edge18" class="edge"><title>Node3&#45;&gt;Node18</title>
<path fill="none" stroke="midnightblue" d="M324.488,-288.263C328.712,-291.021 332.603,-294.241 336,-298 439.773,-412.826 457.727,-931.485 460.522,-1052.64"/>
<polygon fill="midnightblue" stroke="midnightblue" points="457.027,-1052.88 460.742,-1062.8 464.025,-1052.72 457.027,-1052.88"/>
</g>
<!-- Node4&#45;&gt;Node5 -->
<g id="edge4" class="edge"><title>Node4&#45;&gt;Node5</title>
<path fill="none" stroke="midnightblue" d="M1398.14,-1184.4C1483.41,-1182.62 1630.64,-1180 1757,-1180 1757,-1180 1757,-1180 1975,-1180 2042.99,-1180 2227.28,-1198.92 2280,-1156 2348.68,-1100.09 2394.8,-810.717 2406.23,-731.864"/>
<polygon fill="midnightblue" stroke="midnightblue" points="2409.72,-732.204 2407.66,-721.81 2402.79,-731.216 2409.72,-732.204"/>
</g>
<!-- Node6 -->
<g id="node6" class="node"><title>Node6</title>
<g id="a_node6"><a xlink:href="../../d4/dad/classparser_1_1_simple_char_stream.html#aac1dcd2a238adbc951d3af740cc2aa13" target="_top" xlink:title="parser.SimpleCharStream.\lFillBuff">
<polygon fill="white" stroke="black" points="2558,-566 2558,-596 2702,-596 2702,-566 2558,-566"/>
<text text-anchor="start" x="2566" y="-584" font-family="Helvetica,sans-Serif" font-size="10.00">parser.SimpleCharStream.</text>
<text text-anchor="middle" x="2630" y="-573" font-family="Helvetica,sans-Serif" font-size="10.00">FillBuff</text>
</a>
</g>
</g>
<!-- Node5&#45;&gt;Node6 -->
<g id="edge5" class="edge"><title>Node5&#45;&gt;Node6</title>
<path fill="none" stroke="midnightblue" d="M2427.03,-702.367C2462.32,-681.162 2547.36,-630.057 2595.08,-601.385"/>
<polygon fill="midnightblue" stroke="midnightblue" points="2597.05,-604.285 2603.81,-596.134 2593.44,-598.285 2597.05,-604.285"/>
</g>
<!-- Node9 -->
<g id="node9" class="node"><title>Node9</title>
<g id="a_node9"><a xlink:href="../../d4/dad/classparser_1_1_simple_char_stream.html#ad8ca3472934b9d38c005c8885d859403" target="_top" xlink:title="parser.SimpleCharStream.\lUpdateLineColumn">
<polygon fill="white" stroke="black" points="2558,-697 2558,-727 2702,-727 2702,-697 2558,-697"/>
<text text-anchor="start" x="2566" y="-715" font-family="Helvetica,sans-Serif" font-size="10.00">parser.SimpleCharStream.</text>
<text text-anchor="middle" x="2630" y="-704" font-family="Helvetica,sans-Serif" font-size="10.00">UpdateLineColumn</text>
</a>
</g>
</g>
<!-- Node5&#45;&gt;Node9 -->
<g id="edge8" class="edge"><title>Node5&#45;&gt;Node9</title>
<path fill="none" stroke="midnightblue" d="M2504.08,-712C2518.61,-712 2533.52,-712 2547.76,-712"/>
<polygon fill="midnightblue" stroke="midnightblue" points="2547.99,-715.5 2557.99,-712 2547.99,-708.5 2547.99,-715.5"/>
</g>
<!-- Node7 -->
<g id="node7" class="node"><title>Node7</title>
<g id="a_node7"><a xlink:href="../../d4/dad/classparser_1_1_simple_char_stream.html#a5328cda7180ed2a180eac8af133517cf" target="_top" xlink:title="parser.SimpleCharStream.\lExpandBuff">
<polygon fill="white" stroke="black" points="2774,-566 2774,-596 2918,-596 2918,-566 2774,-566"/>
<text text-anchor="start" x="2782" y="-584" font-family="Helvetica,sans-Serif" font-size="10.00">parser.SimpleCharStream.</text>
<text text-anchor="middle" x="2846" y="-573" font-family="Helvetica,sans-Serif" font-size="10.00">ExpandBuff</text>
</a>
</g>
</g>
<!-- Node6&#45;&gt;Node7 -->
<g id="edge6" class="edge"><title>Node6&#45;&gt;Node7</title>
<path fill="none" stroke="midnightblue" d="M2702.26,-581C2721.92,-581 2743.39,-581 2763.58,-581"/>
<polygon fill="midnightblue" stroke="midnightblue" points="2763.69,-584.5 2773.69,-581 2763.69,-577.5 2763.69,-584.5"/>
</g>
<!-- Node6&#45;&gt;Node8 -->
<g id="edge7" class="edge"><title>Node6&#45;&gt;Node8</title>
<path fill="none" stroke="midnightblue" d="M2646.74,-565.852C2685.83,-528.221 2787.13,-430.706 2827.76,-391.592"/>
<polygon fill="midnightblue" stroke="midnightblue" points="2830.27,-394.039 2835.05,-384.582 2825.41,-388.996 2830.27,-394.039"/>
</g>
<!-- Node10&#45;&gt;Node11 -->
<g id="edge10" class="edge"><title>Node10&#45;&gt;Node11</title>
<path fill="none" stroke="midnightblue" d="M485.127,-167.271C509.429,-183.472 550.058,-208.904 588,-225 593.721,-227.427 599.747,-229.691 605.855,-231.787"/>
<polygon fill="midnightblue" stroke="midnightblue" points="604.897,-235.156 615.489,-234.941 607.075,-228.504 604.897,-235.156"/>
</g>
<!-- Node12 -->
<g id="node12" class="node"><title>Node12</title>
<g id="a_node12"><a xlink:href="../../d4/dad/classparser_1_1_simple_char_stream.html#a57abeecbf653aeb71b0e7631b3a30331" target="_top" xlink:title="parser.SimpleCharStream.get\lBeginLine">
<polygon fill="white" stroke="black" points="598,-186 598,-216 758,-216 758,-186 598,-186"/>
<text text-anchor="start" x="606" y="-204" font-family="Helvetica,sans-Serif" font-size="10.00">parser.SimpleCharStream.get</text>
<text text-anchor="middle" x="678" y="-193" font-family="Helvetica,sans-Serif" font-size="10.00">BeginLine</text>
</a>
</g>
</g>
<!-- Node10&#45;&gt;Node12 -->
<g id="edge11" class="edge"><title>Node10&#45;&gt;Node12</title>
<path fill="none" stroke="midnightblue" d="M528.661,-167.035C551.668,-172.302 577.687,-178.26 601.438,-183.698"/>
<polygon fill="midnightblue" stroke="midnightblue" points="600.934,-187.173 611.463,-185.994 602.496,-180.35 600.934,-187.173"/>
</g>
<!-- Node13 -->
<g id="node13" class="node"><title>Node13</title>
<g id="a_node13"><a xlink:href="../../d4/dad/classparser_1_1_simple_char_stream.html#ab206c6e9c44d1f594317a7920e6c9372" target="_top" xlink:title="parser.SimpleCharStream.get\lBeginColumn">
<polygon fill="white" stroke="black" points="598,-137 598,-167 758,-167 758,-137 598,-137"/>
<text text-anchor="start" x="606" y="-155" font-family="Helvetica,sans-Serif" font-size="10.00">parser.SimpleCharStream.get</text>
<text text-anchor="middle" x="678" y="-144" font-family="Helvetica,sans-Serif" font-size="10.00">BeginColumn</text>
</a>
</g>
</g>
<!-- Node10&#45;&gt;Node13 -->
<g id="edge12" class="edge"><title>Node10&#45;&gt;Node13</title>
<path fill="none" stroke="midnightblue" d="M551.587,-152C563.415,-152 575.553,-152 587.398,-152"/>
<polygon fill="midnightblue" stroke="midnightblue" points="587.718,-155.5 597.718,-152 587.718,-148.5 587.718,-155.5"/>
</g>
<!-- Node10&#45;&gt;Node14 -->
<g id="edge13" class="edge"><title>Node10&#45;&gt;Node14</title>
<path fill="none" stroke="midnightblue" d="M493.992,-136.928C511.145,-128.524 532.814,-117.803 552,-108 568.11,-99.7681 571.197,-95.7061 588,-89 594.109,-86.5618 600.543,-84.2636 607.042,-82.1229"/>
<polygon fill="midnightblue" stroke="midnightblue" points="608.103,-85.4583 616.579,-79.1014 605.989,-78.7852 608.103,-85.4583"/>
</g>
<!-- Node10&#45;&gt;Node15 -->
<g id="edge14" class="edge"><title>Node10&#45;&gt;Node15</title>
<path fill="none" stroke="midnightblue" d="M475.547,-136.724C496.365,-112.384 540.484,-64.9092 588,-39 591.458,-37.1146 595.073,-35.3699 598.784,-33.7563"/>
<polygon fill="midnightblue" stroke="midnightblue" points="600.179,-36.9679 608.169,-30.0098 597.584,-30.4668 600.179,-36.9679"/>
</g>
<!-- Node16 -->
<g id="node16" class="node"><title>Node16</title>
<g id="a_node16"><a xlink:href="../../db/df3/classparser_1_1_token.html#ae26c3dba3bc9315a3fc688514f51c9bf" target="_top" xlink:title="parser.Token.newToken">
<polygon fill="white" stroke="black" points="615.5,-98.5 615.5,-117.5 740.5,-117.5 740.5,-98.5 615.5,-98.5"/>
<text text-anchor="middle" x="678" y="-105.5" font-family="Helvetica,sans-Serif" font-size="10.00">parser.Token.newToken</text>
</a>
</g>
</g>
<!-- Node10&#45;&gt;Node16 -->
<g id="edge15" class="edge"><title>Node10&#45;&gt;Node16</title>
<path fill="none" stroke="midnightblue" d="M536.048,-136.981C563.733,-131.288 594.802,-124.901 620.71,-119.574"/>
<polygon fill="midnightblue" stroke="midnightblue" points="621.645,-122.955 630.735,-117.512 620.235,-116.098 621.645,-122.955"/>
</g>
<!-- Node17 -->
<g id="node17" class="node"><title>Node17</title>
<g id="a_node17"><a xlink:href="../../db/df3/classparser_1_1_token.html#aee7a764d984c5f071e40e215c400fc3d" target="_top" xlink:title="parser.Token.Token">
<polygon fill="white" stroke="black" points="840.5,-98.5 840.5,-117.5 947.5,-117.5 947.5,-98.5 840.5,-98.5"/>
<text text-anchor="middle" x="894" y="-105.5" font-family="Helvetica,sans-Serif" font-size="10.00">parser.Token.Token</text>
</a>
</g>
</g>
<!-- Node16&#45;&gt;Node17 -->
<g id="edge16" class="edge"><title>Node16&#45;&gt;Node17</title>
<path fill="none" stroke="midnightblue" d="M740.611,-108C768.653,-108 801.802,-108 830.009,-108"/>
<polygon fill="midnightblue" stroke="midnightblue" points="830.159,-111.5 840.159,-108 830.158,-104.5 830.159,-111.5"/>
</g>
<!-- Node19 -->
<g id="node19" class="node"><title>Node19</title>
<g id="a_node19"><a xlink:href="../../d0/d8c/classparser_1_1_logo_parser_token_manager.html#a94b20a17d94554012918e876be221c46" target="_top" xlink:title="parser.LogoParserTokenManager.jj\lStartNfaWithStates_0">
<polygon fill="white" stroke="black" points="1884.5,-915 1884.5,-945 2063.5,-945 2063.5,-915 1884.5,-915"/>
<text text-anchor="start" x="1892.5" y="-933" font-family="Helvetica,sans-Serif" font-size="10.00">parser.LogoParserTokenManager.jj</text>
<text text-anchor="middle" x="1974" y="-922" font-family="Helvetica,sans-Serif" font-size="10.00">StartNfaWithStates_0</text>
</a>
</g>
</g>
<!-- Node18&#45;&gt;Node19 -->
<g id="edge19" class="edge"><title>Node18&#45;&gt;Node19</title>
<path fill="none" stroke="midnightblue" d="M551.704,-1087.42C563.887,-1088.45 576.245,-1089.36 588,-1090 779.73,-1100.52 827.986,-1094.67 1020,-1096 1100,-1096.56 1120.43,-1104.26 1200,-1096 1492.7,-1065.62 1560.9,-1024.57 1848,-960 1865.38,-956.091 1884.08,-951.702 1901.58,-947.514"/>
<polygon fill="midnightblue" stroke="midnightblue" points="1902.82,-950.815 1911.73,-945.076 1901.19,-944.009 1902.82,-950.815"/>
</g>
<!-- Node20 -->
<g id="node20" class="node"><title>Node20</title>
<g id="a_node20"><a xlink:href="../../d0/d8c/classparser_1_1_logo_parser_token_manager.html#a0071f141b41b403c8ab151c8c014a709" target="_top" xlink:title="parser.LogoParserTokenManager.jj\lMoveNfa_0">
<polygon fill="white" stroke="black" points="2100.5,-1209 2100.5,-1239 2279.5,-1239 2279.5,-1209 2100.5,-1209"/>
<text text-anchor="start" x="2108.5" y="-1227" font-family="Helvetica,sans-Serif" font-size="10.00">parser.LogoParserTokenManager.jj</text>
<text text-anchor="middle" x="2190" y="-1216" font-family="Helvetica,sans-Serif" font-size="10.00">MoveNfa_0</text>
</a>
</g>
</g>
<!-- Node18&#45;&gt;Node20 -->
<g id="edge63" class="edge"><title>Node18&#45;&gt;Node20</title>
<path fill="none" stroke="midnightblue" d="M534.174,-1093C540.233,-1094.58 546.242,-1096.25 552,-1098 707.485,-1145.28 730.486,-1230 893,-1230 893,-1230 893,-1230 1759,-1230 1872.65,-1230 2003.18,-1227.88 2090.33,-1226.16"/>
<polygon fill="midnightblue" stroke="midnightblue" points="2090.55,-1229.66 2100.48,-1225.96 2090.41,-1222.66 2090.55,-1229.66"/>
</g>
<!-- Node26 -->
<g id="node26" class="node"><title>Node26</title>
<g id="a_node26"><a xlink:href="../../d0/d8c/classparser_1_1_logo_parser_token_manager.html#a99a01f0b68908e628349e9f09a2cbccd" target="_top" xlink:title="parser.LogoParserTokenManager.jj\lMoveStringLiteralDfa1_0">
<polygon fill="white" stroke="black" points="588.5,-959 588.5,-989 767.5,-989 767.5,-959 588.5,-959"/>
<text text-anchor="start" x="596.5" y="-977" font-family="Helvetica,sans-Serif" font-size="10.00">parser.LogoParserTokenManager.jj</text>
<text text-anchor="middle" x="678" y="-966" font-family="Helvetica,sans-Serif" font-size="10.00">MoveStringLiteralDfa1_0</text>
</a>
</g>
</g>
<!-- Node18&#45;&gt;Node26 -->
<g id="edge30" class="edge"><title>Node18&#45;&gt;Node26</title>
<path fill="none" stroke="midnightblue" d="M494.117,-1062.88C531.758,-1044.58 595.212,-1013.75 636.598,-993.635"/>
<polygon fill="midnightblue" stroke="midnightblue" points="638.381,-996.66 645.845,-989.141 635.321,-990.364 638.381,-996.66"/>
</g>
<!-- Node30 -->
<g id="node30" class="node"><title>Node30</title>
<g id="a_node30"><a xlink:href="../../d0/d8c/classparser_1_1_logo_parser_token_manager.html#ab983b76c64f4c06ba9c5469d87e6eddd" target="_top" xlink:title="parser.LogoParserTokenManager.jj\lStopAtPos">
<polygon fill="white" stroke="black" points="1020.5,-1057 1020.5,-1087 1199.5,-1087 1199.5,-1057 1020.5,-1057"/>
<text text-anchor="start" x="1028.5" y="-1075" font-family="Helvetica,sans-Serif" font-size="10.00">parser.LogoParserTokenManager.jj</text>
<text text-anchor="middle" x="1110" y="-1064" font-family="Helvetica,sans-Serif" font-size="10.00">StopAtPos</text>
</a>
</g>
</g>
<!-- Node18&#45;&gt;Node30 -->
<g id="edge62" class="edge"><title>Node18&#45;&gt;Node30</title>
<path fill="none" stroke="midnightblue" d="M551.807,-1077.18C671.811,-1076.06 885.081,-1074.08 1010.08,-1072.92"/>
<polygon fill="midnightblue" stroke="midnightblue" points="1010.44,-1076.42 1020.41,-1072.82 1010.38,-1069.42 1010.44,-1076.42"/>
</g>
<!-- Node19&#45;&gt;Node5 -->
<g id="edge20" class="edge"><title>Node19&#45;&gt;Node5</title>
<path fill="none" stroke="midnightblue" d="M2005.17,-914.844C2085.36,-874.564 2302.96,-765.266 2380.82,-726.156"/>
<polygon fill="midnightblue" stroke="midnightblue" points="2382.66,-729.15 2390.02,-721.533 2379.51,-722.895 2382.66,-729.15"/>
</g>
<!-- Node19&#45;&gt;Node20 -->
<g id="edge21" class="edge"><title>Node19&#45;&gt;Node20</title>
<path fill="none" stroke="midnightblue" d="M1986.2,-945.393C2021.38,-993.717 2129.77,-1142.62 2171.95,-1200.58"/>
<polygon fill="midnightblue" stroke="midnightblue" points="2169.19,-1202.73 2177.91,-1208.76 2174.85,-1198.61 2169.19,-1202.73"/>
</g>
<!-- Node20&#45;&gt;Node5 -->
<g id="edge29" class="edge"><title>Node20&#45;&gt;Node5</title>
<path fill="none" stroke="midnightblue" d="M2259.42,-1208.99C2267.08,-1205.09 2274.2,-1200.18 2280,-1194 2313.11,-1158.71 2386.71,-817.754 2404.88,-731.665"/>
<polygon fill="midnightblue" stroke="midnightblue" points="2408.35,-732.167 2406.99,-721.661 2401.5,-730.727 2408.35,-732.167"/>
</g>
<!-- Node21 -->
<g id="node21" class="node"><title>Node21</title>
<g id="a_node21"><a xlink:href="../../d0/d8c/classparser_1_1_logo_parser_token_manager.html#a5923cb696d0a55f99661625200327816" target="_top" xlink:title="parser.LogoParserTokenManager.\lReInitRounds">
<polygon fill="white" stroke="black" points="2323,-1253 2323,-1283 2497,-1283 2497,-1253 2323,-1253"/>
<text text-anchor="start" x="2331" y="-1271" font-family="Helvetica,sans-Serif" font-size="10.00">parser.LogoParserTokenManager.</text>
<text text-anchor="middle" x="2410" y="-1260" font-family="Helvetica,sans-Serif" font-size="10.00">ReInitRounds</text>
</a>
</g>
</g>
<!-- Node20&#45;&gt;Node21 -->
<g id="edge22" class="edge"><title>Node20&#45;&gt;Node21</title>
<path fill="none" stroke="midnightblue" d="M2265.41,-1239.02C2284.51,-1242.87 2305.19,-1247.05 2324.75,-1251"/>
<polygon fill="midnightblue" stroke="midnightblue" points="2324.06,-1254.43 2334.55,-1252.97 2325.44,-1247.56 2324.06,-1254.43"/>
</g>
<!-- Node22 -->
<g id="node22" class="node"><title>Node22</title>
<g id="a_node22"><a xlink:href="../../d0/d8c/classparser_1_1_logo_parser_token_manager.html#af1b1635a624926faf7741958cc140de4" target="_top" xlink:title="parser.LogoParserTokenManager.jj\lCheckNAdd">
<polygon fill="white" stroke="black" points="2540.5,-1165 2540.5,-1195 2719.5,-1195 2719.5,-1165 2540.5,-1165"/>
<text text-anchor="start" x="2548.5" y="-1183" font-family="Helvetica,sans-Serif" font-size="10.00">parser.LogoParserTokenManager.jj</text>
<text text-anchor="middle" x="2630" y="-1172" font-family="Helvetica,sans-Serif" font-size="10.00">CheckNAdd</text>
</a>
</g>
</g>
<!-- Node20&#45;&gt;Node22 -->
<g id="edge23" class="edge"><title>Node20&#45;&gt;Node22</title>
<path fill="none" stroke="midnightblue" d="M2279.65,-1221.31C2342.48,-1218.68 2428.65,-1213.6 2504,-1204 2518.6,-1202.14 2534.07,-1199.62 2548.97,-1196.91"/>
<polygon fill="midnightblue" stroke="midnightblue" points="2549.98,-1200.29 2559.17,-1195.02 2548.7,-1193.4 2549.98,-1200.29"/>
</g>
<!-- Node23 -->
<g id="node23" class="node"><title>Node23</title>
<g id="a_node23"><a xlink:href="../../d0/d8c/classparser_1_1_logo_parser_token_manager.html#ad31cdd6db411f95b045686c2053f42fa" target="_top" xlink:title="parser.LogoParserTokenManager.jj\lAddStates">
<polygon fill="white" stroke="black" points="2320.5,-1302 2320.5,-1332 2499.5,-1332 2499.5,-1302 2320.5,-1302"/>
<text text-anchor="start" x="2328.5" y="-1320" font-family="Helvetica,sans-Serif" font-size="10.00">parser.LogoParserTokenManager.jj</text>
<text text-anchor="middle" x="2410" y="-1309" font-family="Helvetica,sans-Serif" font-size="10.00">AddStates</text>
</a>
</g>
</g>
<!-- Node20&#45;&gt;Node23 -->
<g id="edge24" class="edge"><title>Node20&#45;&gt;Node23</title>
<path fill="none" stroke="midnightblue" d="M2214.61,-1239.04C2239.15,-1254.14 2279.07,-1277.23 2316,-1292 2322.15,-1294.46 2328.63,-1296.76 2335.19,-1298.89"/>
<polygon fill="midnightblue" stroke="midnightblue" points="2334.23,-1302.25 2344.81,-1301.88 2336.3,-1295.57 2334.23,-1302.25"/>
</g>
<!-- Node24 -->
<g id="node24" class="node"><title>Node24</title>
<g id="a_node24"><a xlink:href="../../d0/d8c/classparser_1_1_logo_parser_token_manager.html#a8f9adc17a4a9b201128786ca145783e8" target="_top" xlink:title="parser.LogoParserTokenManager.jj\lCheckNAddTwoStates">
<polygon fill="white" stroke="black" points="2320.5,-1165 2320.5,-1195 2499.5,-1195 2499.5,-1165 2320.5,-1165"/>
<text text-anchor="start" x="2328.5" y="-1183" font-family="Helvetica,sans-Serif" font-size="10.00">parser.LogoParserTokenManager.jj</text>
<text text-anchor="middle" x="2410" y="-1172" font-family="Helvetica,sans-Serif" font-size="10.00">CheckNAddTwoStates</text>
</a>
</g>
</g>
<!-- Node20&#45;&gt;Node24 -->
<g id="edge25" class="edge"><title>Node20&#45;&gt;Node24</title>
<path fill="none" stroke="midnightblue" d="M2265.41,-1208.98C2284.51,-1205.13 2305.19,-1200.95 2324.75,-1197"/>
<polygon fill="midnightblue" stroke="midnightblue" points="2325.44,-1200.44 2334.55,-1195.03 2324.06,-1193.57 2325.44,-1200.44"/>
</g>
<!-- Node25 -->
<g id="node25" class="node"><title>Node25</title>
<g id="a_node25"><a xlink:href="../../d0/d8c/classparser_1_1_logo_parser_token_manager.html#ac4047538420e7ceceec16698b354cd62" target="_top" xlink:title="parser.LogoParserTokenManager.jj\lCheckNAddStates">
<polygon fill="white" stroke="black" points="2320.5,-1116 2320.5,-1146 2499.5,-1146 2499.5,-1116 2320.5,-1116"/>
<text text-anchor="start" x="2328.5" y="-1134" font-family="Helvetica,sans-Serif" font-size="10.00">parser.LogoParserTokenManager.jj</text>
<text text-anchor="middle" x="2410" y="-1123" font-family="Helvetica,sans-Serif" font-size="10.00">CheckNAddStates</text>
</a>
</g>
</g>
<!-- Node20&#45;&gt;Node25 -->
<g id="edge27" class="edge"><title>Node20&#45;&gt;Node25</title>
<path fill="none" stroke="midnightblue" d="M2249.38,-1208.89C2260,-1204.89 2270.66,-1199.97 2280,-1194 2299.6,-1181.47 2296.02,-1167.91 2316,-1156 2319.64,-1153.83 2323.46,-1151.85 2327.4,-1150.04"/>
<polygon fill="midnightblue" stroke="midnightblue" points="2328.91,-1153.2 2336.78,-1146.1 2326.21,-1146.74 2328.91,-1153.2"/>
</g>
<!-- Node24&#45;&gt;Node22 -->
<g id="edge26" class="edge"><title>Node24&#45;&gt;Node22</title>
<path fill="none" stroke="midnightblue" d="M2499.67,-1180C2509.75,-1180 2520.07,-1180 2530.27,-1180"/>
<polygon fill="midnightblue" stroke="midnightblue" points="2530.41,-1183.5 2540.41,-1180 2530.41,-1176.5 2530.41,-1183.5"/>
</g>
<!-- Node25&#45;&gt;Node22 -->
<g id="edge28" class="edge"><title>Node25&#45;&gt;Node22</title>
<path fill="none" stroke="midnightblue" d="M2477.89,-1146.03C2501.43,-1151.33 2528.07,-1157.31 2552.35,-1162.77"/>
<polygon fill="midnightblue" stroke="midnightblue" points="2551.71,-1166.22 2562.24,-1164.99 2553.25,-1159.39 2551.71,-1166.22"/>
</g>
<!-- Node26&#45;&gt;Node5 -->
<g id="edge31" class="edge"><title>Node26&#45;&gt;Node5</title>
<path fill="none" stroke="midnightblue" d="M712.04,-989.044C771.993,-1015.61 903.307,-1070.42 1020,-1096 1247.06,-1145.78 1308.54,-1142 1541,-1142 1541,-1142 1541,-1142 1975,-1142 2122.01,-1142 2178.42,-1120.27 2280,-1014 2361.48,-928.764 2395.5,-784.134 2405.57,-731.714"/>
<polygon fill="midnightblue" stroke="midnightblue" points="2409.04,-732.193 2407.41,-721.725 2402.15,-730.926 2409.04,-732.193"/>
</g>
<!-- Node27 -->
<g id="node27" class="node"><title>Node27</title>
<g id="a_node27"><a xlink:href="../../d0/d8c/classparser_1_1_logo_parser_token_manager.html#a1f212a863542f9f3993faf51bb46ae8e" target="_top" xlink:title="parser.LogoParserTokenManager.jj\lStopStringLiteralDfa_0">
<polygon fill="white" stroke="black" points="2100.5,-501 2100.5,-531 2279.5,-531 2279.5,-501 2100.5,-501"/>
<text text-anchor="start" x="2108.5" y="-519" font-family="Helvetica,sans-Serif" font-size="10.00">parser.LogoParserTokenManager.jj</text>
<text text-anchor="middle" x="2190" y="-508" font-family="Helvetica,sans-Serif" font-size="10.00">StopStringLiteralDfa_0</text>
</a>
</g>
</g>
<!-- Node26&#45;&gt;Node27 -->
<g id="edge32" class="edge"><title>Node26&#45;&gt;Node27</title>
<path fill="none" stroke="midnightblue" d="M684.396,-958.579C709.555,-889.172 822.531,-603.69 1020,-478 1330.93,-280.094 1479.63,-420.074 1848,-432 1944.15,-435.113 1971.75,-418.712 2064,-446 2082.89,-451.587 2126.24,-477.05 2156.57,-495.659"/>
<polygon fill="midnightblue" stroke="midnightblue" points="2154.78,-498.67 2165.13,-500.944 2158.46,-492.714 2154.78,-498.67"/>
</g>
<!-- Node28 -->
<g id="node28" class="node"><title>Node28</title>
<g id="a_node28"><a xlink:href="../../d0/d8c/classparser_1_1_logo_parser_token_manager.html#a26eaeb3ef169f93c03edbb3e26128b7a" target="_top" xlink:title="parser.LogoParserTokenManager.jj\lMoveStringLiteralDfa2_0">
<polygon fill="white" stroke="black" points="804.5,-959 804.5,-989 983.5,-989 983.5,-959 804.5,-959"/>
<text text-anchor="start" x="812.5" y="-977" font-family="Helvetica,sans-Serif" font-size="10.00">parser.LogoParserTokenManager.jj</text>
<text text-anchor="middle" x="894" y="-966" font-family="Helvetica,sans-Serif" font-size="10.00">MoveStringLiteralDfa2_0</text>
</a>
</g>
</g>
<!-- Node26&#45;&gt;Node28 -->
<g id="edge33" class="edge"><title>Node26&#45;&gt;Node28</title>
<path fill="none" stroke="midnightblue" d="M767.587,-974C776.442,-974 785.472,-974 794.422,-974"/>
<polygon fill="midnightblue" stroke="midnightblue" points="794.48,-977.5 804.48,-974 794.48,-970.5 794.48,-977.5"/>
</g>
<!-- Node29 -->
<g id="node29" class="node"><title>Node29</title>
<g id="a_node29"><a xlink:href="../../d0/d8c/classparser_1_1_logo_parser_token_manager.html#aa065c8b0c977d3c1c9d9058f96664080" target="_top" xlink:title="parser.LogoParserTokenManager.jj\lStartNfa_0">
<polygon fill="white" stroke="black" points="1884.5,-804 1884.5,-834 2063.5,-834 2063.5,-804 1884.5,-804"/>
<text text-anchor="start" x="1892.5" y="-822" font-family="Helvetica,sans-Serif" font-size="10.00">parser.LogoParserTokenManager.jj</text>
<text text-anchor="middle" x="1974" y="-811" font-family="Helvetica,sans-Serif" font-size="10.00">StartNfa_0</text>
</a>
</g>
</g>
<!-- Node26&#45;&gt;Node29 -->
<g id="edge61" class="edge"><title>Node26&#45;&gt;Node29</title>
<path fill="none" stroke="midnightblue" d="M745.265,-958.937C829.376,-941.164 979.165,-914 1109,-914 1109,-914 1109,-914 1543,-914 1683.4,-914 1843.65,-865.112 1923.02,-837.477"/>
<polygon fill="midnightblue" stroke="midnightblue" points="1924.48,-840.673 1932.75,-834.053 1922.15,-834.07 1924.48,-840.673"/>
</g>
<!-- Node28&#45;&gt;Node5 -->
<g id="edge37" class="edge"><title>Node28&#45;&gt;Node5</title>
<path fill="none" stroke="midnightblue" d="M953.588,-989.04C1092.22,-1023.26 1451.66,-1104 1757,-1104 1757,-1104 1757,-1104 1975,-1104 2200.43,-1104 2361.29,-809.127 2400.01,-730.874"/>
<polygon fill="midnightblue" stroke="midnightblue" points="2403.25,-732.213 2404.48,-721.69 2396.96,-729.149 2403.25,-732.213"/>
</g>
<!-- Node28&#45;&gt;Node19 -->
<g id="edge60" class="edge"><title>Node28&#45;&gt;Node19</title>
<path fill="none" stroke="midnightblue" d="M983.534,-973.966C1087.22,-973.618 1264.15,-972.07 1416,-966 1576.56,-959.583 1762.82,-946.374 1874.12,-937.865"/>
<polygon fill="midnightblue" stroke="midnightblue" points="1874.62,-941.337 1884.32,-937.082 1874.08,-934.358 1874.62,-941.337"/>
</g>
<!-- Node28&#45;&gt;Node27 -->
<g id="edge38" class="edge"><title>Node28&#45;&gt;Node27</title>
<path fill="none" stroke="midnightblue" d="M898.991,-958.767C922.678,-872.196 1053.1,-446 1325,-446 1325,-446 1325,-446 1759,-446 1895.45,-446 1930.1,-454.745 2064,-481 2086.53,-485.417 2110.92,-491.861 2132.12,-498.019"/>
<polygon fill="midnightblue" stroke="midnightblue" points="2131.36,-501.442 2141.94,-500.914 2133.34,-494.728 2131.36,-501.442"/>
</g>
<!-- Node28&#45;&gt;Node29 -->
<g id="edge34" class="edge"><title>Node28&#45;&gt;Node29</title>
<path fill="none" stroke="midnightblue" d="M983.875,-966.796C1070.78,-960.38 1206.89,-952 1325,-952 1325,-952 1325,-952 1543,-952 1678.97,-952 1722.64,-980.679 1848,-928 1871.39,-918.17 1921.82,-870.209 1950.98,-841.282"/>
<polygon fill="midnightblue" stroke="midnightblue" points="1953.64,-843.565 1958.25,-834.023 1948.7,-838.611 1953.64,-843.565"/>
</g>
<!-- Node28&#45;&gt;Node30 -->
<g id="edge39" class="edge"><title>Node28&#45;&gt;Node30</title>
<path fill="none" stroke="midnightblue" d="M919.734,-989.12C944.5,-1003.86 984.001,-1026.28 1020,-1042 1029.51,-1046.15 1039.8,-1050.1 1049.88,-1053.68"/>
<polygon fill="midnightblue" stroke="midnightblue" points="1048.86,-1057.03 1059.46,-1056.99 1051.15,-1050.41 1048.86,-1057.03"/>
</g>
<!-- Node31 -->
<g id="node31" class="node"><title>Node31</title>
<g id="a_node31"><a xlink:href="../../d0/d8c/classparser_1_1_logo_parser_token_manager.html#a12bfedaecfaf646642cb1aba5b1bd6fb" target="_top" xlink:title="parser.LogoParserTokenManager.jj\lMoveStringLiteralDfa3_0">
<polygon fill="white" stroke="black" points="1020.5,-785 1020.5,-815 1199.5,-815 1199.5,-785 1020.5,-785"/>
<text text-anchor="start" x="1028.5" y="-803" font-family="Helvetica,sans-Serif" font-size="10.00">parser.LogoParserTokenManager.jj</text>
<text text-anchor="middle" x="1110" y="-792" font-family="Helvetica,sans-Serif" font-size="10.00">MoveStringLiteralDfa3_0</text>
</a>
</g>
</g>
<!-- Node28&#45;&gt;Node31 -->
<g id="edge40" class="edge"><title>Node28&#45;&gt;Node31</title>
<path fill="none" stroke="midnightblue" d="M913.617,-958.863C951.639,-927.948 1038.33,-857.464 1082.32,-821.69"/>
<polygon fill="midnightblue" stroke="midnightblue" points="1084.72,-824.25 1090.27,-815.226 1080.31,-818.819 1084.72,-824.25"/>
</g>
<!-- Node29&#45;&gt;Node20 -->
<g id="edge35" class="edge"><title>Node29&#45;&gt;Node20</title>
<path fill="none" stroke="midnightblue" d="M1994.73,-834.073C2014.53,-850.073 2044.77,-877.009 2064,-906 2129.46,-1004.69 2168.84,-1142.84 2183.01,-1198.89"/>
<polygon fill="midnightblue" stroke="midnightblue" points="2179.63,-1199.81 2185.43,-1208.67 2186.42,-1198.13 2179.63,-1199.81"/>
</g>
<!-- Node29&#45;&gt;Node27 -->
<g id="edge36" class="edge"><title>Node29&#45;&gt;Node27</title>
<path fill="none" stroke="midnightblue" d="M1985.61,-803.974C2020.27,-754.907 2130.3,-599.117 2172.4,-539.509"/>
<polygon fill="midnightblue" stroke="midnightblue" points="2175.41,-541.304 2178.32,-531.117 2169.7,-537.266 2175.41,-541.304"/>
</g>
<!-- Node31&#45;&gt;Node5 -->
<g id="edge42" class="edge"><title>Node31&#45;&gt;Node5</title>
<path fill="none" stroke="midnightblue" d="M1112.97,-784.786C1119.98,-736.907 1148.24,-588.002 1236,-512 1417.43,-354.887 1517,-370 1757,-370 1757,-370 1757,-370 1975,-370 2066.71,-370 2274.03,-486.627 2280,-492 2345.37,-550.879 2386.98,-650.898 2402.33,-692.72"/>
<polygon fill="midnightblue" stroke="midnightblue" points="2399.08,-694.016 2405.74,-702.253 2405.67,-691.658 2399.08,-694.016"/>
</g>
<!-- Node31&#45;&gt;Node19 -->
<g id="edge59" class="edge"><title>Node31&#45;&gt;Node19</title>
<path fill="none" stroke="midnightblue" d="M1199.6,-813.362C1361.77,-837.82 1705.21,-889.614 1874.48,-915.141"/>
<polygon fill="midnightblue" stroke="midnightblue" points="1873.97,-918.605 1884.38,-916.635 1875.02,-911.683 1873.97,-918.605"/>
</g>
<!-- Node31&#45;&gt;Node27 -->
<g id="edge43" class="edge"><title>Node31&#45;&gt;Node27</title>
<path fill="none" stroke="midnightblue" d="M1120.86,-784.759C1163,-721.636 1335.33,-484 1541,-484 1541,-484 1541,-484 1759,-484 1894.7,-484 1928.91,-485.203 2064,-498 2072.56,-498.811 2081.44,-499.797 2090.33,-500.884"/>
<polygon fill="midnightblue" stroke="midnightblue" points="2090,-504.369 2100.36,-502.15 2090.87,-497.425 2090,-504.369"/>
</g>
<!-- Node31&#45;&gt;Node29 -->
<g id="edge41" class="edge"><title>Node31&#45;&gt;Node29</title>
<path fill="none" stroke="midnightblue" d="M1199.6,-801.953C1361.69,-805.526 1704.87,-813.09 1874.22,-816.823"/>
<polygon fill="midnightblue" stroke="midnightblue" points="1874.31,-820.325 1884.38,-817.047 1874.46,-813.327 1874.31,-820.325"/>
</g>
<!-- Node32 -->
<g id="node32" class="node"><title>Node32</title>
<g id="a_node32"><a xlink:href="../../d0/d8c/classparser_1_1_logo_parser_token_manager.html#aa9aaf3af52d382735345487d2b89e0cf" target="_top" xlink:title="parser.LogoParserTokenManager.jj\lMoveStringLiteralDfa4_0">
<polygon fill="white" stroke="black" points="1236.5,-716 1236.5,-746 1415.5,-746 1415.5,-716 1236.5,-716"/>
<text text-anchor="start" x="1244.5" y="-734" font-family="Helvetica,sans-Serif" font-size="10.00">parser.LogoParserTokenManager.jj</text>
<text text-anchor="middle" x="1326" y="-723" font-family="Helvetica,sans-Serif" font-size="10.00">MoveStringLiteralDfa4_0</text>
</a>
</g>
</g>
<!-- Node31&#45;&gt;Node32 -->
<g id="edge44" class="edge"><title>Node31&#45;&gt;Node32</title>
<path fill="none" stroke="midnightblue" d="M1157.7,-784.943C1190.27,-774.441 1233.91,-760.369 1268.46,-749.231"/>
<polygon fill="midnightblue" stroke="midnightblue" points="1269.96,-752.425 1278.4,-746.025 1267.81,-745.763 1269.96,-752.425"/>
</g>
<!-- Node32&#45;&gt;Node5 -->
<g id="edge46" class="edge"><title>Node32&#45;&gt;Node5</title>
<path fill="none" stroke="midnightblue" d="M1348.18,-715.825C1408.74,-673.975 1589.09,-560 1757,-560 1757,-560 1757,-560 1975,-560 2139.78,-560 2320.98,-658.81 2385,-697.096"/>
<polygon fill="midnightblue" stroke="midnightblue" points="2383.55,-700.308 2393.91,-702.492 2387.17,-694.319 2383.55,-700.308"/>
</g>
<!-- Node32&#45;&gt;Node19 -->
<g id="edge58" class="edge"><title>Node32&#45;&gt;Node19</title>
<path fill="none" stroke="midnightblue" d="M1370.57,-746.012C1394.54,-754.178 1424.84,-764.348 1452,-773 1617.34,-825.676 1813.65,-883.592 1911.36,-912.107"/>
<polygon fill="midnightblue" stroke="midnightblue" points="1910.49,-915.499 1921.07,-914.939 1912.45,-908.779 1910.49,-915.499"/>
</g>
<!-- Node32&#45;&gt;Node27 -->
<g id="edge47" class="edge"><title>Node32&#45;&gt;Node27</title>
<path fill="none" stroke="midnightblue" d="M1331.83,-715.968C1344.57,-679.121 1382.93,-584.508 1452,-546 1558.63,-486.546 1915.27,-499.014 2090.35,-509.249"/>
<polygon fill="midnightblue" stroke="midnightblue" points="2090.15,-512.743 2100.34,-509.842 2090.56,-505.755 2090.15,-512.743"/>
</g>
<!-- Node32&#45;&gt;Node29 -->
<g id="edge45" class="edge"><title>Node32&#45;&gt;Node29</title>
<path fill="none" stroke="midnightblue" d="M1415.81,-743.098C1535.93,-759.461 1749.51,-788.555 1874.46,-805.576"/>
<polygon fill="midnightblue" stroke="midnightblue" points="1874.03,-809.05 1884.41,-806.932 1874.97,-802.114 1874.03,-809.05"/>
</g>
<!-- Node33 -->
<g id="node33" class="node"><title>Node33</title>
<g id="a_node33"><a xlink:href="../../d0/d8c/classparser_1_1_logo_parser_token_manager.html#a4553920ced069b9d4852f1c1020bea38" target="_top" xlink:title="parser.LogoParserTokenManager.jj\lMoveStringLiteralDfa5_0">
<polygon fill="white" stroke="black" points="1452.5,-684 1452.5,-714 1631.5,-714 1631.5,-684 1452.5,-684"/>
<text text-anchor="start" x="1460.5" y="-702" font-family="Helvetica,sans-Serif" font-size="10.00">parser.LogoParserTokenManager.jj</text>
<text text-anchor="middle" x="1542" y="-691" font-family="Helvetica,sans-Serif" font-size="10.00">MoveStringLiteralDfa5_0</text>
</a>
</g>
</g>
<!-- Node32&#45;&gt;Node33 -->
<g id="edge48" class="edge"><title>Node32&#45;&gt;Node33</title>
<path fill="none" stroke="midnightblue" d="M1415.59,-717.753C1424.44,-716.429 1433.47,-715.079 1442.42,-713.741"/>
<polygon fill="midnightblue" stroke="midnightblue" points="1443.11,-717.177 1452.48,-712.237 1442.07,-710.254 1443.11,-717.177"/>
</g>
<!-- Node33&#45;&gt;Node5 -->
<g id="edge50" class="edge"><title>Node33&#45;&gt;Node5</title>
<path fill="none" stroke="midnightblue" d="M1576.69,-683.995C1601.41,-673.839 1636.08,-661.336 1668,-656 1926.1,-612.847 2240.4,-673.234 2359.8,-700.175"/>
<polygon fill="midnightblue" stroke="midnightblue" points="2359.21,-703.63 2369.74,-702.442 2360.76,-696.806 2359.21,-703.63"/>
</g>
<!-- Node33&#45;&gt;Node19 -->
<g id="edge57" class="edge"><title>Node33&#45;&gt;Node19</title>
<path fill="none" stroke="midnightblue" d="M1584.1,-714.011C1656.04,-740.585 1801.54,-795.763 1848,-824 1887.71,-848.137 1927.63,-884.621 1951.33,-907.873"/>
<polygon fill="midnightblue" stroke="midnightblue" points="1948.87,-910.363 1958.43,-914.925 1953.8,-905.395 1948.87,-910.363"/>
</g>
<!-- Node33&#45;&gt;Node27 -->
<g id="edge51" class="edge"><title>Node33&#45;&gt;Node27</title>
<path fill="none" stroke="midnightblue" d="M1562.62,-683.852C1586.3,-666.319 1627.94,-637.834 1668,-622 1743.56,-592.135 1961.56,-553.22 2090.38,-531.823"/>
<polygon fill="midnightblue" stroke="midnightblue" points="2090.97,-535.274 2100.26,-530.187 2089.82,-528.368 2090.97,-535.274"/>
</g>
<!-- Node33&#45;&gt;Node29 -->
<g id="edge49" class="edge"><title>Node33&#45;&gt;Node29</title>
<path fill="none" stroke="midnightblue" d="M1631.82,-704.863C1693.8,-710.964 1777.67,-723.286 1848,-748 1882.81,-760.233 1919.11,-782.017 1943.56,-798.24"/>
<polygon fill="midnightblue" stroke="midnightblue" points="1941.76,-801.248 1952.01,-803.937 1945.67,-795.444 1941.76,-801.248"/>
</g>
<!-- Node34 -->
<g id="node34" class="node"><title>Node34</title>
<g id="a_node34"><a xlink:href="../../d0/d8c/classparser_1_1_logo_parser_token_manager.html#a1bad232a9ce95d19e7133cbee0b538b5" target="_top" xlink:title="parser.LogoParserTokenManager.jj\lMoveStringLiteralDfa6_0">
<polygon fill="white" stroke="black" points="1668.5,-665 1668.5,-695 1847.5,-695 1847.5,-665 1668.5,-665"/>
<text text-anchor="start" x="1676.5" y="-683" font-family="Helvetica,sans-Serif" font-size="10.00">parser.LogoParserTokenManager.jj</text>
<text text-anchor="middle" x="1758" y="-672" font-family="Helvetica,sans-Serif" font-size="10.00">MoveStringLiteralDfa6_0</text>
</a>
</g>
</g>
<!-- Node33&#45;&gt;Node34 -->
<g id="edge52" class="edge"><title>Node33&#45;&gt;Node34</title>
<path fill="none" stroke="midnightblue" d="M1631.59,-691.135C1640.44,-690.349 1649.47,-689.547 1658.42,-688.752"/>
<polygon fill="midnightblue" stroke="midnightblue" points="1658.83,-692.23 1668.48,-687.859 1658.21,-685.257 1658.83,-692.23"/>
</g>
<!-- Node34&#45;&gt;Node5 -->
<g id="edge54" class="edge"><title>Node34&#45;&gt;Node5</title>
<path fill="none" stroke="midnightblue" d="M1847.68,-684.366C1967.16,-690.248 2179.41,-700.697 2305.88,-706.924"/>
<polygon fill="midnightblue" stroke="midnightblue" points="2305.81,-710.424 2315.97,-707.42 2306.15,-703.432 2305.81,-710.424"/>
</g>
<!-- Node34&#45;&gt;Node19 -->
<g id="edge56" class="edge"><title>Node34&#45;&gt;Node19</title>
<path fill="none" stroke="midnightblue" d="M1772.95,-695.267C1791.08,-715.401 1823.34,-752.237 1848,-786 1865.67,-810.195 1865.16,-819.702 1884,-843 1903.38,-866.962 1928.79,-891.228 1947.5,-908.022"/>
<polygon fill="midnightblue" stroke="midnightblue" points="1945.26,-910.72 1955.07,-914.74 1949.91,-905.484 1945.26,-910.72"/>
</g>
<!-- Node34&#45;&gt;Node27 -->
<g id="edge55" class="edge"><title>Node34&#45;&gt;Node27</title>
<path fill="none" stroke="midnightblue" d="M1847.73,-670.573C1910.42,-661.477 1995.19,-644.154 2064,-612 2103.87,-593.37 2142.97,-560.262 2166.54,-538.218"/>
<polygon fill="midnightblue" stroke="midnightblue" points="2169.09,-540.63 2173.92,-531.203 2164.26,-535.558 2169.09,-540.63"/>
</g>
<!-- Node34&#45;&gt;Node29 -->
<g id="edge53" class="edge"><title>Node34&#45;&gt;Node29</title>
<path fill="none" stroke="midnightblue" d="M1815.06,-695.157C1826.32,-699.225 1837.82,-704.155 1848,-710 1889.23,-733.671 1929.28,-772.156 1952.52,-796.496"/>
<polygon fill="midnightblue" stroke="midnightblue" points="1950.05,-798.98 1959.45,-803.864 1955.15,-794.183 1950.05,-798.98"/>
</g>
</g>
</svg>
