<?xml version="1.0" encoding="UTF-8" standalone="no"?>
<!DOCTYPE svg PUBLIC "-//W3C//DTD SVG 1.1//EN"
 "http://www.w3.org/Graphics/SVG/1.1/DTD/svg11.dtd">
<!-- Generated by graphviz version 2.36.0 (20140111.2315)
 -->
<!-- Title: parser.LogoParser.jj_consume_token Pages: 1 -->
<!--zoomable 246 -->
<svg id="main" version="1.1" xmlns="http://www.w3.org/2000/svg" xmlns:xlink="http://www.w3.org/1999/xlink" xml:space="preserve" onload="init(evt)">
<style type="text/css"><![CDATA[
.edge:hover path { stroke: red; }
.edge:hover polygon { stroke: red; fill: red; }
]]></style>
<script type="text/javascript"><![CDATA[
var edges = document.getElementsByTagName('g');
if (edges && edges.length) {
  for (var i=0;i<edges.length;i++) {
    if (edges[i].id.substr(0,4)=='edge') {
      edges[i].setAttribute('class','edge');
    }
  }
}
]]></script>
        <defs>
                <circle id="rim" cx="0" cy="0" r="7"/>
                <circle id="rim2" cx="0" cy="0" r="3.5"/>
                <g id="zoomPlus">
                        <use xlink:href="#rim" fill="#404040">
                                <set attributeName="fill" to="#808080" begin="zoomplus.mouseover" end="zoomplus.mouseout"/>
                        </use>
                        <path d="M-4,0h8M0,-4v8" fill="none" stroke="white" stroke-width="1.5" pointer-events="none"/>
                </g>
                <g id="zoomMin">
                        <use xlink:href="#rim" fill="#404040">
                                <set attributeName="fill" to="#808080" begin="zoomminus.mouseover" end="zoomminus.mouseout"/>
                        </use>
                        <path d="M-4,0h8" fill="none" stroke="white" stroke-width="1.5" pointer-events="none"/>
                </g>
                <g id="dirArrow">
                        <path fill="none" stroke="white" stroke-width="1.5" d="M0,-3.0v7 M-2.5,-0.5L0,-3.0L2.5,-0.5"/>
                </g>
               <g id="resetDef">
                       <use xlink:href="#rim2" fill="#404040">
                               <set attributeName="fill" to="#808080" begin="reset.mouseover" end="reset.mouseout"/>
                       </use>
               </g>
        </defs>

<script type="text/javascript">
var viewWidth = 2326;
var viewHeight = 246;
var sectionId = 'dynsection-11';
</script>
<script xlink:href="../../svgpan.js"/>
<svg id="graph" class="graph">
<g id="viewport">
<title>parser.LogoParser.jj_consume_token</title>
<polygon fill="white" stroke="none" points="-4,4 -4,-242 2322,-242 2322,4 -4,4"/>
<!-- Node1 -->
<g id="node1" class="node"><title>Node1</title>
<polygon fill="#bfbfbf" stroke="black" points="0,-109 0,-139 110,-139 110,-109 0,-109"/>
<text text-anchor="start" x="8" y="-127" font-family="Helvetica,sans-Serif" font-size="10.00">parser.LogoParser.jj</text>
<text text-anchor="middle" x="55" y="-116" font-family="Helvetica,sans-Serif" font-size="10.00">_consume_token</text>
</g>
<!-- Node2 -->
<g id="node2" class="node"><title>Node2</title>
<g id="a_node2"><a xlink:href="../../d5/d0e/classparser_1_1_logo_parser.html#a82acce8328e52f3b2bcb90542cc800b7" target="_top" xlink:title="parser.LogoParser.arithm">
<polygon fill="white" stroke="black" points="470.5,-133.5 470.5,-152.5 607.5,-152.5 607.5,-133.5 470.5,-133.5"/>
<text text-anchor="middle" x="539" y="-140.5" font-family="Helvetica,sans-Serif" font-size="10.00">parser.LogoParser.arithm</text>
</a>
</g>
</g>
<!-- Node1&#45;&gt;Node2 -->
<g id="edge1" class="edge"><title>Node1&#45;&gt;Node2</title>
<path fill="none" stroke="midnightblue" d="M120.191,-134.971C128.846,-136.161 137.626,-137.221 146,-138 259.343,-148.546 391.904,-147.446 470.194,-145.416"/>
<polygon fill="midnightblue" stroke="midnightblue" points="120.517,-131.482 110.12,-133.523 119.521,-138.411 120.517,-131.482"/>
</g>
<!-- Node3 -->
<g id="node3" class="node"><title>Node3</title>
<g id="a_node3"><a xlink:href="../../d5/d0e/classparser_1_1_logo_parser.html#a397c25c39976e5a1fb689e1f0dd40160" target="_top" xlink:title="parser.LogoParser.eval">
<polygon fill="white" stroke="black" points="644.5,-133.5 644.5,-152.5 769.5,-152.5 769.5,-133.5 644.5,-133.5"/>
<text text-anchor="middle" x="707" y="-140.5" font-family="Helvetica,sans-Serif" font-size="10.00">parser.LogoParser.eval</text>
</a>
</g>
</g>
<!-- Node1&#45;&gt;Node3 -->
<g id="edge17" class="edge"><title>Node1&#45;&gt;Node3</title>
<path fill="none" stroke="midnightblue" d="M99.9908,-142.712C114.392,-148.002 130.641,-153.103 146,-156 347.792,-194.062 403.59,-181.632 608,-162 627.321,-160.144 648.494,-156.276 666.201,-152.51"/>
<polygon fill="midnightblue" stroke="midnightblue" points="100.94,-139.328 90.3493,-139.044 98.4515,-145.871 100.94,-139.328"/>
</g>
<!-- Node4 -->
<g id="node4" class="node"><title>Node4</title>
<g id="a_node4"><a xlink:href="../../d5/d0e/classparser_1_1_logo_parser.html#a6b0ba0c2b5b0bc8c2ef76863fffdb6a3" target="_top" xlink:title="parser.LogoParser.list">
<polygon fill="white" stroke="black" points="998.5,-61.5 998.5,-80.5 1117.5,-80.5 1117.5,-61.5 998.5,-61.5"/>
<text text-anchor="middle" x="1058" y="-68.5" font-family="Helvetica,sans-Serif" font-size="10.00">parser.LogoParser.list</text>
</a>
</g>
</g>
<!-- Node1&#45;&gt;Node4 -->
<g id="edge19" class="edge"><title>Node1&#45;&gt;Node4</title>
<path fill="none" stroke="midnightblue" d="M82.2798,-102.561C99.361,-89.8924 122.715,-74.8402 146,-67 240.27,-35.2588 269.53,-48 369,-48 369,-48 369,-48 708,-48 810.316,-48 929.14,-57.9643 998.415,-64.7759"/>
<polygon fill="midnightblue" stroke="midnightblue" points="79.7779,-100.067 73.9528,-108.917 84.0253,-105.631 79.7779,-100.067"/>
</g>
<!-- Node14 -->
<g id="node14" class="node"><title>Node14</title>
<g id="a_node14"><a xlink:href="../../d5/d0e/classparser_1_1_logo_parser.html#a4a8825534e0488215d22bcd947bc4d41" target="_top" xlink:title="parser.LogoParser.expression">
<polygon fill="white" stroke="black" points="1154.5,-0.5 1154.5,-19.5 1311.5,-19.5 1311.5,-0.5 1154.5,-0.5"/>
<text text-anchor="middle" x="1233" y="-7.5" font-family="Helvetica,sans-Serif" font-size="10.00">parser.LogoParser.expression</text>
</a>
</g>
</g>
<!-- Node1&#45;&gt;Node14 -->
<g id="edge18" class="edge"><title>Node1&#45;&gt;Node14</title>
<path fill="none" stroke="midnightblue" d="M74.0227,-101.277C90.5744,-82.1312 116.893,-55.7288 146,-42 236.559,0.713192 268.874,-10 369,-10 369,-10 369,-10 885,-10 977.624,-10 1084.15,-10 1154.48,-10"/>
<polygon fill="midnightblue" stroke="midnightblue" points="71.3031,-99.0726 67.5474,-108.979 76.6614,-103.577 71.3031,-99.0726"/>
</g>
<!-- Node15 -->
<g id="node15" class="node"><title>Node15</title>
<g id="a_node15"><a xlink:href="../../d5/d0e/classparser_1_1_logo_parser.html#ad6ed8e51959a6e19a2323444aa8331c8" target="_top" xlink:title="parser.LogoParser.statement">
<polygon fill="white" stroke="black" points="806.5,-133.5 806.5,-152.5 961.5,-152.5 961.5,-133.5 806.5,-133.5"/>
<text text-anchor="middle" x="884" y="-140.5" font-family="Helvetica,sans-Serif" font-size="10.00">parser.LogoParser.statement</text>
</a>
</g>
</g>
<!-- Node1&#45;&gt;Node15 -->
<g id="edge23" class="edge"><title>Node1&#45;&gt;Node15</title>
<path fill="none" stroke="midnightblue" d="M84.5318,-144.87C101.649,-156.579 124.256,-170.665 146,-180 240.103,-220.4 266.591,-238 369,-238 369,-238 369,-238 540,-238 666.979,-238 811.121,-176.784 863.047,-152.632"/>
<polygon fill="midnightblue" stroke="midnightblue" points="86.3196,-141.85 76.1148,-139.002 82.3161,-147.592 86.3196,-141.85"/>
</g>
<!-- Node16 -->
<g id="node16" class="node"><title>Node16</title>
<g id="a_node16"><a xlink:href="../../d5/d0e/classparser_1_1_logo_parser.html#a4bdaeff6df067fde6743ff07370c3b0b" target="_top" xlink:title="parser.LogoParser.pow">
<polygon fill="white" stroke="black" points="146,-76.5 146,-95.5 270,-95.5 270,-76.5 146,-76.5"/>
<text text-anchor="middle" x="208" y="-83.5" font-family="Helvetica,sans-Serif" font-size="10.00">parser.LogoParser.pow</text>
</a>
</g>
</g>
<!-- Node1&#45;&gt;Node16 -->
<g id="edge20" class="edge"><title>Node1&#45;&gt;Node16</title>
<path fill="none" stroke="midnightblue" d="M119.809,-107.942C136.517,-103.737 154.008,-99.3357 168.901,-95.5879"/>
<polygon fill="midnightblue" stroke="midnightblue" points="118.931,-104.554 110.088,-110.388 120.64,-111.342 118.931,-104.554"/>
</g>
<!-- Node17 -->
<g id="node17" class="node"><title>Node17</title>
<g id="a_node17"><a xlink:href="../../d5/d0e/classparser_1_1_logo_parser.html#a34f4226672a2711ce2691162fdb2124d" target="_top" xlink:title="parser.LogoParser.term">
<polygon fill="white" stroke="black" points="306,-114.5 306,-133.5 434,-133.5 434,-114.5 306,-114.5"/>
<text text-anchor="middle" x="370" y="-121.5" font-family="Helvetica,sans-Serif" font-size="10.00">parser.LogoParser.term</text>
</a>
</g>
</g>
<!-- Node1&#45;&gt;Node17 -->
<g id="edge24" class="edge"><title>Node1&#45;&gt;Node17</title>
<path fill="none" stroke="midnightblue" d="M120.358,-124C174.631,-124 251.865,-124 305.806,-124"/>
<polygon fill="midnightblue" stroke="midnightblue" points="120.163,-120.5 110.163,-124 120.163,-127.5 120.163,-120.5"/>
</g>
<!-- Node2&#45;&gt;Node3 -->
<g id="edge2" class="edge"><title>Node2&#45;&gt;Node3</title>
<path fill="none" stroke="midnightblue" d="M617.614,-143C626.607,-143 635.686,-143 644.424,-143"/>
<polygon fill="midnightblue" stroke="midnightblue" points="617.519,-139.5 607.519,-143 617.519,-146.5 617.519,-139.5"/>
</g>
<!-- Node3&#45;&gt;Node4 -->
<g id="edge3" class="edge"><title>Node3&#45;&gt;Node4</title>
<path fill="none" stroke="midnightblue" d="M764.523,-131.339C833.043,-117.203 947.208,-93.6505 1010.74,-80.5432"/>
<polygon fill="midnightblue" stroke="midnightblue" points="763.431,-127.991 754.345,-133.439 764.845,-134.846 763.431,-127.991"/>
</g>
<!-- Node3&#45;&gt;Node15 -->
<g id="edge15" class="edge"><title>Node3&#45;&gt;Node15</title>
<path fill="none" stroke="midnightblue" d="M779.804,-143C788.514,-143 797.44,-143 806.219,-143"/>
<polygon fill="midnightblue" stroke="midnightblue" points="779.698,-139.5 769.698,-143 779.698,-146.5 779.698,-139.5"/>
</g>
<!-- Node5 -->
<g id="node5" class="node"><title>Node5</title>
<g id="a_node5"><a xlink:href="../../d5/d0e/classparser_1_1_logo_parser.html#adefe3b97ad0d2d7fd0dcd13f7ef2c75e" target="_top" xlink:title="parser.LogoParser.parse">
<polygon fill="white" stroke="black" points="1167,-61.5 1167,-80.5 1299,-80.5 1299,-61.5 1167,-61.5"/>
<text text-anchor="middle" x="1233" y="-68.5" font-family="Helvetica,sans-Serif" font-size="10.00">parser.LogoParser.parse</text>
</a>
</g>
</g>
<!-- Node4&#45;&gt;Node5 -->
<g id="edge4" class="edge"><title>Node4&#45;&gt;Node5</title>
<path fill="none" stroke="midnightblue" d="M1127.78,-71C1140.7,-71 1154.16,-71 1166.95,-71"/>
<polygon fill="midnightblue" stroke="midnightblue" points="1127.57,-67.5001 1117.57,-71 1127.57,-74.5001 1127.57,-67.5001"/>
</g>
<!-- Node4&#45;&gt;Node14 -->
<g id="edge14" class="edge"><title>Node4&#45;&gt;Node14</title>
<path fill="none" stroke="midnightblue" d="M1095.68,-58.067C1128.37,-46.5398 1175.47,-29.9334 1204.87,-19.5648"/>
<polygon fill="midnightblue" stroke="midnightblue" points="1094.3,-54.8425 1086.03,-61.4688 1096.63,-61.4442 1094.3,-54.8425"/>
</g>
<!-- Node6 -->
<g id="node6" class="node"><title>Node6</title>
<g id="a_node6"><a xlink:href="../../d6/d95/classparser_1_1_parser.html#af3d0cef45b9f02f1707959c08d8f3797" target="_top" xlink:title="parser.Parser.parse">
<polygon fill="white" stroke="black" points="1348.5,-61.5 1348.5,-80.5 1457.5,-80.5 1457.5,-61.5 1348.5,-61.5"/>
<text text-anchor="middle" x="1403" y="-68.5" font-family="Helvetica,sans-Serif" font-size="10.00">parser.Parser.parse</text>
</a>
</g>
</g>
<!-- Node5&#45;&gt;Node6 -->
<g id="edge5" class="edge"><title>Node5&#45;&gt;Node6</title>
<path fill="none" stroke="midnightblue" d="M1309.8,-71C1322.83,-71 1336.12,-71 1348.41,-71"/>
<polygon fill="midnightblue" stroke="midnightblue" points="1309.43,-67.5001 1299.43,-71 1309.43,-74.5001 1309.43,-67.5001"/>
</g>
<!-- Node7 -->
<g id="node7" class="node"><title>Node7</title>
<g id="a_node7"><a xlink:href="../../d4/d06/classinput_1_1_input_executor.html#a687a9f2cbed5d27a2c7b1336a1cab8aa" target="_top" xlink:title="input.InputExecutor.process\lInput">
<polygon fill="white" stroke="black" points="1494.5,-100 1494.5,-130 1643.5,-130 1643.5,-100 1494.5,-100"/>
<text text-anchor="start" x="1502.5" y="-118" font-family="Helvetica,sans-Serif" font-size="10.00">input.InputExecutor.process</text>
<text text-anchor="middle" x="1569" y="-107" font-family="Helvetica,sans-Serif" font-size="10.00">Input</text>
</a>
</g>
</g>
<!-- Node6&#45;&gt;Node7 -->
<g id="edge6" class="edge"><title>Node6&#45;&gt;Node7</title>
<path fill="none" stroke="midnightblue" d="M1449.36,-83.1687C1468.7,-88.3574 1491.46,-94.4646 1511.85,-99.9346"/>
<polygon fill="midnightblue" stroke="midnightblue" points="1450.15,-79.7583 1439.59,-80.5473 1448.34,-86.5192 1450.15,-79.7583"/>
</g>
<!-- Node8 -->
<g id="node8" class="node"><title>Node8</title>
<g id="a_node8"><a xlink:href="../../d6/d95/classparser_1_1_parser.html#ae90f8410be9931ec3f349085c8fdae71" target="_top" xlink:title="parser.Parser.parseFile">
<polygon fill="white" stroke="black" points="1507,-61.5 1507,-80.5 1631,-80.5 1631,-61.5 1507,-61.5"/>
<text text-anchor="middle" x="1569" y="-68.5" font-family="Helvetica,sans-Serif" font-size="10.00">parser.Parser.parseFile</text>
</a>
</g>
</g>
<!-- Node6&#45;&gt;Node8 -->
<g id="edge7" class="edge"><title>Node6&#45;&gt;Node8</title>
<path fill="none" stroke="midnightblue" d="M1467.82,-71C1480.63,-71 1494.06,-71 1506.79,-71"/>
<polygon fill="midnightblue" stroke="midnightblue" points="1467.7,-67.5001 1457.7,-71 1467.7,-74.5001 1467.7,-67.5001"/>
</g>
<!-- Node13 -->
<g id="node13" class="node"><title>Node13</title>
<g id="a_node13"><a xlink:href="../../d5/d56/class_workspace.html#a0ed8fb487512971086b6f3ed0d74e4ae" target="_top" xlink:title="Workspace.sendUserInput">
<polygon fill="white" stroke="black" points="1685,-19.5 1685,-38.5 1825,-38.5 1825,-19.5 1685,-19.5"/>
<text text-anchor="middle" x="1755" y="-26.5" font-family="Helvetica,sans-Serif" font-size="10.00">Workspace.sendUserInput</text>
</a>
</g>
</g>
<!-- Node6&#45;&gt;Node13 -->
<g id="edge12" class="edge"><title>Node6&#45;&gt;Node13</title>
<path fill="none" stroke="midnightblue" d="M1454.23,-59.2843C1467.14,-56.5809 1481.04,-53.9343 1494,-52 1558.31,-42.4018 1632.22,-36.3372 1684.76,-32.8606"/>
<polygon fill="midnightblue" stroke="midnightblue" points="1453.18,-55.9313 1444.14,-61.4521 1454.65,-62.7754 1453.18,-55.9313"/>
</g>
<!-- Node9 -->
<g id="node9" class="node"><title>Node9</title>
<g id="a_node9"><a xlink:href="../../d9/de8/class_file_chooser_feature.html#ad742b8e9d07e8151f0a9ff1972867ce8" target="_top" xlink:title="FileChooserFeature.openFile\lChooser">
<polygon fill="white" stroke="black" points="1680.5,-58 1680.5,-88 1829.5,-88 1829.5,-58 1680.5,-58"/>
<text text-anchor="start" x="1688.5" y="-76" font-family="Helvetica,sans-Serif" font-size="10.00">FileChooserFeature.openFile</text>
<text text-anchor="middle" x="1755" y="-65" font-family="Helvetica,sans-Serif" font-size="10.00">Chooser</text>
</a>
</g>
</g>
<!-- Node8&#45;&gt;Node9 -->
<g id="edge8" class="edge"><title>Node8&#45;&gt;Node9</title>
<path fill="none" stroke="midnightblue" d="M1641.17,-71.7736C1654.02,-71.9133 1667.44,-72.0591 1680.35,-72.1995"/>
<polygon fill="midnightblue" stroke="midnightblue" points="1641.05,-68.2722 1631.01,-71.6632 1640.98,-75.2718 1641.05,-68.2722"/>
</g>
<!-- Node10 -->
<g id="node10" class="node"><title>Node10</title>
<g id="a_node10"><a xlink:href="../../d5/d56/class_workspace.html#a6babd032d9af86fbc23812272d59a2d2" target="_top" xlink:title="Workspace.addFeatureButtons">
<polygon fill="white" stroke="black" points="1866,-61.5 1866,-80.5 2028,-80.5 2028,-61.5 1866,-61.5"/>
<text text-anchor="middle" x="1947" y="-68.5" font-family="Helvetica,sans-Serif" font-size="10.00">Workspace.addFeatureButtons</text>
</a>
</g>
</g>
<!-- Node9&#45;&gt;Node10 -->
<g id="edge9" class="edge"><title>Node9&#45;&gt;Node10</title>
<path fill="none" stroke="midnightblue" d="M1839.77,-72.1182C1848.38,-72.0276 1857.12,-71.9356 1865.7,-71.8453"/>
<polygon fill="midnightblue" stroke="midnightblue" points="1839.69,-68.6187 1829.73,-72.2239 1839.77,-75.6183 1839.69,-68.6187"/>
</g>
<!-- Node11 -->
<g id="node11" class="node"><title>Node11</title>
<g id="a_node11"><a xlink:href="../../d5/d56/class_workspace.html#a429d535dfd8427637b7715f0b1e1df1b" target="_top" xlink:title="Workspace.createWorkspace">
<polygon fill="white" stroke="black" points="2064,-41.5 2064,-60.5 2216,-60.5 2216,-41.5 2064,-41.5"/>
<text text-anchor="middle" x="2140" y="-48.5" font-family="Helvetica,sans-Serif" font-size="10.00">Workspace.createWorkspace</text>
</a>
</g>
</g>
<!-- Node10&#45;&gt;Node11 -->
<g id="edge10" class="edge"><title>Node10&#45;&gt;Node11</title>
<path fill="none" stroke="midnightblue" d="M2038.22,-61.5526C2046.82,-60.6521 2055.48,-59.7457 2063.91,-58.8626"/>
<polygon fill="midnightblue" stroke="midnightblue" points="2037.75,-58.0826 2028.17,-62.6051 2038.48,-65.0446 2037.75,-58.0826"/>
</g>
<!-- Node12 -->
<g id="node12" class="node"><title>Node12</title>
<g id="a_node12"><a xlink:href="../../d0/d4b/class_main.html#aaa75b38812324d0f17c89f139bde6ada" target="_top" xlink:title="Main.start">
<polygon fill="white" stroke="black" points="2252.5,-41.5 2252.5,-60.5 2317.5,-60.5 2317.5,-41.5 2252.5,-41.5"/>
<text text-anchor="middle" x="2285" y="-48.5" font-family="Helvetica,sans-Serif" font-size="10.00">Main.start</text>
</a>
</g>
</g>
<!-- Node11&#45;&gt;Node12 -->
<g id="edge11" class="edge"><title>Node11&#45;&gt;Node12</title>
<path fill="none" stroke="midnightblue" d="M2226.39,-51C2235.63,-51 2244.55,-51 2252.5,-51"/>
<polygon fill="midnightblue" stroke="midnightblue" points="2226.27,-47.5001 2216.27,-51 2226.27,-54.5001 2226.27,-47.5001"/>
</g>
<!-- Node13&#45;&gt;Node11 -->
<g id="edge13" class="edge"><title>Node13&#45;&gt;Node11</title>
<path fill="none" stroke="midnightblue" d="M1835.47,-33.5646C1902.6,-37.4211 1998.08,-42.9052 2063.94,-46.6882"/>
<polygon fill="midnightblue" stroke="midnightblue" points="1835.54,-30.0634 1825.36,-32.984 1835.14,-37.0518 1835.54,-30.0634"/>
</g>
<!-- Node15&#45;&gt;Node4 -->
<g id="edge16" class="edge"><title>Node15&#45;&gt;Node4</title>
<path fill="none" stroke="midnightblue" d="M917.333,-129.465C951.365,-115.219 1004.08,-93.1543 1034.07,-80.6006"/>
<polygon fill="midnightblue" stroke="midnightblue" points="915.713,-126.349 907.84,-133.439 918.416,-132.806 915.713,-126.349"/>
</g>
<!-- Node16&#45;&gt;Node17 -->
<g id="edge21" class="edge"><title>Node16&#45;&gt;Node17</title>
<path fill="none" stroke="midnightblue" d="M259.392,-97.968C281.813,-103.293 307.847,-109.476 328.916,-114.48"/>
<polygon fill="midnightblue" stroke="midnightblue" points="259.913,-94.4945 249.375,-95.589 258.295,-101.305 259.913,-94.4945"/>
</g>
<!-- Node17&#45;&gt;Node2 -->
<g id="edge22" class="edge"><title>Node17&#45;&gt;Node2</title>
<path fill="none" stroke="midnightblue" d="M444.226,-132.331C452.9,-133.318 461.723,-134.322 470.315,-135.299"/>
<polygon fill="midnightblue" stroke="midnightblue" points="444.467,-128.836 434.136,-131.183 443.676,-135.791 444.467,-128.836"/>
</g>
</g>
</svg>
        <g id="navigator" transform="translate(0 0)" fill="#404254">
                <rect fill="#f2f5e9" fill-opacity="0.5" stroke="#606060" stroke-width=".5" x="0" y="0" width="60" height="60"/>
                <use id="zoomplus" xlink:href="#zoomPlus" x="17" y="9" onmousedown="handleZoom(evt,'in')"/>
                <use id="zoomminus" xlink:href="#zoomMin" x="42" y="9" onmousedown="handleZoom(evt,'out')"/>
                <use id="reset" xlink:href="#resetDef" x="30" y="36" onmousedown="handleReset()"/>
                <g id="arrowUp" xlink:href="#dirArrow" transform="translate(30 24)" onmousedown="handlePan(0,-1)">
                  <use xlink:href="#rim" fill="#404040">
                        <set attributeName="fill" to="#808080" begin="arrowUp.mouseover" end="arrowUp.mouseout"/>
                  </use>
                  <path fill="none" stroke="white" stroke-width="1.5" d="M0,-3.0v7 M-2.5,-0.5L0,-3.0L2.5,-0.5"/>
                </g>
                <g id="arrowRight" xlink:href="#dirArrow" transform="rotate(90) translate(36 -43)" onmousedown="handlePan(1,0)">
                  <use xlink:href="#rim" fill="#404040">
                        <set attributeName="fill" to="#808080" begin="arrowRight.mouseover" end="arrowRight.mouseout"/>
                  </use>
                  <path fill="none" stroke="white" stroke-width="1.5" d="M0,-3.0v7 M-2.5,-0.5L0,-3.0L2.5,-0.5"/>
                </g>
                <g id="arrowDown" xlink:href="#dirArrow" transform="rotate(180) translate(-30 -48)" onmousedown="handlePan(0,1)">
                  <use xlink:href="#rim" fill="#404040">
                        <set attributeName="fill" to="#808080" begin="arrowDown.mouseover" end="arrowDown.mouseout"/>
                  </use>
                  <path fill="none" stroke="white" stroke-width="1.5" d="M0,-3.0v7 M-2.5,-0.5L0,-3.0L2.5,-0.5"/>
                </g>
                <g id="arrowLeft" xlink:href="#dirArrow" transform="rotate(270) translate(-36 17)" onmousedown="handlePan(-1,0)">
                  <use xlink:href="#rim" fill="#404040">
                        <set attributeName="fill" to="#808080" begin="arrowLeft.mouseover" end="arrowLeft.mouseout"/>
                  </use>
                  <path fill="none" stroke="white" stroke-width="1.5" d="M0,-3.0v7 M-2.5,-0.5L0,-3.0L2.5,-0.5"/>
                </g>
        </g>
        <svg viewBox="0 0 15 15" width="100%" height="30px" preserveAspectRatio="xMaxYMin meet">
         <g id="arrow_out" transform="scale(0.3 0.3)">
          <a xlink:href="classparser_1_1_logo_parser_a550039a3180ec86ef01f419aefc02edc_icgraph_org.svg" target="_base">
           <rect id="button" ry="5" rx="5" y="6" x="6" height="38" width="38"
                fill="#f2f5e9" fill-opacity="0.5" stroke="#606060" stroke-width="1.0"/>
           <path id="arrow"
             d="M 11.500037,31.436501 C 11.940474,20.09759 22.043105,11.32322 32.158766,21.979434 L 37.068811,17.246167 C 37.068811,17.246167 37.088388,32 37.088388,32 L 22.160133,31.978069 C 22.160133,31.978069 26.997745,27.140456 26.997745,27.140456 C 18.528582,18.264221 13.291696,25.230495 11.500037,31.436501 z"
             style="fill:#404040;"/>
          </a>
         </g>
        </svg>
</svg>
