<?xml version="1.0" encoding="UTF-8" standalone="no"?>
<!DOCTYPE svg PUBLIC "-//W3C//DTD SVG 1.1//EN"
 "http://www.w3.org/Graphics/SVG/1.1/DTD/svg11.dtd">
<!-- Generated by graphviz version 2.36.0 (20140111.2315)
 -->
<!-- Title: parser.LogoParser.generateParseException Pages: 1 -->
<!--zoomable 246 -->
<svg id="main" version="1.1" xmlns="http://www.w3.org/2000/svg" xmlns:xlink="http://www.w3.org/1999/xlink" xml:space="preserve" onload="init(evt)">
<style type="text/css"><![CDATA[
.edge:hover path { stroke: red; }
.edge:hover polygon { stroke: red; fill: red; }
]]></style>
<script type="text/javascript"><![CDATA[
var edges = document.getElementsByTagName('g');
if (edges && edges.length) {
  for (var i=0;i<edges.length;i++) {
    if (edges[i].id.substr(0,4)=='edge') {
      edges[i].setAttribute('class','edge');
    }
  }
}
]]></script>
        <defs>
                <circle id="rim" cx="0" cy="0" r="7"/>
                <circle id="rim2" cx="0" cy="0" r="3.5"/>
                <g id="zoomPlus">
                        <use xlink:href="#rim" fill="#404040">
                                <set attributeName="fill" to="#808080" begin="zoomplus.mouseover" end="zoomplus.mouseout"/>
                        </use>
                        <path d="M-4,0h8M0,-4v8" fill="none" stroke="white" stroke-width="1.5" pointer-events="none"/>
                </g>
                <g id="zoomMin">
                        <use xlink:href="#rim" fill="#404040">
                                <set attributeName="fill" to="#808080" begin="zoomminus.mouseover" end="zoomminus.mouseout"/>
                        </use>
                        <path d="M-4,0h8" fill="none" stroke="white" stroke-width="1.5" pointer-events="none"/>
                </g>
                <g id="dirArrow">
                        <path fill="none" stroke="white" stroke-width="1.5" d="M0,-3.0v7 M-2.5,-0.5L0,-3.0L2.5,-0.5"/>
                </g>
               <g id="resetDef">
                       <use xlink:href="#rim2" fill="#404040">
                               <set attributeName="fill" to="#808080" begin="reset.mouseover" end="reset.mouseout"/>
                       </use>
               </g>
        </defs>

<script type="text/javascript">
var viewWidth = 2512;
var viewHeight = 246;
var sectionId = 'dynsection-7';
</script>
<script xlink:href="../../svgpan.js"/>
<svg id="graph" class="graph">
<g id="viewport">
<title>parser.LogoParser.generateParseException</title>
<polygon fill="white" stroke="none" points="-4,4 -4,-242 2508,-242 2508,4 -4,4"/>
<!-- Node1 -->
<g id="node1" class="node"><title>Node1</title>
<polygon fill="#bfbfbf" stroke="black" points="0.5,-109 0.5,-139 149.5,-139 149.5,-109 0.5,-109"/>
<text text-anchor="start" x="8.5" y="-127" font-family="Helvetica,sans-Serif" font-size="10.00">parser.LogoParser.generate</text>
<text text-anchor="middle" x="75" y="-116" font-family="Helvetica,sans-Serif" font-size="10.00">ParseException</text>
</g>
<!-- Node2 -->
<g id="node2" class="node"><title>Node2</title>
<g id="a_node2"><a xlink:href="../../d5/d0e/classparser_1_1_logo_parser.html#a550039a3180ec86ef01f419aefc02edc" target="_top" xlink:title="parser.LogoParser.jj\l_consume_token">
<polygon fill="white" stroke="black" points="186,-109 186,-139 296,-139 296,-109 186,-109"/>
<text text-anchor="start" x="194" y="-127" font-family="Helvetica,sans-Serif" font-size="10.00">parser.LogoParser.jj</text>
<text text-anchor="middle" x="241" y="-116" font-family="Helvetica,sans-Serif" font-size="10.00">_consume_token</text>
</a>
</g>
</g>
<!-- Node1&#45;&gt;Node2 -->
<g id="edge1" class="edge"><title>Node1&#45;&gt;Node2</title>
<path fill="none" stroke="midnightblue" d="M160.063,-124C168.777,-124 177.459,-124 185.716,-124"/>
<polygon fill="midnightblue" stroke="midnightblue" points="159.844,-120.5 149.844,-124 159.844,-127.5 159.844,-120.5"/>
</g>
<!-- Node3 -->
<g id="node3" class="node"><title>Node3</title>
<g id="a_node3"><a xlink:href="../../d5/d0e/classparser_1_1_logo_parser.html#a4a8825534e0488215d22bcd947bc4d41" target="_top" xlink:title="parser.LogoParser.expression">
<polygon fill="white" stroke="black" points="1340.5,-218.5 1340.5,-237.5 1497.5,-237.5 1497.5,-218.5 1340.5,-218.5"/>
<text text-anchor="middle" x="1419" y="-225.5" font-family="Helvetica,sans-Serif" font-size="10.00">parser.LogoParser.expression</text>
</a>
</g>
</g>
<!-- Node2&#45;&gt;Node3 -->
<g id="edge2" class="edge"><title>Node2&#45;&gt;Node3</title>
<path fill="none" stroke="midnightblue" d="M264.042,-145.981C281.151,-161.763 306.231,-182.246 332,-194 423.913,-235.922 453.978,-238 555,-238 555,-238 555,-238 1071,-238 1163.66,-238 1270.19,-234.393 1340.5,-231.512"/>
<polygon fill="midnightblue" stroke="midnightblue" points="266.44,-143.432 256.767,-139.109 261.633,-148.52 266.44,-143.432"/>
</g>
<!-- Node4 -->
<g id="node4" class="node"><title>Node4</title>
<g id="a_node4"><a xlink:href="../../d5/d0e/classparser_1_1_logo_parser.html#a6b0ba0c2b5b0bc8c2ef76863fffdb6a3" target="_top" xlink:title="parser.LogoParser.list">
<polygon fill="white" stroke="black" points="1184.5,-161.5 1184.5,-180.5 1303.5,-180.5 1303.5,-161.5 1184.5,-161.5"/>
<text text-anchor="middle" x="1244" y="-168.5" font-family="Helvetica,sans-Serif" font-size="10.00">parser.LogoParser.list</text>
</a>
</g>
</g>
<!-- Node2&#45;&gt;Node4 -->
<g id="edge3" class="edge"><title>Node2&#45;&gt;Node4</title>
<path fill="none" stroke="midnightblue" d="M280.229,-143.612C295.924,-150.965 314.492,-158.792 332,-164 428.227,-192.625 454.606,-200 555,-200 555,-200 555,-200 894,-200 996.446,-200 1115.23,-187.436 1184.46,-178.848"/>
<polygon fill="midnightblue" stroke="midnightblue" points="281.394,-140.289 270.863,-139.122 278.368,-146.601 281.394,-140.289"/>
</g>
<!-- Node14 -->
<g id="node14" class="node"><title>Node14</title>
<g id="a_node14"><a xlink:href="../../d5/d0e/classparser_1_1_logo_parser.html#ad6ed8e51959a6e19a2323444aa8331c8" target="_top" xlink:title="parser.LogoParser.statement">
<polygon fill="white" stroke="black" points="992.5,-152.5 992.5,-171.5 1147.5,-171.5 1147.5,-152.5 992.5,-152.5"/>
<text text-anchor="middle" x="1070" y="-159.5" font-family="Helvetica,sans-Serif" font-size="10.00">parser.LogoParser.statement</text>
</a>
</g>
</g>
<!-- Node2&#45;&gt;Node14 -->
<g id="edge15" class="edge"><title>Node2&#45;&gt;Node14</title>
<path fill="none" stroke="midnightblue" d="M306.233,-136.402C369.312,-147.49 468.406,-162 555,-162 555,-162 555,-162 726,-162 817.556,-162 922.859,-162 992.372,-162"/>
<polygon fill="midnightblue" stroke="midnightblue" points="306.501,-132.895 296.042,-134.585 305.272,-139.786 306.501,-132.895"/>
</g>
<!-- Node15 -->
<g id="node15" class="node"><title>Node15</title>
<g id="a_node15"><a xlink:href="../../d5/d0e/classparser_1_1_logo_parser.html#a397c25c39976e5a1fb689e1f0dd40160" target="_top" xlink:title="parser.LogoParser.eval">
<polygon fill="white" stroke="black" points="830.5,-114.5 830.5,-133.5 955.5,-133.5 955.5,-114.5 830.5,-114.5"/>
<text text-anchor="middle" x="893" y="-121.5" font-family="Helvetica,sans-Serif" font-size="10.00">parser.LogoParser.eval</text>
</a>
</g>
</g>
<!-- Node2&#45;&gt;Node15 -->
<g id="edge17" class="edge"><title>Node2&#45;&gt;Node15</title>
<path fill="none" stroke="midnightblue" d="M306.226,-124C431.509,-124 707.007,-124 830.268,-124"/>
<polygon fill="midnightblue" stroke="midnightblue" points="306.023,-120.5 296.023,-124 306.023,-127.5 306.023,-120.5"/>
</g>
<!-- Node16 -->
<g id="node16" class="node"><title>Node16</title>
<g id="a_node16"><a xlink:href="../../d5/d0e/classparser_1_1_logo_parser.html#a82acce8328e52f3b2bcb90542cc800b7" target="_top" xlink:title="parser.LogoParser.arithm">
<polygon fill="white" stroke="black" points="656.5,-76.5 656.5,-95.5 793.5,-95.5 793.5,-76.5 656.5,-76.5"/>
<text text-anchor="middle" x="725" y="-83.5" font-family="Helvetica,sans-Serif" font-size="10.00">parser.LogoParser.arithm</text>
</a>
</g>
</g>
<!-- Node2&#45;&gt;Node16 -->
<g id="edge20" class="edge"><title>Node2&#45;&gt;Node16</title>
<path fill="none" stroke="midnightblue" d="M306.215,-113.265C314.866,-112.037 323.638,-110.904 332,-110 445.375,-97.7383 577.926,-91.2543 656.205,-88.2324"/>
<polygon fill="midnightblue" stroke="midnightblue" points="305.533,-109.827 296.147,-114.741 306.549,-116.753 305.533,-109.827"/>
</g>
<!-- Node17 -->
<g id="node17" class="node"><title>Node17</title>
<g id="a_node17"><a xlink:href="../../d5/d0e/classparser_1_1_logo_parser.html#a34f4226672a2711ce2691162fdb2124d" target="_top" xlink:title="parser.LogoParser.term">
<polygon fill="white" stroke="black" points="492,-38.5 492,-57.5 620,-57.5 620,-38.5 492,-38.5"/>
<text text-anchor="middle" x="556" y="-45.5" font-family="Helvetica,sans-Serif" font-size="10.00">parser.LogoParser.term</text>
</a>
</g>
</g>
<!-- Node2&#45;&gt;Node17 -->
<g id="edge22" class="edge"><title>Node2&#45;&gt;Node17</title>
<path fill="none" stroke="midnightblue" d="M270.638,-103.307C287.636,-92.1147 310.088,-79.1538 332,-72 384.008,-55.0208 446.099,-49.4499 491.54,-47.8791"/>
<polygon fill="midnightblue" stroke="midnightblue" points="268.602,-100.458 262.278,-108.958 272.523,-106.257 268.602,-100.458"/>
</g>
<!-- Node18 -->
<g id="node18" class="node"><title>Node18</title>
<g id="a_node18"><a xlink:href="../../d5/d0e/classparser_1_1_logo_parser.html#a4bdaeff6df067fde6743ff07370c3b0b" target="_top" xlink:title="parser.LogoParser.pow">
<polygon fill="white" stroke="black" points="332,-0.5 332,-19.5 456,-19.5 456,-0.5 332,-0.5"/>
<text text-anchor="middle" x="394" y="-7.5" font-family="Helvetica,sans-Serif" font-size="10.00">parser.LogoParser.pow</text>
</a>
</g>
</g>
<!-- Node2&#45;&gt;Node18 -->
<g id="edge24" class="edge"><title>Node2&#45;&gt;Node18</title>
<path fill="none" stroke="midnightblue" d="M260.275,-100.988C277.123,-81.033 303.736,-52.5228 332,-34 341.043,-28.074 351.774,-23.2411 361.696,-19.5062"/>
<polygon fill="midnightblue" stroke="midnightblue" points="257.57,-98.766 253.888,-108.7 262.962,-103.231 257.57,-98.766"/>
</g>
<!-- Node4&#45;&gt;Node3 -->
<g id="edge14" class="edge"><title>Node4&#45;&gt;Node3</title>
<path fill="none" stroke="midnightblue" d="M1283.82,-183.792C1315.69,-194.29 1360.1,-208.923 1388.95,-218.428"/>
<polygon fill="midnightblue" stroke="midnightblue" points="1284.55,-180.346 1273.96,-180.541 1282.36,-186.994 1284.55,-180.346"/>
</g>
<!-- Node5 -->
<g id="node5" class="node"><title>Node5</title>
<g id="a_node5"><a xlink:href="../../d5/d0e/classparser_1_1_logo_parser.html#adefe3b97ad0d2d7fd0dcd13f7ef2c75e" target="_top" xlink:title="parser.LogoParser.parse">
<polygon fill="white" stroke="black" points="1353,-161.5 1353,-180.5 1485,-180.5 1485,-161.5 1353,-161.5"/>
<text text-anchor="middle" x="1419" y="-168.5" font-family="Helvetica,sans-Serif" font-size="10.00">parser.LogoParser.parse</text>
</a>
</g>
</g>
<!-- Node4&#45;&gt;Node5 -->
<g id="edge4" class="edge"><title>Node4&#45;&gt;Node5</title>
<path fill="none" stroke="midnightblue" d="M1313.78,-171C1326.7,-171 1340.16,-171 1352.95,-171"/>
<polygon fill="midnightblue" stroke="midnightblue" points="1313.57,-167.5 1303.57,-171 1313.57,-174.5 1313.57,-167.5"/>
</g>
<!-- Node6 -->
<g id="node6" class="node"><title>Node6</title>
<g id="a_node6"><a xlink:href="../../d6/d95/classparser_1_1_parser.html#af3d0cef45b9f02f1707959c08d8f3797" target="_top" xlink:title="parser.Parser.parse">
<polygon fill="white" stroke="black" points="1534.5,-161.5 1534.5,-180.5 1643.5,-180.5 1643.5,-161.5 1534.5,-161.5"/>
<text text-anchor="middle" x="1589" y="-168.5" font-family="Helvetica,sans-Serif" font-size="10.00">parser.Parser.parse</text>
</a>
</g>
</g>
<!-- Node5&#45;&gt;Node6 -->
<g id="edge5" class="edge"><title>Node5&#45;&gt;Node6</title>
<path fill="none" stroke="midnightblue" d="M1495.8,-171C1508.83,-171 1522.12,-171 1534.41,-171"/>
<polygon fill="midnightblue" stroke="midnightblue" points="1495.43,-167.5 1485.43,-171 1495.43,-174.5 1495.43,-167.5"/>
</g>
<!-- Node7 -->
<g id="node7" class="node"><title>Node7</title>
<g id="a_node7"><a xlink:href="../../d4/d06/classinput_1_1_input_executor.html#a687a9f2cbed5d27a2c7b1336a1cab8aa" target="_top" xlink:title="input.InputExecutor.process\lInput">
<polygon fill="white" stroke="black" points="1680.5,-200 1680.5,-230 1829.5,-230 1829.5,-200 1680.5,-200"/>
<text text-anchor="start" x="1688.5" y="-218" font-family="Helvetica,sans-Serif" font-size="10.00">input.InputExecutor.process</text>
<text text-anchor="middle" x="1755" y="-207" font-family="Helvetica,sans-Serif" font-size="10.00">Input</text>
</a>
</g>
</g>
<!-- Node6&#45;&gt;Node7 -->
<g id="edge6" class="edge"><title>Node6&#45;&gt;Node7</title>
<path fill="none" stroke="midnightblue" d="M1635.36,-183.169C1654.7,-188.357 1677.46,-194.465 1697.85,-199.935"/>
<polygon fill="midnightblue" stroke="midnightblue" points="1636.15,-179.758 1625.59,-180.547 1634.34,-186.519 1636.15,-179.758"/>
</g>
<!-- Node8 -->
<g id="node8" class="node"><title>Node8</title>
<g id="a_node8"><a xlink:href="../../d6/d95/classparser_1_1_parser.html#ae90f8410be9931ec3f349085c8fdae71" target="_top" xlink:title="parser.Parser.parseFile">
<polygon fill="white" stroke="black" points="1693,-161.5 1693,-180.5 1817,-180.5 1817,-161.5 1693,-161.5"/>
<text text-anchor="middle" x="1755" y="-168.5" font-family="Helvetica,sans-Serif" font-size="10.00">parser.Parser.parseFile</text>
</a>
</g>
</g>
<!-- Node6&#45;&gt;Node8 -->
<g id="edge7" class="edge"><title>Node6&#45;&gt;Node8</title>
<path fill="none" stroke="midnightblue" d="M1653.82,-171C1666.63,-171 1680.06,-171 1692.79,-171"/>
<polygon fill="midnightblue" stroke="midnightblue" points="1653.7,-167.5 1643.7,-171 1653.7,-174.5 1653.7,-167.5"/>
</g>
<!-- Node13 -->
<g id="node13" class="node"><title>Node13</title>
<g id="a_node13"><a xlink:href="../../d5/d56/class_workspace.html#a0ed8fb487512971086b6f3ed0d74e4ae" target="_top" xlink:title="Workspace.sendUserInput">
<polygon fill="white" stroke="black" points="1871,-119.5 1871,-138.5 2011,-138.5 2011,-119.5 1871,-119.5"/>
<text text-anchor="middle" x="1941" y="-126.5" font-family="Helvetica,sans-Serif" font-size="10.00">Workspace.sendUserInput</text>
</a>
</g>
</g>
<!-- Node6&#45;&gt;Node13 -->
<g id="edge12" class="edge"><title>Node6&#45;&gt;Node13</title>
<path fill="none" stroke="midnightblue" d="M1640.23,-159.284C1653.14,-156.581 1667.04,-153.934 1680,-152 1744.31,-142.402 1818.22,-136.337 1870.76,-132.861"/>
<polygon fill="midnightblue" stroke="midnightblue" points="1639.18,-155.931 1630.14,-161.452 1640.65,-162.775 1639.18,-155.931"/>
</g>
<!-- Node9 -->
<g id="node9" class="node"><title>Node9</title>
<g id="a_node9"><a xlink:href="../../d9/de8/class_file_chooser_feature.html#ad742b8e9d07e8151f0a9ff1972867ce8" target="_top" xlink:title="FileChooserFeature.openFile\lChooser">
<polygon fill="white" stroke="black" points="1866.5,-158 1866.5,-188 2015.5,-188 2015.5,-158 1866.5,-158"/>
<text text-anchor="start" x="1874.5" y="-176" font-family="Helvetica,sans-Serif" font-size="10.00">FileChooserFeature.openFile</text>
<text text-anchor="middle" x="1941" y="-165" font-family="Helvetica,sans-Serif" font-size="10.00">Chooser</text>
</a>
</g>
</g>
<!-- Node8&#45;&gt;Node9 -->
<g id="edge8" class="edge"><title>Node8&#45;&gt;Node9</title>
<path fill="none" stroke="midnightblue" d="M1827.17,-171.774C1840.02,-171.913 1853.44,-172.059 1866.35,-172.2"/>
<polygon fill="midnightblue" stroke="midnightblue" points="1827.05,-168.272 1817.01,-171.663 1826.98,-175.272 1827.05,-168.272"/>
</g>
<!-- Node10 -->
<g id="node10" class="node"><title>Node10</title>
<g id="a_node10"><a xlink:href="../../d5/d56/class_workspace.html#a6babd032d9af86fbc23812272d59a2d2" target="_top" xlink:title="Workspace.addFeatureButtons">
<polygon fill="white" stroke="black" points="2052,-161.5 2052,-180.5 2214,-180.5 2214,-161.5 2052,-161.5"/>
<text text-anchor="middle" x="2133" y="-168.5" font-family="Helvetica,sans-Serif" font-size="10.00">Workspace.addFeatureButtons</text>
</a>
</g>
</g>
<!-- Node9&#45;&gt;Node10 -->
<g id="edge9" class="edge"><title>Node9&#45;&gt;Node10</title>
<path fill="none" stroke="midnightblue" d="M2025.77,-172.118C2034.38,-172.028 2043.12,-171.936 2051.7,-171.845"/>
<polygon fill="midnightblue" stroke="midnightblue" points="2025.69,-168.619 2015.73,-172.224 2025.77,-175.618 2025.69,-168.619"/>
</g>
<!-- Node11 -->
<g id="node11" class="node"><title>Node11</title>
<g id="a_node11"><a xlink:href="../../d5/d56/class_workspace.html#a429d535dfd8427637b7715f0b1e1df1b" target="_top" xlink:title="Workspace.createWorkspace">
<polygon fill="white" stroke="black" points="2250,-141.5 2250,-160.5 2402,-160.5 2402,-141.5 2250,-141.5"/>
<text text-anchor="middle" x="2326" y="-148.5" font-family="Helvetica,sans-Serif" font-size="10.00">Workspace.createWorkspace</text>
</a>
</g>
</g>
<!-- Node10&#45;&gt;Node11 -->
<g id="edge10" class="edge"><title>Node10&#45;&gt;Node11</title>
<path fill="none" stroke="midnightblue" d="M2224.22,-161.553C2232.82,-160.652 2241.48,-159.746 2249.91,-158.863"/>
<polygon fill="midnightblue" stroke="midnightblue" points="2223.75,-158.083 2214.17,-162.605 2224.48,-165.045 2223.75,-158.083"/>
</g>
<!-- Node12 -->
<g id="node12" class="node"><title>Node12</title>
<g id="a_node12"><a xlink:href="../../d0/d4b/class_main.html#aaa75b38812324d0f17c89f139bde6ada" target="_top" xlink:title="Main.start">
<polygon fill="white" stroke="black" points="2438.5,-141.5 2438.5,-160.5 2503.5,-160.5 2503.5,-141.5 2438.5,-141.5"/>
<text text-anchor="middle" x="2471" y="-148.5" font-family="Helvetica,sans-Serif" font-size="10.00">Main.start</text>
</a>
</g>
</g>
<!-- Node11&#45;&gt;Node12 -->
<g id="edge11" class="edge"><title>Node11&#45;&gt;Node12</title>
<path fill="none" stroke="midnightblue" d="M2412.39,-151C2421.63,-151 2430.55,-151 2438.5,-151"/>
<polygon fill="midnightblue" stroke="midnightblue" points="2412.27,-147.5 2402.27,-151 2412.27,-154.5 2412.27,-147.5"/>
</g>
<!-- Node13&#45;&gt;Node11 -->
<g id="edge13" class="edge"><title>Node13&#45;&gt;Node11</title>
<path fill="none" stroke="midnightblue" d="M2021.47,-133.565C2088.6,-137.421 2184.08,-142.905 2249.94,-146.688"/>
<polygon fill="midnightblue" stroke="midnightblue" points="2021.54,-130.063 2011.36,-132.984 2021.14,-137.052 2021.54,-130.063"/>
</g>
<!-- Node14&#45;&gt;Node4 -->
<g id="edge16" class="edge"><title>Node14&#45;&gt;Node4</title>
<path fill="none" stroke="midnightblue" d="M1157.8,-166.542C1166.76,-167.011 1175.71,-167.479 1184.26,-167.927"/>
<polygon fill="midnightblue" stroke="midnightblue" points="1157.86,-163.04 1147.69,-166.013 1157.5,-170.031 1157.86,-163.04"/>
</g>
<!-- Node15&#45;&gt;Node4 -->
<g id="edge18" class="edge"><title>Node15&#45;&gt;Node4</title>
<path fill="none" stroke="midnightblue" d="M965.829,-125.322C1016.98,-127.247 1087.16,-131.888 1148,-143 1171.51,-147.294 1197.5,-155.18 1216.34,-161.491"/>
<polygon fill="midnightblue" stroke="midnightblue" points="965.653,-121.814 955.537,-124.962 965.408,-128.81 965.653,-121.814"/>
</g>
<!-- Node15&#45;&gt;Node14 -->
<g id="edge19" class="edge"><title>Node15&#45;&gt;Node14</title>
<path fill="none" stroke="midnightblue" d="M948.124,-135.753C972.869,-141.126 1001.8,-147.409 1025.16,-152.48"/>
<polygon fill="midnightblue" stroke="midnightblue" points="948.675,-132.291 938.16,-133.589 947.189,-139.131 948.675,-132.291"/>
</g>
<!-- Node16&#45;&gt;Node15 -->
<g id="edge21" class="edge"><title>Node16&#45;&gt;Node15</title>
<path fill="none" stroke="midnightblue" d="M777.653,-97.8243C801.056,-103.182 828.357,-109.431 850.412,-114.48"/>
<polygon fill="midnightblue" stroke="midnightblue" points="778.418,-94.4088 767.889,-95.589 776.856,-101.232 778.418,-94.4088"/>
</g>
<!-- Node17&#45;&gt;Node16 -->
<g id="edge23" class="edge"><title>Node17&#45;&gt;Node16</title>
<path fill="none" stroke="midnightblue" d="M608.965,-59.8243C632.509,-65.1816 659.974,-71.4311 682.162,-76.4799"/>
<polygon fill="midnightblue" stroke="midnightblue" points="609.668,-56.3951 599.141,-57.589 608.115,-63.2206 609.668,-56.3951"/>
</g>
<!-- Node18&#45;&gt;Node17 -->
<g id="edge25" class="edge"><title>Node18&#45;&gt;Node17</title>
<path fill="none" stroke="midnightblue" d="M445.392,-21.968C467.813,-27.2931 493.847,-33.4762 514.916,-38.4799"/>
<polygon fill="midnightblue" stroke="midnightblue" points="445.913,-18.4945 435.375,-19.589 444.295,-25.3051 445.913,-18.4945"/>
</g>
</g>
</svg>
        <g id="navigator" transform="translate(0 0)" fill="#404254">
                <rect fill="#f2f5e9" fill-opacity="0.5" stroke="#606060" stroke-width=".5" x="0" y="0" width="60" height="60"/>
                <use id="zoomplus" xlink:href="#zoomPlus" x="17" y="9" onmousedown="handleZoom(evt,'in')"/>
                <use id="zoomminus" xlink:href="#zoomMin" x="42" y="9" onmousedown="handleZoom(evt,'out')"/>
                <use id="reset" xlink:href="#resetDef" x="30" y="36" onmousedown="handleReset()"/>
                <g id="arrowUp" xlink:href="#dirArrow" transform="translate(30 24)" onmousedown="handlePan(0,-1)">
                  <use xlink:href="#rim" fill="#404040">
                        <set attributeName="fill" to="#808080" begin="arrowUp.mouseover" end="arrowUp.mouseout"/>
                  </use>
                  <path fill="none" stroke="white" stroke-width="1.5" d="M0,-3.0v7 M-2.5,-0.5L0,-3.0L2.5,-0.5"/>
                </g>
                <g id="arrowRight" xlink:href="#dirArrow" transform="rotate(90) translate(36 -43)" onmousedown="handlePan(1,0)">
                  <use xlink:href="#rim" fill="#404040">
                        <set attributeName="fill" to="#808080" begin="arrowRight.mouseover" end="arrowRight.mouseout"/>
                  </use>
                  <path fill="none" stroke="white" stroke-width="1.5" d="M0,-3.0v7 M-2.5,-0.5L0,-3.0L2.5,-0.5"/>
                </g>
                <g id="arrowDown" xlink:href="#dirArrow" transform="rotate(180) translate(-30 -48)" onmousedown="handlePan(0,1)">
                  <use xlink:href="#rim" fill="#404040">
                        <set attributeName="fill" to="#808080" begin="arrowDown.mouseover" end="arrowDown.mouseout"/>
                  </use>
                  <path fill="none" stroke="white" stroke-width="1.5" d="M0,-3.0v7 M-2.5,-0.5L0,-3.0L2.5,-0.5"/>
                </g>
                <g id="arrowLeft" xlink:href="#dirArrow" transform="rotate(270) translate(-36 17)" onmousedown="handlePan(-1,0)">
                  <use xlink:href="#rim" fill="#404040">
                        <set attributeName="fill" to="#808080" begin="arrowLeft.mouseover" end="arrowLeft.mouseout"/>
                  </use>
                  <path fill="none" stroke="white" stroke-width="1.5" d="M0,-3.0v7 M-2.5,-0.5L0,-3.0L2.5,-0.5"/>
                </g>
        </g>
        <svg viewBox="0 0 15 15" width="100%" height="30px" preserveAspectRatio="xMaxYMin meet">
         <g id="arrow_out" transform="scale(0.3 0.3)">
          <a xlink:href="classparser_1_1_logo_parser_ababc9feb4c4fe365d32902381328d79e_icgraph_org.svg" target="_base">
           <rect id="button" ry="5" rx="5" y="6" x="6" height="38" width="38"
                fill="#f2f5e9" fill-opacity="0.5" stroke="#606060" stroke-width="1.0"/>
           <path id="arrow"
             d="M 11.500037,31.436501 C 11.940474,20.09759 22.043105,11.32322 32.158766,21.979434 L 37.068811,17.246167 C 37.068811,17.246167 37.088388,32 37.088388,32 L 22.160133,31.978069 C 22.160133,31.978069 26.997745,27.140456 26.997745,27.140456 C 18.528582,18.264221 13.291696,25.230495 11.500037,31.436501 z"
             style="fill:#404040;"/>
          </a>
         </g>
        </svg>
</svg>
