<?xml version="1.0" encoding="UTF-8" standalone="no"?>
<!DOCTYPE svg PUBLIC "-//W3C//DTD SVG 1.1//EN"
 "http://www.w3.org/Graphics/SVG/1.1/DTD/svg11.dtd">
<!-- Generated by graphviz version 2.36.0 (20140111.2315)
 -->
<!-- Title: parser.LogoParser.ReInit Pages: 1 -->
<svg width="560pt" height="87pt"
 viewBox="0.00 0.00 560.00 87.00" xmlns="http://www.w3.org/2000/svg" xmlns:xlink="http://www.w3.org/1999/xlink">
<g id="graph0" class="graph" transform="scale(1 1) rotate(0) translate(4 83)">
<title>parser.LogoParser.ReInit</title>
<polygon fill="white" stroke="none" points="-4,4 -4,-83 556,-83 556,4 -4,4"/>
<!-- Node1 -->
<g id="node1" class="node"><title>Node1</title>
<polygon fill="#bfbfbf" stroke="black" points="0.5,-29.5 0.5,-48.5 131.5,-48.5 131.5,-29.5 0.5,-29.5"/>
<text text-anchor="middle" x="66" y="-36.5" font-family="Helvetica,sans-Serif" font-size="10.00">parser.LogoParser.ReInit</text>
</g>
<!-- Node2 -->
<g id="node2" class="node"><title>Node2</title>
<g id="a_node2"><a xlink:href="../../d4/dad/classparser_1_1_simple_char_stream.html#a6bba571a2ca5f87ca0b6f1e27b31853c" target="_top" xlink:title="parser.SimpleCharStream.\lReInit">
<polygon fill="white" stroke="black" points="183,-49 183,-79 327,-79 327,-49 183,-49"/>
<text text-anchor="start" x="191" y="-67" font-family="Helvetica,sans-Serif" font-size="10.00">parser.SimpleCharStream.</text>
<text text-anchor="middle" x="255" y="-56" font-family="Helvetica,sans-Serif" font-size="10.00">ReInit</text>
</a>
</g>
</g>
<!-- Node1&#45;&gt;Node2 -->
<g id="edge1" class="edge"><title>Node1&#45;&gt;Node2</title>
<path fill="none" stroke="midnightblue" d="M131.617,-47.6386C144.954,-49.4216 159.161,-51.3209 172.996,-53.1705"/>
<polygon fill="midnightblue" stroke="midnightblue" points="172.611,-56.6501 182.986,-54.5062 173.538,-49.7118 172.611,-56.6501"/>
</g>
<!-- Node3 -->
<g id="node3" class="node"><title>Node3</title>
<g id="a_node3"><a xlink:href="../../d0/d8c/classparser_1_1_logo_parser_token_manager.html#a27d2bf5d91d27141ec3923c89284e1bc" target="_top" xlink:title="parser.LogoParserTokenManager.\lReInit">
<polygon fill="white" stroke="black" points="168,-0 168,-30 342,-30 342,-0 168,-0"/>
<text text-anchor="start" x="176" y="-18" font-family="Helvetica,sans-Serif" font-size="10.00">parser.LogoParserTokenManager.</text>
<text text-anchor="middle" x="255" y="-7" font-family="Helvetica,sans-Serif" font-size="10.00">ReInit</text>
</a>
</g>
</g>
<!-- Node1&#45;&gt;Node3 -->
<g id="edge2" class="edge"><title>Node1&#45;&gt;Node3</title>
<path fill="none" stroke="midnightblue" d="M131.617,-30.707C140.131,-29.6142 148.999,-28.4761 157.899,-27.3339"/>
<polygon fill="midnightblue" stroke="midnightblue" points="158.47,-30.7893 167.943,-26.0447 157.579,-23.8463 158.47,-30.7893"/>
</g>
<!-- Node4 -->
<g id="node4" class="node"><title>Node4</title>
<g id="a_node4"><a xlink:href="../../d0/d8c/classparser_1_1_logo_parser_token_manager.html#a5923cb696d0a55f99661625200327816" target="_top" xlink:title="parser.LogoParserTokenManager.\lReInitRounds">
<polygon fill="white" stroke="black" points="378,-0 378,-30 552,-30 552,-0 378,-0"/>
<text text-anchor="start" x="386" y="-18" font-family="Helvetica,sans-Serif" font-size="10.00">parser.LogoParserTokenManager.</text>
<text text-anchor="middle" x="465" y="-7" font-family="Helvetica,sans-Serif" font-size="10.00">ReInitRounds</text>
</a>
</g>
</g>
<!-- Node3&#45;&gt;Node4 -->
<g id="edge3" class="edge"><title>Node3&#45;&gt;Node4</title>
<path fill="none" stroke="midnightblue" d="M342.103,-15C350.618,-15 359.298,-15 367.905,-15"/>
<polygon fill="midnightblue" stroke="midnightblue" points="367.962,-18.5001 377.962,-15 367.962,-11.5001 367.962,-18.5001"/>
</g>
</g>
</svg>
