<?xml version="1.0" encoding="UTF-8" standalone="no"?>
<!DOCTYPE svg PUBLIC "-//W3C//DTD SVG 1.1//EN"
 "http://www.w3.org/Graphics/SVG/1.1/DTD/svg11.dtd">
<!-- Generated by graphviz version 2.36.0 (20140111.2315)
 -->
<!-- Title: parser.LogoParser.list Pages: 1 -->
<svg width="1328pt" height="119pt"
 viewBox="0.00 0.00 1328.00 119.00" xmlns="http://www.w3.org/2000/svg" xmlns:xlink="http://www.w3.org/1999/xlink">
<g id="graph0" class="graph" transform="scale(1 1) rotate(0) translate(4 115)">
<title>parser.LogoParser.list</title>
<polygon fill="white" stroke="none" points="-4,4 -4,-115 1324,-115 1324,4 -4,4"/>
<!-- Node1 -->
<g id="node1" class="node"><title>Node1</title>
<polygon fill="#bfbfbf" stroke="black" points="0.5,-61.5 0.5,-80.5 119.5,-80.5 119.5,-61.5 0.5,-61.5"/>
<text text-anchor="middle" x="60" y="-68.5" font-family="Helvetica,sans-Serif" font-size="10.00">parser.LogoParser.list</text>
</g>
<!-- Node2 -->
<g id="node2" class="node"><title>Node2</title>
<g id="a_node2"><a xlink:href="../../d5/d0e/classparser_1_1_logo_parser.html#a4a8825534e0488215d22bcd947bc4d41" target="_top" xlink:title="parser.LogoParser.expression">
<polygon fill="white" stroke="black" points="156.5,-80.5 156.5,-99.5 313.5,-99.5 313.5,-80.5 156.5,-80.5"/>
<text text-anchor="middle" x="235" y="-87.5" font-family="Helvetica,sans-Serif" font-size="10.00">parser.LogoParser.expression</text>
</a>
</g>
</g>
<!-- Node1&#45;&gt;Node2 -->
<g id="edge1" class="edge"><title>Node1&#45;&gt;Node2</title>
<path fill="none" stroke="midnightblue" d="M129.741,-78.5496C138.525,-79.5143 147.563,-80.507 156.474,-81.4856"/>
<polygon fill="midnightblue" stroke="midnightblue" points="129.892,-75.0452 119.57,-77.4325 129.128,-82.0034 129.892,-75.0452"/>
</g>
<!-- Node3 -->
<g id="node3" class="node"><title>Node3</title>
<g id="a_node3"><a xlink:href="../../d5/d0e/classparser_1_1_logo_parser.html#adefe3b97ad0d2d7fd0dcd13f7ef2c75e" target="_top" xlink:title="parser.LogoParser.parse">
<polygon fill="white" stroke="black" points="169,-42.5 169,-61.5 301,-61.5 301,-42.5 169,-42.5"/>
<text text-anchor="middle" x="235" y="-49.5" font-family="Helvetica,sans-Serif" font-size="10.00">parser.LogoParser.parse</text>
</a>
</g>
</g>
<!-- Node1&#45;&gt;Node3 -->
<g id="edge2" class="edge"><title>Node1&#45;&gt;Node3</title>
<path fill="none" stroke="midnightblue" d="M129.783,-63.4457C142.695,-62.0277 156.157,-60.5492 168.95,-59.1442"/>
<polygon fill="midnightblue" stroke="midnightblue" points="129.128,-59.9966 119.57,-64.5675 129.892,-66.9548 129.128,-59.9966"/>
</g>
<!-- Node4 -->
<g id="node4" class="node"><title>Node4</title>
<g id="a_node4"><a xlink:href="../../d6/d95/classparser_1_1_parser.html#af3d0cef45b9f02f1707959c08d8f3797" target="_top" xlink:title="parser.Parser.parse">
<polygon fill="white" stroke="black" points="350.5,-42.5 350.5,-61.5 459.5,-61.5 459.5,-42.5 350.5,-42.5"/>
<text text-anchor="middle" x="405" y="-49.5" font-family="Helvetica,sans-Serif" font-size="10.00">parser.Parser.parse</text>
</a>
</g>
</g>
<!-- Node3&#45;&gt;Node4 -->
<g id="edge3" class="edge"><title>Node3&#45;&gt;Node4</title>
<path fill="none" stroke="midnightblue" d="M311.801,-52C324.828,-52 338.122,-52 350.411,-52"/>
<polygon fill="midnightblue" stroke="midnightblue" points="311.434,-48.5001 301.434,-52 311.434,-55.5001 311.434,-48.5001"/>
</g>
<!-- Node5 -->
<g id="node5" class="node"><title>Node5</title>
<g id="a_node5"><a xlink:href="../../d4/d06/classinput_1_1_input_executor.html#a687a9f2cbed5d27a2c7b1336a1cab8aa" target="_top" xlink:title="input.InputExecutor.process\lInput">
<polygon fill="white" stroke="black" points="496.5,-81 496.5,-111 645.5,-111 645.5,-81 496.5,-81"/>
<text text-anchor="start" x="504.5" y="-99" font-family="Helvetica,sans-Serif" font-size="10.00">input.InputExecutor.process</text>
<text text-anchor="middle" x="571" y="-88" font-family="Helvetica,sans-Serif" font-size="10.00">Input</text>
</a>
</g>
</g>
<!-- Node4&#45;&gt;Node5 -->
<g id="edge4" class="edge"><title>Node4&#45;&gt;Node5</title>
<path fill="none" stroke="midnightblue" d="M451.356,-64.1687C470.696,-69.3574 493.459,-75.4646 513.847,-80.9346"/>
<polygon fill="midnightblue" stroke="midnightblue" points="452.151,-60.7583 441.586,-61.5473 450.337,-67.5192 452.151,-60.7583"/>
</g>
<!-- Node6 -->
<g id="node6" class="node"><title>Node6</title>
<g id="a_node6"><a xlink:href="../../d6/d95/classparser_1_1_parser.html#ae90f8410be9931ec3f349085c8fdae71" target="_top" xlink:title="parser.Parser.parseFile">
<polygon fill="white" stroke="black" points="509,-42.5 509,-61.5 633,-61.5 633,-42.5 509,-42.5"/>
<text text-anchor="middle" x="571" y="-49.5" font-family="Helvetica,sans-Serif" font-size="10.00">parser.Parser.parseFile</text>
</a>
</g>
</g>
<!-- Node4&#45;&gt;Node6 -->
<g id="edge5" class="edge"><title>Node4&#45;&gt;Node6</title>
<path fill="none" stroke="midnightblue" d="M469.816,-52C482.629,-52 496.065,-52 508.787,-52"/>
<polygon fill="midnightblue" stroke="midnightblue" points="469.7,-48.5001 459.7,-52 469.7,-55.5001 469.7,-48.5001"/>
</g>
<!-- Node11 -->
<g id="node11" class="node"><title>Node11</title>
<g id="a_node11"><a xlink:href="../../d5/d56/class_workspace.html#a0ed8fb487512971086b6f3ed0d74e4ae" target="_top" xlink:title="Workspace.sendUserInput">
<polygon fill="white" stroke="black" points="687,-0.5 687,-19.5 827,-19.5 827,-0.5 687,-0.5"/>
<text text-anchor="middle" x="757" y="-7.5" font-family="Helvetica,sans-Serif" font-size="10.00">Workspace.sendUserInput</text>
</a>
</g>
</g>
<!-- Node4&#45;&gt;Node11 -->
<g id="edge10" class="edge"><title>Node4&#45;&gt;Node11</title>
<path fill="none" stroke="midnightblue" d="M456.234,-40.2843C469.139,-37.5809 483.039,-34.9343 496,-33 560.315,-23.4018 634.222,-17.3372 686.759,-13.8606"/>
<polygon fill="midnightblue" stroke="midnightblue" points="455.178,-36.9313 446.135,-42.4521 456.647,-43.7754 455.178,-36.9313"/>
</g>
<!-- Node7 -->
<g id="node7" class="node"><title>Node7</title>
<g id="a_node7"><a xlink:href="../../d9/de8/class_file_chooser_feature.html#ad742b8e9d07e8151f0a9ff1972867ce8" target="_top" xlink:title="FileChooserFeature.openFile\lChooser">
<polygon fill="white" stroke="black" points="682.5,-39 682.5,-69 831.5,-69 831.5,-39 682.5,-39"/>
<text text-anchor="start" x="690.5" y="-57" font-family="Helvetica,sans-Serif" font-size="10.00">FileChooserFeature.openFile</text>
<text text-anchor="middle" x="757" y="-46" font-family="Helvetica,sans-Serif" font-size="10.00">Chooser</text>
</a>
</g>
</g>
<!-- Node6&#45;&gt;Node7 -->
<g id="edge6" class="edge"><title>Node6&#45;&gt;Node7</title>
<path fill="none" stroke="midnightblue" d="M643.173,-52.7736C656.02,-52.9133 669.439,-53.0591 682.354,-53.1995"/>
<polygon fill="midnightblue" stroke="midnightblue" points="643.051,-49.2722 633.014,-52.6632 642.975,-56.2718 643.051,-49.2722"/>
</g>
<!-- Node8 -->
<g id="node8" class="node"><title>Node8</title>
<g id="a_node8"><a xlink:href="../../d5/d56/class_workspace.html#a6babd032d9af86fbc23812272d59a2d2" target="_top" xlink:title="Workspace.addFeatureButtons">
<polygon fill="white" stroke="black" points="868,-42.5 868,-61.5 1030,-61.5 1030,-42.5 868,-42.5"/>
<text text-anchor="middle" x="949" y="-49.5" font-family="Helvetica,sans-Serif" font-size="10.00">Workspace.addFeatureButtons</text>
</a>
</g>
</g>
<!-- Node7&#45;&gt;Node8 -->
<g id="edge7" class="edge"><title>Node7&#45;&gt;Node8</title>
<path fill="none" stroke="midnightblue" d="M841.768,-53.1182C850.382,-53.0276 859.121,-52.9356 867.697,-52.8453"/>
<polygon fill="midnightblue" stroke="midnightblue" points="841.693,-49.6187 831.731,-53.2239 841.767,-56.6183 841.693,-49.6187"/>
</g>
<!-- Node9 -->
<g id="node9" class="node"><title>Node9</title>
<g id="a_node9"><a xlink:href="../../d5/d56/class_workspace.html#a429d535dfd8427637b7715f0b1e1df1b" target="_top" xlink:title="Workspace.createWorkspace">
<polygon fill="white" stroke="black" points="1066,-22.5 1066,-41.5 1218,-41.5 1218,-22.5 1066,-22.5"/>
<text text-anchor="middle" x="1142" y="-29.5" font-family="Helvetica,sans-Serif" font-size="10.00">Workspace.createWorkspace</text>
</a>
</g>
</g>
<!-- Node8&#45;&gt;Node9 -->
<g id="edge8" class="edge"><title>Node8&#45;&gt;Node9</title>
<path fill="none" stroke="midnightblue" d="M1040.22,-42.5526C1048.82,-41.6521 1057.48,-40.7457 1065.91,-39.8626"/>
<polygon fill="midnightblue" stroke="midnightblue" points="1039.75,-39.0826 1030.17,-43.6051 1040.48,-46.0446 1039.75,-39.0826"/>
</g>
<!-- Node10 -->
<g id="node10" class="node"><title>Node10</title>
<g id="a_node10"><a xlink:href="../../d0/d4b/class_main.html#aaa75b38812324d0f17c89f139bde6ada" target="_top" xlink:title="Main.start">
<polygon fill="white" stroke="black" points="1254.5,-22.5 1254.5,-41.5 1319.5,-41.5 1319.5,-22.5 1254.5,-22.5"/>
<text text-anchor="middle" x="1287" y="-29.5" font-family="Helvetica,sans-Serif" font-size="10.00">Main.start</text>
</a>
</g>
</g>
<!-- Node9&#45;&gt;Node10 -->
<g id="edge9" class="edge"><title>Node9&#45;&gt;Node10</title>
<path fill="none" stroke="midnightblue" d="M1228.39,-32C1237.63,-32 1246.55,-32 1254.5,-32"/>
<polygon fill="midnightblue" stroke="midnightblue" points="1228.27,-28.5001 1218.27,-32 1228.27,-35.5001 1228.27,-28.5001"/>
</g>
<!-- Node11&#45;&gt;Node9 -->
<g id="edge11" class="edge"><title>Node11&#45;&gt;Node9</title>
<path fill="none" stroke="midnightblue" d="M837.466,-14.5646C904.603,-18.4211 1000.08,-23.9052 1065.94,-27.6882"/>
<polygon fill="midnightblue" stroke="midnightblue" points="837.543,-11.0634 827.358,-13.984 837.141,-18.0518 837.543,-11.0634"/>
</g>
</g>
</svg>
