<?xml version="1.0" encoding="UTF-8" standalone="no"?>
<!DOCTYPE svg PUBLIC "-//W3C//DTD SVG 1.1//EN"
 "http://www.w3.org/Graphics/SVG/1.1/DTD/svg11.dtd">
<!-- Generated by graphviz version 2.36.0 (20140111.2315)
 -->
<!-- Title: parser.LogoParser.eval Pages: 1 -->
<svg width="1682pt" height="119pt"
 viewBox="0.00 0.00 1682.00 119.00" xmlns="http://www.w3.org/2000/svg" xmlns:xlink="http://www.w3.org/1999/xlink">
<g id="graph0" class="graph" transform="scale(1 1) rotate(0) translate(4 115)">
<title>parser.LogoParser.eval</title>
<polygon fill="white" stroke="none" points="-4,4 -4,-115 1678,-115 1678,4 -4,4"/>
<!-- Node1 -->
<g id="node1" class="node"><title>Node1</title>
<polygon fill="#bfbfbf" stroke="black" points="0.5,-23.5 0.5,-42.5 125.5,-42.5 125.5,-23.5 0.5,-23.5"/>
<text text-anchor="middle" x="63" y="-30.5" font-family="Helvetica,sans-Serif" font-size="10.00">parser.LogoParser.eval</text>
</g>
<!-- Node2 -->
<g id="node2" class="node"><title>Node2</title>
<g id="a_node2"><a xlink:href="../../d5/d0e/classparser_1_1_logo_parser.html#a6b0ba0c2b5b0bc8c2ef76863fffdb6a3" target="_top" xlink:title="parser.LogoParser.list">
<polygon fill="white" stroke="black" points="354.5,-23.5 354.5,-42.5 473.5,-42.5 473.5,-23.5 354.5,-23.5"/>
<text text-anchor="middle" x="414" y="-30.5" font-family="Helvetica,sans-Serif" font-size="10.00">parser.LogoParser.list</text>
</a>
</g>
</g>
<!-- Node1&#45;&gt;Node2 -->
<g id="edge1" class="edge"><title>Node1&#45;&gt;Node2</title>
<path fill="none" stroke="midnightblue" d="M135.699,-33C200.301,-33 294.118,-33 354.349,-33"/>
<polygon fill="midnightblue" stroke="midnightblue" points="135.591,-29.5001 125.591,-33 135.591,-36.5001 135.591,-29.5001"/>
</g>
<!-- Node13 -->
<g id="node13" class="node"><title>Node13</title>
<g id="a_node13"><a xlink:href="../../d5/d0e/classparser_1_1_logo_parser.html#ad6ed8e51959a6e19a2323444aa8331c8" target="_top" xlink:title="parser.LogoParser.statement">
<polygon fill="white" stroke="black" points="162.5,-4.5 162.5,-23.5 317.5,-23.5 317.5,-4.5 162.5,-4.5"/>
<text text-anchor="middle" x="240" y="-11.5" font-family="Helvetica,sans-Serif" font-size="10.00">parser.LogoParser.statement</text>
</a>
</g>
</g>
<!-- Node1&#45;&gt;Node13 -->
<g id="edge13" class="edge"><title>Node1&#45;&gt;Node13</title>
<path fill="none" stroke="midnightblue" d="M135.804,-25.2042C144.514,-24.2584 153.44,-23.2894 162.219,-22.3363"/>
<polygon fill="midnightblue" stroke="midnightblue" points="135.262,-21.7423 125.698,-26.3013 136.018,-28.7014 135.262,-21.7423"/>
</g>
<!-- Node3 -->
<g id="node3" class="node"><title>Node3</title>
<g id="a_node3"><a xlink:href="../../d5/d0e/classparser_1_1_logo_parser.html#adefe3b97ad0d2d7fd0dcd13f7ef2c75e" target="_top" xlink:title="parser.LogoParser.parse">
<polygon fill="white" stroke="black" points="523,-42.5 523,-61.5 655,-61.5 655,-42.5 523,-42.5"/>
<text text-anchor="middle" x="589" y="-49.5" font-family="Helvetica,sans-Serif" font-size="10.00">parser.LogoParser.parse</text>
</a>
</g>
</g>
<!-- Node2&#45;&gt;Node3 -->
<g id="edge2" class="edge"><title>Node2&#45;&gt;Node3</title>
<path fill="none" stroke="midnightblue" d="M483.783,-40.5543C496.695,-41.9723 510.157,-43.4508 522.95,-44.8558"/>
<polygon fill="midnightblue" stroke="midnightblue" points="483.892,-37.0452 473.57,-39.4325 483.128,-44.0034 483.892,-37.0452"/>
</g>
<!-- Node12 -->
<g id="node12" class="node"><title>Node12</title>
<g id="a_node12"><a xlink:href="../../d5/d0e/classparser_1_1_logo_parser.html#a4a8825534e0488215d22bcd947bc4d41" target="_top" xlink:title="parser.LogoParser.expression">
<polygon fill="white" stroke="black" points="510.5,-4.5 510.5,-23.5 667.5,-23.5 667.5,-4.5 510.5,-4.5"/>
<text text-anchor="middle" x="589" y="-11.5" font-family="Helvetica,sans-Serif" font-size="10.00">parser.LogoParser.expression</text>
</a>
</g>
</g>
<!-- Node2&#45;&gt;Node12 -->
<g id="edge12" class="edge"><title>Node2&#45;&gt;Node12</title>
<path fill="none" stroke="midnightblue" d="M483.741,-25.4504C492.525,-24.4857 501.563,-23.493 510.474,-22.5144"/>
<polygon fill="midnightblue" stroke="midnightblue" points="483.128,-21.9966 473.57,-26.5675 483.892,-28.9548 483.128,-21.9966"/>
</g>
<!-- Node4 -->
<g id="node4" class="node"><title>Node4</title>
<g id="a_node4"><a xlink:href="../../d6/d95/classparser_1_1_parser.html#af3d0cef45b9f02f1707959c08d8f3797" target="_top" xlink:title="parser.Parser.parse">
<polygon fill="white" stroke="black" points="704.5,-42.5 704.5,-61.5 813.5,-61.5 813.5,-42.5 704.5,-42.5"/>
<text text-anchor="middle" x="759" y="-49.5" font-family="Helvetica,sans-Serif" font-size="10.00">parser.Parser.parse</text>
</a>
</g>
</g>
<!-- Node3&#45;&gt;Node4 -->
<g id="edge3" class="edge"><title>Node3&#45;&gt;Node4</title>
<path fill="none" stroke="midnightblue" d="M665.801,-52C678.828,-52 692.122,-52 704.411,-52"/>
<polygon fill="midnightblue" stroke="midnightblue" points="665.434,-48.5001 655.434,-52 665.434,-55.5001 665.434,-48.5001"/>
</g>
<!-- Node5 -->
<g id="node5" class="node"><title>Node5</title>
<g id="a_node5"><a xlink:href="../../d4/d06/classinput_1_1_input_executor.html#a687a9f2cbed5d27a2c7b1336a1cab8aa" target="_top" xlink:title="input.InputExecutor.process\lInput">
<polygon fill="white" stroke="black" points="850.5,-81 850.5,-111 999.5,-111 999.5,-81 850.5,-81"/>
<text text-anchor="start" x="858.5" y="-99" font-family="Helvetica,sans-Serif" font-size="10.00">input.InputExecutor.process</text>
<text text-anchor="middle" x="925" y="-88" font-family="Helvetica,sans-Serif" font-size="10.00">Input</text>
</a>
</g>
</g>
<!-- Node4&#45;&gt;Node5 -->
<g id="edge4" class="edge"><title>Node4&#45;&gt;Node5</title>
<path fill="none" stroke="midnightblue" d="M805.356,-64.1687C824.696,-69.3574 847.459,-75.4646 867.847,-80.9346"/>
<polygon fill="midnightblue" stroke="midnightblue" points="806.151,-60.7583 795.586,-61.5473 804.337,-67.5192 806.151,-60.7583"/>
</g>
<!-- Node6 -->
<g id="node6" class="node"><title>Node6</title>
<g id="a_node6"><a xlink:href="../../d6/d95/classparser_1_1_parser.html#ae90f8410be9931ec3f349085c8fdae71" target="_top" xlink:title="parser.Parser.parseFile">
<polygon fill="white" stroke="black" points="863,-42.5 863,-61.5 987,-61.5 987,-42.5 863,-42.5"/>
<text text-anchor="middle" x="925" y="-49.5" font-family="Helvetica,sans-Serif" font-size="10.00">parser.Parser.parseFile</text>
</a>
</g>
</g>
<!-- Node4&#45;&gt;Node6 -->
<g id="edge5" class="edge"><title>Node4&#45;&gt;Node6</title>
<path fill="none" stroke="midnightblue" d="M823.816,-52C836.629,-52 850.065,-52 862.787,-52"/>
<polygon fill="midnightblue" stroke="midnightblue" points="823.7,-48.5001 813.7,-52 823.7,-55.5001 823.7,-48.5001"/>
</g>
<!-- Node11 -->
<g id="node11" class="node"><title>Node11</title>
<g id="a_node11"><a xlink:href="../../d5/d56/class_workspace.html#a0ed8fb487512971086b6f3ed0d74e4ae" target="_top" xlink:title="Workspace.sendUserInput">
<polygon fill="white" stroke="black" points="1041,-0.5 1041,-19.5 1181,-19.5 1181,-0.5 1041,-0.5"/>
<text text-anchor="middle" x="1111" y="-7.5" font-family="Helvetica,sans-Serif" font-size="10.00">Workspace.sendUserInput</text>
</a>
</g>
</g>
<!-- Node4&#45;&gt;Node11 -->
<g id="edge10" class="edge"><title>Node4&#45;&gt;Node11</title>
<path fill="none" stroke="midnightblue" d="M810.234,-40.2843C823.139,-37.5809 837.039,-34.9343 850,-33 914.315,-23.4018 988.222,-17.3372 1040.76,-13.8606"/>
<polygon fill="midnightblue" stroke="midnightblue" points="809.178,-36.9313 800.135,-42.4521 810.647,-43.7754 809.178,-36.9313"/>
</g>
<!-- Node7 -->
<g id="node7" class="node"><title>Node7</title>
<g id="a_node7"><a xlink:href="../../d9/de8/class_file_chooser_feature.html#ad742b8e9d07e8151f0a9ff1972867ce8" target="_top" xlink:title="FileChooserFeature.openFile\lChooser">
<polygon fill="white" stroke="black" points="1036.5,-39 1036.5,-69 1185.5,-69 1185.5,-39 1036.5,-39"/>
<text text-anchor="start" x="1044.5" y="-57" font-family="Helvetica,sans-Serif" font-size="10.00">FileChooserFeature.openFile</text>
<text text-anchor="middle" x="1111" y="-46" font-family="Helvetica,sans-Serif" font-size="10.00">Chooser</text>
</a>
</g>
</g>
<!-- Node6&#45;&gt;Node7 -->
<g id="edge6" class="edge"><title>Node6&#45;&gt;Node7</title>
<path fill="none" stroke="midnightblue" d="M997.173,-52.7736C1010.02,-52.9133 1023.44,-53.0591 1036.35,-53.1995"/>
<polygon fill="midnightblue" stroke="midnightblue" points="997.051,-49.2722 987.014,-52.6632 996.975,-56.2718 997.051,-49.2722"/>
</g>
<!-- Node8 -->
<g id="node8" class="node"><title>Node8</title>
<g id="a_node8"><a xlink:href="../../d5/d56/class_workspace.html#a6babd032d9af86fbc23812272d59a2d2" target="_top" xlink:title="Workspace.addFeatureButtons">
<polygon fill="white" stroke="black" points="1222,-42.5 1222,-61.5 1384,-61.5 1384,-42.5 1222,-42.5"/>
<text text-anchor="middle" x="1303" y="-49.5" font-family="Helvetica,sans-Serif" font-size="10.00">Workspace.addFeatureButtons</text>
</a>
</g>
</g>
<!-- Node7&#45;&gt;Node8 -->
<g id="edge7" class="edge"><title>Node7&#45;&gt;Node8</title>
<path fill="none" stroke="midnightblue" d="M1195.77,-53.1182C1204.38,-53.0276 1213.12,-52.9356 1221.7,-52.8453"/>
<polygon fill="midnightblue" stroke="midnightblue" points="1195.69,-49.6187 1185.73,-53.2239 1195.77,-56.6183 1195.69,-49.6187"/>
</g>
<!-- Node9 -->
<g id="node9" class="node"><title>Node9</title>
<g id="a_node9"><a xlink:href="../../d5/d56/class_workspace.html#a429d535dfd8427637b7715f0b1e1df1b" target="_top" xlink:title="Workspace.createWorkspace">
<polygon fill="white" stroke="black" points="1420,-22.5 1420,-41.5 1572,-41.5 1572,-22.5 1420,-22.5"/>
<text text-anchor="middle" x="1496" y="-29.5" font-family="Helvetica,sans-Serif" font-size="10.00">Workspace.createWorkspace</text>
</a>
</g>
</g>
<!-- Node8&#45;&gt;Node9 -->
<g id="edge8" class="edge"><title>Node8&#45;&gt;Node9</title>
<path fill="none" stroke="midnightblue" d="M1394.22,-42.5526C1402.82,-41.6521 1411.48,-40.7457 1419.91,-39.8626"/>
<polygon fill="midnightblue" stroke="midnightblue" points="1393.75,-39.0826 1384.17,-43.6051 1394.48,-46.0446 1393.75,-39.0826"/>
</g>
<!-- Node10 -->
<g id="node10" class="node"><title>Node10</title>
<g id="a_node10"><a xlink:href="../../d0/d4b/class_main.html#aaa75b38812324d0f17c89f139bde6ada" target="_top" xlink:title="Main.start">
<polygon fill="white" stroke="black" points="1608.5,-22.5 1608.5,-41.5 1673.5,-41.5 1673.5,-22.5 1608.5,-22.5"/>
<text text-anchor="middle" x="1641" y="-29.5" font-family="Helvetica,sans-Serif" font-size="10.00">Main.start</text>
</a>
</g>
</g>
<!-- Node9&#45;&gt;Node10 -->
<g id="edge9" class="edge"><title>Node9&#45;&gt;Node10</title>
<path fill="none" stroke="midnightblue" d="M1582.39,-32C1591.63,-32 1600.55,-32 1608.5,-32"/>
<polygon fill="midnightblue" stroke="midnightblue" points="1582.27,-28.5001 1572.27,-32 1582.27,-35.5001 1582.27,-28.5001"/>
</g>
<!-- Node11&#45;&gt;Node9 -->
<g id="edge11" class="edge"><title>Node11&#45;&gt;Node9</title>
<path fill="none" stroke="midnightblue" d="M1191.47,-14.5646C1258.6,-18.4211 1354.08,-23.9052 1419.94,-27.6882"/>
<polygon fill="midnightblue" stroke="midnightblue" points="1191.54,-11.0634 1181.36,-13.984 1191.14,-18.0518 1191.54,-11.0634"/>
</g>
<!-- Node13&#45;&gt;Node2 -->
<g id="edge14" class="edge"><title>Node13&#45;&gt;Node2</title>
<path fill="none" stroke="midnightblue" d="M327.798,-23.5882C336.762,-24.5783 345.714,-25.5672 354.264,-26.5118"/>
<polygon fill="midnightblue" stroke="midnightblue" points="328.018,-20.0912 317.694,-22.472 327.249,-27.0489 328.018,-20.0912"/>
</g>
</g>
</svg>
