<?xml version="1.0" encoding="UTF-8" standalone="no"?>
<!DOCTYPE svg PUBLIC "-//W3C//DTD SVG 1.1//EN"
 "http://www.w3.org/Graphics/SVG/1.1/DTD/svg11.dtd">
<!-- Generated by graphviz version 2.36.0 (20140111.2315)
 -->
<!-- Title: parser.Parser.parse Pages: 1 -->
<svg width="978pt" height="94pt"
 viewBox="0.00 0.00 978.00 94.00" xmlns="http://www.w3.org/2000/svg" xmlns:xlink="http://www.w3.org/1999/xlink">
<g id="graph0" class="graph" transform="scale(1 1) rotate(0) translate(4 90)">
<title>parser.Parser.parse</title>
<polygon fill="white" stroke="none" points="-4,4 -4,-90 974,-90 974,4 -4,4"/>
<!-- Node1 -->
<g id="node1" class="node"><title>Node1</title>
<polygon fill="#bfbfbf" stroke="black" points="0.5,-22.5 0.5,-41.5 109.5,-41.5 109.5,-22.5 0.5,-22.5"/>
<text text-anchor="middle" x="55" y="-29.5" font-family="Helvetica,sans-Serif" font-size="10.00">parser.Parser.parse</text>
</g>
<!-- Node2 -->
<g id="node2" class="node"><title>Node2</title>
<g id="a_node2"><a xlink:href="../../d6/d95/classparser_1_1_parser.html#ae90f8410be9931ec3f349085c8fdae71" target="_top" xlink:title="parser.Parser.parseFile">
<polygon fill="white" stroke="black" points="159,-66.5 159,-85.5 283,-85.5 283,-66.5 159,-66.5"/>
<text text-anchor="middle" x="221" y="-73.5" font-family="Helvetica,sans-Serif" font-size="10.00">parser.Parser.parseFile</text>
</a>
</g>
</g>
<!-- Node1&#45;&gt;Node2 -->
<g id="edge1" class="edge"><title>Node1&#45;&gt;Node2</title>
<path fill="none" stroke="midnightblue" d="M101.304,-44.1547C127.547,-51.1955 160.107,-59.9312 184.484,-66.4713"/>
<polygon fill="midnightblue" stroke="midnightblue" points="102.151,-40.7583 91.5856,-41.5473 100.337,-47.5192 102.151,-40.7583"/>
</g>
<!-- Node7 -->
<g id="node7" class="node"><title>Node7</title>
<g id="a_node7"><a xlink:href="../../d4/d06/classinput_1_1_input_executor.html#a687a9f2cbed5d27a2c7b1336a1cab8aa" target="_top" xlink:title="input.InputExecutor.process\lInput">
<polygon fill="white" stroke="black" points="146.5,-17 146.5,-47 295.5,-47 295.5,-17 146.5,-17"/>
<text text-anchor="start" x="154.5" y="-35" font-family="Helvetica,sans-Serif" font-size="10.00">input.InputExecutor.process</text>
<text text-anchor="middle" x="221" y="-24" font-family="Helvetica,sans-Serif" font-size="10.00">Input</text>
</a>
</g>
</g>
<!-- Node1&#45;&gt;Node7 -->
<g id="edge6" class="edge"><title>Node1&#45;&gt;Node7</title>
<path fill="none" stroke="midnightblue" d="M119.734,-32C128.416,-32 137.386,-32 146.227,-32"/>
<polygon fill="midnightblue" stroke="midnightblue" points="119.7,-28.5001 109.7,-32 119.7,-35.5001 119.7,-28.5001"/>
</g>
<!-- Node8 -->
<g id="node8" class="node"><title>Node8</title>
<g id="a_node8"><a xlink:href="../../d5/d56/class_workspace.html#a0ed8fb487512971086b6f3ed0d74e4ae" target="_top" xlink:title="Workspace.sendUserInput">
<polygon fill="white" stroke="black" points="337,-0.5 337,-19.5 477,-19.5 477,-0.5 337,-0.5"/>
<text text-anchor="middle" x="407" y="-7.5" font-family="Helvetica,sans-Serif" font-size="10.00">Workspace.sendUserInput</text>
</a>
</g>
</g>
<!-- Node1&#45;&gt;Node8 -->
<g id="edge7" class="edge"><title>Node1&#45;&gt;Node8</title>
<path fill="none" stroke="midnightblue" d="M92.76,-19.3601C108.886,-14.4513 128.17,-9.43044 146,-7 210.297,1.7642 284.366,-0.260129 336.959,-3.7204"/>
<polygon fill="midnightblue" stroke="midnightblue" points="91.6569,-16.0379 83.1683,-22.3779 93.7578,-22.7153 91.6569,-16.0379"/>
</g>
<!-- Node3 -->
<g id="node3" class="node"><title>Node3</title>
<g id="a_node3"><a xlink:href="../../d9/de8/class_file_chooser_feature.html#ad742b8e9d07e8151f0a9ff1972867ce8" target="_top" xlink:title="FileChooserFeature.openFile\lChooser">
<polygon fill="white" stroke="black" points="332.5,-50 332.5,-80 481.5,-80 481.5,-50 332.5,-50"/>
<text text-anchor="start" x="340.5" y="-68" font-family="Helvetica,sans-Serif" font-size="10.00">FileChooserFeature.openFile</text>
<text text-anchor="middle" x="407" y="-57" font-family="Helvetica,sans-Serif" font-size="10.00">Chooser</text>
</a>
</g>
</g>
<!-- Node2&#45;&gt;Node3 -->
<g id="edge2" class="edge"><title>Node2&#45;&gt;Node3</title>
<path fill="none" stroke="midnightblue" d="M293.173,-71.7451C306.02,-70.9771 319.439,-70.1749 332.354,-69.4027"/>
<polygon fill="midnightblue" stroke="midnightblue" points="292.787,-68.2618 283.014,-72.3524 293.205,-75.2493 292.787,-68.2618"/>
</g>
<!-- Node4 -->
<g id="node4" class="node"><title>Node4</title>
<g id="a_node4"><a xlink:href="../../d5/d56/class_workspace.html#a6babd032d9af86fbc23812272d59a2d2" target="_top" xlink:title="Workspace.addFeatureButtons">
<polygon fill="white" stroke="black" points="518,-50.5 518,-69.5 680,-69.5 680,-50.5 518,-50.5"/>
<text text-anchor="middle" x="599" y="-57.5" font-family="Helvetica,sans-Serif" font-size="10.00">Workspace.addFeatureButtons</text>
</a>
</g>
</g>
<!-- Node3&#45;&gt;Node4 -->
<g id="edge3" class="edge"><title>Node3&#45;&gt;Node4</title>
<path fill="none" stroke="midnightblue" d="M491.768,-62.7956C500.382,-62.5689 509.121,-62.3389 517.697,-62.1132"/>
<polygon fill="midnightblue" stroke="midnightblue" points="491.635,-59.2978 481.731,-63.0597 491.82,-66.2953 491.635,-59.2978"/>
</g>
<!-- Node5 -->
<g id="node5" class="node"><title>Node5</title>
<g id="a_node5"><a xlink:href="../../d5/d56/class_workspace.html#a429d535dfd8427637b7715f0b1e1df1b" target="_top" xlink:title="Workspace.createWorkspace">
<polygon fill="white" stroke="black" points="716,-29.5 716,-48.5 868,-48.5 868,-29.5 716,-29.5"/>
<text text-anchor="middle" x="792" y="-36.5" font-family="Helvetica,sans-Serif" font-size="10.00">Workspace.createWorkspace</text>
</a>
</g>
</g>
<!-- Node4&#45;&gt;Node5 -->
<g id="edge4" class="edge"><title>Node4&#45;&gt;Node5</title>
<path fill="none" stroke="midnightblue" d="M690.223,-50.0802C698.822,-49.1348 707.479,-48.183 715.912,-47.2557"/>
<polygon fill="midnightblue" stroke="midnightblue" points="689.729,-46.6134 680.171,-51.1854 690.494,-53.5714 689.729,-46.6134"/>
</g>
<!-- Node6 -->
<g id="node6" class="node"><title>Node6</title>
<g id="a_node6"><a xlink:href="../../d0/d4b/class_main.html#aaa75b38812324d0f17c89f139bde6ada" target="_top" xlink:title="Main.start">
<polygon fill="white" stroke="black" points="904.5,-29.5 904.5,-48.5 969.5,-48.5 969.5,-29.5 904.5,-29.5"/>
<text text-anchor="middle" x="937" y="-36.5" font-family="Helvetica,sans-Serif" font-size="10.00">Main.start</text>
</a>
</g>
</g>
<!-- Node5&#45;&gt;Node6 -->
<g id="edge5" class="edge"><title>Node5&#45;&gt;Node6</title>
<path fill="none" stroke="midnightblue" d="M878.392,-39C887.632,-39 896.551,-39 904.498,-39"/>
<polygon fill="midnightblue" stroke="midnightblue" points="878.269,-35.5001 868.269,-39 878.269,-42.5001 878.269,-35.5001"/>
</g>
<!-- Node8&#45;&gt;Node5 -->
<g id="edge8" class="edge"><title>Node8&#45;&gt;Node5</title>
<path fill="none" stroke="midnightblue" d="M487.466,-16.017C554.603,-21.1005 650.077,-28.3296 715.936,-33.3163"/>
<polygon fill="midnightblue" stroke="midnightblue" points="487.594,-12.5168 477.358,-15.2517 487.066,-19.4968 487.594,-12.5168"/>
</g>
</g>
</svg>
