<?xml version="1.0" encoding="UTF-8" standalone="no"?>
<!DOCTYPE svg PUBLIC "-//W3C//DTD SVG 1.1//EN"
 "http://www.w3.org/Graphics/SVG/1.1/DTD/svg11.dtd">
<!-- Generated by graphviz version 2.36.0 (20140111.2315)
 -->
<!-- Title: parser.Parser.translateInput Pages: 1 -->
<svg width="1164pt" height="94pt"
 viewBox="0.00 0.00 1164.00 94.00" xmlns="http://www.w3.org/2000/svg" xmlns:xlink="http://www.w3.org/1999/xlink">
<g id="graph0" class="graph" transform="scale(1 1) rotate(0) translate(4 90)">
<title>parser.Parser.translateInput</title>
<polygon fill="white" stroke="none" points="-4,4 -4,-90 1160,-90 1160,4 -4,4"/>
<!-- Node1 -->
<g id="node1" class="node"><title>Node1</title>
<polygon fill="#bfbfbf" stroke="black" points="0.5,-22.5 0.5,-41.5 149.5,-41.5 149.5,-22.5 0.5,-22.5"/>
<text text-anchor="middle" x="75" y="-29.5" font-family="Helvetica,sans-Serif" font-size="10.00">parser.Parser.translateInput</text>
</g>
<!-- Node2 -->
<g id="node2" class="node"><title>Node2</title>
<g id="a_node2"><a xlink:href="../../d6/d95/classparser_1_1_parser.html#af3d0cef45b9f02f1707959c08d8f3797" target="_top" xlink:title="parser.Parser.parse">
<polygon fill="white" stroke="black" points="186.5,-22.5 186.5,-41.5 295.5,-41.5 295.5,-22.5 186.5,-22.5"/>
<text text-anchor="middle" x="241" y="-29.5" font-family="Helvetica,sans-Serif" font-size="10.00">parser.Parser.parse</text>
</a>
</g>
</g>
<!-- Node1&#45;&gt;Node2 -->
<g id="edge1" class="edge"><title>Node1&#45;&gt;Node2</title>
<path fill="none" stroke="midnightblue" d="M159.919,-32C168.852,-32 177.754,-32 186.201,-32"/>
<polygon fill="midnightblue" stroke="midnightblue" points="159.844,-28.5001 149.844,-32 159.844,-35.5001 159.844,-28.5001"/>
</g>
<!-- Node3 -->
<g id="node3" class="node"><title>Node3</title>
<g id="a_node3"><a xlink:href="../../d6/d95/classparser_1_1_parser.html#ae90f8410be9931ec3f349085c8fdae71" target="_top" xlink:title="parser.Parser.parseFile">
<polygon fill="white" stroke="black" points="345,-66.5 345,-85.5 469,-85.5 469,-66.5 345,-66.5"/>
<text text-anchor="middle" x="407" y="-73.5" font-family="Helvetica,sans-Serif" font-size="10.00">parser.Parser.parseFile</text>
</a>
</g>
</g>
<!-- Node2&#45;&gt;Node3 -->
<g id="edge2" class="edge"><title>Node2&#45;&gt;Node3</title>
<path fill="none" stroke="midnightblue" d="M287.304,-44.1547C313.547,-51.1955 346.107,-59.9312 370.484,-66.4713"/>
<polygon fill="midnightblue" stroke="midnightblue" points="288.151,-40.7583 277.586,-41.5473 286.337,-47.5192 288.151,-40.7583"/>
</g>
<!-- Node8 -->
<g id="node8" class="node"><title>Node8</title>
<g id="a_node8"><a xlink:href="../../d4/d06/classinput_1_1_input_executor.html#a687a9f2cbed5d27a2c7b1336a1cab8aa" target="_top" xlink:title="input.InputExecutor.process\lInput">
<polygon fill="white" stroke="black" points="332.5,-17 332.5,-47 481.5,-47 481.5,-17 332.5,-17"/>
<text text-anchor="start" x="340.5" y="-35" font-family="Helvetica,sans-Serif" font-size="10.00">input.InputExecutor.process</text>
<text text-anchor="middle" x="407" y="-24" font-family="Helvetica,sans-Serif" font-size="10.00">Input</text>
</a>
</g>
</g>
<!-- Node2&#45;&gt;Node8 -->
<g id="edge7" class="edge"><title>Node2&#45;&gt;Node8</title>
<path fill="none" stroke="midnightblue" d="M305.734,-32C314.416,-32 323.386,-32 332.227,-32"/>
<polygon fill="midnightblue" stroke="midnightblue" points="305.7,-28.5001 295.7,-32 305.7,-35.5001 305.7,-28.5001"/>
</g>
<!-- Node9 -->
<g id="node9" class="node"><title>Node9</title>
<g id="a_node9"><a xlink:href="../../d5/d56/class_workspace.html#a0ed8fb487512971086b6f3ed0d74e4ae" target="_top" xlink:title="Workspace.sendUserInput">
<polygon fill="white" stroke="black" points="523,-0.5 523,-19.5 663,-19.5 663,-0.5 523,-0.5"/>
<text text-anchor="middle" x="593" y="-7.5" font-family="Helvetica,sans-Serif" font-size="10.00">Workspace.sendUserInput</text>
</a>
</g>
</g>
<!-- Node2&#45;&gt;Node9 -->
<g id="edge8" class="edge"><title>Node2&#45;&gt;Node9</title>
<path fill="none" stroke="midnightblue" d="M278.76,-19.3601C294.886,-14.4513 314.17,-9.43044 332,-7 396.297,1.7642 470.366,-0.260129 522.959,-3.7204"/>
<polygon fill="midnightblue" stroke="midnightblue" points="277.657,-16.0379 269.168,-22.3779 279.758,-22.7153 277.657,-16.0379"/>
</g>
<!-- Node4 -->
<g id="node4" class="node"><title>Node4</title>
<g id="a_node4"><a xlink:href="../../d9/de8/class_file_chooser_feature.html#ad742b8e9d07e8151f0a9ff1972867ce8" target="_top" xlink:title="FileChooserFeature.openFile\lChooser">
<polygon fill="white" stroke="black" points="518.5,-50 518.5,-80 667.5,-80 667.5,-50 518.5,-50"/>
<text text-anchor="start" x="526.5" y="-68" font-family="Helvetica,sans-Serif" font-size="10.00">FileChooserFeature.openFile</text>
<text text-anchor="middle" x="593" y="-57" font-family="Helvetica,sans-Serif" font-size="10.00">Chooser</text>
</a>
</g>
</g>
<!-- Node3&#45;&gt;Node4 -->
<g id="edge3" class="edge"><title>Node3&#45;&gt;Node4</title>
<path fill="none" stroke="midnightblue" d="M479.173,-71.7451C492.02,-70.9771 505.439,-70.1749 518.354,-69.4027"/>
<polygon fill="midnightblue" stroke="midnightblue" points="478.787,-68.2618 469.014,-72.3524 479.205,-75.2493 478.787,-68.2618"/>
</g>
<!-- Node5 -->
<g id="node5" class="node"><title>Node5</title>
<g id="a_node5"><a xlink:href="../../d5/d56/class_workspace.html#a6babd032d9af86fbc23812272d59a2d2" target="_top" xlink:title="Workspace.addFeatureButtons">
<polygon fill="white" stroke="black" points="704,-50.5 704,-69.5 866,-69.5 866,-50.5 704,-50.5"/>
<text text-anchor="middle" x="785" y="-57.5" font-family="Helvetica,sans-Serif" font-size="10.00">Workspace.addFeatureButtons</text>
</a>
</g>
</g>
<!-- Node4&#45;&gt;Node5 -->
<g id="edge4" class="edge"><title>Node4&#45;&gt;Node5</title>
<path fill="none" stroke="midnightblue" d="M677.768,-62.7956C686.382,-62.5689 695.121,-62.3389 703.697,-62.1132"/>
<polygon fill="midnightblue" stroke="midnightblue" points="677.635,-59.2978 667.731,-63.0597 677.82,-66.2953 677.635,-59.2978"/>
</g>
<!-- Node6 -->
<g id="node6" class="node"><title>Node6</title>
<g id="a_node6"><a xlink:href="../../d5/d56/class_workspace.html#a429d535dfd8427637b7715f0b1e1df1b" target="_top" xlink:title="Workspace.createWorkspace">
<polygon fill="white" stroke="black" points="902,-29.5 902,-48.5 1054,-48.5 1054,-29.5 902,-29.5"/>
<text text-anchor="middle" x="978" y="-36.5" font-family="Helvetica,sans-Serif" font-size="10.00">Workspace.createWorkspace</text>
</a>
</g>
</g>
<!-- Node5&#45;&gt;Node6 -->
<g id="edge5" class="edge"><title>Node5&#45;&gt;Node6</title>
<path fill="none" stroke="midnightblue" d="M876.223,-50.0802C884.822,-49.1348 893.479,-48.183 901.912,-47.2557"/>
<polygon fill="midnightblue" stroke="midnightblue" points="875.729,-46.6134 866.171,-51.1854 876.494,-53.5714 875.729,-46.6134"/>
</g>
<!-- Node7 -->
<g id="node7" class="node"><title>Node7</title>
<g id="a_node7"><a xlink:href="../../d0/d4b/class_main.html#aaa75b38812324d0f17c89f139bde6ada" target="_top" xlink:title="Main.start">
<polygon fill="white" stroke="black" points="1090.5,-29.5 1090.5,-48.5 1155.5,-48.5 1155.5,-29.5 1090.5,-29.5"/>
<text text-anchor="middle" x="1123" y="-36.5" font-family="Helvetica,sans-Serif" font-size="10.00">Main.start</text>
</a>
</g>
</g>
<!-- Node6&#45;&gt;Node7 -->
<g id="edge6" class="edge"><title>Node6&#45;&gt;Node7</title>
<path fill="none" stroke="midnightblue" d="M1064.39,-39C1073.63,-39 1082.55,-39 1090.5,-39"/>
<polygon fill="midnightblue" stroke="midnightblue" points="1064.27,-35.5001 1054.27,-39 1064.27,-42.5001 1064.27,-35.5001"/>
</g>
<!-- Node9&#45;&gt;Node6 -->
<g id="edge9" class="edge"><title>Node9&#45;&gt;Node6</title>
<path fill="none" stroke="midnightblue" d="M673.466,-16.017C740.603,-21.1005 836.077,-28.3296 901.936,-33.3163"/>
<polygon fill="midnightblue" stroke="midnightblue" points="673.594,-12.5168 663.358,-15.2517 673.066,-19.4968 673.594,-12.5168"/>
</g>
</g>
</svg>
