<?xml version="1.0" encoding="UTF-8" standalone="no"?>
<!DOCTYPE svg PUBLIC "-//W3C//DTD SVG 1.1//EN"
 "http://www.w3.org/Graphics/SVG/1.1/DTD/svg11.dtd">
<!-- Generated by graphviz version 2.36.0 (20140111.2315)
 -->
<!-- Title: parser.Parser.buildSpaceSeparatedString Pages: 1 -->
<svg width="1334pt" height="119pt"
 viewBox="0.00 0.00 1334.00 119.00" xmlns="http://www.w3.org/2000/svg" xmlns:xlink="http://www.w3.org/1999/xlink">
<g id="graph0" class="graph" transform="scale(1 1) rotate(0) translate(4 115)">
<title>parser.Parser.buildSpaceSeparatedString</title>
<polygon fill="white" stroke="none" points="-4,4 -4,-115 1330,-115 1330,4 -4,4"/>
<!-- Node1 -->
<g id="node1" class="node"><title>Node1</title>
<polygon fill="#bfbfbf" stroke="black" points="0,-37 0,-67 134,-67 134,-37 0,-37"/>
<text text-anchor="start" x="8" y="-55" font-family="Helvetica,sans-Serif" font-size="10.00">parser.Parser.buildSpace</text>
<text text-anchor="middle" x="67" y="-44" font-family="Helvetica,sans-Serif" font-size="10.00">SeparatedString</text>
</g>
<!-- Node2 -->
<g id="node2" class="node"><title>Node2</title>
<g id="a_node2"><a xlink:href="../../d6/d95/classparser_1_1_parser.html#af2dce565c34c122eb0a50ffd27b5f53a" target="_top" xlink:title="parser.Parser.translateInput">
<polygon fill="white" stroke="black" points="170.5,-42.5 170.5,-61.5 319.5,-61.5 319.5,-42.5 170.5,-42.5"/>
<text text-anchor="middle" x="245" y="-49.5" font-family="Helvetica,sans-Serif" font-size="10.00">parser.Parser.translateInput</text>
</a>
</g>
</g>
<!-- Node1&#45;&gt;Node2 -->
<g id="edge1" class="edge"><title>Node1&#45;&gt;Node2</title>
<path fill="none" stroke="midnightblue" d="M144.108,-52C152.766,-52 161.58,-52 170.208,-52"/>
<polygon fill="midnightblue" stroke="midnightblue" points="144.037,-48.5001 134.037,-52 144.037,-55.5001 144.037,-48.5001"/>
</g>
<!-- Node3 -->
<g id="node3" class="node"><title>Node3</title>
<g id="a_node3"><a xlink:href="../../d6/d95/classparser_1_1_parser.html#af3d0cef45b9f02f1707959c08d8f3797" target="_top" xlink:title="parser.Parser.parse">
<polygon fill="white" stroke="black" points="356.5,-42.5 356.5,-61.5 465.5,-61.5 465.5,-42.5 356.5,-42.5"/>
<text text-anchor="middle" x="411" y="-49.5" font-family="Helvetica,sans-Serif" font-size="10.00">parser.Parser.parse</text>
</a>
</g>
</g>
<!-- Node2&#45;&gt;Node3 -->
<g id="edge2" class="edge"><title>Node2&#45;&gt;Node3</title>
<path fill="none" stroke="midnightblue" d="M329.919,-52C338.852,-52 347.754,-52 356.201,-52"/>
<polygon fill="midnightblue" stroke="midnightblue" points="329.844,-48.5001 319.844,-52 329.844,-55.5001 329.844,-48.5001"/>
</g>
<!-- Node4 -->
<g id="node4" class="node"><title>Node4</title>
<g id="a_node4"><a xlink:href="../../d4/d06/classinput_1_1_input_executor.html#a687a9f2cbed5d27a2c7b1336a1cab8aa" target="_top" xlink:title="input.InputExecutor.process\lInput">
<polygon fill="white" stroke="black" points="502.5,-81 502.5,-111 651.5,-111 651.5,-81 502.5,-81"/>
<text text-anchor="start" x="510.5" y="-99" font-family="Helvetica,sans-Serif" font-size="10.00">input.InputExecutor.process</text>
<text text-anchor="middle" x="577" y="-88" font-family="Helvetica,sans-Serif" font-size="10.00">Input</text>
</a>
</g>
</g>
<!-- Node3&#45;&gt;Node4 -->
<g id="edge3" class="edge"><title>Node3&#45;&gt;Node4</title>
<path fill="none" stroke="midnightblue" d="M457.356,-64.1687C476.696,-69.3574 499.459,-75.4646 519.847,-80.9346"/>
<polygon fill="midnightblue" stroke="midnightblue" points="458.151,-60.7583 447.586,-61.5473 456.337,-67.5192 458.151,-60.7583"/>
</g>
<!-- Node5 -->
<g id="node5" class="node"><title>Node5</title>
<g id="a_node5"><a xlink:href="../../d6/d95/classparser_1_1_parser.html#ae90f8410be9931ec3f349085c8fdae71" target="_top" xlink:title="parser.Parser.parseFile">
<polygon fill="white" stroke="black" points="515,-42.5 515,-61.5 639,-61.5 639,-42.5 515,-42.5"/>
<text text-anchor="middle" x="577" y="-49.5" font-family="Helvetica,sans-Serif" font-size="10.00">parser.Parser.parseFile</text>
</a>
</g>
</g>
<!-- Node3&#45;&gt;Node5 -->
<g id="edge4" class="edge"><title>Node3&#45;&gt;Node5</title>
<path fill="none" stroke="midnightblue" d="M475.816,-52C488.629,-52 502.065,-52 514.787,-52"/>
<polygon fill="midnightblue" stroke="midnightblue" points="475.7,-48.5001 465.7,-52 475.7,-55.5001 475.7,-48.5001"/>
</g>
<!-- Node10 -->
<g id="node10" class="node"><title>Node10</title>
<g id="a_node10"><a xlink:href="../../d5/d56/class_workspace.html#a0ed8fb487512971086b6f3ed0d74e4ae" target="_top" xlink:title="Workspace.sendUserInput">
<polygon fill="white" stroke="black" points="693,-0.5 693,-19.5 833,-19.5 833,-0.5 693,-0.5"/>
<text text-anchor="middle" x="763" y="-7.5" font-family="Helvetica,sans-Serif" font-size="10.00">Workspace.sendUserInput</text>
</a>
</g>
</g>
<!-- Node3&#45;&gt;Node10 -->
<g id="edge9" class="edge"><title>Node3&#45;&gt;Node10</title>
<path fill="none" stroke="midnightblue" d="M462.234,-40.2843C475.139,-37.5809 489.039,-34.9343 502,-33 566.315,-23.4018 640.222,-17.3372 692.759,-13.8606"/>
<polygon fill="midnightblue" stroke="midnightblue" points="461.178,-36.9313 452.135,-42.4521 462.647,-43.7754 461.178,-36.9313"/>
</g>
<!-- Node6 -->
<g id="node6" class="node"><title>Node6</title>
<g id="a_node6"><a xlink:href="../../d9/de8/class_file_chooser_feature.html#ad742b8e9d07e8151f0a9ff1972867ce8" target="_top" xlink:title="FileChooserFeature.openFile\lChooser">
<polygon fill="white" stroke="black" points="688.5,-39 688.5,-69 837.5,-69 837.5,-39 688.5,-39"/>
<text text-anchor="start" x="696.5" y="-57" font-family="Helvetica,sans-Serif" font-size="10.00">FileChooserFeature.openFile</text>
<text text-anchor="middle" x="763" y="-46" font-family="Helvetica,sans-Serif" font-size="10.00">Chooser</text>
</a>
</g>
</g>
<!-- Node5&#45;&gt;Node6 -->
<g id="edge5" class="edge"><title>Node5&#45;&gt;Node6</title>
<path fill="none" stroke="midnightblue" d="M649.173,-52.7736C662.02,-52.9133 675.439,-53.0591 688.354,-53.1995"/>
<polygon fill="midnightblue" stroke="midnightblue" points="649.051,-49.2722 639.014,-52.6632 648.975,-56.2718 649.051,-49.2722"/>
</g>
<!-- Node7 -->
<g id="node7" class="node"><title>Node7</title>
<g id="a_node7"><a xlink:href="../../d5/d56/class_workspace.html#a6babd032d9af86fbc23812272d59a2d2" target="_top" xlink:title="Workspace.addFeatureButtons">
<polygon fill="white" stroke="black" points="874,-42.5 874,-61.5 1036,-61.5 1036,-42.5 874,-42.5"/>
<text text-anchor="middle" x="955" y="-49.5" font-family="Helvetica,sans-Serif" font-size="10.00">Workspace.addFeatureButtons</text>
</a>
</g>
</g>
<!-- Node6&#45;&gt;Node7 -->
<g id="edge6" class="edge"><title>Node6&#45;&gt;Node7</title>
<path fill="none" stroke="midnightblue" d="M847.768,-53.1182C856.382,-53.0276 865.121,-52.9356 873.697,-52.8453"/>
<polygon fill="midnightblue" stroke="midnightblue" points="847.693,-49.6187 837.731,-53.2239 847.767,-56.6183 847.693,-49.6187"/>
</g>
<!-- Node8 -->
<g id="node8" class="node"><title>Node8</title>
<g id="a_node8"><a xlink:href="../../d5/d56/class_workspace.html#a429d535dfd8427637b7715f0b1e1df1b" target="_top" xlink:title="Workspace.createWorkspace">
<polygon fill="white" stroke="black" points="1072,-22.5 1072,-41.5 1224,-41.5 1224,-22.5 1072,-22.5"/>
<text text-anchor="middle" x="1148" y="-29.5" font-family="Helvetica,sans-Serif" font-size="10.00">Workspace.createWorkspace</text>
</a>
</g>
</g>
<!-- Node7&#45;&gt;Node8 -->
<g id="edge7" class="edge"><title>Node7&#45;&gt;Node8</title>
<path fill="none" stroke="midnightblue" d="M1046.22,-42.5526C1054.82,-41.6521 1063.48,-40.7457 1071.91,-39.8626"/>
<polygon fill="midnightblue" stroke="midnightblue" points="1045.75,-39.0826 1036.17,-43.6051 1046.48,-46.0446 1045.75,-39.0826"/>
</g>
<!-- Node9 -->
<g id="node9" class="node"><title>Node9</title>
<g id="a_node9"><a xlink:href="../../d0/d4b/class_main.html#aaa75b38812324d0f17c89f139bde6ada" target="_top" xlink:title="Main.start">
<polygon fill="white" stroke="black" points="1260.5,-22.5 1260.5,-41.5 1325.5,-41.5 1325.5,-22.5 1260.5,-22.5"/>
<text text-anchor="middle" x="1293" y="-29.5" font-family="Helvetica,sans-Serif" font-size="10.00">Main.start</text>
</a>
</g>
</g>
<!-- Node8&#45;&gt;Node9 -->
<g id="edge8" class="edge"><title>Node8&#45;&gt;Node9</title>
<path fill="none" stroke="midnightblue" d="M1234.39,-32C1243.63,-32 1252.55,-32 1260.5,-32"/>
<polygon fill="midnightblue" stroke="midnightblue" points="1234.27,-28.5001 1224.27,-32 1234.27,-35.5001 1234.27,-28.5001"/>
</g>
<!-- Node10&#45;&gt;Node8 -->
<g id="edge10" class="edge"><title>Node10&#45;&gt;Node8</title>
<path fill="none" stroke="midnightblue" d="M843.466,-14.5646C910.603,-18.4211 1006.08,-23.9052 1071.94,-27.6882"/>
<polygon fill="midnightblue" stroke="midnightblue" points="843.543,-11.0634 833.358,-13.984 843.141,-18.0518 843.543,-11.0634"/>
</g>
</g>
</svg>
