<?xml version="1.0" encoding="UTF-8" standalone="no"?>
<!DOCTYPE svg PUBLIC "-//W3C//DTD SVG 1.1//EN"
 "http://www.w3.org/Graphics/SVG/1.1/DTD/svg11.dtd">
<!-- Generated by graphviz version 2.36.0 (20140111.2315)
 -->
<!-- Title: parser.Parser.readFile Pages: 1 -->
<svg width="962pt" height="38pt"
 viewBox="0.00 0.00 962.00 38.00" xmlns="http://www.w3.org/2000/svg" xmlns:xlink="http://www.w3.org/1999/xlink">
<g id="graph0" class="graph" transform="scale(1 1) rotate(0) translate(4 34)">
<title>parser.Parser.readFile</title>
<polygon fill="white" stroke="none" points="-4,4 -4,-34 958,-34 958,4 -4,4"/>
<!-- Node1 -->
<g id="node1" class="node"><title>Node1</title>
<polygon fill="#bfbfbf" stroke="black" points="0.5,-5.5 0.5,-24.5 119.5,-24.5 119.5,-5.5 0.5,-5.5"/>
<text text-anchor="middle" x="60" y="-12.5" font-family="Helvetica,sans-Serif" font-size="10.00">parser.Parser.readFile</text>
</g>
<!-- Node2 -->
<g id="node2" class="node"><title>Node2</title>
<g id="a_node2"><a xlink:href="../../d6/d95/classparser_1_1_parser.html#ae90f8410be9931ec3f349085c8fdae71" target="_top" xlink:title="parser.Parser.parseFile">
<polygon fill="white" stroke="black" points="156,-5.5 156,-24.5 280,-24.5 280,-5.5 156,-5.5"/>
<text text-anchor="middle" x="218" y="-12.5" font-family="Helvetica,sans-Serif" font-size="10.00">parser.Parser.parseFile</text>
</a>
</g>
</g>
<!-- Node1&#45;&gt;Node2 -->
<g id="edge1" class="edge"><title>Node1&#45;&gt;Node2</title>
<path fill="none" stroke="midnightblue" d="M129.652,-15C138.356,-15 147.218,-15 155.795,-15"/>
<polygon fill="midnightblue" stroke="midnightblue" points="129.533,-11.5001 119.532,-15 129.532,-18.5001 129.533,-11.5001"/>
</g>
<!-- Node3 -->
<g id="node3" class="node"><title>Node3</title>
<g id="a_node3"><a xlink:href="../../d9/de8/class_file_chooser_feature.html#ad742b8e9d07e8151f0a9ff1972867ce8" target="_top" xlink:title="FileChooserFeature.openFile\lChooser">
<polygon fill="white" stroke="black" points="316.5,-0 316.5,-30 465.5,-30 465.5,-0 316.5,-0"/>
<text text-anchor="start" x="324.5" y="-18" font-family="Helvetica,sans-Serif" font-size="10.00">FileChooserFeature.openFile</text>
<text text-anchor="middle" x="391" y="-7" font-family="Helvetica,sans-Serif" font-size="10.00">Chooser</text>
</a>
</g>
</g>
<!-- Node2&#45;&gt;Node3 -->
<g id="edge2" class="edge"><title>Node2&#45;&gt;Node3</title>
<path fill="none" stroke="midnightblue" d="M290.532,-15C299.057,-15 307.773,-15 316.327,-15"/>
<polygon fill="midnightblue" stroke="midnightblue" points="290.252,-11.5001 280.252,-15 290.252,-18.5001 290.252,-11.5001"/>
</g>
<!-- Node4 -->
<g id="node4" class="node"><title>Node4</title>
<g id="a_node4"><a xlink:href="../../d5/d56/class_workspace.html#a6babd032d9af86fbc23812272d59a2d2" target="_top" xlink:title="Workspace.addFeatureButtons">
<polygon fill="white" stroke="black" points="502,-5.5 502,-24.5 664,-24.5 664,-5.5 502,-5.5"/>
<text text-anchor="middle" x="583" y="-12.5" font-family="Helvetica,sans-Serif" font-size="10.00">Workspace.addFeatureButtons</text>
</a>
</g>
</g>
<!-- Node3&#45;&gt;Node4 -->
<g id="edge3" class="edge"><title>Node3&#45;&gt;Node4</title>
<path fill="none" stroke="midnightblue" d="M475.768,-15C484.382,-15 493.121,-15 501.697,-15"/>
<polygon fill="midnightblue" stroke="midnightblue" points="475.731,-11.5001 465.731,-15 475.731,-18.5001 475.731,-11.5001"/>
</g>
<!-- Node5 -->
<g id="node5" class="node"><title>Node5</title>
<g id="a_node5"><a xlink:href="../../d5/d56/class_workspace.html#a429d535dfd8427637b7715f0b1e1df1b" target="_top" xlink:title="Workspace.createWorkspace">
<polygon fill="white" stroke="black" points="700,-5.5 700,-24.5 852,-24.5 852,-5.5 700,-5.5"/>
<text text-anchor="middle" x="776" y="-12.5" font-family="Helvetica,sans-Serif" font-size="10.00">Workspace.createWorkspace</text>
</a>
</g>
</g>
<!-- Node4&#45;&gt;Node5 -->
<g id="edge4" class="edge"><title>Node4&#45;&gt;Node5</title>
<path fill="none" stroke="midnightblue" d="M674.223,-15C682.822,-15 691.479,-15 699.912,-15"/>
<polygon fill="midnightblue" stroke="midnightblue" points="674.171,-11.5001 664.171,-15 674.171,-18.5001 674.171,-11.5001"/>
</g>
<!-- Node6 -->
<g id="node6" class="node"><title>Node6</title>
<g id="a_node6"><a xlink:href="../../d0/d4b/class_main.html#aaa75b38812324d0f17c89f139bde6ada" target="_top" xlink:title="Main.start">
<polygon fill="white" stroke="black" points="888.5,-5.5 888.5,-24.5 953.5,-24.5 953.5,-5.5 888.5,-5.5"/>
<text text-anchor="middle" x="921" y="-12.5" font-family="Helvetica,sans-Serif" font-size="10.00">Main.start</text>
</a>
</g>
</g>
<!-- Node5&#45;&gt;Node6 -->
<g id="edge5" class="edge"><title>Node5&#45;&gt;Node6</title>
<path fill="none" stroke="midnightblue" d="M862.392,-15C871.632,-15 880.551,-15 888.498,-15"/>
<polygon fill="midnightblue" stroke="midnightblue" points="862.269,-11.5001 852.269,-15 862.269,-18.5001 862.269,-11.5001"/>
</g>
</g>
</svg>
