<?xml version="1.0" encoding="UTF-8" standalone="no"?>
<!DOCTYPE svg PUBLIC "-//W3C//DTD SVG 1.1//EN"
 "http://www.w3.org/Graphics/SVG/1.1/DTD/svg11.dtd">
<!-- Generated by graphviz version 2.36.0 (20140111.2315)
 -->
<!-- Title: parser.Parser.createLogoParser Pages: 1 -->
<svg width="434pt" height="77pt"
 viewBox="0.00 0.00 434.00 77.00" xmlns="http://www.w3.org/2000/svg" xmlns:xlink="http://www.w3.org/1999/xlink">
<g id="graph0" class="graph" transform="scale(1 1) rotate(0) translate(4 73)">
<title>parser.Parser.createLogoParser</title>
<polygon fill="white" stroke="none" points="-4,4 -4,-73 430,-73 430,4 -4,4"/>
<!-- Node1 -->
<g id="node1" class="node"><title>Node1</title>
<polygon fill="#bfbfbf" stroke="black" points="0,-22 0,-52 136,-52 136,-22 0,-22"/>
<text text-anchor="start" x="8" y="-40" font-family="Helvetica,sans-Serif" font-size="10.00">parser.Parser.createLogo</text>
<text text-anchor="middle" x="68" y="-29" font-family="Helvetica,sans-Serif" font-size="10.00">Parser</text>
</g>
<!-- Node2 -->
<g id="node2" class="node"><title>Node2</title>
<g id="a_node2"><a xlink:href="../../d5/d56/class_workspace.html#a429d535dfd8427637b7715f0b1e1df1b" target="_top" xlink:title="Workspace.createWorkspace">
<polygon fill="white" stroke="black" points="172,-49.5 172,-68.5 324,-68.5 324,-49.5 172,-49.5"/>
<text text-anchor="middle" x="248" y="-56.5" font-family="Helvetica,sans-Serif" font-size="10.00">Workspace.createWorkspace</text>
</a>
</g>
</g>
<!-- Node1&#45;&gt;Node2 -->
<g id="edge1" class="edge"><title>Node1&#45;&gt;Node2</title>
<path fill="none" stroke="midnightblue" d="M146.045,-46.5224C154.643,-47.5851 163.392,-48.6665 171.965,-49.726"/>
<polygon fill="midnightblue" stroke="midnightblue" points="146.394,-43.039 136.041,-45.2859 145.536,-49.9862 146.394,-43.039"/>
</g>
<!-- Node4 -->
<g id="node4" class="node"><title>Node4</title>
<g id="a_node4"><a xlink:href="../../d4/d06/classinput_1_1_input_executor.html#a248f2064c29a6bc5f14a48df3361262c" target="_top" xlink:title="input.InputExecutor.Input\lExecutor">
<polygon fill="white" stroke="black" points="180,-0 180,-30 316,-30 316,-0 180,-0"/>
<text text-anchor="start" x="188" y="-18" font-family="Helvetica,sans-Serif" font-size="10.00">input.InputExecutor.Input</text>
<text text-anchor="middle" x="248" y="-7" font-family="Helvetica,sans-Serif" font-size="10.00">Executor</text>
</a>
</g>
</g>
<!-- Node1&#45;&gt;Node4 -->
<g id="edge3" class="edge"><title>Node1&#45;&gt;Node4</title>
<path fill="none" stroke="midnightblue" d="M146.2,-27.4584C157.362,-26.0788 168.777,-24.668 179.724,-23.315"/>
<polygon fill="midnightblue" stroke="midnightblue" points="145.536,-24.0138 136.041,-28.7141 146.394,-30.961 145.536,-24.0138"/>
</g>
<!-- Node3 -->
<g id="node3" class="node"><title>Node3</title>
<g id="a_node3"><a xlink:href="../../d0/d4b/class_main.html#aaa75b38812324d0f17c89f139bde6ada" target="_top" xlink:title="Main.start">
<polygon fill="white" stroke="black" points="360.5,-49.5 360.5,-68.5 425.5,-68.5 425.5,-49.5 360.5,-49.5"/>
<text text-anchor="middle" x="393" y="-56.5" font-family="Helvetica,sans-Serif" font-size="10.00">Main.start</text>
</a>
</g>
</g>
<!-- Node2&#45;&gt;Node3 -->
<g id="edge2" class="edge"><title>Node2&#45;&gt;Node3</title>
<path fill="none" stroke="midnightblue" d="M334.392,-59C343.632,-59 352.551,-59 360.498,-59"/>
<polygon fill="midnightblue" stroke="midnightblue" points="334.269,-55.5001 324.269,-59 334.269,-62.5001 334.269,-55.5001"/>
</g>
</g>
</svg>
