<?xml version="1.0" encoding="UTF-8" standalone="no"?>
<!DOCTYPE svg PUBLIC "-//W3C//DTD SVG 1.1//EN"
 "http://www.w3.org/Graphics/SVG/1.1/DTD/svg11.dtd">
<!-- Generated by graphviz version 2.36.0 (20140111.2315)
 -->
<!-- Title: commands.MovementCommand.execute Pages: 1 -->
<!--zoomable 473 -->
<svg id="main" version="1.1" xmlns="http://www.w3.org/2000/svg" xmlns:xlink="http://www.w3.org/1999/xlink" xml:space="preserve" onload="init(evt)">
<style type="text/css"><![CDATA[
.edge:hover path { stroke: red; }
.edge:hover polygon { stroke: red; fill: red; }
]]></style>
<script type="text/javascript"><![CDATA[
var edges = document.getElementsByTagName('g');
if (edges && edges.length) {
  for (var i=0;i<edges.length;i++) {
    if (edges[i].id.substr(0,4)=='edge') {
      edges[i].setAttribute('class','edge');
    }
  }
}
]]></script>
        <defs>
                <circle id="rim" cx="0" cy="0" r="7"/>
                <circle id="rim2" cx="0" cy="0" r="3.5"/>
                <g id="zoomPlus">
                        <use xlink:href="#rim" fill="#404040">
                                <set attributeName="fill" to="#808080" begin="zoomplus.mouseover" end="zoomplus.mouseout"/>
                        </use>
                        <path d="M-4,0h8M0,-4v8" fill="none" stroke="white" stroke-width="1.5" pointer-events="none"/>
                </g>
                <g id="zoomMin">
                        <use xlink:href="#rim" fill="#404040">
                                <set attributeName="fill" to="#808080" begin="zoomminus.mouseover" end="zoomminus.mouseout"/>
                        </use>
                        <path d="M-4,0h8" fill="none" stroke="white" stroke-width="1.5" pointer-events="none"/>
                </g>
                <g id="dirArrow">
                        <path fill="none" stroke="white" stroke-width="1.5" d="M0,-3.0v7 M-2.5,-0.5L0,-3.0L2.5,-0.5"/>
                </g>
               <g id="resetDef">
                       <use xlink:href="#rim2" fill="#404040">
                               <set attributeName="fill" to="#808080" begin="reset.mouseover" end="reset.mouseout"/>
                       </use>
               </g>
        </defs>

<script type="text/javascript">
var viewWidth = 450;
var viewHeight = 473;
var sectionId = 'dynsection-2';
</script>
<script xlink:href="../../svgpan.js"/>
<svg id="graph" class="graph">
<g id="viewport">
<title>commands.MovementCommand.execute</title>
<polygon fill="white" stroke="none" points="-4,4 -4,-469 446,-469 446,4 -4,4"/>
<!-- Node1 -->
<g id="node1" class="node"><title>Node1</title>
<polygon fill="#bfbfbf" stroke="black" points="0,-244.5 0,-263.5 216,-263.5 216,-244.5 0,-244.5"/>
<text text-anchor="middle" x="108" y="-251.5" font-family="Helvetica,sans-Serif" font-size="10.00">commands.MovementCommand.execute</text>
</g>
<!-- Node2 -->
<g id="node2" class="node"><title>Node2</title>
<g id="a_node2"><a xlink:href="../../d1/d2a/class_movement_and_image_a_p_i_1_1src_1_1_general_turtle_handler.html#a161e33a15866eb7a11dd386058858ae5" target="_top" xlink:title="MovementAndImageAPI.src.\lGeneralTurtleHandler.clearLines">
<polygon fill="white" stroke="black" points="263.5,-435 263.5,-465 430.5,-465 430.5,-435 263.5,-435"/>
<text text-anchor="start" x="271.5" y="-453" font-family="Helvetica,sans-Serif" font-size="10.00">MovementAndImageAPI.src.</text>
<text text-anchor="middle" x="347" y="-442" font-family="Helvetica,sans-Serif" font-size="10.00">GeneralTurtleHandler.clearLines</text>
</a>
</g>
</g>
<!-- Node1&#45;&gt;Node2 -->
<g id="edge1" class="edge"><title>Node1&#45;&gt;Node2</title>
<path fill="none" stroke="midnightblue" d="M114.088,-263.512C130.145,-292.579 182.8,-380.924 252,-425 255.349,-427.133 258.876,-429.086 262.521,-430.872"/>
<polygon fill="midnightblue" stroke="midnightblue" points="261.224,-434.126 271.785,-434.981 264.062,-427.727 261.224,-434.126"/>
</g>
<!-- Node3 -->
<g id="node3" class="node"><title>Node3</title>
<g id="a_node3"><a xlink:href="../../d1/d2a/class_movement_and_image_a_p_i_1_1src_1_1_general_turtle_handler.html#a24933b257c271e44edca95d381b75915" target="_top" xlink:title="MovementAndImageAPI.src.\lGeneralTurtleHandler.setLineWidth">
<polygon fill="white" stroke="black" points="257,-386 257,-416 437,-416 437,-386 257,-386"/>
<text text-anchor="start" x="265" y="-404" font-family="Helvetica,sans-Serif" font-size="10.00">MovementAndImageAPI.src.</text>
<text text-anchor="middle" x="347" y="-393" font-family="Helvetica,sans-Serif" font-size="10.00">GeneralTurtleHandler.setLineWidth</text>
</a>
</g>
</g>
<!-- Node1&#45;&gt;Node3 -->
<g id="edge2" class="edge"><title>Node1&#45;&gt;Node3</title>
<path fill="none" stroke="midnightblue" d="M117.306,-263.565C137.791,-286.544 193.336,-345.225 252,-376 256.465,-378.342 261.168,-380.478 265.991,-382.425"/>
<polygon fill="midnightblue" stroke="midnightblue" points="264.793,-385.713 275.386,-385.937 267.245,-379.157 264.793,-385.713"/>
</g>
<!-- Node4 -->
<g id="node4" class="node"><title>Node4</title>
<g id="a_node4"><a xlink:href="../../d1/d2a/class_movement_and_image_a_p_i_1_1src_1_1_general_turtle_handler.html#a2c0d684dd6a1066c8eace622967e0893" target="_top" xlink:title="MovementAndImageAPI.src.\lGeneralTurtleHandler.setPenPosition">
<polygon fill="white" stroke="black" points="252,-337 252,-367 442,-367 442,-337 252,-337"/>
<text text-anchor="start" x="260" y="-355" font-family="Helvetica,sans-Serif" font-size="10.00">MovementAndImageAPI.src.</text>
<text text-anchor="middle" x="347" y="-344" font-family="Helvetica,sans-Serif" font-size="10.00">GeneralTurtleHandler.setPenPosition</text>
</a>
</g>
</g>
<!-- Node1&#45;&gt;Node4 -->
<g id="edge3" class="edge"><title>Node1&#45;&gt;Node4</title>
<path fill="none" stroke="midnightblue" d="M125.207,-263.72C151.187,-278.964 204.108,-308.646 252,-327 258.613,-329.534 265.582,-331.909 272.613,-334.109"/>
<polygon fill="midnightblue" stroke="midnightblue" points="271.626,-337.467 282.211,-336.998 273.644,-330.764 271.626,-337.467"/>
</g>
<!-- Node5 -->
<g id="node5" class="node"><title>Node5</title>
<g id="a_node5"><a xlink:href="../../d1/d2a/class_movement_and_image_a_p_i_1_1src_1_1_general_turtle_handler.html#ae445e13b00999d81594c72572670d2a9" target="_top" xlink:title="MovementAndImageAPI.src.\lGeneralTurtleHandler.towards">
<polygon fill="white" stroke="black" points="268.5,-288 268.5,-318 425.5,-318 425.5,-288 268.5,-288"/>
<text text-anchor="start" x="276.5" y="-306" font-family="Helvetica,sans-Serif" font-size="10.00">MovementAndImageAPI.src.</text>
<text text-anchor="middle" x="347" y="-295" font-family="Helvetica,sans-Serif" font-size="10.00">GeneralTurtleHandler.towards</text>
</a>
</g>
</g>
<!-- Node1&#45;&gt;Node5 -->
<g id="edge4" class="edge"><title>Node1&#45;&gt;Node5</title>
<path fill="none" stroke="midnightblue" d="M154.977,-263.506C185.615,-269.84 226.762,-278.347 263.02,-285.844"/>
<polygon fill="midnightblue" stroke="midnightblue" points="262.603,-289.331 273.104,-287.929 264.02,-282.476 262.603,-289.331"/>
</g>
<!-- Node6 -->
<g id="node6" class="node"><title>Node6</title>
<g id="a_node6"><a xlink:href="../../d7/d15/classcommands_1_1_commands_turtle.html#aad97dd16144882ea39321c7a2867bd2f" target="_top" xlink:title="commands.CommandsTurtle.turtle\lHandler">
<polygon fill="white" stroke="black" points="255.5,-239 255.5,-269 438.5,-269 438.5,-239 255.5,-239"/>
<text text-anchor="start" x="263.5" y="-257" font-family="Helvetica,sans-Serif" font-size="10.00">commands.CommandsTurtle.turtle</text>
<text text-anchor="middle" x="347" y="-246" font-family="Helvetica,sans-Serif" font-size="10.00">Handler</text>
</a>
</g>
</g>
<!-- Node1&#45;&gt;Node6 -->
<g id="edge5" class="edge"><title>Node1&#45;&gt;Node6</title>
<path fill="none" stroke="midnightblue" d="M216.059,-254C225.801,-254 235.647,-254 245.33,-254"/>
<polygon fill="midnightblue" stroke="midnightblue" points="245.351,-257.5 255.351,-254 245.351,-250.5 245.351,-257.5"/>
</g>
<!-- Node7 -->
<g id="node7" class="node"><title>Node7</title>
<g id="a_node7"><a xlink:href="../../d1/d2a/class_movement_and_image_a_p_i_1_1src_1_1_general_turtle_handler.html#a610f60da990ccb5e44e49677ff660520" target="_top" xlink:title="MovementAndImageAPI.src.\lGeneralTurtleHandler.updateTurtle\lAbsoluteLocation">
<polygon fill="white" stroke="black" points="257.5,-179.5 257.5,-220.5 436.5,-220.5 436.5,-179.5 257.5,-179.5"/>
<text text-anchor="start" x="265.5" y="-208.5" font-family="Helvetica,sans-Serif" font-size="10.00">MovementAndImageAPI.src.</text>
<text text-anchor="start" x="265.5" y="-197.5" font-family="Helvetica,sans-Serif" font-size="10.00">GeneralTurtleHandler.updateTurtle</text>
<text text-anchor="middle" x="347" y="-186.5" font-family="Helvetica,sans-Serif" font-size="10.00">AbsoluteLocation</text>
</a>
</g>
</g>
<!-- Node1&#45;&gt;Node7 -->
<g id="edge6" class="edge"><title>Node1&#45;&gt;Node7</title>
<path fill="none" stroke="midnightblue" d="M150.825,-244.47C177.676,-238.352 213.73,-230.137 247.542,-222.433"/>
<polygon fill="midnightblue" stroke="midnightblue" points="248.506,-225.804 257.479,-220.169 246.951,-218.978 248.506,-225.804"/>
</g>
<!-- Node8 -->
<g id="node8" class="node"><title>Node8</title>
<g id="a_node8"><a xlink:href="../../d1/d2a/class_movement_and_image_a_p_i_1_1src_1_1_general_turtle_handler.html#acb4099ab708047cb310eba81ac30fb9c" target="_top" xlink:title="MovementAndImageAPI.src.\lGeneralTurtleHandler.updateTurtle\lAbsoluteOrientation">
<polygon fill="white" stroke="black" points="257.5,-119.5 257.5,-160.5 436.5,-160.5 436.5,-119.5 257.5,-119.5"/>
<text text-anchor="start" x="265.5" y="-148.5" font-family="Helvetica,sans-Serif" font-size="10.00">MovementAndImageAPI.src.</text>
<text text-anchor="start" x="265.5" y="-137.5" font-family="Helvetica,sans-Serif" font-size="10.00">GeneralTurtleHandler.updateTurtle</text>
<text text-anchor="middle" x="347" y="-126.5" font-family="Helvetica,sans-Serif" font-size="10.00">AbsoluteOrientation</text>
</a>
</g>
</g>
<!-- Node1&#45;&gt;Node8 -->
<g id="edge7" class="edge"><title>Node1&#45;&gt;Node8</title>
<path fill="none" stroke="midnightblue" d="M123.048,-244.311C148.048,-227.4 202.312,-192.191 252,-170 256.623,-167.935 261.431,-165.948 266.32,-164.047"/>
<polygon fill="midnightblue" stroke="midnightblue" points="267.657,-167.284 275.795,-160.5 265.203,-160.728 267.657,-167.284"/>
</g>
<!-- Node9 -->
<g id="node9" class="node"><title>Node9</title>
<g id="a_node9"><a xlink:href="../../d1/d2a/class_movement_and_image_a_p_i_1_1src_1_1_general_turtle_handler.html#a781deb87f1f26c7533116bf80d076b9b" target="_top" xlink:title="MovementAndImageAPI.src.\lGeneralTurtleHandler.updateTurtle\lLocation">
<polygon fill="white" stroke="black" points="257.5,-59.5 257.5,-100.5 436.5,-100.5 436.5,-59.5 257.5,-59.5"/>
<text text-anchor="start" x="265.5" y="-88.5" font-family="Helvetica,sans-Serif" font-size="10.00">MovementAndImageAPI.src.</text>
<text text-anchor="start" x="265.5" y="-77.5" font-family="Helvetica,sans-Serif" font-size="10.00">GeneralTurtleHandler.updateTurtle</text>
<text text-anchor="middle" x="347" y="-66.5" font-family="Helvetica,sans-Serif" font-size="10.00">Location</text>
</a>
</g>
</g>
<!-- Node1&#45;&gt;Node9 -->
<g id="edge8" class="edge"><title>Node1&#45;&gt;Node9</title>
<path fill="none" stroke="midnightblue" d="M115.873,-244.375C134.685,-218.718 189.782,-148.053 252,-110 254.85,-108.257 257.811,-106.606 260.849,-105.042"/>
<polygon fill="midnightblue" stroke="midnightblue" points="262.639,-108.066 270.166,-100.61 259.632,-101.745 262.639,-108.066"/>
</g>
<!-- Node10 -->
<g id="node10" class="node"><title>Node10</title>
<g id="a_node10"><a xlink:href="../../d1/d2a/class_movement_and_image_a_p_i_1_1src_1_1_general_turtle_handler.html#affeeb7ce141d56621503ecc12ed5e8dc" target="_top" xlink:title="MovementAndImageAPI.src.\lGeneralTurtleHandler.updateTurtle\lOrientation">
<polygon fill="white" stroke="black" points="257.5,0.5 257.5,-40.5 436.5,-40.5 436.5,0.5 257.5,0.5"/>
<text text-anchor="start" x="265.5" y="-28.5" font-family="Helvetica,sans-Serif" font-size="10.00">MovementAndImageAPI.src.</text>
<text text-anchor="start" x="265.5" y="-17.5" font-family="Helvetica,sans-Serif" font-size="10.00">GeneralTurtleHandler.updateTurtle</text>
<text text-anchor="middle" x="347" y="-6.5" font-family="Helvetica,sans-Serif" font-size="10.00">Orientation</text>
</a>
</g>
</g>
<!-- Node1&#45;&gt;Node10 -->
<g id="edge9" class="edge"><title>Node1&#45;&gt;Node10</title>
<path fill="none" stroke="midnightblue" d="M113.065,-244.218C127.142,-211.537 177.09,-105.098 252,-50 254.113,-48.4458 256.31,-46.9702 258.572,-45.5693"/>
<polygon fill="midnightblue" stroke="midnightblue" points="260.568,-48.4632 267.589,-40.5285 257.153,-42.3532 260.568,-48.4632"/>
</g>
</g>
</svg>
        <g id="navigator" transform="translate(0 0)" fill="#404254">
                <rect fill="#f2f5e9" fill-opacity="0.5" stroke="#606060" stroke-width=".5" x="0" y="0" width="60" height="60"/>
                <use id="zoomplus" xlink:href="#zoomPlus" x="17" y="9" onmousedown="handleZoom(evt,'in')"/>
                <use id="zoomminus" xlink:href="#zoomMin" x="42" y="9" onmousedown="handleZoom(evt,'out')"/>
                <use id="reset" xlink:href="#resetDef" x="30" y="36" onmousedown="handleReset()"/>
                <g id="arrowUp" xlink:href="#dirArrow" transform="translate(30 24)" onmousedown="handlePan(0,-1)">
                  <use xlink:href="#rim" fill="#404040">
                        <set attributeName="fill" to="#808080" begin="arrowUp.mouseover" end="arrowUp.mouseout"/>
                  </use>
                  <path fill="none" stroke="white" stroke-width="1.5" d="M0,-3.0v7 M-2.5,-0.5L0,-3.0L2.5,-0.5"/>
                </g>
                <g id="arrowRight" xlink:href="#dirArrow" transform="rotate(90) translate(36 -43)" onmousedown="handlePan(1,0)">
                  <use xlink:href="#rim" fill="#404040">
                        <set attributeName="fill" to="#808080" begin="arrowRight.mouseover" end="arrowRight.mouseout"/>
                  </use>
                  <path fill="none" stroke="white" stroke-width="1.5" d="M0,-3.0v7 M-2.5,-0.5L0,-3.0L2.5,-0.5"/>
                </g>
                <g id="arrowDown" xlink:href="#dirArrow" transform="rotate(180) translate(-30 -48)" onmousedown="handlePan(0,1)">
                  <use xlink:href="#rim" fill="#404040">
                        <set attributeName="fill" to="#808080" begin="arrowDown.mouseover" end="arrowDown.mouseout"/>
                  </use>
                  <path fill="none" stroke="white" stroke-width="1.5" d="M0,-3.0v7 M-2.5,-0.5L0,-3.0L2.5,-0.5"/>
                </g>
                <g id="arrowLeft" xlink:href="#dirArrow" transform="rotate(270) translate(-36 17)" onmousedown="handlePan(-1,0)">
                  <use xlink:href="#rim" fill="#404040">
                        <set attributeName="fill" to="#808080" begin="arrowLeft.mouseover" end="arrowLeft.mouseout"/>
                  </use>
                  <path fill="none" stroke="white" stroke-width="1.5" d="M0,-3.0v7 M-2.5,-0.5L0,-3.0L2.5,-0.5"/>
                </g>
        </g>
        <svg viewBox="0 0 15 15" width="100%" height="30px" preserveAspectRatio="xMaxYMin meet">
         <g id="arrow_out" transform="scale(0.3 0.3)">
          <a xlink:href="classcommands_1_1_movement_command_a80189fb5aa013c7f5c400118c94ddf8c_cgraph_org.svg" target="_base">
           <rect id="button" ry="5" rx="5" y="6" x="6" height="38" width="38"
                fill="#f2f5e9" fill-opacity="0.5" stroke="#606060" stroke-width="1.0"/>
           <path id="arrow"
             d="M 11.500037,31.436501 C 11.940474,20.09759 22.043105,11.32322 32.158766,21.979434 L 37.068811,17.246167 C 37.068811,17.246167 37.088388,32 37.088388,32 L 22.160133,31.978069 C 22.160133,31.978069 26.997745,27.140456 26.997745,27.140456 C 18.528582,18.264221 13.291696,25.230495 11.500037,31.436501 z"
             style="fill:#404040;"/>
          </a>
         </g>
        </svg>
</svg>
