<?xml version="1.0" encoding="UTF-8" standalone="no"?>
<!DOCTYPE svg PUBLIC "-//W3C//DTD SVG 1.1//EN"
 "http://www.w3.org/Graphics/SVG/1.1/DTD/svg11.dtd">
<!-- Generated by graphviz version 2.36.0 (20140111.2315)
 -->
<!-- Title: commands.CommandsQueue.addCommand Pages: 1 -->
<svg width="1546pt" height="119pt"
 viewBox="0.00 0.00 1546.00 119.00" xmlns="http://www.w3.org/2000/svg" xmlns:xlink="http://www.w3.org/1999/xlink">
<g id="graph0" class="graph" transform="scale(1 1) rotate(0) translate(4 115)">
<title>commands.CommandsQueue.addCommand</title>
<polygon fill="white" stroke="none" points="-4,4 -4,-115 1542,-115 1542,4 -4,4"/>
<!-- Node1 -->
<g id="node1" class="node"><title>Node1</title>
<polygon fill="#bfbfbf" stroke="black" points="0,-18 0,-48 182,-48 182,-18 0,-18"/>
<text text-anchor="start" x="8" y="-36" font-family="Helvetica,sans-Serif" font-size="10.00">commands.CommandsQueue.add</text>
<text text-anchor="middle" x="91" y="-25" font-family="Helvetica,sans-Serif" font-size="10.00">Command</text>
</g>
<!-- Node2 -->
<g id="node2" class="node"><title>Node2</title>
<g id="a_node2"><a xlink:href="../../d5/d0e/classparser_1_1_logo_parser.html#a6b0ba0c2b5b0bc8c2ef76863fffdb6a3" target="_top" xlink:title="parser.LogoParser.list">
<polygon fill="white" stroke="black" points="218.5,-23.5 218.5,-42.5 337.5,-42.5 337.5,-23.5 218.5,-23.5"/>
<text text-anchor="middle" x="278" y="-30.5" font-family="Helvetica,sans-Serif" font-size="10.00">parser.LogoParser.list</text>
</a>
</g>
</g>
<!-- Node1&#45;&gt;Node2 -->
<g id="edge1" class="edge"><title>Node1&#45;&gt;Node2</title>
<path fill="none" stroke="midnightblue" d="M192.157,-33C201.079,-33 209.905,-33 218.301,-33"/>
<polygon fill="midnightblue" stroke="midnightblue" points="192.061,-29.5001 182.061,-33 192.061,-36.5001 192.061,-29.5001"/>
</g>
<!-- Node3 -->
<g id="node3" class="node"><title>Node3</title>
<g id="a_node3"><a xlink:href="../../d5/d0e/classparser_1_1_logo_parser.html#adefe3b97ad0d2d7fd0dcd13f7ef2c75e" target="_top" xlink:title="parser.LogoParser.parse">
<polygon fill="white" stroke="black" points="387,-42.5 387,-61.5 519,-61.5 519,-42.5 387,-42.5"/>
<text text-anchor="middle" x="453" y="-49.5" font-family="Helvetica,sans-Serif" font-size="10.00">parser.LogoParser.parse</text>
</a>
</g>
</g>
<!-- Node2&#45;&gt;Node3 -->
<g id="edge2" class="edge"><title>Node2&#45;&gt;Node3</title>
<path fill="none" stroke="midnightblue" d="M347.783,-40.5543C360.695,-41.9723 374.157,-43.4508 386.95,-44.8558"/>
<polygon fill="midnightblue" stroke="midnightblue" points="347.892,-37.0452 337.57,-39.4325 347.128,-44.0034 347.892,-37.0452"/>
</g>
<!-- Node12 -->
<g id="node12" class="node"><title>Node12</title>
<g id="a_node12"><a xlink:href="../../d5/d0e/classparser_1_1_logo_parser.html#a4a8825534e0488215d22bcd947bc4d41" target="_top" xlink:title="parser.LogoParser.expression">
<polygon fill="white" stroke="black" points="374.5,-4.5 374.5,-23.5 531.5,-23.5 531.5,-4.5 374.5,-4.5"/>
<text text-anchor="middle" x="453" y="-11.5" font-family="Helvetica,sans-Serif" font-size="10.00">parser.LogoParser.expression</text>
</a>
</g>
</g>
<!-- Node2&#45;&gt;Node12 -->
<g id="edge12" class="edge"><title>Node2&#45;&gt;Node12</title>
<path fill="none" stroke="midnightblue" d="M347.741,-25.4504C356.525,-24.4857 365.563,-23.493 374.474,-22.5144"/>
<polygon fill="midnightblue" stroke="midnightblue" points="347.128,-21.9966 337.57,-26.5675 347.892,-28.9548 347.128,-21.9966"/>
</g>
<!-- Node4 -->
<g id="node4" class="node"><title>Node4</title>
<g id="a_node4"><a xlink:href="../../d6/d95/classparser_1_1_parser.html#af3d0cef45b9f02f1707959c08d8f3797" target="_top" xlink:title="parser.Parser.parse">
<polygon fill="white" stroke="black" points="568.5,-42.5 568.5,-61.5 677.5,-61.5 677.5,-42.5 568.5,-42.5"/>
<text text-anchor="middle" x="623" y="-49.5" font-family="Helvetica,sans-Serif" font-size="10.00">parser.Parser.parse</text>
</a>
</g>
</g>
<!-- Node3&#45;&gt;Node4 -->
<g id="edge3" class="edge"><title>Node3&#45;&gt;Node4</title>
<path fill="none" stroke="midnightblue" d="M529.801,-52C542.828,-52 556.122,-52 568.411,-52"/>
<polygon fill="midnightblue" stroke="midnightblue" points="529.434,-48.5001 519.434,-52 529.434,-55.5001 529.434,-48.5001"/>
</g>
<!-- Node5 -->
<g id="node5" class="node"><title>Node5</title>
<g id="a_node5"><a xlink:href="../../d4/d06/classinput_1_1_input_executor.html#a687a9f2cbed5d27a2c7b1336a1cab8aa" target="_top" xlink:title="input.InputExecutor.process\lInput">
<polygon fill="white" stroke="black" points="714.5,-81 714.5,-111 863.5,-111 863.5,-81 714.5,-81"/>
<text text-anchor="start" x="722.5" y="-99" font-family="Helvetica,sans-Serif" font-size="10.00">input.InputExecutor.process</text>
<text text-anchor="middle" x="789" y="-88" font-family="Helvetica,sans-Serif" font-size="10.00">Input</text>
</a>
</g>
</g>
<!-- Node4&#45;&gt;Node5 -->
<g id="edge4" class="edge"><title>Node4&#45;&gt;Node5</title>
<path fill="none" stroke="midnightblue" d="M669.356,-64.1687C688.696,-69.3574 711.459,-75.4646 731.847,-80.9346"/>
<polygon fill="midnightblue" stroke="midnightblue" points="670.151,-60.7583 659.586,-61.5473 668.337,-67.5192 670.151,-60.7583"/>
</g>
<!-- Node6 -->
<g id="node6" class="node"><title>Node6</title>
<g id="a_node6"><a xlink:href="../../d6/d95/classparser_1_1_parser.html#ae90f8410be9931ec3f349085c8fdae71" target="_top" xlink:title="parser.Parser.parseFile">
<polygon fill="white" stroke="black" points="727,-42.5 727,-61.5 851,-61.5 851,-42.5 727,-42.5"/>
<text text-anchor="middle" x="789" y="-49.5" font-family="Helvetica,sans-Serif" font-size="10.00">parser.Parser.parseFile</text>
</a>
</g>
</g>
<!-- Node4&#45;&gt;Node6 -->
<g id="edge5" class="edge"><title>Node4&#45;&gt;Node6</title>
<path fill="none" stroke="midnightblue" d="M687.816,-52C700.629,-52 714.065,-52 726.787,-52"/>
<polygon fill="midnightblue" stroke="midnightblue" points="687.7,-48.5001 677.7,-52 687.7,-55.5001 687.7,-48.5001"/>
</g>
<!-- Node11 -->
<g id="node11" class="node"><title>Node11</title>
<g id="a_node11"><a xlink:href="../../d5/d56/class_workspace.html#a0ed8fb487512971086b6f3ed0d74e4ae" target="_top" xlink:title="Workspace.sendUserInput">
<polygon fill="white" stroke="black" points="905,-0.5 905,-19.5 1045,-19.5 1045,-0.5 905,-0.5"/>
<text text-anchor="middle" x="975" y="-7.5" font-family="Helvetica,sans-Serif" font-size="10.00">Workspace.sendUserInput</text>
</a>
</g>
</g>
<!-- Node4&#45;&gt;Node11 -->
<g id="edge10" class="edge"><title>Node4&#45;&gt;Node11</title>
<path fill="none" stroke="midnightblue" d="M674.234,-40.2843C687.139,-37.5809 701.039,-34.9343 714,-33 778.315,-23.4018 852.222,-17.3372 904.759,-13.8606"/>
<polygon fill="midnightblue" stroke="midnightblue" points="673.178,-36.9313 664.135,-42.4521 674.647,-43.7754 673.178,-36.9313"/>
</g>
<!-- Node7 -->
<g id="node7" class="node"><title>Node7</title>
<g id="a_node7"><a xlink:href="../../d9/de8/class_file_chooser_feature.html#ad742b8e9d07e8151f0a9ff1972867ce8" target="_top" xlink:title="FileChooserFeature.openFile\lChooser">
<polygon fill="white" stroke="black" points="900.5,-39 900.5,-69 1049.5,-69 1049.5,-39 900.5,-39"/>
<text text-anchor="start" x="908.5" y="-57" font-family="Helvetica,sans-Serif" font-size="10.00">FileChooserFeature.openFile</text>
<text text-anchor="middle" x="975" y="-46" font-family="Helvetica,sans-Serif" font-size="10.00">Chooser</text>
</a>
</g>
</g>
<!-- Node6&#45;&gt;Node7 -->
<g id="edge6" class="edge"><title>Node6&#45;&gt;Node7</title>
<path fill="none" stroke="midnightblue" d="M861.173,-52.7736C874.02,-52.9133 887.439,-53.0591 900.354,-53.1995"/>
<polygon fill="midnightblue" stroke="midnightblue" points="861.051,-49.2722 851.014,-52.6632 860.975,-56.2718 861.051,-49.2722"/>
</g>
<!-- Node8 -->
<g id="node8" class="node"><title>Node8</title>
<g id="a_node8"><a xlink:href="../../d5/d56/class_workspace.html#a6babd032d9af86fbc23812272d59a2d2" target="_top" xlink:title="Workspace.addFeatureButtons">
<polygon fill="white" stroke="black" points="1086,-42.5 1086,-61.5 1248,-61.5 1248,-42.5 1086,-42.5"/>
<text text-anchor="middle" x="1167" y="-49.5" font-family="Helvetica,sans-Serif" font-size="10.00">Workspace.addFeatureButtons</text>
</a>
</g>
</g>
<!-- Node7&#45;&gt;Node8 -->
<g id="edge7" class="edge"><title>Node7&#45;&gt;Node8</title>
<path fill="none" stroke="midnightblue" d="M1059.77,-53.1182C1068.38,-53.0276 1077.12,-52.9356 1085.7,-52.8453"/>
<polygon fill="midnightblue" stroke="midnightblue" points="1059.69,-49.6187 1049.73,-53.2239 1059.77,-56.6183 1059.69,-49.6187"/>
</g>
<!-- Node9 -->
<g id="node9" class="node"><title>Node9</title>
<g id="a_node9"><a xlink:href="../../d5/d56/class_workspace.html#a429d535dfd8427637b7715f0b1e1df1b" target="_top" xlink:title="Workspace.createWorkspace">
<polygon fill="white" stroke="black" points="1284,-22.5 1284,-41.5 1436,-41.5 1436,-22.5 1284,-22.5"/>
<text text-anchor="middle" x="1360" y="-29.5" font-family="Helvetica,sans-Serif" font-size="10.00">Workspace.createWorkspace</text>
</a>
</g>
</g>
<!-- Node8&#45;&gt;Node9 -->
<g id="edge8" class="edge"><title>Node8&#45;&gt;Node9</title>
<path fill="none" stroke="midnightblue" d="M1258.22,-42.5526C1266.82,-41.6521 1275.48,-40.7457 1283.91,-39.8626"/>
<polygon fill="midnightblue" stroke="midnightblue" points="1257.75,-39.0826 1248.17,-43.6051 1258.48,-46.0446 1257.75,-39.0826"/>
</g>
<!-- Node10 -->
<g id="node10" class="node"><title>Node10</title>
<g id="a_node10"><a xlink:href="../../d0/d4b/class_main.html#aaa75b38812324d0f17c89f139bde6ada" target="_top" xlink:title="Main.start">
<polygon fill="white" stroke="black" points="1472.5,-22.5 1472.5,-41.5 1537.5,-41.5 1537.5,-22.5 1472.5,-22.5"/>
<text text-anchor="middle" x="1505" y="-29.5" font-family="Helvetica,sans-Serif" font-size="10.00">Main.start</text>
</a>
</g>
</g>
<!-- Node9&#45;&gt;Node10 -->
<g id="edge9" class="edge"><title>Node9&#45;&gt;Node10</title>
<path fill="none" stroke="midnightblue" d="M1446.39,-32C1455.63,-32 1464.55,-32 1472.5,-32"/>
<polygon fill="midnightblue" stroke="midnightblue" points="1446.27,-28.5001 1436.27,-32 1446.27,-35.5001 1446.27,-28.5001"/>
</g>
<!-- Node11&#45;&gt;Node9 -->
<g id="edge11" class="edge"><title>Node11&#45;&gt;Node9</title>
<path fill="none" stroke="midnightblue" d="M1055.47,-14.5646C1122.6,-18.4211 1218.08,-23.9052 1283.94,-27.6882"/>
<polygon fill="midnightblue" stroke="midnightblue" points="1055.54,-11.0634 1045.36,-13.984 1055.14,-18.0518 1055.54,-11.0634"/>
</g>
</g>
</svg>
